<?xml version="1.0" encoding="UTF-8" standalone="no"?>
<!-- Created with Inkscape (http://www.inkscape.org/) -->

<svg
   width="172.67163mm"
   height="45.421101mm"
   viewBox="0 0 172.67163 45.4211"
   version="1.1"
   id="svg1"
   xml:space="preserve"
   xmlns="http://www.w3.org/2000/svg"
   xmlns:svg="http://www.w3.org/2000/svg"><defs
     id="defs1" /><g
     id="g1606"
     transform="matrix(0.26458333,0,0,0.26458333,-906.54214,-140.92371)"><g
       id="g15"><path
         id="path1898"
         d="m 56.69362,28.3468 v 29.42386 m 0,26.1927 v 29.42388 h 16.32779 m 52.38482,0 h 16.32781"
         style="fill:none;stroke:#000000;stroke-width:0.3985;stroke-linecap:butt;stroke-linejoin:miter;stroke-miterlimit:10;stroke-dasharray:none;stroke-opacity:1"
         transform="matrix(1.3333333,0,0,-1.3333333,3409.3627,741.82533)" /><path
         id="path1899"
         d="m 43.59726,70.867 c 0,-7.23298 5.86336,-13.09634 13.09636,-13.09634 7.23298,0 13.09634,5.86336 13.09634,13.09634 0,7.233 -5.86336,13.09636 -13.09634,13.09636 -7.233,0 -13.09636,-5.86336 -13.09636,-13.09636 z"
         style="fill:none;stroke:#000000;stroke-width:0.797;stroke-linecap:butt;stroke-linejoin:miter;stroke-miterlimit:10;stroke-dasharray:none;stroke-opacity:1"
         transform="matrix(1.3333333,0,0,-1.3333333,3409.3627,741.82533)" /><path
         id="path1900"
         d="m 56.69362,57.77066 v 26.1927"
         style="fill:none;stroke:#000000;stroke-width:0.797;stroke-linecap:butt;stroke-linejoin:miter;stroke-miterlimit:10;stroke-dasharray:none;stroke-opacity:1"
         transform="matrix(1.3333333,0,0,-1.3333333,3409.3627,741.82533)" /><path
         id="path1901"
         d="M 125.40623,106.83907 H 73.02141 v 13.09633 h 52.38482 z"
         style="fill:none;stroke:#000000;stroke-width:0.797;stroke-linecap:butt;stroke-linejoin:miter;stroke-miterlimit:10;stroke-dasharray:none;stroke-opacity:1"
         transform="matrix(1.3333333,0,0,-1.3333333,3409.3627,741.82533)" /><g
         id="g1901"
         aria-label="λ/4|Z&#10;0"
         transform="matrix(1.4666667,0,0,1.4666667,3514.9133,576.752)"><path
           id="path1902"
           d="m 5.4550426,0.01195312 c 0,-0.03196022 -0.010653,-0.05326704 -0.042614,-0.08522727 C 5.3058949,-0.19046165 5.2526278,-0.33960938 5.178054,-0.53137074 L 3.1432528,-6.2096378 c -0.2024147,-0.5752841 -0.7457386,-0.703125 -1.2144886,-0.703125 -0.042614,0 -0.1704545,0 -0.1704545,0.1065341 0,0.085227 0.085227,0.1065341 0.085227,0.1065341 0.3302557,0.053267 0.3941762,0.1171875 0.649858,0.7990057 l 0.9588068,2.7059659 -2.74857954,2.72727272 c -0.1171875,0.1171875 -0.17045455,0.18110795 -0.17045455,0.30894886 0,0.17045454 0.13849432,0.28764204 0.29829546,0.28764204 0.15980113,0 0.24502843,-0.10653409 0.31960223,-0.20241477 L 3.5587358,-2.907081 c 0.4048295,1.0440341 0.8842329,2.56747162 1.0440341,2.80184662 0.1598011,0.21306819 0.2556818,0.21306819 0.5326704,0.21306819 H 5.3485085 C 5.4443892,0.0971804 5.4550426,0.04391335 5.4550426,0.01195312 Z M 10.233097,-7.2749787 c 0,-0.1065341 -0.08523,-0.1917614 -0.202415,-0.1917614 -0.063921,0 -0.1384945,0.03196 -0.1598013,0.085227 l -3.462358,9.4921875 c -0.053267,0.1278409 -0.053267,0.181108 -0.053267,0.181108 0,0.1065341 0.095881,0.2024147 0.2024148,0.2024147 0.1278409,0 0.1598011,-0.074574 0.2237215,-0.2450284 L 10.17983,-7.093871 c 0.05327,-0.1278409 0.05327,-0.181108 0.05327,-0.181108 z m 0,0"
           style="fill:#000000;fill-opacity:1;fill-rule:nonzero;stroke:none" /><path
           id="path1903"
           d="m 15.479901,-1.6393253 v -0.3089488 h -0.990767 v -4.5383523 c 0,-0.1917614 0,-0.2556818 -0.159802,-0.2556818 -0.08523,0 -0.117187,0 -0.202414,0.1171875 l -3.057529,4.6768466 v 0.3089488 h 2.652699 v 0.86292615 c 0,0.36221591 -0.02131,0.46875 -0.756392,0.46875 h -0.213068 v 0.30894887 c 0.415483,-0.03196023 0.926846,-0.03196023 1.342329,-0.03196023 0.426137,0 0.948154,0 1.363637,0.03196023 v -0.30894887 h -0.213068 c -0.735086,0 -0.756392,-0.10653409 -0.756392,-0.46875 V -1.6393253 Z m -1.704546,-0.3089488 h -2.428977 l 2.428977,-3.7180398 z m 0,0"
           style="fill:#000000;fill-opacity:1;fill-rule:nonzero;stroke:none" /><path
           id="path1904"
           d="m 20.678764,2.1639418 v -9.3004262 c 0,-0.1384943 0,-0.3302557 -0.202415,-0.3302557 -0.202414,0 -0.202414,0.1917614 -0.202414,0.3302557 v 9.3004262 c 0,0.1384943 0,0.3302556 0.202414,0.3302556 0.202415,0 0.202415,-0.1917613 0.202415,-0.3302556 z m 0,0"
           style="fill:#000000;fill-opacity:1;fill-rule:nonzero;stroke:none" /><path
           id="path1905"
           d="m 31.396094,-2.5448651 c 0,-0.053267 -0.03196,-0.1171875 -0.127841,-0.1171875 -0.08523,0 -0.09588,0.042614 -0.170455,0.2556819 -0.436789,1.3529829 -0.916193,2.06676132 -2.610085,2.06676132 h -1.693892 l 5.56108,-6.22159092 c 0.01065,-0.042614 0.03196,-0.095881 0.03196,-0.1491477 0,-0.095881 -0.05327,-0.095881 -0.245029,-0.095881 h -4.208096 c -0.234375,0 -0.245029,0.010653 -0.308949,0.2024148 l -0.543324,1.7897727 c -0.02131,0.053267 -0.03196,0.1384943 -0.03196,0.1384943 0,0 0,0.1171875 0.117187,0.1171875 0.08523,0 0.106534,-0.074574 0.127841,-0.1065341 0.383523,-1.171875 0.894887,-1.8323863 2.450284,-1.8323863 h 1.629972 l -5.571733,6.23224429 c 0,0 -0.04261,0.14914773 -0.04261,0.18110795 0,0.08522728 0.07457,0.08522728 0.255682,0.08522728 h 4.325284 c 0.245029,0 0.255682,-0.01065341 0.308949,-0.20241478 l 0.713779,-2.19460224 c 0.01065,-0.042614 0.03196,-0.1171875 0.03196,-0.1491478 z m 0,0"
           style="fill:#000000;fill-opacity:1;fill-rule:nonzero;stroke:none" /><path
           id="path1906"
           d="m 35.585547,-0.73378551 c 0,-0.76704549 -0.09588,-1.32102269 -0.415483,-1.81107959 -0.213068,-0.3196022 -0.649858,-0.5965909 -1.203835,-0.5965909 -1.619318,0 -1.619318,1.9069603 -1.619318,2.40767049 0,0.50071023 0,2.36505681 1.619318,2.36505681 1.619318,0 1.619318,-1.86434658 1.619318,-2.36505681 z m -0.639205,-0.0852273 c 0,0.51136363 0,1.02272727 -0.08523,1.47017045 -0.138494,0.62855116 -0.617898,0.78835226 -0.894886,0.78835226 -0.319603,0 -0.745739,-0.1917613 -0.884233,-0.76704544 -0.09588,-0.40482955 -0.09588,-0.98011364 -0.09588,-1.49147727 0,-0.51136359 0,-1.04403409 0.09588,-1.42755679 0.149147,-0.5539773 0.596591,-0.703125 0.884233,-0.703125 0.372869,0 0.735085,0.234375 0.862926,0.6392045 0.117187,0.3728694 0.117187,0.884233 0.117187,1.49147729 z m 0,0"
           style="fill:#000000;fill-opacity:1;fill-rule:nonzero;stroke:none" /></g><path
         id="path1907"
         d="m 141.73404,28.3468 -2e-5,34.88062 m 0,15.27917 2e-5,34.88065"
         style="fill:none;stroke:#000000;stroke-width:0.3985;stroke-linecap:butt;stroke-linejoin:miter;stroke-miterlimit:10;stroke-dasharray:none;stroke-opacity:1"
         transform="matrix(1.3333333,0,0,-1.3333333,3409.3627,741.82533)" /><path
         id="path1908"
         d="m 141.73402,63.22742 -6.54815,14.51516"
         style="fill:none;stroke:#000000;stroke-width:0.797;stroke-linecap:butt;stroke-linejoin:miter;stroke-miterlimit:10;stroke-dasharray:none;stroke-opacity:1"
         transform="matrix(1.3333333,0,0,-1.3333333,3409.3627,741.82533)" /><path
         id="path1909"
         d="M 127.56062,48.18947 V 93.14604"
         style="fill:none;stroke:#000000;stroke-width:0.3985;stroke-linecap:butt;stroke-linejoin:miter;stroke-miterlimit:10;stroke-dasharray:none;stroke-opacity:1"
         transform="matrix(1.3333333,0,0,-1.3333333,3409.3627,741.82533)" /><path
         id="path1910"
         d="M -2.07224,2.39104 C -1.69365,0.95639 -0.84999,0.27895 0,0 -0.84999,-0.27895 -1.69365,-0.95639 -2.07224,-2.39104"
         style="fill:none;stroke:#000000;stroke-width:0.3985;stroke-linecap:round;stroke-linejoin:round;stroke-miterlimit:10;stroke-dasharray:none;stroke-opacity:1"
         transform="matrix(0,-1.3333333,-1.3333333,0,3579.4435,617.36495)" /><g
         id="g1910"
         aria-label="v&#10;s&#10;(ωt)"
         transform="matrix(1.4666667,0,0,1.4666667,3533.1893,650.99067)"><path
           id="path1911"
           d="m 4.6649432,-3.7063494 c 0,-0.5326705 -0.2663352,-0.6924716 -0.4474432,-0.6924716 -0.2450284,0 -0.4794034,0.2556818 -0.4794034,0.4794034 0,0.1278409 0.042614,0.1811079 0.1598011,0.2982954 0.2024148,0.1917614 0.3302557,0.4580966 0.3302557,0.8096591 0,0.4261364 -0.6072443,2.70596594 -1.7684659,2.70596594 -0.5113636,0 -0.7350852,-0.3515625 -0.7350852,-0.87357954 0,-0.5539773 0.2663352,-1.2784091 0.5752841,-2.109375 0.074574,-0.1704546 0.1171875,-0.3089489 0.1171875,-0.5007102 0,-0.4474432 -0.3196023,-0.8096591 -0.8096591,-0.8096591 -0.93750003,0 -1.32102275,1.4382102 -1.32102275,1.5340909 0,0.095881 0.1171875,0.095881 0.1171875,0.095881 0.10653409,0 0.1171875,-0.021307 0.15980113,-0.181108 0.28764205,-1.0014204 0.72443182,-1.2357954 1.01207382,-1.2357954 0.074574,0 0.2450285,0 0.2450285,0.3196022 0,0.2556818 -0.095881,0.5220171 -0.1704546,0.703125 -0.4367898,1.1505682 -0.5646307,1.6086648 -0.5646307,2.0348012 0,1.07599429 0.8735796,1.23579542 1.3316762,1.23579542 1.6725852,0 2.2478693,-3.29190342 2.2478693,-3.81392072 z m 0,0"
           style="fill:#000000;fill-opacity:1;fill-rule:nonzero;stroke:none" /><path
           id="path1912"
           d="m 7.9728267,0.40852983 c 0,-0.63920455 -0.703125,-0.76704546 -0.9694602,-0.80965909 -0.063921,-0.0106534 -0.234375,-0.0426136 -0.2769887,-0.0532671 -0.2556818,-0.053267 -0.3835227,-0.20241477 -0.3835227,-0.3515625 0,-0.15980113 0.1278409,-0.35156254 0.2769886,-0.44744314 0.1917614,-0.1171875 0.4367898,-0.1384944 0.5539773,-0.1384944 0.1491477,0 0.5113637,0.021307 0.6605114,0.2663352 -0.181108,0.042614 -0.2876421,0.18110802 -0.2876421,0.33025575 0,0.15980114 0.1384944,0.21306818 0.2237216,0.21306818 0.074574,0 0.3409091,-0.0319602 0.3409091,-0.39417613 0,-0.4474432 -0.5007102,-0.6072444 -0.9268466,-0.6072444 -1.0866477,0 -1.2890625,0.79900576 -1.2890625,1.02272735 0,0.25568182 0.1491478,0.42613637 0.2450284,0.51136364 0.181108,0.13849432 0.3089489,0.15980113 0.7883523,0.24502841 0.1491477,0.0319602 0.5965909,0.1171875 0.5965909,0.45809659 0,0.12784091 -0.074574,0.38352271 -0.3728693,0.56463061 -0.2663352,0.1491477 -0.6178977,0.1491477 -0.6924716,0.1491477 -0.287642,0 -0.6818182,-0.06392 -0.8416193,-0.287642 0.234375,-0.03196 0.3835227,-0.20241472 0.3835227,-0.40482949 0,-0.17045455 -0.1278409,-0.25568182 -0.2769886,-0.25568182 -0.2024148,0 -0.3941762,0.15980113 -0.3941762,0.46875 0,0.41548291 0.4367898,0.68181811 1.118608,0.68181811 1.2784091,0 1.5234375,-0.88423288 1.5234375,-1.16122147 z m 0,0"
           style="fill:#000000;fill-opacity:1;fill-rule:nonzero;stroke:none" /><path
           id="path1913"
           d="m 12.380675,2.3874006 c 0,-0.021307 0,-0.042614 -0.159801,-0.2130682 -1.246449,-1.25710229 -1.566052,-3.1427557 -1.566052,-4.6661932 0,-1.7258523 0.37287,-3.462358 1.598012,-4.7088068 0.127841,-0.1171875 0.127841,-0.1384943 0.127841,-0.1704546 0,-0.06392 -0.03196,-0.095881 -0.09588,-0.095881 -0.09588,0 -0.990767,0.6711647 -1.587358,1.9389204 -0.50071,1.0973011 -0.617898,2.2052557 -0.617898,3.0362216 0,0.7776989 0.106534,1.9815341 0.649858,3.11079546 0.596591,1.22514204 1.459517,1.87500004 1.555398,1.87500004 0.06392,0 0.09588,-0.03196 0.09588,-0.1065337 z m 0,0"
           style="fill:#000000;fill-opacity:1;fill-rule:nonzero;stroke:none" /><path
           id="path1914"
           d="m 18.746087,-2.3746733 c 0.117187,-0.4367898 0.234375,-0.9268466 0.234375,-1.3316761 0,-0.2556819 -0.05327,-0.4794034 -0.202415,-0.6072444 -0.06392,-0.053267 -0.138494,-0.085227 -0.223722,-0.085227 -0.127841,0 -0.255682,0.053267 -0.351562,0.1598011 -0.09588,0.095881 -0.138495,0.2024148 -0.138495,0.3196023 0,0.095881 0.03196,0.1704545 0.106535,0.2450284 0.245028,0.2237216 0.383522,0.5326704 0.383522,0.8735795 0,0.1171875 -0.01065,0.2556819 -0.04261,0.3728694 -0.234375,0.9055397 -0.809659,1.82173291 -1.598012,1.82173291 -0.553977,0 -0.884233,-0.38352272 -0.96946,-0.89488641 0.127841,-0.2769886 0.223722,-0.575284 0.298296,-0.8735795 0.01065,-0.095881 0.03196,-0.181108 0.03196,-0.2663352 0,-0.1491478 -0.04261,-0.2556818 -0.181108,-0.2556818 -0.191762,0 -0.298296,0.2450284 -0.340909,0.46875 -0.08523,0.3089488 -0.117188,0.6072443 -0.127841,0.8948863 -0.330256,0.54332389 -0.809659,0.92684661 -1.363637,0.92684661 -0.607244,0 -0.862926,-0.50071021 -0.862926,-1.12926141 0,-0.1917613 0.03196,-0.4261363 0.08523,-0.6392045 0.149147,-0.6072443 0.50071,-1.1612216 0.884233,-1.6832386 0.03196,-0.042614 0.05327,-0.095881 0.05327,-0.1384944 0,-0.053267 -0.04261,-0.106534 -0.09588,-0.1384943 -0.03196,-0.021307 -0.06392,-0.021307 -0.08523,-0.021307 -0.06392,0 -0.127841,0.03196 -0.181108,0.095881 -0.40483,0.5646307 -0.660512,1.2038352 -0.820313,1.8323864 -0.09588,0.3728693 -0.149148,0.7670454 -0.149148,1.1186079 0,0.7990057 0.287642,1.41690342 1.044035,1.41690342 0.628551,0 1.150568,-0.43678977 1.523437,-1.0546875 0.117188,0.61789773 0.458097,1.0546875 1.129261,1.0546875 1.033381,0 1.661932,-1.27840912 1.960228,-2.48224432 z m 3.909801,0.9481534 c 0,-0.095881 -0.08523,-0.095881 -0.127841,-0.095881 -0.08523,0 -0.09588,0.03196 -0.149148,0.1384943 -0.426136,1.03338073 -0.948153,1.27840914 -1.289062,1.27840914 -0.213069,0 -0.308949,-0.12784091 -0.308949,-0.45809659 0,-0.24502841 0.02131,-0.30894886 0.05327,-0.47940345 l 0.745738,-2.9403409 h 0.926847 c 0.202415,0 0.308949,0 0.308949,-0.2024147 0,-0.1065341 -0.106534,-0.1065341 -0.287642,-0.1065341 h -0.87358 c 0.362216,-1.4169034 0.40483,-1.6086648 0.40483,-1.6725853 0,-0.1704545 -0.117188,-0.2663352 -0.287642,-0.2663352 -0.02131,0 -0.308949,0.010653 -0.394176,0.3515625 l -0.394176,1.587358 h -0.926847 c -0.202415,0 -0.298295,0 -0.298295,0.1917613 0,0.1171875 0.07457,0.1171875 0.276988,0.1171875 h 0.87358 c -0.713779,2.8338068 -0.756392,2.99360799 -0.756392,3.17471594 0,0.54332386 0.372869,0.91619318 0.916193,0.91619318 1.012074,0 1.587358,-1.44886362 1.587358,-1.53409092 z m 0,0"
           style="fill:#000000;fill-opacity:1;fill-rule:nonzero;stroke:none" /><path
           id="path1915"
           d="m 25.995732,-2.4918608 c 0,-0.7776989 -0.106535,-1.9815341 -0.649858,-3.100142 -0.607245,-1.2251421 -1.459517,-1.875 -1.555398,-1.875 -0.06392,0 -0.106534,0.03196 -0.106534,0.095881 0,0.03196 0,0.053267 0.191761,0.234375 0.980114,0.9801137 1.544744,2.5674716 1.544744,4.6448864 0,1.70454546 -0.372869,3.46235796 -1.608664,4.7194602 -0.127841,0.1171875 -0.127841,0.1384943 -0.127841,0.1598012 0,0.06392 0.04261,0.1065341 0.106534,0.1065341 0.09588,0 0.990767,-0.6818182 1.576704,-1.9495739 0.511364,-1.08664773 0.628552,-2.1946023 0.628552,-3.036222 z m 0,0"
           style="fill:#000000;fill-opacity:1;fill-rule:nonzero;stroke:none" /></g><path
         id="path1916"
         d="m 175.75012,28.3468 v 38.15486 m 0,8.73069 v 38.15489"
         style="fill:none;stroke:#000000;stroke-width:0.3985;stroke-linecap:butt;stroke-linejoin:miter;stroke-miterlimit:10;stroke-dasharray:none;stroke-opacity:1"
         transform="matrix(1.3333333,0,0,-1.3333333,3409.3627,741.82533)" /><path
         id="path1917"
         d="m 162.65378,66.50166 h 26.1927 m -26.1927,8.73069 h 26.1927"
         style="fill:none;stroke:#000000;stroke-width:0.797;stroke-linecap:butt;stroke-linejoin:miter;stroke-miterlimit:10;stroke-dasharray:none;stroke-opacity:1"
         transform="matrix(1.3333333,0,0,-1.3333333,3409.3627,741.82533)" /><g
         id="g1917"
         aria-label="C&#10;s"
         transform="matrix(1.4666667,0,0,1.4666667,3665.26,650.48267)"><path
           id="path1918"
           d="m 6.4464844,-2.3851989 c 0,-0.1065341 -0.1171875,-0.1065341 -0.1171875,-0.1065341 -0.063921,0 -0.1171875,0.021307 -0.1278409,0.1065341 -0.095881,0.2876421 -0.3196023,0.9907671 -1.0120739,1.56605117 -0.6818182,0.56463068 -1.3103693,0.73508523 -1.8323864,0.73508523 -0.8948863,0 -1.9495738,-0.52201705 -1.9495738,-2.0774148 0,-0.5646307 0.2024147,-2.1839488 1.2038352,-3.3451704 0.6072443,-0.703125 1.5447443,-1.2038353 2.4289773,-1.2038353 1.0120738,0 1.6086647,0.7670455 1.6086647,1.9176137 0,0.4048295 -0.03196,0.4154829 -0.03196,0.5113636 0,0.095881 0.1065341,0.095881 0.1491477,0.095881 0.127841,0 0.127841,-0.021307 0.181108,-0.1917614 l 0.6285511,-2.5461647 c 0,-0.03196 -0.021307,-0.095881 -0.1171875,-0.095881 -0.021307,0 -0.03196,0.010653 -0.1491477,0.1171875 l -0.6924716,0.7670454 c -0.095881,-0.1384943 -0.5539773,-0.8842329 -1.6512784,-0.8842329 -2.2265625,0 -4.4637784,2.1946023 -4.4637784,4.506392 0,1.65127844 1.171875,2.73792616 2.6953125,2.73792616 0.8629261,0 1.6299716,-0.40482954 2.1519886,-0.86292613 0.9268464,-0.82031253 1.097301,-1.72585223 1.097301,-1.74715913 z m 0,0"
           style="fill:#000000;fill-opacity:1;fill-rule:nonzero;stroke:none" /><path
           id="path1919"
           d="m 10.263068,0.40865767 c 0,-0.63920455 -0.7031248,-0.76704545 -0.96946,-0.80965909 -0.063921,-0.0106534 -0.234375,-0.0426136 -0.2769887,-0.053267 -0.2556818,-0.053267 -0.3835227,-0.20241477 -0.3835227,-0.3515625 0,-0.15980113 0.1278409,-0.35156248 0.2769886,-0.44744308 0.1917614,-0.1171875 0.4367898,-0.1384944 0.5539773,-0.1384944 0.1491477,0 0.5113636,0.021307 0.6605115,0.2663353 -0.1811081,0.042614 -0.2876422,0.18110787 -0.2876422,0.33025559 0,0.15980114 0.1384943,0.21306818 0.2237212,0.21306818 0.07457,0 0.340909,-0.0319602 0.340909,-0.39417613 0,-0.44744314 -0.5007097,-0.60724424 -0.9268461,-0.60724424 -1.0866477,0 -1.2890625,0.7990056 -1.2890625,1.02272719 0,0.25568182 0.1491477,0.42613637 0.2450284,0.51136364 0.181108,0.13849432 0.3089489,0.15980114 0.7883523,0.24502841 0.1491477,0.0319602 0.5965909,0.1171875 0.5965909,0.45809659 0,0.12784091 -0.074574,0.38352277 -0.3728693,0.56463077 -0.2663352,0.1491477 -0.6178977,0.1491477 -0.6924716,0.1491477 -0.2876421,0 -0.6818182,-0.063921 -0.8416193,-0.2876421 0.234375,-0.03196 0.3835227,-0.20241478 0.3835227,-0.40482955 0,-0.17045455 -0.1278409,-0.25568182 -0.2769886,-0.25568182 -0.2024148,0 -0.3941762,0.15980114 -0.3941762,0.46875 0,0.41548297 0.4367898,0.68181827 1.118608,0.68181827 1.2784093,0 1.5234373,-0.88423304 1.5234373,-1.16122173 z m 0,0"
           style="fill:#000000;fill-opacity:1;fill-rule:nonzero;stroke:none" /></g><path
         id="path1920"
         d="m 175.75012,113.38724 h 12.41582 m 26.19272,0 h 12.41582 -0.1133 m 8.73068,0 h -0.11326 13.83302 m 26.1927,0 h 13.83304"
         style="fill:none;stroke:#000000;stroke-width:0.3985;stroke-linecap:butt;stroke-linejoin:miter;stroke-miterlimit:10;stroke-dasharray:none;stroke-opacity:1"
         transform="matrix(1.3333333,0,0,-1.3333333,3409.3627,741.82533)" /><path
         id="path1921"
         d="m 187.76738,113.22783 c 0,3.61648 1.79468,6.54816 4.00853,6.54816 2.21387,0 4.00854,-2.93168 4.00854,-6.54816 0,-1.80815 -0.73289,-3.27393 -1.63696,-3.27393 -0.90405,0 -1.63695,1.46578 -1.63695,3.27393 0,3.61648 1.79468,6.54816 4.00855,6.54816 2.21385,0 4.00853,-2.93168 4.00853,-6.54816 0,-1.80815 -0.7329,-3.27393 -1.63695,-3.27393 -0.90407,0 -1.63695,1.46578 -1.63695,3.27393 0,3.61648 1.79467,6.54816 4.00853,6.54816 2.21387,0 4.00853,-2.93168 4.00853,-6.54816 0,-1.80815 -0.73288,-3.27393 -1.63695,-3.27393 -0.90405,0 -1.63694,1.46578 -1.63694,3.27393 0,3.61648 1.79467,6.54816 4.00853,6.54816 2.21386,0 4.00854,-2.93168 4.00854,-6.54816 0,-1.80815 -0.73289,-3.27393 -1.63695,-3.27393 -0.90406,0 -1.63696,1.46578 -1.63696,3.27393 0,3.61648 1.79468,6.54816 4.00855,6.54816 2.21385,0 4.00853,-2.93168 4.00853,-6.54816"
         style="fill:none;stroke:#000000;stroke-width:0.797;stroke-linecap:butt;stroke-linejoin:bevel;stroke-miterlimit:10;stroke-dasharray:none;stroke-opacity:1"
         transform="matrix(1.3333333,0,0,-1.3333333,3409.3627,741.82533)" /><g
         id="g1921"
         aria-label="L&#10;1"
         transform="matrix(1.4666667,0,0,1.4666667,3669.4587,576.752)"><path
           id="path1922"
           d="m 6.4015838,-2.4596378 c 0,-0.042614 -0.03196,-0.1065341 -0.1171875,-0.1065341 -0.085227,0 -0.095881,0.042614 -0.1704545,0.2024148 -0.3409091,0.9161932 -0.7776989,2.05610795 -2.5035512,2.05610795 H 2.683544 c -0.1491477,0 -0.1598011,0 -0.2237216,-0.0106534 -0.095881,-0.0106534 -0.1278409,-0.0213068 -0.1278409,-0.0958807 0,-0.0319602 0,-0.053267 0.042614,-0.234375 L 3.7275781,-6.0285298 c 0.085227,-0.3515625 0.1171875,-0.46875 1.0546875,-0.46875 0.2982955,0 0.3728693,0 0.3728693,-0.181108 0,-0.1278409 -0.106534,-0.1278409 -0.1598011,-0.1278409 l -1.4701704,0.03196 -1.3210228,-0.03196 c -0.074574,0 -0.1917613,0 -0.1917613,0.2024148 0,0.1065341 0.085227,0.1065341 0.2769886,0.1065341 0,0 0.2130682,0 0.3835227,0.021307 0.1704546,0.021307 0.2663353,0.03196 0.2663353,0.1598011 0,0.042614 -0.010653,0.074574 -0.042614,0.1917614 l -1.3316761,5.34801135 c -0.1065341,0.39417614 -0.1171875,0.46875 -0.90553979,0.46875 -0.17045455,0 -0.27698864,0 -0.27698864,0.20241477 0,0.1065341 0.0958807,0.1065341 0.27698864,0.1065341 H 5.2723224 c 0.234375,0 0.2450285,0 0.3089489,-0.17045455 L 6.3589702,-2.3211435 c 0.042614,-0.1065341 0.042614,-0.1384943 0.042614,-0.1384943 z m 0,0"
           style="fill:#000000;fill-opacity:1;fill-rule:nonzero;stroke:none" /><path
           id="path1923"
           d="M 10.082337,1.492777 V 1.2370952 H 9.8160014 c -0.703125,0 -0.703125,-0.085227 -0.703125,-0.3196023 v -3.8671875 c 0,-0.181108 -0.010653,-0.1917614 -0.2024148,-0.1917614 -0.4474431,0.4367898 -1.0866477,0.4474432 -1.3742897,0.4474432 v 0.2556818 c 0.1704545,0 0.6285511,0 1.0120738,-0.2024147 v 3.5582386 c 0,0.234375 0,0.3196023 -0.6924716,0.3196023 H 7.5894389 V 1.492777 l 1.2464489,-0.03196 z m 0,0"
           style="fill:#000000;fill-opacity:1;fill-rule:nonzero;stroke:none" /></g><path
         id="path1924"
         d="m 226.66118,126.48358 v -26.1927 m 8.73068,26.1927 v -26.1927"
         style="fill:none;stroke:#000000;stroke-width:0.797;stroke-linecap:butt;stroke-linejoin:miter;stroke-miterlimit:10;stroke-dasharray:none;stroke-opacity:1"
         transform="matrix(1.3333333,0,0,-1.3333333,3409.3627,741.82533)" /><g
         id="g1924"
         aria-label="C&#10;1"
         transform="matrix(1.4666667,0,0,1.4666667,3708.8947,567.148)"><path
           id="path1925"
           d="m 6.4452202,-2.3860653 c 0,-0.1065341 -0.1171875,-0.1065341 -0.1171875,-0.1065341 -0.063921,0 -0.1171875,0.021307 -0.1278409,0.1065341 -0.095881,0.287642 -0.3196023,0.990767 -1.0120739,1.5660511 -0.6818182,0.56463068 -1.3103693,0.73508522 -1.8323864,0.73508522 -0.8948863,0 -1.9495738,-0.52201704 -1.9495738,-2.07741482 0,-0.5646306 0.2024147,-2.1839488 1.2038352,-3.3451704 0.6072443,-0.703125 1.5447443,-1.2038352 2.4289773,-1.2038352 1.0120738,0 1.6086647,0.7670454 1.6086647,1.9176136 0,0.4048295 -0.03196,0.415483 -0.03196,0.5113636 0,0.095881 0.1065341,0.095881 0.1491477,0.095881 0.127841,0 0.127841,-0.021307 0.181108,-0.1917613 l 0.6285511,-2.5461648 c 0,-0.03196 -0.021307,-0.095881 -0.1171875,-0.095881 -0.021307,0 -0.03196,0.010653 -0.1491477,0.1171875 l -0.6924716,0.7670455 c -0.095881,-0.1384944 -0.5539773,-0.884233 -1.6512784,-0.884233 -2.2265625,0 -4.4637784,2.1946023 -4.4637784,4.506392 0,1.65127846 1.171875,2.73792619 2.6953125,2.73792619 0.8629261,0 1.6299716,-0.40482955 2.1519886,-0.86292614 0.9268464,-0.82031255 1.097301,-1.72585225 1.097301,-1.74715905 z m 0,0"
           style="fill:#000000;fill-opacity:1;fill-rule:nonzero;stroke:none" /><path
           id="path1926"
           d="M 10.424268,1.4944389 V 1.2387571 h -0.266335 c -0.7031248,0 -0.7031248,-0.085227 -0.7031248,-0.31960227 V -2.9480327 c 0,-0.1811079 -0.010653,-0.1917613 -0.2024147,-0.1917613 -0.4474432,0.4367897 -1.0866478,0.4474431 -1.3742898,0.4474431 v 0.2556819 c 0.1704545,0 0.6285511,0 1.0120739,-0.2024148 v 3.55823863 c 0,0.23437497 0,0.31960227 -0.6924716,0.31960227 H 7.9313707 v 0.2556818 l 1.2464489,-0.03196 z m 0,0"
           style="fill:#000000;fill-opacity:1;fill-rule:nonzero;stroke:none" /></g><path
         id="path1927"
         d="m 248.71306,113.22783 c 0,3.61648 1.79466,6.54816 4.00853,6.54816 2.21387,0 4.00853,-2.93168 4.00853,-6.54816 0,-1.80815 -0.73288,-3.27393 -1.63695,-3.27393 -0.90405,0 -1.63695,1.46578 -1.63695,3.27393 0,3.61648 1.79468,6.54816 4.00853,6.54816 2.21387,0 4.00855,-2.93168 4.00855,-6.54816 0,-1.80815 -0.7329,-3.27393 -1.63695,-3.27393 -0.90407,0 -1.63696,1.46578 -1.63696,3.27393 0,3.61648 1.79467,6.54816 4.00854,6.54816 2.21385,0 4.00853,-2.93168 4.00853,-6.54816 0,-1.80815 -0.73289,-3.27393 -1.63695,-3.27393 -0.90406,0 -1.63694,1.46578 -1.63694,3.27393 0,3.61648 1.79466,6.54816 4.00853,6.54816 2.21386,0 4.00853,-2.93168 4.00853,-6.54816 0,-1.80815 -0.73288,-3.27393 -1.63695,-3.27393 -0.90406,0 -1.63695,1.46578 -1.63695,3.27393 0,3.61648 1.79468,6.54816 4.00853,6.54816 2.21387,0 4.00854,-2.93168 4.00854,-6.54816"
         style="fill:none;stroke:#000000;stroke-width:0.797;stroke-linecap:butt;stroke-linejoin:bevel;stroke-miterlimit:10;stroke-dasharray:none;stroke-opacity:1"
         transform="matrix(1.3333333,0,0,-1.3333333,3409.3627,741.82533)" /><g
         id="g1927"
         aria-label="1/ω&#10;2&#10;C&#10;s"
         transform="matrix(1.4666667,0,0,1.4666667,3735.2307,576.752)"><path
           id="path1928"
           d="M 4.1760014,0.00129972 V -0.30764915 H 3.8563991 c -0.8948863,0 -0.9268465,-0.10653409 -0.9268465,-0.47940341 V -6.3694389 c 0,-0.2450284 0,-0.2663352 -0.234375,-0.2663352 -0.6178978,0.6392045 -1.4914773,0.6392045 -1.81107959,0.6392045 v 0.3089489 c 0.20241479,0 0.78835229,0 1.31036929,-0.2556819 v 5.15625004 c 0,0.36221591 -0.03196,0.47940341 -0.9268466,0.47940341 H 0.94801847 V 0.00129972 C 1.299581,-0.03066051 2.1625071,-0.03066051 2.5566832,-0.03066051 c 0.4048296,0 1.2677557,0 1.6193182,0.03196023 z m 0,0"
           style="fill:#000000;fill-opacity:1;fill-rule:nonzero;stroke:none" /><path
           id="path1929"
           d="m 9.4014986,-7.2749787 c 0,-0.1065341 -0.085227,-0.1917614 -0.2024148,-0.1917614 -0.06392,0 -0.1384943,0.03196 -0.1598011,0.085227 l -3.462358,9.4921875 c -0.053267,0.1278409 -0.053267,0.181108 -0.053267,0.181108 0,0.1065341 0.095881,0.2024147 0.2024147,0.2024147 0.127841,0 0.1598012,-0.074574 0.2237216,-0.2450284 L 9.3482315,-7.093871 c 0.053267,-0.1278409 0.053267,-0.181108 0.053267,-0.1811077 z m 6.3467684,4.9005682 c 0.117188,-0.4367898 0.234375,-0.9268466 0.234375,-1.3316761 0,-0.2556819 -0.05327,-0.4794035 -0.202415,-0.6072444 -0.06392,-0.053267 -0.138494,-0.085227 -0.223721,-0.085227 -0.127841,0 -0.255682,0.053267 -0.351563,0.1598011 -0.09588,0.095881 -0.138494,0.2024148 -0.138494,0.3196023 0,0.095881 0.03196,0.1704545 0.106534,0.2450284 0.245028,0.2237216 0.383523,0.5326704 0.383523,0.8735795 0,0.1171875 -0.01065,0.2556818 -0.04261,0.3728693 -0.234375,0.9055398 -0.809659,1.821733 -1.598011,1.821733 -0.553978,0 -0.884233,-0.38352273 -0.969461,-0.8948864 0.127841,-0.2769886 0.223722,-0.5752841 0.298296,-0.8735795 0.01065,-0.095881 0.03196,-0.181108 0.03196,-0.2663352 0,-0.1491478 -0.04261,-0.2556819 -0.181108,-0.2556819 -0.191761,0 -0.298295,0.2450285 -0.340909,0.46875 -0.08523,0.3089489 -0.117187,0.6072444 -0.127841,0.8948864 -0.330256,0.54332387 -0.809659,0.9268466 -1.363636,0.9268466 -0.607245,0 -0.862926,-0.5007102 -0.862926,-1.1292614 0,-0.1917613 0.03196,-0.4261363 0.08523,-0.6392045 0.149148,-0.6072443 0.50071,-1.1612216 0.884233,-1.6832386 0.03196,-0.042614 0.05327,-0.095881 0.05327,-0.1384944 0,-0.053267 -0.04261,-0.1065341 -0.09588,-0.1384943 -0.03196,-0.021307 -0.06392,-0.021307 -0.08523,-0.021307 -0.06392,0 -0.127841,0.03196 -0.181108,0.095881 -0.40483,0.5646307 -0.660511,1.2038352 -0.820312,1.8323863 -0.09588,0.3728694 -0.149148,0.7670455 -0.149148,1.118608 0,0.79900568 0.287642,1.41690341 1.044034,1.41690341 0.628551,0 1.150568,-0.43678978 1.523437,-1.0546875 0.117188,0.61789772 0.458097,1.0546875 1.129262,1.0546875 1.03338,0 1.661932,-1.27840911 1.960227,-2.48224431 z m 0,0"
           style="fill:#000000;fill-opacity:1;fill-rule:nonzero;stroke:none" /><path
           id="path1930"
           d="m 20.049581,-4.8832884 h -0.234375 c -0.02131,0.1491478 -0.09588,0.5646307 -0.191761,0.6285512 -0.05327,0.042614 -0.585938,0.042614 -0.681819,0.042614 h -1.289062 c 0.735085,-0.6498579 0.980114,-0.8416193 1.395597,-1.171875 0.522017,-0.4048295 1.00142,-0.8416193 1.00142,-1.5021307 0,-0.8416193 -0.745739,-1.3636363 -1.629972,-1.3636363 -0.873579,0 -1.459517,0.6072443 -1.459517,1.2464488 0,0.3622159 0.298296,0.3941762 0.37287,0.3941762 0.170454,0 0.372869,-0.1171875 0.372869,-0.3728693 0,-0.1171875 -0.05327,-0.362216 -0.415483,-0.362216 0.213068,-0.5007102 0.692472,-0.6498579 1.022727,-0.6498579 0.692472,0 1.054688,0.5433239 1.054688,1.1079545 0,0.6072444 -0.426137,1.0866478 -0.649858,1.3423296 l -1.683239,1.6512784 c -0.07457,0.06392 -0.07457,0.085227 -0.07457,0.2769886 h 2.876421 z m 0,0"
           style="fill:#000000;fill-opacity:1;fill-rule:nonzero;stroke:none" /><path
           id="path1931"
           d="m 27.435057,-2.3850639 c 0,-0.1065341 -0.117188,-0.1065341 -0.117188,-0.1065341 -0.06392,0 -0.117187,0.021307 -0.127841,0.1065341 -0.09588,0.287642 -0.319602,0.990767 -1.012073,1.56605112 -0.681819,0.56463068 -1.31037,0.73508522 -1.832387,0.73508522 -0.894886,0 -1.949574,-0.52201704 -1.949574,-2.07741474 0,-0.5646307 0.202415,-2.1839489 1.203836,-3.3451705 0.607244,-0.703125 1.544744,-1.2038352 2.428977,-1.2038352 1.012074,0 1.608665,0.7670454 1.608665,1.9176136 0,0.4048296 -0.03196,0.415483 -0.03196,0.5113637 0,0.095881 0.106534,0.095881 0.149148,0.095881 0.127841,0 0.127841,-0.021307 0.181108,-0.1917613 l 0.628551,-2.5461648 c 0,-0.03196 -0.02131,-0.095881 -0.117187,-0.095881 -0.02131,0 -0.03196,0.010653 -0.149148,0.1171875 l -0.692472,0.7670455 c -0.09588,-0.1384943 -0.553977,-0.884233 -1.651278,-0.884233 -2.226563,0 -4.463778,2.1946023 -4.463778,4.5063921 0,1.65127838 1.171875,2.73792611 2.695312,2.73792611 0.862926,0 1.629972,-0.40482955 2.151989,-0.86292614 0.926846,-0.82031247 1.097301,-1.72585227 1.097301,-1.74715907 z m 0,0"
           style="fill:#000000;fill-opacity:1;fill-rule:nonzero;stroke:none" /><path
           id="path1932"
           d="m 31.254304,0.40612926 c 0,-0.63920454 -0.703125,-0.76704545 -0.96946,-0.80965909 -0.06392,-0.0106534 -0.234375,-0.0426136 -0.276989,-0.0532671 -0.255682,-0.053267 -0.383523,-0.20241477 -0.383523,-0.3515625 0,-0.15980113 0.127841,-0.35156257 0.276989,-0.44744327 0.191761,-0.1171875 0.43679,-0.1384943 0.553977,-0.1384943 0.149148,0 0.511364,0.021307 0.660512,0.2663353 -0.181108,0.042614 -0.287642,0.18110796 -0.287642,0.33025568 0,0.15980114 0.138494,0.21306819 0.223721,0.21306819 0.07457,0 0.340909,-0.0319602 0.340909,-0.39417614 0,-0.44744323 -0.50071,-0.60724433 -0.926846,-0.60724433 -1.086648,0 -1.289063,0.79900569 -1.289063,1.02272728 0,0.25568182 0.149148,0.42613637 0.245029,0.51136364 0.181108,0.13849432 0.308948,0.15980114 0.788352,0.24502841 0.149148,0.0319602 0.596591,0.1171875 0.596591,0.45809659 0,0.12784091 -0.07457,0.38352268 -0.37287,0.56463068 -0.266335,0.1491477 -0.617897,0.1491477 -0.692471,0.1491477 -0.287642,0 -0.681818,-0.063921 -0.841619,-0.2876421 0.234375,-0.03196 0.383522,-0.20241469 0.383522,-0.40482946 0,-0.17045455 -0.127841,-0.25568182 -0.276988,-0.25568182 -0.202415,0 -0.394176,0.15980114 -0.394176,0.46875 0,0.41548288 0.436789,0.68181818 1.118607,0.68181818 1.27841,0 1.523438,-0.88423295 1.523438,-1.16122154 z m 0,0"
           style="fill:#000000;fill-opacity:1;fill-rule:nonzero;stroke:none" /></g><path
         id="path1933"
         d="m 141.73404,113.38724 h 34.01608"
         style="fill:none;stroke:#000000;stroke-width:0.3985;stroke-linecap:butt;stroke-linejoin:miter;stroke-miterlimit:10;stroke-dasharray:none;stroke-opacity:1"
         transform="matrix(1.3333333,0,0,-1.3333333,3409.3627,741.82533)" /><path
         id="path1934"
         d="M 36.85092,48.18947 V 93.14604"
         style="fill:none;stroke:#000000;stroke-width:0.3985;stroke-linecap:butt;stroke-linejoin:miter;stroke-miterlimit:10;stroke-dasharray:none;stroke-opacity:1"
         transform="matrix(1.3333333,0,0,-1.3333333,3409.3627,741.82533)" /><path
         id="path1935"
         d="M -2.07224,2.39104 C -1.69365,0.95639 -0.84999,0.27895 0,0 -0.84999,-0.27895 -1.69365,-0.95639 -2.07224,-2.39104"
         style="fill:none;stroke:#000000;stroke-width:0.3985;stroke-linecap:round;stroke-linejoin:round;stroke-miterlimit:10;stroke-dasharray:none;stroke-opacity:1"
         transform="matrix(0,-1.3333333,-1.3333333,0,3458.4972,617.36495)" /><g
         id="g1935"
         aria-label="V&#10;DC"
         transform="matrix(1.4666667,0,0,1.4666667,3425.4893,651.23467)"><path
           id="path1936"
           d="m 7.6590838,-6.6798864 c 0,-0.085227 -0.053267,-0.1278409 -0.1278409,-0.1278409 -0.2556818,0 -0.5539773,0.03196 -0.8203125,0.03196 -0.3302557,0 -0.6605114,-0.03196 -0.9801136,-0.03196 -0.063921,0 -0.1917614,0 -0.1917614,0.1917614 0,0.1065341 0.085227,0.1171875 0.1598011,0.1171875 0.2663353,0.021307 0.4580966,0.1278409 0.4580966,0.3302557 0,0.1491477 -0.1491477,0.3835227 -0.1491477,0.3835227 L 2.950277,-0.92704545 2.2684588,-6.200483 c 0,-0.1598011 0.234375,-0.2982954 0.6924716,-0.2982954 0.1384943,0 0.2450284,0 0.2450284,-0.1917614 0,-0.095881 -0.074574,-0.1171875 -0.1384943,-0.1171875 -0.3941761,0 -0.8309659,0.03196 -1.2357955,0.03196 -0.1811079,0 -0.3728693,-0.010654 -0.5433238,-0.010654 -0.181108,0 -0.37286935,-0.021307 -0.54332389,-0.021307 -0.0639205,0 -0.19176137,0 -0.19176137,0.1917614 0,0.1171875 0.0958807,0.1171875 0.25568182,0.1171875 0.55397724,0 0.56463064,0.095881 0.59659094,0.3409091 l 0.7883522,6.14701703 c 0.03196,0.20241477 0.063921,0.234375 0.1917614,0.234375 0.1598011,0 0.2024148,-0.0532671 0.2876421,-0.18110796 L 6.2528338,-5.6678125 c 0.4900568,-0.7776989 0.9055398,-0.8096591 1.2784091,-0.8309659 0.1171875,-0.010653 0.1278409,-0.181108 0.1278409,-0.181108 z m 0,0"
           style="fill:#000000;fill-opacity:1;fill-rule:nonzero;stroke:none" /><path
           id="path1937"
           d="m 12.042962,-1.4463991 c 0,-1.0227273 -0.703125,-1.821733 -1.84304,-1.821733 H 7.6644105 c -0.1491477,0 -0.2237216,0 -0.2237216,0.1491477 0,0.095881 0.074574,0.095881 0.2237216,0.095881 0.1171875,0 0.1384943,0 0.2663352,0.021307 0.1384944,0.010653 0.1598012,0.021307 0.1598012,0.095881 0,0 0,0.042614 -0.03196,0.1491477 L 7.1317401,0.9506179 c -0.053267,0.234375 -0.074574,0.287642 -0.6178978,0.287642 -0.1278409,0 -0.2024147,0 -0.2024147,0.1598012 0,0.095881 0.074574,0.095881 0.2024147,0.095881 h 2.4928978 c 1.5447439,0 3.0362219,-1.42755686 3.0362219,-2.9403412 z m -0.660512,-0.234375 c 0,0.1598011 -0.07457,1.36363632 -0.767045,2.162642 -0.276989,0.31960227 -0.8735797,0.756392 -1.7365059,0.756392 H 7.9307457 c -0.2130681,0 -0.2237216,0 -0.2237216,-0.06392 0,0 0,-0.042614 0.03196,-0.1491477 l 0.9588068,-3.8139205 c 0.053267,-0.2130682 0.053267,-0.234375 0.3515625,-0.234375 h 0.8948864 c 0.7776992,0 1.4382102,0.3941761 1.4382102,1.3423292 z m 6.613104,0.106534 0.426136,-1.747159 c 0,-0.03196 -0.02131,-0.085227 -0.08523,-0.085227 -0.05327,0 -0.06392,0.010653 -0.127841,0.074574 l -0.511363,0.5433239 c -0.06392,-0.085227 -0.458097,-0.6178977 -1.31037,-0.6178977 -1.693892,0 -3.355824,1.4914773 -3.355824,3.0681818 0,1.13991477 0.894887,1.9708807 2.141336,1.9708807 0.372869,0 1.044034,-0.074574 1.768465,-0.6818182 0.543324,-0.46875 0.703125,-1.07599432 0.703125,-1.12926137 0,-0.0958807 -0.08523,-0.0958807 -0.117187,-0.0958807 -0.09588,0 -0.106534,0.0426136 -0.127841,0.1171875 -0.287642,0.95880682 -1.267756,1.54474437 -2.109375,1.54474437 -0.735085,0 -1.566051,-0.4048296 -1.566051,-1.50213073 0,-0.20241477 0.05327,-1.31036927 0.852273,-2.18394887 0.479403,-0.5433238 1.214488,-0.8629261 1.875,-0.8629261 0.809659,0 1.289062,0.5859375 1.289062,1.3636364 0,0.2024147 -0.02131,0.2450284 -0.02131,0.287642 0,0.095881 0.09588,0.095881 0.127841,0.095881 0.106534,0 0.106534,-0.021307 0.149148,-0.1598012 z m 0,0"
           style="fill:#000000;fill-opacity:1;fill-rule:nonzero;stroke:none" /></g><path
         id="path1938"
         d="m 323.15344,28.3468 -10e-6,33.78952 m 0,17.46138 10e-6,33.78954"
         style="fill:none;stroke:#000000;stroke-width:0.3985;stroke-linecap:butt;stroke-linejoin:miter;stroke-miterlimit:10;stroke-dasharray:none;stroke-opacity:1"
         transform="matrix(1.3333333,0,0,-1.3333333,3409.3627,741.82533)" /><path
         id="path1939"
         d="M 323.15343,79.5977 312.2399,62.13632 h 21.82707 z"
         style="fill:none;stroke:#000000;stroke-width:0.797;stroke-linecap:butt;stroke-linejoin:miter;stroke-miterlimit:10;stroke-dasharray:none;stroke-opacity:1"
         transform="matrix(1.3333333,0,0,-1.3333333,3409.3627,741.82533)" /><path
         id="path1940"
         d="M 334.06697,79.5977 H 312.2399"
         style="fill:none;stroke:#000000;stroke-width:0.797;stroke-linecap:butt;stroke-linejoin:miter;stroke-miterlimit:10;stroke-dasharray:none;stroke-opacity:1"
         transform="matrix(1.3333333,0,0,-1.3333333,3409.3627,741.82533)" /><path
         id="path1941"
         d="M 342.99657,48.18947 V 93.14604"
         style="fill:none;stroke:#000000;stroke-width:0.3985;stroke-linecap:butt;stroke-linejoin:miter;stroke-miterlimit:10;stroke-dasharray:none;stroke-opacity:1"
         transform="matrix(1.3333333,0,0,-1.3333333,3409.3627,741.82533)" /><path
         id="path1942"
         d="M -2.07224,2.39104 C -1.69365,0.95639 -0.84999,0.27895 0,0 -0.84999,-0.27895 -1.69365,-0.95639 -2.07224,-2.39104"
         style="fill:none;stroke:#000000;stroke-width:0.3985;stroke-linecap:round;stroke-linejoin:round;stroke-miterlimit:10;stroke-dasharray:none;stroke-opacity:1"
         transform="matrix(0,-1.3333333,-1.3333333,0,3866.6914,617.36495)" /><g
         id="g1942"
         aria-label="v&#10;d&#10;(ωt)"
         transform="matrix(1.4666667,0,0,1.4666667,3873.0627,650.99067)"><path
           id="path1943"
           d="m 4.6660795,-3.7063494 c 0,-0.5326705 -0.2663352,-0.6924716 -0.4474431,-0.6924716 -0.2450284,0 -0.4794034,0.2556818 -0.4794034,0.4794034 0,0.1278409 0.042614,0.1811079 0.1598011,0.2982954 0.2024148,0.1917614 0.3302557,0.4580966 0.3302557,0.8096591 0,0.4261364 -0.6072443,2.70596594 -1.7684659,2.70596594 -0.5113637,0 -0.7350853,-0.3515625 -0.7350853,-0.87357954 0,-0.5539773 0.2663353,-1.2784091 0.5752841,-2.109375 0.074574,-0.1704546 0.1171875,-0.3089489 0.1171875,-0.5007102 0,-0.4474432 -0.3196022,-0.8096591 -0.8096591,-0.8096591 -0.93749996,0 -1.32102269,1.4382102 -1.32102269,1.5340909 0,0.095881 0.1171875,0.095881 0.1171875,0.095881 0.10653409,0 0.1171875,-0.021307 0.15980114,-0.181108 0.28764204,-1.0014204 0.72443185,-1.2357954 1.01207385,-1.2357954 0.074574,0 0.2450284,0 0.2450284,0.3196022 0,0.2556818 -0.095881,0.5220171 -0.1704545,0.703125 -0.4367898,1.1505682 -0.5646307,1.6086648 -0.5646307,2.0348012 0,1.07599429 0.8735795,1.23579542 1.3316761,1.23579542 1.6725853,0 2.2478693,-3.29190342 2.2478693,-3.81392072 z m 0,0"
           style="fill:#000000;fill-opacity:1;fill-rule:nonzero;stroke:none" /><path
           id="path1944"
           d="m 8.8155824,0.4937571 c 0,-0.0852273 -0.095881,-0.0852273 -0.1065341,-0.0852273 -0.1065341,0 -0.1065341,0.0213068 -0.1598011,0.21306818 C 8.4640199,0.9625071 8.336179,1.3673366 8.0378835,1.3673366 c -0.1811079,0 -0.2237216,-0.1491477 -0.2237216,-0.340909 0,-0.12784095 0.010653,-0.19176141 0.03196,-0.28764209 L 8.8155824,-3.1390554 c 0.010653,-0.010653 0.03196,-0.1065341 0.03196,-0.1065341 0,-0.042614 -0.03196,-0.1065341 -0.1171875,-0.1065341 -0.1384943,0 -0.7137784,0.063921 -0.8948863,0.074574 -0.053267,0.010653 -0.1491478,0.010653 -0.1491478,0.1598011 0,0.095881 0.095881,0.095881 0.181108,0.095881 0.3302557,0 0.3302557,0.053267 0.3302557,0.1065341 0,0.053267 -0.010653,0.095881 -0.021307,0.1491477 L 7.771548,-1.1681743 c -0.1384943,-0.234375 -0.3835227,-0.415483 -0.7137784,-0.415483 -0.8948864,0 -1.8004261,0.99076707 -1.8004261,1.99218753 0,0.67116477 0.4580965,1.16122157 1.0546875,1.16122157 0.3728693,0 0.7137784,-0.2237216 0.990767,-0.4900568 0.1278409,0.415483 0.5326705,0.4900568 0.7137784,0.4900568 0.2556818,0 0.4261364,-0.1598011 0.5539773,-0.3728693 C 8.7197017,0.91989347 8.8155824,0.52571733 8.8155824,0.4937571 Z M 7.6543608,-0.6781179 7.3241051,0.62159801 C 7.2814915,0.81335937 7.1216903,0.9625071 6.9725426,1.090348 6.9086226,1.143615 6.6316335,1.3673366 6.3333381,1.3673366 c -0.2556818,0 -0.5113637,-0.1811079 -0.5113637,-0.67116473 0,-0.37286931 0.2024148,-1.13991477 0.3622159,-1.4169034 0.3196023,-0.56463067 0.6818182,-0.67116477 0.8735796,-0.67116477 0.4900568,0 0.6178977,0.53267045 0.6178977,0.60724431 0,0.0319602 -0.010653,0.0852273 -0.021307,0.10653409 z m 0,0"
           style="fill:#000000;fill-opacity:1;fill-rule:nonzero;stroke:none" /><path
           id="path1945"
           d="m 12.767997,2.3874006 c 0,-0.021307 0,-0.042614 -0.159801,-0.2130682 -1.246449,-1.25710229 -1.566051,-3.1427557 -1.566051,-4.6661932 0,-1.7258523 0.372869,-3.462358 1.598011,-4.7088068 0.127841,-0.1171875 0.127841,-0.1384943 0.127841,-0.1704546 0,-0.06392 -0.03196,-0.095881 -0.09588,-0.095881 -0.09588,0 -0.990767,0.6711647 -1.587357,1.9389204 -0.500711,1.0973011 -0.617898,2.2052557 -0.617898,3.0362216 0,0.7776989 0.106534,1.9815341 0.649858,3.11079546 0.596591,1.22514204 1.459517,1.87500004 1.555397,1.87500004 0.06392,0 0.09588,-0.03196 0.09588,-0.1065337 z m 0,0"
           style="fill:#000000;fill-opacity:1;fill-rule:nonzero;stroke:none" /><path
           id="path1946"
           d="m 19.133409,-2.3746733 c 0.117188,-0.4367898 0.234375,-0.9268466 0.234375,-1.3316761 0,-0.2556819 -0.05327,-0.4794034 -0.202415,-0.6072444 -0.06392,-0.053267 -0.138494,-0.085227 -0.223721,-0.085227 -0.127841,0 -0.255682,0.053267 -0.351563,0.1598011 -0.09588,0.095881 -0.138494,0.2024148 -0.138494,0.3196023 0,0.095881 0.03196,0.1704545 0.106534,0.2450284 0.245028,0.2237216 0.383523,0.5326704 0.383523,0.8735795 0,0.1171875 -0.01065,0.2556819 -0.04261,0.3728694 -0.234375,0.9055397 -0.809659,1.82173291 -1.598011,1.82173291 -0.553978,0 -0.884233,-0.38352272 -0.96946,-0.89488641 0.12784,-0.2769886 0.223721,-0.575284 0.298295,-0.8735795 0.01065,-0.095881 0.03196,-0.181108 0.03196,-0.2663352 0,-0.1491478 -0.04261,-0.2556818 -0.181108,-0.2556818 -0.191761,0 -0.298295,0.2450284 -0.340909,0.46875 -0.08523,0.3089488 -0.117187,0.6072443 -0.127841,0.8948863 -0.330255,0.54332389 -0.809659,0.92684661 -1.363636,0.92684661 -0.607244,0 -0.862926,-0.50071021 -0.862926,-1.12926141 0,-0.1917613 0.03196,-0.4261363 0.08523,-0.6392045 0.149148,-0.6072443 0.50071,-1.1612216 0.884233,-1.6832386 0.03196,-0.042614 0.05327,-0.095881 0.05327,-0.1384944 0,-0.053267 -0.04261,-0.106534 -0.09588,-0.1384943 -0.03196,-0.021307 -0.06392,-0.021307 -0.08523,-0.021307 -0.06392,0 -0.127841,0.03196 -0.181108,0.095881 -0.404829,0.5646307 -0.660511,1.2038352 -0.820312,1.8323864 -0.09588,0.3728693 -0.149148,0.7670454 -0.149148,1.1186079 0,0.7990057 0.287642,1.41690342 1.044034,1.41690342 0.628551,0 1.150568,-0.43678977 1.523437,-1.0546875 0.117188,0.61789773 0.458097,1.0546875 1.129262,1.0546875 1.033381,0 1.661932,-1.27840912 1.960227,-2.48224432 z m 3.909801,0.9481534 c 0,-0.095881 -0.08523,-0.095881 -0.127841,-0.095881 -0.08523,0 -0.09588,0.03196 -0.149147,0.1384943 -0.426137,1.03338073 -0.948154,1.27840914 -1.289063,1.27840914 -0.213068,0 -0.308949,-0.12784091 -0.308949,-0.45809659 0,-0.24502841 0.02131,-0.30894886 0.05327,-0.47940345 l 0.745739,-2.9403409 h 0.926847 c 0.202414,0 0.308948,0 0.308948,-0.2024147 0,-0.1065341 -0.106534,-0.1065341 -0.287642,-0.1065341 H 22.04179 c 0.362216,-1.4169034 0.404829,-1.6086648 0.404829,-1.6725853 0,-0.1704545 -0.117187,-0.2663352 -0.287642,-0.2663352 -0.02131,0 -0.308949,0.010653 -0.394176,0.3515625 l -0.394176,1.587358 h -0.926847 c -0.202414,0 -0.298295,0 -0.298295,0.1917613 0,0.1171875 0.07457,0.1171875 0.276989,0.1171875 h 0.873579 c -0.713778,2.8338068 -0.756392,2.99360799 -0.756392,3.17471594 0,0.54332386 0.372869,0.91619318 0.916193,0.91619318 1.012074,0 1.587358,-1.44886362 1.587358,-1.53409062 z m 0,0"
           style="fill:#000000;fill-opacity:1;fill-rule:nonzero;stroke:none" /><path
           id="path1947"
           d="m 26.383054,-2.4918608 c 0,-0.7776989 -0.106534,-1.9815341 -0.649858,-3.100142 -0.607244,-1.2251421 -1.459517,-1.875 -1.555398,-1.875 -0.06392,0 -0.106534,0.03196 -0.106534,0.095881 0,0.03196 0,0.053267 0.191762,0.234375 0.980113,0.9801137 1.544744,2.5674716 1.544744,4.6448864 0,1.70454546 -0.372869,3.46235796 -1.608665,4.7194602 -0.127841,0.1171875 -0.127841,0.1384943 -0.127841,0.1598012 0,0.06392 0.04261,0.1065341 0.106534,0.1065341 0.09588,0 0.990767,-0.6818182 1.576705,-1.9495739 0.511363,-1.08664773 0.628551,-2.1946023 0.628551,-3.036222 z m 0,0"
           style="fill:#000000;fill-opacity:1;fill-rule:nonzero;stroke:none" /></g><path
         id="path1948"
         d="m 289.13736,28.3468 v 38.15486 m 0,8.73069 v 38.15489"
         style="fill:none;stroke:#000000;stroke-width:0.3985;stroke-linecap:butt;stroke-linejoin:miter;stroke-miterlimit:10;stroke-dasharray:none;stroke-opacity:1"
         transform="matrix(1.3333333,0,0,-1.3333333,3409.3627,741.82533)" /><path
         id="path1949"
         d="m 276.04102,66.50166 h 26.1927 m -26.1927,8.73069 h 26.1927"
         style="fill:none;stroke:#000000;stroke-width:0.797;stroke-linecap:butt;stroke-linejoin:miter;stroke-miterlimit:10;stroke-dasharray:none;stroke-opacity:1"
         transform="matrix(1.3333333,0,0,-1.3333333,3409.3627,741.82533)" /><g
         id="g1949"
         aria-label="C&#10;d&#10;=C&#10;s"
         transform="matrix(1.4666667,0,0,1.4666667,3715.2467,651.23467)"><path
           id="path1950"
           d="m 6.4449219,-2.3865625 c 0,-0.1065341 -0.1171875,-0.1065341 -0.1171875,-0.1065341 -0.063921,0 -0.1171875,0.021307 -0.1278409,0.1065341 -0.095881,0.287642 -0.3196023,0.990767 -1.0120739,1.56605114 -0.6818182,0.56463068 -1.3103693,0.73508522 -1.8323864,0.73508522 -0.8948863,0 -1.9495738,-0.52201704 -1.9495738,-2.07741476 0,-0.5646307 0.2024147,-2.1839489 1.2038352,-3.3451705 0.6072443,-0.703125 1.5447443,-1.2038352 2.4289773,-1.2038352 1.0120738,0 1.6086647,0.7670455 1.6086647,1.9176136 0,0.4048296 -0.03196,0.415483 -0.03196,0.5113637 0,0.095881 0.1065341,0.095881 0.1491477,0.095881 0.127841,0 0.127841,-0.021307 0.181108,-0.1917614 l 0.6285511,-2.5461648 c 0,-0.03196 -0.021307,-0.095881 -0.1171875,-0.095881 -0.021307,0 -0.03196,0.010654 -0.1491477,0.1171875 l -0.6924716,0.7670455 c -0.095881,-0.1384943 -0.5539773,-0.884233 -1.6512784,-0.884233 -2.2265625,0 -4.4637784,2.1946023 -4.4637784,4.5063921 0,1.6512784 1.171875,2.73792613 2.6953125,2.73792613 0.8629261,0 1.6299716,-0.40482955 2.1519886,-0.86292614 0.9268464,-0.82031249 1.097301,-1.72585229 1.097301,-1.74715909 z m 0,0"
           style="fill:#000000;fill-opacity:1;fill-rule:nonzero;stroke:none" /><path
           id="path1951"
           d="m 11.103125,0.49252131 c 0,-0.0852273 -0.09588,-0.0852273 -0.106534,-0.0852273 -0.106534,0 -0.106534,0.0213068 -0.159801,0.21306819 -0.08523,0.34090909 -0.213068,0.7457387 -0.511364,0.7457387 -0.181108,0 -0.223721,-0.1491478 -0.223721,-0.3409091 0,-0.12784097 0.01065,-0.19176142 0.03196,-0.2876421 l 0.96946,-3.8778409 c 0.01065,-0.010653 0.03196,-0.1065341 0.03196,-0.1065341 0,-0.042614 -0.03196,-0.1065341 -0.117187,-0.1065341 -0.138495,0 -0.713779,0.063921 -0.894887,0.074574 -0.05327,0.010653 -0.1491474,0.010653 -0.1491474,0.1598011 0,0.095881 0.09588,0.095881 0.1811084,0.095881 0.330255,0 0.330255,0.053267 0.330255,0.1065341 0,0.053267 -0.01065,0.095881 -0.02131,0.1491477 l -0.404829,1.5980114 c -0.1384944,-0.234375 -0.3835228,-0.415483 -0.7137785,-0.415483 -0.8948864,0 -1.8004261,0.99076706 -1.8004261,1.99218751 0,0.67116479 0.4580966,1.16122159 1.0546875,1.16122159 0.3728693,0 0.7137784,-0.2237216 0.990767,-0.4900568 0.1278409,0.415483 0.5326701,0.4900568 0.7137781,0.4900568 0.255682,0 0.426137,-0.1598011 0.553978,-0.3728693 0.149147,-0.27698865 0.245028,-0.67116479 0.245028,-0.70312501 z M 9.9419034,-0.67935369 9.6116477,0.62036222 C 9.5690341,0.81212358 9.409233,0.96127131 9.2600852,1.0891122 c -0.06392,0.053267 -0.3409091,0.2769887 -0.6392045,0.2769887 -0.2556818,0 -0.5113637,-0.181108 -0.5113637,-0.67116482 0,-0.37286932 0.2024148,-1.13991477 0.362216,-1.41690341 0.3196022,-0.56463067 0.6818181,-0.67116477 0.8735795,-0.67116477 0.4900568,0 0.6178977,0.53267045 0.6178977,0.60724432 0,0.0319602 -0.010653,0.0852273 -0.021307,0.10653409 z m 0,0"
           style="fill:#000000;fill-opacity:1;fill-rule:nonzero;stroke:none" /><path
           id="path1952"
           d="m 21.71392,-3.4519034 c 0,-0.2024148 -0.191761,-0.2024148 -0.330255,-0.2024148 h -5.965909 c -0.138495,0 -0.330256,0 -0.330256,0.2024148 0,0.1917614 0.191761,0.1917614 0.340909,0.1917614 h 5.944602 c 0.149148,0 0.340909,0 0.340909,-0.1917614 z m 0,1.928267 c 0,-0.2024147 -0.191761,-0.2024147 -0.340909,-0.2024147 h -5.944602 c -0.149148,0 -0.340909,0 -0.340909,0.2024147 0,0.2024148 0.191761,0.2024148 0.330256,0.2024148 h 5.965909 c 0.138494,0 0.330255,0 0.330255,-0.2024148 z m 0,0"
           style="fill:#000000;fill-opacity:1;fill-rule:nonzero;stroke:none" /><path
           id="path1953"
           d="m 31.496413,-2.3865625 c 0,-0.1065341 -0.117187,-0.1065341 -0.117187,-0.1065341 -0.06392,0 -0.117188,0.021307 -0.127841,0.1065341 -0.09588,0.287642 -0.319602,0.990767 -1.012074,1.56605114 -0.681818,0.56463068 -1.310369,0.73508522 -1.832386,0.73508522 -0.894887,0 -1.949574,-0.52201704 -1.949574,-2.07741476 0,-0.5646307 0.202415,-2.1839489 1.203835,-3.3451705 0.607244,-0.703125 1.544744,-1.2038352 2.428977,-1.2038352 1.012074,0 1.608665,0.7670455 1.608665,1.9176136 0,0.4048296 -0.03196,0.415483 -0.03196,0.5113637 0,0.095881 0.106534,0.095881 0.149148,0.095881 0.127841,0 0.127841,-0.021307 0.181108,-0.1917614 l 0.628551,-2.5461648 c 0,-0.03196 -0.02131,-0.095881 -0.117188,-0.095881 -0.02131,0 -0.03196,0.010654 -0.149148,0.1171875 l -0.692471,0.7670455 c -0.09588,-0.1384943 -0.553977,-0.884233 -1.651279,-0.884233 -2.226562,0 -4.463778,2.1946023 -4.463778,4.5063921 0,1.6512784 1.171875,2.73792613 2.695313,2.73792613 0.862926,0 1.629971,-0.40482955 2.151988,-0.86292614 0.926847,-0.82031249 1.097301,-1.72585229 1.097301,-1.74715909 z m 0,0"
           style="fill:#000000;fill-opacity:1;fill-rule:nonzero;stroke:none" /><path
           id="path1954"
           d="m 35.312997,0.40729403 c 0,-0.63920454 -0.703125,-0.76704545 -0.96946,-0.80965909 -0.06392,-0.0106534 -0.234375,-0.0426136 -0.276989,-0.053267 -0.255682,-0.053267 -0.383522,-0.20241478 -0.383522,-0.3515625 0,-0.15980114 0.12784,-0.35156254 0.276988,-0.44744324 0.191762,-0.1171875 0.43679,-0.1384943 0.553977,-0.1384943 0.149148,0 0.511364,0.021307 0.660512,0.2663352 -0.181108,0.042614 -0.287642,0.18110802 -0.287642,0.33025575 0,0.15980113 0.138494,0.21306818 0.223721,0.21306818 0.07457,0 0.340909,-0.0319602 0.340909,-0.39417614 0,-0.44744319 -0.50071,-0.60724439 -0.926846,-0.60724439 -1.086648,0 -1.289063,0.79900576 -1.289063,1.02272735 0,0.25568181 0.149148,0.42613636 0.245029,0.51136363 0.181108,0.13849432 0.308949,0.15980114 0.788352,0.24502841 0.149148,0.0319602 0.596591,0.1171875 0.596591,0.45809659 0,0.12784091 -0.07457,0.38352272 -0.372869,0.56463062 -0.266336,0.1491478 -0.617898,0.1491478 -0.692472,0.1491478 -0.287642,0 -0.681818,-0.063921 -0.841619,-0.2876421 0.234375,-0.03196 0.383522,-0.20241473 0.383522,-0.4048295 0,-0.17045454 -0.12784,-0.25568182 -0.276988,-0.25568182 -0.202415,0 -0.394176,0.15980114 -0.394176,0.46875 0,0.41548292 0.436789,0.68181812 1.118608,0.68181812 1.278409,0 1.523437,-0.88423289 1.523437,-1.16122157 z m 0,0"
           style="fill:#000000;fill-opacity:1;fill-rule:nonzero;stroke:none" /></g><path
         id="path1955"
         d="m 323.15344,113.38724 h 16.32781 m 52.38482,0 h 16.32781"
         style="fill:none;stroke:#000000;stroke-width:0.3985;stroke-linecap:butt;stroke-linejoin:miter;stroke-miterlimit:10;stroke-dasharray:none;stroke-opacity:1"
         transform="matrix(1.3333333,0,0,-1.3333333,3409.3627,741.82533)" /><path
         id="path1956"
         d="m 391.86607,106.83907 h -52.38482 v 13.09633 h 52.38482 z"
         style="fill:none;stroke:#000000;stroke-width:0.797;stroke-linecap:butt;stroke-linejoin:miter;stroke-miterlimit:10;stroke-dasharray:none;stroke-opacity:1"
         transform="matrix(1.3333333,0,0,-1.3333333,3409.3627,741.82533)" /><g
         id="g1956"
         aria-label="λ/4|Z&#10;0"
         transform="matrix(1.4666667,0,0,1.4666667,3870.188,576.752)"><path
           id="path1957"
           d="m 5.4542045,0.01195312 c 0,-0.03196022 -0.010653,-0.05326704 -0.042614,-0.08522727 -0.1065341,-0.1171875 -0.1598011,-0.26633523 -0.234375,-0.45809659 L 3.1424148,-6.2096378 C 2.94,-6.7849219 2.3966761,-6.9127628 1.9279261,-6.9127628 c -0.042614,0 -0.1704545,0 -0.1704545,0.1065341 0,0.085227 0.085227,0.1065341 0.085227,0.1065341 0.3302556,0.053267 0.3941761,0.1171875 0.6498579,0.7990057 l 0.9588068,2.7059659 -2.74857951,2.72727272 c -0.1171875,0.1171875 -0.17045454,0.18110795 -0.17045454,0.30894886 0,0.17045454 0.13849431,0.28764204 0.29829545,0.28764204 0.15980114,0 0.2450284,-0.10653409 0.3196023,-0.20241477 L 3.5578977,-2.907081 c 0.4048296,1.0440341 0.884233,2.56747162 1.0440341,2.80184662 0.1598012,0.21306819 0.2556818,0.21306819 0.5326705,0.21306819 H 5.3476705 C 5.4435511,0.0971804 5.4542045,0.04391335 5.4542045,0.01195312 Z M 10.232259,-7.2749787 c 0,-0.1065341 -0.08523,-0.1917614 -0.202415,-0.1917614 -0.063921,0 -0.1384946,0.03196 -0.1598014,0.085227 L 6.4076847,2.1106747 c -0.053267,0.1278409 -0.053267,0.181108 -0.053267,0.181108 0,0.1065341 0.095881,0.2024147 0.2024148,0.2024147 0.1278409,0 0.1598011,-0.074574 0.2237216,-0.2450284 l 3.3984369,-9.3430397 c 0.05327,-0.1278409 0.05327,-0.181108 0.05327,-0.181108 z m 0,0"
           style="fill:#000000;fill-opacity:1;fill-rule:nonzero;stroke:none" /><path
           id="path1958"
           d="m 15.479062,-1.6393253 v -0.3089488 h -0.990767 v -4.5383523 c 0,-0.1917614 0,-0.2556818 -0.159801,-0.2556818 -0.08523,0 -0.117187,0 -0.202414,0.1171875 l -3.057529,4.6768466 v 0.3089488 h 2.652699 v 0.86292615 c 0,0.36221591 -0.02131,0.46875 -0.756392,0.46875 H 12.75179 v 0.30894887 c 0.415483,-0.03196023 0.926846,-0.03196023 1.342329,-0.03196023 0.426137,0 0.948154,0 1.363637,0.03196023 v -0.30894887 h -0.213069 c -0.735085,0 -0.756392,-0.10653409 -0.756392,-0.46875 V -1.6393253 Z M 13.774517,-1.9482741 H 11.34554 l 2.428977,-3.7180398 z m 0,0"
           style="fill:#000000;fill-opacity:1;fill-rule:nonzero;stroke:none" /><path
           id="path1959"
           d="m 20.677926,2.1639418 v -9.3004262 c 0,-0.1384943 0,-0.3302557 -0.202415,-0.3302557 -0.202414,0 -0.202414,0.1917614 -0.202414,0.3302557 v 9.3004262 c 0,0.1384943 0,0.3302556 0.202414,0.3302556 0.202415,0 0.202415,-0.1917613 0.202415,-0.3302556 z m 0,0"
           style="fill:#000000;fill-opacity:1;fill-rule:nonzero;stroke:none" /><path
           id="path1960"
           d="m 31.397919,-2.5448651 c 0,-0.053267 -0.03196,-0.1171875 -0.127841,-0.1171875 -0.08523,0 -0.09588,0.042614 -0.170454,0.2556819 -0.43679,1.3529829 -0.916194,2.06676132 -2.610086,2.06676132 h -1.693892 l 5.56108,-6.22159092 c 0.01065,-0.042614 0.03196,-0.095881 0.03196,-0.1491477 0,-0.095881 -0.05327,-0.095881 -0.245028,-0.095881 h -4.208097 c -0.234375,0 -0.245028,0.010653 -0.308949,0.2024148 l -0.543324,1.7897727 c -0.02131,0.053267 -0.03196,0.1384943 -0.03196,0.1384943 0,0 0,0.1171875 0.117188,0.1171875 0.08523,0 0.106534,-0.074574 0.127841,-0.1065341 0.383522,-1.171875 0.894886,-1.8323863 2.450284,-1.8323863 h 1.629971 l -5.571733,6.23224429 c 0,0 -0.04261,0.14914773 -0.04261,0.18110795 0,0.08522728 0.07457,0.08522728 0.255681,0.08522728 h 4.325285 c 0.245028,0 0.255681,-0.01065341 0.308948,-0.20241478 l 0.713779,-2.19460224 c 0.01065,-0.042614 0.03196,-0.1171875 0.03196,-0.1491478 z m 0,0"
           style="fill:#000000;fill-opacity:1;fill-rule:nonzero;stroke:none" /><path
           id="path1961"
           d="m 35.584709,-0.73378551 c 0,-0.76704549 -0.09588,-1.32102269 -0.415483,-1.81107959 -0.213068,-0.3196022 -0.649858,-0.5965909 -1.203835,-0.5965909 -1.619319,0 -1.619319,1.9069603 -1.619319,2.40767049 0,0.50071023 0,2.36505681 1.619319,2.36505681 1.619318,0 1.619318,-1.86434658 1.619318,-2.36505681 z m -0.639205,-0.0852273 c 0,0.51136363 0,1.02272727 -0.08523,1.47017045 -0.138494,0.62855116 -0.617898,0.78835226 -0.894886,0.78835226 -0.319603,0 -0.745739,-0.1917613 -0.884233,-0.76704544 -0.09588,-0.40482955 -0.09588,-0.98011364 -0.09588,-1.49147727 0,-0.51136359 0,-1.04403409 0.09588,-1.42755679 0.149147,-0.5539773 0.596591,-0.703125 0.884233,-0.703125 0.372869,0 0.735085,0.234375 0.862926,0.6392045 0.117187,0.3728694 0.117187,0.884233 0.117187,1.49147729 z m 0,0"
           style="fill:#000000;fill-opacity:1;fill-rule:nonzero;stroke:none" /></g><path
         id="path1962"
         d="M 408.19388,113.38724 V 75.23235 m 0,-8.73069 V 28.3468"
         style="fill:none;stroke:#000000;stroke-width:0.3985;stroke-linecap:butt;stroke-linejoin:miter;stroke-miterlimit:10;stroke-dasharray:none;stroke-opacity:1"
         transform="matrix(1.3333333,0,0,-1.3333333,3409.3627,741.82533)" /><path
         id="path1963"
         d="m 421.29024,75.23235 h -26.19272 m 26.19272,-8.73069 h -26.19272"
         style="fill:none;stroke:#000000;stroke-width:0.797;stroke-linecap:butt;stroke-linejoin:miter;stroke-miterlimit:10;stroke-dasharray:none;stroke-opacity:1"
         transform="matrix(1.3333333,0,0,-1.3333333,3409.3627,741.82533)" /><path
         id="path1964"
         d="m 6.4441903,-2.3851989 c 0,-0.1065341 -0.1171875,-0.1065341 -0.1171875,-0.1065341 -0.06392,0 -0.1171875,0.021307 -0.1278409,0.1065341 -0.095881,0.2876421 -0.3196022,0.9907671 -1.0120738,1.56605117 -0.6818182,0.56463068 -1.3103693,0.73508523 -1.8323864,0.73508523 -0.8948864,0 -1.9495739,-0.52201705 -1.9495739,-2.0774148 0,-0.5646307 0.2024148,-2.1839488 1.2038353,-3.3451704 0.6072443,-0.703125 1.5447443,-1.2038353 2.4289772,-1.2038353 1.0120739,0 1.6086648,0.7670455 1.6086648,1.9176137 0,0.4048295 -0.03196,0.4154829 -0.03196,0.5113636 0,0.095881 0.1065341,0.095881 0.1491477,0.095881 0.1278409,0 0.1278409,-0.021307 0.181108,-0.1917614 l 0.6285511,-2.5461647 c 0,-0.03196 -0.021307,-0.095881 -0.1171875,-0.095881 -0.021307,0 -0.03196,0.010653 -0.1491477,0.1171875 l -0.6924716,0.7670454 c -0.095881,-0.1384943 -0.5539773,-0.8842329 -1.6512784,-0.8842329 -2.2265625,0 -4.46377843,2.1946023 -4.46377843,4.506392 0,1.65127844 1.17187503,2.73792616 2.69531253,2.73792616 0.8629261,0 1.6299716,-0.40482954 2.1519886,-0.86292613 C 6.2737358,-1.4583523 6.4441903,-2.363892 6.4441903,-2.3851989 Z m 0,0"
         style="fill:#000000;fill-opacity:1;fill-rule:nonzero;stroke:none"
         aria-label="C"
         transform="matrix(1.4666667,0,0,1.4666667,3975.1813,650.48267)" /><path
         id="path1965"
         d="M 450.71408,113.38724 V 88.32872 m 0,-34.92342 V 28.3468"
         style="fill:none;stroke:#000000;stroke-width:0.3985;stroke-linecap:butt;stroke-linejoin:miter;stroke-miterlimit:10;stroke-dasharray:none;stroke-opacity:1"
         transform="matrix(1.3333333,0,0,-1.3333333,3409.3627,741.82533)" /><path
         id="path1966"
         d="m 450.71408,88.72726 6.54817,-3.30882 -13.09633,-5.82055 13.09633,-5.82056 -13.09633,-5.82054 13.09633,-5.82054 -13.09633,-5.82058 6.54816,-3.30883"
         style="fill:none;stroke:#000000;stroke-width:0.797;stroke-linecap:butt;stroke-linejoin:bevel;stroke-miterlimit:10;stroke-dasharray:none;stroke-opacity:1"
         transform="matrix(1.3333333,0,0,-1.3333333,3409.3627,741.82533)" /><g
         id="g1966"
         aria-label="R&#10;L"
         transform="matrix(1.4666667,0,0,1.4666667,4022.2707,650.48267)"><path
           id="path1967"
           d="m 6.4338849,-5.5066477 c 0,0.3409091 -0.1598011,1.0227272 -0.5433238,1.4169034 -0.2663352,0.2556818 -0.7883523,0.5752841 -1.6832387,0.5752841 H 3.0887145 L 3.7385724,-6.113892 c 0.053267,-0.2450285 0.085227,-0.3409091 0.2769887,-0.3728694 0.085227,-0.010653 0.4048295,-0.010653 0.6072443,-0.010653 0.703125,0 1.8110795,0 1.8110795,0.9907667 z m 1.0866478,4.58096588 c 0,-0.11718748 -0.1171875,-0.11718748 -0.1171875,-0.11718748 -0.095881,0 -0.1171875,0.0639204 -0.1278409,0.1384943 -0.2556819,0.73508523 -0.6818182,0.90553977 -0.9161932,0.90553977 -0.3196023,0 -0.3941762,-0.22372159 -0.3941762,-0.60724432 0,-0.30894886 0.063921,-0.82031245 0.095881,-1.13991475 0.021307,-0.1384943 0.042614,-0.3196023 0.042614,-0.46875 0,-0.7670455 -0.6605114,-1.0759943 -0.9375,-1.171875 1.0120738,-0.2130682 2.1946022,-0.9161932 2.1946022,-1.9176137 0,-0.8629261 -0.8948863,-1.5021306 -2.2052556,-1.5021306 H 2.321669 c -0.2024147,0 -0.287642,0 -0.287642,0.2024147 0,0.1065341 0.085227,0.1065341 0.2769886,0.1065341 0,0 0.2130682,0 0.3728693,0.021307 0.181108,0.021307 0.2769887,0.03196 0.2769887,0.1598012 0,0.042614 -0.010653,0.074574 -0.042614,0.1917613 l -1.3316761,5.34801141 c -0.1065341,0.39417614 -0.1278409,0.46875 -0.90553977,0.46875 -0.18110795,0 -0.27698863,0 -0.27698863,0.20241477 0,0.10653409 0.13849432,0.10653409 0.13849432,0.10653409 L 1.799652,-0.03079545 3.0674077,0.00116477 c 0.074574,0 0.2024147,0 0.2024147,-0.20241477 0,-0.10653409 -0.095881,-0.10653409 -0.287642,-0.10653409 -0.3622159,0 -0.6392045,0 -0.6392045,-0.18110796 0,-0.053267 0.021307,-0.10653409 0.03196,-0.17045454 L 3.024794,-3.2907386 h 1.1931819 c 0.9055397,0 1.0759943,0.5539772 1.0759943,0.9055397 0,0.1491478 -0.074574,0.4580966 -0.1384943,0.6818182 -0.063921,0.2769887 -0.1598012,0.649858 -0.1598012,0.85227275 0,1.07599431 1.2038352,1.07599431 1.3316762,1.07599431 0.8416193,0 1.1931818,-1.01207386 1.1931818,-1.15056818 z m 0,0"
           style="fill:#000000;fill-opacity:1;fill-rule:nonzero;stroke:none" /><path
           id="path1968"
           d="m 12.591555,-0.24120028 c 0,-0.0213068 -0.01065,-0.0958807 -0.117187,-0.0958807 -0.08523,0 -0.09588,0.0319602 -0.138494,0.13849432 C 12.069538,0.47257812 11.760589,1.2396236 10.48218,1.2396236 H 9.6938281 c -0.2130682,0 -0.2237216,0 -0.2237216,-0.063921 0,0 0,-0.042614 0.03196,-0.1491477 l 0.9375005,-3.7286932 c 0.06392,-0.2450284 0.08523,-0.3196023 0.724432,-0.3196023 0.213068,0 0.287642,0 0.287642,-0.1491477 0,0 -0.01065,-0.095881 -0.117188,-0.095881 -0.159801,0 -0.351562,0.010653 -0.522017,0.021307 H 9.7790554 c -0.1491477,0 -0.3196023,-0.021307 -0.4580966,-0.021307 -0.042614,0 -0.1491477,0 -0.1491477,0.1491478 0,0.095881 0.085227,0.095881 0.2237216,0.095881 0,0 0.1384943,0 0.2663352,0.021307 0.1491477,0.010653 0.1598011,0.021307 0.1598011,0.095881 0,0 0,0.042614 -0.021307,0.1491478 l -0.9375,3.70738633 C 8.8095952,1.1863565 8.7882884,1.2396236 8.2556179,1.2396236 c -0.1171875,0 -0.2130682,0 -0.2130682,0.1491477 0,0.1065341 0.085227,0.1065341 0.2130682,0.1065341 h 3.5049711 c 0.181108,0 0.181108,-0.010653 0.245029,-0.1384943 0.06392,-0.1917614 0.585937,-1.54474434 0.585937,-1.59801138 z m 0,0"
           style="fill:#000000;fill-opacity:1;fill-rule:nonzero;stroke:none" /></g><path
         id="path1969"
         d="M 479.0609,48.18947 V 93.14604"
         style="fill:none;stroke:#000000;stroke-width:0.3985;stroke-linecap:butt;stroke-linejoin:miter;stroke-miterlimit:10;stroke-dasharray:none;stroke-opacity:1"
         transform="matrix(1.3333333,0,0,-1.3333333,3409.3627,741.82533)" /><path
         id="path1970"
         d="M -2.07224,2.39104 C -1.69365,0.95639 -0.84999,0.27895 0,0 -0.84999,-0.27895 -1.69365,-0.95639 -2.07224,-2.39104"
         style="fill:none;stroke:#000000;stroke-width:0.3985;stroke-linecap:round;stroke-linejoin:round;stroke-miterlimit:10;stroke-dasharray:none;stroke-opacity:1"
         transform="matrix(0,-1.3333333,-1.3333333,0,4048.1105,617.36495)" /><g
         id="g1970"
         aria-label="V&#10;out"
         transform="matrix(1.4666667,0,0,1.4666667,4053.828,651.23467)"><path
           id="path1971"
           d="m 7.6598864,-6.6798864 c 0,-0.085227 -0.053267,-0.1278409 -0.1278409,-0.1278409 -0.2556819,0 -0.5539773,0.03196 -0.8203125,0.03196 -0.3302557,0 -0.6605114,-0.03196 -0.9801137,-0.03196 -0.06392,0 -0.1917613,0 -0.1917613,0.1917614 0,0.1065341 0.085227,0.1171875 0.1598011,0.1171875 0.2663352,0.021307 0.4580966,0.1278409 0.4580966,0.3302557 C 6.1577557,-6.019375 6.008608,-5.785 6.008608,-5.785 L 2.9510795,-0.92704545 2.2692614,-6.200483 c 0,-0.1598011 0.234375,-0.2982954 0.6924716,-0.2982954 0.1384943,0 0.2450284,0 0.2450284,-0.1917614 0,-0.095881 -0.074574,-0.1171875 -0.1384944,-0.1171875 -0.3941761,0 -0.8309659,0.03196 -1.2357954,0.03196 -0.181108,0 -0.3728693,-0.010654 -0.5433239,-0.010654 -0.1811079,0 -0.37286929,-0.021307 -0.54332384,-0.021307 -0.0639205,0 -0.19176136,0 -0.19176136,0.1917614 0,0.1171875 0.0958807,0.1171875 0.25568182,0.1171875 0.55397728,0 0.56463068,0.095881 0.59659088,0.3409091 l 0.7883523,6.14701703 c 0.03196,0.20241477 0.063921,0.234375 0.1917614,0.234375 0.1598011,0 0.2024147,-0.0532671 0.287642,-0.18110796 L 6.2536364,-5.6678125 c 0.4900568,-0.7776989 0.9055397,-0.8096591 1.2784091,-0.8309659 0.1171875,-0.010653 0.1278409,-0.181108 0.1278409,-0.181108 z m 0,0"
           style="fill:#000000;fill-opacity:1;fill-rule:nonzero;stroke:none" /><path
           id="path1972"
           d="m 9.5189062,-0.35975142 c 0,-0.77769888 -0.5859375,-1.22514208 -1.2677556,-1.22514208 -1.0333807,0 -2.0028409,0.96946026 -2.0028409,1.92826708 0,0.69247162 0.5007102,1.22514202 1.2677556,1.22514202 0.9907671,0 2.0028409,-0.92684657 2.0028409,-1.92826702 z m -0.575284,-0.25568182 c 0,0.17045455 -0.085227,0.86292614 -0.3941762,1.35298296 C 8.2937642,1.1423793 7.8676278,1.3661009 7.5160653,1.3661009 c -0.3409091,0 -0.6924716,-0.2237216 -0.6924716,-0.7670455 0,-0.28764205 0.127841,-0.98011364 0.4048296,-1.37428978 0.2982954,-0.42613632 0.703125,-0.61789772 1.0227273,-0.61789772 0.3728693,0 0.6924716,0.2663352 0.6924716,0.77769886 z m 5.1775568,1.10795455 c 0,-0.0852273 -0.09588,-0.0852273 -0.117188,-0.0852273 -0.09588,0 -0.106534,0.0213068 -0.149147,0.21306819 -0.08523,0.33025568 -0.223722,0.7457387 -0.511364,0.7457387 -0.181108,0 -0.234375,-0.1598012 -0.234375,-0.3409091 0,-0.11718756 0.06392,-0.37286938 0.106534,-0.55397733 l 0.159801,-0.62855114 0.159801,-0.61789773 c 0.04261,-0.17045454 0.117188,-0.4794034 0.117188,-0.5113636 0,-0.1384943 -0.117188,-0.2237216 -0.234375,-0.2237216 -0.255682,0 -0.308949,0.2024148 -0.362216,0.4261364 l -0.362216,1.44886358 c -0.03196,0.13849432 -0.09588,0.40482954 -0.106534,0.41548295 -0.138494,0.21306818 -0.415483,0.58593757 -0.852273,0.58593757 -0.479403,0 -0.479403,-0.44744325 -0.479403,-0.57528416 0,-0.41548295 0.191761,-0.90553977 0.394176,-1.41690341 0.05327,-0.13849432 0.09588,-0.24502841 0.09588,-0.36221591 0,-0.36221592 -0.308949,-0.59659092 -0.660512,-0.59659092 -0.703125,0 -1.012073,0.95880683 -1.012073,1.06534092 0,0.0958807 0.09588,0.0958807 0.117187,0.0958807 0.09588,0 0.106534,-0.0319602 0.127841,-0.1171875 0.159801,-0.56463072 0.46875,-0.85227272 0.745739,-0.85227272 0.117187,0 0.170454,0.085227 0.170454,0.2450284 0,0.15980114 -0.05327,0.30894887 -0.127841,0.46875001 -0.372869,0.96946022 -0.372869,1.171875 -0.372869,1.35298295 0,0.12784091 0,0.44744314 0.255682,0.67116474 0.202414,0.1598012 0.479403,0.2237216 0.724432,0.2237216 0.436789,0 0.671164,-0.2450284 0.905539,-0.46875 0.149148,0.4474432 0.617898,0.46875 0.703125,0.46875 0.234375,0 0.415483,-0.1491477 0.553978,-0.3728693 0.149147,-0.27698863 0.245028,-0.68181818 0.245028,-0.70312499 z m 2.943004,0 c 0,-0.0852273 -0.09588,-0.0852273 -0.117187,-0.0852273 -0.07457,0 -0.08523,0.0106534 -0.138495,0.12784091 -0.202414,0.44744318 -0.553977,0.83096598 -0.9375,0.83096598 -0.149147,0 -0.245028,-0.085227 -0.245028,-0.3409091 0,-0.0639205 0.03196,-0.21306824 0.04261,-0.2876421 l 0.50071,-2.0028409 h 0.713778 c 0.127841,0 0.223722,0 0.223722,-0.1491477 0,-0.095881 -0.09588,-0.095881 -0.213068,-0.095881 h -0.660512 l 0.255682,-1.0333807 c 0.01065,-0.042614 0.02131,-0.074574 0.02131,-0.095881 0,-0.1278409 -0.09588,-0.2237216 -0.234375,-0.2237216 -0.170455,0 -0.276989,0.1171875 -0.330256,0.2982955 -0.04261,0.1704545 0.04261,-0.1598011 -0.266335,1.0546875 h -0.713778 c -0.127841,0 -0.213069,0 -0.213069,0.1491477 0,0.095881 0.07457,0.095881 0.202415,0.095881 h 0.660512 l -0.40483,1.6512784 c -0.04261,0.17045454 -0.106534,0.42613636 -0.106534,0.51136363 0,0.41548297 0.351562,0.67116477 0.745739,0.67116477 0.777698,0 1.214488,-0.98011363 1.214488,-1.07599431 z m 0,0"
           style="fill:#000000;fill-opacity:1;fill-rule:nonzero;stroke:none" /></g><path
         id="path1973"
         d="M 450.71408,107.71794 V 105.2816"
         style="fill:none;stroke:#000000;stroke-width:0.3985;stroke-linecap:butt;stroke-linejoin:miter;stroke-miterlimit:10;stroke-dasharray:none;stroke-opacity:1"
         transform="matrix(1.3333333,0,0,-1.3333333,3409.3627,741.82533)" /><path
         id="path1974"
         d="M -2.07224,2.39104 C -1.69365,0.95639 -0.84999,0.27895 0,0 -0.84999,-0.27895 -1.69365,-0.95639 -2.07224,-2.39104"
         style="fill:none;stroke:#000000;stroke-width:0.3985;stroke-linecap:round;stroke-linejoin:round;stroke-miterlimit:10;stroke-dasharray:none;stroke-opacity:1"
         transform="matrix(0,1.3333333,1.3333333,0,4010.3148,601.71553)" /><g
         id="g1974"
         aria-label="I&#10;out"
         transform="matrix(1.4666667,0,0,1.4666667,4020.8627,598.32133)"><path
           id="path1975"
           d="m 3.3242827,-0.19245739 c 0,-0.1171875 -0.074574,-0.1171875 -0.2982955,-0.1171875 -0.1811079,0 -0.2237216,0 -0.4261363,-0.0213068 -0.2130682,-0.0213068 -0.2450285,-0.053267 -0.2450285,-0.17045455 0,-0.0745739 0.021307,-0.15980114 0.03196,-0.22372159 L 3.7291122,-6.041179 c 0.085227,-0.3515625 0.1171875,-0.4580966 0.9055398,-0.4580966 0.234375,0 0.3196023,0 0.3196023,-0.1811079 0,-0.1278409 -0.1171875,-0.1278409 -0.1491478,-0.1278409 l -1.3210227,0.03196 -1.3210227,-0.03196 c -0.074574,0 -0.2024148,0 -0.2024148,0.2024147 0,0.1065341 0.095881,0.1065341 0.2769886,0.1065341 0.4261364,0 0.6924716,0 0.6924716,0.1917614 0,0.053267 0,0.074574 -0.021307,0.1598011 L 1.56647,-0.77839489 c -0.095881,0.37286932 -0.1171875,0.46875 -0.9055398,0.46875 -0.234375,0 -0.31960227,0 -0.31960227,0.20241478 0,0.10653408727 0.1171875,0.10653408727 0.14914772,0.10653408727 L 1.7901918,-0.03265625 3.1325213,-6.9602273e-4 c 0.074574,0 0.1917614,0 0.1917614,-0.19176136727 z m 0,0"
           style="fill:#000000;fill-opacity:1;fill-rule:nonzero;stroke:none" /><path
           id="path1976"
           d="m 8.0863565,-0.36024858 c 0,-0.77769882 -0.5859375,-1.22514202 -1.2677556,-1.22514202 -1.0333807,0 -2.002841,0.9694602 -2.002841,1.92826702 0,0.69247158 0.5007103,1.22514208 1.2677557,1.22514208 0.9907671,0 2.0028409,-0.92684663 2.0028409,-1.92826708 z M 7.5110724,-0.6159304 c 0,0.17045455 -0.085227,0.86292614 -0.3941761,1.35298296 C 6.8612145,1.1418821 6.4350781,1.3656037 6.0835156,1.3656037 c -0.3409091,0 -0.6924716,-0.2237216 -0.6924716,-0.76704546 0,-0.28764205 0.1278409,-0.98011364 0.4048296,-1.37428977 0.2982954,-0.42613637 0.703125,-0.61789777 1.0227273,-0.61789777 0.3728693,0 0.6924715,0.2663353 0.6924715,0.7776989 z m 5.1802206,1.10795455 c 0,-0.0852273 -0.09588,-0.0852273 -0.117188,-0.0852273 -0.09588,0 -0.106534,0.0213068 -0.149148,0.21306819 -0.08523,0.33025568 -0.223721,0.74573866 -0.511363,0.74573866 -0.181108,0 -0.234375,-0.1598011 -0.234375,-0.3409091 0,-0.11718752 0.06392,-0.37286934 0.106534,-0.55397729 l 0.159801,-0.62855114 0.159801,-0.61789772 c 0.04261,-0.17045455 0.117188,-0.47940335 0.117188,-0.51136365 0,-0.1384943 -0.117188,-0.2237216 -0.234375,-0.2237216 -0.255682,0 -0.308949,0.2024148 -0.362216,0.4261364 l -0.362216,1.44886362 c -0.03196,0.13849432 -0.09588,0.40482954 -0.106534,0.41548295 -0.138495,0.21306818 -0.415483,0.58593753 -0.852273,0.58593753 -0.4794034,0 -0.4794034,-0.44744321 -0.4794034,-0.57528412 0,-0.41548295 0.1917614,-0.90553977 0.3941764,-1.41690341 0.05327,-0.13849432 0.09588,-0.24502841 0.09588,-0.36221591 0,-0.36221586 -0.308948,-0.59659086 -0.660511,-0.59659086 -0.703125,0 -1.0120738,0.95880677 -1.0120738,1.06534086 0,0.0958807 0.095881,0.0958807 0.1171875,0.0958807 0.095881,0 0.1065341,-0.0319602 0.1278409,-0.1171875 0.1598011,-0.56463066 0.46875,-0.85227276 0.7457386,-0.85227276 0.1171875,0 0.1704546,0.085227 0.1704546,0.2450284 0,0.15980117 -0.053267,0.3089489 -0.127841,0.46875004 -0.3728693,0.96946022 -0.3728693,1.171875 -0.3728693,1.35298295 0,0.12784091 0,0.44744321 0.2556818,0.67116481 0.2024148,0.1598011 0.4794037,0.2237216 0.7244317,0.2237216 0.43679,0 0.671165,-0.2450284 0.90554,-0.46875 0.149148,0.4474431 0.617898,0.46875 0.703125,0.46875 0.234375,0 0.415483,-0.1491478 0.553977,-0.3728694 0.149148,-0.2769886 0.245029,-0.68181814 0.245029,-0.70312495 z m 2.940341,0 c 0,-0.0852273 -0.09588,-0.0852273 -0.117188,-0.0852273 -0.07457,0 -0.08523,0.0106534 -0.138494,0.12784091 -0.202415,0.44744319 -0.553978,0.83096594 -0.9375,0.83096594 -0.149148,0 -0.245029,-0.085227 -0.245029,-0.3409091 0,-0.0639204 0.03196,-0.2130682 0.04261,-0.28764206 l 0.50071,-2.00284094 h 0.713779 c 0.12784,0 0.223721,0 0.223721,-0.1491477 0,-0.095881 -0.09588,-0.095881 -0.213068,-0.095881 h -0.660511 l 0.255681,-1.0333806 c 0.01065,-0.042614 0.02131,-0.074574 0.02131,-0.095881 0,-0.1278409 -0.09588,-0.2237216 -0.234375,-0.2237216 -0.170454,0 -0.276988,0.1171875 -0.330255,0.2982954 -0.04261,0.1704546 0.04261,-0.1598011 -0.266336,1.0546875 h -0.713778 c -0.127841,0 -0.213068,0 -0.213068,0.1491478 0,0.095881 0.07457,0.095881 0.202415,0.095881 h 0.660511 l -0.40483,1.65127844 c -0.04261,0.17045454 -0.106534,0.42613636 -0.106534,0.51136363 0,0.41548293 0.351563,0.67116483 0.745739,0.67116483 0.777699,0 1.214489,-0.98011369 1.214489,-1.07599437 z m 0,0"
           style="fill:#000000;fill-opacity:1;fill-rule:nonzero;stroke:none" /></g><path
         id="path1977"
         d="M 56.69362,28.3468 H 450.71408"
         style="fill:none;stroke:#000000;stroke-width:0.3985;stroke-linecap:butt;stroke-linejoin:miter;stroke-miterlimit:10;stroke-dasharray:none;stroke-opacity:1"
         transform="matrix(1.3333333,0,0,-1.3333333,3409.3627,741.82533)" /><path
         id="path1978"
         d="m 289.13736,113.38724 h 34.01608"
         style="fill:none;stroke:#000000;stroke-width:0.3985;stroke-linecap:butt;stroke-linejoin:miter;stroke-miterlimit:10;stroke-dasharray:none;stroke-opacity:1"
         transform="matrix(1.3333333,0,0,-1.3333333,3409.3627,741.82533)" /><path
         id="path1979"
         d="m 408.19388,113.38724 h 42.5202"
         style="fill:none;stroke:#000000;stroke-width:0.3985;stroke-linecap:butt;stroke-linejoin:miter;stroke-miterlimit:10;stroke-dasharray:none;stroke-opacity:1"
         transform="matrix(1.3333333,0,0,-1.3333333,3409.3627,741.82533)" /><path
         id="path1980"
         d="m 189.92352,141.73404 c 0.44831,0.89666 1.49442,1.49441 2.98883,1.49441 h 19.53452 c 1.49441,0 2.54053,0.59777 2.98883,1.49442 0.4483,-0.89665 1.49441,-1.49442 2.98883,-1.49442 h 19.53452 c 1.49441,0 2.54051,-0.59775 2.98883,-1.49441"
         style="fill:none;stroke:#000000;stroke-width:0.3985;stroke-linecap:butt;stroke-linejoin:miter;stroke-miterlimit:10;stroke-dasharray:none;stroke-opacity:1"
         transform="matrix(1.3333333,0,0,-1.3333333,3409.3627,741.82533)" /><g
         id="g1980"
         aria-label="Tunedtoω"
         transform="matrix(1.4666667,0,0,1.4666667,3660.3413,542.764)"><path
           id="path1981"
           d="M 6.8171662,-4.5052841 6.6360582,-6.7425 H 0.54230824 l -0.18110796,2.2372159 h 0.24502841 c 0.13849432,-1.5980114 0.28764205,-1.928267 1.78977271,-1.928267 0.181108,0 0.4367898,0 0.5433239,0.021307 0.2024148,0.042614 0.2024148,0.1491477 0.2024148,0.3728693 v 5.25213068 c 0,0.34090909 0,0.47940341 -1.0440341,0.47940341 H 1.7035298 v 0.30894886 c 0.4048296,-0.03196022 1.4275568,-0.03196022 1.8856534,-0.03196022 0.4580966,0 1.4808239,0 1.8856534,0.03196022 V -0.30784091 H 5.0806605 c -1.0440341,0 -1.0440341,-0.13849432 -1.0440341,-0.47940341 V -6.039375 c 0,-0.1917614 0,-0.3302557 0.181108,-0.3728693 0.1065341,-0.021307 0.3728693,-0.021307 0.5646307,-0.021307 1.5021306,0 1.6512784,0.3302556 1.7897727,1.928267 z m 4.8765978,4.50639205 v -0.30894886 c -0.692471,0 -0.777699,-0.0745739 -0.777699,-0.55397727 V -4.39875 l -1.4595167,0.1065341 v 0.3089489 c 0.6924717,0 0.7776987,0.074574 0.7776987,0.5539772 v 1.7791193 c 0,0.86292618 -0.4794032,1.54474436 -1.2038351,1.54474436 -0.8416193,0 -0.8842329,-0.46875 -0.8842329,-0.99076706 V -4.39875 l -1.4595171,0.1065341 v 0.3089489 c 0.7776989,0 0.7776989,0.03196 0.7776989,0.9161931 v 1.4914773 c 0,0.77769887 0,1.68323865 1.5127841,1.68323865 0.5539773,0 0.990767,-0.27698864 1.2890621,-0.89488637 v 0.89488637 z m 5.53711,0 v -0.30894886 c -0.511364,0 -0.767046,0 -0.777699,-0.29829545 V -2.5130966 c 0,-0.8522727 0,-1.1612216 -0.308949,-1.5234375 -0.138494,-0.1704545 -0.46875,-0.3622159 -1.044034,-0.3622159 -0.724432,0 -1.193182,0.4261364 -1.470171,1.0440341 V -4.39875 l -1.40625,0.1065341 v 0.3089489 c 0.692472,0 0.777699,0.074574 0.777699,0.5539772 v 2.67400571 c 0,0.44744318 -0.106534,0.44744318 -0.777699,0.44744318 v 0.30894886 l 1.129262,-0.03196022 1.107954,0.03196022 v -0.30894886 c -0.660511,0 -0.777699,0 -0.777699,-0.44744318 V -2.5876705 c 0,-1.0333806 0.713779,-1.5980113 1.352983,-1.5980113 0.617898,0 0.735086,0.5433238 0.735086,1.1079545 v 2.32244321 c 0,0.44744318 -0.117188,0.44744318 -0.777699,0.44744318 v 0.30894886 l 1.129261,-0.03196022 z m 4.341264,-1.18252845 c 0,-0.106534 -0.07457,-0.1171875 -0.127841,-0.1171875 -0.09588,0 -0.106534,0.053267 -0.127841,0.1384944 -0.351563,1.02272724 -1.246449,1.02272724 -1.352983,1.02272724 -0.490057,0 -0.894886,-0.29829546 -1.118608,-0.67116478 C 18.54657,-1.2879545 18.54657,-1.9378125 18.54657,-2.3000284 h 2.780539 c 0.213069,0 0.245029,0 0.245029,-0.2130682 0,-0.9801136 -0.532671,-1.9495739 -1.77912,-1.9495739 -1.161221,0 -2.077414,1.0227273 -2.077414,2.2691762 0,1.34232953 1.044034,2.30113635 2.194602,2.30113635 1.214489,0 1.661932,-1.09730114 1.661932,-1.28906255 z m -0.660512,-1.3316761 h -2.354403 c 0.05327,-1.4808239 0.894886,-1.7258523 1.235795,-1.7258523 1.022728,0 1.118608,1.3423296 1.118608,1.7258523 z m 6.208275,2.51420455 v -0.30894886 c -0.703125,0 -0.777699,-0.0745739 -0.777699,-0.55397727 V -6.9129545 l -1.438211,0.106534 v 0.3089489 c 0.703125,0 0.777699,0.074574 0.777699,0.5646307 v 2.1519886 C 25.394048,-4.1430682 24.967912,-4.39875 24.424588,-4.39875 c -1.171875,0 -2.215909,0.9694602 -2.215909,2.2585227 0,1.26775571 0.96946,2.24786935 2.109375,2.24786935 0.639205,0 1.086648,-0.3409091 1.331676,-0.64985796 V 0.10764205 Z M 25.64973,-1.170767 c 0,0.18110791 0,0.19176132 -0.106534,0.36221586 -0.298295,0.47940341 -0.745739,0.703125 -1.171875,0.703125 -0.447443,0 -0.809659,-0.26633522 -1.044034,-0.63920454 -0.266335,-0.40482952 -0.298296,-0.98011362 -0.298296,-1.38494322 0,-0.3728693 0.02131,-0.9694602 0.308949,-1.4169034 0.213069,-0.3089488 0.596591,-0.6392045 1.129262,-0.6392045 0.351562,0 0.767045,0.1491477 1.075994,0.5965909 0.106534,0.1704545 0.106534,0.1917614 0.106534,0.3728693 z m 8.37358,-0.063921 v -0.5646307 h -0.245029 v 0.5433239 c 0,0.73508521 -0.298295,1.11860794 -0.671165,1.11860794 -0.660511,0 -0.660511,-0.90553974 -0.660511,-1.07599434 V -3.983267 h 1.416904 v -0.3089489 h -1.416904 v -1.8323864 h -0.255682 c -0.01065,0.8203125 -0.308949,1.8856534 -1.278409,1.9176137 v 0.2237216 h 0.84162 v 2.7485795 c 0,1.22514205 0.926846,1.34232955 1.289062,1.34232955 0.703125,0 0.980114,-0.703125 0.980114,-1.34233005 z m 5.257457,-0.8948864 c 0,-1.2784091 -0.990767,-2.3330966 -2.194602,-2.3330966 -1.246449,0 -2.215909,1.0866478 -2.215909,2.3330966 0,1.28906254 1.03338,2.23721595 2.205255,2.23721595 1.203836,0 2.205256,-0.96946023 2.205256,-2.23721595 z m -0.820312,-0.085227 c 0,0.3622159 0,0.9055397 -0.223722,1.34232951 -0.213068,0.44744318 -0.660511,0.73508523 -1.150568,0.73508523 -0.426137,0 -0.87358,-0.21306819 -1.139915,-0.67116478 -0.245028,-0.43678976 -0.245028,-1.04403406 -0.245028,-1.40624996 0,-0.3835228 0,-0.9268466 0.234375,-1.3636364 0.266335,-0.4580966 0.735085,-0.6605114 1.139914,-0.6605114 0.43679,0 0.862927,0.2130682 1.118608,0.6392046 0.266336,0.4367898 0.266336,1.0120738 0.266336,1.3849432 z m 0,0"
           style="fill:#000000;fill-opacity:1;fill-rule:nonzero;stroke:none" /><path
           id="path1982"
           d="m 48.677074,-2.3746023 c 0.117187,-0.4367897 0.234375,-0.9268466 0.234375,-1.3316761 0,-0.2556818 -0.05327,-0.4794034 -0.202415,-0.6072443 -0.06392,-0.053267 -0.138494,-0.085227 -0.223722,-0.085227 -0.12784,0 -0.255681,0.053267 -0.351562,0.1598011 -0.09588,0.095881 -0.138494,0.2024148 -0.138494,0.3196023 0,0.095881 0.03196,0.1704546 0.106534,0.2450284 0.245028,0.2237216 0.383522,0.5326705 0.383522,0.8735796 0,0.1171875 -0.01065,0.2556818 -0.04261,0.3728693 -0.234375,0.9055398 -0.809659,1.82173294 -1.598012,1.82173294 -0.553977,0 -0.884232,-0.38352273 -0.96946,-0.89488634 0.127841,-0.2769887 0.223722,-0.5752841 0.298296,-0.8735796 0.01065,-0.095881 0.03196,-0.1811079 0.03196,-0.2663352 0,-0.1491477 -0.04261,-0.2556818 -0.181108,-0.2556818 -0.191761,0 -0.298295,0.2450284 -0.340909,0.46875 -0.08523,0.3089488 -0.117188,0.6072443 -0.127841,0.8948863 -0.330256,0.54332391 -0.809659,0.92684664 -1.363636,0.92684664 -0.607245,0 -0.862927,-0.50071024 -0.862927,-1.12926134 0,-0.1917614 0.03196,-0.4261364 0.08523,-0.6392046 0.149147,-0.6072443 0.50071,-1.1612216 0.884233,-1.6832386 0.03196,-0.042614 0.05327,-0.095881 0.05327,-0.1384943 0,-0.053267 -0.04261,-0.1065341 -0.09588,-0.1384943 -0.03196,-0.021307 -0.06392,-0.021307 -0.08523,-0.021307 -0.06392,0 -0.127841,0.03196 -0.181108,0.095881 -0.40483,0.5646307 -0.660512,1.2038352 -0.820313,1.8323864 -0.09588,0.3728693 -0.149147,0.7670454 -0.149147,1.1186079 0,0.79900572 0.287642,1.41690345 1.044034,1.41690345 0.628551,0 1.150568,-0.43678978 1.523437,-1.0546875 0.117188,0.61789772 0.458097,1.0546875 1.129262,1.0546875 1.03338,0 1.661931,-1.27840905 1.960227,-2.48224435 z m 0,0"
           style="fill:#000000;fill-opacity:1;fill-rule:nonzero;stroke:none" /></g></g></g></svg>
