<?xml version="1.0" encoding="UTF-8" standalone="no"?>
<!-- Created with Inkscape (http://www.inkscape.org/) -->

<svg
   width="124.54328mm"
   height="33.506256mm"
   viewBox="0 0 124.54328 33.506256"
   version="1.1"
   id="svg1"
   xml:space="preserve"
   xmlns="http://www.w3.org/2000/svg"
   xmlns:svg="http://www.w3.org/2000/svg"><defs
     id="defs1" /><g
     id="g2005"
     transform="matrix(0.26458333,0,0,0.26458333,168.55765,-72.753116)"><g
       id="g11"><path
         id="path891-5"
         d="m -444.70643,290.28756 c 0.3189,-1.19555 1.06304,-1.99255 2.12609,-1.99255 h 18.43274 c 1.06305,0 1.8072,-0.79702 2.1261,-1.99256 0.31889,1.19554 1.06305,1.99256 2.12609,1.99256 h 18.43275 c 1.06304,0 1.80718,0.797 2.12609,1.99255"
         style="fill:none;stroke:#000000;stroke-width:0.531333;stroke-linecap:butt;stroke-linejoin:miter;stroke-miterlimit:10;stroke-dasharray:none;stroke-opacity:1" /><g
         id="g2375"
         aria-label="C&#10;1"
         transform="translate(-411.2631,298.90731)"><path
           id="path2376"
           d="m 6.4524792,-2.3921875 c 0,-0.109375 -0.125,-0.109375 -0.125,-0.109375 -0.0625,0 -0.109375,0.03125 -0.125,0.109375 -0.09375,0.28125 -0.328125,1 -1.015625,1.578125 -0.6875,0.546875 -1.3125,0.71875 -1.828125,0.71875 -0.890625,0 -1.953125,-0.515625 -1.953125,-2.0625 0,-0.578125 0.203125,-2.1875 1.203125,-3.359375 0.609375,-0.703125 1.546875,-1.203125 2.4375,-1.203125 1.015625,0 1.609375,0.765625 1.609375,1.921875 0,0.40625 -0.03125,0.40625 -0.03125,0.515625 0,0.09375 0.109375,0.09375 0.140625,0.09375 0.125,0 0.125,-0.015625 0.1875,-0.203125 l 0.625,-2.53125 c 0,-0.03125 -0.015625,-0.109375 -0.109375,-0.109375 -0.03125,0 -0.046875,0.015625 -0.15625,0.125 l -0.6875,0.765625 c -0.09375,-0.140625 -0.546875,-0.890625 -1.65625,-0.890625 -2.234375,0 -4.46875003,2.203125 -4.46875003,4.515625 0,1.640625 1.17187503,2.734375 2.70312503,2.734375 0.859375,0 1.625,-0.390625 2.15625,-0.859375 0.921875,-0.8125 1.09375,-1.71875 1.09375,-1.75 z m 0,0"
           style="fill:#000000;fill-opacity:1;fill-rule:nonzero;stroke:none" /><path
           id="path2377"
           d="m 10.417323,1.4945313 v -0.25 h -0.265625 c -0.7031251,0 -0.7031251,-0.09375 -0.7031251,-0.32812505 V -2.9429687 c 0,-0.1875 0,-0.1875 -0.203125,-0.1875 -0.453125,0.4375 -1.078125,0.4375 -1.359375,0.4375 v 0.25 c 0.15625,0 0.625,0 1,-0.1875 v 3.54687495 c 0,0.23437505 0,0.32812505 -0.6875,0.32812505 h -0.265625 v 0.25 l 1.234375,-0.03125 z m 0,0"
           style="fill:#000000;fill-opacity:1;fill-rule:nonzero;stroke:none" /></g><path
         id="path2348"
         d="m -593.99221,401.34451 0.003,-30.61807 m 0,-23.81286 -0.003,-30.60949 18.71276,-0.007 m 47.62522,0 18.70245,0.007 h 14.1734"
         style="fill:none;stroke:#000000;stroke-width:0.531333;stroke-linecap:butt;stroke-linejoin:miter;stroke-miterlimit:10;stroke-dasharray:none;stroke-opacity:1" /><path
         id="path2349"
         d="m -605.89792,358.82433 c 0,6.57539 5.33031,11.9057 11.90571,11.9057 6.5754,0 11.90569,-5.33031 11.90569,-11.9057 0,-6.57542 -5.33029,-11.9057 -11.90569,-11.9057 -6.5754,0 -11.90571,5.33028 -11.90571,11.9057 z"
         style="fill:none;stroke:#000000;stroke-width:1.06267;stroke-linecap:butt;stroke-linejoin:miter;stroke-miterlimit:10;stroke-dasharray:none;stroke-opacity:1" /><path
         id="path2350"
         d="m -593.99221,370.73003 v -23.8114"
         style="fill:none;stroke:#000000;stroke-width:1.06267;stroke-linecap:butt;stroke-linejoin:miter;stroke-miterlimit:10;stroke-dasharray:none;stroke-opacity:1" /><path
         id="path2351"
         d="m -527.66084,322.25693 h -47.62231 v -11.90571 h 47.62231 z"
         style="fill:none;stroke:#000000;stroke-width:1.06267;stroke-linecap:butt;stroke-linejoin:miter;stroke-miterlimit:10;stroke-dasharray:none;stroke-opacity:1" /><g
         id="g2351"
         aria-label="λ/4|Z&#10;0"
         transform="translate(-569.6924,305.45664)"><path
           id="path2352"
           d="m 5.46775,0.01551042 c 0,-0.03125 -0.03125,-0.0625 -0.0625,-0.09375 -0.09375,-0.109375 -0.15625,-0.265625 -0.21875,-0.453125 L 3.15525,-6.2032396 c -0.21875,-0.578125 -0.75,-0.71875 -1.21875,-0.71875 -0.046875,0 -0.1875,0 -0.1875,0.109375 0,0.078125 0.09375,0.109375 0.09375,0.109375 0.328125,0.046875 0.40625,0.109375 0.65625,0.796875 l 0.953125,2.703125 -2.75,2.73437502 c -0.109375,0.125 -0.171875,0.171875 -0.171875,0.3125 0,0.171875 0.140625,0.28125 0.296875,0.28125 0.15625,0 0.25,-0.109375 0.328125,-0.203125 L 3.5615,-2.9063646 c 0.40625,1.046875 0.890625,2.56250002 1.046875,2.79687502 0.15625,0.21875 0.25,0.21875 0.53125,0.21875 h 0.21875 c 0.09375,-0.015625 0.109375,-0.0625 0.109375,-0.09375 z m 4.765625,-7.29687502 c 0,-0.109375 -0.07813,-0.203125 -0.1875,-0.203125 -0.078125,0 -0.140625,0.03125 -0.171875,0.09375 l -3.46875,9.5 c -0.046875,0.140625 -0.046875,0.1875 -0.046875,0.1875 0,0.109375 0.09375,0.203125 0.203125,0.203125 0.125,0 0.15625,-0.078125 0.21875,-0.25 l 3.40625,-9.34375 c 0.04687,-0.140625 0.04687,-0.1875 0.04687,-0.1875 z m 0,0"
           style="fill:#000000;fill-opacity:1;fill-rule:nonzero;stroke:none" /><path
           id="path2353"
           d="m 15.479469,-1.6407396 v -0.3125 h -0.984375 v -4.53125 c 0,-0.203125 0,-0.265625 -0.171875,-0.265625 -0.07813,0 -0.109375,0 -0.1875,0.125 l -3.0625,4.671875 v 0.3125 h 2.65625 v 0.85937502 c 0,0.359375 -0.03125,0.46875 -0.765625,0.46875 h -0.203125 v 0.31249999667 c 0.40625,-0.0312499967 0.921875,-0.0312499967 1.34375,-0.0312499967 0.421875,0 0.9375,0 1.359375,0.0312499967 V -0.31261458 h -0.21875 c -0.734375,0 -0.75,-0.109375 -0.75,-0.46875 V -1.6407396 Z m -1.703125,-0.3125 h -2.421875 l 2.421875,-3.71875 z m 0,0"
           style="fill:#000000;fill-opacity:1;fill-rule:nonzero;stroke:none" /><path
           id="path2354"
           d="m 20.670875,2.1561354 v -9.296875 c 0,-0.140625 0,-0.34375 -0.1875,-0.34375 -0.203125,0 -0.203125,0.203125 -0.203125,0.34375 v 9.296875 c 0,0.140625 0,0.34375 0.203125,0.34375 0.1875,0 0.1875,-0.203125 0.1875,-0.34375 z m 0,0"
           style="fill:#000000;fill-opacity:1;fill-rule:nonzero;stroke:none" /><path
           id="path2355"
           d="m 31.40525,-2.5469896 c 0,-0.0625 -0.03125,-0.109375 -0.125,-0.109375 -0.09375,0 -0.109375,0.03125 -0.171875,0.25 -0.4375,1.34375 -0.921875,2.06250002 -2.609375,2.06250002 h -1.703125 l 5.5625,-6.21875002 c 0.01563,-0.046875 0.03125,-0.09375 0.03125,-0.15625 0,-0.09375 -0.04687,-0.09375 -0.25,-0.09375 H 27.9365 c -0.234375,0 -0.25,0.015625 -0.3125,0.203125 l -0.546875,1.796875 c -0.01563,0.046875 -0.03125,0.140625 -0.03125,0.140625 0,0 0,0.109375 0.125,0.109375 0.09375,0 0.109375,-0.078125 0.125,-0.109375 0.390625,-1.171875 0.90625,-1.828125 2.453125,-1.828125 h 1.625 l -5.5625,6.23437502 c 0,0 -0.04687,0.140625 -0.04687,0.171875 0,0.0937499967 0.0625,0.0937499967 0.25,0.0937499967 h 4.328125 c 0.25,0 0.25,-0.0156249967 0.3125,-0.2031249967 L 31.374,-2.4063646 c 0,-0.03125 0.03125,-0.109375 0.03125,-0.140625 z m 0,0"
           style="fill:#000000;fill-opacity:1;fill-rule:nonzero;stroke:none" /><path
           id="path2356"
           d="m 35.577125,-0.72667708 c 0,-0.76562502 -0.09375,-1.32812502 -0.40625,-1.81250002 -0.21875,-0.3125 -0.65625,-0.59375 -1.203125,-0.59375 -1.625,0 -1.625,1.90625 -1.625,2.40625002 0,0.5 0,2.35937498 1.625,2.35937498 1.609375,0 1.609375,-1.85937498 1.609375,-2.35937498 z m -0.625,-0.09375 c 0,0.515625 0,1.03125 -0.09375,1.46875 C 34.71775,1.2889479 34.249,1.4295729 33.96775,1.4295729 c -0.328125,0 -0.75,-0.1875 -0.890625,-0.74999998 -0.09375,-0.40625 -0.09375,-0.984375 -0.09375,-1.5 0,-0.51562502 0,-1.04687502 0.09375,-1.42187502 0.15625,-0.546875 0.59375,-0.703125 0.890625,-0.703125 0.375,0 0.734375,0.234375 0.859375,0.640625 0.109375,0.375 0.125,0.875 0.125,1.48437502 z m 0,0"
           style="fill:#000000;fill-opacity:1;fill-rule:nonzero;stroke:none" /></g><path
         id="path2357"
         d="m -593.99221,401.34451 h 127.56063"
         style="fill:none;stroke:#000000;stroke-width:0.531333;stroke-linecap:butt;stroke-linejoin:miter;stroke-miterlimit:10;stroke-dasharray:none;stroke-opacity:1" /><path
         id="path2358"
         d="m -494.77838,401.34451 0.008,-35.57903 m 0,-13.89097 -0.008,-35.57042"
         style="fill:none;stroke:#000000;stroke-width:0.531333;stroke-linecap:butt;stroke-linejoin:miter;stroke-miterlimit:10;stroke-dasharray:none;stroke-opacity:1" /><path
         id="path2359"
         d="m -494.7784,365.76938 -5.95283,-13.19556"
         style="fill:none;stroke:#000000;stroke-width:1.06267;stroke-linecap:butt;stroke-linejoin:miter;stroke-miterlimit:10;stroke-dasharray:none;stroke-opacity:1" /><path
         id="path2360"
         d="M -511.78663,381.50184 V 336.67813"
         style="fill:none;stroke:#000000;stroke-width:0.531333;stroke-linecap:butt;stroke-linejoin:miter;stroke-miterlimit:10;stroke-dasharray:none;stroke-opacity:1" /><path
         id="path2361"
         d="m -514.97465,339.17543 c 1.91286,-0.50479 2.81612,-1.62967 3.18805,-2.76299 0.37193,1.13332 1.27519,2.2582 3.18805,2.76299"
         style="fill:none;stroke:#000000;stroke-width:0.531333;stroke-linecap:round;stroke-linejoin:round;stroke-miterlimit:10;stroke-dasharray:none;stroke-opacity:1" /><g
         id="g2361"
         aria-label="v&#10;s&#10;(ωt)"
         transform="translate(-545.1271,361.31531)"><path
           id="path2362"
           d="m 4.6719479,-3.7025312 c 0,-0.546875 -0.265625,-0.703125 -0.4375,-0.703125 -0.25,0 -0.5,0.265625 -0.5,0.484375 0,0.125 0.046875,0.1875 0.15625,0.296875 0.21875,0.203125 0.34375,0.453125 0.34375,0.8125 0,0.421875 -0.609375,2.70312495 -1.765625,2.70312495 -0.515625,0 -0.75,-0.34375 -0.75,-0.875 0,-0.54687495 0.28125,-1.28124995 0.578125,-2.10937495 0.078125,-0.171875 0.125,-0.3125 0.125,-0.5 0,-0.4375 -0.3125,-0.8125 -0.8125,-0.8125 -0.93749998,0 -1.31249998,1.453125 -1.31249998,1.53125 0,0.109375 0.109375,0.109375 0.109375,0.109375 0.109375,0 0.109375,-0.03125 0.15625,-0.1875 0.296875,-1 0.71874998,-1.234375 1.01562498,-1.234375 0.078125,0 0.25,0 0.25,0.3125 0,0.25 -0.109375,0.53125 -0.171875,0.703125 -0.4375,1.15625 -0.5625,1.609375 -0.5625,2.046875 0,1.07812495 0.875,1.23437495 1.328125,1.23437495 1.671875,0 2.25,-3.29687495 2.25,-3.81249995 z m 0,0"
           style="fill:#000000;fill-opacity:1;fill-rule:nonzero;stroke:none" /><path
           id="path2363"
           d="m 7.9688229,0.41465625 c 0,-0.640625 -0.703125,-0.765625 -0.96875,-0.8125 -0.0625,-0.015625 -0.234375,-0.046875 -0.28125,-0.0625 -0.25,-0.046875 -0.375,-0.1875 -0.375,-0.34375 0,-0.15625 0.125,-0.34374995 0.28125,-0.45312495 0.1875,-0.109375 0.421875,-0.125 0.546875,-0.125 0.140625,0 0.5,0.015625 0.65625,0.25 -0.171875,0.046875 -0.296875,0.18749995 -0.296875,0.32812495 0,0.171875 0.140625,0.234375 0.234375,0.234375 0.078125,0 0.34375,-0.046875 0.34375,-0.40625 0,-0.45312495 -0.5,-0.60937495 -0.9375,-0.60937495 -1.078125,0 -1.28125,0.81249995 -1.28125,1.01562495 0,0.265625 0.15625,0.4375 0.25,0.515625 0.171875,0.140625 0.296875,0.171875 0.78125,0.25 0.15625,0.03125 0.59375,0.109375 0.59375,0.453125 0,0.125 -0.078125,0.39062505 -0.359375,0.56250005 -0.28125,0.15625 -0.625,0.15625 -0.703125,0.15625 -0.28125,0 -0.671875,-0.0625 -0.84375,-0.296875 0.234375,-0.03125 0.390625,-0.20312505 0.390625,-0.39062505 0,-0.171875 -0.125,-0.265625 -0.265625,-0.265625 -0.203125,0 -0.40625,0.171875 -0.40625,0.46875 0,0.42187505 0.4375,0.67187505 1.109375,0.67187505 1.296875,0 1.53125,-0.87500005 1.53125,-1.14062505 z m 0,0"
           style="fill:#000000;fill-opacity:1;fill-rule:nonzero;stroke:none" /><path
           id="path2364"
           d="m 12.382885,2.3912188 c 0,-0.03125 0,-0.046875 -0.171875,-0.21875 -1.234375,-1.25000005 -1.5625,-3.14062505 -1.5625,-4.671875 0,-1.734375 0.375,-3.46875 1.609375,-4.703125 0.125,-0.125 0.125,-0.140625 0.125,-0.171875 0,-0.078125 -0.03125,-0.109375 -0.09375,-0.109375 -0.109375,0 -1,0.6875 -1.59375,1.953125 -0.5,1.09375 -0.625,2.203125 -0.625,3.03125 0,0.78125 0.109375,1.98437495 0.65625,3.12499995 0.609375,1.21875005 1.453125,1.87500005 1.5625,1.87500005 0.0625,0 0.09375,-0.03125 0.09375,-0.109375 z m 0,0"
           style="fill:#000000;fill-opacity:1;fill-rule:nonzero;stroke:none" /><path
           id="path2365"
           d="m 18.757885,-2.3744062 c 0.109375,-0.4375 0.21875,-0.9375 0.21875,-1.328125 0,-0.265625 -0.04687,-0.484375 -0.1875,-0.609375 -0.0625,-0.0625 -0.140625,-0.09375 -0.234375,-0.09375 -0.125,0 -0.25,0.0625 -0.34375,0.15625 -0.09375,0.109375 -0.140625,0.21875 -0.140625,0.328125 0,0.09375 0.03125,0.171875 0.109375,0.25 0.25,0.21875 0.375,0.515625 0.375,0.875 0,0.109375 -0.01563,0.25 -0.04687,0.359375 -0.21875,0.90625 -0.796875,1.82812495 -1.59375,1.82812495 -0.546875,0 -0.875,-0.375 -0.96875,-0.89062495 0.125,-0.28125 0.21875,-0.578125 0.296875,-0.875 0.01563,-0.09375 0.03125,-0.1875 0.03125,-0.265625 0,-0.15625 -0.04687,-0.265625 -0.1875,-0.265625 -0.1875,0 -0.28125,0.25 -0.328125,0.46875 -0.07813,0.3125 -0.125,0.609375 -0.140625,0.90625 -0.328125,0.53124995 -0.796875,0.92187495 -1.34375,0.92187495 -0.609375,0 -0.875,-0.49999995 -0.875,-1.12499995 0,-0.203125 0.03125,-0.421875 0.07813,-0.640625 0.15625,-0.609375 0.515625,-1.15625 0.890625,-1.6875 0.03125,-0.046875 0.04687,-0.09375 0.04687,-0.140625 0,-0.046875 -0.03125,-0.109375 -0.09375,-0.140625 -0.03125,-0.015625 -0.04687,-0.015625 -0.07813,-0.015625 -0.0625,0 -0.140625,0.03125 -0.1875,0.09375 -0.40625,0.5625 -0.65625,1.203125 -0.8125,1.828125 -0.109375,0.390625 -0.15625,0.765625 -0.15625,1.125 0,0.79687495 0.296875,1.42187495 1.046875,1.42187495 0.625,0 1.15625,-0.4375 1.53125,-1.0625 0.109375,0.625 0.453125,1.0625 1.125,1.0625 1.03125,0 1.671875,-1.28124995 1.96875,-2.48437495 z m 3.890625,0.953125 c 0,-0.109375 -0.07813,-0.109375 -0.109375,-0.109375 -0.09375,0 -0.109375,0.03125 -0.15625,0.140625 -0.421875,1.04687495 -0.953125,1.28124995 -1.296875,1.28124995 -0.203125,0 -0.3125,-0.125 -0.3125,-0.453125 0,-0.25 0.03125,-0.3125 0.0625,-0.48437495 l 0.734375,-2.9375 h 0.9375 c 0.203125,0 0.3125,0 0.3125,-0.203125 0,-0.109375 -0.109375,-0.109375 -0.28125,-0.109375 h -0.875 c 0.359375,-1.421875 0.40625,-1.609375 0.40625,-1.671875 0,-0.171875 -0.125,-0.265625 -0.296875,-0.265625 -0.03125,0 -0.3125,0 -0.390625,0.359375 l -0.390625,1.578125 h -0.9375 c -0.203125,0 -0.296875,0 -0.296875,0.1875 0,0.125 0.07813,0.125 0.28125,0.125 h 0.875 c -0.71875,2.828125 -0.765625,2.99999995 -0.765625,3.17187495 0,0.546875 0.375,0.921875 0.921875,0.921875 1.015625,0 1.578125,-1.45312495 1.578125,-1.53124995 z m 0,0"
           style="fill:#000000;fill-opacity:1;fill-rule:nonzero;stroke:none" /><path
           id="path2366"
           d="m 25.996167,-2.4994062 c 0,-0.765625 -0.109375,-1.96875 -0.65625,-3.109375 -0.59375,-1.21875 -1.453125,-1.875 -1.546875,-1.875 -0.0625,0 -0.109375,0.046875 -0.109375,0.109375 0,0.03125 0,0.046875 0.1875,0.234375 0.984375,0.984375 1.546875,2.5625 1.546875,4.640625 0,1.71874995 -0.359375,3.46874995 -1.59375,4.71875 -0.140625,0.125 -0.140625,0.140625 -0.140625,0.171875 0,0.0625 0.04687,0.109375 0.109375,0.109375 0.09375,0 1,-0.6875 1.578125,-1.95312505 0.515625,-1.09375 0.625,-2.20312495 0.625,-3.04687495 z m 0,0"
           style="fill:#000000;fill-opacity:1;fill-rule:nonzero;stroke:none" /></g><path
         id="path2367"
         d="m -460.76228,401.34451 0.0107,-38.55578 m 0,-7.93742 -0.0107,-38.54722"
         style="fill:none;stroke:#000000;stroke-width:0.531333;stroke-linecap:butt;stroke-linejoin:miter;stroke-miterlimit:10;stroke-dasharray:none;stroke-opacity:1" /><path
         id="path2368"
         d="m -472.66798,362.79279 h 23.8114 m -23.8114,-7.93693 h 23.8114"
         style="fill:none;stroke:#000000;stroke-width:1.06267;stroke-linecap:butt;stroke-linejoin:miter;stroke-miterlimit:10;stroke-dasharray:none;stroke-opacity:1" /><g
         id="g2368"
         aria-label="C&#10;s"
         transform="translate(-445.5124,360.96464)"><path
           id="path2369"
           d="m 6.4518125,-2.3909271 c 0,-0.109375 -0.125,-0.109375 -0.125,-0.109375 -0.0625,0 -0.109375,0.03125 -0.125,0.109375 -0.09375,0.28125 -0.328125,1 -1.015625,1.57812502 -0.6875,0.546875 -1.3125,0.71875 -1.828125,0.71875 -0.890625,0 -1.953125,-0.515625 -1.953125,-2.06250002 0,-0.578125 0.203125,-2.1875 1.203125,-3.359375 0.609375,-0.703125 1.546875,-1.203125 2.4375,-1.203125 1.015625,0 1.609375,0.765625 1.609375,1.921875 0,0.40625 -0.03125,0.40625 -0.03125,0.515625 0,0.09375 0.109375,0.09375 0.140625,0.09375 0.125,0 0.125,-0.015625 0.1875,-0.203125 l 0.625,-2.53125 c 0,-0.03125 -0.015625,-0.109375 -0.109375,-0.109375 -0.03125,0 -0.046875,0.015625 -0.15625,0.125 l -0.6875,0.765625 c -0.09375,-0.140625 -0.546875,-0.890625 -1.65625,-0.890625 -2.234375,0 -4.46875,2.203125 -4.46875,4.515625 0,1.64062502 1.171875,2.73437502 2.703125,2.73437502 0.859375,0 1.625,-0.390625 2.15625,-0.859375 0.921875,-0.81250002 1.09375,-1.71875002 1.09375,-1.75000002 z m 0,0"
           style="fill:#000000;fill-opacity:1;fill-rule:nonzero;stroke:none" /><path
           id="path2370"
           d="m 10.260406,0.41766667 c 0,-0.640625 -0.7031247,-0.765625 -0.9687497,-0.8125 -0.0625,-0.015625 -0.234375,-0.046875 -0.28125,-0.0625 -0.25,-0.046875 -0.375,-0.1875 -0.375,-0.34375 0,-0.15625 0.125,-0.34374997 0.28125,-0.45312497 0.1875,-0.109375 0.421875,-0.125 0.546875,-0.125 0.140625,0 0.5,0.015625 0.6562497,0.25 -0.1718747,0.046875 -0.2968747,0.18749997 -0.2968747,0.32812497 0,0.171875 0.140625,0.234375 0.2343747,0.234375 0.07813,0 0.34375,-0.046875 0.34375,-0.40625 0,-0.45312497 -0.4999997,-0.60937497 -0.9374997,-0.60937497 -1.078125,0 -1.28125,0.81249997 -1.28125,1.01562497 0,0.265625 0.15625,0.4375 0.25,0.515625 0.171875,0.140625 0.296875,0.171875 0.78125,0.25 0.15625,0.03125 0.59375,0.109375 0.59375,0.453125 0,0.125 -0.078125,0.39062503 -0.359375,0.56250003 -0.28125,0.15625 -0.625,0.15625 -0.703125,0.15625 -0.28125,0 -0.671875,-0.0625 -0.84375,-0.296875 0.234375,-0.03125 0.390625,-0.20312503 0.390625,-0.39062503 0,-0.171875 -0.125,-0.265625 -0.265625,-0.265625 -0.203125,0 -0.40625,0.171875 -0.40625,0.46875 0,0.42187503 0.4375,0.67187503 1.109375,0.67187503 1.2968747,0 1.5312497,-0.87500003 1.5312497,-1.14062503 z m 0,0"
           style="fill:#000000;fill-opacity:1;fill-rule:nonzero;stroke:none" /></g><path
         id="path2371"
         d="m -460.76228,316.30409 13.61801,-0.007 m 23.81284,0 13.5935,0.007 0.2974,-0.007 m 7.93742,0 0.26929,0.007 15.03892,-0.007 m 23.81287,0 15.007,0.007"
         style="fill:none;stroke:#000000;stroke-width:0.531333;stroke-linecap:butt;stroke-linejoin:miter;stroke-miterlimit:10;stroke-dasharray:none;stroke-opacity:1" /><path
         id="path2372"
         d="m -447.68719,316.51661 c 0,-3.2877 1.64665,-5.95286 3.67792,-5.95286 2.03127,0 3.67789,2.66516 3.67789,5.95286 0,1.64376 -0.66622,2.97626 -1.48812,2.97626 -0.82188,0 -1.48813,-1.3325 -1.48813,-2.97626 0,-3.2877 1.64663,-5.95286 3.67789,-5.95286 2.03128,0 3.67792,2.66516 3.67792,5.95286 0,1.64376 -0.66625,2.97626 -1.48813,2.97626 -0.82188,0 -1.48815,-1.3325 -1.48815,-2.97626 0,-3.2877 1.64666,-5.95286 3.67792,-5.95286 2.03127,0 3.67791,2.66516 3.67791,5.95286 0,1.64376 -0.66626,2.97626 -1.48814,2.97626 -0.82186,0 -1.48813,-1.3325 -1.48813,-2.97626 0,-3.2877 1.64665,-5.95286 3.67789,-5.95286 2.03128,0 3.67792,2.66516 3.67792,5.95286 0,1.64376 -0.66625,2.97626 -1.48813,2.97626 -0.82188,0 -1.48812,-1.3325 -1.48812,-2.97626 0,-3.2877 1.64663,-5.95286 3.67789,-5.95286 2.03127,0 3.6779,2.66516 3.6779,5.95286"
         style="fill:none;stroke:#000000;stroke-width:1.06267;stroke-linecap:butt;stroke-linejoin:bevel;stroke-miterlimit:10;stroke-dasharray:none;stroke-opacity:1" /><g
         id="g2372"
         aria-label="L&#10;1"
         transform="translate(-440.8591,305.45664)"><path
           id="path2373"
           d="m 6.4078542,-2.4688646 c 0,-0.03125 -0.03125,-0.109375 -0.109375,-0.109375 -0.09375,0 -0.109375,0.0625 -0.171875,0.21875 -0.34375,0.90625 -0.78125,2.04687502 -2.5,2.04687502 h -0.9375 c -0.140625,0 -0.171875,0 -0.21875,0 -0.109375,-0.015625 -0.140625,-0.03125 -0.140625,-0.109375 0,-0.03125 0,-0.046875 0.046875,-0.21875 l 1.359375,-5.39062502 c 0.078125,-0.359375 0.109375,-0.46875 1.046875,-0.46875 0.296875,0 0.375,0 0.375,-0.1875 0,-0.125 -0.109375,-0.125 -0.15625,-0.125 l -1.46875,0.03125 -1.328125,-0.03125 c -0.0625,0 -0.1875,0 -0.1875,0.203125 0,0.109375 0.09375,0.109375 0.28125,0.109375 0,0 0.203125,0 0.375,0.015625 0.171875,0.03125 0.265625,0.03125 0.265625,0.171875 0,0.03125 0,0.0625 -0.03125,0.1875 l -1.34375,5.34375002 c -0.09375,0.390625 -0.109375,0.46875 -0.90625003,0.46875 -0.171875,0 -0.265625,0 -0.265625,0.203125 0,0.10937499667 0.09375,0.10937499667 0.265625,0.10937499667 H 5.2828542 c 0.234375,0 0.234375,0 0.296875,-0.17187499667 l 0.796875,-2.15625002 c 0.03125,-0.109375 0.03125,-0.140625 0.03125,-0.140625 z m 0,0"
           style="fill:#000000;fill-opacity:1;fill-rule:nonzero;stroke:none" /><path
           id="path2374"
           d="m 10.075823,1.4920729 v -0.25 H 9.8101979 c -0.703125,0 -0.703125,-0.09375 -0.703125,-0.32812498 V -2.9454271 c 0,-0.1875 0,-0.1875 -0.203125,-0.1875 -0.453125,0.4375 -1.078125,0.4375 -1.359375,0.4375 v 0.25 c 0.15625,0 0.625,0 1,-0.1875 v 3.54687502 c 0,0.23437498 0,0.32812498 -0.6875,0.32812498 h -0.265625 v 0.25 l 1.234375,-0.03125 z m 0,0"
           style="fill:#000000;fill-opacity:1;fill-rule:nonzero;stroke:none" /></g><path
         id="path2375"
         d="m -409.45434,304.39838 v 23.8114 m 7.93693,-23.8114 v 23.8114"
         style="fill:none;stroke:#000000;stroke-width:1.06267;stroke-linecap:butt;stroke-linejoin:miter;stroke-miterlimit:10;stroke-dasharray:none;stroke-opacity:1" /><path
         id="path2378"
         d="m -386.74149,316.51661 c 0,-3.2877 1.64663,-5.95286 3.6779,-5.95286 2.03126,0 3.67789,2.66516 3.67789,5.95286 0,1.64376 -0.66624,2.97626 -1.48812,2.97626 -0.82188,0 -1.48813,-1.3325 -1.48813,-2.97626 0,-3.2877 1.64664,-5.95286 3.67792,-5.95286 2.03124,0 3.67789,2.66516 3.67789,5.95286 0,1.64376 -0.66627,2.97626 -1.48813,2.97626 -0.82188,0 -1.48814,-1.3325 -1.48814,-2.97626 0,-3.2877 1.64664,-5.95286 3.67791,-5.95286 2.03127,0 3.67792,2.66516 3.67792,5.95286 0,1.64376 -0.66627,2.97626 -1.48815,2.97626 -0.82188,0 -1.48813,-1.3325 -1.48813,-2.97626 0,-3.2877 1.64664,-5.95286 3.67792,-5.95286 2.03127,0 3.67789,2.66516 3.67789,5.95286 0,1.64376 -0.66625,2.97626 -1.48813,2.97626 -0.82189,0 -1.48812,-1.3325 -1.48812,-2.97626 0,-3.2877 1.64663,-5.95286 3.67789,-5.95286 2.03127,0 3.67792,2.66516 3.67792,5.95286"
         style="fill:none;stroke:#000000;stroke-width:1.06267;stroke-linecap:butt;stroke-linejoin:bevel;stroke-miterlimit:10;stroke-dasharray:none;stroke-opacity:1" /><path
         id="path2379"
         d="m -386.295,305.45653 v -0.3125 h -0.3125 c -0.9062,0 -0.9218,-0.10938 -0.9218,-0.46875 v -5.59375 c 0,-0.25 0,-0.26563 -0.2344,-0.26563 -0.625,0.64063 -1.5,0.64063 -1.8125,0.64063 v 0.3125 c 0.2031,0 0.7812,0 1.2969,-0.26563 v 5.17188 c 0,0.35937 -0.031,0.46875 -0.9219,0.46875 h -0.3125 v 0.3125 c 0.3437,-0.0312 1.2031,-0.0312 1.6094,-0.0312 0.3906,0 1.2656,0 1.6093,0.0312 z m 0,0"
         style="fill:#000000;fill-opacity:1;fill-rule:nonzero;stroke:none" /><path
         id="path2380"
         d="m -381.0645,298.17528 c 0,-0.10938 -0.078,-0.20313 -0.1875,-0.20313 -0.078,0 -0.1406,0.0312 -0.1719,0.0937 l -3.4687,9.5 c -0.047,0.14063 -0.047,0.1875 -0.047,0.1875 0,0.10938 0.094,0.20313 0.2031,0.20313 0.125,0 0.1563,-0.0781 0.2188,-0.25 l 3.4062,-9.34375 c 0.047,-0.14063 0.047,-0.1875 0.047,-0.1875 z m 6.3555,4.90625 c 0.1093,-0.4375 0.2187,-0.9375 0.2187,-1.32813 0,-0.26562 -0.047,-0.48437 -0.1875,-0.60937 -0.062,-0.0625 -0.1406,-0.0937 -0.2344,-0.0937 -0.125,0 -0.25,0.0625 -0.3437,0.15625 -0.094,0.10937 -0.1406,0.21875 -0.1406,0.32812 0,0.0937 0.031,0.17188 0.1093,0.25 0.25,0.21875 0.375,0.51563 0.375,0.875 0,0.10938 -0.016,0.25 -0.047,0.35938 -0.2188,0.90625 -0.7969,1.82812 -1.5938,1.82812 -0.5468,0 -0.875,-0.375 -0.9687,-0.89062 0.125,-0.28125 0.2187,-0.57813 0.2969,-0.875 0.016,-0.0937 0.031,-0.1875 0.031,-0.26563 0,-0.15625 -0.047,-0.26562 -0.1875,-0.26562 -0.1875,0 -0.2812,0.25 -0.3281,0.46875 -0.078,0.3125 -0.125,0.60937 -0.1406,0.90625 -0.3282,0.53125 -0.7969,0.92187 -1.3438,0.92187 -0.6094,0 -0.875,-0.5 -0.875,-1.125 0,-0.20312 0.031,-0.42187 0.078,-0.64062 0.1563,-0.60938 0.5157,-1.15625 0.8907,-1.6875 0.031,-0.0469 0.047,-0.0937 0.047,-0.14063 0,-0.0469 -0.031,-0.10937 -0.094,-0.14062 -0.031,-0.0156 -0.047,-0.0156 -0.078,-0.0156 -0.062,0 -0.1406,0.0312 -0.1875,0.0937 -0.4062,0.5625 -0.6562,1.20313 -0.8125,1.82813 -0.1093,0.39062 -0.1562,0.76562 -0.1562,1.125 0,0.79687 0.2969,1.42187 1.0469,1.42187 0.625,0 1.1562,-0.4375 1.5312,-1.0625 0.1094,0.625 0.4531,1.0625 1.125,1.0625 1.0313,0 1.6719,-1.28125 1.9688,-2.48437 z m 0,0"
         style="fill:#000000;fill-opacity:1;fill-rule:nonzero;stroke:none" /><g
         id="g10"
         transform="matrix(0.43377447,0,0,0.43377447,-234.16334,164.14835)"
         style="stroke-width:2.30535"><text
           xml:space="preserve"
           style="font-size:22.4229px;line-height:1;font-family:'CMU Serif';-inkscape-font-specification:'CMU Serif, Normal';font-variant-ligatures:none;text-align:center;writing-mode:lr-tb;direction:ltr;text-anchor:middle;fill:#000000;fill-opacity:1;stroke:none;stroke-width:2.30896;stroke-miterlimit:3"
           x="-443.57745"
           y="271.04575"
           id="text8"><tspan
             id="tspan8"
             x="-439.84943"
             y="271.04575"
             style="stroke-width:2.30896">Tuned to </tspan></text><text
           xml:space="preserve"
           style="font-style:italic;font-variant:normal;font-weight:500;font-stretch:normal;font-size:22.2486px;line-height:1;font-family:'CMU Serif';-inkscape-font-specification:'CMU Serif, Medium Italic';font-variant-ligatures:none;font-variant-caps:normal;font-variant-numeric:normal;font-variant-east-asian:normal;text-align:center;writing-mode:lr-tb;direction:ltr;text-anchor:middle;fill:#000000;fill-opacity:1;stroke:none;stroke-width:2.30896;stroke-miterlimit:3"
           x="-387.92645"
           y="271.29758"
           id="text9"><tspan
             id="tspan9"
             style="font-style:italic;font-variant:normal;font-weight:500;font-stretch:normal;font-size:22.2486px;font-family:'CMU Serif';-inkscape-font-specification:'CMU Serif, Medium Italic';font-variant-ligatures:none;font-variant-caps:normal;font-variant-numeric:normal;font-variant-east-asian:normal;stroke-width:2.30898"
             x="-387.92645"
             y="271.29758">F</tspan></text></g><path
         id="path2381"
         d="m -370.4317,300.57371 h -0.2344 c -0.016,0.15625 -0.094,0.5625 -0.1875,0.625 -0.047,0.0469 -0.5781,0.0469 -0.6875,0.0469 h -1.2812 c 0.7344,-0.64063 0.9844,-0.84375 1.3906,-1.17188 0.5156,-0.40625 1,-0.84375 1,-1.5 0,-0.84375 -0.7344,-1.35937 -1.625,-1.35937 -0.8594,0 -1.4531,0.60937 -1.4531,1.25 0,0.34375 0.2969,0.39062 0.375,0.39062 0.1562,0 0.3594,-0.125 0.3594,-0.375 0,-0.125 -0.047,-0.375 -0.4063,-0.375 0.2188,-0.48437 0.6875,-0.64062 1.0156,-0.64062 0.7032,0 1.0625,0.54687 1.0625,1.10937 0,0.60938 -0.4375,1.07813 -0.6562,1.32813 l -1.6719,1.67187 c -0.078,0.0625 -0.078,0.0781 -0.078,0.26563 h 2.875 z m 0,0"
         style="fill:#000000;fill-opacity:1;fill-rule:nonzero;stroke:none" /><path
         id="path2382"
         d="m -363.0254,303.0659 c 0,-0.10937 -0.125,-0.10937 -0.125,-0.10937 -0.062,0 -0.1094,0.0312 -0.125,0.10937 -0.094,0.28125 -0.3282,1 -1.0157,1.57813 -0.6875,0.54687 -1.3125,0.71875 -1.8281,0.71875 -0.8906,0 -1.9531,-0.51563 -1.9531,-2.0625 0,-0.57813 0.2031,-2.1875 1.2031,-3.35938 0.6094,-0.70312 1.5469,-1.20312 2.4375,-1.20312 1.0156,0 1.6094,0.76562 1.6094,1.92187 0,0.40625 -0.031,0.40625 -0.031,0.51563 0,0.0937 0.1094,0.0937 0.1407,0.0937 0.125,0 0.125,-0.0156 0.1875,-0.20313 l 0.625,-2.53125 c 0,-0.0312 -0.016,-0.10937 -0.1094,-0.10937 -0.031,0 -0.047,0.0156 -0.1563,0.125 l -0.6875,0.76562 c -0.094,-0.14062 -0.5468,-0.89062 -1.6562,-0.89062 -2.2344,0 -4.4688,2.20312 -4.4688,4.51562 0,1.64063 1.1719,2.73438 2.7032,2.73438 0.8593,0 1.625,-0.39063 2.1562,-0.85938 0.9219,-0.8125 1.0938,-1.71875 1.0938,-1.75 z m 0,0"
         style="fill:#000000;fill-opacity:1;fill-rule:nonzero;stroke:none" /><path
         id="path2383"
         d="m -359.2168,305.87059 c 0,-0.64063 -0.7032,-0.76563 -0.9688,-0.8125 -0.062,-0.0156 -0.2344,-0.0469 -0.2812,-0.0625 -0.25,-0.0469 -0.375,-0.1875 -0.375,-0.34375 0,-0.15625 0.125,-0.34375 0.2812,-0.45313 0.1875,-0.10937 0.4219,-0.125 0.5469,-0.125 0.1406,0 0.5,0.0156 0.6562,0.25 -0.1718,0.0469 -0.2968,0.1875 -0.2968,0.32813 0,0.17187 0.1406,0.23437 0.2343,0.23437 0.078,0 0.3438,-0.0469 0.3438,-0.40625 0,-0.45312 -0.5,-0.60937 -0.9375,-0.60937 -1.0781,0 -1.2813,0.8125 -1.2813,1.01562 0,0.26563 0.1563,0.4375 0.25,0.51563 0.1719,0.14062 0.2969,0.17187 0.7813,0.25 0.1562,0.0312 0.5937,0.10937 0.5937,0.45312 0,0.125 -0.078,0.39063 -0.3593,0.5625 -0.2813,0.15625 -0.625,0.15625 -0.7032,0.15625 -0.2812,0 -0.6718,-0.0625 -0.8437,-0.29687 0.2344,-0.0312 0.3906,-0.20313 0.3906,-0.39063 0,-0.17187 -0.125,-0.26562 -0.2656,-0.26562 -0.2031,0 -0.4063,0.17187 -0.4063,0.46875 0,0.42187 0.4375,0.67187 1.1094,0.67187 1.2969,0 1.5313,-0.875 1.5313,-1.14062 z m 0,0"
         style="fill:#000000;fill-opacity:1;fill-rule:nonzero;stroke:none" /><path
         id="path2384"
         d="m -494.77838,316.30409 h 45.35507"
         style="fill:none;stroke:#000000;stroke-width:0.531333;stroke-linecap:butt;stroke-linejoin:miter;stroke-miterlimit:10;stroke-dasharray:none;stroke-opacity:1" /><path
         id="path2385"
         d="m -494.77838,330.47749 v 2.30353"
         style="fill:none;stroke:#000000;stroke-width:0.531333;stroke-linecap:butt;stroke-linejoin:miter;stroke-miterlimit:10;stroke-dasharray:none;stroke-opacity:1" /><path
         id="path2386"
         d="m -491.59035,330.28371 c -1.91286,0.50479 -2.81612,1.62967 -3.18805,2.76299 -0.37193,-1.13332 -1.27519,-2.2582 -3.18805,-2.76299"
         style="fill:none;stroke:#000000;stroke-width:0.531333;stroke-linecap:round;stroke-linejoin:round;stroke-miterlimit:10;stroke-dasharray:none;stroke-opacity:1" /><g
         id="g2386"
         aria-label="i&#10;s&#10;(ωt)"
         transform="translate(-490.5711,341.47264)"><path
           id="path2387"
           d="m 2.8268854,-6.2348646 c 0,-0.203125 -0.140625,-0.359375 -0.359375,-0.359375 -0.28125,0 -0.546875,0.265625 -0.546875,0.53125 0,0.1875 0.140625,0.359375 0.375,0.359375 0.234375,0 0.53125,-0.234375 0.53125,-0.53125 z m 0.09375,4.8125 c 0,-0.109375 -0.09375,-0.109375 -0.125,-0.109375 -0.09375,0 -0.09375,0.03125 -0.140625,0.1875 -0.1875,0.62500002 -0.515625,1.23437502 -1.015625,1.23437502 -0.171875,0 -0.25,-0.09375 -0.25,-0.328125 0,-0.25 0.0625,-0.390625 0.296875,-1.00000002 l 0.390625,-1.046875 c 0.109375,-0.28125 0.109375,-0.3125 0.21875,-0.578125 0.078125,-0.203125 0.125,-0.34375 0.125,-0.53125 0,-0.4375 -0.3125,-0.8125 -0.8125,-0.8125 -0.93749998,0 -1.31249998,1.453125 -1.31249998,1.53125 0,0.109375 0.109375,0.109375 0.109375,0.109375 0.109375,0 0.109375,-0.03125 0.15625,-0.1875 0.28125,-0.9375 0.67187498,-1.234375 1.01562498,-1.234375 0.078125,0 0.25,0 0.25,0.3125 0,0.21875 -0.078125,0.421875 -0.109375,0.53125 -0.078125,0.25 -0.53125,1.40625 -0.6875,1.84375 -0.10937498,0.25 -0.23437498,0.57812502 -0.23437498,0.79687502 0,0.46875 0.34374998,0.8125 0.81249998,0.8125 0.9375,0 1.3125,-1.43750002 1.3125,-1.53125002 z m 0,0"
           style="fill:#000000;fill-opacity:1;fill-rule:nonzero;stroke:none" /><path
           id="path2388"
           d="m 6.5729792,0.41747917 c 0,-0.640625 -0.703125,-0.765625 -0.96875,-0.8125 -0.0625,-0.015625 -0.234375,-0.046875 -0.28125,-0.0625 -0.25,-0.046875 -0.375,-0.1875 -0.375,-0.34375 0,-0.15625 0.125,-0.34374997 0.28125,-0.45312497 0.1875,-0.109375 0.421875,-0.125 0.546875,-0.125 0.140625,0 0.5,0.015625 0.65625,0.25 -0.171875,0.046875 -0.296875,0.18749997 -0.296875,0.32812497 0,0.171875 0.140625,0.234375 0.234375,0.234375 0.078125,0 0.34375,-0.046875 0.34375,-0.40625 0,-0.45312497 -0.5,-0.60937497 -0.9375,-0.60937497 -1.078125,0 -1.28125,0.81249997 -1.28125,1.01562497 0,0.265625 0.15625,0.4375 0.25,0.515625 0.171875,0.140625 0.296875,0.171875 0.78125,0.25 0.15625,0.03125 0.59375,0.109375 0.59375,0.453125 0,0.125 -0.078125,0.39062503 -0.359375,0.56250003 -0.28125,0.15625 -0.625,0.15625 -0.703125,0.15625 -0.28125,0 -0.671875,-0.0625 -0.84375,-0.296875 0.234375,-0.03125 0.390625,-0.20312503 0.390625,-0.39062503 0,-0.171875 -0.125,-0.265625 -0.265625,-0.265625 -0.203125,0 -0.40625,0.171875 -0.40625,0.46875 0,0.42187503 0.4375,0.67187503 1.109375,0.67187503 1.296875,0 1.53125,-0.87500003 1.53125,-1.14062503 z m 0,0"
           style="fill:#000000;fill-opacity:1;fill-rule:nonzero;stroke:none" /><path
           id="path2389"
           d="m 10.987042,2.3901354 c 0,-0.03125 0,-0.046875 -0.171875,-0.21875 -1.2343753,-1.24999998 -1.5625003,-3.14062498 -1.5625003,-4.671875 0,-1.734375 0.375,-3.46875 1.6093753,-4.703125 0.125,-0.125 0.125,-0.140625 0.125,-0.171875 0,-0.078125 -0.03125,-0.109375 -0.09375,-0.109375 -0.109375,0 -1.0000003,0.6875 -1.5937503,1.953125 -0.5,1.09375 -0.625,2.203125 -0.625,3.03125 0,0.78125 0.109375,1.98437502 0.65625,3.12500002 0.609375,1.21874998 1.4531253,1.87499998 1.5625003,1.87499998 0.0625,0 0.09375,-0.03125 0.09375,-0.109375 z m 0,0"
           style="fill:#000000;fill-opacity:1;fill-rule:nonzero;stroke:none" /><path
           id="path2390"
           d="m 17.362042,-2.3754896 c 0.109375,-0.4375 0.21875,-0.9375 0.21875,-1.328125 0,-0.265625 -0.04687,-0.484375 -0.1875,-0.609375 -0.0625,-0.0625 -0.140625,-0.09375 -0.234375,-0.09375 -0.125,0 -0.25,0.0625 -0.34375,0.15625 -0.09375,0.109375 -0.140625,0.21875 -0.140625,0.328125 0,0.09375 0.03125,0.171875 0.109375,0.25 0.25,0.21875 0.375,0.515625 0.375,0.875 0,0.109375 -0.01563,0.25 -0.04687,0.359375 -0.21875,0.90625 -0.796875,1.82812502 -1.59375,1.82812502 -0.546875,0 -0.875,-0.375 -0.96875,-0.89062502 0.125,-0.28125 0.21875,-0.578125 0.296875,-0.875 0.01563,-0.09375 0.03125,-0.1875 0.03125,-0.265625 0,-0.15625 -0.04687,-0.265625 -0.1875,-0.265625 -0.1875,0 -0.28125,0.25 -0.328125,0.46875 -0.07813,0.3125 -0.125,0.609375 -0.140625,0.90625 -0.328125,0.53125 -0.796875,0.92187502 -1.34375,0.92187502 -0.609375,0 -0.875,-0.50000002 -0.875,-1.12500002 0,-0.203125 0.03125,-0.421875 0.07813,-0.640625 0.15625,-0.609375 0.515625,-1.15625 0.890625,-1.6875 0.03125,-0.046875 0.04687,-0.09375 0.04687,-0.140625 0,-0.046875 -0.03125,-0.109375 -0.09375,-0.140625 -0.03125,-0.015625 -0.04687,-0.015625 -0.07813,-0.015625 -0.0625,0 -0.140625,0.03125 -0.1875,0.09375 -0.40625,0.5625 -0.65625,1.203125 -0.8125,1.828125 -0.109375,0.390625 -0.15625,0.765625 -0.15625,1.125 0,0.79687502 0.296875,1.42187502 1.046875,1.42187502 0.625,0 1.15625,-0.4375 1.53125,-1.0625 0.109375,0.625 0.453125,1.0625 1.125,1.0625 1.03125,0 1.671875,-1.28125002 1.96875,-2.48437502 z m 3.890625,0.953125 c 0,-0.109375 -0.07813,-0.109375 -0.109375,-0.109375 -0.09375,0 -0.109375,0.03125 -0.15625,0.140625 -0.421875,1.04687502 -0.953125,1.28125002 -1.296875,1.28125002 -0.203125,0 -0.3125,-0.125 -0.3125,-0.453125 0,-0.25 0.03125,-0.3125 0.0625,-0.48437502 l 0.734375,-2.9375 h 0.9375 c 0.203125,0 0.3125,0 0.3125,-0.203125 0,-0.109375 -0.109375,-0.109375 -0.28125,-0.109375 h -0.875 c 0.359375,-1.421875 0.40625,-1.609375 0.40625,-1.671875 0,-0.171875 -0.125,-0.265625 -0.296875,-0.265625 -0.03125,0 -0.3125,0 -0.390625,0.359375 l -0.390625,1.578125 h -0.9375 c -0.203125,0 -0.296875,0 -0.296875,0.1875 0,0.125 0.07813,0.125 0.28125,0.125 h 0.875 c -0.71875,2.828125 -0.765625,3.00000002 -0.765625,3.17187502 0,0.546875 0.375,0.921875 0.921875,0.921875 1.015625,0 1.578125,-1.45312502 1.578125,-1.53125002 z m 0,0"
           style="fill:#000000;fill-opacity:1;fill-rule:nonzero;stroke:none" /><path
           id="path2391"
           d="m 24.596417,-2.5004896 c 0,-0.765625 -0.109375,-1.96875 -0.65625,-3.109375 -0.59375,-1.21875 -1.453125,-1.875 -1.546875,-1.875 -0.0625,0 -0.109375,0.046875 -0.109375,0.109375 0,0.03125 0,0.046875 0.1875,0.234375 0.984375,0.984375 1.546875,2.5625 1.546875,4.640625 0,1.71875002 -0.359375,3.46875002 -1.59375,4.71875 -0.140625,0.125 -0.140625,0.140625 -0.140625,0.171875 0,0.0625 0.04687,0.109375 0.109375,0.109375 0.09375,0 1,-0.6875 1.578125,-1.95312498 0.515625,-1.09375 0.625,-2.20312502 0.625,-3.04687502 z m 0,0"
           style="fill:#000000;fill-opacity:1;fill-rule:nonzero;stroke:none" /></g><path
         id="path2392"
         d="M -613.83489,381.50184 V 336.67813"
         style="fill:none;stroke:#000000;stroke-width:0.531333;stroke-linecap:butt;stroke-linejoin:miter;stroke-miterlimit:10;stroke-dasharray:none;stroke-opacity:1" /><path
         id="path2393"
         d="m -617.02295,339.17543 c 1.91286,-0.50479 2.81612,-1.62967 3.18805,-2.76299 0.37193,1.13332 1.27519,2.2582 3.18805,2.76299"
         style="fill:none;stroke:#000000;stroke-width:0.531333;stroke-linecap:round;stroke-linejoin:round;stroke-miterlimit:10;stroke-dasharray:none;stroke-opacity:1" /><g
         id="g2393"
         aria-label="V&#10;DC"
         transform="translate(-637.6297,361.48198)"><path
           id="path2394"
           d="m 7.6707083,-6.6856042 c 0,-0.078125 -0.0625,-0.125 -0.140625,-0.125 -0.25,0 -0.546875,0.03125 -0.8125,0.03125 -0.328125,0 -0.671875,-0.03125 -0.984375,-0.03125 -0.0625,0 -0.1875,0 -0.1875,0.1875 0,0.109375 0.078125,0.125 0.15625,0.125 0.265625,0.015625 0.453125,0.125 0.453125,0.328125 0,0.15625 -0.140625,0.375 -0.140625,0.375 l -3.0625,4.87500003 -0.6875,-5.28125003 c 0,-0.171875 0.234375,-0.296875 0.6875,-0.296875 0.140625,0 0.25,0 0.25,-0.203125 0,-0.078125 -0.078125,-0.109375 -0.125,-0.109375 -0.40625,0 -0.828125,0.03125 -1.25,0.03125 -0.171875,0 -0.359375,0 -0.546875,0 -0.171875,0 -0.35937497,-0.03125 -0.53124997,-0.03125 -0.078125,0 -0.1875,0 -0.1875,0.1875 0,0.125 0.078125,0.125 0.25,0.125 0.54687497,0 0.56249997,0.09375 0.59374997,0.34375 l 0.78125,6.14062503 c 0.03125,0.203125 0.078125,0.234375 0.203125,0.234375 0.15625,0 0.203125,-0.046875 0.28125,-0.171875 l 3.59375,-5.71875003 c 0.484375,-0.78125 0.90625,-0.8125 1.265625,-0.828125 0.125,-0.015625 0.140625,-0.1875 0.140625,-0.1875 z m 0,0"
           style="fill:#000000;fill-opacity:1;fill-rule:nonzero;stroke:none" /><path
           id="path2395"
           d="m 12.030083,-1.4434167 c 0,-1.015625 -0.703125,-1.828125 -1.828125,-1.828125 H 7.6550833 c -0.140625,0 -0.21875,0 -0.21875,0.15625 0,0.09375 0.078125,0.09375 0.234375,0.09375 0.109375,0 0.140625,0 0.265625,0.015625 0.140625,0.015625 0.140625,0.03125 0.140625,0.109375 0,0 0,0.046875 -0.015625,0.140625 l -0.9375,3.70312503 c -0.046875,0.23437497 -0.0625,0.29687497 -0.609375,0.29687497 -0.125,0 -0.203125,0 -0.203125,0.15625 0,0.09375 0.078125,0.09375 0.203125,0.09375 h 2.484375 c 1.5468747,0 3.0312497,-1.42187497 3.0312497,-2.9375 z m -0.65625,-0.234375 c 0,0.15625 -0.07813,1.35937503 -0.765625,2.15625003 -0.28125,0.3125 -0.8749997,0.76562497 -1.7343747,0.76562497 h -0.9375 c -0.21875,0 -0.234375,-0.015625 -0.234375,-0.078125 0,0 0,-0.03125 0.03125,-0.140625 l 0.953125,-3.796875 c 0.0625,-0.21875 0.0625,-0.25 0.359375,-0.25 h 0.890625 c 0.7812497,0 1.4374997,0.390625 1.4374997,1.34375 z m 6.605469,0.109375 0.4375,-1.75 c 0,-0.03125 -0.01563,-0.09375 -0.09375,-0.09375 -0.04687,0 -0.0625,0.015625 -0.125,0.09375 l -0.5,0.53125 c -0.0625,-0.078125 -0.453125,-0.625 -1.3125,-0.625 -1.703125,0 -3.359375,1.5 -3.359375,3.07812503 0,1.140625 0.890625,1.96874997 2.140625,1.96874997 0.375,0 1.046875,-0.078125 1.765625,-0.68749997 0.546875,-0.46875 0.703125,-1.0625 0.703125,-1.125 0,-0.09375 -0.07813,-0.09375 -0.125,-0.09375 -0.07813,0 -0.09375,0.03125 -0.125,0.109375 -0.28125,0.953125 -1.25,1.54687497 -2.09375,1.54687497 -0.75,0 -1.5625,-0.40624997 -1.5625,-1.49999997 0,-0.203125 0.04687,-1.29687503 0.84375,-2.18750003 0.484375,-0.53125 1.21875,-0.84375 1.875,-0.84375 0.8125,0 1.28125,0.578125 1.28125,1.359375 0,0.1875 -0.01563,0.25 -0.01563,0.28125 0,0.09375 0.09375,0.09375 0.125,0.09375 0.109375,0 0.109375,-0.015625 0.140625,-0.15625 z m 0,0"
           style="fill:#000000;fill-opacity:1;fill-rule:nonzero;stroke:none" /></g><path
         id="path2396"
         d="m -307.68926,401.34451 0.02,-34.58707 m 0,-15.87486 -0.02,-34.57849"
         style="fill:none;stroke:#000000;stroke-width:0.531333;stroke-linecap:butt;stroke-linejoin:miter;stroke-miterlimit:10;stroke-dasharray:none;stroke-opacity:1" /><path
         id="path2397"
         d="m -307.68929,350.88738 -9.92134,15.87389 h 19.84269 z"
         style="fill:none;stroke:#000000;stroke-width:1.06267;stroke-linecap:butt;stroke-linejoin:miter;stroke-miterlimit:10;stroke-dasharray:none;stroke-opacity:1" /><path
         id="path2398"
         d="m -297.76794,350.88738 h -19.84269"
         style="fill:none;stroke:#000000;stroke-width:1.06267;stroke-linecap:butt;stroke-linejoin:miter;stroke-miterlimit:10;stroke-dasharray:none;stroke-opacity:1" /><path
         id="path2399"
         d="M -290.68144,381.50184 V 336.67813"
         style="fill:none;stroke:#000000;stroke-width:0.531333;stroke-linecap:butt;stroke-linejoin:miter;stroke-miterlimit:10;stroke-dasharray:none;stroke-opacity:1" /><path
         id="path2400"
         d="m -293.86945,339.17543 c 1.91286,-0.50479 2.81612,-1.62967 3.18805,-2.76299 0.37193,1.13332 1.27519,2.2582 3.18805,2.76299"
         style="fill:none;stroke:#000000;stroke-width:0.531333;stroke-linecap:round;stroke-linejoin:round;stroke-miterlimit:10;stroke-dasharray:none;stroke-opacity:1" /><g
         id="g2400"
         aria-label="v&#10;d&#10;(ωt)"
         transform="translate(-284.5337,361.31531)"><path
           id="path2401"
           d="m 4.6723646,-3.7025312 c 0,-0.546875 -0.265625,-0.703125 -0.4375,-0.703125 -0.25,0 -0.5,0.265625 -0.5,0.484375 0,0.125 0.046875,0.1875 0.15625,0.296875 0.21875,0.203125 0.34375,0.453125 0.34375,0.8125 0,0.421875 -0.609375,2.70312495 -1.765625,2.70312495 -0.515625,0 -0.75,-0.34375 -0.75,-0.875 0,-0.54687495 0.28125,-1.28124995 0.578125,-2.10937495 0.078125,-0.171875 0.125,-0.3125 0.125,-0.5 0,-0.4375 -0.3125,-0.8125 -0.8125,-0.8125 -0.93750002,0 -1.31250002,1.453125 -1.31250002,1.53125 0,0.109375 0.109375,0.109375 0.109375,0.109375 0.109375,0 0.109375,-0.03125 0.15625,-0.1875 0.296875,-1 0.71875002,-1.234375 1.01562502,-1.234375 0.078125,0 0.25,0 0.25,0.3125 0,0.25 -0.109375,0.53125 -0.171875,0.703125 -0.4375,1.15625 -0.5625,1.609375 -0.5625,2.046875 0,1.07812495 0.875,1.23437495 1.328125,1.23437495 1.671875,0 2.25,-3.29687495 2.25,-3.81249995 z m 0,0"
           style="fill:#000000;fill-opacity:1;fill-rule:nonzero;stroke:none" /><path
           id="path2402"
           d="m 8.8129896,0.49278125 c 0,-0.09375 -0.09375,-0.09375 -0.109375,-0.09375 -0.109375,0 -0.109375,0.03125 -0.15625,0.21875 -0.09375,0.34375 -0.21875,0.75000005 -0.515625,0.75000005 -0.171875,0 -0.234375,-0.15625 -0.234375,-0.34375 0,-0.12500005 0.015625,-0.18750005 0.046875,-0.28125005 l 0.96875,-3.87499995 c 0,-0.015625 0.015625,-0.109375 0.015625,-0.109375 0,-0.046875 -0.015625,-0.109375 -0.109375,-0.109375 -0.140625,0 -0.71875,0.0625 -0.890625,0.078125 -0.046875,0 -0.15625,0.015625 -0.15625,0.15625 0,0.09375 0.109375,0.09375 0.1875,0.09375 0.328125,0 0.328125,0.0625 0.328125,0.109375 0,0.046875 0,0.09375 -0.015625,0.15625 l -0.40625,1.59375 c -0.140625,-0.234375 -0.375,-0.421875 -0.71875,-0.421875 -0.890625,0 -1.796875,0.98437495 -1.796875,1.98437495 0,0.68750005 0.453125,1.15625005 1.0625,1.15625005 0.375,0 0.703125,-0.203125 0.984375,-0.484375 0.125,0.421875 0.53125,0.484375 0.71875,0.484375 0.25,0 0.421875,-0.140625 0.546875,-0.359375 0.15625,-0.28125005 0.25,-0.67187505 0.25,-0.70312505 z m -1.15625,-1.171875 -0.328125,1.296875 c -0.046875,0.203125 -0.203125,0.34375 -0.359375,0.46875005 -0.0625,0.0625 -0.34375,0.28125 -0.640625,0.28125 -0.265625,0 -0.515625,-0.1875 -0.515625,-0.67187505 0,-0.375 0.203125,-1.140625 0.375,-1.421875 0.3125,-0.56249995 0.671875,-0.65624995 0.859375,-0.65624995 0.484375,0 0.625,0.53124995 0.625,0.60937495 0,0.015625 -0.015625,0.078125 -0.015625,0.09375 z m 0,0"
           style="fill:#000000;fill-opacity:1;fill-rule:nonzero;stroke:none" /><path
           id="path2403"
           d="m 12.770021,2.3912188 c 0,-0.03125 0,-0.046875 -0.171875,-0.21875 -1.234375,-1.25000005 -1.5625,-3.14062505 -1.5625,-4.671875 0,-1.734375 0.375,-3.46875 1.609375,-4.703125 0.125,-0.125 0.125,-0.140625 0.125,-0.171875 0,-0.078125 -0.03125,-0.109375 -0.09375,-0.109375 -0.109375,0 -1,0.6875 -1.59375,1.953125 -0.5,1.09375 -0.625,2.203125 -0.625,3.03125 0,0.78125 0.109375,1.98437495 0.65625,3.12499995 0.609375,1.21875005 1.453125,1.87500005 1.5625,1.87500005 0.0625,0 0.09375,-0.03125 0.09375,-0.109375 z m 0,0"
           style="fill:#000000;fill-opacity:1;fill-rule:nonzero;stroke:none" /><path
           id="path2404"
           d="m 19.145021,-2.3744062 c 0.109375,-0.4375 0.21875,-0.9375 0.21875,-1.328125 0,-0.265625 -0.04687,-0.484375 -0.1875,-0.609375 -0.0625,-0.0625 -0.140625,-0.09375 -0.234375,-0.09375 -0.125,0 -0.25,0.0625 -0.34375,0.15625 -0.09375,0.109375 -0.140625,0.21875 -0.140625,0.328125 0,0.09375 0.03125,0.171875 0.109375,0.25 0.25,0.21875 0.375,0.515625 0.375,0.875 0,0.109375 -0.01563,0.25 -0.04687,0.359375 -0.21875,0.90625 -0.796875,1.82812495 -1.59375,1.82812495 -0.546875,0 -0.875,-0.375 -0.96875,-0.89062495 0.125,-0.28125 0.21875,-0.578125 0.296875,-0.875 0.01563,-0.09375 0.03125,-0.1875 0.03125,-0.265625 0,-0.15625 -0.04687,-0.265625 -0.1875,-0.265625 -0.1875,0 -0.28125,0.25 -0.328125,0.46875 -0.07813,0.3125 -0.125,0.609375 -0.140625,0.90625 -0.328125,0.53124995 -0.796875,0.92187495 -1.34375,0.92187495 -0.609375,0 -0.875,-0.49999995 -0.875,-1.12499995 0,-0.203125 0.03125,-0.421875 0.07813,-0.640625 0.15625,-0.609375 0.515625,-1.15625 0.890625,-1.6875 0.03125,-0.046875 0.04687,-0.09375 0.04687,-0.140625 0,-0.046875 -0.03125,-0.109375 -0.09375,-0.140625 -0.03125,-0.015625 -0.04687,-0.015625 -0.07813,-0.015625 -0.0625,0 -0.140625,0.03125 -0.1875,0.09375 -0.40625,0.5625 -0.65625,1.203125 -0.8125,1.828125 -0.109375,0.390625 -0.15625,0.765625 -0.15625,1.125 0,0.79687495 0.296875,1.42187495 1.046875,1.42187495 0.625,0 1.15625,-0.4375 1.53125,-1.0625 0.109375,0.625 0.453125,1.0625 1.125,1.0625 1.03125,0 1.671875,-1.28124995 1.96875,-2.48437495 z m 3.890625,0.953125 c 0,-0.109375 -0.07813,-0.109375 -0.109375,-0.109375 -0.09375,0 -0.109375,0.03125 -0.15625,0.140625 -0.421875,1.04687495 -0.953125,1.28124995 -1.296875,1.28124995 -0.203125,0 -0.3125,-0.125 -0.3125,-0.453125 0,-0.25 0.03125,-0.3125 0.0625,-0.48437495 l 0.734375,-2.9375 h 0.9375 c 0.203125,0 0.3125,0 0.3125,-0.203125 0,-0.109375 -0.109375,-0.109375 -0.28125,-0.109375 h -0.875 c 0.359375,-1.421875 0.40625,-1.609375 0.40625,-1.671875 0,-0.171875 -0.125,-0.265625 -0.296875,-0.265625 -0.03125,0 -0.3125,0 -0.390625,0.359375 l -0.390625,1.578125 h -0.9375 c -0.203125,0 -0.296875,0 -0.296875,0.1875 0,0.125 0.07813,0.125 0.28125,0.125 h 0.875 c -0.71875,2.828125 -0.765625,2.99999995 -0.765625,3.17187495 0,0.546875 0.375,0.921875 0.921875,0.921875 1.015625,0 1.578125,-1.45312495 1.578125,-1.53124995 z m 0,0"
           style="fill:#000000;fill-opacity:1;fill-rule:nonzero;stroke:none" /><path
           id="path2405"
           d="m 26.379396,-2.4994062 c 0,-0.765625 -0.109375,-1.96875 -0.65625,-3.109375 -0.59375,-1.21875 -1.453125,-1.875 -1.546875,-1.875 -0.0625,0 -0.109375,0.046875 -0.109375,0.109375 0,0.03125 0,0.046875 0.1875,0.234375 0.984375,0.984375 1.546875,2.5625 1.546875,4.640625 0,1.71874995 -0.359375,3.46874995 -1.59375,4.71875 -0.140625,0.125 -0.140625,0.140625 -0.140625,0.171875 0,0.0625 0.04687,0.109375 0.109375,0.109375 0.09375,0 1,-0.6875 1.578125,-1.95312505 0.515625,-1.09375 0.625,-2.20312495 0.625,-3.04687495 z m 0,0"
           style="fill:#000000;fill-opacity:1;fill-rule:nonzero;stroke:none" /></g><path
         id="path2406"
         d="m -347.37503,401.34451 0.0176,-38.55578 m 0,-7.93742 -0.0176,-38.54722"
         style="fill:none;stroke:#000000;stroke-width:0.531333;stroke-linecap:butt;stroke-linejoin:miter;stroke-miterlimit:10;stroke-dasharray:none;stroke-opacity:1" /><path
         id="path2407"
         d="m -359.28074,362.79279 h 23.8114 m -23.8114,-7.93693 h 23.8114"
         style="fill:none;stroke:#000000;stroke-width:1.06267;stroke-linecap:butt;stroke-linejoin:miter;stroke-miterlimit:10;stroke-dasharray:none;stroke-opacity:1" /><g
         id="g2407"
         aria-label="C&#10;s"
         transform="translate(-373.9817,360.96464)"><path
           id="path2408"
           d="m 6.4523958,-2.3909271 c 0,-0.109375 -0.125,-0.109375 -0.125,-0.109375 -0.0625,0 -0.109375,0.03125 -0.125,0.109375 -0.09375,0.28125 -0.328125,1 -1.015625,1.57812502 -0.6875,0.546875 -1.3125,0.71875 -1.828125,0.71875 -0.890625,0 -1.953125,-0.515625 -1.953125,-2.06250002 0,-0.578125 0.203125,-2.1875 1.203125,-3.359375 0.609375,-0.703125 1.546875,-1.203125 2.4375,-1.203125 1.015625,0 1.609375,0.765625 1.609375,1.921875 0,0.40625 -0.03125,0.40625 -0.03125,0.515625 0,0.09375 0.109375,0.09375 0.140625,0.09375 0.125,0 0.125,-0.015625 0.1875,-0.203125 l 0.625,-2.53125 c 0,-0.03125 -0.015625,-0.109375 -0.109375,-0.109375 -0.03125,0 -0.046875,0.015625 -0.15625,0.125 l -0.6875,0.765625 c -0.09375,-0.140625 -0.546875,-0.890625 -1.65625,-0.890625 -2.234375,0 -4.46874997,2.203125 -4.46874997,4.515625 0,1.64062502 1.17187497,2.73437502 2.70312497,2.73437502 0.859375,0 1.625,-0.390625 2.15625,-0.859375 0.921875,-0.81250002 1.09375,-1.71875002 1.09375,-1.75000002 z m 0,0"
           style="fill:#000000;fill-opacity:1;fill-rule:nonzero;stroke:none" /><path
           id="path2409"
           d="m 10.26099,0.41766667 c 0,-0.640625 -0.7031254,-0.765625 -0.9687504,-0.8125 -0.0625,-0.015625 -0.234375,-0.046875 -0.28125,-0.0625 -0.25,-0.046875 -0.375,-0.1875 -0.375,-0.34375 0,-0.15625 0.125,-0.34374997 0.28125,-0.45312497 0.1875,-0.109375 0.421875,-0.125 0.546875,-0.125 0.140625,0 0.5,0.015625 0.6562504,0.25 -0.1718754,0.046875 -0.2968754,0.18749997 -0.2968754,0.32812497 0,0.171875 0.140625,0.234375 0.2343754,0.234375 0.07813,0 0.34375,-0.046875 0.34375,-0.40625 0,-0.45312497 -0.5000004,-0.60937497 -0.9375004,-0.60937497 -1.078125,0 -1.28125,0.81249997 -1.28125,1.01562497 0,0.265625 0.15625,0.4375 0.25,0.515625 0.171875,0.140625 0.296875,0.171875 0.78125,0.25 0.15625,0.03125 0.59375,0.109375 0.59375,0.453125 0,0.125 -0.078125,0.39062503 -0.359375,0.56250003 -0.28125,0.15625 -0.625,0.15625 -0.703125,0.15625 -0.28125,0 -0.671875,-0.0625 -0.84375,-0.296875 0.234375,-0.03125 0.390625,-0.20312503 0.390625,-0.39062503 0,-0.171875 -0.125,-0.265625 -0.265625,-0.265625 -0.203125,0 -0.40625,0.171875 -0.40625,0.46875 0,0.42187503 0.4375,0.67187503 1.109375,0.67187503 1.2968754,0 1.5312504,-0.87500003 1.5312504,-1.14062503 z m 0,0"
           style="fill:#000000;fill-opacity:1;fill-rule:nonzero;stroke:none" /></g><path
         id="path2410"
         d="m -307.68926,316.30409 h 14.17341 l 18.73108,-0.007 m 47.6252,0 18.68415,0.007"
         style="fill:none;stroke:#000000;stroke-width:0.531333;stroke-linecap:butt;stroke-linejoin:miter;stroke-miterlimit:10;stroke-dasharray:none;stroke-opacity:1" /><path
         id="path2411"
         d="m -227.18449,322.25693 h -47.62233 v -11.90571 h 47.62233 z"
         style="fill:none;stroke:#000000;stroke-width:1.06267;stroke-linecap:butt;stroke-linejoin:miter;stroke-miterlimit:10;stroke-dasharray:none;stroke-opacity:1" /><g
         id="g2411"
         aria-label="λ/4|Z&#10;0"
         transform="translate(-269.1924,305.45664)"><path
           id="path2412"
           d="m 5.46775,0.01551042 c 0,-0.03125 -0.03125,-0.0625 -0.0625,-0.09375 -0.09375,-0.109375 -0.15625,-0.265625 -0.21875,-0.453125 L 3.15525,-6.2032396 c -0.21875,-0.578125 -0.75,-0.71875 -1.21875,-0.71875 -0.046875,0 -0.1875,0 -0.1875,0.109375 0,0.078125 0.09375,0.109375 0.09375,0.109375 0.328125,0.046875 0.40625,0.109375 0.65625,0.796875 l 0.953125,2.703125 -2.75,2.73437502 c -0.109375,0.125 -0.171875,0.171875 -0.171875,0.3125 0,0.171875 0.140625,0.28125 0.296875,0.28125 0.15625,0 0.25,-0.109375 0.328125,-0.203125 L 3.5615,-2.9063646 c 0.40625,1.046875 0.890625,2.56250002 1.046875,2.79687502 0.15625,0.21875 0.25,0.21875 0.53125,0.21875 h 0.21875 c 0.09375,-0.015625 0.109375,-0.0625 0.109375,-0.09375 z m 4.765625,-7.29687502 c 0,-0.109375 -0.07813,-0.203125 -0.1875,-0.203125 -0.078125,0 -0.140625,0.03125 -0.171875,0.09375 l -3.46875,9.5 c -0.046875,0.140625 -0.046875,0.1875 -0.046875,0.1875 0,0.109375 0.09375,0.203125 0.203125,0.203125 0.125,0 0.15625,-0.078125 0.21875,-0.25 l 3.40625,-9.34375 c 0.04687,-0.140625 0.04687,-0.1875 0.04687,-0.1875 z m 0,0"
           style="fill:#000000;fill-opacity:1;fill-rule:nonzero;stroke:none" /><path
           id="path2413"
           d="m 15.479469,-1.6407396 v -0.3125 h -0.984375 v -4.53125 c 0,-0.203125 0,-0.265625 -0.171875,-0.265625 -0.07813,0 -0.109375,0 -0.1875,0.125 l -3.0625,4.671875 v 0.3125 h 2.65625 v 0.85937502 c 0,0.359375 -0.03125,0.46875 -0.765625,0.46875 h -0.203125 v 0.31249999667 c 0.40625,-0.0312499967 0.921875,-0.0312499967 1.34375,-0.0312499967 0.421875,0 0.9375,0 1.359375,0.0312499967 V -0.31261458 h -0.21875 c -0.734375,0 -0.75,-0.109375 -0.75,-0.46875 V -1.6407396 Z m -1.703125,-0.3125 h -2.421875 l 2.421875,-3.71875 z m 0,0"
           style="fill:#000000;fill-opacity:1;fill-rule:nonzero;stroke:none" /><path
           id="path2414"
           d="m 20.670875,2.1561354 v -9.296875 c 0,-0.140625 0,-0.34375 -0.1875,-0.34375 -0.203125,0 -0.203125,0.203125 -0.203125,0.34375 v 9.296875 c 0,0.140625 0,0.34375 0.203125,0.34375 0.1875,0 0.1875,-0.203125 0.1875,-0.34375 z m 0,0"
           style="fill:#000000;fill-opacity:1;fill-rule:nonzero;stroke:none" /><path
           id="path2415"
           d="m 31.40525,-2.5469896 c 0,-0.0625 -0.03125,-0.109375 -0.125,-0.109375 -0.09375,0 -0.109375,0.03125 -0.171875,0.25 -0.4375,1.34375 -0.921875,2.06250002 -2.609375,2.06250002 h -1.703125 l 5.5625,-6.21875002 c 0.01563,-0.046875 0.03125,-0.09375 0.03125,-0.15625 0,-0.09375 -0.04687,-0.09375 -0.25,-0.09375 H 27.9365 c -0.234375,0 -0.25,0.015625 -0.3125,0.203125 l -0.546875,1.796875 c -0.01563,0.046875 -0.03125,0.140625 -0.03125,0.140625 0,0 0,0.109375 0.125,0.109375 0.09375,0 0.109375,-0.078125 0.125,-0.109375 0.390625,-1.171875 0.90625,-1.828125 2.453125,-1.828125 h 1.625 l -5.5625,6.23437502 c 0,0 -0.04687,0.140625 -0.04687,0.171875 0,0.0937499967 0.0625,0.0937499967 0.25,0.0937499967 h 4.328125 c 0.25,0 0.25,-0.0156249967 0.3125,-0.2031249967 L 31.374,-2.4063646 c 0,-0.03125 0.03125,-0.109375 0.03125,-0.140625 z m 0,0"
           style="fill:#000000;fill-opacity:1;fill-rule:nonzero;stroke:none" /><path
           id="path2416"
           d="m 35.577125,-0.72667708 c 0,-0.76562502 -0.09375,-1.32812502 -0.40625,-1.81250002 -0.21875,-0.3125 -0.65625,-0.59375 -1.203125,-0.59375 -1.625,0 -1.625,1.90625 -1.625,2.40625002 0,0.5 0,2.35937498 1.625,2.35937498 1.609375,0 1.609375,-1.85937498 1.609375,-2.35937498 z m -0.625,-0.09375 c 0,0.515625 0,1.03125 -0.09375,1.46875 C 34.71775,1.2889479 34.249,1.4295729 33.96775,1.4295729 c -0.328125,0 -0.75,-0.1875 -0.890625,-0.74999998 -0.09375,-0.40625 -0.09375,-0.984375 -0.09375,-1.5 0,-0.51562502 0,-1.04687502 0.09375,-1.42187502 0.15625,-0.546875 0.59375,-0.703125 0.890625,-0.703125 0.375,0 0.734375,0.234375 0.859375,0.640625 0.109375,0.375 0.125,0.875 0.125,1.48437502 z m 0,0"
           style="fill:#000000;fill-opacity:1;fill-rule:nonzero;stroke:none" /></g><path
         id="path2417"
         d="m -208.47542,316.30409 0.0261,30.60949 m 0,23.81286 -0.0261,30.61807"
         style="fill:none;stroke:#000000;stroke-width:0.531333;stroke-linecap:butt;stroke-linejoin:miter;stroke-miterlimit:10;stroke-dasharray:none;stroke-opacity:1" /><path
         id="path2418"
         d="m -196.56972,358.82433 c 0,-6.57542 -5.3303,-11.9057 -11.9057,-11.9057 -6.5754,0 -11.90571,5.33028 -11.90571,11.9057 0,6.57539 5.33031,11.9057 11.90571,11.9057 6.5754,0 11.9057,-5.33031 11.9057,-11.9057 z"
         style="fill:none;stroke:#000000;stroke-width:1.06267;stroke-linecap:butt;stroke-linejoin:miter;stroke-miterlimit:10;stroke-dasharray:none;stroke-opacity:1" /><path
         id="path2419"
         d="m -208.47542,346.91863 v 23.8114"
         style="fill:none;stroke:#000000;stroke-width:1.06267;stroke-linecap:butt;stroke-linejoin:miter;stroke-miterlimit:10;stroke-dasharray:none;stroke-opacity:1" /><path
         id="path2420"
         d="M -188.63277,381.50184 V 336.67813"
         style="fill:none;stroke:#000000;stroke-width:0.531333;stroke-linecap:butt;stroke-linejoin:miter;stroke-miterlimit:10;stroke-dasharray:none;stroke-opacity:1" /><path
         id="path2421"
         d="m -191.82085,339.17543 c 1.91286,-0.50479 2.81612,-1.62967 3.18805,-2.76299 0.37193,1.13332 1.27519,2.2582 3.18805,2.76299"
         style="fill:none;stroke:#000000;stroke-width:0.531333;stroke-linecap:round;stroke-linejoin:round;stroke-miterlimit:10;stroke-dasharray:none;stroke-opacity:1" /><g
         id="g2421"
         aria-label="V&#10;out"
         transform="translate(-183.4471,361.48198)"><path
           id="path2422"
           d="m 7.6716354,-6.6856042 c 0,-0.078125 -0.0625,-0.125 -0.140625,-0.125 -0.25,0 -0.546875,0.03125 -0.8125,0.03125 -0.328125,0 -0.671875,-0.03125 -0.984375,-0.03125 -0.0625,0 -0.1875,0 -0.1875,0.1875 0,0.109375 0.078125,0.125 0.15625,0.125 0.265625,0.015625 0.453125,0.125 0.453125,0.328125 0,0.15625 -0.140625,0.375 -0.140625,0.375 l -3.0625,4.87500003 -0.6875,-5.28125003 c 0,-0.171875 0.234375,-0.296875 0.6875,-0.296875 0.140625,0 0.25,0 0.25,-0.203125 0,-0.078125 -0.078125,-0.109375 -0.125,-0.109375 -0.40625,0 -0.828125,0.03125 -1.25,0.03125 -0.171875,0 -0.359375,0 -0.546875,0 -0.171875,0 -0.35937498,-0.03125 -0.53124998,-0.03125 -0.078125,0 -0.1875,0 -0.1875,0.1875 0,0.125 0.078125,0.125 0.25,0.125 0.54687498,0 0.56249998,0.09375 0.59374998,0.34375 l 0.78125,6.14062503 c 0.03125,0.203125 0.078125,0.234375 0.203125,0.234375 0.15625,0 0.203125,-0.046875 0.28125,-0.171875 l 3.59375,-5.71875003 c 0.484375,-0.78125 0.90625,-0.8125 1.265625,-0.828125 0.125,-0.015625 0.140625,-0.1875 0.140625,-0.1875 z m 0,0"
           style="fill:#000000;fill-opacity:1;fill-rule:nonzero;stroke:none" /><path
           id="path2423"
           d="m 9.5153854,-0.36529167 c 0,-0.76562503 -0.578125,-1.21875003 -1.265625,-1.21875003 -1.03125,0 -2,0.96875003 -2,1.92187503 0,0.70312497 0.5,1.21874997 1.265625,1.21874997 1,0 2,-0.90624997 2,-1.92187497 z m -0.578125,-0.25 c 0,0.171875 -0.078125,0.859375 -0.390625,1.34375 -0.265625,0.42187497 -0.671875,0.64062497 -1.03125,0.64062497 -0.34375,0 -0.6875,-0.21875 -0.6875,-0.78124997 0,-0.28125 0.125,-0.96875 0.40625,-1.359375 0.296875,-0.43750003 0.703125,-0.60937503 1.015625,-0.60937503 0.375,0 0.6875,0.25 0.6875,0.76562503 z m 5.1835936,1.109375 c 0,-0.09375 -0.09375,-0.09375 -0.109375,-0.09375 -0.109375,0 -0.109375,0.03125 -0.15625,0.21875 -0.09375,0.328125 -0.21875,0.74999997 -0.515625,0.74999997 -0.171875,0 -0.234375,-0.15625 -0.234375,-0.34375 0,-0.10937497 0.0625,-0.37499997 0.109375,-0.54687497 l 0.3125,-1.25 c 0.04687,-0.171875 0.125,-0.48437503 0.125,-0.51562503 0,-0.140625 -0.109375,-0.21875 -0.234375,-0.21875 -0.25,0 -0.3125,0.203125 -0.359375,0.421875 l -0.359375,1.45312503 c -0.04687,0.140625 -0.109375,0.40625 -0.109375,0.40625 -0.140625,0.21875 -0.421875,0.59374997 -0.84375,0.59374997 -0.484375,0 -0.484375,-0.45312497 -0.484375,-0.57812497 0,-0.40625 0.1875,-0.90625 0.390625,-1.421875 0.04687,-0.140625 0.09375,-0.234375 0.09375,-0.34375 0,-0.37500003 -0.3125,-0.60937503 -0.65625,-0.60937503 -0.703125,0 -1.015625,0.95312503 -1.015625,1.07812503 0,0.078125 0.09375,0.078125 0.125,0.078125 0.09375,0 0.09375,-0.03125 0.125,-0.109375 0.15625,-0.56250003 0.46875,-0.84375003 0.734375,-0.84375003 0.125,0 0.171875,0.078125 0.171875,0.234375 0,0.17187503 -0.04687,0.31250003 -0.125,0.46875003 -0.375,0.96875 -0.375,1.171875 -0.375,1.359375 0,0.109375 0,0.43749997 0.265625,0.65624997 0.203125,0.171875 0.46875,0.21875 0.71875,0.21875 0.4375,0 0.671875,-0.234375 0.90625,-0.453125 0.15625,0.453125 0.609375,0.453125 0.703125,0.453125 0.234375,0 0.421875,-0.125 0.546875,-0.359375 0.15625,-0.28124997 0.25,-0.67187497 0.25,-0.70312497 z m 2.941406,0 c 0,-0.09375 -0.09375,-0.09375 -0.109375,-0.09375 -0.09375,0 -0.09375,0.015625 -0.15625,0.140625 -0.1875,0.4375 -0.546875,0.82812497 -0.921875,0.82812497 -0.15625,0 -0.25,-0.09375 -0.25,-0.34375 0,-0.0625 0.03125,-0.21874997 0.04687,-0.28124997 l 0.5,-2.00000003 h 0.703125 c 0.140625,0 0.21875,0 0.21875,-0.15625 0,-0.09375 -0.07813,-0.09375 -0.203125,-0.09375 h -0.65625 l 0.25,-1.03125 c 0.01563,-0.03125 0.03125,-0.078125 0.03125,-0.09375 0,-0.140625 -0.109375,-0.234375 -0.25,-0.234375 -0.171875,0 -0.265625,0.125 -0.328125,0.296875 -0.04687,0.1875 0.04687,-0.15625 -0.265625,1.0625 h -0.70312 c -0.125,0 -0.21875,0 -0.21875,0.15625 0,0.09375 0.07813,0.09375 0.203125,0.09375 h 0.65625 l -0.40625,1.64062503 c -0.04687,0.171875 -0.109375,0.421875 -0.109375,0.515625 0,0.40624997 0.359375,0.65624997 0.75,0.65624997 0.78125,0 1.21875,-0.96874997 1.21875,-1.06249997 z m 0,0"
           style="fill:#000000;fill-opacity:1;fill-rule:nonzero;stroke:none" /></g><path
         id="path2424"
         d="m -579.8188,401.34451 h 371.34338"
         style="fill:none;stroke:#000000;stroke-width:0.531333;stroke-linecap:butt;stroke-linejoin:miter;stroke-miterlimit:10;stroke-dasharray:none;stroke-opacity:1" /><path
         id="path2425"
         d="m -347.37503,316.30409 h 39.68577"
         style="fill:none;stroke:#000000;stroke-width:0.531333;stroke-linecap:butt;stroke-linejoin:miter;stroke-miterlimit:10;stroke-dasharray:none;stroke-opacity:1" /><path
         id="path2426"
         d="m -307.68926,331.00883 v 2.30354"
         style="fill:none;stroke:#000000;stroke-width:0.531333;stroke-linecap:butt;stroke-linejoin:miter;stroke-miterlimit:10;stroke-dasharray:none;stroke-opacity:1" /><path
         id="path2427"
         d="m -310.87735,333.50617 c 1.91286,-0.50479 2.81612,-1.62967 3.18805,-2.76299 0.37193,1.13332 1.27519,2.2582 3.18805,2.76299"
         style="fill:none;stroke:#000000;stroke-width:0.531333;stroke-linecap:round;stroke-linejoin:round;stroke-miterlimit:10;stroke-dasharray:none;stroke-opacity:1" /><g
         id="g2427"
         aria-label="i&#10;d&#10;(ωt)"
         transform="translate(-337.6937,341.47264)"><path
           id="path2428"
           d="m 2.8284583,-6.2348646 c 0,-0.203125 -0.140625,-0.359375 -0.359375,-0.359375 -0.28125,0 -0.546875,0.265625 -0.546875,0.53125 0,0.1875 0.140625,0.359375 0.375,0.359375 0.234375,0 0.53125,-0.234375 0.53125,-0.53125 z m 0.09375,4.8125 c 0,-0.109375 -0.09375,-0.109375 -0.125,-0.109375 -0.09375,0 -0.09375,0.03125 -0.140625,0.1875 -0.1875,0.62500002 -0.515625,1.23437502 -1.015625,1.23437502 -0.171875,0 -0.25,-0.09375 -0.25,-0.328125 0,-0.25 0.0625,-0.390625 0.296875,-1.00000002 l 0.390625,-1.046875 c 0.109375,-0.28125 0.109375,-0.3125 0.21875,-0.578125 0.078125,-0.203125 0.125,-0.34375 0.125,-0.53125 0,-0.4375 -0.3125,-0.8125 -0.8125,-0.8125 -0.93749997,0 -1.31249997,1.453125 -1.31249997,1.53125 0,0.109375 0.109375,0.109375 0.109375,0.109375 0.109375,0 0.109375,-0.03125 0.15625,-0.1875 0.28125,-0.9375 0.67187497,-1.234375 1.01562497,-1.234375 0.078125,0 0.25,0 0.25,0.3125 0,0.21875 -0.078125,0.421875 -0.109375,0.53125 -0.078125,0.25 -0.53125,1.40625 -0.6875,1.84375 -0.10937497,0.25 -0.23437497,0.57812502 -0.23437497,0.79687502 0,0.46875 0.34374997,0.8125 0.81249997,0.8125 0.9375,0 1.3125,-1.43750002 1.3125,-1.53125002 z m 0,0"
           style="fill:#000000;fill-opacity:1;fill-rule:nonzero;stroke:none" /><path
           id="path2429"
           d="m 7.4183021,0.49560417 c 0,-0.09375 -0.09375,-0.09375 -0.109375,-0.09375 -0.109375,0 -0.109375,0.03125 -0.15625,0.21875 -0.09375,0.34375 -0.21875,0.75000003 -0.515625,0.75000003 -0.171875,0 -0.234375,-0.15625 -0.234375,-0.34375 0,-0.12500003 0.015625,-0.18750003 0.046875,-0.28125003 l 0.96875,-3.87499997 c 0,-0.015625 0.015625,-0.109375 0.015625,-0.109375 0,-0.046875 -0.015625,-0.109375 -0.109375,-0.109375 -0.140625,0 -0.71875,0.0625 -0.890625,0.078125 -0.046875,0 -0.15625,0.015625 -0.15625,0.15625 0,0.09375 0.109375,0.09375 0.1875,0.09375 0.328125,0 0.328125,0.0625 0.328125,0.109375 0,0.046875 0,0.09375 -0.015625,0.15625 l -0.40625,1.59375 c -0.140625,-0.234375 -0.375,-0.421875 -0.71875,-0.421875 -0.890625,0 -1.796875,0.98437497 -1.796875,1.98437497 0,0.68750003 0.453125,1.15625003 1.0625,1.15625003 0.375,0 0.703125,-0.203125 0.984375,-0.484375 0.125,0.421875 0.53125,0.484375 0.71875,0.484375 0.25,0 0.421875,-0.140625 0.546875,-0.359375 0.15625,-0.28125003 0.25,-0.67187503 0.25,-0.70312503 z m -1.15625,-1.171875 -0.328125,1.296875 c -0.046875,0.203125 -0.203125,0.34375 -0.359375,0.46875003 -0.0625,0.0625 -0.34375,0.28125 -0.640625,0.28125 -0.265625,0 -0.515625,-0.1875 -0.515625,-0.67187503 0,-0.375 0.203125,-1.140625 0.375,-1.421875 0.3125,-0.56249997 0.671875,-0.65624997 0.859375,-0.65624997 0.484375,0 0.625,0.53124997 0.625,0.60937497 0,0.015625 -0.015625,0.078125 -0.015625,0.09375 z m 0,0"
           style="fill:#000000;fill-opacity:1;fill-rule:nonzero;stroke:none" /><path
           id="path2430"
           d="m 11.375333,2.3901354 c 0,-0.03125 0,-0.046875 -0.171875,-0.21875 -1.2343747,-1.24999998 -1.5624997,-3.14062498 -1.5624997,-4.671875 0,-1.734375 0.3749997,-3.46875 1.6093747,-4.703125 0.125,-0.125 0.125,-0.140625 0.125,-0.171875 0,-0.078125 -0.03125,-0.109375 -0.09375,-0.109375 -0.109375,0 -1,0.6875 -1.5937497,1.953125 -0.5,1.09375 -0.625,2.203125 -0.625,3.03125 0,0.78125 0.109375,1.98437502 0.65625,3.12500002 0.6093747,1.21874998 1.4531247,1.87499998 1.5624997,1.87499998 0.0625,0 0.09375,-0.03125 0.09375,-0.109375 z m 0,0"
           style="fill:#000000;fill-opacity:1;fill-rule:nonzero;stroke:none" /><path
           id="path2431"
           d="m 17.750333,-2.3754896 c 0.109375,-0.4375 0.21875,-0.9375 0.21875,-1.328125 0,-0.265625 -0.04687,-0.484375 -0.1875,-0.609375 -0.0625,-0.0625 -0.140625,-0.09375 -0.234375,-0.09375 -0.125,0 -0.25,0.0625 -0.34375,0.15625 -0.09375,0.109375 -0.140625,0.21875 -0.140625,0.328125 0,0.09375 0.03125,0.171875 0.109375,0.25 0.25,0.21875 0.375,0.515625 0.375,0.875 0,0.109375 -0.01563,0.25 -0.04687,0.359375 -0.21875,0.90625 -0.796875,1.82812502 -1.59375,1.82812502 -0.546875,0 -0.875,-0.375 -0.96875,-0.89062502 0.125,-0.28125 0.21875,-0.578125 0.296875,-0.875 0.01563,-0.09375 0.03125,-0.1875 0.03125,-0.265625 0,-0.15625 -0.04687,-0.265625 -0.1875,-0.265625 -0.1875,0 -0.28125,0.25 -0.328125,0.46875 -0.07813,0.3125 -0.125,0.609375 -0.140625,0.90625 -0.328125,0.53125 -0.796875,0.92187502 -1.34375,0.92187502 -0.609375,0 -0.875,-0.50000002 -0.875,-1.12500002 0,-0.203125 0.03125,-0.421875 0.07813,-0.640625 0.15625,-0.609375 0.515625,-1.15625 0.890625,-1.6875 0.03125,-0.046875 0.04687,-0.09375 0.04687,-0.140625 0,-0.046875 -0.03125,-0.109375 -0.09375,-0.140625 -0.03125,-0.015625 -0.04687,-0.015625 -0.07813,-0.015625 -0.0625,0 -0.140625,0.03125 -0.1875,0.09375 -0.40625,0.5625 -0.65625,1.203125 -0.8125,1.828125 -0.109375,0.390625 -0.15625,0.765625 -0.15625,1.125 0,0.79687502 0.296875,1.42187502 1.046875,1.42187502 0.625,0 1.15625,-0.4375 1.53125,-1.0625 0.109375,0.625 0.453125,1.0625 1.125,1.0625 1.03125,0 1.671875,-1.28125002 1.96875,-2.48437502 z m 3.886719,0.953125 c 0,-0.109375 -0.07813,-0.109375 -0.109375,-0.109375 -0.09375,0 -0.109375,0.03125 -0.15625,0.140625 -0.421875,1.04687502 -0.953125,1.28125002 -1.296875,1.28125002 -0.203125,0 -0.3125,-0.125 -0.3125,-0.453125 0,-0.25 0.03125,-0.3125 0.0625,-0.48437502 l 0.734375,-2.9375 h 0.9375 c 0.203125,0 0.3125,0 0.3125,-0.203125 0,-0.109375 -0.109375,-0.109375 -0.28125,-0.109375 h -0.875 c 0.359375,-1.421875 0.40625,-1.609375 0.40625,-1.671875 0,-0.171875 -0.125,-0.265625 -0.296875,-0.265625 -0.03125,0 -0.3125,0 -0.390625,0.359375 l -0.390625,1.578125 h -0.9375 c -0.203125,0 -0.296875,0 -0.296875,0.1875 0,0.125 0.07813,0.125 0.28125,0.125 h 0.875 c -0.71875,2.828125 -0.765625,3.00000002 -0.765625,3.17187502 0,0.546875 0.375,0.921875 0.921875,0.921875 1.015625,0 1.578125,-1.45312502 1.578125,-1.53125002 z m 0,0"
           style="fill:#000000;fill-opacity:1;fill-rule:nonzero;stroke:none" /><path
           id="path2432"
           d="m 24.984708,-2.5004896 c 0,-0.765625 -0.109375,-1.96875 -0.65625,-3.109375 -0.59375,-1.21875 -1.453125,-1.875 -1.546875,-1.875 -0.0625,0 -0.109375,0.046875 -0.109375,0.109375 0,0.03125 0,0.046875 0.1875,0.234375 0.984375,0.984375 1.546875,2.5625 1.546875,4.640625 0,1.71875002 -0.359375,3.46875002 -1.59375,4.71875 -0.140625,0.125 -0.140625,0.140625 -0.140625,0.171875 0,0.0625 0.04687,0.109375 0.109375,0.109375 0.09375,0 1,-0.6875 1.578125,-1.95312498 0.515625,-1.09375 0.625,-2.20312502 0.625,-3.04687502 z m 0,0"
           style="fill:#000000;fill-opacity:1;fill-rule:nonzero;stroke:none" /></g><path
         id="path2433"
         d="m -296.3507,316.30409 h 2.30349"
         style="fill:none;stroke:#000000;stroke-width:0.531333;stroke-linecap:butt;stroke-linejoin:miter;stroke-miterlimit:10;stroke-dasharray:none;stroke-opacity:1" /><path
         id="path2434"
         d="m -296.54449,313.11603 c 0.50479,1.91286 1.62967,2.81612 2.76299,3.18805 -1.13332,0.37193 -2.2582,1.27519 -2.76299,3.18805"
         style="fill:none;stroke:#000000;stroke-width:0.531333;stroke-linecap:round;stroke-linejoin:round;stroke-miterlimit:10;stroke-dasharray:none;stroke-opacity:1" /><g
         id="g2434"
         aria-label="i&#10;e2&#10;(ωt)"
         transform="translate(-313.9831,307.45664)"><path
           id="path2435"
           d="m 2.8287292,-6.2344896 c 0,-0.203125 -0.140625,-0.359375 -0.359375,-0.359375 -0.28125,0 -0.546875,0.265625 -0.546875,0.53125 0,0.1875 0.140625,0.359375 0.375,0.359375 0.234375,0 0.53125,-0.234375 0.53125,-0.53125 z m 0.09375,4.8125 c 0,-0.109375 -0.09375,-0.109375 -0.125,-0.109375 -0.09375,0 -0.09375,0.03125 -0.140625,0.1875 -0.1875,0.62500002 -0.515625,1.23437502 -1.015625,1.23437502 -0.171875,0 -0.25,-0.09375 -0.25,-0.328125 0,-0.25 0.0625,-0.390625 0.296875,-1.00000002 l 0.390625,-1.046875 c 0.109375,-0.28125 0.109375,-0.3125 0.21875,-0.578125 0.078125,-0.203125 0.125,-0.34375 0.125,-0.53125 0,-0.4375 -0.3125,-0.8125 -0.8125,-0.8125 -0.93750003,0 -1.31250003,1.453125 -1.31250003,1.53125 0,0.109375 0.109375,0.109375 0.109375,0.109375 0.109375,0 0.109375,-0.03125 0.15625,-0.1875 0.28125,-0.9375 0.67187503,-1.234375 1.01562503,-1.234375 0.078125,0 0.25,0 0.25,0.3125 0,0.21875 -0.078125,0.421875 -0.109375,0.53125 -0.078125,0.25 -0.53125,1.40625 -0.6875,1.84375 -0.10937503,0.25 -0.23437503,0.57812502 -0.23437503,0.79687502 0,0.46875 0.34375003,0.8125 0.81250003,0.8125 0.9375,0 1.3125,-1.43750002 1.3125,-1.53125002 z m 0,0"
           style="fill:#000000;fill-opacity:1;fill-rule:nonzero;stroke:none" /><path
           id="path2436"
           d="m 6.8834167,0.77722917 c 0,-0.046875 -0.0625,-0.125 -0.125,-0.125 -0.03125,0 -0.046875,0.015625 -0.109375,0.078125 -0.546875,0.64062503 -1.359375,0.64062503 -1.484375,0.64062503 -0.421875,0 -0.703125,-0.28125 -0.703125,-0.84375003 0,-0.09375 0,-0.234375 0.09375,-0.625 h 0.4375 c 0.1875,0 0.75,-0.015625 1.125,-0.140625 0.515625,-0.1875 0.609375,-0.515625 0.609375,-0.71875 0,-0.39062497 -0.390625,-0.62499997 -0.859375,-0.62499997 -0.84375,0 -1.96875,0.64062497 -1.96875,1.84374997 0,0.703125 0.4375,1.29687503 1.25,1.29687503 1.1875,0 1.734375,-0.68750003 1.734375,-0.78125003 z m -0.453125,-1.734375 c 0,0.671875 -1.1875,0.671875 -1.484375,0.671875 h -0.34375 c 0.296875,-1.01562497 1.0625,-1.09374997 1.265625,-1.09374997 0.296875,0 0.5625,0.15625 0.5625,0.42187497 z m 0,0"
           style="fill:#000000;fill-opacity:1;fill-rule:nonzero;stroke:none" /><path
           id="path2437"
           d="m 10.727167,0.23035417 h -0.234375 c -0.01563,0.15625 -0.09375,0.5625 -0.1875,0.625 -0.04687,0.046875 -0.5781253,0.046875 -0.6875003,0.046875 h -1.28125 c 0.734375,-0.640625 0.984375,-0.84375 1.390625,-1.171875 0.5156253,-0.40625 1.0000003,-0.84374997 1.0000003,-1.49999997 0,-0.84375 -0.7343753,-1.359375 -1.6250003,-1.359375 -0.859375,0 -1.453125,0.609375 -1.453125,1.25 0,0.34375 0.296875,0.390625 0.375,0.390625 0.15625,0 0.359375,-0.125 0.359375,-0.375 0,-0.125 -0.046875,-0.375 -0.40625,-0.375 0.21875,-0.484375 0.6875,-0.640625 1.015625,-0.640625 0.703125,0 1.0625003,0.546875 1.0625003,1.109375 0,0.609375 -0.4375003,1.07812497 -0.6562503,1.32812497 L 7.7271667,1.2303542 c -0.078125,0.0625 -0.078125,0.078125 -0.078125,0.265625 h 2.8750003 z m 0,0"
           style="fill:#000000;fill-opacity:1;fill-rule:nonzero;stroke:none" /><path
           id="path2438"
           d="m 14.977167,2.3905104 c 0,-0.03125 0,-0.046875 -0.171875,-0.21875 -1.234375,-1.24999998 -1.5625,-3.14062498 -1.5625,-4.671875 0,-1.734375 0.375,-3.46875 1.609375,-4.703125 0.125,-0.125 0.125,-0.140625 0.125,-0.171875 0,-0.078125 -0.03125,-0.109375 -0.09375,-0.109375 -0.109375,0 -1,0.6875 -1.59375,1.953125 -0.5,1.09375 -0.625,2.203125 -0.625,3.03125 0,0.78125 0.109375,1.98437502 0.65625,3.12500002 0.609375,1.21874998 1.453125,1.87499998 1.5625,1.87499998 0.0625,0 0.09375,-0.03125 0.09375,-0.109375 z m 0,0"
           style="fill:#000000;fill-opacity:1;fill-rule:nonzero;stroke:none" /><path
           id="path2439"
           d="m 21.352167,-2.3751146 c 0.109375,-0.4375 0.21875,-0.9375 0.21875,-1.328125 0,-0.265625 -0.04687,-0.484375 -0.1875,-0.609375 -0.0625,-0.0625 -0.140625,-0.09375 -0.234375,-0.09375 -0.125,0 -0.25,0.0625 -0.34375,0.15625 -0.09375,0.109375 -0.140625,0.21875 -0.140625,0.328125 0,0.09375 0.03125,0.171875 0.109375,0.25 0.25,0.21875 0.375,0.515625 0.375,0.875 0,0.109375 -0.01563,0.25 -0.04687,0.359375 -0.21875,0.90625 -0.796875,1.82812502 -1.59375,1.82812502 -0.546875,0 -0.875,-0.375 -0.96875,-0.89062502 0.125,-0.28125 0.21875,-0.578125 0.296875,-0.875 0.01563,-0.09375 0.03125,-0.1875 0.03125,-0.265625 0,-0.15625 -0.04687,-0.265625 -0.1875,-0.265625 -0.1875,0 -0.28125,0.25 -0.328125,0.46875 -0.07813,0.3125 -0.125,0.609375 -0.140625,0.90625 -0.328125,0.53125 -0.796875,0.92187502 -1.34375,0.92187502 -0.609375,0 -0.875,-0.50000002 -0.875,-1.12500002 0,-0.203125 0.03125,-0.421875 0.07813,-0.640625 0.15625,-0.609375 0.515625,-1.15625 0.890625,-1.6875 0.03125,-0.046875 0.04687,-0.09375 0.04687,-0.140625 0,-0.046875 -0.03125,-0.109375 -0.09375,-0.140625 -0.03125,-0.015625 -0.04687,-0.015625 -0.07813,-0.015625 -0.0625,0 -0.140625,0.03125 -0.1875,0.09375 -0.40625,0.5625 -0.65625,1.203125 -0.8125,1.828125 -0.109375,0.390625 -0.15625,0.765625 -0.15625,1.125 0,0.79687502 0.296875,1.42187502 1.046875,1.42187502 0.625,0 1.15625,-0.4375 1.53125,-1.0625 0.109375,0.625 0.453125,1.0625 1.125,1.0625 1.03125,0 1.671875,-1.28125002 1.96875,-2.48437502 z m 3.886718,0.953125 c 0,-0.109375 -0.07813,-0.109375 -0.109375,-0.109375 -0.09375,0 -0.109375,0.03125 -0.15625,0.140625 -0.421875,1.04687502 -0.953125,1.28125002 -1.296875,1.28125002 -0.203125,0 -0.3125,-0.125 -0.3125,-0.453125 0,-0.25 0.03125,-0.3125 0.0625,-0.48437502 l 0.734375,-2.9375 h 0.9375 c 0.203125,0 0.3125,0 0.3125,-0.203125 0,-0.109375 -0.109375,-0.109375 -0.28125,-0.109375 h -0.875 c 0.359375,-1.421875 0.40625,-1.609375 0.40625,-1.671875 0,-0.171875 -0.125,-0.265625 -0.296875,-0.265625 -0.03125,0 -0.3125,0 -0.390625,0.359375 l -0.390625,1.578125 h -0.9375 c -0.203125,0 -0.296875,0 -0.296875,0.1875 0,0.125 0.07813,0.125 0.28125,0.125 h 0.875 c -0.71875,2.828125 -0.765625,3.00000002 -0.765625,3.17187502 0,0.546875 0.375,0.921875 0.921875,0.921875 1.015625,0 1.578125,-1.45312502 1.578125,-1.53125002 z m 0,0"
           style="fill:#000000;fill-opacity:1;fill-rule:nonzero;stroke:none" /><path
           id="path2440"
           d="m 28.586542,-2.5001146 c 0,-0.765625 -0.109375,-1.96875 -0.65625,-3.109375 -0.59375,-1.21875 -1.453125,-1.875 -1.546875,-1.875 -0.0625,0 -0.109375,0.046875 -0.109375,0.109375 0,0.03125 0,0.046875 0.1875,0.234375 0.984375,0.984375 1.546875,2.5625 1.546875,4.640625 0,1.71875002 -0.359375,3.46875002 -1.59375,4.71875 -0.140625,0.125 -0.140625,0.140625 -0.140625,0.171875 0,0.0625 0.04687,0.109375 0.109375,0.109375 0.09375,0 1,-0.6875 1.578125,-1.95312498 0.515625,-1.09375 0.625,-2.20312502 0.625,-3.04687502 z m 0,0"
           style="fill:#000000;fill-opacity:1;fill-rule:nonzero;stroke:none" /></g><path
         id="path2441"
         d="m -347.37503,379.19832 v 5.13795"
         style="fill:none;stroke:#000000;stroke-width:0.531333;stroke-linecap:butt;stroke-linejoin:miter;stroke-miterlimit:10;stroke-dasharray:none;stroke-opacity:1" /><path
         id="path2442"
         d="m -350.56305,381.69566 c 1.91286,-0.50479 2.81612,-1.62967 3.18805,-2.76299 0.37193,1.13332 1.27519,2.2582 3.18805,2.76299"
         style="fill:none;stroke:#000000;stroke-width:0.531333;stroke-linecap:round;stroke-linejoin:round;stroke-miterlimit:10;stroke-dasharray:none;stroke-opacity:1" /><g
         id="g2442"
         aria-label="i&#10;C2&#10;(ωt)"
         transform="translate(-386.0617,389.66198)"><path
           id="path2443"
           d="m 2.8292708,-6.2327917 c 0,-0.203125 -0.140625,-0.359375 -0.359375,-0.359375 -0.28125,0 -0.546875,0.265625 -0.546875,0.53125 0,0.1875 0.140625,0.359375 0.375,0.359375 0.234375,0 0.53125,-0.234375 0.53125,-0.53125 z m 0.09375,4.8125 c 0,-0.109375 -0.09375,-0.109375 -0.125,-0.109375 -0.09375,0 -0.09375,0.03125 -0.140625,0.1875 -0.1875,0.62500003 -0.515625,1.23437503 -1.015625,1.23437503 -0.171875,0 -0.25,-0.09375 -0.25,-0.328125 0,-0.25 0.0625,-0.390625 0.296875,-1.00000003 l 0.390625,-1.046875 c 0.109375,-0.28125 0.109375,-0.3125 0.21875,-0.578125 0.078125,-0.203125 0.125,-0.34375 0.125,-0.53125 0,-0.4375 -0.3125,-0.8125 -0.8125,-0.8125 -0.93749997,0 -1.31249997,1.453125 -1.31249997,1.53125 0,0.109375 0.109375,0.109375 0.109375,0.109375 0.109375,0 0.109375,-0.03125 0.15625,-0.1875 0.28125,-0.9375 0.67187497,-1.234375 1.01562497,-1.234375 0.078125,0 0.25,0 0.25,0.3125 0,0.21875 -0.078125,0.421875 -0.109375,0.53125 -0.078125,0.25 -0.53125,1.40625 -0.6875,1.84375 -0.10937497,0.25 -0.23437497,0.57812503 -0.23437497,0.79687503 0,0.46875 0.34374997,0.8125 0.81249997,0.8125 0.9375,0 1.3125,-1.43750003 1.3125,-1.53125003 z m 0,0"
           style="fill:#000000;fill-opacity:1;fill-rule:nonzero;stroke:none" /><path
           id="path2444"
           d="m 8.8722396,-1.5687292 0.4375,-1.75 c 0,-0.03125 -0.015625,-0.09375 -0.09375,-0.09375 -0.046875,0 -0.0625,0.015625 -0.125,0.09375 l -0.5,0.53125 c -0.0625,-0.078125 -0.453125,-0.625 -1.3125,-0.625 -1.703125,0 -3.359375,1.5 -3.359375,3.07812503 0,1.140625 0.890625,1.96874997 2.140625,1.96874997 0.375,0 1.046875,-0.078125 1.765625,-0.68749997 0.546875,-0.46875 0.703125,-1.0625 0.703125,-1.125 0,-0.09375 -0.078125,-0.09375 -0.125,-0.09375 -0.078125,0 -0.09375,0.03125 -0.125,0.109375 -0.28125,0.953125 -1.25,1.54687497 -2.09375,1.54687497 -0.75,0 -1.5625,-0.40624997 -1.5625,-1.49999997 0,-0.203125 0.046875,-1.29687503 0.84375,-2.18750003 0.484375,-0.53125 1.21875,-0.84375 1.875,-0.84375 0.8125,0 1.28125,0.578125 1.28125,1.359375 0,0.1875 -0.015625,0.25 -0.015625,0.28125 0,0.09375 0.09375,0.09375 0.125,0.09375 0.109375,0 0.109375,-0.015625 0.140625,-0.15625 z m 0,0"
           style="fill:#000000;fill-opacity:1;fill-rule:nonzero;stroke:none" /><path
           id="path2445"
           d="m 13.149583,0.22814583 h -0.234375 c -0.01563,0.15625 -0.09375,0.5625 -0.1875,0.625 -0.04687,0.046875 -0.578125,0.046875 -0.6875,0.046875 h -1.28125 c 0.734375,-0.640625 0.984375,-0.84375 1.390625,-1.171875 0.515625,-0.40625 1,-0.84375003 1,-1.50000003 0,-0.84375 -0.734375,-1.359375 -1.625,-1.359375 -0.859375,0 -1.453125,0.609375 -1.453125,1.25 0,0.34375 0.296875,0.390625 0.375,0.390625 0.15625,0 0.359375,-0.125 0.359375,-0.375 0,-0.125 -0.04687,-0.375 -0.40625,-0.375 0.21875,-0.484375 0.6875,-0.640625 1.015625,-0.640625 0.703125,0 1.0625,0.546875 1.0625,1.109375 0,0.609375 -0.4375,1.07812503 -0.65625,1.32812503 L 10.149583,1.2281458 c -0.07813,0.0625 -0.07813,0.078125 -0.07813,0.265625 h 2.875 z m 0,0"
           style="fill:#000000;fill-opacity:1;fill-rule:nonzero;stroke:none" /><path
           id="path2446"
           d="m 17.40349,2.3922083 c 0,-0.03125 0,-0.046875 -0.171875,-0.21875 -1.234375,-1.24999997 -1.5625,-3.14062497 -1.5625,-4.671875 0,-1.734375 0.375,-3.46875 1.609375,-4.703125 0.125,-0.125 0.125,-0.140625 0.125,-0.171875 0,-0.078125 -0.03125,-0.109375 -0.09375,-0.109375 -0.109375,0 -1,0.6875 -1.59375,1.953125 -0.5,1.09375 -0.625,2.203125 -0.625,3.03125 0,0.78125 0.109375,1.98437503 0.65625,3.12500003 0.609375,1.21874997 1.453125,1.87499997 1.5625,1.87499997 0.0625,0 0.09375,-0.03125 0.09375,-0.109375 z m 0,0"
           style="fill:#000000;fill-opacity:1;fill-rule:nonzero;stroke:none" /><path
           id="path2447"
           d="m 23.774583,-2.3734167 c 0.109375,-0.4375 0.21875,-0.9375 0.21875,-1.328125 0,-0.265625 -0.04687,-0.484375 -0.1875,-0.609375 -0.0625,-0.0625 -0.140625,-0.09375 -0.234375,-0.09375 -0.125,0 -0.25,0.0625 -0.34375,0.15625 -0.09375,0.109375 -0.140625,0.21875 -0.140625,0.328125 0,0.09375 0.03125,0.171875 0.109375,0.25 0.25,0.21875 0.375,0.515625 0.375,0.875 0,0.109375 -0.01563,0.25 -0.04687,0.359375 -0.21875,0.90625 -0.796875,1.82812503 -1.59375,1.82812503 -0.546875,0 -0.875,-0.375 -0.96875,-0.89062503 0.125,-0.28125 0.21875,-0.578125 0.296875,-0.875 0.01563,-0.09375 0.03125,-0.1875 0.03125,-0.265625 0,-0.15625 -0.04687,-0.265625 -0.1875,-0.265625 -0.1875,0 -0.28125,0.25 -0.328125,0.46875 -0.07813,0.3125 -0.125,0.609375 -0.140625,0.90625 -0.328125,0.53125003 -0.796875,0.92187503 -1.34375,0.92187503 -0.609375,0 -0.875,-0.50000003 -0.875,-1.12500003 0,-0.203125 0.03125,-0.421875 0.07813,-0.640625 0.15625,-0.609375 0.515625,-1.15625 0.890625,-1.6875 0.03125,-0.046875 0.04687,-0.09375 0.04687,-0.140625 0,-0.046875 -0.03125,-0.109375 -0.09375,-0.140625 -0.03125,-0.015625 -0.04687,-0.015625 -0.07813,-0.015625 -0.0625,0 -0.140625,0.03125 -0.1875,0.09375 -0.40625,0.5625 -0.65625,1.203125 -0.8125,1.828125 -0.109375,0.390625 -0.15625,0.765625 -0.15625,1.125 0,0.79687503 0.296875,1.42187503 1.046875,1.42187503 0.625,0 1.15625,-0.4375 1.53125,-1.0625 0.109375,0.625 0.453125,1.0625 1.125,1.0625 1.03125,0 1.671875,-1.28125003 1.96875,-2.48437503 z m 3.890625,0.953125 c 0,-0.109375 -0.07813,-0.109375 -0.109375,-0.109375 -0.09375,0 -0.109375,0.03125 -0.15625,0.140625 -0.421875,1.04687503 -0.953125,1.28125003 -1.296875,1.28125003 -0.203125,0 -0.3125,-0.125 -0.3125,-0.453125 0,-0.25 0.03125,-0.3125 0.0625,-0.48437503 l 0.734375,-2.9375 h 0.9375 c 0.203125,0 0.3125,0 0.3125,-0.203125 0,-0.109375 -0.109375,-0.109375 -0.28125,-0.109375 h -0.875 c 0.359375,-1.421875 0.40625,-1.609375 0.40625,-1.671875 0,-0.171875 -0.125,-0.265625 -0.296875,-0.265625 -0.03125,0 -0.3125,0 -0.390625,0.359375 l -0.390625,1.578125 h -0.9375 c -0.203125,0 -0.296875,0 -0.296875,0.1875 0,0.125 0.07813,0.125 0.28125,0.125 h 0.875 c -0.71875,2.828125 -0.765625,3.00000003 -0.765625,3.17187503 0,0.546875 0.375,0.921875 0.921875,0.921875 1.015625,0 1.578125,-1.45312503 1.578125,-1.53125003 z m 0,0"
           style="fill:#000000;fill-opacity:1;fill-rule:nonzero;stroke:none" /><path
           id="path2448"
           d="m 31.012865,-2.4984167 c 0,-0.765625 -0.109375,-1.96875 -0.65625,-3.109375 -0.59375,-1.21875 -1.453125,-1.875 -1.546875,-1.875 -0.0625,0 -0.109375,0.046875 -0.109375,0.109375 0,0.03125 0,0.046875 0.1875,0.234375 0.984375,0.984375 1.546875,2.5625 1.546875,4.640625 0,1.71875003 -0.359375,3.46875003 -1.59375,4.71875 -0.140625,0.125 -0.140625,0.140625 -0.140625,0.171875 0,0.0625 0.04687,0.109375 0.109375,0.109375 0.09375,0 1,-0.6875 1.578125,-1.95312497 0.515625,-1.09375 0.625,-2.20312503 0.625,-3.04687503 z m 0,0"
           style="fill:#000000;fill-opacity:1;fill-rule:nonzero;stroke:none" /></g><path
         id="path2449"
         d="m -511.78663,316.30409 h 2.30351"
         style="fill:none;stroke:#000000;stroke-width:0.531333;stroke-linecap:butt;stroke-linejoin:miter;stroke-miterlimit:10;stroke-dasharray:none;stroke-opacity:1" /><path
         id="path2450"
         d="m -511.98049,313.11603 c 0.50479,1.91286 1.62967,2.81612 2.76299,3.18805 -1.13332,0.37193 -2.2582,1.27519 -2.76299,3.18805"
         style="fill:none;stroke:#000000;stroke-width:0.531333;stroke-linecap:round;stroke-linejoin:round;stroke-miterlimit:10;stroke-dasharray:none;stroke-opacity:1" /><g
         id="g2450"
         aria-label="i&#10;e1&#10;(ωt)"
         transform="translate(-520.9124,307.45664)"><path
           id="path2451"
           d="m 2.828375,-6.2344896 c 0,-0.203125 -0.140625,-0.359375 -0.359375,-0.359375 -0.28125,0 -0.546875,0.265625 -0.546875,0.53125 0,0.1875 0.140625,0.359375 0.375,0.359375 0.234375,0 0.53125,-0.234375 0.53125,-0.53125 z m 0.09375,4.8125 c 0,-0.109375 -0.09375,-0.109375 -0.125,-0.109375 -0.09375,0 -0.09375,0.03125 -0.140625,0.1875 -0.1875,0.62500002 -0.515625,1.23437502 -1.015625,1.23437502 -0.171875,0 -0.25,-0.09375 -0.25,-0.328125 0,-0.25 0.0625,-0.390625 0.296875,-1.00000002 l 0.390625,-1.046875 c 0.109375,-0.28125 0.109375,-0.3125 0.21875,-0.578125 0.078125,-0.203125 0.125,-0.34375 0.125,-0.53125 0,-0.4375 -0.3125,-0.8125 -0.8125,-0.8125 -0.9375,0 -1.3125,1.453125 -1.3125,1.53125 0,0.109375 0.109375,0.109375 0.109375,0.109375 0.109375,0 0.109375,-0.03125 0.15625,-0.1875 0.28125,-0.9375 0.671875,-1.234375 1.015625,-1.234375 0.078125,0 0.25,0 0.25,0.3125 0,0.21875 -0.078125,0.421875 -0.109375,0.53125 -0.078125,0.25 -0.53125,1.40625 -0.6875,1.84375 -0.109375,0.25 -0.234375,0.57812502 -0.234375,0.79687502 0,0.46875 0.34375,0.8125 0.8125,0.8125 0.9375,0 1.3125,-1.43750002 1.3125,-1.53125002 z m 0,0"
           style="fill:#000000;fill-opacity:1;fill-rule:nonzero;stroke:none" /><path
           id="path2452"
           d="m 6.8869688,0.77722917 c 0,-0.046875 -0.0625,-0.125 -0.125,-0.125 -0.03125,0 -0.046875,0.015625 -0.109375,0.078125 -0.546875,0.64062503 -1.359375,0.64062503 -1.484375,0.64062503 -0.421875,0 -0.703125,-0.28125 -0.703125,-0.84375003 0,-0.09375 0,-0.234375 0.09375,-0.625 h 0.4375 c 0.1875,0 0.75,-0.015625 1.125,-0.140625 0.515625,-0.1875 0.609375,-0.515625 0.609375,-0.71875 0,-0.39062497 -0.390625,-0.62499997 -0.859375,-0.62499997 -0.84375,0 -1.96875,0.64062497 -1.96875,1.84374997 0,0.703125 0.4375,1.29687503 1.25,1.29687503 1.1875,0 1.734375,-0.68750003 1.734375,-0.78125003 z m -0.453125,-1.734375 c 0,0.671875 -1.1875,0.671875 -1.484375,0.671875 h -0.34375 c 0.296875,-1.01562497 1.0625,-1.09374997 1.265625,-1.09374997 0.296875,0 0.5625,0.15625 0.5625,0.42187497 z m 0,0"
           style="fill:#000000;fill-opacity:1;fill-rule:nonzero;stroke:none" /><path
           id="path2453"
           d="m 10.508063,1.4959792 v -0.25 h -0.265625 c -0.7031255,0 -0.7031255,-0.09375 -0.7031255,-0.32812503 V -2.9415208 c 0,-0.1875 0,-0.1875 -0.203125,-0.1875 -0.453125,0.4375 -1.078125,0.4375 -1.359375,0.4375 v 0.25 c 0.15625,0 0.625,0 1,-0.1875 v 3.54687497 c 0,0.23437503 0,0.32812503 -0.6875,0.32812503 h -0.265625 v 0.25 l 1.234375,-0.03125 z m 0,0"
           style="fill:#000000;fill-opacity:1;fill-rule:nonzero;stroke:none" /><path
           id="path2454"
           d="m 14.976813,2.3905104 c 0,-0.03125 0,-0.046875 -0.171875,-0.21875 -1.234375,-1.24999998 -1.5625,-3.14062498 -1.5625,-4.671875 0,-1.734375 0.375,-3.46875 1.609375,-4.703125 0.125,-0.125 0.125,-0.140625 0.125,-0.171875 0,-0.078125 -0.03125,-0.109375 -0.09375,-0.109375 -0.109375,0 -1,0.6875 -1.59375,1.953125 -0.5,1.09375 -0.625,2.203125 -0.625,3.03125 0,0.78125 0.109375,1.98437502 0.65625,3.12500002 0.609375,1.21874998 1.453125,1.87499998 1.5625,1.87499998 0.0625,0 0.09375,-0.03125 0.09375,-0.109375 z m 0,0"
           style="fill:#000000;fill-opacity:1;fill-rule:nonzero;stroke:none" /><path
           id="path2455"
           d="m 21.351813,-2.3751146 c 0.109375,-0.4375 0.21875,-0.9375 0.21875,-1.328125 0,-0.265625 -0.04687,-0.484375 -0.1875,-0.609375 -0.0625,-0.0625 -0.140625,-0.09375 -0.234375,-0.09375 -0.125,0 -0.25,0.0625 -0.34375,0.15625 -0.09375,0.109375 -0.140625,0.21875 -0.140625,0.328125 0,0.09375 0.03125,0.171875 0.109375,0.25 0.25,0.21875 0.375,0.515625 0.375,0.875 0,0.109375 -0.01563,0.25 -0.04687,0.359375 -0.21875,0.90625 -0.796875,1.82812502 -1.59375,1.82812502 -0.546875,0 -0.875,-0.375 -0.96875,-0.89062502 0.125,-0.28125 0.21875,-0.578125 0.296875,-0.875 0.01563,-0.09375 0.03125,-0.1875 0.03125,-0.265625 0,-0.15625 -0.04687,-0.265625 -0.1875,-0.265625 -0.1875,0 -0.28125,0.25 -0.328125,0.46875 -0.07813,0.3125 -0.125,0.609375 -0.140625,0.90625 -0.328125,0.53125 -0.796875,0.92187502 -1.34375,0.92187502 -0.609375,0 -0.875,-0.50000002 -0.875,-1.12500002 0,-0.203125 0.03125,-0.421875 0.07813,-0.640625 0.15625,-0.609375 0.515625,-1.15625 0.890625,-1.6875 0.03125,-0.046875 0.04687,-0.09375 0.04687,-0.140625 0,-0.046875 -0.03125,-0.109375 -0.09375,-0.140625 -0.03125,-0.015625 -0.04687,-0.015625 -0.07813,-0.015625 -0.0625,0 -0.140625,0.03125 -0.1875,0.09375 -0.40625,0.5625 -0.65625,1.203125 -0.8125,1.828125 -0.109375,0.390625 -0.15625,0.765625 -0.15625,1.125 0,0.79687502 0.296875,1.42187502 1.046875,1.42187502 0.625,0 1.15625,-0.4375 1.53125,-1.0625 0.109375,0.625 0.453125,1.0625 1.125,1.0625 1.03125,0 1.671875,-1.28125002 1.96875,-2.48437502 z m 3.890625,0.953125 c 0,-0.109375 -0.07813,-0.109375 -0.109375,-0.109375 -0.09375,0 -0.109375,0.03125 -0.15625,0.140625 -0.421875,1.04687502 -0.953125,1.28125002 -1.296875,1.28125002 -0.203125,0 -0.3125,-0.125 -0.3125,-0.453125 0,-0.25 0.03125,-0.3125 0.0625,-0.48437502 l 0.734375,-2.9375 h 0.9375 c 0.203125,0 0.3125,0 0.3125,-0.203125 0,-0.109375 -0.109375,-0.109375 -0.28125,-0.109375 h -0.875 c 0.359375,-1.421875 0.40625,-1.609375 0.40625,-1.671875 0,-0.171875 -0.125,-0.265625 -0.296875,-0.265625 -0.03125,0 -0.3125,0 -0.390625,0.359375 l -0.390625,1.578125 h -0.9375 c -0.203125,0 -0.296875,0 -0.296875,0.1875 0,0.125 0.07813,0.125 0.28125,0.125 h 0.875 c -0.71875,2.828125 -0.765625,3.00000002 -0.765625,3.17187502 0,0.546875 0.375,0.921875 0.921875,0.921875 1.015625,0 1.578125,-1.45312502 1.578125,-1.53125002 z m 0,0"
           style="fill:#000000;fill-opacity:1;fill-rule:nonzero;stroke:none" /><path
           id="path2456"
           d="m 28.590094,-2.5001146 c 0,-0.765625 -0.109375,-1.96875 -0.65625,-3.109375 -0.59375,-1.21875 -1.453125,-1.875 -1.546875,-1.875 -0.0625,0 -0.109375,0.046875 -0.109375,0.109375 0,0.03125 0,0.046875 0.1875,0.234375 0.984375,0.984375 1.546875,2.5625 1.546875,4.640625 0,1.71875002 -0.359375,3.46875002 -1.59375,4.71875 -0.140625,0.125 -0.140625,0.140625 -0.140625,0.171875 0,0.0625 0.04687,0.109375 0.109375,0.109375 0.09375,0 1,-0.6875 1.578125,-1.95312498 0.515625,-1.09375 0.625,-2.20312502 0.625,-3.04687502 z m 0,0"
           style="fill:#000000;fill-opacity:1;fill-rule:nonzero;stroke:none" /></g><path
         id="path2457"
         d="m -460.76228,378.667 v 5.13794"
         style="fill:none;stroke:#000000;stroke-width:0.531333;stroke-linecap:butt;stroke-linejoin:miter;stroke-miterlimit:10;stroke-dasharray:none;stroke-opacity:1" /><path
         id="path2458"
         d="m -457.57425,381.30761 c -1.91286,0.50479 -2.81612,1.62967 -3.18805,2.76299 -0.37193,-1.13332 -1.27519,-2.2582 -3.18805,-2.76299"
         style="fill:none;stroke:#000000;stroke-width:0.531333;stroke-linecap:round;stroke-linejoin:round;stroke-miterlimit:10;stroke-dasharray:none;stroke-opacity:1" /><g
         id="g2458"
         aria-label="i&#10;C1&#10;(ωt)"
         transform="translate(-454.0924,389.66198)"><path
           id="path2459"
           d="m 2.8286875,-6.2327917 c 0,-0.203125 -0.140625,-0.359375 -0.359375,-0.359375 -0.28125,0 -0.546875,0.265625 -0.546875,0.53125 0,0.1875 0.140625,0.359375 0.375,0.359375 0.234375,0 0.53125,-0.234375 0.53125,-0.53125 z m 0.09375,4.8125 c 0,-0.109375 -0.09375,-0.109375 -0.125,-0.109375 -0.09375,0 -0.09375,0.03125 -0.140625,0.1875 -0.1875,0.62500003 -0.515625,1.23437503 -1.015625,1.23437503 -0.171875,0 -0.25,-0.09375 -0.25,-0.328125 0,-0.25 0.0625,-0.390625 0.296875,-1.00000003 l 0.390625,-1.046875 c 0.109375,-0.28125 0.109375,-0.3125 0.21875,-0.578125 0.078125,-0.203125 0.125,-0.34375 0.125,-0.53125 0,-0.4375 -0.3125,-0.8125 -0.8125,-0.8125 -0.9375,0 -1.3125,1.453125 -1.3125,1.53125 0,0.109375 0.109375,0.109375 0.109375,0.109375 0.109375,0 0.109375,-0.03125 0.15625,-0.1875 0.28125,-0.9375 0.671875,-1.234375 1.015625,-1.234375 0.078125,0 0.25,0 0.25,0.3125 0,0.21875 -0.078125,0.421875 -0.109375,0.53125 -0.078125,0.25 -0.53125,1.40625 -0.6875,1.84375 -0.109375,0.25 -0.234375,0.57812503 -0.234375,0.79687503 0,0.46875 0.34375,0.8125 0.8125,0.8125 0.9375,0 1.3125,-1.43750003 1.3125,-1.53125003 z m 0,0"
           style="fill:#000000;fill-opacity:1;fill-rule:nonzero;stroke:none" /><path
           id="path2460"
           d="m 8.86775,-1.5687292 0.4375,-1.75 c 0,-0.03125 -0.015625,-0.09375 -0.09375,-0.09375 -0.046875,0 -0.0625,0.015625 -0.125,0.09375 l -0.5,0.53125 c -0.0625,-0.078125 -0.453125,-0.625 -1.3125,-0.625 -1.703125,0 -3.359375,1.5 -3.359375,3.07812503 0,1.140625 0.890625,1.96874997 2.140625,1.96874997 0.375,0 1.046875,-0.078125 1.765625,-0.68749997 0.546875,-0.46875 0.703125,-1.0625 0.703125,-1.125 0,-0.09375 -0.078125,-0.09375 -0.125,-0.09375 -0.078125,0 -0.09375,0.03125 -0.125,0.109375 -0.28125,0.953125 -1.25,1.54687497 -2.09375,1.54687497 -0.75,0 -1.5625,-0.40624997 -1.5625,-1.49999997 0,-0.203125 0.046875,-1.29687503 0.84375,-2.18750003 0.484375,-0.53125 1.21875,-0.84375 1.875,-0.84375 0.8125,0 1.28125,0.578125 1.28125,1.359375 0,0.1875 -0.015625,0.25 -0.015625,0.28125 0,0.09375 0.09375,0.09375 0.125,0.09375 0.109375,0 0.109375,-0.015625 0.140625,-0.15625 z m 0,0"
           style="fill:#000000;fill-opacity:1;fill-rule:nonzero;stroke:none" /><path
           id="path2461"
           d="m 12.93025,1.4937708 v -0.25 h -0.265625 c -0.703125,0 -0.703125,-0.09375 -0.703125,-0.32812497 V -2.9437292 c 0,-0.1875 0,-0.1875 -0.203125,-0.1875 -0.453125,0.4375 -1.078125,0.4375 -1.359375,0.4375 v 0.25 c 0.15625,0 0.625,0 1,-0.1875 v 3.54687503 c 0,0.23437497 0,0.32812497 -0.6875,0.32812497 h -0.265625 v 0.25 l 1.234375,-0.03125 z m 0,0"
           style="fill:#000000;fill-opacity:1;fill-rule:nonzero;stroke:none" /><path
           id="path2462"
           d="m 17.399,2.3922083 c 0,-0.03125 0,-0.046875 -0.171875,-0.21875 -1.234375,-1.24999997 -1.5625,-3.14062497 -1.5625,-4.671875 0,-1.734375 0.375,-3.46875 1.609375,-4.703125 0.125,-0.125 0.125,-0.140625 0.125,-0.171875 0,-0.078125 -0.03125,-0.109375 -0.09375,-0.109375 -0.109375,0 -1,0.6875 -1.59375,1.953125 -0.5,1.09375 -0.625,2.203125 -0.625,3.03125 0,0.78125 0.109375,1.98437503 0.65625,3.12500003 0.609375,1.21874997 1.453125,1.87499997 1.5625,1.87499997 0.0625,0 0.09375,-0.03125 0.09375,-0.109375 z m 0,0"
           style="fill:#000000;fill-opacity:1;fill-rule:nonzero;stroke:none" /><path
           id="path2463"
           d="m 23.774,-2.3734167 c 0.109375,-0.4375 0.21875,-0.9375 0.21875,-1.328125 0,-0.265625 -0.04687,-0.484375 -0.1875,-0.609375 -0.0625,-0.0625 -0.140625,-0.09375 -0.234375,-0.09375 -0.125,0 -0.25,0.0625 -0.34375,0.15625 -0.09375,0.109375 -0.140625,0.21875 -0.140625,0.328125 0,0.09375 0.03125,0.171875 0.109375,0.25 0.25,0.21875 0.375,0.515625 0.375,0.875 0,0.109375 -0.01563,0.25 -0.04687,0.359375 -0.21875,0.90625 -0.796875,1.82812503 -1.59375,1.82812503 -0.546875,0 -0.875,-0.375 -0.96875,-0.89062503 0.125,-0.28125 0.21875,-0.578125 0.296875,-0.875 0.01563,-0.09375 0.03125,-0.1875 0.03125,-0.265625 0,-0.15625 -0.04687,-0.265625 -0.1875,-0.265625 -0.1875,0 -0.28125,0.25 -0.328125,0.46875 -0.07813,0.3125 -0.125,0.609375 -0.140625,0.90625 -0.328125,0.53125003 -0.796875,0.92187503 -1.34375,0.92187503 -0.609375,0 -0.875,-0.50000003 -0.875,-1.12500003 0,-0.203125 0.03125,-0.421875 0.07813,-0.640625 0.15625,-0.609375 0.515625,-1.15625 0.890625,-1.6875 0.03125,-0.046875 0.04687,-0.09375 0.04687,-0.140625 0,-0.046875 -0.03125,-0.109375 -0.09375,-0.140625 -0.03125,-0.015625 -0.04687,-0.015625 -0.07813,-0.015625 -0.0625,0 -0.140625,0.03125 -0.1875,0.09375 -0.40625,0.5625 -0.65625,1.203125 -0.8125,1.828125 -0.109375,0.390625 -0.15625,0.765625 -0.15625,1.125 0,0.79687503 0.296875,1.42187503 1.046875,1.42187503 0.625,0 1.15625,-0.4375 1.53125,-1.0625 0.109375,0.625 0.453125,1.0625 1.125,1.0625 1.03125,0 1.671875,-1.28125003 1.96875,-2.48437503 z m 3.890625,0.953125 c 0,-0.109375 -0.07813,-0.109375 -0.109375,-0.109375 -0.09375,0 -0.109375,0.03125 -0.15625,0.140625 -0.421875,1.04687503 -0.953125,1.28125003 -1.296875,1.28125003 -0.203125,0 -0.3125,-0.125 -0.3125,-0.453125 0,-0.25 0.03125,-0.3125 0.0625,-0.48437503 l 0.734375,-2.9375 h 0.9375 c 0.203125,0 0.3125,0 0.3125,-0.203125 0,-0.109375 -0.109375,-0.109375 -0.28125,-0.109375 h -0.875 c 0.359375,-1.421875 0.40625,-1.609375 0.40625,-1.671875 0,-0.171875 -0.125,-0.265625 -0.296875,-0.265625 -0.03125,0 -0.3125,0 -0.390625,0.359375 l -0.390625,1.578125 h -0.9375 c -0.203125,0 -0.296875,0 -0.296875,0.1875 0,0.125 0.07813,0.125 0.28125,0.125 h 0.875 c -0.71875,2.828125 -0.765625,3.00000003 -0.765625,3.17187503 0,0.546875 0.375,0.921875 0.921875,0.921875 1.015625,0 1.578125,-1.45312503 1.578125,-1.53125003 z m 0,0"
           style="fill:#000000;fill-opacity:1;fill-rule:nonzero;stroke:none" /><path
           id="path2464"
           d="m 31.012281,-2.4984167 c 0,-0.765625 -0.109375,-1.96875 -0.65625,-3.109375 -0.59375,-1.21875 -1.453125,-1.875 -1.546875,-1.875 -0.0625,0 -0.109375,0.046875 -0.109375,0.109375 0,0.03125 0,0.046875 0.1875,0.234375 0.984375,0.984375 1.546875,2.5625 1.546875,4.640625 0,1.71875003 -0.359375,3.46875003 -1.59375,4.71875 -0.140625,0.125 -0.140625,0.140625 -0.140625,0.171875 0,0.0625 0.04687,0.109375 0.109375,0.109375 0.09375,0 1,-0.6875 1.578125,-1.95312497 0.515625,-1.09375 0.625,-2.20312503 0.625,-3.04687503 z m 0,0"
           style="fill:#000000;fill-opacity:1;fill-rule:nonzero;stroke:none" /></g></g></g></svg>
