<?xml version="1.0" encoding="UTF-8" standalone="no"?>
<!-- Created with Inkscape (http://www.inkscape.org/) -->

<svg
   width="144.67126mm"
   height="45.421329mm"
   viewBox="0 0 144.67127 45.421329"
   version="1.1"
   id="svg1"
   xml:space="preserve"
   xmlns="http://www.w3.org/2000/svg"
   xmlns:svg="http://www.w3.org/2000/svg"><defs
     id="defs1" /><g
     id="g1606"
     transform="matrix(0.26458333,0,0,0.26458333,-906.54214,-93.881619)"><g
       id="g14"><path
         id="path1822"
         d="m 70.867,28.3468 -1e-5,29.42386 m 0,26.1927 1e-5,29.42388 h 9.2411 m 52.38482,0 h 9.24112"
         style="fill:none;stroke:#000000;stroke-width:0.3985;stroke-linecap:butt;stroke-linejoin:miter;stroke-miterlimit:10;stroke-dasharray:none;stroke-opacity:1"
         transform="matrix(1.3333333,0,0,-1.3333333,3390.4653,564.02933)" /><path
         id="path1823"
         d="m 57.77065,70.867 c 0,-7.23298 5.86335,-13.09634 13.09634,-13.09634 7.233,0 13.09636,5.86336 13.09636,13.09634 0,7.233 -5.86336,13.09636 -13.09636,13.09636 C 63.634,83.96336 57.77065,78.1 57.77065,70.867 Z"
         style="fill:none;stroke:#000000;stroke-width:0.797;stroke-linecap:butt;stroke-linejoin:miter;stroke-miterlimit:10;stroke-dasharray:none;stroke-opacity:1"
         transform="matrix(1.3333333,0,0,-1.3333333,3390.4653,564.02933)" /><path
         id="path1824"
         d="m 70.86699,57.77066 v 26.1927"
         style="fill:none;stroke:#000000;stroke-width:0.797;stroke-linecap:butt;stroke-linejoin:miter;stroke-miterlimit:10;stroke-dasharray:none;stroke-opacity:1"
         transform="matrix(1.3333333,0,0,-1.3333333,3390.4653,564.02933)" /><path
         id="path1825"
         d="M 132.49292,106.83907 H 80.1081 v 13.09633 h 52.38482 z"
         style="fill:none;stroke:#000000;stroke-width:0.797;stroke-linecap:butt;stroke-linejoin:miter;stroke-miterlimit:10;stroke-dasharray:none;stroke-opacity:1"
         transform="matrix(1.3333333,0,0,-1.3333333,3390.4653,564.02933)" /><g
         id="g1825"
         aria-label="λ/4|Z&#10;0"
         transform="matrix(1.4666667,0,0,1.4666667,3505.464,398.956)"><path
           id="path1826"
           d="m 5.4551207,0.01135653 c 0,-0.03196022 -0.010653,-0.05326704 -0.042614,-0.08522727 C 5.305973,-0.19105824 5.252706,-0.34020597 5.1781321,-0.53196733 L 3.143331,-6.2102344 c -0.2024148,-0.5752841 -0.7457387,-0.703125 -1.2144887,-0.703125 -0.042614,0 -0.1704545,0 -0.1704545,0.1065341 0,0.085227 0.085227,0.1065341 0.085227,0.1065341 0.3302556,0.053267 0.3941761,0.1171875 0.6498579,0.7990057 l 0.9588068,2.7059659 -2.74857952,2.72727272 c -0.1171875,0.1171875 -0.17045454,0.18110796 -0.17045454,0.30894887 0,0.17045454 0.13849432,0.28764204 0.29829545,0.28764204 0.15980114,0 0.24502841,-0.10653409 0.31960231,-0.20241477 L 3.5588139,-2.9076776 c 0.4048296,1.0440341 0.884233,2.56747163 1.0440341,2.80184663 0.1598011,0.21306819 0.2556818,0.21306819 0.5326705,0.21306819 H 5.3485866 C 5.4444673,0.09658381 5.4551207,0.04331676 5.4551207,0.01135653 Z M 10.233175,-7.2755753 c 0,-0.1065341 -0.08523,-0.1917613 -0.202415,-0.1917613 -0.063921,0 -0.1384944,0.03196 -0.1598012,0.085227 L 6.4086009,2.1100781 c -0.053267,0.1278409 -0.053267,0.181108 -0.053267,0.181108 0,0.1065341 0.095881,0.2024148 0.2024148,0.2024148 0.1278409,0 0.1598011,-0.074574 0.2237216,-0.2450285 l 3.3984377,-9.3430397 c 0.05327,-0.1278409 0.05327,-0.181108 0.05327,-0.181108 z m 0,0"
           style="fill:#000000;fill-opacity:1;fill-rule:nonzero;stroke:none" /><path
           id="path1827"
           d="M 15.479979,-1.6399219 V -1.9488707 H 14.489212 V -6.487223 c 0,-0.1917614 0,-0.2556818 -0.159801,-0.2556818 -0.08523,0 -0.117188,0 -0.202415,0.1171875 l -3.057529,4.6768466 v 0.3089488 h 2.652699 v 0.86292616 c 0,0.36221591 -0.02131,0.46875 -0.756392,0.46875 H 12.752706 V 7.03125e-4 c 0.415483,-0.031960225 0.926847,-0.031960225 1.34233,-0.031960225 0.426136,0 0.948153,0 1.363636,0.031960225 V -0.30824574 h -0.213068 c -0.735086,0 -0.756392,-0.10653409 -0.756392,-0.46875 V -1.6399219 Z m -1.704546,-0.3089488 h -2.428977 l 2.428977,-3.7180398 z m 0,0"
           style="fill:#000000;fill-opacity:1;fill-rule:nonzero;stroke:none" /><path
           id="path1828"
           d="M 20.678842,2.1633452 V -7.137081 c 0,-0.1384943 0,-0.3302556 -0.202414,-0.3302556 -0.202415,0 -0.202415,0.1917613 -0.202415,0.3302556 v 9.3004262 c 0,0.1384943 0,0.3302557 0.202415,0.3302557 0.202414,0 0.202414,-0.1917614 0.202414,-0.3302557 z m 0,0"
           style="fill:#000000;fill-opacity:1;fill-rule:nonzero;stroke:none" /><path
           id="path1829"
           d="m 31.396172,-2.5454616 c 0,-0.053267 -0.03196,-0.1171875 -0.127841,-0.1171875 -0.08523,0 -0.09588,0.042614 -0.170455,0.2556818 -0.436789,1.3529829 -0.916193,2.06676133 -2.610085,2.06676133 h -1.693892 l 5.56108,-6.22159093 c 0.01065,-0.042614 0.03196,-0.095881 0.03196,-0.1491477 0,-0.095881 -0.05327,-0.095881 -0.245028,-0.095881 h -4.208097 c -0.234375,0 -0.245028,0.010653 -0.308949,0.2024148 l -0.543324,1.7897727 c -0.02131,0.053267 -0.03196,0.1384943 -0.03196,0.1384943 0,0 0,0.1171875 0.117187,0.1171875 0.08523,0 0.106535,-0.074574 0.127841,-0.1065341 0.383523,-1.171875 0.894887,-1.8323863 2.450284,-1.8323863 h 1.629972 l -5.571733,6.2322443 c 0,0 -0.04261,0.14914772 -0.04261,0.18110795 0,0.085227275 0.07457,0.085227275 0.255682,0.085227275 h 4.325284 c 0.245029,0 0.255682,-0.010653405 0.308949,-0.202414775 l 0.713779,-2.19460225 c 0.01065,-0.042614 0.03196,-0.1171875 0.03196,-0.1491477 z m 0,0"
           style="fill:#000000;fill-opacity:1;fill-rule:nonzero;stroke:none" /><path
           id="path1830"
           d="m 35.585625,-0.73171875 c 0,-0.76704545 -0.09588,-1.32102275 -0.415483,-1.81107955 -0.213068,-0.3196023 -0.649858,-0.5965909 -1.203835,-0.5965909 -1.619318,0 -1.619318,1.9069602 -1.619318,2.40767045 0,0.50071023 0,2.36505685 1.619318,2.36505685 1.619318,0 1.619318,-1.86434662 1.619318,-2.36505685 z m -0.639205,-0.0852273 c 0,0.51136363 0,1.02272727 -0.08523,1.47017045 -0.138494,0.6285512 -0.617898,0.7883523 -0.894886,0.7883523 -0.319602,0 -0.745739,-0.1917614 -0.884233,-0.76704548 -0.09588,-0.40482955 -0.09588,-0.98011364 -0.09588,-1.49147727 0,-0.51136365 0,-1.04403405 0.09588,-1.42755675 0.149148,-0.5539773 0.596591,-0.703125 0.884233,-0.703125 0.372869,0 0.735085,0.234375 0.862926,0.6392045 0.117187,0.3728693 0.117187,0.884233 0.117187,1.49147725 z m 0,0"
           style="fill:#000000;fill-opacity:1;fill-rule:nonzero;stroke:none" /></g><path
         id="path1831"
         d="m 141.73404,28.3468 -2e-5,34.88062 m 0,15.27917 2e-5,34.88065"
         style="fill:none;stroke:#000000;stroke-width:0.3985;stroke-linecap:butt;stroke-linejoin:miter;stroke-miterlimit:10;stroke-dasharray:none;stroke-opacity:1"
         transform="matrix(1.3333333,0,0,-1.3333333,3390.4653,564.02933)" /><path
         id="path1832"
         d="m 141.73402,63.22742 -6.54815,14.51516"
         style="fill:none;stroke:#000000;stroke-width:0.797;stroke-linecap:butt;stroke-linejoin:miter;stroke-miterlimit:10;stroke-dasharray:none;stroke-opacity:1"
         transform="matrix(1.3333333,0,0,-1.3333333,3390.4653,564.02933)" /><path
         id="path1833"
         d="m 175.75012,28.3468 v 38.15486 m 0,8.73069 v 38.15489"
         style="fill:none;stroke:#000000;stroke-width:0.3985;stroke-linecap:butt;stroke-linejoin:miter;stroke-miterlimit:10;stroke-dasharray:none;stroke-opacity:1"
         transform="matrix(1.3333333,0,0,-1.3333333,3390.4653,564.02933)" /><path
         id="path1834"
         d="m 162.65378,66.50166 h 26.1927 m -26.1927,8.73069 h 26.1927"
         style="fill:none;stroke:#000000;stroke-width:0.797;stroke-linecap:butt;stroke-linejoin:miter;stroke-miterlimit:10;stroke-dasharray:none;stroke-opacity:1"
         transform="matrix(1.3333333,0,0,-1.3333333,3390.4653,564.02933)" /><g
         id="g1834"
         aria-label="C&#10;s"
         transform="matrix(1.4666667,0,0,1.4666667,3646.3627,472.68667)"><path
           id="path1835"
           d="m 6.4457315,-2.3857955 c 0,-0.106534 -0.1171875,-0.106534 -0.1171875,-0.106534 -0.06392,0 -0.1171875,0.021307 -0.1278409,0.106534 -0.095881,0.2876421 -0.3196022,0.9907671 -1.0120738,1.56605118 -0.6818182,0.56463068 -1.3103694,0.73508523 -1.8323864,0.73508523 -0.8948864,0 -1.9495739,-0.52201705 -1.9495739,-2.07741481 0,-0.5646306 0.2024148,-2.1839488 1.2038353,-3.3451704 0.6072443,-0.703125 1.5447443,-1.2038352 2.4289772,-1.2038352 1.0120739,0 1.6086648,0.7670454 1.6086648,1.9176136 0,0.4048295 -0.03196,0.4154829 -0.03196,0.5113636 0,0.095881 0.1065341,0.095881 0.1491477,0.095881 0.1278409,0 0.1278409,-0.021307 0.181108,-0.1917614 l 0.6285511,-2.5461647 c 0,-0.03196 -0.021307,-0.095881 -0.1171875,-0.095881 -0.021307,0 -0.03196,0.010653 -0.1491477,0.1171875 L 6.6161863,-6.1357955 C 6.5203053,-6.2742898 6.062209,-7.0200284 4.9649079,-7.0200284 c -2.2265625,0 -4.46377844,2.1946023 -4.46377844,4.506392 0,1.65127845 1.17187504,2.73792617 2.69531254,2.73792617 0.8629261,0 1.6299716,-0.40482954 2.1519886,-0.86292613 C 6.275277,-1.4589489 6.4457315,-2.3644886 6.4457315,-2.3857955 Z m 0,0"
           style="fill:#000000;fill-opacity:1;fill-rule:nonzero;stroke:none" /><path
           id="path1836"
           d="m 10.262315,0.40806108 c 0,-0.63920455 -0.7031247,-0.76704546 -0.9694599,-0.80965909 -0.06392,-0.0106534 -0.234375,-0.0426136 -0.2769886,-0.053267 -0.2556818,-0.053267 -0.3835227,-0.20241477 -0.3835227,-0.3515625 0,-0.15980113 0.1278409,-0.35156249 0.2769886,-0.44744319 0.1917614,-0.1171875 0.4367898,-0.1384943 0.5539773,-0.1384943 0.1491477,0 0.5113636,0.021307 0.6605113,0.2663353 -0.1811079,0.042614 -0.287642,0.18110787 -0.287642,0.3302556 0,0.15980114 0.1384943,0.21306818 0.223722,0.21306818 0.07457,0 0.340909,-0.0319602 0.340909,-0.39417613 0,-0.44744315 -0.5007106,-0.60724425 -0.9268469,-0.60724425 -1.0866478,0 -1.2890625,0.79900561 -1.2890625,1.0227272 0,0.25568182 0.1491477,0.42613637 0.2450284,0.51136364 0.1811079,0.13849432 0.3089488,0.15980113 0.7883523,0.24502841 0.1491477,0.0319602 0.5965909,0.1171875 0.5965909,0.45809659 0,0.12784091 -0.074574,0.38352266 -0.3728694,0.56463066 -0.2663352,0.1491477 -0.6178977,0.1491477 -0.6924715,0.1491477 -0.2876421,0 -0.6818182,-0.06392 -0.8416194,-0.2876419 0.234375,-0.03196 0.3835228,-0.20241487 0.3835228,-0.40482964 0,-0.17045455 -0.1278409,-0.25568182 -0.2769887,-0.25568182 -0.2024147,0 -0.3941761,0.15980113 -0.3941761,0.46875 0,0.41548286 0.4367898,0.68181826 1.1186079,0.68181826 1.2784092,0 1.5234372,-0.88423303 1.5234372,-1.16122172 z m 0,0"
           style="fill:#000000;fill-opacity:1;fill-rule:nonzero;stroke:none" /></g><path
         id="path1837"
         d="m 175.75012,113.38724 h 12.41582 m 26.19272,0 h 12.41582 -0.1133 m 8.73068,0 h -0.11326 13.83302 m 26.1927,0 h 13.83304"
         style="fill:none;stroke:#000000;stroke-width:0.3985;stroke-linecap:butt;stroke-linejoin:miter;stroke-miterlimit:10;stroke-dasharray:none;stroke-opacity:1"
         transform="matrix(1.3333333,0,0,-1.3333333,3390.4653,564.02933)" /><path
         id="path1838"
         d="m 187.76738,113.22783 c 0,3.61648 1.79468,6.54816 4.00853,6.54816 2.21387,0 4.00854,-2.93168 4.00854,-6.54816 0,-1.80815 -0.73289,-3.27393 -1.63696,-3.27393 -0.90405,0 -1.63695,1.46578 -1.63695,3.27393 0,3.61648 1.79468,6.54816 4.00855,6.54816 2.21385,0 4.00853,-2.93168 4.00853,-6.54816 0,-1.80815 -0.7329,-3.27393 -1.63695,-3.27393 -0.90407,0 -1.63695,1.46578 -1.63695,3.27393 0,3.61648 1.79467,6.54816 4.00853,6.54816 2.21387,0 4.00853,-2.93168 4.00853,-6.54816 0,-1.80815 -0.73288,-3.27393 -1.63695,-3.27393 -0.90405,0 -1.63694,1.46578 -1.63694,3.27393 0,3.61648 1.79467,6.54816 4.00853,6.54816 2.21386,0 4.00854,-2.93168 4.00854,-6.54816 0,-1.80815 -0.73289,-3.27393 -1.63695,-3.27393 -0.90406,0 -1.63696,1.46578 -1.63696,3.27393 0,3.61648 1.79468,6.54816 4.00855,6.54816 2.21385,0 4.00853,-2.93168 4.00853,-6.54816"
         style="fill:none;stroke:#000000;stroke-width:0.797;stroke-linecap:butt;stroke-linejoin:bevel;stroke-miterlimit:10;stroke-dasharray:none;stroke-opacity:1"
         transform="matrix(1.3333333,0,0,-1.3333333,3390.4653,564.02933)" /><g
         id="g1838"
         aria-label="L&#10;1"
         transform="matrix(1.4666667,0,0,1.4666667,3650.5613,398.956)"><path
           id="path1839"
           d="m 6.4034943,-2.4602344 c 0,-0.042614 -0.03196,-0.1065341 -0.1171875,-0.1065341 -0.085227,0 -0.095881,0.042614 -0.1704545,0.2024148 -0.3409091,0.9161932 -0.7776989,2.05610796 -2.5035512,2.05610796 H 2.6854545 c -0.1491477,0 -0.1598011,0 -0.2237215,-0.0106534 -0.095881,-0.0106534 -0.127841,-0.0213068 -0.127841,-0.0958807 0,-0.0319602 0,-0.053267 0.042614,-0.234375 L 3.7294886,-6.0291264 c 0.085227,-0.3515625 0.1171875,-0.46875 1.0546875,-0.46875 0.2982955,0 0.3728694,0 0.3728694,-0.181108 0,-0.1278409 -0.1065341,-0.1278409 -0.1598012,-0.1278409 l -1.4701704,0.03196 -1.3210228,-0.03196 c -0.074574,0 -0.1917613,0 -0.1917613,0.2024148 0,0.1065341 0.085227,0.1065341 0.2769886,0.1065341 0,0 0.2130682,0 0.3835227,0.021307 0.1704546,0.021307 0.2663353,0.03196 0.2663353,0.1598011 0,0.042614 -0.010653,0.074574 -0.042614,0.1917614 l -1.3316761,5.34801136 c -0.1065341,0.39417614 -0.1171875,0.46875 -0.90553978,0.46875 -0.17045455,0 -0.27698864,0 -0.27698864,0.20241477 0,0.106534095 0.0958807,0.106534095 0.27698864,0.106534095 H 5.274233 c 0.234375,0 0.2450284,0 0.3089488,-0.170454545 L 6.3608807,-2.3217401 c 0.042614,-0.106534 0.042614,-0.1384943 0.042614,-0.1384943 z m 0,0"
           style="fill:#000000;fill-opacity:1;fill-rule:nonzero;stroke:none" /><path
           id="path1840"
           d="M 10.081584,1.4948437 V 1.2391619 H 9.8152486 c -0.703125,0 -0.703125,-0.085227 -0.703125,-0.31960224 V -2.9476278 c 0,-0.181108 -0.010653,-0.1917614 -0.2024148,-0.1917614 C 8.4622656,-2.7025994 7.8230611,-2.691946 7.535419,-2.691946 v 0.2556818 c 0.1704546,0 0.6285512,0 1.0120739,-0.2024148 v 3.55823866 c 0,0.23437504 0,0.31960224 -0.6924716,0.31960224 H 7.5886861 v 0.2556818 l 1.2464488,-0.03196 z m 0,0"
           style="fill:#000000;fill-opacity:1;fill-rule:nonzero;stroke:none" /></g><path
         id="path1841"
         d="m 226.66118,126.48358 v -26.1927 m 8.73068,26.1927 v -26.1927"
         style="fill:none;stroke:#000000;stroke-width:0.797;stroke-linecap:butt;stroke-linejoin:miter;stroke-miterlimit:10;stroke-dasharray:none;stroke-opacity:1"
         transform="matrix(1.3333333,0,0,-1.3333333,3390.4653,564.02933)" /><g
         id="g1841"
         aria-label="C&#10;1"
         transform="matrix(1.4666667,0,0,1.4666667,3689.9973,389.352)"><path
           id="path1842"
           d="m 6.4444673,-2.3866619 c 0,-0.1065341 -0.1171875,-0.1065341 -0.1171875,-0.1065341 -0.06392,0 -0.1171875,0.021307 -0.1278409,0.1065341 -0.095881,0.287642 -0.3196023,0.990767 -1.0120738,1.5660511 -0.6818182,0.56463069 -1.3103694,0.73508523 -1.8323864,0.73508523 -0.8948864,0 -1.9495739,-0.52201704 -1.9495739,-2.07741473 0,-0.5646307 0.2024148,-2.1839489 1.2038353,-3.3451705 0.6072443,-0.703125 1.5447443,-1.2038352 2.4289772,-1.2038352 1.0120739,0 1.6086648,0.7670454 1.6086648,1.9176136 0,0.4048296 -0.03196,0.415483 -0.03196,0.5113636 0,0.095881 0.1065341,0.095881 0.1491477,0.095881 0.1278409,0 0.1278409,-0.021307 0.181108,-0.1917613 l 0.6285511,-2.5461648 c 0,-0.03196 -0.021307,-0.095881 -0.1171875,-0.095881 -0.021307,0 -0.03196,0.010653 -0.1491477,0.1171875 l -0.6924716,0.7670455 c -0.095881,-0.1384944 -0.5539773,-0.884233 -1.6512784,-0.884233 -2.2265625,0 -4.46377844,2.1946023 -4.46377844,4.5063921 0,1.65127837 1.17187504,2.7379261 2.69531254,2.7379261 0.8629261,0 1.6299715,-0.40482955 2.1519886,-0.86292614 C 6.2740128,-1.4598153 6.4444673,-2.3653551 6.4444673,-2.3866619 Z m 0,0"
           style="fill:#000000;fill-opacity:1;fill-rule:nonzero;stroke:none" /><path
           id="path1843"
           d="M 10.423516,1.4938423 V 1.2381605 H 10.15718 c -0.7031246,0 -0.7031246,-0.085227 -0.7031246,-0.31960226 V -2.9486293 c 0,-0.1811079 -0.010653,-0.1917613 -0.2024148,-0.1917613 -0.4474432,0.4367897 -1.0866477,0.4474432 -1.3742897,0.4474432 v 0.2556818 c 0.1704545,0 0.6285511,0 1.0120738,-0.2024148 v 3.55823864 c 0,0.23437496 0,0.31960226 -0.6924716,0.31960226 H 7.9306179 v 0.2556818 l 1.2464489,-0.03196 z m 0,0"
           style="fill:#000000;fill-opacity:1;fill-rule:nonzero;stroke:none" /></g><path
         id="path1844"
         d="m 248.71306,113.22783 c 0,3.61648 1.79466,6.54816 4.00853,6.54816 2.21387,0 4.00853,-2.93168 4.00853,-6.54816 0,-1.80815 -0.73288,-3.27393 -1.63695,-3.27393 -0.90405,0 -1.63695,1.46578 -1.63695,3.27393 0,3.61648 1.79468,6.54816 4.00853,6.54816 2.21387,0 4.00855,-2.93168 4.00855,-6.54816 0,-1.80815 -0.7329,-3.27393 -1.63695,-3.27393 -0.90407,0 -1.63696,1.46578 -1.63696,3.27393 0,3.61648 1.79467,6.54816 4.00854,6.54816 2.21385,0 4.00853,-2.93168 4.00853,-6.54816 0,-1.80815 -0.73289,-3.27393 -1.63695,-3.27393 -0.90406,0 -1.63694,1.46578 -1.63694,3.27393 0,3.61648 1.79466,6.54816 4.00853,6.54816 2.21386,0 4.00853,-2.93168 4.00853,-6.54816 0,-1.80815 -0.73288,-3.27393 -1.63695,-3.27393 -0.90406,0 -1.63695,1.46578 -1.63695,3.27393 0,3.61648 1.79468,6.54816 4.00853,6.54816 2.21387,0 4.00854,-2.93168 4.00854,-6.54816"
         style="fill:none;stroke:#000000;stroke-width:0.797;stroke-linecap:butt;stroke-linejoin:bevel;stroke-miterlimit:10;stroke-dasharray:none;stroke-opacity:1"
         transform="matrix(1.3333333,0,0,-1.3333333,3390.4653,564.02933)" /><g
         id="g1844"
         aria-label="1/ω&#10;2&#10;C&#10;s"
         transform="matrix(1.4666667,0,0,1.4666667,3716.3333,398.956)"><path
           id="path1845"
           d="M 4.1752486,7.03125e-4 V -0.30824574 H 3.8556463 c -0.8948864,0 -0.9268466,-0.10653409 -0.9268466,-0.47940341 V -6.3700355 c 0,-0.2450284 0,-0.2663352 -0.234375,-0.2663352 -0.6178977,0.6392045 -1.4914773,0.6392045 -1.81107953,0.6392045 v 0.3089489 c 0.20241473,0 0.78835223,0 1.31036933,-0.2556818 v 5.15624995 c 0,0.36221591 -0.03196,0.47940341 -0.9268466,0.47940341 H 0.94726562 V 7.03125e-4 C 1.2988281,-0.0312571 2.1617543,-0.0312571 2.5559304,-0.0312571 c 0.4048295,0 1.2677557,0 1.6193182,0.031960225 z m 0,0"
           style="fill:#000000;fill-opacity:1;fill-rule:nonzero;stroke:none" /><path
           id="path1846"
           d="m 9.4034091,-7.2755753 c 0,-0.1065341 -0.085227,-0.1917613 -0.2024148,-0.1917613 -0.06392,0 -0.1384943,0.03196 -0.1598011,0.085227 l -3.462358,9.4921875 c -0.053267,0.1278409 -0.053267,0.181108 -0.053267,0.181108 0,0.1065341 0.095881,0.2024148 0.2024148,0.2024148 0.1278409,0 0.1598011,-0.074574 0.2237215,-0.2450285 L 9.350142,-7.0944673 c 0.053267,-0.1278409 0.053267,-0.181108 0.053267,-0.181108 z m 6.3441049,4.9005682 c 0.117188,-0.4367898 0.234375,-0.9268466 0.234375,-1.3316761 0,-0.2556819 -0.05327,-0.4794034 -0.202415,-0.6072444 -0.06392,-0.053267 -0.138494,-0.085227 -0.223721,-0.085227 -0.127841,0 -0.255682,0.053267 -0.351563,0.1598011 -0.09588,0.095881 -0.138494,0.2024148 -0.138494,0.3196023 0,0.095881 0.03196,0.1704545 0.106534,0.2450284 0.245029,0.2237216 0.383523,0.5326704 0.383523,0.8735795 0,0.1171875 -0.01065,0.2556819 -0.04261,0.3728694 -0.234375,0.9055397 -0.809659,1.82173291 -1.598011,1.82173291 -0.553977,0 -0.884233,-0.38352273 -0.96946,-0.89488641 0.127841,-0.2769886 0.223721,-0.575284 0.298295,-0.8735795 0.01065,-0.095881 0.03196,-0.181108 0.03196,-0.2663352 0,-0.1491478 -0.04261,-0.2556818 -0.181108,-0.2556818 -0.191761,0 -0.298295,0.2450284 -0.340909,0.46875 -0.08523,0.3089488 -0.117187,0.6072443 -0.127841,0.8948863 -0.330255,0.54332388 -0.809659,0.92684661 -1.363636,0.92684661 -0.607244,0 -0.862926,-0.50071021 -0.862926,-1.12926141 0,-0.1917613 0.03196,-0.4261363 0.08523,-0.6392045 0.149148,-0.6072443 0.50071,-1.1612216 0.884233,-1.6832386 0.03196,-0.042614 0.05327,-0.095881 0.05327,-0.1384944 0,-0.053267 -0.04261,-0.106534 -0.09588,-0.1384943 -0.03196,-0.021307 -0.06392,-0.021307 -0.08523,-0.021307 -0.06392,0 -0.127841,0.03196 -0.181108,0.095881 -0.404829,0.5646307 -0.660511,1.2038352 -0.820312,1.8323864 -0.09588,0.3728693 -0.149148,0.7670454 -0.149148,1.1186079 0,0.79900569 0.287642,1.41690342 1.044034,1.41690342 0.628551,0 1.150568,-0.43678978 1.523438,-1.0546875 0.117187,0.61789772 0.458096,1.0546875 1.129261,1.0546875 1.033381,0 1.661932,-1.27840912 1.960227,-2.48224432 z m 0,0"
           style="fill:#000000;fill-opacity:1;fill-rule:nonzero;stroke:none" /><path
           id="path1847"
           d="M 20.046165,-4.8838849 H 19.81179 c -0.02131,0.1491477 -0.09588,0.5646306 -0.191762,0.6285511 -0.05327,0.042614 -0.585937,0.042614 -0.681818,0.042614 h -1.289062 c 0.735085,-0.6498579 0.980113,-0.8416193 1.395596,-1.171875 0.522017,-0.4048295 1.001421,-0.8416193 1.001421,-1.5021307 0,-0.8416193 -0.745739,-1.3636363 -1.629972,-1.3636363 -0.873579,0 -1.459517,0.6072443 -1.459517,1.2464488 0,0.362216 0.298296,0.3941762 0.372869,0.3941762 0.170455,0 0.37287,-0.1171875 0.37287,-0.3728693 0,-0.1171875 -0.05327,-0.3622159 -0.415483,-0.3622159 0.213068,-0.5007103 0.692471,-0.649858 1.022727,-0.649858 0.692472,0 1.054688,0.5433239 1.054688,1.1079545 0,0.6072444 -0.426137,1.0866478 -0.649858,1.3423296 l -1.683239,1.6512784 c -0.07457,0.063921 -0.07457,0.085227 -0.07457,0.2769886 h 2.876421 z m 0,0"
           style="fill:#000000;fill-opacity:1;fill-rule:nonzero;stroke:none" /><path
           id="path1848"
           d="m 27.434304,-2.3856605 c 0,-0.1065341 -0.117188,-0.1065341 -0.117188,-0.1065341 -0.06392,0 -0.117187,0.021307 -0.12784,0.1065341 -0.09588,0.287642 -0.319603,0.990767 -1.012074,1.56605112 -0.681818,0.56463069 -1.31037,0.73508523 -1.832387,0.73508523 -0.894886,0 -1.949574,-0.52201704 -1.949574,-2.07741475 0,-0.5646307 0.202415,-2.1839489 1.203836,-3.3451705 0.607244,-0.703125 1.544744,-1.2038352 2.428977,-1.2038352 1.012074,0 1.608665,0.7670455 1.608665,1.9176136 0,0.4048296 -0.03196,0.415483 -0.03196,0.5113637 0,0.095881 0.106534,0.095881 0.149147,0.095881 0.127841,0 0.127841,-0.021307 0.181108,-0.1917614 l 0.628551,-2.5461648 c 0,-0.03196 -0.02131,-0.095881 -0.117187,-0.095881 -0.02131,0 -0.03196,0.010653 -0.149148,0.1171875 l -0.692471,0.7670455 c -0.09588,-0.1384943 -0.553978,-0.884233 -1.651279,-0.884233 -2.226562,0 -4.463778,2.1946023 -4.463778,4.5063921 0,1.65127839 1.171875,2.73792612 2.695312,2.73792612 0.862926,0 1.629972,-0.40482955 2.151989,-0.86292614 0.926846,-0.82031248 1.097301,-1.72585228 1.097301,-1.74715908 z m 0,0"
           style="fill:#000000;fill-opacity:1;fill-rule:nonzero;stroke:none" /><path
           id="path1849"
           d="m 31.253551,0.40819602 c 0,-0.63920454 -0.703125,-0.76704545 -0.96946,-0.80965909 -0.06392,-0.0106534 -0.234375,-0.0426136 -0.276989,-0.053267 -0.255682,-0.053267 -0.383522,-0.20241478 -0.383522,-0.3515625 0,-0.15980114 0.12784,-0.35156253 0.276988,-0.44744323 0.191762,-0.1171875 0.43679,-0.1384943 0.553977,-0.1384943 0.149148,0 0.511364,0.021307 0.660512,0.2663352 -0.181108,0.042614 -0.287642,0.18110801 -0.287642,0.33025574 0,0.15980113 0.138494,0.21306818 0.223721,0.21306818 0.07457,0 0.340909,-0.0319602 0.340909,-0.39417614 0,-0.44744318 -0.50071,-0.60724438 -0.926846,-0.60724438 -1.086648,0 -1.289063,0.79900574 -1.289063,1.02272734 0,0.25568181 0.149148,0.42613636 0.245029,0.51136363 0.181108,0.13849432 0.308949,0.15980114 0.788352,0.24502841 0.149148,0.0319602 0.596591,0.1171875 0.596591,0.45809659 0,0.12784091 -0.07457,0.38352273 -0.372869,0.56463063 -0.266336,0.1491477 -0.617898,0.1491477 -0.692472,0.1491477 -0.287642,0 -0.681818,-0.06392 -0.841619,-0.287642 0.234375,-0.03196 0.383522,-0.20241474 0.383522,-0.40482951 0,-0.17045455 -0.12784,-0.25568182 -0.276988,-0.25568182 -0.202415,0 -0.394176,0.15980114 -0.394176,0.46875 0,0.41548293 0.436789,0.68181813 1.118608,0.68181813 1.278409,0 1.523437,-0.8842329 1.523437,-1.16122158 z m 0,0"
           style="fill:#000000;fill-opacity:1;fill-rule:nonzero;stroke:none" /></g><path
         id="path1850"
         d="m 141.73404,113.38724 h 34.01608"
         style="fill:none;stroke:#000000;stroke-width:0.3985;stroke-linecap:butt;stroke-linejoin:miter;stroke-miterlimit:10;stroke-dasharray:none;stroke-opacity:1"
         transform="matrix(1.3333333,0,0,-1.3333333,3390.4653,564.02933)" /><path
         id="path1851"
         d="M 51.02432,48.18947 V 93.14604"
         style="fill:none;stroke:#000000;stroke-width:0.3985;stroke-linecap:butt;stroke-linejoin:miter;stroke-miterlimit:10;stroke-dasharray:none;stroke-opacity:1"
         transform="matrix(1.3333333,0,0,-1.3333333,3390.4653,564.02933)" /><path
         id="path1852"
         d="M -2.07224,2.39104 C -1.69365,0.95639 -0.84999,0.27895 0,0 -0.84999,-0.27895 -1.69365,-0.95639 -2.07224,-2.39104"
         style="fill:none;stroke:#000000;stroke-width:0.3985;stroke-linecap:round;stroke-linejoin:round;stroke-miterlimit:10;stroke-dasharray:none;stroke-opacity:1"
         transform="matrix(0,-1.3333333,-1.3333333,0,3458.4978,439.56895)" /><g
         id="g1852"
         aria-label="V&#10;DC"
         transform="matrix(1.4666667,0,0,1.4666667,3425.488,473.43867)"><path
           id="path1853"
           d="m 7.6599929,-6.680483 c 0,-0.085227 -0.053267,-0.1278409 -0.1278409,-0.1278409 -0.2556818,0 -0.5539773,0.03196 -0.8203125,0.03196 -0.3302557,0 -0.6605114,-0.03196 -0.9801136,-0.03196 -0.063921,0 -0.1917614,0 -0.1917614,0.1917614 0,0.1065341 0.085227,0.1171875 0.1598011,0.1171875 0.2663353,0.021307 0.4580966,0.1278409 0.4580966,0.3302557 0,0.1491477 -0.1491477,0.3835227 -0.1491477,0.3835227 L 2.9511861,-0.92764205 2.2693679,-6.2010795 c 0,-0.1598012 0.234375,-0.2982955 0.6924716,-0.2982955 0.1384943,0 0.2450284,0 0.2450284,-0.1917614 0,-0.095881 -0.074574,-0.1171875 -0.1384943,-0.1171875 -0.3941762,0 -0.8309659,0.03196 -1.2357955,0.03196 -0.1811079,0 -0.3728693,-0.010653 -0.5433238,-0.010653 -0.181108,0 -0.37286936,-0.021307 -0.5433239,-0.021307 -0.0639205,0 -0.19176137,0 -0.19176137,0.1917614 0,0.1171875 0.0958807,0.1171875 0.25568182,0.1171875 0.55397725,0 0.56463065,0.095881 0.59659095,0.3409091 l 0.7883522,6.14701704 c 0.03196,0.20241477 0.063921,0.234375 0.1917614,0.234375 0.1598011,0 0.2024148,-0.053267 0.287642,-0.18110796 L 6.2537429,-5.6684091 C 6.7437997,-6.446108 7.1592827,-6.4780682 7.532152,-6.499375 7.6493395,-6.5100284 7.6599929,-6.680483 7.6599929,-6.680483 Z m 0,0"
           style="fill:#000000;fill-opacity:1;fill-rule:nonzero;stroke:none" /><path
           id="path1854"
           d="m 12.043871,-1.4469957 c 0,-1.0227273 -0.703125,-1.821733 -1.84304,-1.821733 H 7.6653196 c -0.1491477,0 -0.2237216,0 -0.2237216,0.1491477 0,0.095881 0.074574,0.095881 0.2237216,0.095881 0.1171875,0 0.1384943,0 0.2663352,0.021307 0.1384943,0.010653 0.1598012,0.021307 0.1598012,0.095881 0,0 0,0.042614 -0.03196,0.1491477 L 7.1326491,0.95002131 C 7.0793821,1.1843963 7.0580753,1.2376634 6.5147514,1.2376634 c -0.1278409,0 -0.2024148,0 -0.2024148,0.1598011 0,0.095881 0.074574,0.095881 0.2024148,0.095881 h 2.4928977 c 1.5447439,0 3.0362219,-1.42755685 3.0362219,-2.9403412 z m -0.660512,-0.234375 c 0,0.1598011 -0.07457,1.36363633 -0.767045,2.16264201 C 10.339325,0.80087358 9.7427344,1.2376634 8.8798082,1.2376634 H 7.9316548 c -0.2130682,0 -0.2237216,0 -0.2237216,-0.063921 0,0 0,-0.042614 0.03196,-0.1491477 L 8.6987,-2.7893258 c 0.053267,-0.2130682 0.053267,-0.234375 0.3515625,-0.234375 h 0.8948863 c 0.7776992,0 1.4382102,0.3941762 1.4382102,1.3423301 z m 6.613104,0.1065341 0.426136,-1.7471591 c 0,-0.03196 -0.02131,-0.085227 -0.08523,-0.085227 -0.05327,0 -0.06392,0.010653 -0.127841,0.074574 l -0.511363,0.5433238 c -0.06392,-0.085227 -0.458097,-0.6178977 -1.31037,-0.6178977 -1.693892,0 -3.355824,1.4914773 -3.355824,3.06818181 0,1.13991477 0.894887,1.97088069 2.141336,1.97088069 0.372869,0 1.044034,-0.074574 1.768466,-0.68181819 0.543323,-0.46875 0.703125,-1.07599432 0.703125,-1.12926137 0,-0.0958807 -0.08523,-0.0958807 -0.117188,-0.0958807 -0.09588,0 -0.106534,0.0426136 -0.127841,0.1171875 -0.287642,0.95880682 -1.267756,1.54474436 -2.109375,1.54474436 -0.735085,0 -1.566051,-0.40482959 -1.566051,-1.50213072 0,-0.20241477 0.05327,-1.31036928 0.852273,-2.18394888 0.479403,-0.5433238 1.214488,-0.8629261 1.875,-0.8629261 0.809659,0 1.289062,0.5859375 1.289062,1.3636364 0,0.2024147 -0.02131,0.2450284 -0.02131,0.287642 0,0.095881 0.09588,0.095881 0.127841,0.095881 0.106534,0 0.106534,-0.021307 0.149148,-0.1598011 z m 0,0"
           style="fill:#000000;fill-opacity:1;fill-rule:nonzero;stroke:none" /></g><path
         id="path1855"
         d="m 323.15344,28.3468 -10e-6,33.78952 m 0,17.46138 10e-6,33.78954"
         style="fill:none;stroke:#000000;stroke-width:0.3985;stroke-linecap:butt;stroke-linejoin:miter;stroke-miterlimit:10;stroke-dasharray:none;stroke-opacity:1"
         transform="matrix(1.3333333,0,0,-1.3333333,3390.4653,564.02933)" /><path
         id="path1856"
         d="M 323.15343,79.5977 312.2399,62.13632 h 21.82707 z"
         style="fill:none;stroke:#000000;stroke-width:0.797;stroke-linecap:butt;stroke-linejoin:miter;stroke-miterlimit:10;stroke-dasharray:none;stroke-opacity:1"
         transform="matrix(1.3333333,0,0,-1.3333333,3390.4653,564.02933)" /><path
         id="path1857"
         d="M 334.06697,79.5977 H 312.2399"
         style="fill:none;stroke:#000000;stroke-width:0.797;stroke-linecap:butt;stroke-linejoin:miter;stroke-miterlimit:10;stroke-dasharray:none;stroke-opacity:1"
         transform="matrix(1.3333333,0,0,-1.3333333,3390.4653,564.02933)" /><path
         id="path1858"
         d="m 289.13736,28.3468 v 38.15486 m 0,8.73069 v 38.15489"
         style="fill:none;stroke:#000000;stroke-width:0.3985;stroke-linecap:butt;stroke-linejoin:miter;stroke-miterlimit:10;stroke-dasharray:none;stroke-opacity:1"
         transform="matrix(1.3333333,0,0,-1.3333333,3390.4653,564.02933)" /><path
         id="path1859"
         d="m 276.04102,66.50166 h 26.1927 m -26.1927,8.73069 h 26.1927"
         style="fill:none;stroke:#000000;stroke-width:0.797;stroke-linecap:butt;stroke-linejoin:miter;stroke-miterlimit:10;stroke-dasharray:none;stroke-opacity:1"
         transform="matrix(1.3333333,0,0,-1.3333333,3390.4653,564.02933)" /><g
         id="g1859"
         aria-label="C&#10;d&#10;=C&#10;s"
         transform="matrix(1.4666667,0,0,1.4666667,3696.3493,473.43867)"><path
           id="path1860"
           d="m 6.444169,-2.3871591 c 0,-0.1065341 -0.1171875,-0.1065341 -0.1171875,-0.1065341 -0.06392,0 -0.1171875,0.021307 -0.1278409,0.1065341 -0.095881,0.2876421 -0.3196022,0.9907671 -1.0120738,1.56605115 -0.6818182,0.56463068 -1.3103694,0.73508522 -1.8323864,0.73508522 -0.8948864,0 -1.9495739,-0.52201704 -1.9495739,-2.07741477 0,-0.5646307 0.2024148,-2.1839489 1.2038353,-3.3451705 0.6072443,-0.703125 1.5447443,-1.2038352 2.4289772,-1.2038352 1.0120739,0 1.6086648,0.7670455 1.6086648,1.9176137 0,0.4048295 -0.03196,0.4154829 -0.03196,0.5113636 0,0.095881 0.1065341,0.095881 0.1491477,0.095881 0.1278409,0 0.1278409,-0.021307 0.181108,-0.1917614 l 0.6285511,-2.5461648 c 0,-0.03196 -0.021307,-0.095881 -0.1171875,-0.095881 -0.021307,0 -0.03196,0.010653 -0.1491477,0.1171875 L 6.6146236,-6.1371591 C 6.5187429,-6.2756534 6.0606463,-7.021392 4.9633452,-7.021392 c -2.2265625,0 -4.46377844,2.1946022 -4.46377844,4.506392 0,1.65127841 1.17187504,2.73792614 2.69531254,2.73792614 0.8629261,0 1.6299716,-0.40482955 2.1519886,-0.86292614 0.9268466,-0.8203125 1.0973011,-1.7258523 1.0973011,-1.7471591 z m 0,0"
           style="fill:#000000;fill-opacity:1;fill-rule:nonzero;stroke:none" /><path
           id="path1861"
           d="m 11.105036,0.49192472 c 0,-0.0852273 -0.09588,-0.0852273 -0.106535,-0.0852273 -0.106534,0 -0.106534,0.0213068 -0.159801,0.21306819 -0.08523,0.34090909 -0.213068,0.74573869 -0.511363,0.74573869 -0.181108,0 -0.223722,-0.1491478 -0.223722,-0.3409091 0,-0.12784096 0.01065,-0.19176141 0.03196,-0.28764209 l 0.969461,-3.87784091 c 0.01065,-0.010653 0.03196,-0.1065341 0.03196,-0.1065341 0,-0.042614 -0.03196,-0.1065341 -0.117188,-0.1065341 -0.138494,0 -0.713778,0.063921 -0.894886,0.074574 -0.05327,0.010653 -0.1491479,0.010653 -0.1491479,0.1598011 0,0.095881 0.095881,0.095881 0.1811079,0.095881 0.330256,0 0.330256,0.053267 0.330256,0.1065341 0,0.053267 -0.01065,0.095881 -0.02131,0.1491477 l -0.40483,1.5980114 c -0.1384939,-0.234375 -0.3835223,-0.415483 -0.713778,-0.415483 -0.8948864,0 -1.8004261,0.99076707 -1.8004261,1.99218752 0,0.67116478 0.4580966,1.16122158 1.0546875,1.16122158 0.3728693,0 0.7137784,-0.2237216 0.990767,-0.4900568 0.1278409,0.415483 0.5326706,0.4900568 0.7137786,0.4900568 0.255682,0 0.426136,-0.1598011 0.553977,-0.3728693 0.149148,-0.27698864 0.245029,-0.67116478 0.245029,-0.703125 z M 9.9438139,-0.67995028 9.6135582,0.61976563 C 9.5709446,0.81152699 9.4111435,0.96067472 9.2619957,1.0885156 c -0.06392,0.053267 -0.3409091,0.2769887 -0.6392045,0.2769887 -0.2556818,0 -0.5113636,-0.181108 -0.5113636,-0.67116481 0,-0.37286932 0.2024147,-1.13991477 0.3622159,-1.41690341 0.3196022,-0.56463068 0.6818181,-0.67116478 0.8735795,-0.67116478 0.4900568,0 0.6178977,0.53267046 0.6178977,0.60724433 0,0.0319602 -0.010653,0.0852273 -0.021307,0.10653409 z m 0,0"
           style="fill:#000000;fill-opacity:1;fill-rule:nonzero;stroke:none" /><path
           id="path1862"
           d="m 21.713168,-3.4525 c 0,-0.2024148 -0.191762,-0.2024148 -0.330256,-0.2024148 h -5.965909 c -0.138494,0 -0.330256,0 -0.330256,0.2024148 0,0.1917614 0.191762,0.1917614 0.340909,0.1917614 h 5.944603 c 0.149147,0 0.340909,0 0.340909,-0.1917614 z m 0,1.928267 c 0,-0.2024147 -0.191762,-0.2024147 -0.340909,-0.2024147 h -5.944603 c -0.149147,0 -0.340909,0 -0.340909,0.2024147 0,0.2024148 0.191762,0.2024148 0.330256,0.2024148 h 5.965909 c 0.138494,0 0.330256,0 0.330256,-0.2024148 z m 0,0"
           style="fill:#000000;fill-opacity:1;fill-rule:nonzero;stroke:none" /><path
           id="path1863"
           d="m 31.495661,-2.3871591 c 0,-0.1065341 -0.117188,-0.1065341 -0.117188,-0.1065341 -0.06392,0 -0.117187,0.021307 -0.127841,0.1065341 -0.09588,0.2876421 -0.319602,0.9907671 -1.012074,1.56605115 -0.681818,0.56463068 -1.310369,0.73508522 -1.832386,0.73508522 -0.894886,0 -1.949574,-0.52201704 -1.949574,-2.07741477 0,-0.5646307 0.202415,-2.1839489 1.203835,-3.3451705 0.607245,-0.703125 1.544745,-1.2038352 2.428978,-1.2038352 1.012073,0 1.608664,0.7670455 1.608664,1.9176137 0,0.4048295 -0.03196,0.4154829 -0.03196,0.5113636 0,0.095881 0.106534,0.095881 0.149148,0.095881 0.127841,0 0.127841,-0.021307 0.181108,-0.1917614 l 0.628551,-2.5461648 c 0,-0.03196 -0.02131,-0.095881 -0.117188,-0.095881 -0.02131,0 -0.03196,0.010653 -0.149147,0.1171875 l -0.692472,0.7670454 c -0.09588,-0.1384943 -0.553977,-0.8842329 -1.651278,-0.8842329 -2.226563,0 -4.463779,2.1946022 -4.463779,4.506392 0,1.65127841 1.171875,2.73792614 2.695313,2.73792614 0.862926,0 1.629971,-0.40482955 2.151988,-0.86292614 0.926847,-0.8203125 1.097302,-1.7258523 1.097302,-1.747159 z m 0,0"
           style="fill:#000000;fill-opacity:1;fill-rule:nonzero;stroke:none" /><path
           id="path1864"
           d="m 35.312244,0.40669744 c 0,-0.63920454 -0.703125,-0.76704545 -0.96946,-0.80965909 -0.06392,-0.0106534 -0.234375,-0.0426136 -0.276989,-0.053267 -0.255681,-0.053267 -0.383522,-0.20241478 -0.383522,-0.3515625 0,-0.15980114 0.127841,-0.35156255 0.276988,-0.44744325 0.191762,-0.1171875 0.43679,-0.1384943 0.553978,-0.1384943 0.149147,0 0.511363,0.021307 0.660511,0.2663352 -0.181108,0.042614 -0.287642,0.18110803 -0.287642,0.33025576 0,0.15980113 0.138494,0.21306818 0.223722,0.21306818 0.07457,0 0.340909,-0.0319602 0.340909,-0.39417614 0,-0.4474432 -0.500711,-0.6072444 -0.926847,-0.6072444 -1.086648,0 -1.289062,0.79900577 -1.289062,1.02272736 0,0.25568181 0.149147,0.42613636 0.245028,0.51136363 0.181108,0.13849432 0.308949,0.15980114 0.788352,0.24502841 0.149148,0.0319602 0.596591,0.1171875 0.596591,0.45809659 0,0.12784091 -0.07457,0.38352271 -0.372869,0.56463061 -0.266335,0.1491478 -0.617898,0.1491478 -0.692472,0.1491478 -0.287642,0 -0.681818,-0.063921 -0.841619,-0.2876421 0.234375,-0.03196 0.383523,-0.20241472 0.383523,-0.40482949 0,-0.17045454 -0.127841,-0.25568182 -0.276989,-0.25568182 -0.202415,0 -0.394176,0.15980114 -0.394176,0.46875 0,0.41548291 0.43679,0.68181811 1.118608,0.68181811 1.278409,0 1.523437,-0.88423288 1.523437,-1.16122156 z m 0,0"
           style="fill:#000000;fill-opacity:1;fill-rule:nonzero;stroke:none" /></g><path
         id="path1865"
         d="m 323.15344,113.38724 h 9.24109 m 52.38483,0 h 9.2411"
         style="fill:none;stroke:#000000;stroke-width:0.3985;stroke-linecap:butt;stroke-linejoin:miter;stroke-miterlimit:10;stroke-dasharray:none;stroke-opacity:1"
         transform="matrix(1.3333333,0,0,-1.3333333,3390.4653,564.02933)" /><path
         id="path1866"
         d="m 384.77936,106.83907 h -52.38483 v 13.09633 h 52.38483 z"
         style="fill:none;stroke:#000000;stroke-width:0.797;stroke-linecap:butt;stroke-linejoin:miter;stroke-miterlimit:10;stroke-dasharray:none;stroke-opacity:1"
         transform="matrix(1.3333333,0,0,-1.3333333,3390.4653,564.02933)" /><g
         id="g1866"
         aria-label="λ/4|Z&#10;0"
         transform="matrix(1.4666667,0,0,1.4666667,3841.8413,398.956)"><path
           id="path1867"
           d="m 5.4535298,0.01135653 c 0,-0.03196022 -0.010653,-0.05326704 -0.042614,-0.08522727 -0.1065341,-0.1171875 -0.1598011,-0.26633523 -0.234375,-0.45809659 L 3.1417401,-6.2102344 c -0.2024148,-0.5752841 -0.7457387,-0.703125 -1.2144887,-0.703125 -0.042614,0 -0.1704545,0 -0.1704545,0.1065341 0,0.085227 0.085227,0.1065341 0.085227,0.1065341 0.3302557,0.053267 0.3941762,0.1171875 0.649858,0.7990057 l 0.9588068,2.7059659 -2.74857952,2.72727272 c -0.1171875,0.1171875 -0.17045455,0.18110796 -0.17045455,0.30894887 0,0.17045454 0.13849432,0.28764204 0.29829545,0.28764204 0.15980114,0 0.24502842,-0.10653409 0.31960232,-0.20241477 L 3.557223,-2.9076776 c 0.4048296,1.0440341 0.884233,2.56747163 1.0440341,2.80184663 0.1598011,0.21306819 0.2556818,0.21306819 0.5326705,0.21306819 H 5.3469957 C 5.4428764,0.09658381 5.4535298,0.04331676 5.4535298,0.01135653 Z M 10.231584,-7.2755753 c 0,-0.1065341 -0.08523,-0.1917613 -0.202415,-0.1917613 -0.06392,0 -0.1384943,0.03196 -0.1598011,0.085227 l -3.462358,9.4921875 c -0.053267,0.1278409 -0.053267,0.181108 -0.053267,0.181108 0,0.1065341 0.095881,0.2024148 0.2024148,0.2024148 0.1278409,0 0.1598011,-0.074574 0.2237216,-0.2450285 l 3.3984377,-9.3430397 c 0.05327,-0.1278409 0.05327,-0.181108 0.05327,-0.181108 z m 0,0"
           style="fill:#000000;fill-opacity:1;fill-rule:nonzero;stroke:none" /><path
           id="path1868"
           d="M 15.481051,-1.6399219 V -1.9488707 H 14.490284 V -6.487223 c 0,-0.1917614 0,-0.2556818 -0.159801,-0.2556818 -0.08523,0 -0.117188,0 -0.202415,0.1171875 l -3.057528,4.6768466 v 0.3089488 h 2.652699 v 0.86292616 c 0,0.36221591 -0.02131,0.46875 -0.756392,0.46875 H 12.753778 V 7.03125e-4 c 0.415483,-0.031960225 0.926847,-0.031960225 1.34233,-0.031960225 0.426136,0 0.948153,0 1.363636,0.031960225 V -0.30824574 h -0.213068 c -0.735085,0 -0.756392,-0.10653409 -0.756392,-0.46875 V -1.6399219 Z m -1.704545,-0.3089488 h -2.428978 l 2.428978,-3.7180398 z m 0,0"
           style="fill:#000000;fill-opacity:1;fill-rule:nonzero;stroke:none" /><path
           id="path1869"
           d="M 20.679915,2.1633452 V -7.137081 c 0,-0.1384943 0,-0.3302556 -0.202415,-0.3302556 -0.202415,0 -0.202415,0.1917613 -0.202415,0.3302556 v 9.3004262 c 0,0.1384943 0,0.3302557 0.202415,0.3302557 0.202415,0 0.202415,-0.1917614 0.202415,-0.3302557 z m 0,0"
           style="fill:#000000;fill-opacity:1;fill-rule:nonzero;stroke:none" /><path
           id="path1870"
           d="m 31.397244,-2.5454616 c 0,-0.053267 -0.03196,-0.1171875 -0.127841,-0.1171875 -0.08523,0 -0.09588,0.042614 -0.170454,0.2556818 -0.43679,1.3529829 -0.916193,2.06676133 -2.610085,2.06676133 h -1.693892 l 5.561079,-6.22159093 c 0.01065,-0.042614 0.03196,-0.095881 0.03196,-0.1491477 0,-0.095881 -0.05327,-0.095881 -0.245028,-0.095881 h -4.208097 c -0.234375,0 -0.245028,0.010653 -0.308948,0.2024148 l -0.543324,1.7897727 c -0.02131,0.053267 -0.03196,0.1384943 -0.03196,0.1384943 0,0 0,0.1171875 0.117188,0.1171875 0.08523,0 0.106534,-0.074574 0.127841,-0.1065341 0.383523,-1.171875 0.894886,-1.8323863 2.450284,-1.8323863 h 1.629972 l -5.571733,6.2322443 c 0,0 -0.04261,0.14914772 -0.04261,0.18110795 0,0.085227275 0.07457,0.085227275 0.255682,0.085227275 h 4.325284 c 0.245028,0 0.255682,-0.010653405 0.308949,-0.202414775 l 0.713778,-2.19460225 c 0.01065,-0.042614 0.03196,-0.1171875 0.03196,-0.1491477 z m 0,0"
           style="fill:#000000;fill-opacity:1;fill-rule:nonzero;stroke:none" /><path
           id="path1871"
           d="m 35.586697,-0.73171875 c 0,-0.76704545 -0.09588,-1.32102275 -0.415483,-1.81107955 -0.213068,-0.3196023 -0.649857,-0.5965909 -1.203835,-0.5965909 -1.619318,0 -1.619318,1.9069602 -1.619318,2.40767045 0,0.50071023 0,2.36505685 1.619318,2.36505685 1.619318,0 1.619318,-1.86434662 1.619318,-2.36505685 z m -0.639204,-0.0852273 c 0,0.51136363 0,1.02272727 -0.08523,1.47017045 -0.138495,0.6285512 -0.617898,0.7883523 -0.894887,0.7883523 -0.319602,0 -0.745738,-0.1917614 -0.884233,-0.76704548 -0.09588,-0.40482955 -0.09588,-0.98011364 -0.09588,-1.49147727 0,-0.51136365 0,-1.04403405 0.09588,-1.42755675 0.149148,-0.5539773 0.596591,-0.703125 0.884233,-0.703125 0.37287,0 0.735085,0.234375 0.862926,0.6392045 0.117188,0.3728693 0.117188,0.884233 0.117188,1.49147725 z m 0,0"
           style="fill:#000000;fill-opacity:1;fill-rule:nonzero;stroke:none" /></g><path
         id="path1872"
         d="M 394.02046,113.38724 V 83.96336 m 0,-26.1927 V 28.3468"
         style="fill:none;stroke:#000000;stroke-width:0.3985;stroke-linecap:butt;stroke-linejoin:miter;stroke-miterlimit:10;stroke-dasharray:none;stroke-opacity:1"
         transform="matrix(1.3333333,0,0,-1.3333333,3390.4653,564.02933)" /><path
         id="path1873"
         d="m 407.11682,70.867 c 0,7.233 -5.86336,13.09636 -13.09636,13.09636 -7.23298,0 -13.09634,-5.86336 -13.09634,-13.09636 0,-7.23298 5.86336,-13.09634 13.09634,-13.09634 7.233,0 13.09636,5.86336 13.09636,13.09634 z"
         style="fill:none;stroke:#000000;stroke-width:0.797;stroke-linecap:butt;stroke-linejoin:miter;stroke-miterlimit:10;stroke-dasharray:none;stroke-opacity:1"
         transform="matrix(1.3333333,0,0,-1.3333333,3390.4653,564.02933)" /><path
         id="path1874"
         d="M 394.02046,83.96336 V 57.77066"
         style="fill:none;stroke:#000000;stroke-width:0.797;stroke-linecap:butt;stroke-linejoin:miter;stroke-miterlimit:10;stroke-dasharray:none;stroke-opacity:1"
         transform="matrix(1.3333333,0,0,-1.3333333,3390.4653,564.02933)" /><path
         id="path1875"
         d="M 413.86357,48.18947 V 93.14604"
         style="fill:none;stroke:#000000;stroke-width:0.3985;stroke-linecap:butt;stroke-linejoin:miter;stroke-miterlimit:10;stroke-dasharray:none;stroke-opacity:1"
         transform="matrix(1.3333333,0,0,-1.3333333,3390.4653,564.02933)" /><path
         id="path1876"
         d="M -2.07224,2.39104 C -1.69365,0.95639 -0.84999,0.27895 0,0 -0.84999,-0.27895 -1.69365,-0.95639 -2.07224,-2.39104"
         style="fill:none;stroke:#000000;stroke-width:0.3985;stroke-linecap:round;stroke-linejoin:round;stroke-miterlimit:10;stroke-dasharray:none;stroke-opacity:1"
         transform="matrix(0,-1.3333333,-1.3333333,0,3942.2834,439.56895)" /><g
         id="g1876"
         aria-label="V&#10;out"
         transform="matrix(1.4666667,0,0,1.4666667,3948.0013,473.43867)"><path
           id="path1877"
           d="m 7.658892,-6.680483 c 0,-0.085227 -0.053267,-0.1278409 -0.1278409,-0.1278409 -0.2556818,0 -0.5539772,0.03196 -0.8203125,0.03196 -0.3302556,0 -0.6605113,-0.03196 -0.9801136,-0.03196 -0.063921,0 -0.1917614,0 -0.1917614,0.1917614 0,0.1065341 0.085227,0.1171875 0.1598012,0.1171875 0.2663352,0.021307 0.4580966,0.1278409 0.4580966,0.3302557 0,0.1491477 -0.1491478,0.3835227 -0.1491478,0.3835227 L 2.9500852,-0.92764205 2.268267,-6.2010795 c 0,-0.1598012 0.234375,-0.2982955 0.6924716,-0.2982955 0.1384944,0 0.2450284,0 0.2450284,-0.1917614 0,-0.095881 -0.074574,-0.1171875 -0.1384943,-0.1171875 -0.3941761,0 -0.8309659,0.03196 -1.2357954,0.03196 -0.181108,0 -0.3728693,-0.010653 -0.5433239,-0.010653 -0.1811079,0 -0.37286931,-0.021307 -0.54332385,-0.021307 -0.0639205,0 -0.19176137,0 -0.19176137,0.1917614 0,0.1171875 0.0958807,0.1171875 0.25568182,0.1171875 0.5539773,0 0.5646307,0.095881 0.5965909,0.3409091 l 0.7883523,6.14701704 c 0.03196,0.20241477 0.06392,0.234375 0.1917613,0.234375 0.1598012,0 0.2024148,-0.053267 0.2876421,-0.18110796 L 6.252642,-5.6684091 C 6.7426989,-6.446108 7.1581818,-6.4780682 7.5310511,-6.499375 7.6482386,-6.5100284 7.658892,-6.680483 7.658892,-6.680483 Z m 0,0"
           style="fill:#000000;fill-opacity:1;fill-rule:nonzero;stroke:none" /><path
           id="path1878"
           d="m 9.5179119,-0.36034801 c 0,-0.77769889 -0.5859375,-1.22514209 -1.2677557,-1.22514209 -1.0333806,0 -2.0028409,0.96946027 -2.0028409,1.92826709 0,0.69247161 0.5007103,1.22514201 1.2677557,1.22514201 0.9907671,0 2.0028409,-0.92684656 2.0028409,-1.92826701 z M 8.9426278,-0.61602983 c 0,0.17045455 -0.085227,0.86292614 -0.3941761,1.35298296 C 8.2927699,1.1417827 7.8666335,1.3655043 7.515071,1.3655043 c -0.3409091,0 -0.6924716,-0.2237216 -0.6924716,-0.76704549 0,-0.28764205 0.1278409,-0.98011364 0.4048296,-1.37428978 0.2982954,-0.42613633 0.703125,-0.61789773 1.0227272,-0.61789773 0.3728694,0 0.6924716,0.2663352 0.6924716,0.77769887 z m 5.1802202,1.10795455 c 0,-0.0852273 -0.09588,-0.0852273 -0.117187,-0.0852273 -0.09588,0 -0.106535,0.0213068 -0.149148,0.21306819 -0.08523,0.33025568 -0.223722,0.74573869 -0.511364,0.74573869 -0.181108,0 -0.234375,-0.1598012 -0.234375,-0.3409091 0,-0.11718755 0.06392,-0.37286937 0.106534,-0.55397732 l 0.159801,-0.62855114 0.159802,-0.61789773 c 0.04261,-0.17045454 0.117187,-0.47940341 0.117187,-0.51136361 0,-0.1384943 -0.117187,-0.2237216 -0.234375,-0.2237216 -0.255682,0 -0.308949,0.2024148 -0.362216,0.4261364 l -0.362216,1.44886359 c -0.03196,0.13849432 -0.09588,0.40482954 -0.106534,0.41548295 -0.138494,0.21306818 -0.415483,0.58593756 -0.852273,0.58593756 -0.479403,0 -0.479403,-0.44744324 -0.479403,-0.57528415 0,-0.41548295 0.191761,-0.90553977 0.394176,-1.41690341 0.05327,-0.13849432 0.09588,-0.24502841 0.09588,-0.36221591 0,-0.36221593 -0.308949,-0.59659093 -0.660512,-0.59659093 -0.703125,0 -1.012073,0.95880684 -1.012073,1.06534093 0,0.0958807 0.09588,0.0958807 0.117187,0.0958807 0.09588,0 0.106534,-0.0319602 0.127841,-0.1171875 0.159801,-0.56463063 0.46875,-0.85227273 0.745739,-0.85227273 0.117187,0 0.170454,0.085227 0.170454,0.2450284 0,0.15980115 -0.05327,0.30894888 -0.127841,0.46875002 -0.372869,0.96946022 -0.372869,1.171875 -0.372869,1.35298295 0,0.12784091 0,0.44744323 0.255682,0.67116473 0.202415,0.1598012 0.479403,0.2237216 0.724432,0.2237216 0.436789,0 0.671164,-0.2450284 0.905539,-0.46875 0.149148,0.4474432 0.617898,0.46875 0.703125,0.46875 0.234375,0 0.415483,-0.1491477 0.553978,-0.3728693 0.149147,-0.27698862 0.245028,-0.68181817 0.245028,-0.70312498 z m 2.940341,0 c 0,-0.0852273 -0.09588,-0.0852273 -0.117188,-0.0852273 -0.07457,0 -0.08523,0.0106534 -0.138494,0.12784091 -0.202415,0.44744318 -0.553977,0.83096597 -0.9375,0.83096597 -0.149148,0 -0.245028,-0.085227 -0.245028,-0.3409091 0,-0.0639205 0.03196,-0.21306823 0.04261,-0.28764209 L 16.1683,-1.2658878 h 0.713778 c 0.127841,0 0.223722,0 0.223722,-0.1491477 0,-0.095881 -0.09588,-0.095881 -0.213069,-0.095881 H 16.23222 l 0.255682,-1.0333807 c 0.01065,-0.042614 0.02131,-0.074574 0.02131,-0.095881 0,-0.1278409 -0.09588,-0.2237215 -0.234375,-0.2237215 -0.170455,0 -0.276989,0.1171875 -0.330256,0.2982954 -0.04261,0.1704546 0.04261,-0.1598011 -0.266335,1.0546875 h -0.713779 c -0.127841,0 -0.213068,0 -0.213068,0.1491477 0,0.095881 0.07457,0.095881 0.202415,0.095881 h 0.660511 l -0.404829,1.65127841 c -0.04261,0.17045454 -0.106534,0.42613636 -0.106534,0.51136363 0,0.41548296 0.351562,0.67116476 0.745738,0.67116476 0.777699,0 1.214489,-0.98011362 1.214489,-1.07599398 z m 0,0"
           style="fill:#000000;fill-opacity:1;fill-rule:nonzero;stroke:none" /></g><path
         id="path1879"
         d="M 394.02046,107.71794 V 105.2816"
         style="fill:none;stroke:#000000;stroke-width:0.3985;stroke-linecap:butt;stroke-linejoin:miter;stroke-miterlimit:10;stroke-dasharray:none;stroke-opacity:1"
         transform="matrix(1.3333333,0,0,-1.3333333,3390.4653,564.02933)" /><path
         id="path1880"
         d="M -2.07224,2.39104 C -1.69365,0.95639 -0.84999,0.27895 0,0 -0.84999,-0.27895 -1.69365,-0.95639 -2.07224,-2.39104"
         style="fill:none;stroke:#000000;stroke-width:0.3985;stroke-linecap:round;stroke-linejoin:round;stroke-miterlimit:10;stroke-dasharray:none;stroke-opacity:1"
         transform="matrix(0,1.3333333,1.3333333,0,3915.8259,423.91953)" /><g
         id="g1880"
         aria-label="i&#10;out&#10;(ωt)"
         transform="matrix(1.4666667,0,0,1.4666667,3925.2773,424.06133)"><path
           id="path1881"
           d="m 2.8338139,-6.2207955 c 0,-0.2024147 -0.1491477,-0.3622159 -0.3728693,-0.3622159 -0.2663352,0 -0.5433239,0.2556819 -0.5433239,0.5326705 0,0.1811079 0.1491478,0.3515625 0.3835228,0.3515625 0.2237216,0 0.5326704,-0.2237216 0.5326704,-0.5220171 z m 0.085227,4.7940341 c 0,-0.095881 -0.085227,-0.095881 -0.1171875,-0.095881 -0.1065341,0 -0.1065341,0.03196 -0.1491477,0.1811079 -0.181108,0.62855115 -0.5113637,1.23579546 -1.0227273,1.23579546 -0.1704546,0 -0.234375,-0.10653409 -0.234375,-0.33025568 0,-0.25568182 0.06392,-0.39417613 0.287642,-1.00142048 l 0.3835228,-1.0440341 c 0.1278409,-0.287642 0.1278409,-0.3089488 0.2237216,-0.5752841 0.085227,-0.2024147 0.1278409,-0.340909 0.1278409,-0.5326704 0,-0.4474432 -0.3196023,-0.8096591 -0.8096591,-0.8096591 -0.93750003,0 -1.32102275,1.4382102 -1.32102275,1.5340909 0,0.095881 0.1171875,0.095881 0.1171875,0.095881 0.10653409,0 0.1171875,-0.021307 0.15980113,-0.181108 0.27698864,-0.9375 0.67116482,-1.2357954 1.01207382,-1.2357954 0.074574,0 0.2450285,0 0.2450285,0.3196023 0,0.2130681 -0.063921,0.4154829 -0.1065341,0.522017 -0.085227,0.2556818 -0.5326705,1.4169034 -0.6924716,1.8430398 -0.0958807,0.2556818 -0.22372162,0.58593747 -0.22372162,0.79900565 0,0.46875 0.34090912,0.8096591 0.80965912,0.8096591 0.9375,0 1.3103693,-1.43821025 1.3103693,-1.53409085 z m 0,0"
           style="fill:#000000;fill-opacity:1;fill-rule:nonzero;stroke:none" /><path
           id="path1882"
           d="m 7.1404545,-0.3587571 c 0,-0.7776989 -0.5859375,-1.225142 -1.2677556,-1.225142 -1.0333807,0 -2.0028409,0.96946018 -2.0028409,1.928267 0,0.6924716 0.5007102,1.225142 1.2677556,1.225142 0.9907671,0 2.0028409,-0.92684655 2.0028409,-1.928267 z m -0.575284,-0.25568182 c 0,0.17045454 -0.085227,0.86292614 -0.3941762,1.35298295 C 5.9153125,1.1433736 5.4891761,1.3670952 5.1376136,1.3670952 c -0.3409091,0 -0.6924716,-0.2237216 -0.6924716,-0.76704548 0,-0.28764205 0.127841,-0.98011364 0.4048296,-1.37428978 0.2982954,-0.42613634 0.703125,-0.61789774 1.0227273,-0.61789774 0.3728693,0 0.6924716,0.2663352 0.6924716,0.77769888 z m 5.1775565,1.10795454 c 0,-0.0852273 -0.09588,-0.0852273 -0.117187,-0.0852273 -0.09588,0 -0.106534,0.0213068 -0.149148,0.21306818 -0.08523,0.33025569 -0.223722,0.7457387 -0.511364,0.7457387 -0.181108,0 -0.234375,-0.1598012 -0.234375,-0.3409091 0,-0.11718755 0.06392,-0.37286937 0.106534,-0.55397732 l 0.159802,-0.62855114 0.159801,-0.61789773 c 0.04261,-0.17045454 0.117187,-0.47940341 0.117187,-0.51136361 0,-0.1384943 -0.117187,-0.2237216 -0.234375,-0.2237216 -0.255682,0 -0.308949,0.2024148 -0.362216,0.4261364 L 10.31517,0.36567472 C 10.28321,0.50416903 10.21929,0.77050426 10.208636,0.78115767 10.070142,0.99422585 9.7931534,1.3670952 9.3563636,1.3670952 c -0.4794034,0 -0.4794034,-0.44744321 -0.4794034,-0.57528412 0,-0.41548296 0.1917614,-0.90553977 0.3941762,-1.41690341 0.053267,-0.13849432 0.095881,-0.24502841 0.095881,-0.36221591 0,-0.36221586 -0.3089488,-0.59659086 -0.6605113,-0.59659086 -0.703125,0 -1.0120739,0.95880677 -1.0120739,1.06534086 0,0.0958807 0.095881,0.0958807 0.1171875,0.0958807 0.095881,0 0.1065341,-0.0319602 0.1278409,-0.1171875 0.1598012,-0.56463066 0.46875,-0.85227276 0.7457387,-0.85227276 0.1171875,0 0.1704545,0.085227 0.1704545,0.2450284 0,0.15980118 -0.053267,0.30894891 -0.1278409,0.46875004 -0.3728693,0.96946023 -0.3728693,1.171875 -0.3728693,1.35298296 0,0.12784091 0,0.4474432 0.2556818,0.6711648 0.2024148,0.1598011 0.4794034,0.2237215 0.7244318,0.2237215 0.4367898,0 0.6711648,-0.2450284 0.9055398,-0.46875 0.149147,0.4474432 0.617897,0.46875 0.703125,0.46875 0.234375,0 0.415483,-0.1491477 0.553977,-0.3728693 0.149148,-0.27698859 0.245028,-0.68181814 0.245028,-0.70312498 z m 2.943005,0 c 0,-0.0852273 -0.09588,-0.0852273 -0.117188,-0.0852273 -0.07457,0 -0.08523,0.0106534 -0.138494,0.12784091 -0.202415,0.44744318 -0.553978,0.83096597 -0.9375,0.83096597 -0.149148,0 -0.245029,-0.085227 -0.245029,-0.3409091 0,-0.0639205 0.03196,-0.21306823 0.04261,-0.2876421 l 0.50071,-2.0028409 h 0.713779 c 0.12784,0 0.223721,0 0.223721,-0.1491477 0,-0.095881 -0.09588,-0.095881 -0.213068,-0.095881 h -0.660511 l 0.255681,-1.0333807 c 0.01065,-0.042614 0.02131,-0.074574 0.02131,-0.095881 0,-0.127841 -0.09588,-0.2237216 -0.234375,-0.2237216 -0.170454,0 -0.276988,0.1171875 -0.330255,0.2982954 -0.04261,0.1704546 0.04261,-0.1598011 -0.266336,1.0546875 H 12.58701 c -0.127841,0 -0.213068,0 -0.213068,0.1491477 0,0.095881 0.07457,0.095881 0.202415,0.095881 h 0.660511 l -0.40483,1.6512784 c -0.04261,0.17045455 -0.106534,0.42613637 -0.106534,0.51136364 0,0.41548296 0.351563,0.67116476 0.745739,0.67116476 0.777699,0 1.214489,-0.98011362 1.214489,-1.07599388 z m 0,0"
           style="fill:#000000;fill-opacity:1;fill-rule:nonzero;stroke:none" /><path
           id="path1883"
           d="m 18.875185,2.3871591 c 0,-0.021307 0,-0.042614 -0.159801,-0.2130682 -1.246449,-1.25710226 -1.566052,-3.14275567 -1.566052,-4.6661932 0,-1.7258522 0.37287,-3.4623579 1.598012,-4.7088068 0.127841,-0.1171875 0.127841,-0.1384943 0.127841,-0.1704545 0,-0.063921 -0.03196,-0.095881 -0.09588,-0.095881 -0.09588,0 -0.990767,0.6711648 -1.587358,1.9389204 -0.50071,1.0973012 -0.617898,2.2052557 -0.617898,3.0362216 0,0.7776989 0.106534,1.98153412 0.649858,3.11079548 0.596591,1.22514202 1.459517,1.87500002 1.555398,1.87500002 0.06392,0 0.09588,-0.03196 0.09588,-0.1065338 z m 0,0"
           style="fill:#000000;fill-opacity:1;fill-rule:nonzero;stroke:none" /><path
           id="path1884"
           d="m 25.240597,-2.3749148 c 0.117187,-0.4367897 0.234375,-0.9268466 0.234375,-1.3316761 0,-0.2556818 -0.05327,-0.4794034 -0.202415,-0.6072443 -0.06392,-0.053267 -0.138495,-0.085227 -0.223722,-0.085227 -0.127841,0 -0.255682,0.053267 -0.351562,0.1598011 -0.09588,0.095881 -0.138495,0.2024148 -0.138495,0.3196023 0,0.095881 0.03196,0.1704546 0.106534,0.2450284 0.245029,0.2237216 0.383523,0.5326705 0.383523,0.8735796 0,0.1171875 -0.01065,0.2556818 -0.04261,0.3728693 -0.234375,0.9055398 -0.80966,1.82173294 -1.598012,1.82173294 -0.553977,0 -0.884233,-0.38352273 -0.96946,-0.89488634 0.127841,-0.2769887 0.223722,-0.5752841 0.298295,-0.8735796 0.01065,-0.095881 0.03196,-0.1811079 0.03196,-0.2663352 0,-0.1491477 -0.04261,-0.2556818 -0.181108,-0.2556818 -0.191762,0 -0.298296,0.2450284 -0.340909,0.46875 -0.08523,0.3089488 -0.117188,0.6072443 -0.127841,0.8948863 -0.330256,0.54332391 -0.809659,0.92684664 -1.363637,0.92684664 -0.607244,0 -0.862926,-0.50071024 -0.862926,-1.12926134 0,-0.1917614 0.03196,-0.4261364 0.08523,-0.6392046 0.149148,-0.6072443 0.500711,-1.1612216 0.884233,-1.6832386 0.03196,-0.042614 0.05327,-0.095881 0.05327,-0.1384943 0,-0.053267 -0.04261,-0.1065341 -0.09588,-0.1384943 -0.03196,-0.021307 -0.06392,-0.021307 -0.08523,-0.021307 -0.06392,0 -0.127841,0.03196 -0.181108,0.095881 -0.40483,0.5646307 -0.660512,1.2038352 -0.820313,1.8323864 -0.09588,0.3728693 -0.149148,0.7670454 -0.149148,1.1186079 0,0.79900572 0.287642,1.41690345 1.044034,1.41690345 0.628552,0 1.150569,-0.43678978 1.523438,-1.0546875 0.117187,0.61789772 0.458097,1.0546875 1.129261,1.0546875 1.033381,0 1.661932,-1.27840905 1.960228,-2.48224435 z m 3.907137,0.9481534 c 0,-0.095881 -0.08523,-0.095881 -0.127841,-0.095881 -0.08523,0 -0.09588,0.03196 -0.149147,0.1384943 -0.426137,1.03338065 -0.948154,1.27840906 -1.289063,1.27840906 -0.213068,0 -0.308949,-0.12784091 -0.308949,-0.45809659 0,-0.24502841 0.02131,-0.30894886 0.05327,-0.47940337 l 0.745739,-2.9403409 h 0.926847 c 0.202414,0 0.308949,0 0.308949,-0.2024148 0,-0.1065341 -0.106535,-0.1065341 -0.287643,-0.1065341 h -0.873579 c 0.362216,-1.4169034 0.404829,-1.6086648 0.404829,-1.6725852 0,-0.1704546 -0.117187,-0.2663353 -0.287642,-0.2663353 -0.02131,0 -0.308948,0.010653 -0.394176,0.3515625 l -0.394176,1.587358 h -0.926846 c -0.202415,0 -0.298296,0 -0.298296,0.1917614 0,0.1171875 0.07457,0.1171875 0.276989,0.1171875 h 0.873579 c -0.713778,2.8338068 -0.756392,2.99360791 -0.756392,3.17471586 0,0.54332387 0.37287,0.91619319 0.916193,0.91619319 1.012074,0 1.587358,-1.44886365 1.587358,-1.53409095 z m 0,0"
           style="fill:#000000;fill-opacity:1;fill-rule:nonzero;stroke:none" /><path
           id="path1885"
           d="m 32.490241,-2.4921023 c 0,-0.7776988 -0.106534,-1.9815341 -0.649857,-3.100142 -0.607245,-1.2251421 -1.459518,-1.875 -1.555398,-1.875 -0.06392,0 -0.106534,0.03196 -0.106534,0.095881 0,0.03196 0,0.053267 0.191761,0.234375 0.980114,0.9801136 1.544744,2.5674716 1.544744,4.6448863 0,1.70454548 -0.372869,3.46235798 -1.608664,4.7194603 -0.127841,0.1171875 -0.127841,0.1384943 -0.127841,0.1598011 0,0.06392 0.04261,0.1065341 0.106534,0.1065341 0.09588,0 0.990767,-0.6818182 1.576704,-1.94957388 0.511364,-1.08664773 0.628551,-2.19460232 0.628551,-3.03622192 z m 0,0"
           style="fill:#000000;fill-opacity:1;fill-rule:nonzero;stroke:none" /></g><path
         id="path1886"
         d="M 70.867,28.3468 H 394.02046"
         style="fill:none;stroke:#000000;stroke-width:0.3985;stroke-linecap:butt;stroke-linejoin:miter;stroke-miterlimit:10;stroke-dasharray:none;stroke-opacity:1"
         transform="matrix(1.3333333,0,0,-1.3333333,3390.4653,564.02933)" /><path
         id="path1887"
         d="m 289.13736,113.38724 h 34.01608"
         style="fill:none;stroke:#000000;stroke-width:0.3985;stroke-linecap:butt;stroke-linejoin:miter;stroke-miterlimit:10;stroke-dasharray:none;stroke-opacity:1"
         transform="matrix(1.3333333,0,0,-1.3333333,3390.4653,564.02933)" /><path
         id="path1888"
         d="m 189.92352,141.73404 c 0.44831,0.89666 1.49442,1.49441 2.98883,1.49441 h 19.53452 c 1.49441,0 2.54053,0.59777 2.98883,1.49442 0.4483,-0.89665 1.49441,-1.49442 2.98883,-1.49442 h 19.53452 c 1.49441,0 2.54051,-0.59775 2.98883,-1.49441"
         style="fill:none;stroke:#000000;stroke-width:0.3985;stroke-linecap:butt;stroke-linejoin:miter;stroke-miterlimit:10;stroke-dasharray:none;stroke-opacity:1"
         transform="matrix(1.3333333,0,0,-1.3333333,3390.4653,564.02933)" /><g
         id="g1888"
         aria-label="Tunedtoω"
         transform="matrix(1.4666667,0,0,1.4666667,3641.4427,364.968)"><path
           id="path1889"
           d="M 6.8173224,-4.5058807 6.6362145,-6.7430966 H 0.54246449 l -0.18110796,2.2372159 h 0.24502841 c 0.13849432,-1.5980113 0.28764205,-1.928267 1.78977276,-1.928267 0.1811079,0 0.4367897,0 0.5433238,0.021307 0.2024148,0.042614 0.2024148,0.1491477 0.2024148,0.3728693 v 5.25213069 c 0,0.34090909 0,0.47940341 -1.0440341,0.47940341 H 1.7036861 V 5.1136364e-4 C 2.1085156,-0.03144886 3.1312429,-0.03144886 3.5893395,-0.03144886 c 0.4580966,0 1.4808239,0 1.8856534,0.0319602236 V -0.3084375 H 5.0808168 c -1.0440341,0 -1.0440341,-0.13849432 -1.0440341,-0.47940341 V -6.0399716 c 0,-0.1917614 0,-0.3302557 0.1811079,-0.3728693 0.1065341,-0.021307 0.3728693,-0.021307 0.5646307,-0.021307 1.5021307,0 1.6512784,0.3302557 1.7897727,1.928267 z M 11.69392,5.1136364e-4 V -0.3084375 c -0.692471,0 -0.777698,-0.0745739 -0.777698,-0.55397727 V -4.3993466 l -1.4595175,0.1065341 v 0.3089489 c 0.6924715,0 0.7776985,0.074574 0.7776985,0.5539772 v 1.7791194 c 0,0.86292609 -0.479403,1.54474427 -1.2038348,1.54474427 -0.8416193,0 -0.884233,-0.46875 -0.884233,-0.99076707 v -3.3025568 l -1.459517,0.1065341 v 0.3089489 c 0.7776988,0 0.7776988,0.03196 0.7776988,0.9161931 v 1.4914773 c 0,0.77769888 0,1.68323865 1.5127841,1.68323865 0.5539773,0 0.9907671,-0.27698863 1.2890629,-0.89488636 v 0.89488636 z m 5.53711,0 V -0.3084375 c -0.511364,0 -0.767046,0 -0.777699,-0.29829545 V -2.5136932 c 0,-0.8522727 0,-1.1612216 -0.308949,-1.5234375 -0.138494,-0.1704545 -0.46875,-0.3622159 -1.044034,-0.3622159 -0.724432,0 -1.193182,0.4261364 -1.47017,1.0440341 v -1.0440341 l -1.40625,0.1065341 v 0.3089489 c 0.692471,0 0.777698,0.074574 0.777698,0.5539772 v 2.67400572 c 0,0.44744318 -0.106534,0.44744318 -0.777698,0.44744318 V 5.1136364e-4 L 13.353189,-0.03144886 14.461143,5.1136364e-4 V -0.3084375 c -0.660511,0 -0.777698,0 -0.777698,-0.44744318 V -2.588267 c 0,-1.0333807 0.713778,-1.5980114 1.352983,-1.5980114 0.617897,0 0.735085,0.5433239 0.735085,1.1079545 v 2.32244322 c 0,0.44744318 -0.117188,0.44744318 -0.777699,0.44744318 V 5.1136364e-4 L 16.123075,-0.03144886 Z M 21.572294,-1.182017 c 0,-0.1065341 -0.07457,-0.1171875 -0.127841,-0.1171875 -0.09588,0 -0.106534,0.053267 -0.127841,0.1384943 -0.351562,1.02272725 -1.246449,1.02272725 -1.352983,1.02272725 -0.490057,0 -0.894886,-0.29829546 -1.118608,-0.67116478 C 18.546726,-1.2885511 18.546726,-1.9384091 18.546726,-2.300625 h 2.78054 c 0.213068,0 0.245028,0 0.245028,-0.2130682 0,-0.9801136 -0.53267,-1.9495738 -1.779119,-1.9495738 -1.161222,0 -2.077415,1.0227272 -2.077415,2.2691761 0,1.34232954 1.044034,2.30113635 2.194602,2.30113635 1.214489,0 1.661932,-1.09730113 1.661932,-1.28906245 z m -0.660511,-1.3316762 h -2.354404 c 0.05327,-1.4808238 0.894887,-1.7258523 1.235796,-1.7258523 1.022727,0 1.118608,1.3423296 1.118608,1.7258523 z M 27.120057,5.1136364e-4 V -0.3084375 c -0.703125,0 -0.777699,-0.0745739 -0.777699,-0.55397727 V -6.9135511 l -1.43821,0.1065341 v 0.3089488 c 0.703125,0 0.777699,0.074574 0.777699,0.5646307 v 2.1519886 c -0.287642,-0.3622159 -0.713779,-0.6178977 -1.257103,-0.6178977 -1.171875,0 -2.215909,0.9694602 -2.215909,2.2585227 0,1.26775572 0.96946,2.24786935 2.109375,2.24786935 0.639205,0 1.086648,-0.34090909 1.331676,-0.64985795 V 0.10704545 Z M 25.649886,-1.1713636 c 0,0.18110792 0,0.19176133 -0.106534,0.36221587 -0.298295,0.47940341 -0.745738,0.703125 -1.171875,0.703125 -0.447443,0 -0.809659,-0.26633522 -1.044034,-0.63920454 -0.266335,-0.40482953 -0.298295,-0.98011363 -0.298295,-1.38494323 0,-0.3728693 0.02131,-0.9694602 0.308949,-1.4169034 0.213068,-0.3089488 0.596591,-0.6392045 1.129261,-0.6392045 0.351562,0 0.767045,0.1491477 1.075994,0.5965909 0.106534,0.1704545 0.106534,0.1917614 0.106534,0.3728693 z m 8.37358,-0.063921 v -0.5646307 h -0.245028 v 0.5433239 c 0,0.73508522 -0.298296,1.11860795 -0.671165,1.11860795 -0.660512,0 -0.660512,-0.90553975 -0.660512,-1.07599435 v -2.7698863 h 1.416904 V -4.2928125 H 32.446761 V -6.1251989 H 32.19108 c -0.01065,0.8203125 -0.308949,1.8856534 -1.27841,1.9176137 v 0.2237216 h 0.84162 v 2.7485795 c 0,1.22514205 0.926846,1.34232955 1.289062,1.34232955 0.703125,0 0.980114,-0.703125 0.980114,-1.34233005 z m 5.257457,-0.8948864 c 0,-1.278409 -0.990767,-2.3330965 -2.194602,-2.3330965 -1.246449,0 -2.215909,1.0866477 -2.215909,2.3330965 0,1.28906255 1.033381,2.23721595 2.205256,2.23721595 1.203835,0 2.205255,-0.96946022 2.205255,-2.23721595 z m -0.820312,-0.085227 c 0,0.3622159 0,0.9055397 -0.223722,1.34232952 -0.213068,0.44744318 -0.660511,0.73508523 -1.150568,0.73508523 -0.426136,0 -0.87358,-0.21306819 -1.139915,-0.67116478 -0.245028,-0.43678977 -0.245028,-1.04403407 -0.245028,-1.40624997 0,-0.3835228 0,-0.9268466 0.234375,-1.3636364 0.266335,-0.4580966 0.735085,-0.6605114 1.139915,-0.6605114 0.436789,0 0.862926,0.2130682 1.118608,0.6392046 0.266335,0.4367898 0.266335,1.0120739 0.266335,1.3849432 z m 0,0"
           style="fill:#000000;fill-opacity:1;fill-rule:nonzero;stroke:none" /><path
           id="path1890"
           d="m 48.67723,-2.3751989 c 0.117188,-0.4367897 0.234375,-0.9268466 0.234375,-1.3316761 0,-0.2556818 -0.05327,-0.4794034 -0.202415,-0.6072443 -0.06392,-0.053267 -0.138494,-0.085227 -0.223721,-0.085227 -0.127841,0 -0.255682,0.053267 -0.351563,0.1598011 -0.09588,0.095881 -0.138494,0.2024148 -0.138494,0.3196023 0,0.095881 0.03196,0.1704546 0.106534,0.2450284 0.245028,0.2237216 0.383523,0.5326705 0.383523,0.8735796 0,0.1171875 -0.01065,0.2556818 -0.04261,0.3728693 -0.234375,0.9055398 -0.809659,1.82173295 -1.598011,1.82173295 -0.553978,0 -0.884233,-0.38352273 -0.96946,-0.89488635 0.12784,-0.2769887 0.223721,-0.5752841 0.298295,-0.8735796 0.01065,-0.095881 0.03196,-0.1811079 0.03196,-0.2663352 0,-0.1491477 -0.04261,-0.2556818 -0.181108,-0.2556818 -0.191761,0 -0.298295,0.2450284 -0.340909,0.46875 -0.08523,0.3089489 -0.117187,0.6072443 -0.127841,0.8948864 -0.330255,0.54332382 -0.809659,0.92684655 -1.363636,0.92684655 -0.607244,0 -0.862926,-0.50071025 -0.862926,-1.12926135 0,-0.1917614 0.03196,-0.4261364 0.08523,-0.6392046 0.149148,-0.6072443 0.50071,-1.1612216 0.884233,-1.6832386 0.03196,-0.042614 0.05327,-0.095881 0.05327,-0.1384943 0,-0.053267 -0.04261,-0.1065341 -0.09588,-0.1384943 -0.03196,-0.021307 -0.06392,-0.021307 -0.08523,-0.021307 -0.06392,0 -0.127841,0.03196 -0.181108,0.095881 -0.404829,0.5646307 -0.660511,1.2038353 -0.820312,1.8323864 -0.09588,0.3728693 -0.149148,0.7670454 -0.149148,1.1186079 0,0.79900573 0.287642,1.41690345 1.044034,1.41690345 0.628551,0 1.150568,-0.43678977 1.523437,-1.0546875 0.117188,0.61789773 0.458097,1.0546875 1.129262,1.0546875 1.033381,0 1.661932,-1.27840905 1.960227,-2.48224435 z m 0,0"
           style="fill:#000000;fill-opacity:1;fill-rule:nonzero;stroke:none" /></g></g></g></svg>
