<?xml version="1.0" encoding="UTF-8" standalone="no"?>
<!-- Created with Inkscape (http://www.inkscape.org/) -->

<svg
   width="143.14061mm"
   height="46.299065mm"
   viewBox="0 0 143.14061 46.299064"
   version="1.1"
   id="svg1"
   xml:space="preserve"
   xmlns="http://www.w3.org/2000/svg"
   xmlns:svg="http://www.w3.org/2000/svg"><defs
     id="defs1" /><g
     id="g1"
     transform="matrix(0.26458333,0,0,0.26458333,-21.757844,-18.1529)"><g
       id="g2"><path
         id="path1"
         d="m -42.5202,28.3468 v 30.61449 m 0,23.81143 v 30.61452"
         style="fill:none;stroke:#000000;stroke-width:0.3985;stroke-linecap:butt;stroke-linejoin:miter;stroke-miterlimit:10;stroke-dasharray:none;stroke-opacity:1"
         transform="matrix(1.3333333,0,0,-1.3333333,204.03067,281.128)" /><path
         id="path2"
         d="m -54.42592,70.867 c 0,-6.5754 5.33031,-11.90571 11.90572,-11.90571 6.57542,0 11.90571,5.33031 11.90571,11.90571 0,6.57543 -5.33029,11.90572 -11.90571,11.90572 -6.57541,0 -11.90572,-5.33029 -11.90572,-11.90572 z"
         style="fill:none;stroke:#000000;stroke-width:0.797;stroke-linecap:butt;stroke-linejoin:miter;stroke-miterlimit:10;stroke-dasharray:none;stroke-opacity:1"
         transform="matrix(1.3333333,0,0,-1.3333333,204.03067,281.128)" /><path
         id="path3"
         d="M -42.5202,58.96129 V 82.77272"
         style="fill:none;stroke:#000000;stroke-width:0.797;stroke-linecap:butt;stroke-linejoin:miter;stroke-miterlimit:10;stroke-dasharray:none;stroke-opacity:1"
         transform="matrix(1.3333333,0,0,-1.3333333,204.03067,281.128)" /><path
         id="path4"
         d="m -42.5202,113.38724 h 32.88244 m 47.62232,0 H 70.867"
         style="fill:none;stroke:#000000;stroke-width:0.3985;stroke-linecap:butt;stroke-linejoin:miter;stroke-miterlimit:10;stroke-dasharray:none;stroke-opacity:1"
         transform="matrix(1.3333333,0,0,-1.3333333,204.03067,281.128)" /><path
         id="path5"
         d="m -9.63776,119.34009 h 47.62231 v -11.9057 H -9.63776 Z"
         style="fill:none;stroke:#000000;stroke-width:0.797;stroke-linecap:butt;stroke-linejoin:miter;stroke-miterlimit:10;stroke-dasharray:none;stroke-opacity:1"
         transform="matrix(1.3333333,0,0,-1.3333333,204.03067,281.128)" /><g
         id="g5"
         aria-label="λ/4|Z&#10;0"
         transform="matrix(1.3333333,0,0,1.3333333,198.62533,116.92667)"><path
           id="path6"
           d="m 5.4606875,0.01105469 c 0,-0.03515625 -0.023437,-0.046875 -0.046875,-0.09375 C 5.3083438,-0.18816406 5.24975,-0.34050781 5.1794375,-0.53972656 L 3.1520938,-6.2116016 c -0.2109375,-0.5742187 -0.75,-0.703125 -1.21875,-0.703125 -0.046875,0 -0.1757813,0 -0.1757813,0.1054688 0,0.082031 0.082031,0.1054687 0.082031,0.1054687 0.328125,0.058594 0.3984375,0.1171875 0.65625,0.796875 l 0.9609375,2.7070313 -2.7539063,2.73046874 c -0.1171875,0.1171875 -0.17578125,0.17578125 -0.17578125,0.3046875 0,0.17578125 0.140625,0.29296875 0.3046875,0.29296875 0.15234375,0 0.24609375,-0.10546875 0.32812505,-0.2109375 L 3.550531,-2.9069141 c 0.4101562,1.0429688 0.890625,2.56640629 1.0546875,2.80078129 0.1523437,0.2109375 0.2578125,0.2109375 0.5273437,0.2109375 H 5.3435 c 0.1054688,0 0.1171875,-0.0703125 0.1171875,-0.09375 z M 10.230219,-7.2780078 c 0,-0.1054688 -0.08203,-0.1992188 -0.199219,-0.1992188 -0.070312,0 -0.1289062,0.035156 -0.1640625,0.09375 L 6.4099063,2.1087109 c -0.046875,0.1289063 -0.046875,0.1875 -0.046875,0.1875 0,0.1054688 0.082031,0.1992188 0.1992187,0.1992188 0.1289063,0 0.1523438,-0.070312 0.2109375,-0.2460938 l 3.4101565,-9.3398437 c 0.04687,-0.1289063 0.04687,-0.1875 0.04687,-0.1875 z m 0,0"
           style="fill:#000000;fill-opacity:1;fill-rule:nonzero;stroke:none" /><path
           id="path7"
           d="m 15.480219,-1.6412891 v -0.3164062 h -0.996094 v -4.5234375 c 0,-0.1992188 0,-0.2578125 -0.152344,-0.2578125 -0.09375,0 -0.117187,0 -0.199218,0.1171875 l -3.058594,4.6640625 v 0.3164062 h 2.648437 v 0.86718754 c 0,0.3515625 -0.02344,0.46875 -0.761718,0.46875 H 12.74975 v 0.3046874975 c 0.410156,-0.0351562475 0.9375,-0.0351562475 1.347656,-0.0351562475 0.421875,0 0.949219,0 1.359375,0.0351562475 V -0.30535156 h -0.210937 c -0.738281,0 -0.761719,-0.1171875 -0.761719,-0.46875 V -1.6412891 Z M 13.781,-1.9576953 H 11.355219 L 13.781,-5.6725391 Z m 0,0"
           style="fill:#000000;fill-opacity:1;fill-rule:nonzero;stroke:none" /><path
           id="path8"
           d="m 20.677484,2.1555859 v -9.2929687 c 0,-0.140625 0,-0.3398438 -0.199218,-0.3398438 -0.199219,0 -0.199219,0.1992188 -0.199219,0.3398438 v 9.2929687 c 0,0.140625 0,0.3398438 0.199219,0.3398438 0.199218,0 0.199218,-0.1992188 0.199218,-0.3398438 z m 0,0"
           style="fill:#000000;fill-opacity:1;fill-rule:nonzero;stroke:none" /><path
           id="path9"
           d="m 31.394281,-2.5553516 c 0,-0.046875 -0.03516,-0.1054687 -0.128906,-0.1054687 -0.08203,0 -0.09375,0.035156 -0.164062,0.2460937 -0.433594,1.359375 -0.914063,2.07421879 -2.613282,2.07421879 h -1.699218 l 5.566406,-6.22265629 c 0.01172,-0.046875 0.03516,-0.09375 0.03516,-0.1523437 0,-0.09375 -0.05859,-0.09375 -0.257812,-0.09375 H 27.93725 c -0.246094,0 -0.257812,0.011719 -0.316406,0.1992187 l -0.539063,1.7929688 c -0.02344,0.058594 -0.03516,0.140625 -0.03516,0.140625 0,0 0,0.1171875 0.117188,0.1171875 0.09375,0 0.117187,-0.070312 0.128906,-0.1054688 0.386719,-1.171875 0.902344,-1.828125 2.449219,-1.828125 h 1.628906 l -5.566406,6.22265629 c 0,0 -0.04687,0.15234375 -0.04687,0.17578125 0,0.0937499975 0.07031,0.0937499975 0.257812,0.0937499975 h 4.324219 c 0.246094,0 0.257812,-0.0117187475 0.316406,-0.1992187475 l 0.703125,-2.20312499 c 0.01172,-0.035156 0.03516,-0.1054688 0.03516,-0.1523438 z m 0,0"
           style="fill:#000000;fill-opacity:1;fill-rule:nonzero;stroke:none" /><path
           id="path10"
           d="m 35.580805,-0.73015625 c 0,-0.76171875 -0.09375,-1.31250005 -0.410157,-1.80468755 C 34.947992,-2.85125 34.526117,-3.1325 33.963617,-3.1325 c -1.617187,0 -1.617187,1.8984375 -1.617187,2.40234375 0,0.50390625 0,2.36718745 1.617187,2.36718745 1.617188,0 1.617188,-1.8632812 1.617188,-2.36718745 z m -0.632813,-0.09375 c 0,0.515625 0,1.04296875 -0.09375,1.4765625 -0.140625,0.63281245 -0.609375,0.78515625 -0.890625,0.78515625 -0.316406,0 -0.75,-0.1875 -0.890625,-0.76171875 -0.09375,-0.41015625 -0.09375,-0.984375 -0.09375,-1.5 0,-0.50390625 0,-1.03125005 0.105469,-1.41796875 0.152344,-0.5507813 0.597656,-0.6914063 0.878906,-0.6914063 0.375,0 0.738281,0.2226563 0.867188,0.6328125 0.105468,0.375 0.117187,0.8789063 0.117187,1.47656255 z m 0,0"
           style="fill:#000000;fill-opacity:1;fill-rule:nonzero;stroke:none" /></g><path
         id="path11"
         d="m 70.867,28.3468 -1e-5,35.57515 m 0,13.89011 1e-5,35.57518"
         style="fill:none;stroke:#000000;stroke-width:0.3985;stroke-linecap:butt;stroke-linejoin:miter;stroke-miterlimit:10;stroke-dasharray:none;stroke-opacity:1"
         transform="matrix(1.3333333,0,0,-1.3333333,204.03067,281.128)" /><path
         id="path12"
         d="M 70.86699,63.92195 64.91414,77.11752"
         style="fill:none;stroke:#000000;stroke-width:0.797;stroke-linecap:butt;stroke-linejoin:miter;stroke-miterlimit:10;stroke-dasharray:none;stroke-opacity:1"
         transform="matrix(1.3333333,0,0,-1.3333333,204.03067,281.128)" /><path
         id="path13"
         d="m 113.38724,28.3468 v 38.55173 m 0,7.93695 v 38.55176"
         style="fill:none;stroke:#000000;stroke-width:0.3985;stroke-linecap:butt;stroke-linejoin:miter;stroke-miterlimit:10;stroke-dasharray:none;stroke-opacity:1"
         transform="matrix(1.3333333,0,0,-1.3333333,204.03067,281.128)" /><path
         id="path14"
         d="m 101.4815,66.89853 h 23.81145 m -23.81145,7.93695 h 23.81145"
         style="fill:none;stroke:#000000;stroke-width:0.797;stroke-linecap:butt;stroke-linejoin:miter;stroke-miterlimit:10;stroke-dasharray:none;stroke-opacity:1"
         transform="matrix(1.3333333,0,0,-1.3333333,204.03067,281.128)" /><g
         id="g14"
         aria-label="150pF"
         transform="matrix(1.3333333,0,0,1.3333333,374.81733,189.5)"><path
           id="path15"
           d="M 4.1711797,0 V -0.3046875 H 3.8547734 c -0.9023437,0 -0.9257812,-0.1171875 -0.9257812,-0.48046875 V -6.375 c 0,-0.234375 0,-0.2578125 -0.234375,-0.2578125 C 2.0852422,-6 1.2063359,-6 0.88992969,-6 v 0.3164063 c 0.19921871,0 0.78515621,0 1.30078121,-0.2578125 v 5.15624995 c 0,0.3515625 -0.035156,0.48046875 -0.9257812,0.48046875 H 0.94852344 V 0 C 1.3000859,-0.03515625 2.1555547,-0.03515625 2.5539922,-0.03515625 c 0.3984375,0 1.265625,0 1.6171875,0.03515625 z m 5.2880859,-2.0039063 c 0,-1.1835937 -0.8203125,-2.1796874 -1.8984375,-2.1796874 -0.4804687,0 -0.9023437,0.1640625 -1.265625,0.5039062 v -1.9335937 c 0.1992188,0.058594 0.5273438,0.1289062 0.84375,0.1289062 1.2304688,0 1.9335938,-0.9140625 1.9335938,-1.0429687 0,-0.058594 -0.035156,-0.1054688 -0.1054688,-0.1054688 0,0 -0.035156,0 -0.082031,0.023437 -0.1992188,0.09375 -0.6796875,0.2929688 -1.3476563,0.2929688 -0.3984375,0 -0.8554687,-0.070312 -1.3242187,-0.28125 -0.082031,-0.023437 -0.1289063,-0.023437 -0.1289063,-0.023437 -0.09375,0 -0.09375,0.082031 -0.09375,0.234375 v 2.9531249 c 0,0.1757813 0,0.2578125 0.140625,0.2578125 0.070312,0 0.082031,-0.035156 0.1289063,-0.09375 0.1054687,-0.1523437 0.4804687,-0.6914062 1.2773437,-0.6914062 0.5273438,0 0.7734375,0.4570312 0.8554688,0.6328125 0.1523437,0.375 0.1757812,0.7617187 0.1757812,1.2539062 0,0.3515626 0,0.9492188 -0.234375,1.3710938 -0.2460937,0.38671875 -0.609375,0.64453125 -1.0664062,0.64453125 -0.7265625,0 -1.3007813,-0.52734375 -1.4648438,-1.11328125 0.023437,0.011719 0.058594,0.011719 0.1640625,0.011719 0.328125,0 0.5039063,-0.2460938 0.5039063,-0.4804688 0,-0.2460937 -0.1757813,-0.4921875 -0.5039063,-0.4921875 -0.140625,0 -0.4804687,0.070312 -0.4804687,0.5273438 0,0.8554687 0.6796875,1.82812495 1.7929687,1.82812495 1.1601563,0 2.1796875,-0.9609375 2.1796873,-2.22656275 z M 14.545203,-3.1875 c 0,-0.796875 -0.04687,-1.59375 -0.398437,-2.3320312 -0.457032,-0.9609375 -1.277344,-1.1132813 -1.6875,-1.1132813 -0.597657,0 -1.335938,0.2578125 -1.734375,1.1835938 -0.328125,0.6914062 -0.375,1.4648437 -0.375,2.2617187 0,0.75 0.04687,1.640625 0.445312,2.40234375 0.433594,0.80859375 1.160156,1.0078125 1.652344,1.0078125 0.539062,0 1.289062,-0.2109375 1.734375,-1.16015625 0.316406,-0.6914062 0.363281,-1.4648438 0.363281,-2.25 z m -0.832031,-0.1171875 c 0,0.75 0,1.4179688 -0.105469,2.0625 C 13.455359,-0.3046875 12.892859,0 12.447547,0 12.060828,0 11.463172,-0.24609375 11.287391,-1.2070312 11.181922,-1.8046875 11.181922,-2.71875 11.181922,-3.3046875 c 0,-0.6445313 0,-1.3007812 0.08203,-1.8398437 0.1875,-1.1835938 0.925781,-1.265625 1.183594,-1.265625 0.328125,0 0.984375,0.1757812 1.171875,1.1601562 0.09375,0.5625 0.09375,1.3125 0.09375,1.9453125 z m 0,0"
           style="fill:#000000;fill-opacity:1;fill-rule:nonzero;stroke:none" /><path
           id="path16"
           d="m 23.457313,-2.15625 c 0,-1.265625 -0.972657,-2.25 -2.085938,-2.25 -0.773437,0 -1.195312,0.4453125 -1.394531,0.65625 v -0.65625 l -1.429688,0.1171875 v 0.3046875 c 0.703125,0 0.773438,0.058594 0.773438,0.4921875 V 1.171875 c 0,0.4570312 -0.105469,0.4570312 -0.773438,0.4570312 v 0.3046875 l 1.113282,-0.035156 1.125,0.035156 V 1.6289062 c -0.667969,0 -0.773438,0 -0.773438,-0.4570312 v -1.7578125 c 0.04687,0.15234375 0.46875,0.69140625 1.21875,0.69140625 1.183594,0 2.226563,-0.97265625 2.226563,-2.26171875 z m -0.832032,0 c 0,1.20703125 -0.691406,2.05078125 -1.429687,2.05078125 -0.398438,0 -0.773438,-0.19921875 -1.042969,-0.609375 C 20.012,-0.92578125 20.012,-0.9375 20.012,-1.1367187 v -2.2148438 c 0.28125,-0.515625 0.773438,-0.796875 1.277344,-0.796875 0.726562,0 1.335937,0.8671875 1.335937,1.9921875 z m 7.256836,-2.3789062 -0.28125,-2.2382813 H 24.128211 V -6.46875 h 0.234375 c 0.773437,0 0.796875,0.1171875 0.796875,0.46875 v 5.2265625 c 0,0.3515625 -0.02344,0.46875 -0.796875,0.46875 H 24.128211 V 0 c 0.351562,-0.03515625 1.125,-0.03515625 1.511719,-0.03515625 0.410156,0 1.3125,0 1.675781,0.03515625 v -0.3046875 h -0.328125 c -0.949219,0 -0.949219,-0.12890625 -0.949219,-0.48046875 V -3.234375 h 0.855469 c 0.960937,0 1.054687,0.3164062 1.054687,1.1601562 h 0.257813 v -2.6367187 h -0.257813 c 0,0.8320312 -0.09375,1.1601562 -1.054687,1.1601562 h -0.855469 v -2.5195312 c 0,-0.328125 0.02344,-0.3984375 0.492188,-0.3984375 h 1.195312 c 1.488281,0 1.746094,0.5625 1.898438,1.9335938 z m 0,0"
           style="fill:#000000;fill-opacity:1;fill-rule:nonzero;stroke:none" /></g><path
         id="path17"
         d="m 70.867,113.38724 h 70.86704 16.44109 m 23.81143,0 h 16.4411 3.11822 m 7.93695,0 h 3.11823 23.5278 m 23.81143,0 h 23.52781"
         style="fill:none;stroke:#000000;stroke-width:0.3985;stroke-linecap:butt;stroke-linejoin:miter;stroke-miterlimit:10;stroke-dasharray:none;stroke-opacity:1"
         transform="matrix(1.3333333,0,0,-1.3333333,204.03067,281.128)" /><path
         id="path18"
         d="m 157.77661,113.22784 c 0,3.28769 1.63475,5.95286 3.65135,5.95286 2.0166,0 3.65136,-2.66517 3.65136,-5.95286 0,-1.64376 -0.66626,-2.97627 -1.48815,-2.97627 -0.82188,0 -1.48813,1.33251 -1.48813,2.97627 0,3.28769 1.63474,5.95286 3.65134,5.95286 2.0166,0 3.65135,-2.66517 3.65135,-5.95286 0,-1.64376 -0.66626,-2.97627 -1.48814,-2.97627 -0.82187,0 -1.48813,1.33251 -1.48813,2.97627 0,3.28769 1.63475,5.95286 3.65135,5.95286 2.0166,0 3.65134,-2.66517 3.65134,-5.95286 0,-1.64376 -0.66625,-2.97627 -1.48813,-2.97627 -0.82189,0 -1.48815,1.33251 -1.48815,2.97627 0,3.28769 1.63476,5.95286 3.65136,5.95286 2.0166,0 3.65135,-2.66517 3.65135,-5.95286 0,-1.64376 -0.66626,-2.97627 -1.48815,-2.97627 -0.82186,0 -1.48813,1.33251 -1.48813,2.97627 0,3.28769 1.63474,5.95286 3.65136,5.95286 2.0166,0 3.65134,-2.66517 3.65134,-5.95286"
         style="fill:none;stroke:#000000;stroke-width:0.797;stroke-linecap:butt;stroke-linejoin:bevel;stroke-miterlimit:10;stroke-dasharray:none;stroke-opacity:1"
         transform="matrix(1.3333333,0,0,-1.3333333,204.03067,281.128)" /><g
         id="g18"
         aria-label="L&#10;1"
         transform="matrix(1.3333333,0,0,1.3333333,423.30267,116.92667)"><path
           id="path19"
           d="m 6.4087422,-2.4616016 c 0,-0.035156 -0.035156,-0.1054687 -0.1289063,-0.1054687 -0.082031,0 -0.09375,0.046875 -0.1640625,0.2109375 -0.3398437,0.9140625 -0.7734375,2.05078124 -2.4960937,2.05078124 h -0.9375 c -0.140625,0 -0.1640625,0 -0.2226563,-0.0117188 -0.1054687,-0.0117188 -0.1289062,-0.0234375 -0.1289062,-0.10546875 0,-0.0234375 0,-0.046875 0.046875,-0.22265625 L 3.7251484,-6.0241016 c 0.09375,-0.3632812 0.1171875,-0.46875 1.0546875,-0.46875 0.3046875,0 0.375,0 0.375,-0.1875 0,-0.1289062 -0.1054687,-0.1289062 -0.1523437,-0.1289062 l -1.4765625,0.035156 -1.3242188,-0.035156 c -0.070312,0 -0.1875,0 -0.1875,0.1992187 0,0.1171875 0.082031,0.1171875 0.28125,0.1171875 0,0 0.1992188,0 0.375,0.011719 0.1757813,0.023437 0.2695313,0.035156 0.2695313,0.1640625 0,0.035156 -0.011719,0.070312 -0.046875,0.1875 l -1.3359375,5.35546874 c -0.09375,0.38671875 -0.1171875,0.46875 -0.90234376,0.46875 -0.1640625,0 -0.26953125,0 -0.26953125,0.19921875 0,0.1054687475 0.09375,0.1054687475 0.26953125,0.1054687475 H 5.2720234 c 0.234375,0 0.2460938,0 0.3046875,-0.1640624975 L 6.3618672,-2.3209766 c 0.046875,-0.1054687 0.046875,-0.140625 0.046875,-0.140625 z m 0,0"
           style="fill:#000000;fill-opacity:1;fill-rule:nonzero;stroke:none" /><path
           id="path20"
           d="M 10.073781,1.4964062 V 1.2503125 H 9.8159688 c -0.703125,0 -0.703125,-0.09375 -0.703125,-0.328125 v -3.8554688 c 0,-0.1875 -0.011719,-0.1992187 -0.2109375,-0.1992187 -0.4453125,0.4335937 -1.078125,0.4453125 -1.359375,0.4453125 v 0.2460937 c 0.1640625,0 0.6210937,0 1.0078125,-0.1875 v 3.5507813 c 0,0.234375 0,0.328125 -0.6914063,0.328125 H 7.5894063 v 0.2460937 l 1.2421875,-0.023437 z m 0,0"
           style="fill:#000000;fill-opacity:1;fill-rule:nonzero;stroke:none" /></g><path
         id="path21"
         d="M 201.54588,125.29295 V 101.4815 m 7.93695,23.81145 V 101.4815"
         style="fill:none;stroke:#000000;stroke-width:0.797;stroke-linecap:butt;stroke-linejoin:miter;stroke-miterlimit:10;stroke-dasharray:none;stroke-opacity:1"
         transform="matrix(1.3333333,0,0,-1.3333333,204.03067,281.128)" /><g
         id="g21"
         aria-label="C&#10;1"
         transform="matrix(1.3333333,0,0,1.3333333,470.32,108.196)"><path
           id="path22"
           d="m 6.4455469,-2.3911406 c 0,-0.1054688 -0.1171875,-0.1054688 -0.1171875,-0.1054688 -0.058594,0 -0.1171875,0.023437 -0.1289063,0.1054688 -0.09375,0.2929687 -0.3164062,0.9960937 -1.0078125,1.57031247 -0.6914062,0.5625 -1.3125,0.7265625 -1.8398437,0.7265625 -0.890625,0 -1.9453125,-0.515625 -1.9453125,-2.06249997 0,-0.5742188 0.2109375,-2.1914063 1.2070312,-3.3515625 0.609375,-0.703125 1.5351563,-1.2070313 2.4257813,-1.2070313 1.0195312,0 1.6054687,0.7734375 1.6054687,1.921875 0,0.3984375 -0.035156,0.4101563 -0.035156,0.5039063 0,0.1054687 0.1171875,0.1054687 0.1523437,0.1054687 0.1289063,0 0.1289063,-0.023437 0.1757813,-0.1992187 l 0.6328125,-2.5429688 c 0,-0.023437 -0.023437,-0.09375 -0.1054688,-0.09375 -0.035156,0 -0.046875,0.011719 -0.1523437,0.1171875 l -0.703125,0.7617188 c -0.082031,-0.140625 -0.5390625,-0.8789063 -1.6523438,-0.8789063 -2.2148437,0 -4.45312497,2.203125 -4.45312497,4.5117188 0,1.64062497 1.17187497,2.73046872 2.69531247,2.73046872 0.8671875,0 1.6171875,-0.3984375 2.1445313,-0.85546875 0.9375,-0.82031247 1.1015625,-1.72265627 1.1015623,-1.75781247 z m 0,0"
           style="fill:#000000;fill-opacity:1;fill-rule:nonzero;stroke:none" /><path
           id="path23"
           d="M 10.412344,1.493625 V 1.2475312 h -0.257813 c -0.7031247,0 -0.7031247,-0.09375 -0.7031247,-0.32812495 V -2.9360625 c 0,-0.1875 -0.011719,-0.1992188 -0.2109375,-0.1992188 -0.4453125,0.4335938 -1.078125,0.4453125 -1.359375,0.4453125 v 0.2460938 c 0.1640625,0 0.6210937,0 1.0078125,-0.1875 v 3.55078125 c 0,0.23437495 0,0.32812495 -0.6914063,0.32812495 H 7.9279688 V 1.493625 L 9.1701563,1.470188 Z m 0,0"
           style="fill:#000000;fill-opacity:1;fill-rule:nonzero;stroke:none" /></g><path
         id="path24"
         d="m 235.73035,113.22784 c 0,3.28769 1.63475,5.95286 3.65135,5.95286 2.0166,0 3.65135,-2.66517 3.65135,-5.95286 0,-1.64376 -0.66626,-2.97627 -1.48815,-2.97627 -0.82186,0 -1.48812,1.33251 -1.48812,2.97627 0,3.28769 1.63473,5.95286 3.65133,5.95286 2.01662,0 3.65136,-2.66517 3.65136,-5.95286 0,-1.64376 -0.66627,-2.97627 -1.48813,-2.97627 -0.82189,0 -1.48814,1.33251 -1.48814,2.97627 0,3.28769 1.63474,5.95286 3.65135,5.95286 2.0166,0 3.65135,-2.66517 3.65135,-5.95286 0,-1.64376 -0.66626,-2.97627 -1.48815,-2.97627 -0.82188,0 -1.48812,1.33251 -1.48812,2.97627 0,3.28769 1.63473,5.95286 3.65133,5.95286 2.0166,0 3.65135,-2.66517 3.65135,-5.95286 0,-1.64376 -0.66626,-2.97627 -1.48812,-2.97627 -0.82189,0 -1.48815,1.33251 -1.48815,2.97627 0,3.28769 1.63475,5.95286 3.65136,5.95286 2.0166,0 3.65133,-2.66517 3.65133,-5.95286"
         style="fill:none;stroke:#000000;stroke-width:0.797;stroke-linecap:butt;stroke-linejoin:bevel;stroke-miterlimit:10;stroke-dasharray:none;stroke-opacity:1"
         transform="matrix(1.3333333,0,0,-1.3333333,204.03067,281.128)" /><g
         id="g24"
         aria-label="37nH"
         transform="matrix(1.3333333,0,0,1.3333333,517.212,116.92667)"><path
           id="path25"
           d="m 4.5460781,-1.6998828 c 0,-0.8203125 -0.6210937,-1.59375 -1.6523437,-1.8046875 0.8085937,-0.2695313 1.3945312,-0.9726563 1.3945312,-1.7578125 0,-0.8203125 -0.8789062,-1.3710938 -1.8398437,-1.3710938 -1.0078125,0 -1.75781252,0.5976563 -1.75781252,1.3476563 0,0.3398437 0.2109375,0.5273437 0.50390622,0.5273437 0.3046875,0 0.5039063,-0.2226562 0.5039063,-0.515625 0,-0.4921875 -0.46875,-0.4921875 -0.609375,-0.4921875 0.3046875,-0.4921875 0.9609375,-0.6210937 1.3242187,-0.6210937 0.4101563,0 0.9492188,0.2226562 0.9492188,1.1132812 0,0.1289063 -0.011719,0.703125 -0.2695313,1.1367188 -0.3046875,0.4804687 -0.6445312,0.515625 -0.890625,0.515625 -0.082031,0.011719 -0.3164062,0.035156 -0.3867187,0.035156 -0.082031,0.011719 -0.1523438,0.023437 -0.1523438,0.1171875 0,0.1171875 0.070312,0.1171875 0.234375,0.1171875 h 0.4453125 c 0.8085938,0 1.1835938,0.6679688 1.1835938,1.6523438 0,1.34765624 -0.6914063,1.64062499 -1.125,1.64062499 -0.4335938,0 -1.171875,-0.17578125 -1.52343752,-0.76171875 0.35156252,0.0585938 0.65625002,-0.1640625 0.65625002,-0.53906254 0,-0.3632812 -0.2695313,-0.5625 -0.56250002,-0.5625 -0.234375,0 -0.55078125,0.140625 -0.55078125,0.5742188 0,0.91406249 0.92578127,1.57031249 2.00390627,1.57031249 1.21875,0 2.1210937,-0.9140625 2.1210937,-1.92187479 z M 9.8107266,-6.4108203 H 7.3966641 c -1.21875,0 -1.2421875,-0.1289063 -1.2773438,-0.328125 H 5.8732266 l -0.328125,2.0507812 h 0.2460937 c 0.023437,-0.1523437 0.1171875,-0.7851562 0.2460938,-0.9023437 0.070312,-0.058594 0.84375,-0.058594 0.9726562,-0.058594 h 2.0625 l -1.1132812,1.5703125 c -0.890625,1.3476563 -1.21875,2.7304688 -1.21875,3.75000004 0,0.09375 0,0.55078125 0.4570312,0.55078125 0.4570313,0 0.4570313,-0.45703125 0.4570313,-0.55078125 v -0.50390625 c 0,-0.55078129 0.023437,-1.10156249 0.1054687,-1.64062499 0.046875,-0.2226563 0.1757813,-1.078125 0.6210938,-1.6992188 l 1.3476562,-1.8984375 c 0.082031,-0.1171875 0.082031,-0.140625 0.082031,-0.3398435 z m 0,0"
           style="fill:#000000;fill-opacity:1;fill-rule:nonzero;stroke:none" /><path
           id="path26"
           d="M 18.614438,-6.640625e-4 V -0.30535156 c -0.515625,0 -0.773438,0 -0.785157,-0.3046875 V -2.5084766 c 0,-0.8554687 0,-1.171875 -0.304687,-1.5234375 -0.140625,-0.1757812 -0.46875,-0.375 -1.042969,-0.375 -0.726562,0 -1.195312,0.4335938 -1.476562,1.0546875 v -1.0546875 l -1.40625,0.1171875 v 0.3046875 c 0.703125,0 0.785156,0.070312 0.785156,0.5625 v 2.66015629 c 0,0.45703125 -0.117188,0.45703125 -0.785156,0.45703125 v 0.3046874975 l 1.125,-0.0351562475 1.113281,0.0351562475 V -0.30535156 c -0.65625,0 -0.773438,0 -0.773438,-0.45703125 V -2.5905078 c 0,-1.03125 0.714844,-1.59375 1.347657,-1.59375 0.621093,0 0.738281,0.5390625 0.738281,1.1015625 v 2.32031249 c 0,0.45703125 -0.117188,0.45703125 -0.773438,0.45703125 v 0.3046874975 l 1.125,-0.0351562475 z m 7.341796,0 V -0.30535156 h -0.246093 c -0.761719,0 -0.785157,-0.1171875 -0.785157,-0.46875 V -6.0241016 c 0,-0.3632812 0.02344,-0.46875 0.785157,-0.46875 h 0.246093 v -0.3164062 c -0.351562,0.035156 -1.089843,0.035156 -1.464843,0.035156 -0.386719,0 -1.125,0 -1.476563,-0.035156 v 0.3164062 h 0.234375 c 0.773438,0 0.785156,0.1054688 0.785156,0.46875 v 2.3320313 h -2.976562 v -2.3320313 c 0,-0.3632812 0.02344,-0.46875 0.785156,-0.46875 h 0.246094 v -0.3164062 c -0.351563,0.035156 -1.089844,0.035156 -1.464844,0.035156 -0.375,0 -1.125,0 -1.476562,-0.035156 v 0.3164062 h 0.234375 c 0.773437,0 0.796875,0.1054688 0.796875,0.46875 v 5.25000004 c 0,0.3515625 -0.02344,0.46875 -0.796875,0.46875 H 19.147641 V -6.640625e-4 C 19.499203,-0.03582031 20.237484,-0.03582031 20.612484,-0.03582031 c 0.375,0 1.125,0 1.476563,0.0351562475 V -0.30535156 h -0.246094 c -0.761719,0 -0.785156,-0.1171875 -0.785156,-0.46875 V -3.3873828 h 2.976562 v 2.61328124 c 0,0.3515625 -0.01172,0.46875 -0.785156,0.46875 H 23.014828 V -6.640625e-4 C 23.366391,-0.03582031 24.104672,-0.03582031 24.479672,-0.03582031 c 0.375,0 1.125,0 1.476562,0.0351562475 z m 0,0"
           style="fill:#000000;fill-opacity:1;fill-rule:nonzero;stroke:none" /></g><path
         id="path27"
         d="m 283.4681,28.3468 v 26.64601 m 0,31.7484 v 26.64603"
         style="fill:none;stroke:#000000;stroke-width:0.3985;stroke-linecap:butt;stroke-linejoin:miter;stroke-miterlimit:10;stroke-dasharray:none;stroke-opacity:1"
         transform="matrix(1.3333333,0,0,-1.3333333,204.03067,281.128)" /><path
         id="path28"
         d="m 283.4681,54.59431 -5.95286,3.07741 11.9057,5.35782 -11.9057,5.35782 11.9057,5.3578 -11.9057,5.35782 11.9057,5.35782 -5.95284,2.67891"
         style="fill:none;stroke:#000000;stroke-width:0.797;stroke-linecap:butt;stroke-linejoin:bevel;stroke-miterlimit:10;stroke-dasharray:none;stroke-opacity:1"
         transform="matrix(1.3333333,0,0,-1.3333333,204.03067,281.128)" /><g
         id="g28"
         aria-label="8.5Ω"
         transform="matrix(1.3333333,0,0,1.3333333,592.85867,189.5)"><path
           id="path29"
           d="m 4.5474062,-1.6757812 c 0,-0.3515626 -0.1054687,-0.8085938 -0.4804687,-1.2187501 -0.1875,-0.2109375 -0.3515625,-0.3164062 -0.984375,-0.7148437 0.7148437,-0.3632813 1.2070312,-0.8789062 1.2070312,-1.5351562 0,-0.9257813 -0.890625,-1.4882813 -1.7929687,-1.4882813 -0.9960938,0 -1.8046875,0.7382813 -1.8046875,1.6640625 0,0.1757813 0.0117188,0.6210938 0.4335937,1.0898437 C 1.231,-3.75 1.606,-3.5039063 1.8520937,-3.3398438 1.277875,-3.046875 0.42240625,-2.4960938 0.42240625,-1.5 c 0,1.0546875 1.00781245,1.72265625 2.06249995,1.72265625 1.125,0 2.0625,-0.83203125 2.0625,-1.89843745 z m -0.703125,-3.46875 c 0,0.5625 -0.3867187,1.0429687 -0.984375,1.3945312 L 1.6294375,-4.546875 c -0.46875,-0.3046875 -0.5039063,-0.6445312 -0.5039063,-0.8085937 0,-0.609375 0.6445313,-1.03125 1.359375,-1.03125 0.7265625,0 1.359375,0.515625 1.359375,1.2421875 z M 4.0552187,-1.3125 c 0,0.73828125 -0.75,1.25390625 -1.5585937,1.25390625 -0.8671875,0 -1.58203125,-0.62109375 -1.58203125,-1.44140625 0,-0.5859375 0.31640625,-1.21875 1.17187495,-1.6875 l 1.21875,0.7734375 c 0.28125,0.1875 0.75,0.4921875 0.75,1.1015625 z m 0,0"
           style="fill:#000000;fill-opacity:1;fill-rule:nonzero;stroke:none" /><path
           id="path30"
           d="m 6.8911562,-0.52734375 c 0,-0.29296875 -0.234375,-0.52734375 -0.5273437,-0.52734375 -0.28125,0 -0.5273438,0.234375 -0.5273438,0.52734375 C 5.8364687,-0.234375 6.0825625,0 6.3638125,0 6.6567812,0 6.8911562,-0.234375 6.8911562,-0.52734375 Z m 0,0"
           style="fill:#000000;fill-opacity:1;fill-rule:nonzero;stroke:none" /><path
           id="path31"
           d="m 12.223187,-2.0039063 c 0,-1.1835937 -0.820312,-2.1796874 -1.898437,-2.1796874 -0.4804688,0 -0.9023438,0.1640625 -1.265625,0.5039062 v -1.9335937 c 0.1992187,0.058594 0.5273437,0.1289062 0.84375,0.1289062 1.230469,0 1.933594,-0.9140625 1.933594,-1.0429687 0,-0.058594 -0.03516,-0.1054688 -0.105469,-0.1054688 0,0 -0.03516,0 -0.08203,0.023437 -0.199219,0.09375 -0.679688,0.2929688 -1.347657,0.2929688 -0.398437,0 -0.8554683,-0.070312 -1.3242183,-0.28125 -0.082031,-0.023437 -0.1289062,-0.023437 -0.1289062,-0.023437 -0.09375,0 -0.09375,0.082031 -0.09375,0.234375 v 2.9531249 c 0,0.1757813 0,0.2578125 0.140625,0.2578125 0.070312,0 0.082031,-0.035156 0.1289062,-0.09375 0.1054688,-0.1523437 0.4804688,-0.6914062 1.2773433,-0.6914062 0.527344,0 0.773438,0.4570312 0.855469,0.6328125 0.152344,0.375 0.175781,0.7617187 0.175781,1.2539062 0,0.3515626 0,0.9492188 -0.234375,1.3710938 -0.246093,0.38671875 -0.609375,0.64453125 -1.066406,0.64453125 -0.7265623,0 -1.300781,-0.52734375 -1.4648435,-1.11328125 0.023437,0.011719 0.058594,0.011719 0.1640625,0.011719 0.328125,0 0.5039062,-0.2460938 0.5039062,-0.4804688 0,-0.2460937 -0.1757812,-0.4921875 -0.5039062,-0.4921875 -0.140625,0 -0.4804688,0.070312 -0.4804688,0.5273438 0,0.8554687 0.6796875,1.82812495 1.7929688,1.82812495 1.160156,0 2.179687,-0.9609375 2.179687,-2.22656255 z m 10.561524,0.3867188 h -0.246094 c -0.04687,0.2578125 -0.08203,0.4921875 -0.175781,0.7265625 -0.04687,0.1640625 -0.08203,0.24609375 -0.65625,0.24609375 H 20.909711 C 21.038617,-1.2070312 21.343305,-1.6875 21.788617,-2.34375 c 0.46875,-0.703125 0.878906,-1.3945313 0.878906,-2.1796875 0,-1.3828125 -1.335937,-2.4960937 -3.023437,-2.4960937 -1.710938,0 -3.035156,1.1367187 -3.035156,2.4960937 0,0.7851562 0.398437,1.4765625 0.867187,2.1796875 0.445313,0.65625 0.761719,1.1367188 0.890625,1.69921875 h -0.796875 c -0.574219,0 -0.609375,-0.0820313 -0.65625,-0.234375 C 16.831586,-1.1015625 16.784711,-1.359375 16.737836,-1.6171875 H 16.480023 L 16.808148,0 h 1.59375 c 0.222657,0 0.257813,0 0.257813,-0.2109375 0,-0.69140625 -0.316406,-1.5703125 -0.539063,-2.2148438 C 17.909711,-3 17.628461,-3.7851563 17.628461,-4.5351562 c 0,-1.59375 1.101562,-2.2734375 2.003906,-2.2734375 0.960938,0 2.015625,0.7265625 2.015625,2.2734375 0,0.7499999 -0.269531,1.5117187 -0.5625,2.3203124 -0.152344,0.4218751 -0.46875,1.31250005 -0.46875,2.0039063 C 20.616742,0 20.651898,0 20.874555,0 h 1.582031 z m 0,0"
           style="fill:#000000;fill-opacity:1;fill-rule:nonzero;stroke:none" /></g><path
         id="path32"
         d="M -62.36288,42.5202 V 98.8153"
         style="fill:none;stroke:#000000;stroke-width:0.3985;stroke-linecap:butt;stroke-linejoin:miter;stroke-miterlimit:10;stroke-dasharray:none;stroke-opacity:1"
         transform="matrix(1.3333333,0,0,-1.3333333,204.03067,281.128)" /><path
         id="path33"
         d="M -2.07224,2.39104 C -1.69365,0.95639 -0.84999,0.27895 0,0 -0.84999,-0.27895 -1.69365,-0.95639 -2.07224,-2.39104"
         style="fill:none;stroke:#000000;stroke-width:0.3985;stroke-linecap:round;stroke-linejoin:round;stroke-miterlimit:10;stroke-dasharray:none;stroke-opacity:1"
         transform="matrix(0,-1.3333333,-1.3333333,0,120.88016,149.10857)" /><g
         id="g33"
         aria-label="150V"
         transform="matrix(1.3333333,0,0,1.3333333,81.045333,191.216)"><path
           id="path34"
           d="M 4.1730313,-8.671875e-4 V -0.30555469 H 3.856625 c -0.9023437,0 -0.9257812,-0.1171875 -0.9257812,-0.48046875 V -6.3758672 c 0,-0.234375 0,-0.2578125 -0.234375,-0.2578125 -0.609375,0.6328125 -1.4882813,0.6328125 -1.80468755,0.6328125 v 0.3164063 c 0.19921875,0 0.78515625,0 1.30078125,-0.2578125 v 5.15624996 c 0,0.3515625 -0.035156,0.48046875 -0.9257812,0.48046875 H 0.950375 V -8.671875e-4 C 1.3019375,-0.03602344 2.1574063,-0.03602344 2.5558438,-0.03602344 c 0.3984375,0 1.265625,0 1.6171875,0.0351562525 z M 9.4581875,-2.0047734 c 0,-1.1835938 -0.8203125,-2.1796875 -1.8984375,-2.1796875 -0.4804687,0 -0.9023437,0.1640625 -1.265625,0.5039062 v -1.9335937 c 0.1992188,0.058594 0.5273438,0.1289062 0.84375,0.1289062 1.2304688,0 1.9335938,-0.9140625 1.9335938,-1.0429687 0,-0.058594 -0.035156,-0.1054688 -0.1054688,-0.1054688 0,0 -0.035156,0 -0.082031,0.023437 -0.1992188,0.09375 -0.6796875,0.2929688 -1.3476563,0.2929688 -0.3984375,0 -0.8554687,-0.070312 -1.3242187,-0.28125 -0.082031,-0.023437 -0.1289063,-0.023437 -0.1289063,-0.023437 -0.09375,0 -0.09375,0.082031 -0.09375,0.234375 v 2.953125 c 0,0.1757812 0,0.2578125 0.140625,0.2578125 0.070312,0 0.082031,-0.035156 0.1289063,-0.09375 0.1054687,-0.1523438 0.4804687,-0.6914063 1.2773437,-0.6914063 0.5273438,0 0.7734375,0.4570313 0.8554688,0.6328125 0.1523437,0.375 0.1757812,0.7617188 0.1757812,1.2539063 0,0.3515625 0,0.9492187 -0.234375,1.37109371 -0.2460937,0.38671875 -0.609375,0.64453125 -1.0664062,0.64453125 -0.7265625,0 -1.3007813,-0.52734375 -1.4648438,-1.11328126 0.023437,0.011719 0.058594,0.011719 0.1640625,0.011719 0.328125,0 0.5039063,-0.2460938 0.5039063,-0.4804688 0,-0.2460937 -0.1757813,-0.4921875 -0.5039063,-0.4921875 -0.140625,0 -0.4804687,0.070312 -0.4804687,0.5273438 0,0.85546871 0.6796875,1.82812496 1.7929687,1.82812496 1.1601563,0 2.1796875,-0.9609375 2.1796873,-2.22656266 z m 5.0859375,-1.1835938 c 0,-0.796875 -0.04687,-1.59375 -0.398437,-2.3320312 -0.457032,-0.9609375 -1.277344,-1.1132813 -1.6875,-1.1132813 -0.597657,0 -1.335938,0.2578125 -1.734375,1.1835938 -0.328125,0.6914062 -0.375,1.4648437 -0.375,2.2617187 0,0.75 0.04687,1.640625 0.445312,2.40234376 0.433594,0.80859375 1.160156,1.0078125 1.652344,1.0078125 0.539062,0 1.289062,-0.2109375 1.734375,-1.16015625 0.316406,-0.69140621 0.363281,-1.46484371 0.363281,-2.25000001 z m -0.832031,-0.1171875 c 0,0.75 0,1.4179688 -0.105469,2.0625 -0.152344,0.93750001 -0.714844,1.2421875125 -1.160156,1.2421875125 -0.386719,0 -0.984375,-0.2460937525 -1.160156,-1.2070312125 -0.105469,-0.5976563 -0.105469,-1.5117188 -0.105469,-2.0976563 0,-0.6445312 0,-1.3007812 0.08203,-1.8398437 0.1875,-1.1835938 0.925781,-1.265625 1.183594,-1.265625 0.328125,0 0.984375,0.1757812 1.171875,1.1601562 0.09375,0.5625 0.09375,1.3125 0.09375,1.9453125 z m 0,0"
           style="fill:#000000;fill-opacity:1;fill-rule:nonzero;stroke:none" /><path
           id="path35"
           d="m 25.542172,-6.4930547 v -0.3164062 c -0.316406,0.023437 -0.714844,0.035156 -0.972656,0.035156 l -1.136719,-0.035156 v 0.3164062 c 0.515625,0.011719 0.726562,0.2695313 0.726562,0.4921875 0,0.082031 -0.02344,0.140625 -0.04687,0.1992188 l -1.828125,4.80468746 -1.898437,-5.02734376 c -0.05859,-0.140625 -0.05859,-0.1875 -0.05859,-0.1875 0,-0.28125 0.5625,-0.28125 0.820313,-0.28125 v -0.3164062 c -0.363282,0.035156 -1.054688,0.035156 -1.429688,0.035156 l -1.265625,-0.035156 v 0.3164062 c 0.644531,0 0.84375,0 0.972656,0.375 l 2.320313,6.1171875125 C 21.815616,0.18663281 21.862493,0.22178906 21.9914,0.22178906 c 0.164062,0 0.1875,-0.0585938 0.234375,-0.1875 l 2.226562,-5.85937496 c 0.140625,-0.375 0.410156,-0.65625 1.089844,-0.6679688 z m 0,0"
           style="fill:#000000;fill-opacity:1;fill-rule:nonzero;stroke:none" /></g><path
         id="path36"
         d="M 53.85875,42.5202 V 98.8153"
         style="fill:none;stroke:#000000;stroke-width:0.3985;stroke-linecap:butt;stroke-linejoin:miter;stroke-miterlimit:10;stroke-dasharray:none;stroke-opacity:1"
         transform="matrix(1.3333333,0,0,-1.3333333,204.03067,281.128)" /><path
         id="path37"
         d="M -2.07224,2.39104 C -1.69365,0.95639 -0.84999,0.27895 0,0 -0.84999,-0.27895 -1.69365,-0.95639 -2.07224,-2.39104"
         style="fill:none;stroke:#000000;stroke-width:0.3985;stroke-linecap:round;stroke-linejoin:round;stroke-miterlimit:10;stroke-dasharray:none;stroke-opacity:1"
         transform="matrix(0,-1.3333333,-1.3333333,0,275.84233,149.10857)" /><g
         id="g37"
         aria-label="v&#10;s&#10;(ωt)"
         transform="matrix(1.3333333,0,0,1.3333333,235.16933,189.96133)"><path
           id="path38"
           d="m 4.6630391,-3.7034219 c 0,-0.5390625 -0.2578125,-0.703125 -0.4453125,-0.703125 -0.2460938,0 -0.4804688,0.2578125 -0.4804688,0.4804688 0,0.1289062 0.046875,0.1875 0.1523438,0.3046875 0.2109375,0.1992187 0.3398437,0.4570312 0.3398437,0.8085937 0,0.421875 -0.609375,2.70703127 -1.7695312,2.70703127 -0.5039063,0 -0.7382813,-0.3515625 -0.7382813,-0.8671875 0,-0.56249997 0.2695313,-1.28906247 0.5742188,-2.12109377 0.070312,-0.1640625 0.1289062,-0.3046875 0.1289062,-0.4921875 0,-0.4453125 -0.328125,-0.8203125 -0.8203125,-0.8203125 -0.93749999,0 -1.31249999,1.453125 -1.31249999,1.5351563 0,0.1054687 0.1171875,0.1054687 0.1171875,0.1054687 0.09375,0 0.10546875,-0.023437 0.15234375,-0.1875 0.29296875,-0.9960937 0.72656254,-1.2304687 1.00781254,-1.2304687 0.082031,0 0.2578125,0 0.2578125,0.3164062 0,0.2460938 -0.1054688,0.515625 -0.1757813,0.703125 -0.4335937,1.1484375 -0.5625,1.6054688 -0.5625,2.0390625 0,1.07812502 0.8671875,1.23046877 1.3359375,1.23046877 1.6640625,0 2.2382813,-3.29296877 2.2382813,-3.80859377 z m 0,0"
           style="fill:#000000;fill-opacity:1;fill-rule:nonzero;stroke:none" /><path
           id="path39"
           d="m 7.9706562,0.41571875 c 0,-0.64453125 -0.703125,-0.7734375 -0.9609375,-0.8203125 C 6.9394062,-0.4163125 6.763625,-0.43975 6.7284687,-0.4631875 6.4706562,-0.5100625 6.34175,-0.6506875 6.34175,-0.80303125 c 0,-0.1640625 0.1289062,-0.35156255 0.28125,-0.44531255 0.1875,-0.1289062 0.4335937,-0.140625 0.5507812,-0.140625 0.140625,0 0.5039063,0.023437 0.65625,0.2578125 -0.1757812,0.046875 -0.2929687,0.18750005 -0.2929687,0.32812505 0,0.1640625 0.140625,0.22265625 0.234375,0.22265625 0.070312,0 0.3398437,-0.0351563 0.3398437,-0.3984375 0,-0.4453125 -0.5039062,-0.5976563 -0.9257812,-0.5976563 -1.0898438,0 -1.2890625,0.79687505 -1.2890625,1.00781255 0,0.2578125 0.1523437,0.43359375 0.2460937,0.515625 0.1757813,0.140625 0.3046875,0.1640625 0.7851563,0.24609375 0.1523437,0.0351563 0.5976562,0.1171875 0.5976562,0.46875 0,0.1171875 -0.082031,0.375 -0.375,0.5507812 -0.2695312,0.1523438 -0.609375,0.1523438 -0.6914062,0.1523438 -0.28125,0 -0.6796875,-0.058594 -0.84375,-0.2929688 0.234375,-0.023437 0.3867187,-0.1992187 0.3867187,-0.39843745 0,-0.1640625 -0.1289062,-0.2578125 -0.2695312,-0.2578125 -0.1992188,0 -0.4101563,0.1640625 -0.4101563,0.46875 0,0.42187495 0.4453125,0.67968745 1.125,0.67968745 1.2890625,0 1.5234375,-0.8789062 1.5234375,-1.14843745 z m 0,0"
           style="fill:#000000;fill-opacity:1;fill-rule:nonzero;stroke:none" /><path
           id="path40"
           d="m 12.379836,2.3903281 c 0,-0.035156 0,-0.046875 -0.164063,-0.2226562 -1.242187,-1.25390628 -1.570312,-3.12890628 -1.570312,-4.6640625 0,-1.7226563 0.386719,-3.4570313 1.605469,-4.7109375 0.128906,-0.1171875 0.128906,-0.1289063 0.128906,-0.1640625 0,-0.070312 -0.03516,-0.1054688 -0.09375,-0.1054688 -0.105469,0 -0.996094,0.6796875 -1.582031,1.9453125 -0.515625,1.1015625 -0.632813,2.203125 -0.632813,3.0351563 0,0.7851562 0.117188,1.99218747 0.65625,3.11718747 0.597656,1.21875003 1.453125,1.87500003 1.558594,1.87500003 0.05859,0 0.09375,-0.035156 0.09375,-0.1054688 z m 0,0"
           style="fill:#000000;fill-opacity:1;fill-rule:nonzero;stroke:none" /><path
           id="path41"
           d="m 18.751906,-2.3792031 c 0.105469,-0.4335938 0.222656,-0.9257813 0.222656,-1.3242188 0,-0.2578125 -0.04687,-0.4804687 -0.199218,-0.609375 -0.05859,-0.058594 -0.128907,-0.09375 -0.222657,-0.09375 -0.117187,0 -0.246093,0.058594 -0.351562,0.1640625 -0.09375,0.09375 -0.140625,0.2109375 -0.140625,0.3164063 0,0.1054687 0.04687,0.1757812 0.117187,0.2460937 0.246094,0.2226563 0.375,0.5273438 0.375,0.8789063 0,0.1171875 -0.01172,0.2460937 -0.04687,0.375 -0.222656,0.9023437 -0.796875,1.81640622 -1.59375,1.81640622 -0.550781,0 -0.878906,-0.375 -0.972656,-0.89062502 0.128906,-0.28125 0.234375,-0.5859375 0.304688,-0.8789062 0.01172,-0.09375 0.03516,-0.1757813 0.03516,-0.2578125 0,-0.1523438 -0.04687,-0.2578125 -0.1875,-0.2578125 -0.1875,0 -0.292969,0.2460937 -0.339844,0.46875 -0.08203,0.3046875 -0.117187,0.5976562 -0.128906,0.890625 -0.328125,0.53906247 -0.808594,0.92578122 -1.359375,0.92578122 -0.597656,0 -0.867188,-0.49218752 -0.867188,-1.12500002 0,-0.1992187 0.03516,-0.421875 0.08203,-0.6445312 0.152343,-0.5976563 0.515625,-1.1601563 0.890625,-1.6875 0.02344,-0.035156 0.04687,-0.082031 0.04687,-0.1289063 0,-0.058594 -0.03516,-0.1054687 -0.09375,-0.140625 -0.02344,-0.011719 -0.05859,-0.011719 -0.08203,-0.011719 -0.05859,0 -0.128906,0.023437 -0.175781,0.082031 -0.410156,0.5742188 -0.667969,1.2070313 -0.820312,1.8398438 -0.105469,0.375 -0.152344,0.7617187 -0.152344,1.1132812 0,0.80859377 0.292969,1.41796877 1.042969,1.41796877 0.632812,0 1.148437,-0.43359375 1.523437,-1.0546875 0.117188,0.62109375 0.457031,1.0546875 1.125,1.0546875 1.042969,0 1.664063,-1.27734377 1.96875,-2.48437497 z m 3.899414,0.9492187 c 0,-0.09375 -0.08203,-0.09375 -0.117187,-0.09375 -0.09375,0 -0.105469,0.023437 -0.152344,0.140625 -0.433594,1.03125002 -0.960937,1.27734377 -1.300781,1.27734377 -0.199219,0 -0.304688,-0.12890625 -0.304688,-0.45703125 0,-0.24609375 0.02344,-0.31640625 0.05859,-0.48046872 l 0.738281,-2.9414063 h 0.9375 c 0.199219,0 0.304688,0 0.304688,-0.1992187 0,-0.1054688 -0.105469,-0.1054688 -0.28125,-0.1054688 h -0.878906 c 0.363281,-1.4179687 0.410156,-1.6171875 0.410156,-1.6757812 0,-0.1757813 -0.117188,-0.2695313 -0.292969,-0.2695313 -0.02344,0 -0.304687,0.011719 -0.398437,0.3515625 l -0.386719,1.59375 h -0.9375 c -0.199219,0 -0.292969,0 -0.292969,0.1875 0,0.1171875 0.07031,0.1171875 0.269531,0.1171875 h 0.878907 c -0.714844,2.8242188 -0.75,3.00000002 -0.75,3.17578127 0,0.5390625 0.375,0.9140625 0.914062,0.9140625 1.007813,0 1.582031,-1.45312497 1.582031,-1.53515627 z m 0,0"
           style="fill:#000000;fill-opacity:1;fill-rule:nonzero;stroke:none" /><path
           id="path42"
           d="m 25.999953,-2.4963906 c 0,-0.7734375 -0.117187,-1.9804688 -0.65625,-3.1054688 -0.597656,-1.21875 -1.464844,-1.875 -1.558594,-1.875 -0.05859,0 -0.105468,0.046875 -0.105468,0.1054688 0,0.035156 0,0.046875 0.199218,0.234375 0.972657,0.984375 1.535157,2.5664062 1.535157,4.640625 0,1.71093747 -0.363282,3.45703122 -1.59375,4.7226562 -0.140625,0.1171875 -0.140625,0.1289063 -0.140625,0.1640625 0,0.058594 0.04687,0.1054688 0.105468,0.1054688 0.09375,0 0.996094,-0.6796875 1.582032,-1.94531253 0.503906,-1.1015625 0.632812,-2.20312497 0.632812,-3.04687497 z m 0,0"
           style="fill:#000000;fill-opacity:1;fill-rule:nonzero;stroke:none" /></g><path
         id="path43"
         d="m 155.90744,141.73404 c 0.4483,0.89666 1.49442,1.49441 2.98883,1.49441 h 22.36914 c 1.49442,0 2.54053,0.59777 2.98883,1.49442 0.44832,-0.89665 1.49442,-1.49442 2.98883,-1.49442 h 22.36916 c 1.49441,0 2.54053,-0.59775 2.98883,-1.49441"
         style="fill:none;stroke:#000000;stroke-width:0.3985;stroke-linecap:butt;stroke-linejoin:miter;stroke-miterlimit:10;stroke-dasharray:none;stroke-opacity:1"
         transform="matrix(1.3333333,0,0,-1.3333333,204.03067,281.128)" /><g
         id="g43"
         aria-label="Tunedtoω"
         transform="matrix(1.3333333,0,0,1.3333333,416.73067,77.829333)"><path
           id="path44"
           d="m 6.8201641,-4.5009063 -0.1875,-2.2382812 H 0.55063281 l -0.1875,2.2382812 H 0.60922656 C 0.74985156,-6.106375 0.90219531,-6.4345 2.4021953,-6.4345 c 0.1757813,0 0.4335938,0 0.5390625,0.023437 0.2109375,0.035156 0.2109375,0.140625 0.2109375,0.375 v 5.25 c 0,0.33984375 0,0.48046875 -1.0546875,0.48046875 H 1.6990703 v 0.3046875 C 2.1092266,-0.0360625 3.1287578,-0.0360625 3.5857891,-0.0360625 c 0.4570312,0 1.4882812,0 1.8984375,0.03515625 v -0.3046875 H 5.0857891 c -1.0546875,0 -1.0546875,-0.140625 -1.0546875,-0.48046875 v -5.25 c 0,-0.1992188 0,-0.3398438 0.1875,-0.375 0.1054687,-0.023437 0.375,-0.023437 0.5625,-0.023437 1.5,0 1.6523437,0.328125 1.7929687,1.9335937 z m 4.8808589,4.50000005 v -0.3046875 c -0.703125,0 -0.785156,-0.0703125 -0.785156,-0.5625 V -4.4071563 l -1.4531248,0.1171875 v 0.3046875 c 0.6914058,0 0.7734378,0.070312 0.7734378,0.5625 V -1.65325 c 0,0.8671875 -0.4804691,1.546875 -1.2070316,1.546875 -0.8320312,0 -0.8789062,-0.46875 -0.8789062,-0.9960938 v -3.3046875 l -1.4648438,0.1171875 v 0.3046875 c 0.7851563,0 0.7851563,0.035156 0.7851563,0.9140625 v 1.5 c 0,0.77343755 0,1.6757813 1.5117187,1.6757813 0.5507813,0 0.9960938,-0.26953125 1.2773436,-0.890625 v 0.890625 z m 5.53418,0 v -0.3046875 c -0.515625,0 -0.773437,0 -0.785156,-0.3046875 V -2.5087188 c 0,-0.8554687 0,-1.171875 -0.304688,-1.5234375 -0.140625,-0.1757812 -0.46875,-0.375 -1.042968,-0.375 -0.726563,0 -1.195313,0.4335938 -1.476563,1.0546875 v -1.0546875 l -1.40625,0.1171875 v 0.3046875 c 0.703125,0 0.785156,0.070312 0.785156,0.5625 v 2.6601563 c 0,0.45703125 -0.117187,0.45703125 -0.785156,0.45703125 v 0.3046875 l 1.125,-0.03515625 1.113281,0.03515625 v -0.3046875 c -0.65625,0 -0.773437,0 -0.773437,-0.45703125 V -2.59075 c 0,-1.03125 0.714844,-1.59375 1.347656,-1.59375 0.621094,0 0.738281,0.5390625 0.738281,1.1015625 v 2.3203125 c 0,0.45703125 -0.117187,0.45703125 -0.773437,0.45703125 v 0.3046875 l 1.125,-0.03515625 z M 21.57407,-1.1845 c 0,-0.1054688 -0.08203,-0.1171875 -0.128906,-0.1171875 -0.09375,0 -0.117187,0.058594 -0.128906,0.140625 -0.351563,1.01953125 -1.253906,1.01953125 -1.347656,1.01953125 -0.503907,0 -0.902344,-0.29296875 -1.125,-0.66796875 -0.304688,-0.4804688 -0.304688,-1.1367188 -0.304688,-1.4882813 h 2.789063 c 0.210937,0 0.246093,0 0.246093,-0.2109375 0,-0.984375 -0.539062,-1.9570312 -1.78125,-1.9570312 -1.160156,0 -2.074218,1.03125 -2.074218,2.2734375 0,1.3359375 1.042968,2.296875 2.191406,2.296875 1.21875,0 1.664062,-1.1015625 1.664062,-1.2890625 z m -0.65625,-1.3242188 h -2.367187 c 0.05859,-1.4882812 0.902344,-1.734375 1.242187,-1.734375 1.019532,0 1.125,1.3476563 1.125,1.734375 z m 6.199219,2.50781255 v -0.3046875 c -0.703125,0 -0.773437,-0.0703125 -0.773437,-0.5625 V -6.9149688 L 24.902195,-6.8095 v 0.3164062 c 0.703125,0 0.785157,0.070312 0.785157,0.5507813 v 2.15625 c -0.292969,-0.3632813 -0.726563,-0.6210938 -1.265625,-0.6210938 -1.171875,0 -2.214844,0.984375 -2.214844,2.2617188 0,1.265625 0.972656,2.25 2.109375,2.25 0.644531,0 1.089844,-0.33984375 1.335937,-0.65625 v 0.65625 z M 25.652195,-1.1727813 c 0,0.1757813 0,0.1992188 -0.105468,0.3632813 -0.304688,0.48046875 -0.75,0.703125 -1.183594,0.703125 -0.445313,0 -0.796875,-0.2578125 -1.042969,-0.64453125 -0.257812,-0.41015625 -0.292969,-0.97265625 -0.292969,-1.38281255 0,-0.3632812 0.02344,-0.9609375 0.316407,-1.4179687 0.210937,-0.3046875 0.585937,-0.6328125 1.125,-0.6328125 0.351562,0 0.761718,0.1523437 1.078125,0.5976562 0.105468,0.1640625 0.105468,0.1875 0.105468,0.3632813 z m 8.373047,-0.058594 v -0.5742188 h -0.246094 v 0.5507813 c 0,0.73828125 -0.304687,1.11328125 -0.667968,1.11328125 -0.667969,0 -0.667969,-0.90234375 -0.667969,-1.07812505 v -2.765625 h 1.429687 v -0.3046875 h -1.429687 v -1.8398437 h -0.246094 c -0.01172,0.8203125 -0.316406,1.8867187 -1.289062,1.921875 v 0.2226562 h 0.84375 v 2.7539063 c 0,1.21875 0.925781,1.3359375 1.289062,1.3359375 0.703125,0 0.984375,-0.703125 0.984375,-1.3359375 z m 5.25586,-0.9023438 c 0,-1.2773437 -0.996094,-2.3320312 -2.191407,-2.3320312 -1.253906,0 -2.214843,1.0898437 -2.214843,2.3320312 0,1.28906255 1.03125,2.2382813 2.203125,2.2382813 1.207031,0 2.203125,-0.97265625 2.203125,-2.2382813 z M 38.460789,-2.21575 c 0,0.3632812 0,0.9023437 -0.222656,1.3359375 -0.222656,0.4453125 -0.65625,0.73828125 -1.148438,0.73828125 -0.433593,0 -0.867187,-0.2109375 -1.136718,-0.66796875 -0.257813,-0.4335938 -0.257813,-1.0429688 -0.257813,-1.40625 0,-0.3867188 0,-0.9257813 0.246094,-1.359375 0.269531,-0.4570313 0.738281,-0.6679688 1.136719,-0.6679688 0.433593,0 0.867187,0.2226563 1.125,0.6445313 0.257812,0.4335937 0.257812,1.0078125 0.257812,1.3828125 z m 0,0"
           style="fill:#000000;fill-opacity:1;fill-rule:nonzero;stroke:none" /><path
           id="path45"
           d="m 48.682469,-2.3798125 c 0.105468,-0.4335938 0.222656,-0.9257813 0.222656,-1.3242188 0,-0.2578125 -0.04687,-0.4804687 -0.199219,-0.609375 -0.05859,-0.058594 -0.128906,-0.09375 -0.222656,-0.09375 -0.117188,0 -0.246094,0.058594 -0.351563,0.1640625 -0.09375,0.09375 -0.140625,0.2109375 -0.140625,0.3164063 0,0.1054687 0.04687,0.1757812 0.117188,0.2460937 0.246094,0.2226563 0.375,0.5273438 0.375,0.8789063 0,0.1171875 -0.01172,0.2460937 -0.04687,0.375 -0.222656,0.9023437 -0.796875,1.81640625 -1.59375,1.81640625 -0.550781,0 -0.878906,-0.375 -0.972656,-0.89062505 0.128906,-0.28125 0.234375,-0.5859375 0.304687,-0.8789062 0.01172,-0.09375 0.03516,-0.1757813 0.03516,-0.2578125 0,-0.1523438 -0.04687,-0.2578125 -0.1875,-0.2578125 -0.1875,0 -0.292968,0.2460937 -0.339843,0.46875 -0.08203,0.3046875 -0.117188,0.5976562 -0.128907,0.890625 -0.328125,0.5390625 -0.808593,0.92578125 -1.359375,0.92578125 -0.597656,0 -0.867187,-0.49218755 -0.867187,-1.12500005 0,-0.1992187 0.03516,-0.421875 0.08203,-0.6445312 0.152344,-0.5976563 0.515625,-1.1601563 0.890625,-1.6875 0.02344,-0.035156 0.04687,-0.082031 0.04687,-0.1289063 0,-0.058594 -0.03516,-0.1054687 -0.09375,-0.140625 -0.02344,-0.011719 -0.05859,-0.011719 -0.08203,-0.011719 -0.05859,0 -0.128906,0.023437 -0.175781,0.082031 -0.410157,0.5742188 -0.667969,1.2070313 -0.820313,1.8398438 -0.105469,0.375 -0.152344,0.7617187 -0.152344,1.1132812 0,0.8085938 0.292969,1.4179688 1.042969,1.4179688 0.632813,0 1.148438,-0.43359375 1.523438,-1.0546875 0.117187,0.62109375 0.457031,1.0546875 1.125,1.0546875 1.042968,0 1.664062,-1.2773438 1.96875,-2.484375 z m 0,0"
           style="fill:#000000;fill-opacity:1;fill-rule:nonzero;stroke:none" /></g><path
         id="path46"
         d="M -42.5202,28.3468 H 283.4681"
         style="fill:none;stroke:#000000;stroke-width:0.3985;stroke-linecap:butt;stroke-linejoin:miter;stroke-miterlimit:10;stroke-dasharray:none;stroke-opacity:1"
         transform="matrix(1.3333333,0,0,-1.3333333,204.03067,281.128)" /><path
         id="path47"
         d="M 70.867,96.37897 V 93.94305"
         style="fill:none;stroke:#000000;stroke-width:0.3985;stroke-linecap:butt;stroke-linejoin:miter;stroke-miterlimit:10;stroke-dasharray:none;stroke-opacity:1"
         transform="matrix(1.3333333,0,0,-1.3333333,204.03067,281.128)" /><path
         id="path48"
         d="M -2.07224,2.39104 C -1.69365,0.95639 -0.84999,0.27895 0,0 -0.84999,-0.27895 -1.69365,-0.95639 -2.07224,-2.39104"
         style="fill:none;stroke:#000000;stroke-width:0.3985;stroke-linecap:round;stroke-linejoin:round;stroke-miterlimit:10;stroke-dasharray:none;stroke-opacity:1"
         transform="matrix(0,1.3333333,1.3333333,0,298.52,156.13627)" /><g
         id="g48"
         aria-label="i&#10;s&#10;(ωt)"
         transform="matrix(1.3333333,0,0,1.3333333,307.91067,159.72533)"><path
           id="path49"
           d="m 2.8238359,-6.2217344 c 0,-0.1992187 -0.1289062,-0.3632812 -0.3632812,-0.3632812 -0.2695313,0 -0.5390625,0.2578125 -0.5390625,0.5273437 0,0.1875 0.140625,0.3632813 0.375,0.3632813 0.234375,0 0.5273437,-0.234375 0.5273437,-0.5273438 z m 0.09375,4.7929688 c 0,-0.09375 -0.09375,-0.09375 -0.1171875,-0.09375 -0.1054687,0 -0.1054687,0.023437 -0.1523437,0.1757812 -0.1757813,0.63281253 -0.5039063,1.24218753 -1.0195313,1.24218753 -0.1640625,0 -0.234375,-0.10546875 -0.234375,-0.328125 0,-0.2578125 0.058594,-0.3984375 0.2929688,-0.99609373 l 0.3867187,-1.0546875 c 0.1171875,-0.28125 0.1171875,-0.3046875 0.2226563,-0.5742188 0.070312,-0.1992187 0.1289062,-0.3398437 0.1289062,-0.5273437 0,-0.4453125 -0.328125,-0.8203125 -0.8203125,-0.8203125 -0.93749996,0 -1.31249996,1.453125 -1.31249996,1.5351562 0,0.1054688 0.1171875,0.1054688 0.1171875,0.1054688 0.09375,0 0.10546875,-0.023437 0.15234375,-0.1875 0.26953125,-0.9375 0.66796871,-1.2304688 1.00781251,-1.2304688 0.082031,0 0.2578125,0 0.2578125,0.3164063 0,0.2109375 -0.070312,0.421875 -0.1171875,0.515625 -0.082031,0.2578125 -0.5273438,1.4179687 -0.6796875,1.8515625 -0.10546876,0.2578125 -0.23437501,0.58593748 -0.23437501,0.79687498 0,0.46875 0.33984371,0.80859375 0.82031251,0.80859375 0.9375,0 1.3007812,-1.44140623 1.3007812,-1.53515623 z m 0,0"
           style="fill:#000000;fill-opacity:1;fill-rule:nonzero;stroke:none" /><path
           id="path50"
           d="m 6.5738359,0.4169375 c 0,-0.64453125 -0.703125,-0.7734375 -0.9609375,-0.8203125 -0.070312,-0.0117188 -0.2460937,-0.0351563 -0.28125,-0.0585938 -0.2578125,-0.046875 -0.3867187,-0.1875 -0.3867187,-0.33984375 0,-0.1640625 0.1289062,-0.35156245 0.28125,-0.44531245 0.1875,-0.1289062 0.4335937,-0.140625 0.5507812,-0.140625 0.140625,0 0.5039063,0.023437 0.65625,0.2578125 -0.1757812,0.046875 -0.2929687,0.18749995 -0.2929687,0.32812495 0,0.1640625 0.140625,0.22265625 0.234375,0.22265625 0.070312,0 0.3398437,-0.0351563 0.3398437,-0.3984375 0,-0.4453125 -0.5039062,-0.5976562 -0.9257812,-0.5976562 -1.0898438,0 -1.2890625,0.79687495 -1.2890625,1.00781245 0,0.2578125 0.1523437,0.43359375 0.2460937,0.515625 0.1757813,0.140625 0.3046875,0.1640625 0.7851563,0.24609375 0.1523437,0.0351563 0.5976562,0.1171875 0.5976562,0.46875 0,0.1171875 -0.082031,0.375 -0.375,0.5507812 -0.2695312,0.1523438 -0.609375,0.1523438 -0.6914062,0.1523438 -0.28125,0 -0.6796875,-0.058594 -0.84375,-0.2929688 C 4.4527422,1.04975 4.6050859,0.87396875 4.6050859,0.67475 c 0,-0.1640625 -0.1289062,-0.2578125 -0.2695312,-0.2578125 -0.1992188,0 -0.4101563,0.1640625 -0.4101563,0.46875 0,0.421875 0.4453125,0.6796875 1.125,0.6796875 1.2890625,0 1.5234375,-0.87890625 1.5234375,-1.1484375 z m 0,0"
           style="fill:#000000;fill-opacity:1;fill-rule:nonzero;stroke:none" /><path
           id="path51"
           d="m 10.983016,2.3915469 c 0,-0.035156 0,-0.046875 -0.164063,-0.2226563 -1.2421874,-1.25390622 -1.5703124,-3.12890622 -1.5703124,-4.6640625 0,-1.7226562 0.3867188,-3.4570312 1.6054684,-4.7109375 0.128907,-0.1171875 0.128907,-0.1289062 0.128907,-0.1640625 0,-0.070312 -0.03516,-0.1054687 -0.09375,-0.1054687 -0.105469,0 -0.9960941,0.6796875 -1.5820316,1.9453125 -0.515625,1.1015625 -0.6328125,2.203125 -0.6328125,3.0351562 0,0.7851563 0.1171875,1.99218753 0.65625,3.11718753 0.5976562,1.21874997 1.4531251,1.87499997 1.5585941,1.87499997 0.05859,0 0.09375,-0.035156 0.09375,-0.1054687 z m 0,0"
           style="fill:#000000;fill-opacity:1;fill-rule:nonzero;stroke:none" /><path
           id="path52"
           d="m 17.355086,-2.3779844 c 0.105469,-0.4335937 0.222656,-0.9257812 0.222656,-1.3242187 0,-0.2578125 -0.04687,-0.4804688 -0.199219,-0.609375 -0.05859,-0.058594 -0.128906,-0.09375 -0.222656,-0.09375 -0.117187,0 -0.246094,0.058594 -0.351562,0.1640625 -0.09375,0.09375 -0.140625,0.2109375 -0.140625,0.3164062 0,0.1054688 0.04687,0.1757813 0.117187,0.2460938 0.246094,0.2226562 0.375,0.5273437 0.375,0.8789062 0,0.1171875 -0.01172,0.2460938 -0.04687,0.375 -0.222656,0.9023438 -0.796875,1.81640628 -1.59375,1.81640628 -0.550781,0 -0.878906,-0.375 -0.972656,-0.89062498 0.128906,-0.28125 0.234375,-0.5859375 0.304687,-0.8789063 0.01172,-0.09375 0.03516,-0.1757812 0.03516,-0.2578125 0,-0.1523437 -0.04687,-0.2578125 -0.1875,-0.2578125 -0.1875,0 -0.292969,0.2460938 -0.339844,0.46875 -0.08203,0.3046875 -0.117188,0.5976563 -0.128906,0.890625 -0.328125,0.53906253 -0.808594,0.92578128 -1.359375,0.92578128 -0.597657,0 -0.867188,-0.49218748 -0.867188,-1.12499998 0,-0.1992188 0.03516,-0.421875 0.08203,-0.6445313 0.152344,-0.5976562 0.515625,-1.1601562 0.890625,-1.6875 0.02344,-0.035156 0.04687,-0.082031 0.04687,-0.1289062 0,-0.058594 -0.03516,-0.1054688 -0.09375,-0.140625 -0.02344,-0.011719 -0.05859,-0.011719 -0.08203,-0.011719 -0.05859,0 -0.128906,0.023437 -0.175781,0.082031 -0.410156,0.5742187 -0.667969,1.2070312 -0.820313,1.8398437 -0.105468,0.375 -0.152343,0.7617188 -0.152343,1.1132813 0,0.80859373 0.292968,1.41796873 1.042968,1.41796873 0.632813,0 1.148438,-0.43359375 1.523438,-1.0546875 0.117187,0.62109375 0.457031,1.0546875 1.125,1.0546875 1.042969,0 1.664062,-1.27734373 1.96875,-2.48437503 z m 3.899414,0.9492188 c 0,-0.09375 -0.08203,-0.09375 -0.117187,-0.09375 -0.09375,0 -0.105469,0.023437 -0.152344,0.140625 -0.433594,1.03124998 -0.960938,1.27734373 -1.300781,1.27734373 -0.199219,0 -0.304688,-0.12890625 -0.304688,-0.45703125 0,-0.24609375 0.02344,-0.31640625 0.05859,-0.48046878 l 0.738281,-2.9414062 h 0.9375 c 0.199219,0 0.304688,0 0.304688,-0.1992188 0,-0.1054687 -0.105469,-0.1054687 -0.28125,-0.1054687 h -0.878907 c 0.363282,-1.4179688 0.410157,-1.6171875 0.410157,-1.6757813 0,-0.1757812 -0.117188,-0.2695312 -0.292969,-0.2695312 -0.02344,0 -0.304688,0.011719 -0.398438,0.3515625 l -0.386718,1.59375 h -0.9375 c -0.199219,0 -0.292969,0 -0.292969,0.1875 0,0.1171875 0.07031,0.1171875 0.269531,0.1171875 h 0.878906 c -0.714843,2.8242187 -0.75,2.99999998 -0.75,3.17578123 0,0.5390625 0.375,0.9140625 0.914063,0.9140625 1.007812,0 1.582031,-1.45312503 1.582031,-1.53515623 z m 0,0"
           style="fill:#000000;fill-opacity:1;fill-rule:nonzero;stroke:none" /><path
           id="path53"
           d="m 24.606063,-2.4951719 c 0,-0.7734375 -0.117188,-1.9804687 -0.65625,-3.1054687 -0.597657,-1.21875 -1.464844,-1.875 -1.558594,-1.875 -0.05859,0 -0.105469,0.046875 -0.105469,0.1054687 0,0.035156 0,0.046875 0.199219,0.234375 0.972656,0.984375 1.535156,2.5664063 1.535156,4.640625 0,1.71093753 -0.363281,3.45703128 -1.59375,4.7226563 -0.140625,0.1171875 -0.140625,0.1289062 -0.140625,0.1640625 0,0.058594 0.04687,0.1054687 0.105469,0.1054687 0.09375,0 0.996094,-0.6796875 1.582031,-1.94531247 0.503906,-1.1015625 0.632813,-2.20312503 0.632813,-3.04687503 z m 0,0"
           style="fill:#000000;fill-opacity:1;fill-rule:nonzero;stroke:none" /></g><g
         id="g53"
         aria-label="F=30MHz"
         transform="matrix(1.3333333,0,0,1.3333333,469.46533,229.01067)"><path
           id="path54"
           d="M 7.2535391,-4.7804609 7.4527578,-6.5031172 C 7.4761953,-6.7726484 7.4293203,-6.7726484 7.1832266,-6.7726484 H 2.2965078 c -0.1992187,0 -0.2929687,0 -0.2929687,0.1992187 0,0.1054688 0.09375,0.1054688 0.28125,0.1054688 0.3632812,0 0.6445312,0 0.6445312,0.1875 0,0.035156 0,0.058594 -0.046875,0.234375 l -1.3242187,5.27343746 c -0.09375,0.38671875 -0.1171875,0.46875 -0.90234379,0.46875 -0.1640625,0 -0.28125,0 -0.28125,0.1875 0,0.1171875025 0.12890625,0.1171875025 0.15234375,0.1171875025 L 1.8394766,-0.03436719 3.3277578,7.890625e-4 c 0.09375,0 0.2109375,0 0.2109375,-0.1875000025 0,-0.0820313 -0.058594,-0.1171875 -0.058594,-0.1171875 -0.035156,0 -0.058594,0 -0.28125,0 -0.2226563,0 -0.2695313,0 -0.515625,-0.0234375 -0.2929688,-0.0351563 -0.328125,-0.0703125 -0.328125,-0.19921875 0,0 0,-0.0820313 0.046875,-0.234375 l 0.621094,-2.47265621 h 0.9609375 c 0.75,0 0.8320313,0.1523437 0.8320313,0.4453125 0,0.070312 0,0.1875 -0.070312,0.4921875 -0.023437,0.046875 -0.035156,0.1054687 -0.035156,0.1054687 0,0.082031 0.058594,0.1171875 0.1171875,0.1171875 0.1054688,0 0.1054688,-0.023437 0.1523438,-0.2109375 l 0.5507812,-2.15625 c 0.023437,-0.1054687 0.023437,-0.1289062 0.023437,-0.1640625 0,0 -0.011719,-0.1054687 -0.1171875,-0.1054687 -0.09375,0 -0.1054687,0.046875 -0.1523437,0.2109375 -0.1992188,0.7734375 -0.4335938,0.9492187 -1.2773438,0.9492187 H 3.0933828 l 0.6445313,-2.53125 c 0.082031,-0.3398437 0.09375,-0.3867187 0.5390625,-0.3867187 h 1.3125 c 1.21875,0 1.453125,0.328125 1.453125,1.1015625 0,0.2226562 0,0.2695312 -0.035156,0.5390625 -0.011719,0.1289062 -0.011719,0.140625 -0.011719,0.1757812 0,0.046875 0.023437,0.1171875 0.1171875,0.1171875 0.1054687,0 0.1171875,-0.058594 0.140625,-0.2460937 z m 0,0"
           style="fill:#000000;fill-opacity:1;fill-rule:nonzero;stroke:none" /><path
           id="path55"
           d="m 17.74182,-3.4562422 c 0,-0.1992187 -0.1875,-0.1992187 -0.328125,-0.1992187 h -5.964843 c -0.140625,0 -0.328125,0 -0.328125,0.1992187 0,0.1992188 0.1875,0.1992188 0.339843,0.1992188 h 5.941407 c 0.152343,0 0.339843,0 0.339843,-0.1992188 z m 0,1.9335938 c 0,-0.1992188 -0.1875,-0.1992188 -0.339843,-0.1992188 H 11.46057 c -0.152343,0 -0.339843,0 -0.339843,0.1992188 0,0.1992187 0.1875,0.1992187 0.328125,0.1992187 h 5.964843 c 0.140625,0 0.328125,0 0.328125,-0.1992187 z m 7.88086,-0.1757813 c 0,-0.8203125 -0.621094,-1.59375 -1.652344,-1.8046875 0.808594,-0.2695312 1.394531,-0.9726562 1.394531,-1.7578125 0,-0.8203125 -0.878906,-1.3710937 -1.839844,-1.3710937 -1.007812,0 -1.757812,0.5976562 -1.757812,1.3476562 0,0.3398438 0.210937,0.5273438 0.503906,0.5273438 0.304688,0 0.503906,-0.2226563 0.503906,-0.515625 0,-0.4921875 -0.46875,-0.4921875 -0.609375,-0.4921875 0.304688,-0.4921875 0.960938,-0.6210938 1.324219,-0.6210938 0.410156,0 0.949219,0.2226563 0.949219,1.1132813 0,0.1289062 -0.01172,0.703125 -0.269531,1.1367187 -0.304688,0.4804688 -0.644532,0.515625 -0.890625,0.515625 -0.08203,0.011719 -0.316407,0.035156 -0.386719,0.035156 -0.08203,0.011719 -0.152344,0.023437 -0.152344,0.1171875 0,0.1171875 0.07031,0.1171875 0.234375,0.1171875 h 0.445313 c 0.808593,0 1.183593,0.6679687 1.183593,1.6523437 0,1.34765626 -0.691406,1.64062501 -1.125,1.64062501 -0.433593,0 -1.171875,-0.17578125 -1.523437,-0.76171875 0.351562,0.0585938 0.65625,-0.1640625 0.65625,-0.53906246 0,-0.3632813 -0.269531,-0.5625 -0.5625,-0.5625 -0.234375,0 -0.550781,0.140625 -0.550781,0.5742187 0,0.91406251 0.925781,1.57031251 2.003906,1.57031251 1.21875,0 2.121094,-0.9140625 2.121094,-1.92187471 z m 5.018554,-1.4882812 c 0,-0.796875 -0.04687,-1.59375 -0.398437,-2.3320313 -0.457031,-0.9609375 -1.277344,-1.1132812 -1.6875,-1.1132812 -0.597656,0 -1.335938,0.2578125 -1.734375,1.1835937 -0.328125,0.6914063 -0.375,1.4648438 -0.375,2.2617188 0,0.75 0.04687,1.640625 0.445312,2.40234371 0.433594,0.80859375 1.160157,1.0078125 1.652344,1.0078125 0.539063,0 1.289063,-0.2109375 1.734375,-1.16015625 0.316406,-0.69140626 0.363281,-1.46484376 0.363281,-2.24999996 z m -0.832031,-0.1171875 c 0,0.75 0,1.4179687 -0.105469,2.0625 -0.152343,0.93749996 -0.714843,1.2421874625 -1.160156,1.2421874625 -0.386719,0 -0.984375,-0.2460937525 -1.160156,-1.2070312625 -0.105469,-0.5976562 -0.105469,-1.5117187 -0.105469,-2.0976562 0,-0.6445313 0,-1.3007813 0.08203,-1.8398438 0.1875,-1.1835937 0.925782,-1.265625 1.183594,-1.265625 0.328125,0 0.984375,0.1757813 1.171875,1.1601563 0.09375,0.5625 0.09375,1.3125 0.09375,1.9453125 z m 0,0"
           style="fill:#000000;fill-opacity:1;fill-rule:nonzero;stroke:none" /><path
           id="path56"
           d="M 43.112914,7.890625e-4 V -0.30389844 h -0.234375 c -0.773437,0 -0.785156,-0.1171875 -0.785156,-0.46875 V -6.0226484 c 0,-0.3632813 0.01172,-0.46875 0.785156,-0.46875 h 0.234375 v -0.3164063 h -1.675781 c -0.269531,0 -0.269531,0.011719 -0.339844,0.1992188 l -2.179687,5.6015625 -2.15625,-5.578125 c -0.09375,-0.2226563 -0.117188,-0.2226563 -0.351563,-0.2226563 h -1.6875 v 0.3164063 h 0.246094 c 0.761719,0 0.785156,0.1054687 0.785156,0.46875 v 4.9804687 c 0,0.26953126 0,0.73828126 -1.03125,0.73828126 V 7.890625e-4 L 35.894164,-0.03436719 37.05432,7.890625e-4 V -0.30389844 c -1.019531,0 -1.019531,-0.46875 -1.019531,-0.73828126 v -5.3671875 h 0.01172 l 2.402344,6.18750001 c 0.04687,0.12890625 0.09375,0.2226562525 0.199218,0.2226562525 0.105469,0 0.128907,-0.0820312525 0.175782,-0.1875000025 L 41.27307,-6.4913984 h 0.01172 v 5.71874996 c 0,0.3515625 -0.02344,0.46875 -0.785156,0.46875 H 40.253539 V 7.890625e-4 c 0.375,-0.0351562525 1.042969,-0.0351562525 1.441406,-0.0351562525 0.386719,0 1.054688,0 1.417969,0.0351562525 z m 7.514649,0 V -0.30389844 h -0.246094 c -0.761719,0 -0.785156,-0.1171875 -0.785156,-0.46875 V -6.0226484 c 0,-0.3632813 0.02344,-0.46875 0.785156,-0.46875 h 0.246094 v -0.3164063 c -0.351563,0.035156 -1.089844,0.035156 -1.464844,0.035156 -0.386719,0 -1.125,0 -1.476563,-0.035156 v 0.3164063 h 0.234375 c 0.773438,0 0.785157,0.1054687 0.785157,0.46875 v 2.3320312 h -2.976563 v -2.3320312 c 0,-0.3632813 0.02344,-0.46875 0.785156,-0.46875 h 0.246094 v -0.3164063 c -0.351562,0.035156 -1.089844,0.035156 -1.464844,0.035156 -0.375,0 -1.125,0 -1.476562,-0.035156 v 0.3164063 h 0.234375 c 0.773437,0 0.796875,0.1054687 0.796875,0.46875 v 5.24999996 c 0,0.3515625 -0.02344,0.46875 -0.796875,0.46875 H 43.818969 V 7.890625e-4 C 44.170531,-0.03436719 44.908813,-0.03436719 45.283813,-0.03436719 c 0.375,0 1.125,0 1.476562,0.0351562525 V -0.30389844 h -0.246094 c -0.761718,0 -0.785156,-0.1171875 -0.785156,-0.46875 V -3.3859297 h 2.976563 v 2.61328126 c 0,0.3515625 -0.01172,0.46875 -0.785157,0.46875 H 47.686156 V 7.890625e-4 C 48.037719,-0.03436719 48.776,-0.03436719 49.151,-0.03436719 c 0.375,0 1.125,0 1.476563,0.0351562525 z M 54.957641,-1.8624922 h -0.246094 c -0.09375,1.17187501 -0.304688,1.61718751 -1.453125,1.61718751 h -1.183594 l 2.777344,-3.75000001 c 0.08203,-0.1054687 0.08203,-0.1289062 0.08203,-0.1640625 0,-0.1289062 -0.08203,-0.1289062 -0.257812,-0.1289062 h -3.1875 l -0.105469,1.59375 h 0.246094 c 0.05859,-1.0078125 0.246093,-1.3828125 1.347656,-1.3828125 h 1.136719 l -2.789063,3.76171871 c -0.08203,0.10546875 -0.08203,0.12890625 -0.08203,0.17578125 0,0.1406250025 0.07031,0.1406250025 0.257812,0.1406250025 h 3.28125 z m 0,0"
           style="fill:#000000;fill-opacity:1;fill-rule:nonzero;stroke:none" /></g></g></g></svg>
