<?xml version="1.0" encoding="UTF-8" standalone="no"?>
<!-- Created with Inkscape (http://www.inkscape.org/) -->

<svg
   width="148.39714mm"
   height="46.298954mm"
   viewBox="0 0 148.39714 46.298953"
   version="1.1"
   id="svg1"
   xml:space="preserve"
   xmlns="http://www.w3.org/2000/svg"
   xmlns:svg="http://www.w3.org/2000/svg"><defs
     id="defs1" /><g
     id="g1"
     transform="matrix(0.26458333,0,0,0.26458333,-21.621415,-209.36811)"><g
       id="g15"><path
         id="path240"
         d="m -42.5202,28.3468 v 30.61449 m 0,23.81143 v 30.61452"
         style="fill:none;stroke:#000000;stroke-width:0.3985;stroke-linecap:butt;stroke-linejoin:miter;stroke-miterlimit:10;stroke-dasharray:none;stroke-opacity:1"
         transform="matrix(1.3333333,0,0,-1.3333333,200.70933,1003.8307)" /><path
         id="path241"
         d="m -54.42592,70.867 c 0,-6.5754 5.33031,-11.90571 11.90572,-11.90571 6.57542,0 11.90571,5.33031 11.90571,11.90571 0,6.57543 -5.33029,11.90572 -11.90571,11.90572 -6.57541,0 -11.90572,-5.33029 -11.90572,-11.90572 z"
         style="fill:none;stroke:#000000;stroke-width:0.797;stroke-linecap:butt;stroke-linejoin:miter;stroke-miterlimit:10;stroke-dasharray:none;stroke-opacity:1"
         transform="matrix(1.3333333,0,0,-1.3333333,200.70933,1003.8307)" /><path
         id="path242"
         d="M -42.5202,58.96129 V 82.77272"
         style="fill:none;stroke:#000000;stroke-width:0.797;stroke-linecap:butt;stroke-linejoin:miter;stroke-miterlimit:10;stroke-dasharray:none;stroke-opacity:1"
         transform="matrix(1.3333333,0,0,-1.3333333,200.70933,1003.8307)" /><path
         id="path243"
         d="m -42.5202,113.38724 h 32.88244 m 47.62232,0 H 70.867"
         style="fill:none;stroke:#000000;stroke-width:0.3985;stroke-linecap:butt;stroke-linejoin:miter;stroke-miterlimit:10;stroke-dasharray:none;stroke-opacity:1"
         transform="matrix(1.3333333,0,0,-1.3333333,200.70933,1003.8307)" /><path
         id="path244"
         d="m -9.63776,119.34009 h 47.62231 v -11.9057 H -9.63776 Z"
         style="fill:none;stroke:#000000;stroke-width:0.797;stroke-linecap:butt;stroke-linejoin:miter;stroke-miterlimit:10;stroke-dasharray:none;stroke-opacity:1"
         transform="matrix(1.3333333,0,0,-1.3333333,200.70933,1003.8307)" /><g
         id="g244"
         aria-label="λ/4|Z&#10;0"
         transform="matrix(1.3333333,0,0,1.3333333,195.304,839.62933)"><path
           id="path245"
           d="m 5.4614531,0.01139844 c 0,-0.03515625 -0.023437,-0.046875 -0.046875,-0.09375 -0.1054687,-0.10546875 -0.1640625,-0.2578125 -0.234375,-0.45703125 L 3.1528594,-6.2112578 c -0.2109375,-0.5742188 -0.75,-0.703125 -1.21875,-0.703125 -0.046875,0 -0.1757813,0 -0.1757813,0.1054687 0,0.082031 0.082031,0.1054688 0.082031,0.1054688 0.328125,0.058594 0.3984375,0.1171875 0.65625,0.796875 l 0.9609375,2.7070312 -2.75390627,2.73046879 c -0.1171875,0.1171875 -0.17578125,0.17578125 -0.17578125,0.3046875 0,0.17578125 0.140625,0.29296875 0.3046875,0.29296875 0.15234375,0 0.24609372,-0.10546875 0.32812502,-0.2109375 l 2.390625,-2.82421874 c 0.4101562,1.0429687 0.890625,2.56640624 1.0546875,2.80078124 0.1523437,0.2109375 0.2578125,0.2109375 0.5273437,0.2109375 h 0.2109375 c 0.1054688,0 0.1171875,-0.0703125 0.1171878,-0.09375 z M 10.228055,-7.2776641 c 0,-0.1054687 -0.08203,-0.1992187 -0.199219,-0.1992187 -0.070313,0 -0.1289063,0.035156 -0.1640626,0.09375 L 6.4077422,2.1090547 c -0.046875,0.1289062 -0.046875,0.1875 -0.046875,0.1875 0,0.1054687 0.082031,0.1992187 0.1992187,0.1992187 0.1289063,0 0.1523438,-0.070312 0.2109375,-0.2460937 L 10.18118,-7.0901641 c 0.04687,-0.1289062 0.04687,-0.1875 0.04687,-0.1875 z m 0,0"
           style="fill:#000000;fill-opacity:1;fill-rule:nonzero;stroke:none" /><path
           id="path246"
           d="m 15.480984,-1.6409453 v -0.3164063 h -0.996093 v -4.5234375 c 0,-0.1992187 0,-0.2578125 -0.152344,-0.2578125 -0.09375,0 -0.117188,0 -0.199219,0.1171875 l -3.058594,4.6640625 v 0.3164063 h 2.648438 v 0.86718749 c 0,0.3515625 -0.02344,0.46875 -0.761719,0.46875 h -0.210937 v 0.3046874975 c 0.410156,-0.0351562475 0.9375,-0.0351562475 1.347656,-0.0351562475 0.421875,0 0.949219,0 1.359375,0.0351562475 V -0.30500781 h -0.210938 c -0.738281,0 -0.761718,-0.1171875 -0.761718,-0.46875 V -1.6409453 Z m -1.699218,-0.3164063 h -2.425782 l 2.425782,-3.7148437 z m 0,0"
           style="fill:#000000;fill-opacity:1;fill-rule:nonzero;stroke:none" /><path
           id="path247"
           d="m 20.67825,2.1559297 v -9.2929688 c 0,-0.140625 0,-0.3398437 -0.199219,-0.3398437 -0.199218,0 -0.199218,0.1992187 -0.199218,0.3398437 v 9.2929688 c 0,0.140625 0,0.3398437 0.199218,0.3398437 0.199219,0 0.199219,-0.1992187 0.199219,-0.3398437 z m 0,0"
           style="fill:#000000;fill-opacity:1;fill-rule:nonzero;stroke:none" /><path
           id="path248"
           d="m 31.395047,-2.5550078 c 0,-0.046875 -0.03516,-0.1054688 -0.128906,-0.1054688 -0.08203,0 -0.09375,0.035156 -0.164063,0.2460938 -0.433594,1.359375 -0.914062,2.07421874 -2.613281,2.07421874 h -1.699219 l 5.566406,-6.22265624 c 0.01172,-0.046875 0.03516,-0.09375 0.03516,-0.1523438 0,-0.09375 -0.05859,-0.09375 -0.257813,-0.09375 h -4.195312 c -0.246094,0 -0.257813,0.011719 -0.316407,0.1992188 l -0.539062,1.7929687 c -0.02344,0.058594 -0.03516,0.140625 -0.03516,0.140625 0,0 0,0.1171875 0.117187,0.1171875 0.09375,0 0.117188,-0.070312 0.128906,-0.1054687 0.386719,-1.171875 0.902344,-1.828125 2.449219,-1.828125 h 1.628906 l -5.566406,6.22265624 c 0,0 -0.04687,0.15234375 -0.04687,0.17578125 0,0.0937499975 0.07031,0.0937499975 0.257813,0.0937499975 h 4.324218 c 0.246094,0 0.257813,-0.0117187475 0.316407,-0.1992187475 l 0.703125,-2.20312504 c 0.01172,-0.035156 0.03516,-0.1054687 0.03516,-0.1523437 z m 0,0"
           style="fill:#000000;fill-opacity:1;fill-rule:nonzero;stroke:none" /><path
           id="path249"
           d="m 35.58157,-0.73274219 c 0,-0.76171871 -0.09375,-1.31250001 -0.410156,-1.80468751 -0.222656,-0.3164062 -0.644531,-0.5976562 -1.207031,-0.5976562 -1.617188,0 -1.617188,1.8984375 -1.617188,2.40234371 0,0.50390625 0,2.36718749 1.617188,2.36718749 1.617187,0 1.617187,-1.86328124 1.617187,-2.36718749 z m -0.632812,-0.09375 c 0,0.515625 0,1.04296875 -0.09375,1.4765625 -0.140625,0.63281249 -0.609375,0.78515629 -0.890625,0.78515629 -0.316406,0 -0.75,-0.1875 -0.890625,-0.76171879 -0.09375,-0.41015625 -0.09375,-0.984375 -0.09375,-1.5 0,-0.50390621 0,-1.03125001 0.105469,-1.41796871 0.152343,-0.5507813 0.597656,-0.6914063 0.878906,-0.6914063 0.375,0 0.738281,0.2226563 0.867187,0.6328125 0.105469,0.375 0.117188,0.8789063 0.117188,1.47656251 z m 0,0"
           style="fill:#000000;fill-opacity:1;fill-rule:nonzero;stroke:none" /></g><path
         id="path250"
         d="m 70.867,28.3468 -1e-5,35.57515 m 0,13.89011 1e-5,35.57518"
         style="fill:none;stroke:#000000;stroke-width:0.3985;stroke-linecap:butt;stroke-linejoin:miter;stroke-miterlimit:10;stroke-dasharray:none;stroke-opacity:1"
         transform="matrix(1.3333333,0,0,-1.3333333,200.70933,1003.8307)" /><path
         id="path251"
         d="M 70.86699,63.92195 64.91414,77.11752"
         style="fill:none;stroke:#000000;stroke-width:0.797;stroke-linecap:butt;stroke-linejoin:miter;stroke-miterlimit:10;stroke-dasharray:none;stroke-opacity:1"
         transform="matrix(1.3333333,0,0,-1.3333333,200.70933,1003.8307)" /><path
         id="path252"
         d="m 113.38724,28.3468 v 38.55173 m 0,7.93695 v 38.55176"
         style="fill:none;stroke:#000000;stroke-width:0.3985;stroke-linecap:butt;stroke-linejoin:miter;stroke-miterlimit:10;stroke-dasharray:none;stroke-opacity:1"
         transform="matrix(1.3333333,0,0,-1.3333333,200.70933,1003.8307)" /><path
         id="path253"
         d="m 101.4815,66.89853 h 23.81145 m -23.81145,7.93695 h 23.81145"
         style="fill:none;stroke:#000000;stroke-width:0.797;stroke-linecap:butt;stroke-linejoin:miter;stroke-miterlimit:10;stroke-dasharray:none;stroke-opacity:1"
         transform="matrix(1.3333333,0,0,-1.3333333,200.70933,1003.8307)" /><g
         id="g253"
         aria-label="2nF"
         transform="matrix(1.3333333,0,0,1.3333333,371.496,912.20133)"><path
           id="path254"
           d="M 4.4766328,-1.7330312 H 4.2188203 C 4.1719453,-1.4283437 4.1016328,-0.99475 4.0078828,-0.84240625 3.9375703,-0.760375 3.2813203,-0.760375 3.0586641,-0.760375 H 1.2656953 l 1.0546875,-1.03125 c 1.5585938,-1.3710937 2.15625,-1.9101562 2.15625,-2.90625 0,-1.1367187 -0.9023437,-1.9335937 -2.1210937,-1.9335937 -1.125,0 -1.85156254,0.9140625 -1.85156254,1.8046875 0,0.5507812 0.4921875,0.5507812 0.52734374,0.5507812 0.1640625,0 0.515625,-0.1171875 0.515625,-0.5273437 0,-0.2578125 -0.1875,-0.515625 -0.5273437,-0.515625 -0.0820313,0 -0.10546879,0 -0.12890629,0.011719 0.22265629,-0.6445312 0.76171879,-1.0195312 1.33593749,-1.0195312 0.9140625,0 1.3359375,0.8085937 1.3359375,1.6289062 0,0.796875 -0.4921875,1.5820313 -1.0429687,2.203125 L 0.60944531,-0.3619375 C 0.50397656,-0.25646875 0.50397656,-0.23303125 0.50397656,0.00134375 H 4.1953828 Z m 0,0"
           style="fill:#000000;fill-opacity:1;fill-rule:nonzero;stroke:none" /><path
           id="path255"
           d="m 13.634836,0.00134375 v -0.3046875 c -0.515625,0 -0.773438,0 -0.785156,-0.3046875 V -2.5064687 c 0,-0.8554688 0,-1.171875 -0.304688,-1.5234375 -0.140625,-0.1757813 -0.46875,-0.375 -1.042969,-0.375 -0.726562,0 -1.195312,0.4335937 -1.476562,1.0546875 v -1.0546875 l -1.4062501,0.1171875 v 0.3046875 c 0.703125,0 0.7851563,0.070312 0.7851563,0.5625 v 2.6601562 c 0,0.45703125 -0.1171875,0.45703125 -0.7851563,0.45703125 v 0.3046875 l 1.125,-0.03515625 1.1132811,0.03515625 v -0.3046875 c -0.65625,0 -0.773437,0 -0.773437,-0.45703125 V -2.5885 c 0,-1.03125 0.714843,-1.59375 1.347656,-1.59375 0.621094,0 0.738281,0.5390625 0.738281,1.1015625 v 2.3203125 c 0,0.45703125 -0.117187,0.45703125 -0.773437,0.45703125 v 0.3046875 l 1.125,-0.03515625 z m 6.28418,-4.53515625 -0.28125,-2.2382812 h -5.472657 v 0.3046875 h 0.234375 c 0.773438,0 0.796875,0.1171875 0.796875,0.46875 v 5.22656245 c 0,0.3515625 -0.02344,0.46875 -0.796875,0.46875 h -0.234375 v 0.3046875 c 0.351563,-0.03515625 1.125,-0.03515625 1.511719,-0.03515625 0.410156,0 1.3125,0 1.675781,0.03515625 v -0.3046875 h -0.328125 c -0.949218,0 -0.949218,-0.12890625 -0.949218,-0.48046875 v -2.4492187 h 0.855468 c 0.960938,0 1.054688,0.3164062 1.054688,1.1601562 h 0.257812 v -2.6367187 h -0.257812 c 0,0.8320312 -0.09375,1.1601562 -1.054688,1.1601562 h -0.855468 v -2.5195312 c 0,-0.328125 0.02344,-0.3984375 0.492187,-0.3984375 h 1.195313 c 1.488281,0 1.746093,0.5625 1.898437,1.9335937 z m 0,0"
           style="fill:#000000;fill-opacity:1;fill-rule:nonzero;stroke:none" /></g><path
         id="path256"
         d="m 70.867,113.38724 h 56.69362 16.44109 m 23.81143,0 h 16.4411 3.11823 m 7.93695,0 h 3.11824 16.44108 m 23.81144,0 h 16.4411 56.69362"
         style="fill:none;stroke:#000000;stroke-width:0.3985;stroke-linecap:butt;stroke-linejoin:miter;stroke-miterlimit:10;stroke-dasharray:none;stroke-opacity:1"
         transform="matrix(1.3333333,0,0,-1.3333333,200.70933,1003.8307)" /><path
         id="path257"
         d="m 143.6032,113.22784 c 0,3.28769 1.63475,5.95286 3.65135,5.95286 2.0166,0 3.65135,-2.66517 3.65135,-5.95286 0,-1.64376 -0.66626,-2.97627 -1.48814,-2.97627 -0.82187,0 -1.48813,1.33251 -1.48813,2.97627 0,3.28769 1.63473,5.95286 3.65135,5.95286 2.0166,0 3.65134,-2.66517 3.65134,-5.95286 0,-1.64376 -0.66626,-2.97627 -1.48813,-2.97627 -0.82189,0 -1.48815,1.33251 -1.48815,2.97627 0,3.28769 1.63476,5.95286 3.65136,5.95286 2.0166,0 3.65135,-2.66517 3.65135,-5.95286 0,-1.64376 -0.66626,-2.97627 -1.48815,-2.97627 -0.82188,0 -1.48813,1.33251 -1.48813,2.97627 0,3.28769 1.63474,5.95286 3.65134,5.95286 2.0166,0 3.65135,-2.66517 3.65135,-5.95286 0,-1.64376 -0.66626,-2.97627 -1.48813,-2.97627 -0.82188,0 -1.48814,1.33251 -1.48814,2.97627 0,3.28769 1.63475,5.95286 3.65135,5.95286 2.0166,0 3.65134,-2.66517 3.65134,-5.95286"
         style="fill:none;stroke:#000000;stroke-width:0.797;stroke-linecap:butt;stroke-linejoin:bevel;stroke-miterlimit:10;stroke-dasharray:none;stroke-opacity:1"
         transform="matrix(1.3333333,0,0,-1.3333333,200.70933,1003.8307)" /><g
         id="g257"
         aria-label="L&#10;1"
         transform="matrix(1.3333333,0,0,1.3333333,401.084,839.62933)"><path
           id="path258"
           d="m 6.4116094,-2.4612578 c 0,-0.035156 -0.035156,-0.1054688 -0.1289063,-0.1054688 -0.082031,0 -0.09375,0.046875 -0.1640625,0.2109375 -0.3398437,0.9140625 -0.7734375,2.05078129 -2.4960937,2.05078129 h -0.9375 c -0.140625,0 -0.1640625,0 -0.2226563,-0.0117188 -0.1054687,-0.0117188 -0.1289062,-0.0234375 -0.1289062,-0.10546875 0,-0.0234375 0,-0.046875 0.046875,-0.22265625 L 3.7280156,-6.0237578 c 0.09375,-0.3632813 0.1171875,-0.46875 1.0546875,-0.46875 0.3046875,0 0.375,0 0.375,-0.1875 0,-0.1289063 -0.1054687,-0.1289063 -0.1523437,-0.1289063 l -1.4765625,0.035156 -1.3242188,-0.035156 c -0.070312,0 -0.1875,0 -0.1875,0.1992188 0,0.1171875 0.082031,0.1171875 0.28125,0.1171875 0,0 0.1992188,0 0.375,0.011719 0.1757813,0.023437 0.2695313,0.035156 0.2695313,0.1640625 0,0.035156 -0.011719,0.070312 -0.046875,0.1875 l -1.3359375,5.35546879 c -0.09375,0.38671875 -0.1171875,0.46875 -0.90234377,0.46875 -0.1640625,0 -0.26953125,0 -0.26953125,0.19921875 0,0.1054687475 0.09375,0.1054687475 0.26953125,0.1054687475 H 5.2748906 c 0.234375,0 0.2460938,0 0.3046875,-0.1640624975 L 6.3647344,-2.3206328 c 0.046875,-0.1054688 0.046875,-0.140625 0.046875,-0.140625 z m 0,0"
           style="fill:#000000;fill-opacity:1;fill-rule:nonzero;stroke:none" /><path
           id="path259"
           d="M 10.073719,1.4938203 V 1.2477266 H 9.8159063 c -0.703125,0 -0.703125,-0.09375 -0.703125,-0.32812504 V -2.9358672 c 0,-0.1875 -0.011719,-0.1992187 -0.2109375,-0.1992187 -0.4453125,0.4335937 -1.078125,0.4453125 -1.359375,0.4453125 v 0.2460937 c 0.1640625,0 0.6210937,0 1.0078125,-0.1875 v 3.55078126 c 0,0.23437504 0,0.32812504 -0.6914063,0.32812504 H 7.5893438 v 0.2460937 l 1.2421875,-0.023437 z m 0,0"
           style="fill:#000000;fill-opacity:1;fill-rule:nonzero;stroke:none" /></g><path
         id="path260"
         d="M 187.37247,125.29295 V 101.4815 m 7.93695,23.81145 V 101.4815"
         style="fill:none;stroke:#000000;stroke-width:0.797;stroke-linecap:butt;stroke-linejoin:miter;stroke-miterlimit:10;stroke-dasharray:none;stroke-opacity:1"
         transform="matrix(1.3333333,0,0,-1.3333333,200.70933,1003.8307)" /><g
         id="g260"
         aria-label="C&#10;1"
         transform="matrix(1.3333333,0,0,1.3333333,448.10133,830.89867)"><path
           id="path261"
           d="m 6.4454844,-2.3907969 c 0,-0.1054687 -0.1171875,-0.1054687 -0.1171875,-0.1054687 -0.058594,0 -0.1171875,0.023437 -0.1289063,0.1054687 -0.09375,0.2929688 -0.3164062,0.9960938 -1.0078125,1.57031253 -0.6914062,0.5625 -1.3125,0.7265625 -1.8398437,0.7265625 -0.890625,0 -1.9453125,-0.515625 -1.9453125,-2.06250003 0,-0.5742187 0.2109375,-2.1914062 1.2070312,-3.3515625 0.609375,-0.703125 1.5351563,-1.2070312 2.4257813,-1.2070312 1.0195312,0 1.6054687,0.7734375 1.6054687,1.921875 0,0.3984375 -0.035156,0.4101562 -0.035156,0.5039062 0,0.1054688 0.1171875,0.1054688 0.1523437,0.1054688 0.1289063,0 0.1289063,-0.023437 0.1757813,-0.1992188 l 0.6328125,-2.5429687 c 0,-0.023437 -0.023437,-0.09375 -0.1054688,-0.09375 -0.035156,0 -0.046875,0.011719 -0.1523437,0.1171875 l -0.703125,0.7617187 c -0.082031,-0.140625 -0.5390625,-0.8789062 -1.6523438,-0.8789062 -2.2148437,0 -4.45312497,2.203125 -4.45312497,4.5117187 0,1.64062503 1.17187497,2.73046878 2.69531247,2.73046878 0.8671875,0 1.6171875,-0.3984375 2.1445313,-0.85546875 0.9375,-0.82031253 1.1015625,-1.72265623 1.1015623,-1.75781253 z m 0,0"
           style="fill:#000000;fill-opacity:1;fill-rule:nonzero;stroke:none" /><path
           id="path262"
           d="M 10.412281,1.4939688 V 1.247875 h -0.257812 c -0.7031252,0 -0.7031252,-0.09375 -0.7031252,-0.328125 v -3.8554687 c 0,-0.1875 -0.011719,-0.1992188 -0.2109375,-0.1992188 -0.4453125,0.4335938 -1.078125,0.4453125 -1.359375,0.4453125 v 0.2460938 c 0.1640625,0 0.6210937,0 1.0078125,-0.1875 V 0.91975 c 0,0.234375 0,0.328125 -0.6914063,0.328125 H 7.9279063 v 0.2460938 l 1.2421875,-0.023437 z m 0,0"
           style="fill:#000000;fill-opacity:1;fill-rule:nonzero;stroke:none" /></g><path
         id="path263"
         d="m 214.47023,113.22784 c 0,3.28769 1.63475,5.95286 3.65135,5.95286 2.0166,0 3.65135,-2.66517 3.65135,-5.95286 0,-1.64376 -0.66626,-2.97627 -1.48814,-2.97627 -0.82189,0 -1.48813,1.33251 -1.48813,2.97627 0,3.28769 1.63474,5.95286 3.65134,5.95286 2.0166,0 3.65135,-2.66517 3.65135,-5.95286 0,-1.64376 -0.66626,-2.97627 -1.48813,-2.97627 -0.82188,0 -1.48814,1.33251 -1.48814,2.97627 0,3.28769 1.63475,5.95286 3.65135,5.95286 2.0166,0 3.65134,-2.66517 3.65134,-5.95286 0,-1.64376 -0.66625,-2.97627 -1.48813,-2.97627 -0.82189,0 -1.48814,1.33251 -1.48814,2.97627 0,3.28769 1.63474,5.95286 3.65135,5.95286 2.0166,0 3.65135,-2.66517 3.65135,-5.95286 0,-1.64376 -0.66626,-2.97627 -1.48815,-2.97627 -0.82187,0 -1.48813,1.33251 -1.48813,2.97627 0,3.28769 1.63474,5.95286 3.65136,5.95286 2.0166,0 3.65133,-2.66517 3.65133,-5.95286"
         style="fill:none;stroke:#000000;stroke-width:0.797;stroke-linecap:butt;stroke-linejoin:bevel;stroke-miterlimit:10;stroke-dasharray:none;stroke-opacity:1"
         transform="matrix(1.3333333,0,0,-1.3333333,200.70933,1003.8307)" /><g
         id="g263"
         aria-label="L&#10;0"
         transform="matrix(1.3333333,0,0,1.3333333,495.572,839.62933)"><path
           id="path264"
           d="m 6.4088906,-2.4612578 c 0,-0.035156 -0.035156,-0.1054688 -0.1289062,-0.1054688 -0.082031,0 -0.09375,0.046875 -0.1640625,0.2109375 -0.3398438,0.9140625 -0.7734375,2.05078129 -2.4960938,2.05078129 h -0.9375 c -0.140625,0 -0.1640625,0 -0.2226562,-0.0117188 -0.1054688,-0.0117188 -0.1289063,-0.0234375 -0.1289063,-0.10546875 0,-0.0234375 0,-0.046875 0.046875,-0.22265625 L 3.7252969,-6.0237578 c 0.09375,-0.3632813 0.1171875,-0.46875 1.0546875,-0.46875 0.3046875,0 0.375,0 0.375,-0.1875 0,-0.1289063 -0.1054688,-0.1289063 -0.1523438,-0.1289063 l -1.4765625,0.035156 -1.3242187,-0.035156 c -0.070312,0 -0.1875,0 -0.1875,0.1992188 0,0.1171875 0.082031,0.1171875 0.28125,0.1171875 0,0 0.1992187,0 0.375,0.011719 0.1757812,0.023437 0.2695312,0.035156 0.2695312,0.1640625 0,0.035156 -0.011719,0.070312 -0.046875,0.1875 l -1.3359375,5.35546879 c -0.09375,0.38671875 -0.1171875,0.46875 -0.90234372,0.46875 -0.1640625,0 -0.26953125,0 -0.26953125,0.19921875 0,0.1054687475 0.09375,0.1054687475 0.26953125,0.1054687475 H 5.2721719 c 0.234375,0 0.2460937,0 0.3046875,-0.1640624975 L 6.3620156,-2.3206328 c 0.046875,-0.1054688 0.046875,-0.140625 0.046875,-0.140625 z m 0,0"
           style="fill:#000000;fill-opacity:1;fill-rule:nonzero;stroke:none" /><path
           id="path265"
           d="m 10.378617,-0.73274219 c 0,-0.76171871 -0.09375,-1.31250001 -0.4101561,-1.80468751 -0.2226562,-0.3164062 -0.6445312,-0.5976562 -1.2070312,-0.5976562 -1.6171875,0 -1.6171875,1.8984375 -1.6171875,2.40234371 0,0.50390625 0,2.36718749 1.6171875,2.36718749 1.6171873,0 1.6171873,-1.86328124 1.6171873,-2.36718749 z m -0.6328123,-0.09375 c 0,0.515625 0,1.04296875 -0.09375,1.4765625 -0.140625,0.63281249 -0.609375,0.78515629 -0.890625,0.78515629 -0.3164063,0 -0.75,-0.1875 -0.890625,-0.76171879 -0.09375,-0.41015625 -0.09375,-0.984375 -0.09375,-1.5 0,-0.50390621 0,-1.03125001 0.1054687,-1.41796871 0.1523438,-0.5507813 0.5976563,-0.6914063 0.8789063,-0.6914063 0.375,0 0.7382812,0.2226563 0.8671875,0.6328125 0.1054687,0.375 0.1171875,0.8789063 0.1171875,1.47656251 z m 0,0"
           style="fill:#000000;fill-opacity:1;fill-rule:nonzero;stroke:none" /></g><path
         id="path266"
         d="M 269.29468,113.38724 V 82.77272 m 0,-23.81143 V 28.3468"
         style="fill:none;stroke:#000000;stroke-width:0.3985;stroke-linecap:butt;stroke-linejoin:miter;stroke-miterlimit:10;stroke-dasharray:none;stroke-opacity:1"
         transform="matrix(1.3333333,0,0,-1.3333333,200.70933,1003.8307)" /><path
         id="path267"
         d="m 269.13528,83.17123 c 3.28771,0 5.95285,-1.63475 5.95285,-3.65135 0,-2.0166 -2.66514,-3.65135 -5.95285,-3.65135 -1.64375,0 -2.97627,0.66626 -2.97627,1.48814 0,0.82189 1.33252,1.48813 2.97627,1.48813 3.28771,0 5.95285,-1.63473 5.95285,-3.65133 0,-2.01661 -2.66514,-3.65136 -5.95285,-3.65136 -1.64375,0 -2.97627,0.66626 -2.97627,1.48815 0,0.82187 1.33252,1.48813 2.97627,1.48813 3.28771,0 5.95285,-1.63475 5.95285,-3.65136 0,-2.0166 -2.66514,-3.65133 -5.95285,-3.65133 -1.64375,0 -2.97627,0.66624 -2.97627,1.48813 0,0.82188 1.33252,1.48814 2.97627,1.48814 3.28771,0 5.95285,-1.63475 5.95285,-3.65135 0,-2.0166 -2.66514,-3.65135 -5.95285,-3.65135 -1.64375,0 -2.97627,0.66626 -2.97627,1.48814 0,0.82187 1.33252,1.48813 2.97627,1.48813 3.28771,0 5.95285,-1.63474 5.95285,-3.65134 0,-2.01661 -2.66514,-3.65135 -5.95285,-3.65135"
         style="fill:none;stroke:#000000;stroke-width:0.797;stroke-linecap:butt;stroke-linejoin:bevel;stroke-miterlimit:10;stroke-dasharray:none;stroke-opacity:1"
         transform="matrix(1.3333333,0,0,-1.3333333,200.70933,1003.8307)" /><g
         id="g267"
         aria-label="L&#10;p"
         transform="matrix(1.3333333,0,0,1.3333333,570.64,912.20133)"><path
           id="path268"
           d="m 6.410625,-2.4595937 c 0,-0.035156 -0.035156,-0.1054688 -0.1289063,-0.1054688 -0.082031,0 -0.09375,0.046875 -0.1640625,0.2109375 -0.3398437,0.9140625 -0.7734375,2.05078125 -2.4960937,2.05078125 h -0.9375 c -0.140625,0 -0.1640625,0 -0.2226563,-0.0117188 C 2.3559375,-0.32678125 2.3325,-0.3385 2.3325,-0.42053125 c 0,-0.0234375 0,-0.046875 0.046875,-0.22265625 l 1.3476562,-5.3789062 c 0.09375,-0.3632813 0.1171875,-0.46875 1.0546875,-0.46875 0.3046875,0 0.375,0 0.375,-0.1875 C 5.1567187,-6.80725 5.05125,-6.80725 5.004375,-6.80725 L 3.5278125,-6.7720937 2.2035937,-6.80725 c -0.070312,0 -0.1875,0 -0.1875,0.1992188 0,0.1171875 0.082031,0.1171875 0.28125,0.1171875 0,0 0.1992188,0 0.375,0.011719 0.1757813,0.023437 0.2695313,0.035156 0.2695313,0.1640625 0,0.035156 -0.011719,0.070312 -0.046875,0.1875 l -1.3359375,5.35546875 c -0.09375,0.38671875 -0.1171875,0.46875 -0.90234375,0.46875 -0.1640625,0 -0.26953125,0 -0.26953125,0.19921875 0,0.10546875 0.09375,0.10546875 0.26953125,0.10546875 H 5.2739062 c 0.234375,0 0.2460938,0 0.3046875,-0.1640625 L 6.36375,-2.3189687 c 0.046875,-0.1054688 0.046875,-0.140625 0.046875,-0.140625 z m 0,0"
           style="fill:#000000;fill-opacity:1;fill-rule:nonzero;stroke:none" /><path
           id="path269"
           d="m 10.658672,-0.41467187 c 0,-0.82031253 -0.5625,-1.16015623 -1.0429689,-1.16015623 -0.4335937,0 -0.796875,0.2929687 -0.984375,0.4804687 -0.1171875,-0.3984375 -0.515625,-0.4804687 -0.7265625,-0.4804687 -0.2695312,0 -0.4335937,0.1757812 -0.5507812,0.3632812 -0.140625,0.23437503 -0.2460938,0.65625003 -0.2460938,0.70312503 0,0.0820313 0.09375,0.0820313 0.1171875,0.0820313 0.09375,0 0.1054688,-0.0117188 0.1523438,-0.19921875 0.1054687,-0.41015618 0.234375,-0.76171868 0.515625,-0.76171868 0.1757812,0 0.2226562,0.1523437 0.2226562,0.3398437 0,0.0820313 -0.011719,0.17578123 -0.023437,0.21093748 L 7.3071094,2.3509531 c -0.058594,0.1875 -0.070312,0.2460938 -0.3515625,0.2460938 -0.082031,0 -0.1875,0 -0.1875,0.1523437 0,0.070312 0.070312,0.09375 0.1054687,0.09375 0.1757813,0 0.4101563,-0.023437 0.5976563,-0.023437 0.234375,0 0.5039062,0.023437 0.7265625,0.023437 0.070312,0 0.140625,-0.011719 0.140625,-0.1523437 0,-0.09375 -0.09375,-0.09375 -0.1757813,-0.09375 -0.1523437,0 -0.3398437,0 -0.3398437,-0.082031 0,-0.035156 0.046875,-0.2226562 0.070312,-0.3164062 l 0.257813,-1.0429691 c 0.082031,0.140625 0.3046875,0.4101563 0.7265625,0.4101563 0.84375,0 1.7812501,-0.93750002 1.7812501,-1.98046877 z m -0.550781,-0.29296875 c 0,0.28125 -0.1523441,0.99609375 -0.3632816,1.40625 C 9.5688281,1.0384531 9.2289844,1.3665781 8.8774219,1.3665781 c -0.5039063,0 -0.6210938,-0.53906247 -0.6210938,-0.59765622 0,-0.0351563 0.011719,-0.0820313 0.011719,-0.10546875 l 0.3515625,-1.40625 c 0.4101562,-0.53906253 0.75,-0.64453123 0.9726562,-0.64453123 0.28125,0 0.5156252,0.2109375 0.5156252,0.67968748 z m 0,0"
           style="fill:#000000;fill-opacity:1;fill-rule:nonzero;stroke:none" /></g><path
         id="path270"
         d="m 311.8149,28.3468 -2e-5,26.64601 m 0,31.7484 2e-5,26.64603"
         style="fill:none;stroke:#000000;stroke-width:0.3985;stroke-linecap:butt;stroke-linejoin:miter;stroke-miterlimit:10;stroke-dasharray:none;stroke-opacity:1"
         transform="matrix(1.3333333,0,0,-1.3333333,200.70933,1003.8307)" /><path
         id="path271"
         d="m 311.81488,54.59431 -5.95285,3.07741 11.9057,5.35782 -11.9057,5.35782 11.9057,5.3578 -11.9057,5.35782 11.9057,5.35782 -5.95285,2.67891"
         style="fill:none;stroke:#000000;stroke-width:0.797;stroke-linecap:butt;stroke-linejoin:bevel;stroke-miterlimit:10;stroke-dasharray:none;stroke-opacity:1"
         transform="matrix(1.3333333,0,0,-1.3333333,200.70933,1003.8307)" /><g
         id="g271"
         aria-label="R&#10;p"
         transform="matrix(1.3333333,0,0,1.3333333,627.332,912.20133)"><path
           id="path272"
           d="m 6.4336172,-5.5064687 c 0,0.3398437 -0.1523438,1.0195312 -0.5507813,1.4179687 -0.2578125,0.2578125 -0.7851562,0.5742188 -1.6757812,0.5742188 H 3.0937734 l 0.6445313,-2.6015625 c 0.058594,-0.234375 0.082031,-0.3398438 0.28125,-0.3632813 0.082031,-0.011719 0.3984375,-0.011719 0.5976562,-0.011719 0.7148438,0 1.8164063,0 1.8164063,0.9843753 z m 1.0898437,4.5820312 c 0,-0.1171875 -0.1171875,-0.1171875 -0.1171875,-0.1171875 -0.09375,0 -0.1171875,0.0703125 -0.1289062,0.140625 -0.2578125,0.73828125 -0.6796875,0.90234375 -0.9140625,0.90234375 -0.328125,0 -0.3984375,-0.22265625 -0.3984375,-0.609375 0,-0.3046875 0.058594,-0.82031245 0.1054687,-1.13671875 0.011719,-0.140625 0.035156,-0.328125 0.035156,-0.46875 0,-0.7617187 -0.6679688,-1.078125 -0.9375,-1.171875 1.0078125,-0.2226562 2.1914062,-0.9140625 2.1914062,-1.921875 0,-0.8554687 -0.890625,-1.5 -2.203125,-1.5 H 2.3203359 c -0.1992187,0 -0.2929687,0 -0.2929687,0.1992188 0,0.1171875 0.09375,0.1171875 0.28125,0.1171875 0,0 0.2109375,0 0.3867187,0.011719 0.1757813,0.023437 0.2578125,0.035156 0.2578125,0.1640625 0,0.035156 0,0.070312 -0.035156,0.1875 l -1.3359375,5.35546875 c -0.09375,0.38671875 -0.1171875,0.46875 -0.90234376,0.46875 -0.17578125,0 -0.26953125,0 -0.26953125,0.19921875 0,0.10546875 0.140625,0.10546875 0.140625,0.10546875 L 1.8047109,-0.0338125 3.0703359,0.00134375 c 0.082031,0 0.1992188,0 0.1992188,-0.19921875 0,-0.10546875 -0.09375,-0.10546875 -0.28125,-0.10546875 -0.3632813,0 -0.6445313,0 -0.6445313,-0.1875 0,-0.0585938 0.011719,-0.10546875 0.023437,-0.1640625 l 0.65625,-2.63671875 h 1.1953125 c 0.9023438,0 1.078125,0.5507813 1.078125,0.9023438 0,0.1523437 -0.082031,0.4570312 -0.140625,0.6914062 -0.070312,0.2695313 -0.1523437,0.6445313 -0.1523437,0.84375 0,1.078125 1.1953125,1.078125 1.3242187,1.078125 0.84375,0 1.1953125,-1.0078125 1.195313,-1.1484375 z m 0,0"
           style="fill:#000000;fill-opacity:1;fill-rule:nonzero;stroke:none" /><path
           id="path273"
           d="m 11.443383,-0.41467187 c 0,-0.82031253 -0.5625,-1.16015623 -1.042969,-1.16015623 -0.4335937,0 -0.7968749,0.2929687 -0.9843749,0.4804687 -0.1171875,-0.3984375 -0.515625,-0.4804687 -0.7265625,-0.4804687 -0.2695313,0 -0.4335938,0.1757812 -0.5507813,0.3632812 -0.140625,0.23437503 -0.2460937,0.65625003 -0.2460937,0.70312503 0,0.0820313 0.09375,0.0820313 0.1171875,0.0820313 0.09375,0 0.1054687,-0.0117188 0.1523437,-0.19921875 0.1054688,-0.41015618 0.234375,-0.76171868 0.515625,-0.76171868 0.1757813,0 0.2226563,0.1523437 0.2226563,0.3398437 0,0.0820313 -0.011719,0.17578123 -0.023437,0.21093748 L 8.0918203,2.3509531 c -0.058594,0.1875 -0.070312,0.2460938 -0.3515625,0.2460938 -0.082031,0 -0.1875,0 -0.1875,0.1523437 0,0.070312 0.070312,0.09375 0.1054688,0.09375 0.1757812,0 0.4101562,-0.023437 0.5976562,-0.023437 0.234375,0 0.5039063,0.023437 0.7265625,0.023437 0.070312,0 0.140625,-0.011719 0.140625,-0.1523437 0,-0.09375 -0.09375,-0.09375 -0.1757812,-0.09375 -0.1523438,0 -0.3398438,0 -0.3398438,-0.082031 0,-0.035156 0.046875,-0.2226562 0.070312,-0.3164062 l 0.257813,-1.0429691 c 0.082031,0.140625 0.3046875,0.4101563 0.7265625,0.4101563 0.8437502,0 1.7812502,-0.93750002 1.7812502,-1.98046877 z m -0.550781,-0.29296875 c 0,0.28125 -0.152344,0.99609375 -0.363282,1.40625 -0.175781,0.33984372 -0.515625,0.66796872 -0.8671872,0.66796872 -0.5039062,0 -0.6210937,-0.53906247 -0.6210937,-0.59765622 0,-0.0351563 0.011719,-0.0820313 0.011719,-0.10546875 l 0.3515625,-1.40625 C 9.8144766,-1.2818594 10.15432,-1.3873281 10.376977,-1.3873281 c 0.28125,0 0.515625,0.2109375 0.515625,0.67968748 z m 0,0"
           style="fill:#000000;fill-opacity:1;fill-rule:nonzero;stroke:none" /></g><path
         id="path274"
         d="M -62.36288,42.5202 V 98.8153"
         style="fill:none;stroke:#000000;stroke-width:0.3985;stroke-linecap:butt;stroke-linejoin:miter;stroke-miterlimit:10;stroke-dasharray:none;stroke-opacity:1"
         transform="matrix(1.3333333,0,0,-1.3333333,200.70933,1003.8307)" /><path
         id="path275"
         d="M -2.07224,2.39104 C -1.69365,0.95639 -0.84999,0.27895 0,0 -0.84999,-0.27895 -1.69365,-0.95639 -2.07224,-2.39104"
         style="fill:none;stroke:#000000;stroke-width:0.3985;stroke-linecap:round;stroke-linejoin:round;stroke-miterlimit:10;stroke-dasharray:none;stroke-opacity:1"
         transform="matrix(0,-1.3333333,-1.3333333,0,117.55883,871.81124)" /><g
         id="g275"
         aria-label="50V"
         transform="matrix(1.3333333,0,0,1.3333333,81.045333,913.91733)"><path
           id="path276"
           d="m 4.4777188,-2.0034297 c 0,-1.1835937 -0.8203125,-2.1796875 -1.8984375,-2.1796875 -0.4804688,0 -0.9023438,0.1640625 -1.265625,0.5039063 v -1.9335938 c 0.1992187,0.058594 0.5273437,0.1289063 0.84375,0.1289063 1.2304687,0 1.9335937,-0.9140625 1.9335937,-1.0429688 0,-0.058594 -0.035156,-0.1054687 -0.1054687,-0.1054687 0,0 -0.035156,0 -0.082031,0.023437 -0.1992187,0.09375 -0.6796875,0.2929687 -1.3476562,0.2929687 -0.3984375,0 -0.8554688,-0.070312 -1.3242188,-0.28125 -0.082031,-0.023437 -0.1289062,-0.023437 -0.1289062,-0.023437 -0.09375,0 -0.09375,0.082031 -0.09375,0.234375 v 2.953125 c 0,0.1757813 0,0.2578125 0.140625,0.2578125 0.070312,0 0.082031,-0.035156 0.1289062,-0.09375 0.1054688,-0.1523437 0.4804688,-0.6914062 1.2773438,-0.6914062 0.5273437,0 0.7734375,0.4570312 0.8554687,0.6328125 0.1523438,0.375 0.1757813,0.7617187 0.1757813,1.2539062 0,0.3515625 0,0.9492188 -0.234375,1.37109376 -0.2460938,0.38671875 -0.609375,0.64453125 -1.0664063,0.64453125 -0.7265625,0 -1.30078125,-0.52734375 -1.46484375,-1.11328121 0.0234375,0.011719 0.0585938,0.011719 0.1640625,0.011719 0.32812505,0 0.50390625,-0.2460937 0.50390625,-0.4804687 0,-0.2460938 -0.1757812,-0.4921875 -0.50390625,-0.4921875 -0.140625,0 -0.48046875,0.070312 -0.48046875,0.5273437 0,0.85546876 0.6796875,1.82812501 1.7929688,1.82812501 1.1601562,0 2.1796875,-0.9609375 2.1796872,-2.22656281 z m 5.0859375,-1.1835937 c 0,-0.796875 -0.046875,-1.59375 -0.3984375,-2.3320313 -0.4570313,-0.9609375 -1.2773438,-1.1132812 -1.6875,-1.1132812 -0.5976563,0 -1.3359375,0.2578125 -1.734375,1.1835937 -0.328125,0.6914063 -0.375,1.4648438 -0.375,2.2617188 0,0.75 0.046875,1.640625 0.4453125,2.40234371 0.4335937,0.80859375 1.1601562,1.0078125 1.6523437,1.0078125 0.5390625,0 1.2890625,-0.2109375 1.734375,-1.16015625 C 9.5167813,-1.6284297 9.5636563,-2.4018672 9.5636563,-3.1870234 Z M 8.731625,-3.3042109 c 0,0.75 0,1.4179687 -0.1054687,2.0625 C 8.4738125,-0.30421094 7.9113125,4.765625e-4 7.466,4.765625e-4 7.0792813,4.765625e-4 6.481625,-0.24561719 6.3058438,-1.2065547 6.200375,-1.8042109 6.200375,-2.7182734 6.200375,-3.3042109 c 0,-0.6445313 0,-1.3007813 0.082031,-1.8398438 0.1875,-1.1835937 0.9257812,-1.265625 1.1835937,-1.265625 0.328125,0 0.984375,0.1757813 1.171875,1.1601563 0.09375,0.5625 0.09375,1.3125 0.09375,1.9453125 z m 0,0"
           style="fill:#000000;fill-opacity:1;fill-rule:nonzero;stroke:none" /><path
           id="path277"
           d="m 20.561703,-6.4917109 v -0.3164063 c -0.316406,0.023437 -0.714844,0.035156 -0.972656,0.035156 l -1.136719,-0.035156 v 0.3164063 c 0.515625,0.011719 0.726563,0.2695312 0.726563,0.4921875 0,0.082031 -0.02344,0.140625 -0.04687,0.1992187 l -1.828125,4.80468751 -1.898438,-5.02734371 c -0.05859,-0.140625 -0.05859,-0.1875 -0.05859,-0.1875 0,-0.28125 0.5625,-0.28125 0.820313,-0.28125 v -0.3164063 c -0.363281,0.035156 -1.054688,0.035156 -1.429688,0.035156 l -1.265625,-0.035156 v 0.3164063 c 0.644532,0 0.84375,0 0.972657,0.375 l 2.320312,6.1171874625 c 0.07031,0.1874999975 0.117188,0.2226562475 0.246094,0.2226562475 0.164062,0 0.1875,-0.0585938 0.234375,-0.1875 l 2.226562,-5.85937501 c 0.140625,-0.375 0.410157,-0.65625 1.089844,-0.6679687 z m 0,0"
           style="fill:#000000;fill-opacity:1;fill-rule:nonzero;stroke:none" /></g><path
         id="path278"
         d="M 53.85875,42.5202 V 98.8153"
         style="fill:none;stroke:#000000;stroke-width:0.3985;stroke-linecap:butt;stroke-linejoin:miter;stroke-miterlimit:10;stroke-dasharray:none;stroke-opacity:1"
         transform="matrix(1.3333333,0,0,-1.3333333,200.70933,1003.8307)" /><path
         id="path279"
         d="M -2.07224,2.39104 C -1.69365,0.95639 -0.84999,0.27895 0,0 -0.84999,-0.27895 -1.69365,-0.95639 -2.07224,-2.39104"
         style="fill:none;stroke:#000000;stroke-width:0.3985;stroke-linecap:round;stroke-linejoin:round;stroke-miterlimit:10;stroke-dasharray:none;stroke-opacity:1"
         transform="matrix(0,-1.3333333,-1.3333333,0,272.521,871.81124)" /><g
         id="g279"
         aria-label="v&#10;s&#10;(ωt)"
         transform="matrix(1.3333333,0,0,1.3333333,231.848,912.66267)"><path
           id="path280"
           d="m 4.6638047,-3.7020781 c 0,-0.5390625 -0.2578125,-0.703125 -0.4453125,-0.703125 -0.2460938,0 -0.4804688,0.2578125 -0.4804688,0.4804687 0,0.1289063 0.046875,0.1875 0.1523438,0.3046875 0.2109375,0.1992188 0.3398437,0.4570313 0.3398437,0.8085938 0,0.421875 -0.609375,2.70703123 -1.7695312,2.70703123 -0.5039063,0 -0.7382813,-0.3515625 -0.7382813,-0.8671875 0,-0.56250003 0.2695313,-1.28906253 0.5742188,-2.12109373 0.070312,-0.1640625 0.1289062,-0.3046875 0.1289062,-0.4921875 0,-0.4453125 -0.328125,-0.8203125 -0.8203125,-0.8203125 -0.93749996,0 -1.31249996,1.453125 -1.31249996,1.5351562 0,0.1054688 0.1171875,0.1054688 0.1171875,0.1054688 0.09375,0 0.10546875,-0.023437 0.15234375,-0.1875 0.29296875,-0.9960938 0.72656251,-1.2304688 1.00781251,-1.2304688 0.082031,0 0.2578125,0 0.2578125,0.3164063 0,0.2460937 -0.1054688,0.515625 -0.1757813,0.703125 -0.4335937,1.1484375 -0.5625,1.6054687 -0.5625,2.0390625 0,1.07812498 0.8671875,1.23046873 1.3359375,1.23046873 1.6640625,0 2.2382813,-3.29296873 2.2382813,-3.80859373 z m 0,0"
           style="fill:#000000;fill-opacity:1;fill-rule:nonzero;stroke:none" /><path
           id="path281"
           d="m 7.9684922,0.4170625 c 0,-0.64453125 -0.703125,-0.7734375 -0.9609375,-0.8203125 -0.070312,-0.0117188 -0.2460938,-0.0351563 -0.28125,-0.0585938 -0.2578125,-0.046875 -0.3867188,-0.1875 -0.3867188,-0.33984375 0,-0.1640625 0.1289063,-0.35156245 0.28125,-0.44531245 0.1875,-0.1289063 0.4335938,-0.140625 0.5507813,-0.140625 0.140625,0 0.5039062,0.023437 0.65625,0.2578125 -0.1757813,0.046875 -0.2929688,0.18749995 -0.2929688,0.32812495 0,0.1640625 0.140625,0.22265625 0.234375,0.22265625 0.070312,0 0.3398438,-0.0351563 0.3398438,-0.3984375 0,-0.4453125 -0.5039063,-0.5976562 -0.9257813,-0.5976562 -1.0898437,0 -1.2890625,0.79687495 -1.2890625,1.00781245 0,0.2578125 0.1523438,0.43359375 0.2460938,0.515625 0.1757812,0.140625 0.3046875,0.1640625 0.7851562,0.24609375 0.1523438,0.0351563 0.5976563,0.1171875 0.5976563,0.46875 0,0.1171875 -0.082031,0.375 -0.375,0.5507812 -0.2695313,0.1523438 -0.609375,0.1523438 -0.6914063,0.1523438 -0.28125,0 -0.6796875,-0.058594 -0.84375,-0.2929688 0.234375,-0.023437 0.3867188,-0.1992187 0.3867188,-0.39843745 0,-0.1640625 -0.1289063,-0.2578125 -0.2695313,-0.2578125 -0.1992187,0 -0.4101562,0.1640625 -0.4101562,0.46875 0,0.42187495 0.4453125,0.67968745 1.125,0.67968745 1.2890625,0 1.5234375,-0.8789062 1.5234375,-1.1484374 z m 0,0"
           style="fill:#000000;fill-opacity:1;fill-rule:nonzero;stroke:none" /><path
           id="path282"
           d="m 12.380602,2.3916719 c 0,-0.035156 0,-0.046875 -0.164063,-0.2226563 -1.242187,-1.25390622 -1.570312,-3.12890622 -1.570312,-4.6640625 0,-1.7226562 0.386718,-3.4570312 1.605468,-4.7109375 0.128907,-0.1171875 0.128907,-0.1289062 0.128907,-0.1640625 0,-0.070312 -0.03516,-0.1054687 -0.09375,-0.1054687 -0.105469,0 -0.996094,0.6796875 -1.582032,1.9453125 -0.515625,1.1015625 -0.632812,2.203125 -0.632812,3.0351562 0,0.7851563 0.117187,1.99218753 0.65625,3.11718753 0.597656,1.21874997 1.453125,1.87499997 1.558594,1.87499997 0.05859,0 0.09375,-0.035156 0.09375,-0.1054687 z m 0,0"
           style="fill:#000000;fill-opacity:1;fill-rule:nonzero;stroke:none" /><path
           id="path283"
           d="m 18.749742,-2.3778594 c 0.105469,-0.4335937 0.222656,-0.9257812 0.222656,-1.3242187 0,-0.2578125 -0.04687,-0.4804688 -0.199218,-0.609375 -0.05859,-0.058594 -0.128907,-0.09375 -0.222657,-0.09375 -0.117187,0 -0.246093,0.058594 -0.351562,0.1640625 -0.09375,0.09375 -0.140625,0.2109375 -0.140625,0.3164062 0,0.1054688 0.04687,0.1757813 0.117187,0.2460938 0.246094,0.2226562 0.375,0.5273437 0.375,0.8789062 0,0.1171875 -0.01172,0.2460938 -0.04687,0.375 -0.222656,0.9023438 -0.796875,1.81640628 -1.59375,1.81640628 -0.550781,0 -0.878906,-0.375 -0.972656,-0.89062498 0.128906,-0.28125 0.234375,-0.5859375 0.304688,-0.8789063 0.01172,-0.09375 0.03516,-0.1757812 0.03516,-0.2578125 0,-0.1523437 -0.04687,-0.2578125 -0.1875,-0.2578125 -0.1875,0 -0.292969,0.2460938 -0.339844,0.46875 -0.08203,0.3046875 -0.117187,0.5976563 -0.128906,0.890625 -0.328125,0.53906253 -0.808594,0.92578128 -1.359375,0.92578128 -0.597656,0 -0.867188,-0.49218748 -0.867188,-1.12499998 0,-0.1992188 0.03516,-0.421875 0.08203,-0.6445313 0.152343,-0.5976562 0.515625,-1.1601562 0.890625,-1.6875 0.02344,-0.035156 0.04687,-0.082031 0.04687,-0.1289062 0,-0.058594 -0.03516,-0.1054688 -0.09375,-0.140625 -0.02344,-0.011719 -0.05859,-0.011719 -0.08203,-0.011719 -0.05859,0 -0.128906,0.023437 -0.175781,0.082031 -0.410156,0.5742187 -0.667969,1.2070312 -0.820312,1.8398437 -0.105469,0.375 -0.152344,0.7617188 -0.152344,1.1132813 0,0.80859373 0.292969,1.41796873 1.042969,1.41796873 0.632812,0 1.148437,-0.43359375 1.523437,-1.0546875 0.117188,0.62109375 0.457031,1.0546875 1.125,1.0546875 1.042969,0 1.664063,-1.27734373 1.96875,-2.48437503 z m 3.902344,0.9492188 c 0,-0.09375 -0.08203,-0.09375 -0.117188,-0.09375 -0.09375,0 -0.105468,0.023437 -0.152343,0.140625 -0.433594,1.03124998 -0.960938,1.27734373 -1.300782,1.27734373 -0.199218,0 -0.304687,-0.12890625 -0.304687,-0.45703125 0,-0.24609375 0.02344,-0.31640625 0.05859,-0.48046878 l 0.738281,-2.9414062 h 0.9375 c 0.199219,0 0.304687,0 0.304687,-0.1992188 0,-0.1054687 -0.105468,-0.1054687 -0.28125,-0.1054687 h -0.878906 c 0.363281,-1.4179688 0.410156,-1.6171875 0.410156,-1.6757813 0,-0.1757812 -0.117187,-0.2695312 -0.292968,-0.2695312 -0.02344,0 -0.304688,0.011719 -0.398438,0.3515625 l -0.386719,1.59375 h -0.9375 c -0.199218,0 -0.292968,0 -0.292968,0.1875 0,0.1171875 0.07031,0.1171875 0.269531,0.1171875 h 0.878906 c -0.714844,2.8242187 -0.75,2.99999998 -0.75,3.17578123 0,0.5390625 0.375,0.9140625 0.914063,0.9140625 1.007812,0 1.582031,-1.45312503 1.582031,-1.53515623 z m 0,0"
           style="fill:#000000;fill-opacity:1;fill-rule:nonzero;stroke:none" /><path
           id="path284"
           d="m 26.000719,-2.4950469 c 0,-0.7734375 -0.117188,-1.9804687 -0.65625,-3.1054687 -0.597656,-1.21875 -1.464844,-1.875 -1.558594,-1.875 -0.05859,0 -0.105469,0.046875 -0.105469,0.1054687 0,0.035156 0,0.046875 0.199219,0.234375 0.972656,0.984375 1.535156,2.5664063 1.535156,4.640625 0,1.71093753 -0.363281,3.45703128 -1.59375,4.7226563 -0.140625,0.1171875 -0.140625,0.1289062 -0.140625,0.1640625 0,0.058594 0.04687,0.1054687 0.105469,0.1054687 0.09375,0 0.996094,-0.6796875 1.582031,-1.94531247 0.503907,-1.1015625 0.632813,-2.20312503 0.632813,-3.04687503 z m 0,0"
           style="fill:#000000;fill-opacity:1;fill-rule:nonzero;stroke:none" /></g><path
         id="path285"
         d="m 141.73404,141.73404 c 0.4483,0.89666 1.49441,1.49441 2.98883,1.49441 h 22.36916 c 1.49441,0 2.54051,0.59777 2.98883,1.49442 0.4483,-0.89665 1.49441,-1.49442 2.98883,-1.49442 h 22.36914 c 1.49441,0 2.54052,-0.59775 2.98883,-1.49441"
         style="fill:none;stroke:#000000;stroke-width:0.3985;stroke-linecap:butt;stroke-linejoin:miter;stroke-miterlimit:10;stroke-dasharray:none;stroke-opacity:1"
         transform="matrix(1.3333333,0,0,-1.3333333,200.70933,1003.8307)" /><g
         id="g285"
         aria-label="Tunedtoω"
         transform="matrix(1.3333333,0,0,1.3333333,394.512,800.532)"><path
           id="path286"
           d="m 6.8201016,-4.5005625 -0.1875,-2.2382813 H 0.55057031 l -0.1875,2.2382813 h 0.24609375 c 0.140625,-1.6054688 0.29296875,-1.9335938 1.79296874,-1.9335938 0.1757813,0 0.4335938,0 0.5390625,0.023437 0.2109375,0.035156 0.2109375,0.140625 0.2109375,0.375 v 5.25000005 c 0,0.33984375 0,0.48046875 -1.0546875,0.48046875 H 1.6990078 V -5.63e-4 c 0.4101563,-0.03515625 1.4296875,-0.03515625 1.8867188,-0.03515625 0.4570312,0 1.4882812,0 1.8984375,0.03515625 V -0.30525 H 5.0857266 c -1.0546875,0 -1.0546875,-0.140625 -1.0546875,-0.48046875 V -6.0357188 c 0,-0.1992187 0,-0.3398437 0.1875,-0.375 0.1054687,-0.023437 0.375,-0.023437 0.5625,-0.023437 1.5,0 1.6523437,0.328125 1.7929687,1.9335938 z m 4.8808594,4.5 V -0.30525 c -0.703125,0 -0.785156,-0.0703125 -0.785156,-0.5625 V -4.4068125 L 9.4626797,-4.289625 v 0.3046875 c 0.6914063,0 0.7734373,0.070312 0.7734373,0.5625 v 1.7695312 c 0,0.86718755 -0.4804686,1.54687505 -1.2070311,1.54687505 -0.8320312,0 -0.8789062,-0.46875 -0.8789062,-0.99609375 V -4.4068125 L 6.6853359,-4.289625 v 0.3046875 c 0.7851563,0 0.7851563,0.035156 0.7851563,0.9140625 v 1.5 c 0,0.7734375 0,1.67578125 1.5117187,1.67578125 0.5507813,0 0.9960938,-0.26953125 1.2773441,-0.890625 v 0.890625 z m 5.53418,0 V -0.30525 c -0.515625,0 -0.773438,0 -0.785157,-0.3046875 V -2.508375 c 0,-0.8554688 0,-1.171875 -0.304687,-1.5234375 -0.140625,-0.1757813 -0.46875,-0.375 -1.042969,-0.375 -0.726562,0 -1.195312,0.4335937 -1.476562,1.0546875 v -1.0546875 l -1.40625,0.1171875 v 0.3046875 c 0.703125,0 0.785156,0.070312 0.785156,0.5625 v 2.66015625 c 0,0.45703125 -0.117188,0.45703125 -0.785156,0.45703125 v 0.3046875 l 1.125,-0.03515625 1.113281,0.03515625 V -0.30525 c -0.65625,0 -0.773438,0 -0.773438,-0.45703125 V -2.5904063 c 0,-1.03125 0.714844,-1.59375 1.347657,-1.59375 0.621093,0 0.738281,0.5390625 0.738281,1.1015625 v 2.32031255 c 0,0.45703125 -0.117188,0.45703125 -0.773438,0.45703125 v 0.3046875 l 1.125,-0.03515625 z m 4.338867,-1.1835938 c 0,-0.1054687 -0.08203,-0.1171875 -0.128906,-0.1171875 -0.09375,0 -0.117188,0.058594 -0.128907,0.140625 -0.351562,1.0195313 -1.253906,1.0195313 -1.347656,1.0195313 -0.503906,0 -0.902344,-0.29296875 -1.125,-0.66796875 C 18.538852,-1.289625 18.538852,-1.945875 18.538852,-2.2974375 h 2.789062 c 0.210938,0 0.246094,0 0.246094,-0.2109375 0,-0.984375 -0.539063,-1.9570313 -1.78125,-1.9570313 -1.160156,0 -2.074219,1.03125 -2.074219,2.2734375 0,1.33593755 1.042969,2.29687505 2.191406,2.29687505 1.21875,0 1.664063,-1.1015625 1.664063,-1.28906255 z M 20.917758,-2.508375 H 18.55057 c 0.05859,-1.4882813 0.902344,-1.734375 1.242188,-1.734375 1.019531,0 1.125,1.3476562 1.125,1.734375 z m 6.199219,2.5078125 V -0.30525 c -0.703125,0 -0.773438,-0.0703125 -0.773438,-0.5625 v -6.046875 l -1.441406,0.1054687 V -6.49275 c 0.703125,0 0.785156,0.070312 0.785156,0.5507812 v 2.15625 C 25.39432,-4.149 24.960727,-4.4068125 24.421664,-4.4068125 c -1.171875,0 -2.214844,0.984375 -2.214844,2.2617187 0,1.26562505 0.972657,2.25000005 2.109375,2.25000005 0.644532,0 1.089844,-0.33984375 1.335938,-0.65625 v 0.65625 z m -1.464844,-1.171875 c 0,0.17578125 0,0.19921875 -0.105469,0.36328125 -0.304687,0.48046875 -0.75,0.703125 -1.183594,0.703125 -0.445312,0 -0.796875,-0.2578125 -1.042968,-0.64453125 -0.257813,-0.4101563 -0.292969,-0.9726563 -0.292969,-1.3828125 0,-0.3632813 0.02344,-0.9609375 0.316406,-1.4179688 0.210938,-0.3046875 0.585938,-0.6328125 1.125,-0.6328125 0.351563,0 0.761719,0.1523438 1.078125,0.5976563 0.105469,0.1640625 0.105469,0.1875 0.105469,0.3632812 z m 8.373047,-0.058594 V -1.80525 h -0.246094 v 0.5507812 c 0,0.7382813 -0.304688,1.1132813 -0.667969,1.1132813 -0.667969,0 -0.667969,-0.9023438 -0.667969,-1.078125 v -2.765625 h 1.429688 V -4.289625 h -1.429688 v -1.8398438 h -0.246093 c -0.01172,0.8203125 -0.316407,1.8867188 -1.289063,1.921875 v 0.2226563 h 0.84375 v 2.7539062 c 0,1.21875005 0.925781,1.33593755 1.289063,1.33593755 0.703125,0 0.984375,-0.703125 0.984375,-1.33593775 z m 5.255859,-0.9023437 c 0,-1.2773438 -0.996094,-2.3320313 -2.191406,-2.3320313 -1.253906,0 -2.214844,1.0898438 -2.214844,2.3320313 0,1.2890625 1.03125,2.23828125 2.203125,2.23828125 1.207031,0 2.203125,-0.97265625 2.203125,-2.23828125 z m -0.820312,-0.082031 c 0,0.3632813 0,0.9023438 -0.222657,1.33593755 -0.222656,0.4453125 -0.65625,0.73828125 -1.148437,0.73828125 -0.433594,0 -0.867188,-0.2109375 -1.136719,-0.66796875 C 35.695102,-1.24275 35.695102,-1.852125 35.695102,-2.2154063 c 0,-0.3867187 0,-0.9257812 0.246093,-1.359375 0.269532,-0.4570312 0.738282,-0.6679687 1.136719,-0.6679687 0.433594,0 0.867188,0.2226562 1.125,0.6445312 0.257813,0.4335938 0.257813,1.0078125 0.257813,1.3828126 z m 0,0"
           style="fill:#000000;fill-opacity:1;fill-rule:nonzero;stroke:none" /><path
           id="path287"
           d="m 48.685336,-2.3794688 c 0.105469,-0.4335937 0.222656,-0.9257812 0.222656,-1.3242187 0,-0.2578125 -0.04687,-0.4804688 -0.199219,-0.609375 -0.05859,-0.058594 -0.128906,-0.09375 -0.222656,-0.09375 -0.117187,0 -0.246094,0.058594 -0.351562,0.1640625 -0.09375,0.09375 -0.140625,0.2109375 -0.140625,0.3164062 0,0.1054688 0.04687,0.1757813 0.117187,0.2460938 0.246094,0.2226562 0.375,0.5273437 0.375,0.8789062 0,0.1171875 -0.01172,0.2460938 -0.04687,0.375 -0.222656,0.9023438 -0.796875,1.8164063 -1.59375,1.8164063 -0.550781,0 -0.878906,-0.375 -0.972656,-0.890625 0.128906,-0.28125 0.234375,-0.5859375 0.304687,-0.8789063 0.01172,-0.09375 0.03516,-0.1757812 0.03516,-0.2578125 0,-0.1523437 -0.04687,-0.2578125 -0.1875,-0.2578125 -0.1875,0 -0.292969,0.2460938 -0.339844,0.46875 -0.08203,0.3046875 -0.117188,0.5976563 -0.128906,0.890625 -0.328125,0.53906255 -0.808594,0.9257813 -1.359375,0.9257813 -0.597657,0 -0.867188,-0.4921875 -0.867188,-1.125 0,-0.1992188 0.03516,-0.421875 0.08203,-0.6445313 0.152344,-0.5976562 0.515625,-1.1601562 0.890625,-1.6875 0.02344,-0.035156 0.04687,-0.082031 0.04687,-0.1289062 0,-0.058594 -0.03516,-0.1054688 -0.09375,-0.140625 -0.02344,-0.011719 -0.05859,-0.011719 -0.08203,-0.011719 -0.05859,0 -0.128906,0.023437 -0.175781,0.082031 -0.410156,0.5742187 -0.667969,1.2070312 -0.820313,1.8398437 -0.105468,0.375 -0.152343,0.7617188 -0.152343,1.1132813 0,0.80859375 0.292968,1.41796875 1.042968,1.41796875 0.632813,0 1.148438,-0.43359375 1.523438,-1.0546875 0.117187,0.62109375 0.457031,1.0546875 1.125,1.0546875 1.042969,0 1.664062,-1.27734375 1.96875,-2.48437505 z m 0,0"
           style="fill:#000000;fill-opacity:1;fill-rule:nonzero;stroke:none" /></g><path
         id="path288"
         d="M -42.5202,28.3468 H 311.8149"
         style="fill:none;stroke:#000000;stroke-width:0.3985;stroke-linecap:butt;stroke-linejoin:miter;stroke-miterlimit:10;stroke-dasharray:none;stroke-opacity:1"
         transform="matrix(1.3333333,0,0,-1.3333333,200.70933,1003.8307)" /><path
         id="path289"
         d="M 70.867,96.37897 V 93.94305"
         style="fill:none;stroke:#000000;stroke-width:0.3985;stroke-linecap:butt;stroke-linejoin:miter;stroke-miterlimit:10;stroke-dasharray:none;stroke-opacity:1"
         transform="matrix(1.3333333,0,0,-1.3333333,200.70933,1003.8307)" /><path
         id="path290"
         d="M -2.07224,2.39104 C -1.69365,0.95639 -0.84999,0.27895 0,0 -0.84999,-0.27895 -1.69365,-0.95639 -2.07224,-2.39104"
         style="fill:none;stroke:#000000;stroke-width:0.3985;stroke-linecap:round;stroke-linejoin:round;stroke-miterlimit:10;stroke-dasharray:none;stroke-opacity:1"
         transform="matrix(0,1.3333333,1.3333333,0,295.19867,878.83893)" /><g
         id="g290"
         aria-label="i&#10;s&#10;(ωt)"
         transform="matrix(1.3333333,0,0,1.3333333,304.59067,882.42667)"><path
           id="path291"
           d="m 2.8236016,-6.2233203 c 0,-0.1992188 -0.1289063,-0.3632813 -0.3632813,-0.3632813 -0.2695312,0 -0.5390625,0.2578125 -0.5390625,0.5273438 0,0.1875 0.140625,0.3632812 0.375,0.3632812 0.234375,0 0.5273438,-0.234375 0.5273438,-0.5273437 z m 0.09375,4.7929687 c 0,-0.09375 -0.09375,-0.09375 -0.1171875,-0.09375 -0.1054688,0 -0.1054688,0.023437 -0.1523438,0.1757813 -0.1757812,0.63281249 -0.5039062,1.24218749 -1.0195312,1.24218749 -0.1640625,0 -0.234375,-0.10546875 -0.234375,-0.328125 0,-0.2578125 0.058594,-0.3984375 0.2929687,-0.99609379 l 0.3867188,-1.0546875 c 0.1171875,-0.28125 0.1171875,-0.3046875 0.2226562,-0.5742187 0.070312,-0.1992188 0.1289063,-0.3398438 0.1289063,-0.5273438 0,-0.4453125 -0.328125,-0.8203125 -0.8203125,-0.8203125 -0.93750004,0 -1.31250004,1.453125 -1.31250004,1.5351563 0,0.1054687 0.1171875,0.1054687 0.1171875,0.1054687 0.09375,0 0.10546875,-0.023437 0.15234375,-0.1875 0.26953125,-0.9375 0.66796879,-1.2304687 1.00781249,-1.2304687 0.082031,0 0.2578125,0 0.2578125,0.3164062 0,0.2109375 -0.070312,0.421875 -0.1171875,0.515625 -0.082031,0.2578125 -0.5273437,1.4179688 -0.6796875,1.8515625 -0.10546874,0.2578125 -0.23437499,0.58593754 -0.23437499,0.79687504 0,0.46875 0.33984379,0.80859375 0.82031249,0.80859375 0.9375,0 1.3007813,-1.44140629 1.3007813,-1.53515629 z m 0,0"
           style="fill:#000000;fill-opacity:1;fill-rule:nonzero;stroke:none" /><path
           id="path292"
           d="m 6.5736016,0.41535156 c 0,-0.64453125 -0.703125,-0.7734375 -0.9609375,-0.8203125 -0.070312,-0.0117188 -0.2460938,-0.0351563 -0.28125,-0.0585938 -0.2578125,-0.046875 -0.3867188,-0.1875 -0.3867188,-0.33984375 0,-0.1640625 0.1289063,-0.35156241 0.28125,-0.44531241 0.1875,-0.1289063 0.4335938,-0.140625 0.5507813,-0.140625 0.140625,0 0.5039062,0.023437 0.65625,0.2578125 -0.1757813,0.046875 -0.2929688,0.18749991 -0.2929688,0.32812491 0,0.1640625 0.140625,0.22265625 0.234375,0.22265625 0.070312,0 0.3398438,-0.0351563 0.3398438,-0.3984375 0,-0.44531246 -0.5039063,-0.59765616 -0.9257813,-0.59765616 -1.0898437,0 -1.2890625,0.79687491 -1.2890625,1.00781241 0,0.2578125 0.1523438,0.43359375 0.2460938,0.515625 0.1757812,0.140625 0.3046875,0.1640625 0.7851562,0.24609375 0.1523438,0.0351563 0.5976563,0.1171875 0.5976563,0.46875 0,0.1171875 -0.082031,0.37500004 -0.375,0.55078124 -0.2695313,0.1523438 -0.609375,0.1523438 -0.6914063,0.1523438 -0.28125,0 -0.6796875,-0.058594 -0.84375,-0.2929688 0.234375,-0.023437 0.3867188,-0.19921874 0.3867188,-0.39843749 0,-0.1640625 -0.1289063,-0.2578125 -0.2695313,-0.2578125 -0.1992187,0 -0.4101562,0.1640625 -0.4101562,0.46875 0,0.42187499 0.4453125,0.67968749 1.125,0.67968749 1.2890625,0 1.5234375,-0.87890624 1.5234375,-1.14843744 z m 0,0"
           style="fill:#000000;fill-opacity:1;fill-rule:nonzero;stroke:none" /><path
           id="path293"
           d="m 10.982781,2.3899609 c 0,-0.035156 0,-0.046875 -0.164062,-0.2226562 -1.2421877,-1.25390626 -1.5703127,-3.12890626 -1.5703127,-4.6640625 0,-1.7226563 0.3867187,-3.4570313 1.6054687,-4.7109375 0.128906,-0.1171875 0.128906,-0.1289063 0.128906,-0.1640625 0,-0.070312 -0.03516,-0.1054688 -0.09375,-0.1054688 -0.105468,0 -0.9960935,0.6796875 -1.582031,1.9453125 -0.515625,1.1015625 -0.6328125,2.203125 -0.6328125,3.0351563 0,0.7851562 0.1171875,1.99218749 0.65625,3.11718749 0.5976563,1.21875001 1.4531255,1.87500001 1.5585935,1.87500001 0.05859,0 0.09375,-0.035156 0.09375,-0.1054688 z m 0,0"
           style="fill:#000000;fill-opacity:1;fill-rule:nonzero;stroke:none" /><path
           id="path294"
           d="m 17.354852,-2.3795703 c 0.105468,-0.4335938 0.222656,-0.9257813 0.222656,-1.3242188 0,-0.2578125 -0.04687,-0.4804687 -0.199219,-0.609375 -0.05859,-0.058594 -0.128906,-0.09375 -0.222656,-0.09375 -0.117188,0 -0.246094,0.058594 -0.351563,0.1640625 -0.09375,0.09375 -0.140625,0.2109375 -0.140625,0.3164063 0,0.1054687 0.04687,0.1757812 0.117188,0.2460937 0.246094,0.2226563 0.375,0.5273438 0.375,0.8789063 0,0.1171875 -0.01172,0.2460937 -0.04687,0.375 -0.222656,0.9023437 -0.796875,1.81640624 -1.59375,1.81640624 -0.550781,0 -0.878906,-0.375 -0.972656,-0.89062504 0.128906,-0.28125 0.234375,-0.5859375 0.304687,-0.8789062 0.01172,-0.09375 0.03516,-0.1757813 0.03516,-0.2578125 0,-0.1523438 -0.04687,-0.2578125 -0.1875,-0.2578125 -0.1875,0 -0.292968,0.2460937 -0.339843,0.46875 -0.08203,0.3046875 -0.117188,0.5976562 -0.128907,0.890625 -0.328125,0.53906249 -0.808593,0.92578124 -1.359375,0.92578124 -0.597656,0 -0.867187,-0.49218754 -0.867187,-1.12500004 0,-0.1992187 0.03516,-0.421875 0.08203,-0.6445312 0.152344,-0.5976563 0.515625,-1.1601563 0.890625,-1.6875 0.02344,-0.035156 0.04687,-0.082031 0.04687,-0.1289063 0,-0.058594 -0.03516,-0.1054687 -0.09375,-0.140625 -0.02344,-0.011719 -0.05859,-0.011719 -0.08203,-0.011719 -0.05859,0 -0.128906,0.023437 -0.175781,0.082031 -0.410157,0.5742188 -0.667969,1.2070313 -0.820313,1.8398438 -0.105469,0.375 -0.152344,0.7617187 -0.152344,1.1132812 0,0.80859379 0.292969,1.41796879 1.042969,1.41796879 0.632813,0 1.148438,-0.43359375 1.523438,-1.0546875 0.117187,0.62109375 0.457031,1.0546875 1.125,1.0546875 1.042968,0 1.664062,-1.27734379 1.96875,-2.48437499 z m 3.899414,0.9492187 c 0,-0.09375 -0.08203,-0.09375 -0.117188,-0.09375 -0.09375,0 -0.105469,0.023437 -0.152344,0.140625 -0.433593,1.03125004 -0.960937,1.27734379 -1.300781,1.27734379 -0.199219,0 -0.304687,-0.12890625 -0.304687,-0.45703125 0,-0.24609375 0.02344,-0.31640625 0.05859,-0.48046874 l 0.738282,-2.9414063 h 0.9375 c 0.199218,0 0.304687,0 0.304687,-0.1992187 0,-0.1054688 -0.105469,-0.1054688 -0.28125,-0.1054688 h -0.878906 c 0.363281,-1.4179687 0.410156,-1.6171875 0.410156,-1.6757812 0,-0.1757813 -0.117187,-0.2695313 -0.292969,-0.2695313 -0.02344,0 -0.304687,0.011719 -0.398437,0.3515625 l -0.386719,1.59375 h -0.9375 c -0.199219,0 -0.292969,0 -0.292969,0.1875 0,0.1171875 0.07031,0.1171875 0.269532,0.1171875 h 0.878906 c -0.714844,2.8242188 -0.75,3.00000004 -0.75,3.17578129 0,0.5390625 0.375,0.9140625 0.914062,0.9140625 1.007813,0 1.582032,-1.45312499 1.582032,-1.53515629 z m 0,0"
           style="fill:#000000;fill-opacity:1;fill-rule:nonzero;stroke:none" /><path
           id="path295"
           d="m 24.602898,-2.4967578 c 0,-0.7734375 -0.117187,-1.9804688 -0.65625,-3.1054688 -0.597656,-1.21875 -1.464843,-1.875 -1.558593,-1.875 -0.05859,0 -0.105469,0.046875 -0.105469,0.1054688 0,0.035156 0,0.046875 0.199219,0.234375 0.972656,0.984375 1.535156,2.5664062 1.535156,4.640625 0,1.71093749 -0.363281,3.45703124 -1.59375,4.7226562 -0.140625,0.1171875 -0.140625,0.1289063 -0.140625,0.1640625 0,0.058594 0.04687,0.1054688 0.105469,0.1054688 0.09375,0 0.996093,-0.6796875 1.582031,-1.94531251 0.503906,-1.1015625 0.632812,-2.20312499 0.632812,-3.04687499 z m 0,0"
           style="fill:#000000;fill-opacity:1;fill-rule:nonzero;stroke:none" /></g><g
         id="g295"
         aria-label="F=1MHz"
         transform="matrix(1.3333333,0,0,1.3333333,458.12667,913.91733)"><path
           id="path296"
           d="M 7.2526562,-4.7807734 7.451875,-6.5034297 C 7.4753125,-6.7729609 7.4284375,-6.7729609 7.1823437,-6.7729609 H 2.295625 c -0.1992188,0 -0.2929688,0 -0.2929688,0.1992187 0,0.1054688 0.09375,0.1054688 0.28125,0.1054688 0.3632813,0 0.6445313,0 0.6445313,0.1875 0,0.035156 0,0.058594 -0.046875,0.234375 l -1.3242188,5.27343746 c -0.09375,0.38671875 -0.1171875,0.46875 -0.9023437,0.46875 -0.1640625,0 -0.28125,0 -0.28125,0.1875 0,0.1171875025 0.12890625,0.1171875025 0.15234375,0.1171875025 L 1.8385937,-0.03467969 3.326875,4.765625e-4 c 0.09375,0 0.2109375,0 0.2109375,-0.1875000025 0,-0.0820312 -0.058594,-0.1171875 -0.058594,-0.1171875 -0.035156,0 -0.058594,0 -0.28125,0 -0.2226562,0 -0.2695312,0 -0.515625,-0.0234375 -0.2929687,-0.0351563 -0.328125,-0.0703125 -0.328125,-0.19921875 0,0 0,-0.0820313 0.046875,-0.234375 L 3.0221875,-3.2338984 H 3.983125 c 0.75,0 0.8320312,0.1523437 0.8320312,0.4453125 0,0.070312 0,0.1875 -0.070312,0.4921875 -0.023437,0.046875 -0.035156,0.1054687 -0.035156,0.1054687 0,0.082031 0.058594,0.1171875 0.1171875,0.1171875 0.1054687,0 0.1054687,-0.023437 0.1523437,-0.2109375 L 5.53,-4.4409297 c 0.023437,-0.1054687 0.023437,-0.1289062 0.023437,-0.1640625 0,0 -0.011719,-0.1054687 -0.1171875,-0.1054687 -0.09375,0 -0.1054688,0.046875 -0.1523438,0.2109375 C 5.084687,-3.7260859 4.850312,-3.5503047 4.006562,-3.5503047 H 3.0925 l 0.6445312,-2.53125 c 0.082031,-0.3398437 0.09375,-0.3867187 0.5390625,-0.3867187 h 1.3125 c 1.21875,0 1.453125,0.328125 1.453125,1.1015625 0,0.2226562 0,0.2695312 -0.035156,0.5390625 -0.011719,0.1289062 -0.011719,0.140625 -0.011719,0.1757812 0,0.046875 0.023437,0.1171875 0.1171875,0.1171875 0.1054688,0 0.1171875,-0.058594 0.140625,-0.2460937 z m 0,0"
           style="fill:#000000;fill-opacity:1;fill-rule:nonzero;stroke:none" /><path
           id="path297"
           d="m 17.740937,-3.4565547 c 0,-0.1992187 -0.1875,-0.1992187 -0.328125,-0.1992187 h -5.964843 c -0.140625,0 -0.328125,0 -0.328125,0.1992187 0,0.1992188 0.1875,0.1992188 0.339843,0.1992188 h 5.941407 c 0.152343,0 0.339843,0 0.339843,-0.1992188 z m 0,1.9335938 c 0,-0.1992188 -0.1875,-0.1992188 -0.339843,-0.1992188 h -5.941407 c -0.152343,0 -0.339843,0 -0.339843,0.1992188 0,0.1992187 0.1875,0.1992187 0.328125,0.1992187 h 5.964843 c 0.140625,0 0.328125,0 0.328125,-0.1992187 z m 7.50879,1.5234374625 V -0.30421094 H 24.93332 c -0.902343,0 -0.925781,-0.1171875 -0.925781,-0.48046875 V -6.3745234 c 0,-0.234375 0,-0.2578125 -0.234375,-0.2578125 -0.609375,0.6328125 -1.488281,0.6328125 -1.804687,0.6328125 v 0.3164062 c 0.199218,0 0.785156,0 1.300781,-0.2578125 v 5.15625001 c 0,0.3515625 -0.03516,0.48046875 -0.925781,0.48046875 H 22.02707 V 4.765625e-4 C 22.378633,-0.03467969 23.234102,-0.03467969 23.632539,-0.03467969 c 0.398438,0 1.265625,0 1.617188,0.0351562525 z m 0,0"
           style="fill:#000000;fill-opacity:1;fill-rule:nonzero;stroke:none" /><path
           id="path298"
           d="M 38.128633,4.765625e-4 V -0.30421094 h -0.234375 c -0.773438,0 -0.785156,-0.1171875 -0.785156,-0.46875 V -6.0229609 c 0,-0.3632813 0.01172,-0.46875 0.785156,-0.46875 h 0.234375 v -0.3164063 h -1.675781 c -0.269532,0 -0.269532,0.011719 -0.339844,0.1992188 l -2.179688,5.6015625 -2.15625,-5.578125 c -0.09375,-0.2226563 -0.117187,-0.2226563 -0.351562,-0.2226563 h -1.6875 v 0.3164063 h 0.246094 c 0.761718,0 0.785156,0.1054687 0.785156,0.46875 v 4.9804687 c 0,0.26953126 0,0.73828126 -1.03125,0.73828126 V 4.765625e-4 L 30.909883,-0.03467969 32.070039,4.765625e-4 V -0.30421094 c -1.019531,0 -1.019531,-0.46875 -1.019531,-0.73828126 v -5.3671875 h 0.01172 l 2.402343,6.18750001 c 0.04687,0.12890625 0.09375,0.2226562525 0.199219,0.2226562525 0.105469,0 0.128906,-0.0820312525 0.175781,-0.1875000025 L 36.28879,-6.4917109 h 0.01172 v 5.71874996 c 0,0.3515625 -0.02344,0.46875 -0.785156,0.46875 H 35.269258 V 4.765625e-4 c 0.375,-0.0351562525 1.042969,-0.0351562525 1.441406,-0.0351562525 0.386719,0 1.054688,0 1.417969,0.0351562525 z m 7.517578,0 V -0.30421094 h -0.246094 c -0.761719,0 -0.785156,-0.1171875 -0.785156,-0.46875 V -6.0229609 c 0,-0.3632813 0.02344,-0.46875 0.785156,-0.46875 h 0.246094 v -0.3164063 c -0.351563,0.035156 -1.089844,0.035156 -1.464844,0.035156 -0.386719,0 -1.125,0 -1.476562,-0.035156 v 0.3164063 h 0.234375 c 0.773437,0 0.785156,0.1054687 0.785156,0.46875 v 2.3320312 h -2.976563 v -2.3320312 c 0,-0.3632813 0.02344,-0.46875 0.785157,-0.46875 h 0.246093 v -0.3164063 c -0.351562,0.035156 -1.089843,0.035156 -1.464843,0.035156 -0.375,0 -1.125,0 -1.476563,-0.035156 v 0.3164063 h 0.234375 c 0.773438,0 0.796875,0.1054687 0.796875,0.46875 v 5.24999996 c 0,0.3515625 -0.02344,0.46875 -0.796875,0.46875 H 38.837617 V 4.765625e-4 C 39.18918,-0.03467969 39.927461,-0.03467969 40.302461,-0.03467969 c 0.375,0 1.125,0 1.476562,0.0351562525 V -0.30421094 H 41.53293 c -0.761719,0 -0.785157,-0.1171875 -0.785157,-0.46875 V -3.3862422 h 2.976563 v 2.61328126 c 0,0.3515625 -0.01172,0.46875 -0.785156,0.46875 H 42.704805 V 4.765625e-4 C 43.056367,-0.03467969 43.794648,-0.03467969 44.169648,-0.03467969 c 0.375,0 1.125,0 1.476563,0.0351562525 z M 49.976289,-1.8628047 h -0.246094 c -0.09375,1.17187501 -0.304687,1.61718751 -1.453125,1.61718751 H 47.093477 L 49.87082,-3.9956172 c 0.08203,-0.1054687 0.08203,-0.1289062 0.08203,-0.1640625 0,-0.1289062 -0.08203,-0.1289062 -0.257813,-0.1289062 h -3.1875 l -0.105469,1.59375 h 0.246094 c 0.05859,-1.0078125 0.246094,-1.3828125 1.347656,-1.3828125 h 1.136719 l -2.789062,3.76171871 c -0.08203,0.10546875 -0.08203,0.12890625 -0.08203,0.17578125 0,0.1406250025 0.07031,0.1406250025 0.257813,0.1406250025 h 3.28125 z m 0,0"
           style="fill:#000000;fill-opacity:1;fill-rule:nonzero;stroke:none" /></g><g
         id="g298"
         aria-label="R&#10;p&#10;=110Ω"
         transform="matrix(1.3333333,0,0,1.3333333,457.79067,930.91467)"><path
           id="path299"
           d="m 6.4323906,-5.5082656 c 0,0.3398437 -0.1523437,1.0195312 -0.5507812,1.4179687 -0.2578125,0.2578125 -0.7851563,0.5742188 -1.6757813,0.5742188 H 3.0925469 l 0.6445312,-2.6015625 c 0.058594,-0.234375 0.082031,-0.3398438 0.28125,-0.3632813 0.082031,-0.011719 0.3984375,-0.011719 0.5976563,-0.011719 0.7148437,0 1.8164062,0 1.8164062,0.9843753 z m 1.0898438,4.58203122 c 0,-0.11718752 -0.1171875,-0.11718752 -0.1171875,-0.11718752 -0.09375,0 -0.1171875,0.0703125 -0.1289063,0.14062502 -0.2578125,0.73828125 -0.6796875,0.902343755 -0.9140625,0.902343755 -0.328125,0 -0.3984375,-0.222656255 -0.3984375,-0.609375005 0,-0.3046875 0.058594,-0.82031247 0.1054688,-1.13671877 0.011719,-0.140625 0.035156,-0.328125 0.035156,-0.46875 0,-0.7617187 -0.6679687,-1.078125 -0.9375,-1.171875 1.0078125,-0.2226562 2.1914063,-0.9140625 2.1914063,-1.921875 0,-0.8554687 -0.890625,-1.5 -2.203125,-1.5 H 2.3191094 c -0.1992188,0 -0.2929688,0 -0.2929688,0.1992188 0,0.1171875 0.09375,0.1171875 0.28125,0.1171875 0,0 0.2109375,0 0.3867188,0.011719 0.1757812,0.023437 0.2578125,0.035156 0.2578125,0.1640625 0,0.035156 0,0.070312 -0.035156,0.1875 l -1.3359375,5.35546877 c -0.09375,0.38671875 -0.1171875,0.46875 -0.90234372,0.46875 -0.17578125,0 -0.26953125,0 -0.26953125,0.19921875 0,0.105468755 0.140625,0.105468755 0.140625,0.105468755 L 1.8034844,-0.03560938 3.0691094,-4.53125e-4 c 0.082031,0 0.1992187,0 0.1992187,-0.199218755 0,-0.10546875 -0.09375,-0.10546875 -0.28125,-0.10546875 -0.3632812,0 -0.6445312,0 -0.6445312,-0.1875 0,-0.0585938 0.011719,-0.10546875 0.023437,-0.1640625 l 0.65625,-2.63671877 h 1.1953125 c 0.9023437,0 1.078125,0.5507813 1.078125,0.9023438 0,0.1523437 -0.082031,0.4570312 -0.140625,0.6914062 -0.070312,0.2695313 -0.1523438,0.6445313 -0.1523438,0.84375002 0,1.078125 1.1953125,1.078125 1.3242188,1.078125 0.84375,0 1.1953125,-1.0078125 1.195313,-1.1484375 z m 0,0"
           style="fill:#000000;fill-opacity:1;fill-rule:nonzero;stroke:none" /><path
           id="path300"
           d="m 11.445086,-0.41646875 c 0,-0.82031255 -0.5625,-1.16015625 -1.042969,-1.16015625 -0.4335936,0 -0.7968748,0.2929687 -0.9843748,0.4804687 -0.1171875,-0.3984375 -0.515625,-0.4804687 -0.7265625,-0.4804687 -0.2695313,0 -0.4335938,0.1757812 -0.5507813,0.3632812 -0.140625,0.23437505 -0.2460937,0.65625005 -0.2460937,0.70312505 0,0.0820313 0.09375,0.0820313 0.1171875,0.0820313 0.09375,0 0.1054687,-0.0117188 0.1523437,-0.19921875 0.1054688,-0.4101562 0.234375,-0.7617187 0.515625,-0.7617187 0.1757813,0 0.2226563,0.1523437 0.2226563,0.3398437 0,0.0820313 -0.011719,0.17578125 -0.023437,0.2109375 L 8.0935234,2.3491562 c -0.058594,0.1875 -0.070312,0.2460938 -0.3515625,0.2460938 -0.082031,0 -0.1875,0 -0.1875,0.1523437 0,0.070312 0.070312,0.09375 0.1054688,0.09375 0.1757812,0 0.4101562,-0.023437 0.5976562,-0.023437 0.234375,0 0.5039063,0.023437 0.7265625,0.023437 0.070312,0 0.140625,-0.011719 0.140625,-0.1523437 0,-0.09375 -0.09375,-0.09375 -0.1757812,-0.09375 -0.1523438,0 -0.3398438,0 -0.3398438,-0.082031 0,-0.035156 0.046875,-0.2226562 0.070312,-0.3164062 L 8.9372734,1.1538437 C 9.0193047,1.2944687 9.2419609,1.564 9.6638359,1.564 c 0.8437501,0 1.7812501,-0.9375 1.7812501,-1.98046875 z M 10.894305,-0.7094375 c 0,0.28125 -0.152344,0.99609375 -0.363282,1.40625 -0.175781,0.3398437 -0.515625,0.6679687 -0.8671871,0.6679687 -0.5039062,0 -0.6210937,-0.53906245 -0.6210937,-0.5976562 0,-0.0351563 0.011719,-0.0820313 0.011719,-0.10546875 l 0.3515625,-1.40625 C 9.8161797,-1.2836563 10.156023,-1.389125 10.37868,-1.389125 c 0.28125,0 0.515625,0.2109375 0.515625,0.6796875 z m 0,0"
           style="fill:#000000;fill-opacity:1;fill-rule:nonzero;stroke:none" /><path
           id="path301"
           d="m 22.120867,-3.4574844 c 0,-0.1992187 -0.1875,-0.1992187 -0.328125,-0.1992187 h -5.964844 c -0.140625,0 -0.328125,0 -0.328125,0.1992187 0,0.1992188 0.1875,0.1992188 0.339844,0.1992188 h 5.941406 c 0.152344,0 0.339844,0 0.339844,-0.1992188 z m 0,1.9335938 c 0,-0.1992188 -0.1875,-0.1992188 -0.339844,-0.1992188 h -5.941406 c -0.152344,0 -0.339844,0 -0.339844,0.1992188 0,0.1992187 0.1875,0.1992187 0.328125,0.1992187 h 5.964844 c 0.140625,0 0.328125,0 0.328125,-0.1992187 z m 7.50586,1.523437475 V -0.30514063 H 29.31032 c -0.902343,0 -0.925781,-0.1171875 -0.925781,-0.48046875 V -6.3754531 c 0,-0.234375 0,-0.2578125 -0.234375,-0.2578125 -0.609375,0.6328125 -1.488281,0.6328125 -1.804687,0.6328125 v 0.3164062 c 0.199218,0 0.785156,0 1.300781,-0.2578125 v 5.15625002 c 0,0.3515625 -0.03516,0.48046875 -0.925781,0.48046875 H 26.40407 v 0.304687505 c 0.351563,-0.035156255 1.207032,-0.035156255 1.605469,-0.035156255 0.398438,0 1.265625,0 1.617188,0.035156255 z m 4.983398,0 V -0.30514063 h -0.316406 c -0.902344,0 -0.925781,-0.1171875 -0.925781,-0.48046875 V -6.3754531 c 0,-0.234375 0,-0.2578125 -0.234375,-0.2578125 -0.609375,0.6328125 -1.488282,0.6328125 -1.804688,0.6328125 v 0.3164062 c 0.199219,0 0.785156,0 1.300781,-0.2578125 v 5.15625002 c 0,0.3515625 -0.03516,0.48046875 -0.925781,0.48046875 h -0.316406 v 0.304687505 c 0.351562,-0.035156255 1.207031,-0.035156255 1.605469,-0.035156255 0.398437,0 1.265625,0 1.617187,0.035156255 z M 40.00075,-3.1879531 c 0,-0.796875 -0.04687,-1.59375 -0.398437,-2.3320313 -0.457032,-0.9609375 -1.277344,-1.1132812 -1.6875,-1.1132812 -0.597657,0 -1.335938,0.2578125 -1.734375,1.1835937 -0.328125,0.6914063 -0.375,1.4648438 -0.375,2.2617188 0,0.75 0.04687,1.640625 0.445312,2.40234372 0.433594,0.80859375 1.160156,1.0078125 1.652344,1.0078125 0.539062,0 1.289062,-0.2109375 1.734375,-1.16015625 0.316406,-0.69140627 0.363281,-1.46484377 0.363281,-2.24999997 z m -0.832031,-0.1171875 c 0,0.75 0,1.4179687 -0.105469,2.0625 -0.152344,0.93749997 -0.714844,1.242187475 -1.160156,1.242187475 -0.386719,0 -0.984375,-0.246093755 -1.160156,-1.207031275 -0.105469,-0.5976562 -0.105469,-1.5117187 -0.105469,-2.0976562 0,-0.6445313 0,-1.3007813 0.08203,-1.8398438 0.1875,-1.1835937 0.925781,-1.265625 1.183594,-1.265625 0.328125,0 0.984375,0.1757813 1.171875,1.1601563 0.09375,0.5625 0.09375,1.3125 0.09375,1.9453125 z m 11.285156,1.6875 h -0.246094 c -0.04687,0.2578125 -0.08203,0.4921875 -0.175781,0.72656247 -0.04687,0.1640625 -0.08203,0.24609375 -0.65625,0.24609375 h -0.796875 c 0.128906,-0.56250002 0.433594,-1.04296872 0.878906,-1.69921872 0.46875,-0.703125 0.878907,-1.3945313 0.878907,-2.1796875 0,-1.3828125 -1.335938,-2.4960938 -3.023438,-2.4960938 -1.710937,0 -3.035156,1.1367188 -3.035156,2.4960938 0,0.7851562 0.398437,1.4765625 0.867187,2.1796875 0.445313,0.65625 0.761719,1.1367187 0.890625,1.69921872 h -0.796875 c -0.574218,0 -0.609375,-0.0820313 -0.65625,-0.234375 C 44.50075,-1.1020156 44.453875,-1.3598281 44.407,-1.6176406 h -0.257812 l 0.328125,1.617187475 h 1.59375 c 0.222656,0 0.257812,0 0.257812,-0.210937505 0,-0.69140625 -0.316406,-1.57031247 -0.539062,-2.21484377 -0.210938,-0.5742187 -0.492188,-1.359375 -0.492188,-2.109375 0,-1.59375 1.101563,-2.2734375 2.003906,-2.2734375 0.960938,0 2.015625,0.7265625 2.015625,2.2734375 0,0.75 -0.269531,1.5117188 -0.5625,2.3203125 -0.152343,0.421875 -0.46875,1.31250002 -0.46875,2.00390627 0,0.210937505 0.03516,0.210937505 0.257813,0.210937505 h 1.582031 z m 0,0"
           style="fill:#000000;fill-opacity:1;fill-rule:nonzero;stroke:none" /></g><g
         id="g301"
         aria-label="L&#10;p&#10;=7µH"
         transform="matrix(1.3333333,0,0,1.3333333,460.76933,949.812)"><path
           id="path302"
           d="m 6.4103047,-2.4605625 c 0,-0.035156 -0.035156,-0.1054688 -0.1289063,-0.1054688 -0.082031,0 -0.09375,0.046875 -0.1640625,0.2109375 -0.3398437,0.9140625 -0.7734375,2.0507813 -2.4960937,2.0507813 h -0.9375 c -0.140625,0 -0.1640625,0 -0.2226563,-0.0117188 C 2.3556172,-0.32775 2.3321797,-0.33946875 2.3321797,-0.4215 c 0,-0.0234375 0,-0.046875 0.046875,-0.22265625 L 3.7267109,-6.0230625 c 0.09375,-0.3632813 0.1171875,-0.46875 1.0546875,-0.46875 0.3046875,0 0.375,0 0.375,-0.1875 0,-0.1289063 -0.1054687,-0.1289063 -0.1523437,-0.1289063 l -1.4765625,0.035156 -1.3242188,-0.035156 c -0.070312,0 -0.1875,0 -0.1875,0.1992188 0,0.1171875 0.082031,0.1171875 0.28125,0.1171875 0,0 0.1992188,0 0.375,0.011719 0.1757813,0.023437 0.2695313,0.035156 0.2695313,0.1640625 0,0.035156 -0.011719,0.070312 -0.046875,0.1875 l -1.3359375,5.3554688 c -0.09375,0.38671875 -0.1171875,0.46875 -0.90234376,0.46875 -0.1640625,0 -0.26953125,0 -0.26953125,0.19921875 0,0.10546875 0.09375,0.10546875 0.26953125,0.10546875 H 5.2735859 c 0.234375,0 0.2460938,0 0.3046875,-0.1640625 l 0.7851563,-2.15625 c 0.046875,-0.1054688 0.046875,-0.140625 0.046875,-0.1406253 z m 0,0"
           style="fill:#000000;fill-opacity:1;fill-rule:nonzero;stroke:none" /><path
           id="path303"
           d="m 10.658352,-0.41564063 c 0,-0.82031247 -0.5625,-1.16015627 -1.0429692,-1.16015627 -0.4335937,0 -0.796875,0.2929688 -0.984375,0.4804688 -0.1171875,-0.3984375 -0.515625,-0.4804688 -0.7265625,-0.4804688 -0.2695312,0 -0.4335937,0.1757813 -0.5507812,0.3632813 -0.140625,0.23437497 -0.2460938,0.65624997 -0.2460938,0.70312497 0,0.0820312 0.09375,0.0820312 0.1171875,0.0820312 0.09375,0 0.1054688,-0.0117188 0.1523438,-0.19921875 0.1054687,-0.41015632 0.234375,-0.76171882 0.515625,-0.76171882 0.1757812,0 0.2226562,0.1523438 0.2226562,0.3398438 0,0.0820313 -0.011719,0.17578127 -0.023437,0.21093752 L 7.3067891,2.3499844 c -0.058594,0.1875 -0.070312,0.2460937 -0.3515625,0.2460937 -0.082031,0 -0.1875,0 -0.1875,0.1523438 0,0.070312 0.070312,0.09375 0.1054687,0.09375 0.1757813,0 0.4101563,-0.023437 0.5976563,-0.023437 0.234375,0 0.5039062,0.023437 0.7265625,0.023437 0.070312,0 0.140625,-0.011719 0.140625,-0.1523438 0,-0.09375 -0.09375,-0.09375 -0.1757813,-0.09375 -0.1523437,0 -0.3398437,0 -0.3398437,-0.082031 0,-0.035156 0.046875,-0.2226563 0.070312,-0.3164063 l 0.257813,-1.0429689 c 0.082031,0.140625 0.3046875,0.4101562 0.7265625,0.4101562 0.84375,0 1.7812504,-0.93749998 1.7812504,-1.98046873 z M 10.10757,-0.70860938 c 0,0.28125 -0.1523434,0.99609375 -0.3632809,1.40625 C 9.5685078,1.0374844 9.2286641,1.3656094 8.8771016,1.3656094 c -0.5039063,0 -0.6210938,-0.53906253 -0.6210938,-0.59765628 0,-0.0351563 0.011719,-0.0820313 0.011719,-0.10546875 l 0.3515625,-1.40625 c 0.4101562,-0.53906247 0.75,-0.64453127 0.9726562,-0.64453127 0.28125,0 0.5156245,0.2109375 0.5156245,0.67968752 z m 0,0"
           style="fill:#000000;fill-opacity:1;fill-rule:nonzero;stroke:none" /><path
           id="path304"
           d="m 21.334133,-3.4566563 c 0,-0.1992187 -0.1875,-0.1992187 -0.328125,-0.1992187 h -5.964844 c -0.140625,0 -0.328125,0 -0.328125,0.1992187 0,0.1992188 0.1875,0.1992188 0.339844,0.1992188 h 5.941406 c 0.152344,0 0.339844,0 0.339844,-0.1992188 z m 0,1.9335938 c 0,-0.1992188 -0.1875,-0.1992188 -0.339844,-0.1992188 h -5.941406 c -0.152344,0 -0.339844,0 -0.339844,0.1992188 0,0.1992187 0.1875,0.1992187 0.328125,0.1992187 h 5.964844 c 0.140625,0 0.328125,0 0.328125,-0.1992187 z m 8.165039,-4.8867188 h -2.414063 c -1.21875,0 -1.242187,-0.1289062 -1.277343,-0.328125 h -0.246094 l -0.328125,2.0507813 h 0.246094 c 0.02344,-0.1523438 0.117187,-0.7851563 0.246093,-0.9023438 0.07031,-0.058594 0.84375,-0.058594 0.972657,-0.058594 h 2.0625 L 27.647609,-4.07775 c -0.890625,1.3476562 -1.21875,2.7304687 -1.21875,3.75 0,0.09375 0,0.55078125 0.457032,0.55078125 0.457031,0 0.457031,-0.45703125 0.457031,-0.55078125 v -0.50390625 c 0,-0.55078125 0.02344,-1.10156255 0.105469,-1.64062505 0.04687,-0.2226562 0.175781,-1.078125 0.621093,-1.6992187 l 1.347657,-1.8984375 c 0.08203,-0.1171875 0.08203,-0.140625 0.08203,-0.3398438 z m 0,0"
           style="fill:#000000;fill-opacity:1;fill-rule:nonzero;stroke:none" /><path
           id="path305"
           d="m 38.666164,-1.4293125 c 0,-0.09375 -0.08203,-0.09375 -0.117187,-0.09375 -0.09375,0 -0.105469,0.035156 -0.140625,0.1757812 -0.164063,0.6445313 -0.351563,1.24218755 -0.75,1.24218755 -0.269532,0 -0.304688,-0.2578125 -0.304688,-0.45703125 0,-0.22265625 0.117188,-0.6914063 0.199219,-1.0429688 l 0.28125,-1.078125 c 0.02344,-0.140625 0.128906,-0.5273437 0.164062,-0.6679687 0.05859,-0.234375 0.152344,-0.609375 0.152344,-0.6679688 0,-0.1875 -0.140625,-0.2695312 -0.292969,-0.2695312 -0.04687,0 -0.304687,0 -0.386718,0.3398437 l -0.46875,1.8632813 -0.257813,1.0195312 c -0.01172,0.046875 -0.480469,0.96093755 -1.289062,0.96093755 -0.503907,0 -0.738282,-0.328125 -0.738282,-0.8671875 0,-0.29296875 0.07031,-0.57421875 0.140625,-0.85546875 l 0.410157,-1.6640625 c 0.05859,-0.2109375 0.152343,-0.5976563 0.152343,-0.6445313 0,-0.1640625 -0.117187,-0.2695312 -0.292968,-0.2695312 -0.02344,0 -0.304688,0.011719 -0.398438,0.3632812 l -1.429687,5.765625 c -0.02344,0.1171875 -0.02344,0.1640625 -0.02344,0.1640625 0,0.140625 0.105469,0.2695313 0.269531,0.2695313 0.210938,0 0.328125,-0.1875 0.351563,-0.2109375 0.03516,-0.09375 0.175781,-0.609375 0.550781,-2.14453125 0.316406,0.26953125 0.761719,0.3046875 0.960938,0.3046875 0.703125,0 1.089843,-0.4453125 1.324218,-0.7265625 0.09375,0.45703125 0.457032,0.7265625 0.902344,0.7265625 0.351563,0 0.574219,-0.22265625 0.738281,-0.5390625 C 38.537258,-0.7965 38.666164,-1.4293125 38.666164,-1.4293125 Z m 0,0"
           style="fill:#000000;fill-opacity:1;fill-rule:nonzero;stroke:none" /><path
           id="path306"
           d="m 46.1105,3.75e-4 v -0.3046875 h -0.246094 c -0.761718,0 -0.785156,-0.1171875 -0.785156,-0.46875 v -5.25 c 0,-0.3632813 0.02344,-0.46875 0.785156,-0.46875 H 46.1105 v -0.3164063 c -0.351562,0.035156 -1.089844,0.035156 -1.464844,0.035156 -0.386718,0 -1.125,0 -1.476562,-0.035156 v 0.3164063 h 0.234375 c 0.773437,0 0.785156,0.1054687 0.785156,0.46875 v 2.3320312 h -2.976562 v -2.3320312 c 0,-0.3632813 0.02344,-0.46875 0.785156,-0.46875 h 0.246094 v -0.3164063 c -0.351563,0.035156 -1.089844,0.035156 -1.464844,0.035156 -0.375,0 -1.125,0 -1.476563,-0.035156 v 0.3164063 h 0.234375 c 0.773438,0 0.796875,0.1054687 0.796875,0.46875 v 5.25 c 0,0.3515625 -0.02344,0.46875 -0.796875,0.46875 H 39.301906 V 3.75e-4 c 0.351563,-0.03515625 1.089844,-0.03515625 1.464844,-0.03515625 0.375,0 1.125,0 1.476563,0.03515625 v -0.3046875 h -0.246094 c -0.761719,0 -0.785156,-0.1171875 -0.785156,-0.46875 v -2.6132813 h 2.976562 v 2.6132813 c 0,0.3515625 -0.01172,0.46875 -0.785156,0.46875 H 43.169094 V 3.75e-4 c 0.351562,-0.03515625 1.089844,-0.03515625 1.464844,-0.03515625 0.375,0 1.125,0 1.476562,0.03515625 z m 0,0"
           style="fill:#000000;fill-opacity:1;fill-rule:nonzero;stroke:none" /></g></g></g></svg>
