<?xml version="1.0" encoding="UTF-8" standalone="no"?>
<!-- Created with Inkscape (http://www.inkscape.org/) -->

<svg
   width="138.39775mm"
   height="46.298828mm"
   viewBox="0 0 138.39775 46.298827"
   version="1.1"
   id="svg1"
   xml:space="preserve"
   xmlns="http://www.w3.org/2000/svg"
   xmlns:svg="http://www.w3.org/2000/svg"><defs
     id="defs1" /><g
     id="g1"
     transform="matrix(0.26458333,0,0,0.26458333,-21.621415,-113.7605)"><g
       id="g8"><path
         id="path117"
         d="m -42.5202,28.3468 v 30.61449 m 0,23.81143 v 30.61452"
         style="fill:none;stroke:#000000;stroke-width:0.3985;stroke-linecap:butt;stroke-linejoin:miter;stroke-miterlimit:10;stroke-dasharray:none;stroke-opacity:1"
         transform="matrix(1.3333333,0,0,-1.3333333,200.70933,642.47867)" /><path
         id="path118"
         d="m -54.42592,70.867 c 0,-6.5754 5.33031,-11.90571 11.90572,-11.90571 6.57542,0 11.90571,5.33031 11.90571,11.90571 0,6.57543 -5.33029,11.90572 -11.90571,11.90572 -6.57541,0 -11.90572,-5.33029 -11.90572,-11.90572 z"
         style="fill:none;stroke:#000000;stroke-width:0.797;stroke-linecap:butt;stroke-linejoin:miter;stroke-miterlimit:10;stroke-dasharray:none;stroke-opacity:1"
         transform="matrix(1.3333333,0,0,-1.3333333,200.70933,642.47867)" /><path
         id="path119"
         d="M -42.5202,58.96129 V 82.77272"
         style="fill:none;stroke:#000000;stroke-width:0.797;stroke-linecap:butt;stroke-linejoin:miter;stroke-miterlimit:10;stroke-dasharray:none;stroke-opacity:1"
         transform="matrix(1.3333333,0,0,-1.3333333,200.70933,642.47867)" /><path
         id="path120"
         d="m -42.5202,113.38724 h 32.88244 m 47.62232,0 H 70.867"
         style="fill:none;stroke:#000000;stroke-width:0.3985;stroke-linecap:butt;stroke-linejoin:miter;stroke-miterlimit:10;stroke-dasharray:none;stroke-opacity:1"
         transform="matrix(1.3333333,0,0,-1.3333333,200.70933,642.47867)" /><path
         id="path121"
         d="m -9.63776,119.34009 h 47.62231 v -11.9057 H -9.63776 Z"
         style="fill:none;stroke:#000000;stroke-width:0.797;stroke-linecap:butt;stroke-linejoin:miter;stroke-miterlimit:10;stroke-dasharray:none;stroke-opacity:1"
         transform="matrix(1.3333333,0,0,-1.3333333,200.70933,642.47867)" /><g
         id="g121"
         aria-label="λ/4|Z&#10;0"
         transform="matrix(1.3333333,0,0,1.3333333,195.304,478.27867)"><path
           id="path122"
           d="m 5.4614531,0.01072656 c 0,-0.03515625 -0.023437,-0.046875 -0.046875,-0.09375 -0.1054687,-0.10546875 -0.1640625,-0.2578125 -0.234375,-0.45703125 L 3.1528594,-6.2119297 c -0.2109375,-0.5742187 -0.75,-0.703125 -1.21875,-0.703125 -0.046875,0 -0.1757813,0 -0.1757813,0.1054688 0,0.082031 0.082031,0.1054687 0.082031,0.1054687 0.328125,0.058594 0.3984375,0.1171875 0.65625,0.796875 l 0.9609375,2.7070313 -2.75390627,2.73046871 c -0.1171875,0.1171875 -0.17578125,0.17578125 -0.17578125,0.3046875 0,0.17578125 0.140625,0.29296875 0.3046875,0.29296875 0.15234375,0 0.24609372,-0.10546875 0.32812502,-0.2109375 l 2.390625,-2.82421876 c 0.4101562,1.0429688 0.890625,2.56640626 1.0546875,2.80078126 0.1523437,0.2109375 0.2578125,0.2109375 0.5273437,0.2109375 h 0.2109375 c 0.1054688,0 0.1171875,-0.0703125 0.1171878,-0.09375 z M 10.228055,-7.2783359 c 0,-0.1054688 -0.08203,-0.1992188 -0.199219,-0.1992188 -0.070313,0 -0.1289063,0.035156 -0.1640626,0.09375 L 6.4077422,2.1083828 c -0.046875,0.1289063 -0.046875,0.1875 -0.046875,0.1875 0,0.1054688 0.082031,0.1992188 0.1992187,0.1992188 0.1289063,0 0.1523438,-0.070312 0.2109375,-0.2460938 L 10.18118,-7.0908359 c 0.04687,-0.1289063 0.04687,-0.1875 0.04687,-0.1875 z m 0,0"
           style="fill:#000000;fill-opacity:1;fill-rule:nonzero;stroke:none" /><path
           id="path123"
           d="m 15.480984,-1.6416172 v -0.3164062 h -0.996093 v -4.5234375 c 0,-0.1992188 0,-0.2578125 -0.152344,-0.2578125 -0.09375,0 -0.117188,0 -0.199219,0.1171875 l -3.058594,4.6640625 v 0.3164062 h 2.648438 v 0.86718751 c 0,0.3515625 -0.02344,0.46875 -0.761719,0.46875 h -0.210937 v 0.3046875025 c 0.410156,-0.0351562525 0.9375,-0.0351562525 1.347656,-0.0351562525 0.421875,0 0.949219,0 1.359375,0.0351562525 V -0.30567969 h -0.210938 c -0.738281,0 -0.761718,-0.1171875 -0.761718,-0.46875 V -1.6416172 Z m -1.699218,-0.3164062 h -2.425782 l 2.425782,-3.7148438 z m 0,0"
           style="fill:#000000;fill-opacity:1;fill-rule:nonzero;stroke:none" /><path
           id="path124"
           d="m 20.67825,2.1552578 v -9.2929687 c 0,-0.140625 0,-0.3398438 -0.199219,-0.3398438 -0.199218,0 -0.199218,0.1992188 -0.199218,0.3398438 v 9.2929687 c 0,0.140625 0,0.3398438 0.199218,0.3398438 0.199219,0 0.199219,-0.1992188 0.199219,-0.3398438 z m 0,0"
           style="fill:#000000;fill-opacity:1;fill-rule:nonzero;stroke:none" /><path
           id="path125"
           d="m 31.395047,-2.5556797 c 0,-0.046875 -0.03516,-0.1054687 -0.128906,-0.1054687 -0.08203,0 -0.09375,0.035156 -0.164063,0.2460937 -0.433594,1.359375 -0.914062,2.07421876 -2.613281,2.07421876 h -1.699219 l 5.566406,-6.22265626 c 0.01172,-0.046875 0.03516,-0.09375 0.03516,-0.1523437 0,-0.09375 -0.05859,-0.09375 -0.257813,-0.09375 h -4.195312 c -0.246094,0 -0.257813,0.011719 -0.316407,0.1992187 l -0.539062,1.7929688 c -0.02344,0.058594 -0.03516,0.140625 -0.03516,0.140625 0,0 0,0.1171875 0.117187,0.1171875 0.09375,0 0.117188,-0.070312 0.128906,-0.1054688 0.386719,-1.171875 0.902344,-1.828125 2.449219,-1.828125 h 1.628906 l -5.566406,6.22265626 c 0,0 -0.04687,0.15234375 -0.04687,0.17578125 0,0.0937500025 0.07031,0.0937500025 0.257813,0.0937500025 h 4.324218 c 0.246094,0 0.257813,-0.0117187525 0.316407,-0.1992187525 l 0.703125,-2.20312496 c 0.01172,-0.035156 0.03516,-0.1054688 0.03516,-0.1523438 z m 0,0"
           style="fill:#000000;fill-opacity:1;fill-rule:nonzero;stroke:none" /><path
           id="path126"
           d="m 35.58157,-0.73341406 c 0,-0.76171874 -0.09375,-1.31250004 -0.410156,-1.80468754 -0.222656,-0.3164062 -0.644531,-0.5976562 -1.207031,-0.5976562 -1.617188,0 -1.617188,1.8984375 -1.617188,2.40234374 0,0.50390625 0,2.36718746 1.617188,2.36718746 1.617187,0 1.617187,-1.86328121 1.617187,-2.36718746 z m -0.632812,-0.09375 c 0,0.515625 0,1.04296875 -0.09375,1.4765625 -0.140625,0.63281246 -0.609375,0.78515626 -0.890625,0.78515626 -0.316406,0 -0.75,-0.1875 -0.890625,-0.76171876 -0.09375,-0.41015625 -0.09375,-0.984375 -0.09375,-1.5 0,-0.50390624 0,-1.03125004 0.105469,-1.41796874 0.152343,-0.5507813 0.597656,-0.6914063 0.878906,-0.6914063 0.375,0 0.738281,0.2226563 0.867187,0.6328125 0.105469,0.375 0.117188,0.8789063 0.117188,1.47656254 z m 0,0"
           style="fill:#000000;fill-opacity:1;fill-rule:nonzero;stroke:none" /></g><path
         id="path127"
         d="m 70.867,28.3468 -1e-5,35.57515 m 0,13.89011 1e-5,35.57518"
         style="fill:none;stroke:#000000;stroke-width:0.3985;stroke-linecap:butt;stroke-linejoin:miter;stroke-miterlimit:10;stroke-dasharray:none;stroke-opacity:1"
         transform="matrix(1.3333333,0,0,-1.3333333,200.70933,642.47867)" /><path
         id="path128"
         d="M 70.86699,63.92195 64.91414,77.11752"
         style="fill:none;stroke:#000000;stroke-width:0.797;stroke-linecap:butt;stroke-linejoin:miter;stroke-miterlimit:10;stroke-dasharray:none;stroke-opacity:1"
         transform="matrix(1.3333333,0,0,-1.3333333,200.70933,642.47867)" /><path
         id="path129"
         d="m 113.38724,28.3468 v 38.55173 m 0,7.93695 v 38.55176"
         style="fill:none;stroke:#000000;stroke-width:0.3985;stroke-linecap:butt;stroke-linejoin:miter;stroke-miterlimit:10;stroke-dasharray:none;stroke-opacity:1"
         transform="matrix(1.3333333,0,0,-1.3333333,200.70933,642.47867)" /><path
         id="path130"
         d="m 101.4815,66.89853 h 23.81145 m -23.81145,7.93695 h 23.81145"
         style="fill:none;stroke:#000000;stroke-width:0.797;stroke-linecap:butt;stroke-linejoin:miter;stroke-miterlimit:10;stroke-dasharray:none;stroke-opacity:1"
         transform="matrix(1.3333333,0,0,-1.3333333,200.70933,642.47867)" /><g
         id="g130"
         aria-label="2nF"
         transform="matrix(1.3333333,0,0,1.3333333,371.496,550.85067)"><path
           id="path131"
           d="M 4.4766328,-1.7337031 H 4.2188203 c -0.046875,0.3046875 -0.1171875,0.73828122 -0.2109375,0.89062497 -0.070312,0.0820313 -0.7265625,0.0820313 -0.9492187,0.0820313 H 1.2656953 L 2.3203828,-1.7922969 c 1.5585938,-1.3710937 2.15625,-1.9101562 2.15625,-2.90625 0,-1.1367187 -0.9023437,-1.9335937 -2.1210937,-1.9335937 -1.125,0 -1.85156254,0.9140625 -1.85156254,1.8046875 0,0.5507812 0.4921875,0.5507812 0.52734374,0.5507812 0.1640625,0 0.515625,-0.1171875 0.515625,-0.5273437 0,-0.2578125 -0.1875,-0.515625 -0.5273437,-0.515625 -0.0820313,0 -0.10546879,0 -0.12890629,0.011719 0.22265629,-0.6445312 0.76171879,-1.0195312 1.33593749,-1.0195312 0.9140625,0 1.3359375,0.8085937 1.3359375,1.6289062 0,0.796875 -0.4921875,1.5820313 -1.0429687,2.203125 L 0.60944531,-0.36260938 C 0.50397656,-0.25714063 0.50397656,-0.23370313 0.50397656,6.71875e-4 H 4.1953828 Z m 0,0"
           style="fill:#000000;fill-opacity:1;fill-rule:nonzero;stroke:none" /><path
           id="path132"
           d="M 13.634836,6.71875e-4 V -0.30401563 c -0.515625,0 -0.773438,0 -0.785156,-0.3046875 V -2.5071406 c 0,-0.8554688 0,-1.171875 -0.304688,-1.5234375 -0.140625,-0.1757813 -0.46875,-0.375 -1.042969,-0.375 -0.726562,0 -1.195312,0.4335937 -1.476562,1.0546875 v -1.0546875 l -1.4062501,0.1171875 v 0.3046875 c 0.703125,0 0.7851563,0.070312 0.7851563,0.5625 v 2.66015622 c 0,0.45703125 -0.1171875,0.45703125 -0.7851563,0.45703125 V 6.71875e-4 l 1.125,-0.035156255 1.1132811,0.035156255 V -0.30401563 c -0.65625,0 -0.773437,0 -0.773437,-0.45703125 V -2.5891719 c 0,-1.03125 0.714843,-1.59375 1.347656,-1.59375 0.621094,0 0.738281,0.5390625 0.738281,1.1015625 v 2.32031252 c 0,0.45703125 -0.117187,0.45703125 -0.773437,0.45703125 V 6.71875e-4 l 1.125,-0.035156255 z m 6.28418,-4.535156275 -0.28125,-2.2382812 h -5.472657 v 0.3046875 h 0.234375 c 0.773438,0 0.796875,0.1171875 0.796875,0.46875 v 5.22656247 c 0,0.3515625 -0.02344,0.46875 -0.796875,0.46875 H 14.165109 V 6.71875e-4 c 0.351563,-0.035156255 1.125,-0.035156255 1.511719,-0.035156255 0.410156,0 1.3125,0 1.675781,0.035156255 V -0.30401563 h -0.328125 c -0.949218,0 -0.949218,-0.12890625 -0.949218,-0.48046875 V -3.2337031 h 0.855468 c 0.960938,0 1.054688,0.3164062 1.054688,1.1601562 h 0.257812 v -2.6367187 h -0.257812 c 0,0.8320312 -0.09375,1.1601562 -1.054688,1.1601562 h -0.855468 v -2.5195312 c 0,-0.328125 0.02344,-0.3984375 0.492187,-0.3984375 h 1.195313 c 1.488281,0 1.746093,0.5625 1.898437,1.9335937 z m 0,0"
           style="fill:#000000;fill-opacity:1;fill-rule:nonzero;stroke:none" /></g><path
         id="path133"
         d="m 70.867,113.38724 h 70.86704 16.44109 m 23.81143,0 h 16.4411 3.11822 m 7.93695,0 h 3.11823 70.86704"
         style="fill:none;stroke:#000000;stroke-width:0.3985;stroke-linecap:butt;stroke-linejoin:miter;stroke-miterlimit:10;stroke-dasharray:none;stroke-opacity:1"
         transform="matrix(1.3333333,0,0,-1.3333333,200.70933,642.47867)" /><path
         id="path134"
         d="m 157.77661,113.22784 c 0,3.28769 1.63475,5.95286 3.65135,5.95286 2.0166,0 3.65136,-2.66517 3.65136,-5.95286 0,-1.64376 -0.66626,-2.97627 -1.48815,-2.97627 -0.82188,0 -1.48813,1.33251 -1.48813,2.97627 0,3.28769 1.63474,5.95286 3.65134,5.95286 2.0166,0 3.65135,-2.66517 3.65135,-5.95286 0,-1.64376 -0.66626,-2.97627 -1.48814,-2.97627 -0.82187,0 -1.48813,1.33251 -1.48813,2.97627 0,3.28769 1.63475,5.95286 3.65135,5.95286 2.0166,0 3.65134,-2.66517 3.65134,-5.95286 0,-1.64376 -0.66625,-2.97627 -1.48813,-2.97627 -0.82189,0 -1.48815,1.33251 -1.48815,2.97627 0,3.28769 1.63476,5.95286 3.65136,5.95286 2.0166,0 3.65135,-2.66517 3.65135,-5.95286 0,-1.64376 -0.66626,-2.97627 -1.48815,-2.97627 -0.82186,0 -1.48813,1.33251 -1.48813,2.97627 0,3.28769 1.63474,5.95286 3.65136,5.95286 2.0166,0 3.65134,-2.66517 3.65134,-5.95286"
         style="fill:none;stroke:#000000;stroke-width:0.797;stroke-linecap:butt;stroke-linejoin:bevel;stroke-miterlimit:10;stroke-dasharray:none;stroke-opacity:1"
         transform="matrix(1.3333333,0,0,-1.3333333,200.70933,642.47867)" /><g
         id="g134"
         aria-label="L&#10;1"
         transform="matrix(1.3333333,0,0,1.3333333,419.98133,478.27733)"><path
           id="path135"
           d="m 6.4095078,-2.4609297 c 0,-0.035156 -0.035156,-0.1054687 -0.1289062,-0.1054687 -0.082031,0 -0.09375,0.046875 -0.1640625,0.2109375 -0.3398438,0.9140625 -0.7734375,2.05078121 -2.4960938,2.05078121 h -0.9375 c -0.140625,0 -0.1640625,0 -0.2226562,-0.0117188 -0.1054688,-0.0117188 -0.1289063,-0.0234375 -0.1289063,-0.10546875 0,-0.0234375 0,-0.046875 0.046875,-0.22265625 L 3.7259141,-6.0234297 c 0.09375,-0.3632812 0.1171875,-0.46875 1.0546875,-0.46875 0.3046875,0 0.375,0 0.375,-0.1875 0,-0.1289062 -0.1054688,-0.1289062 -0.1523438,-0.1289062 l -1.4765625,0.035156 -1.3242187,-0.035156 c -0.070312,0 -0.1875,0 -0.1875,0.1992187 0,0.1171875 0.082031,0.1171875 0.28125,0.1171875 0,0 0.1992187,0 0.375,0.011719 0.1757812,0.023437 0.2695312,0.035156 0.2695312,0.1640625 0,0.035156 -0.011719,0.070312 -0.046875,0.1875 l -1.3359375,5.35546871 c -0.09375,0.38671875 -0.1171875,0.46875 -0.90234374,0.46875 -0.1640625,0 -0.26953125,0 -0.26953125,0.19921875 0,0.1054687524999 0.09375,0.1054687524999 0.26953125,0.1054687524999 H 5.2727891 c 0.234375,0 0.2460937,0 0.3046875,-0.1640625024999 L 6.3626328,-2.3203047 c 0.046875,-0.1054687 0.046875,-0.140625 0.046875,-0.140625 z m 0,0"
           style="fill:#000000;fill-opacity:1;fill-rule:nonzero;stroke:none" /><path
           id="path136"
           d="M 10.071617,1.4941484 V 1.2480547 H 9.8138047 c -0.703125,0 -0.703125,-0.09375 -0.703125,-0.32812501 V -2.9355391 c 0,-0.1875 -0.011719,-0.1992187 -0.2109375,-0.1992187 -0.4453125,0.4335937 -1.078125,0.4453125 -1.359375,0.4453125 v 0.2460937 c 0.1640625,0 0.6210937,0 1.0078125,-0.1875 v 3.55078129 c 0,0.23437501 0,0.32812501 -0.6914063,0.32812501 H 7.5872422 v 0.2460937 l 1.2421875,-0.023437 z m 0,0"
           style="fill:#000000;fill-opacity:1;fill-rule:nonzero;stroke:none" /></g><path
         id="path137"
         d="M 201.54588,125.29295 V 101.4815 m 7.93695,23.81145 V 101.4815"
         style="fill:none;stroke:#000000;stroke-width:0.797;stroke-linecap:butt;stroke-linejoin:miter;stroke-miterlimit:10;stroke-dasharray:none;stroke-opacity:1"
         transform="matrix(1.3333333,0,0,-1.3333333,200.70933,642.47867)" /><g
         id="g137"
         aria-label="C&#10;1"
         transform="matrix(1.3333333,0,0,1.3333333,466.99867,469.54667)"><path
           id="path138"
           d="m 6.4463125,-2.3904687 c 0,-0.1054688 -0.1171875,-0.1054688 -0.1171875,-0.1054688 -0.058594,0 -0.1171875,0.023437 -0.1289062,0.1054688 -0.09375,0.2929687 -0.3164063,0.9960937 -1.0078125,1.57031245 -0.6914063,0.5625 -1.3125,0.7265625 -1.8398438,0.7265625 -0.890625,0 -1.9453125,-0.515625 -1.9453125,-2.06249995 0,-0.5742188 0.2109375,-2.1914063 1.2070313,-3.3515625 0.609375,-0.703125 1.5351562,-1.2070313 2.4257812,-1.2070313 1.0195313,0 1.6054688,0.7734375 1.6054688,1.921875 0,0.3984375 -0.035156,0.4101563 -0.035156,0.5039063 0,0.1054687 0.1171875,0.1054687 0.1523438,0.1054687 0.1289062,0 0.1289062,-0.023437 0.1757812,-0.1992187 L 7.5713125,-6.925625 c 0,-0.023437 -0.023437,-0.09375 -0.1054687,-0.09375 -0.035156,0 -0.046875,0.011719 -0.1523438,0.1171875 L 6.610375,-6.1404687 C 6.5283438,-6.2810937 6.0713125,-7.019375 4.9580313,-7.019375 c -2.2148438,0 -4.45312505,2.203125 -4.45312505,4.5117188 0,1.64062495 1.17187505,2.7304687 2.69531255,2.7304687 0.8671875,0 1.6171875,-0.3984375 2.1445312,-0.85546875 0.9375,-0.82031245 1.1015625,-1.72265625 1.1015625,-1.75781245 z m 0,0"
           style="fill:#000000;fill-opacity:1;fill-rule:nonzero;stroke:none" /><path
           id="path139"
           d="M 10.413109,1.4942969 V 1.2482031 h -0.257812 c -0.7031251,0 -0.7031251,-0.09375 -0.7031251,-0.32812497 V -2.9353906 c 0,-0.1875 -0.011719,-0.1992188 -0.2109375,-0.1992188 -0.4453125,0.4335938 -1.078125,0.4453125 -1.359375,0.4453125 v 0.2460938 c 0.1640625,0 0.6210937,0 1.0078125,-0.1875 v 3.55078123 c 0,0.23437497 0,0.32812497 -0.6914063,0.32812497 H 7.9287344 v 0.2460938 l 1.2421875,-0.023437 z m 0,0"
           style="fill:#000000;fill-opacity:1;fill-rule:nonzero;stroke:none" /></g><path
         id="path140"
         d="m 240.94788,113.38724 -2e-5,-30.61452 m 0,-23.81143 2e-5,-30.61449"
         style="fill:none;stroke:#000000;stroke-width:0.3985;stroke-linecap:butt;stroke-linejoin:miter;stroke-miterlimit:10;stroke-dasharray:none;stroke-opacity:1"
         transform="matrix(1.3333333,0,0,-1.3333333,200.70933,642.47867)" /><path
         id="path141"
         d="m 240.78847,83.17123 c 3.28769,0 5.95285,-1.63475 5.95285,-3.65135 0,-2.0166 -2.66516,-3.65135 -5.95285,-3.65135 -1.64377,0 -2.97629,0.66626 -2.97629,1.48814 0,0.82189 1.33252,1.48813 2.97629,1.48813 3.28769,0 5.95285,-1.63473 5.95285,-3.65133 0,-2.01661 -2.66516,-3.65136 -5.95285,-3.65136 -1.64377,0 -2.97629,0.66626 -2.97629,1.48815 0,0.82187 1.33252,1.48813 2.97629,1.48813 3.28769,0 5.95285,-1.63475 5.95285,-3.65136 0,-2.0166 -2.66516,-3.65133 -5.95285,-3.65133 -1.64377,0 -2.97629,0.66624 -2.97629,1.48813 0,0.82188 1.33252,1.48814 2.97629,1.48814 3.28769,0 5.95285,-1.63475 5.95285,-3.65135 0,-2.0166 -2.66516,-3.65135 -5.95285,-3.65135 -1.64377,0 -2.97629,0.66626 -2.97629,1.48814 0,0.82187 1.33252,1.48813 2.97629,1.48813 3.28769,0 5.95285,-1.63474 5.95285,-3.65134 0,-2.01661 -2.66516,-3.65135 -5.95285,-3.65135"
         style="fill:none;stroke:#000000;stroke-width:0.797;stroke-linecap:butt;stroke-linejoin:bevel;stroke-miterlimit:10;stroke-dasharray:none;stroke-opacity:1"
         transform="matrix(1.3333333,0,0,-1.3333333,200.70933,642.47867)" /><g
         id="g141"
         aria-label="L&#10;p"
         transform="matrix(1.3333333,0,0,1.3333333,532.844,550.85067)"><path
           id="path142"
           d="m 6.4099688,-2.4602656 c 0,-0.035156 -0.035156,-0.1054688 -0.1289063,-0.1054688 -0.082031,0 -0.09375,0.046875 -0.1640625,0.2109375 -0.3398437,0.9140625 -0.7734375,2.05078127 -2.4960937,2.05078127 h -0.9375 c -0.140625,0 -0.1640625,0 -0.2226563,-0.0117188 -0.1054687,-0.0117188 -0.1289062,-0.0234375 -0.1289062,-0.10546875 0,-0.0234375 0,-0.046875 0.046875,-0.22265625 L 3.726375,-6.0227656 c 0.09375,-0.3632813 0.1171875,-0.46875 1.0546875,-0.46875 0.3046875,0 0.375,0 0.375,-0.1875 0,-0.1289063 -0.1054687,-0.1289063 -0.1523437,-0.1289063 l -1.4765625,0.035156 -1.3242188,-0.035156 c -0.070312,0 -0.1875,0 -0.1875,0.1992188 0,0.1171875 0.082031,0.1171875 0.28125,0.1171875 0,0 0.1992188,0 0.375,0.011719 0.1757813,0.023437 0.2695313,0.035156 0.2695313,0.1640625 0,0.035156 -0.011719,0.070312 -0.046875,0.1875 l -1.3359375,5.35546877 c -0.09375,0.38671875 -0.1171875,0.46875 -0.9023438,0.46875 -0.1640625,0 -0.26953125,0 -0.26953125,0.19921875 0,0.105468755 0.09375,0.105468755 0.26953125,0.105468755 H 5.27325 c 0.234375,0 0.2460938,0 0.3046875,-0.164062505 L 6.3630938,-2.3196406 c 0.046875,-0.1054688 0.046875,-0.140625 0.046875,-0.140625 z m 0,0"
           style="fill:#000000;fill-opacity:1;fill-rule:nonzero;stroke:none" /><path
           id="path143"
           d="m 10.658016,-0.41534375 c 0,-0.82031255 -0.5625,-1.16015625 -1.0429691,-1.16015625 -0.4335938,0 -0.796875,0.2929687 -0.984375,0.4804687 C 8.5134844,-1.4934688 8.1150469,-1.5755 7.9041094,-1.5755 c -0.2695313,0 -0.4335938,0.1757812 -0.5507813,0.3632812 -0.140625,0.23437505 -0.2460937,0.65625005 -0.2460937,0.70312505 0,0.0820313 0.09375,0.0820313 0.1171875,0.0820313 0.09375,0 0.1054687,-0.0117188 0.1523437,-0.19921875 C 7.4822344,-1.0364375 7.6111406,-1.388 7.8923906,-1.388 c 0.1757813,0 0.2226563,0.1523437 0.2226563,0.3398437 0,0.0820313 -0.011719,0.1757813 -0.023437,0.21093755 L 7.3064531,2.3502812 c -0.058594,0.1875 -0.070312,0.2460938 -0.3515625,0.2460938 -0.082031,0 -0.1875,0 -0.1875,0.1523437 0,0.070312 0.070312,0.09375 0.1054688,0.09375 0.1757812,0 0.4101562,-0.023437 0.5976562,-0.023437 0.234375,0 0.5039063,0.023437 0.7265625,0.023437 0.070312,0 0.140625,-0.011719 0.140625,-0.1523437 0,-0.09375 -0.09375,-0.09375 -0.1757812,-0.09375 -0.1523438,0 -0.3398438,0 -0.3398438,-0.082031 0,-0.035156 0.046875,-0.2226562 0.070312,-0.3164062 l 0.257813,-1.0429691 c 0.082031,0.140625 0.3046875,0.4101563 0.7265625,0.4101563 0.84375,0 1.7812504,-0.9375 1.7812504,-1.98046875 z M 10.107234,-0.7083125 c 0,0.28125 -0.1523434,0.99609375 -0.3632809,1.40625 -0.1757812,0.3398437 -0.515625,0.6679687 -0.8671875,0.6679687 -0.5039062,0 -0.6210937,-0.53906245 -0.6210937,-0.5976562 0,-0.0351563 0.011719,-0.0820313 0.011719,-0.10546875 l 0.3515625,-1.40625 C 9.0291094,-1.2825313 9.3689531,-1.388 9.5916094,-1.388 c 0.28125,0 0.5156246,0.2109375 0.5156246,0.6796875 z m 0,0"
           style="fill:#000000;fill-opacity:1;fill-rule:nonzero;stroke:none" /></g><path
         id="path144"
         d="m 283.4681,28.3468 v 26.64601 m 0,31.7484 v 26.64603"
         style="fill:none;stroke:#000000;stroke-width:0.3985;stroke-linecap:butt;stroke-linejoin:miter;stroke-miterlimit:10;stroke-dasharray:none;stroke-opacity:1"
         transform="matrix(1.3333333,0,0,-1.3333333,200.70933,642.47867)" /><path
         id="path145"
         d="m 283.4681,54.59431 -5.95286,3.07741 11.9057,5.35782 -11.9057,5.35782 11.9057,5.3578 -11.9057,5.35782 11.9057,5.35782 -5.95284,2.67891"
         style="fill:none;stroke:#000000;stroke-width:0.797;stroke-linecap:butt;stroke-linejoin:bevel;stroke-miterlimit:10;stroke-dasharray:none;stroke-opacity:1"
         transform="matrix(1.3333333,0,0,-1.3333333,200.70933,642.47867)" /><g
         id="g145"
         aria-label="R&#10;p"
         transform="matrix(1.3333333,0,0,1.3333333,589.53733,550.85067)"><path
           id="path146"
           d="m 6.4348906,-5.5071406 c 0,0.3398437 -0.1523437,1.0195312 -0.5507812,1.4179687 -0.2578125,0.2578125 -0.7851563,0.5742188 -1.6757813,0.5742188 H 3.0950469 l 0.6445312,-2.6015625 c 0.058594,-0.234375 0.082031,-0.3398438 0.28125,-0.3632813 0.082031,-0.011719 0.3984375,-0.011719 0.5976563,-0.011719 0.7148437,0 1.8164062,0 1.8164062,0.9843753 z m 1.0898438,4.58203122 c 0,-0.11718752 -0.1171875,-0.11718752 -0.1171875,-0.11718752 -0.09375,0 -0.1171875,0.0703125 -0.1289063,0.14062502 -0.2578125,0.73828125 -0.6796875,0.902343755 -0.9140625,0.902343755 -0.328125,0 -0.3984375,-0.222656255 -0.3984375,-0.609375005 0,-0.3046875 0.058594,-0.82031247 0.1054688,-1.13671877 0.011719,-0.140625 0.035156,-0.328125 0.035156,-0.46875 0,-0.7617187 -0.6679687,-1.078125 -0.9375,-1.171875 1.0078125,-0.2226562 2.1914063,-0.9140625 2.1914063,-1.921875 0,-0.8554687 -0.890625,-1.5 -2.203125,-1.5 H 2.3216094 c -0.1992188,0 -0.2929688,0 -0.2929688,0.1992188 0,0.1171875 0.09375,0.1171875 0.28125,0.1171875 0,0 0.2109375,0 0.3867188,0.011719 0.1757812,0.023437 0.2578125,0.035156 0.2578125,0.1640625 0,0.035156 0,0.070312 -0.035156,0.1875 l -1.3359375,5.35546877 c -0.09375,0.38671875 -0.1171875,0.46875 -0.90234373,0.46875 -0.17578125,0 -0.26953125,0 -0.26953125,0.19921875 0,0.105468755 0.140625,0.105468755 0.140625,0.105468755 L 1.8059844,-0.03448438 3.0716094,6.71875e-4 c 0.082031,0 0.1992187,0 0.1992187,-0.199218755 0,-0.10546875 -0.09375,-0.10546875 -0.28125,-0.10546875 -0.3632812,0 -0.6445312,0 -0.6445312,-0.1875 0,-0.0585938 0.011719,-0.10546875 0.023437,-0.1640625 l 0.65625,-2.63671877 h 1.1953125 c 0.9023437,0 1.078125,0.5507813 1.078125,0.9023438 0,0.1523437 -0.082031,0.4570312 -0.140625,0.6914062 -0.070312,0.2695313 -0.1523438,0.6445313 -0.1523438,0.84375002 0,1.078125 1.1953125,1.078125 1.3242188,1.078125 0.84375,0 1.1953125,-1.0078125 1.195313,-1.1484375 z m 0,0"
           style="fill:#000000;fill-opacity:1;fill-rule:nonzero;stroke:none" /><path
           id="path147"
           d="m 11.444656,-0.41534375 c 0,-0.82031255 -0.5625,-1.16015625 -1.042969,-1.16015625 -0.4335933,0 -0.7968745,0.2929687 -0.9843745,0.4804687 C 9.300125,-1.4934688 8.9016875,-1.5755 8.69075,-1.5755 c -0.2695313,0 -0.4335938,0.1757812 -0.5507813,0.3632812 -0.140625,0.23437505 -0.2460937,0.65625005 -0.2460937,0.70312505 0,0.0820313 0.09375,0.0820313 0.1171875,0.0820313 0.09375,0 0.1054687,-0.0117188 0.1523437,-0.19921875 C 8.268875,-1.0364375 8.3977812,-1.388 8.6790312,-1.388 c 0.1757813,0 0.2226563,0.1523437 0.2226563,0.3398437 0,0.0820313 -0.011719,0.1757813 -0.023437,0.21093755 L 8.0930937,2.3502812 C 8.0345,2.5377812 8.0227812,2.596375 7.7415312,2.596375 c -0.082031,0 -0.1875,0 -0.1875,0.1523437 0,0.070312 0.070312,0.09375 0.1054688,0.09375 0.1757812,0 0.4101562,-0.023437 0.5976562,-0.023437 0.234375,0 0.5039063,0.023437 0.7265625,0.023437 0.070312,0 0.140625,-0.011719 0.140625,-0.1523437 0,-0.09375 -0.09375,-0.09375 -0.1757812,-0.09375 -0.1523438,0 -0.3398438,0 -0.3398438,-0.082031 0,-0.035156 0.046875,-0.2226562 0.070312,-0.3164062 l 0.257813,-1.0429691 c 0.082031,0.140625 0.3046875,0.4101563 0.7265625,0.4101563 0.8437498,0 1.7812498,-0.9375 1.7812498,-1.98046875 z M 10.893875,-0.7083125 c 0,0.28125 -0.152344,0.99609375 -0.363281,1.40625 -0.175782,0.3398437 -0.515625,0.6679687 -0.8671878,0.6679687 -0.5039062,0 -0.6210937,-0.53906245 -0.6210937,-0.5976562 0,-0.0351563 0.011719,-0.0820313 0.011719,-0.10546875 l 0.3515625,-1.40625 C 9.81575,-1.2825313 10.155594,-1.388 10.37825,-1.388 c 0.28125,0 0.515625,0.2109375 0.515625,0.6796875 z m 0,0"
           style="fill:#000000;fill-opacity:1;fill-rule:nonzero;stroke:none" /></g><path
         id="path148"
         d="M -62.36288,42.5202 V 98.8153"
         style="fill:none;stroke:#000000;stroke-width:0.3985;stroke-linecap:butt;stroke-linejoin:miter;stroke-miterlimit:10;stroke-dasharray:none;stroke-opacity:1"
         transform="matrix(1.3333333,0,0,-1.3333333,200.70933,642.47867)" /><path
         id="path149"
         d="M -2.07224,2.39104 C -1.69365,0.95639 -0.84999,0.27895 0,0 -0.84999,-0.27895 -1.69365,-0.95639 -2.07224,-2.39104"
         style="fill:none;stroke:#000000;stroke-width:0.3985;stroke-linecap:round;stroke-linejoin:round;stroke-miterlimit:10;stroke-dasharray:none;stroke-opacity:1"
         transform="matrix(0,-1.3333333,-1.3333333,0,117.55883,510.45924)" /><g
         id="g149"
         aria-label="50V"
         transform="matrix(1.3333333,0,0,1.3333333,81.045333,552.56667)"><path
           id="path150"
           d="m 4.4777188,-2.0041016 c 0,-1.1835937 -0.8203125,-2.1796875 -1.8984375,-2.1796875 -0.4804688,0 -0.9023438,0.1640625 -1.265625,0.5039063 v -1.9335938 c 0.1992187,0.058594 0.5273437,0.1289063 0.84375,0.1289063 1.2304687,0 1.9335937,-0.9140625 1.9335937,-1.0429688 0,-0.058594 -0.035156,-0.1054687 -0.1054687,-0.1054687 0,0 -0.035156,0 -0.082031,0.023437 -0.1992187,0.09375 -0.6796875,0.2929687 -1.3476562,0.2929687 -0.3984375,0 -0.8554688,-0.070312 -1.3242188,-0.28125 -0.082031,-0.023437 -0.1289062,-0.023437 -0.1289062,-0.023437 -0.09375,0 -0.09375,0.082031 -0.09375,0.234375 v 2.953125 c 0,0.1757813 0,0.2578125 0.140625,0.2578125 0.070312,0 0.082031,-0.035156 0.1289062,-0.09375 0.1054688,-0.1523437 0.4804688,-0.6914062 1.2773438,-0.6914062 0.5273437,0 0.7734375,0.4570312 0.8554687,0.6328125 0.1523438,0.375 0.1757813,0.7617187 0.1757813,1.2539062 0,0.3515625 0,0.9492188 -0.234375,1.37109379 -0.2460938,0.38671875 -0.609375,0.64453125 -1.0664063,0.64453125 -0.7265625,0 -1.30078125,-0.52734375 -1.46484375,-1.11328124 0.0234375,0.011719 0.0585938,0.011719 0.1640625,0.011719 0.32812505,0 0.50390625,-0.2460937 0.50390625,-0.4804687 0,-0.2460938 -0.1757812,-0.4921875 -0.50390625,-0.4921875 -0.140625,0 -0.48046875,0.070312 -0.48046875,0.5273437 0,0.85546879 0.6796875,1.82812504 1.7929688,1.82812504 1.1601562,0 2.1796875,-0.9609375 2.1796872,-2.22656284 z m 5.0859375,-1.1835937 c 0,-0.796875 -0.046875,-1.59375 -0.3984375,-2.3320313 -0.4570313,-0.9609375 -1.2773438,-1.1132812 -1.6875,-1.1132812 -0.5976563,0 -1.3359375,0.2578125 -1.734375,1.1835937 -0.328125,0.6914063 -0.375,1.4648438 -0.375,2.2617188 0,0.75 0.046875,1.640625 0.4453125,2.40234374 0.4335937,0.80859375 1.1601562,1.0078125 1.6523437,1.0078125 0.5390625,0 1.2890625,-0.2109375 1.734375,-1.16015625 C 9.5167813,-1.6291016 9.5636563,-2.4025391 9.5636563,-3.1876953 Z M 8.731625,-3.3048828 c 0,0.75 0,1.4179687 -0.1054687,2.0625 C 8.4738125,-0.30488281 7.9113125,-1.953125e-4 7.466,-1.953125e-4 7.0792813,-1.953125e-4 6.481625,-0.24628906 6.3058438,-1.2072266 6.200375,-1.8048828 6.200375,-2.7189453 6.200375,-3.3048828 c 0,-0.6445313 0,-1.3007813 0.082031,-1.8398438 0.1875,-1.1835937 0.9257812,-1.265625 1.1835937,-1.265625 0.328125,0 0.984375,0.1757813 1.171875,1.1601563 0.09375,0.5625 0.09375,1.3125 0.09375,1.9453125 z m 0,0"
           style="fill:#000000;fill-opacity:1;fill-rule:nonzero;stroke:none" /><path
           id="path151"
           d="m 20.561703,-6.4923828 v -0.3164063 c -0.316406,0.023437 -0.714844,0.035156 -0.972656,0.035156 l -1.136719,-0.035156 v 0.3164063 c 0.515625,0.011719 0.726563,0.2695312 0.726563,0.4921875 0,0.082031 -0.02344,0.140625 -0.04687,0.1992187 l -1.828125,4.80468754 -1.898438,-5.02734374 c -0.05859,-0.140625 -0.05859,-0.1875 -0.05859,-0.1875 0,-0.28125 0.5625,-0.28125 0.820313,-0.28125 v -0.3164063 c -0.363281,0.035156 -1.054688,0.035156 -1.429688,0.035156 l -1.265625,-0.035156 v 0.3164063 c 0.644532,0 0.84375,0 0.972657,0.375 l 2.320312,6.1171874875 c 0.07031,0.1875000025 0.117188,0.2226562525 0.246094,0.2226562525 0.164062,0 0.1875,-0.0585938 0.234375,-0.1875 l 2.226562,-5.85937504 c 0.140625,-0.375 0.410157,-0.65625 1.089844,-0.6679687 z m 0,0"
           style="fill:#000000;fill-opacity:1;fill-rule:nonzero;stroke:none" /></g><path
         id="path152"
         d="M 53.85875,42.5202 V 98.8153"
         style="fill:none;stroke:#000000;stroke-width:0.3985;stroke-linecap:butt;stroke-linejoin:miter;stroke-miterlimit:10;stroke-dasharray:none;stroke-opacity:1"
         transform="matrix(1.3333333,0,0,-1.3333333,200.70933,642.47867)" /><path
         id="path153"
         d="M -2.07224,2.39104 C -1.69365,0.95639 -0.84999,0.27895 0,0 -0.84999,-0.27895 -1.69365,-0.95639 -2.07224,-2.39104"
         style="fill:none;stroke:#000000;stroke-width:0.3985;stroke-linecap:round;stroke-linejoin:round;stroke-miterlimit:10;stroke-dasharray:none;stroke-opacity:1"
         transform="matrix(0,-1.3333333,-1.3333333,0,272.521,510.45924)" /><g
         id="g153"
         aria-label="v&#10;s&#10;(ωt)"
         transform="matrix(1.3333333,0,0,1.3333333,231.848,551.312)"><path
           id="path154"
           d="m 4.6638047,-3.70275 c 0,-0.5390625 -0.2578125,-0.703125 -0.4453125,-0.703125 -0.2460938,0 -0.4804688,0.2578125 -0.4804688,0.4804687 0,0.1289063 0.046875,0.1875 0.1523438,0.3046875 0.2109375,0.1992188 0.3398437,0.4570313 0.3398437,0.8085938 0,0.421875 -0.609375,2.70703125 -1.7695312,2.70703125 -0.5039063,0 -0.7382813,-0.3515625 -0.7382813,-0.8671875 0,-0.56250005 0.2695313,-1.28906255 0.5742188,-2.12109375 0.070312,-0.1640625 0.1289062,-0.3046875 0.1289062,-0.4921875 0,-0.4453125 -0.328125,-0.8203125 -0.8203125,-0.8203125 -0.93749996,0 -1.31249996,1.453125 -1.31249996,1.5351562 0,0.1054688 0.1171875,0.1054688 0.1171875,0.1054688 0.09375,0 0.10546875,-0.023437 0.15234375,-0.1875 0.29296875,-0.9960938 0.72656251,-1.2304688 1.00781251,-1.2304688 0.082031,0 0.2578125,0 0.2578125,0.3164063 0,0.2460937 -0.1054688,0.515625 -0.1757813,0.703125 -0.4335937,1.1484375 -0.5625,1.6054687 -0.5625,2.0390625 0,1.078125 0.8671875,1.23046875 1.3359375,1.23046875 1.6640625,0 2.2382813,-3.29296875 2.2382813,-3.80859375 z m 0,0"
           style="fill:#000000;fill-opacity:1;fill-rule:nonzero;stroke:none" /><path
           id="path155"
           d="m 7.9684922,0.41639062 c 0,-0.64453125 -0.703125,-0.7734375 -0.9609375,-0.8203125 -0.070312,-0.0117188 -0.2460938,-0.0351563 -0.28125,-0.0585938 -0.2578125,-0.046875 -0.3867188,-0.1875 -0.3867188,-0.33984375 0,-0.1640625 0.1289063,-0.35156247 0.28125,-0.44531247 0.1875,-0.1289062 0.4335938,-0.140625 0.5507813,-0.140625 0.140625,0 0.5039062,0.023437 0.65625,0.2578125 -0.1757813,0.046875 -0.2929688,0.18749997 -0.2929688,0.32812497 0,0.1640625 0.140625,0.22265625 0.234375,0.22265625 0.070312,0 0.3398438,-0.0351563 0.3398438,-0.3984375 0,-0.44531242 -0.5039063,-0.59765622 -0.9257813,-0.59765622 -1.0898437,0 -1.2890625,0.79687497 -1.2890625,1.00781247 0,0.2578125 0.1523438,0.43359375 0.2460938,0.515625 0.1757812,0.140625 0.3046875,0.1640625 0.7851562,0.24609375 0.1523438,0.0351563 0.5976563,0.1171875 0.5976563,0.46875 0,0.1171875 -0.082031,0.37500008 -0.375,0.55078118 -0.2695313,0.1523438 -0.609375,0.1523438 -0.6914063,0.1523438 -0.28125,0 -0.6796875,-0.058594 -0.84375,-0.2929688 0.234375,-0.023437 0.3867188,-0.19921868 0.3867188,-0.39843743 0,-0.1640625 -0.1289063,-0.2578125 -0.2695313,-0.2578125 -0.1992187,0 -0.4101562,0.1640625 -0.4101562,0.46875 0,0.42187493 0.4453125,0.67968743 1.125,0.67968743 1.2890625,0 1.5234375,-0.87890618 1.5234375,-1.14843738 z m 0,0"
           style="fill:#000000;fill-opacity:1;fill-rule:nonzero;stroke:none" /><path
           id="path156"
           d="m 12.380602,2.391 c 0,-0.035156 0,-0.046875 -0.164063,-0.2226563 -1.242187,-1.2539062 -1.570312,-3.1289062 -1.570312,-4.6640625 0,-1.7226562 0.386718,-3.4570312 1.605468,-4.7109375 0.128907,-0.1171875 0.128907,-0.1289062 0.128907,-0.1640625 0,-0.070312 -0.03516,-0.1054687 -0.09375,-0.1054687 -0.105469,0 -0.996094,0.6796875 -1.582032,1.9453125 -0.515625,1.1015625 -0.632812,2.203125 -0.632812,3.0351562 0,0.7851563 0.117187,1.99218755 0.65625,3.11718755 0.597656,1.21874995 1.453125,1.87499995 1.558594,1.87499995 0.05859,0 0.09375,-0.035156 0.09375,-0.1054687 z m 0,0"
           style="fill:#000000;fill-opacity:1;fill-rule:nonzero;stroke:none" /><path
           id="path157"
           d="m 18.749742,-2.3785313 c 0.105469,-0.4335937 0.222656,-0.9257812 0.222656,-1.3242187 0,-0.2578125 -0.04687,-0.4804688 -0.199218,-0.609375 -0.05859,-0.058594 -0.128907,-0.09375 -0.222657,-0.09375 -0.117187,0 -0.246093,0.058594 -0.351562,0.1640625 -0.09375,0.09375 -0.140625,0.2109375 -0.140625,0.3164062 0,0.1054688 0.04687,0.1757813 0.117187,0.2460938 0.246094,0.2226562 0.375,0.5273437 0.375,0.8789062 0,0.1171875 -0.01172,0.2460938 -0.04687,0.375 -0.222656,0.9023438 -0.796875,1.8164063 -1.59375,1.8164063 -0.550781,0 -0.878906,-0.375 -0.972656,-0.890625 0.128906,-0.28125 0.234375,-0.5859375 0.304688,-0.8789063 0.01172,-0.09375 0.03516,-0.1757812 0.03516,-0.2578125 0,-0.1523437 -0.04687,-0.2578125 -0.1875,-0.2578125 -0.1875,0 -0.292969,0.2460938 -0.339844,0.46875 -0.08203,0.3046875 -0.117187,0.5976563 -0.128906,0.890625 C 15.292711,-0.99571875 14.812242,-0.609 14.261461,-0.609 c -0.597656,0 -0.867188,-0.4921875 -0.867188,-1.125 0,-0.1992188 0.03516,-0.421875 0.08203,-0.6445313 0.152343,-0.5976562 0.515625,-1.1601562 0.890625,-1.6875 0.02344,-0.035156 0.04687,-0.082031 0.04687,-0.1289062 0,-0.058594 -0.03516,-0.1054688 -0.09375,-0.140625 -0.02344,-0.011719 -0.05859,-0.011719 -0.08203,-0.011719 -0.05859,0 -0.128906,0.023437 -0.175781,0.082031 -0.410156,0.5742187 -0.667969,1.2070312 -0.820312,1.8398437 -0.105469,0.375 -0.152344,0.7617188 -0.152344,1.1132813 0,0.80859375 0.292969,1.41796875 1.042969,1.41796875 0.632812,0 1.148437,-0.43359375 1.523437,-1.0546875 0.117188,0.62109375 0.457031,1.0546875 1.125,1.0546875 1.042969,0 1.664063,-1.27734375 1.96875,-2.48437505 z m 3.902344,0.9492188 c 0,-0.09375 -0.08203,-0.09375 -0.117188,-0.09375 -0.09375,0 -0.105468,0.023437 -0.152343,0.140625 -0.433594,1.03125 -0.960938,1.27734375 -1.300782,1.27734375 -0.199218,0 -0.304687,-0.12890625 -0.304687,-0.45703125 0,-0.24609375 0.02344,-0.31640625 0.05859,-0.4804688 L 21.573961,-3.984 h 0.9375 c 0.199219,0 0.304687,0 0.304687,-0.1992188 0,-0.1054687 -0.105468,-0.1054687 -0.28125,-0.1054687 h -0.878906 c 0.363281,-1.4179688 0.410156,-1.6171875 0.410156,-1.6757813 0,-0.1757812 -0.117187,-0.2695312 -0.292968,-0.2695312 -0.02344,0 -0.304688,0.011719 -0.398438,0.3515625 l -0.386719,1.59375 h -0.9375 c -0.199218,0 -0.292968,0 -0.292968,0.1875 0,0.1171875 0.07031,0.1171875 0.269531,0.1171875 h 0.878906 c -0.714844,2.8242187 -0.75,3 -0.75,3.17578125 0,0.5390625 0.375,0.9140625 0.914063,0.9140625 1.007812,0 1.582031,-1.45312505 1.582031,-1.53515625 z m 0,0"
           style="fill:#000000;fill-opacity:1;fill-rule:nonzero;stroke:none" /><path
           id="path158"
           d="m 26.000719,-2.4957188 c 0,-0.7734375 -0.117188,-1.9804687 -0.65625,-3.1054687 -0.597656,-1.21875 -1.464844,-1.875 -1.558594,-1.875 -0.05859,0 -0.105469,0.046875 -0.105469,0.1054687 0,0.035156 0,0.046875 0.199219,0.234375 0.972656,0.984375 1.535156,2.5664063 1.535156,4.640625 0,1.71093755 -0.363281,3.4570313 -1.59375,4.7226563 C 23.680406,2.344125 23.680406,2.3558437 23.680406,2.391 c 0,0.058594 0.04687,0.1054687 0.105469,0.1054687 0.09375,0 0.996094,-0.6796875 1.582031,-1.94531245 0.503907,-1.1015625 0.632813,-2.20312505 0.632813,-3.04687505 z m 0,0"
           style="fill:#000000;fill-opacity:1;fill-rule:nonzero;stroke:none" /></g><path
         id="path159"
         d="m 155.90744,141.73404 c 0.4483,0.89666 1.49442,1.49441 2.98883,1.49441 h 22.36914 c 1.49442,0 2.54053,0.59777 2.98883,1.49442 0.44832,-0.89665 1.49442,-1.49442 2.98883,-1.49442 h 22.36916 c 1.49441,0 2.54053,-0.59775 2.98883,-1.49441"
         style="fill:none;stroke:#000000;stroke-width:0.3985;stroke-linecap:butt;stroke-linejoin:miter;stroke-miterlimit:10;stroke-dasharray:none;stroke-opacity:1"
         transform="matrix(1.3333333,0,0,-1.3333333,200.70933,642.47867)" /><g
         id="g159"
         aria-label="Tunedtoω"
         transform="matrix(1.3333333,0,0,1.3333333,413.40933,439.18)"><path
           id="path160"
           d="m 6.8209297,-4.5002344 -0.1875,-2.2382812 H 0.55139844 l -0.1875,2.2382812 h 0.24609375 c 0.140625,-1.6054687 0.29296875,-1.9335937 1.79296871,-1.9335937 0.1757813,0 0.4335938,0 0.5390625,0.023437 0.2109375,0.035156 0.2109375,0.140625 0.2109375,0.375 v 5.24999997 c 0,0.33984375 0,0.48046875 -1.0546875,0.48046875 H 1.6998359 V -2.34375e-4 C 2.1099922,-0.03539063 3.1295234,-0.03539063 3.5865547,-0.03539063 c 0.4570312,0 1.4882812,0 1.8984375,0.035156255 V -0.30492188 H 5.0865547 c -1.0546875,0 -1.0546875,-0.140625 -1.0546875,-0.48046875 V -6.0353906 c 0,-0.1992188 0,-0.3398438 0.1875,-0.375 0.1054687,-0.023437 0.375,-0.023437 0.5625,-0.023437 1.5,0 1.6523437,0.328125 1.7929687,1.9335937 z M 11.698859,-2.34375e-4 V -0.30492188 c -0.703125,0 -0.785156,-0.0703125 -0.785156,-0.5625 V -4.4064844 l -1.4531249,0.1171875 v 0.3046875 c 0.6914059,0 0.7734379,0.070312 0.7734379,0.5625 v 1.7695313 c 0,0.86718747 -0.4804691,1.54687497 -1.2070316,1.54687497 -0.8320313,0 -0.8789063,-0.46875 -0.8789063,-0.99609377 v -3.3046875 l -1.4648437,0.1171875 v 0.3046875 c 0.7851562,0 0.7851562,0.035156 0.7851562,0.9140625 v 1.5 c 0,0.77343752 0,1.67578127 1.5117188,1.67578127 0.5507812,0 0.9960937,-0.26953125 1.2773436,-0.890625 v 0.890625 z m 5.53711,0 V -0.30492188 c -0.515625,0 -0.773438,0 -0.785156,-0.3046875 V -2.5080469 c 0,-0.8554687 0,-1.171875 -0.304688,-1.5234375 -0.140625,-0.1757812 -0.46875,-0.375 -1.042969,-0.375 -0.726562,0 -1.195312,0.4335938 -1.476562,1.0546875 v -1.0546875 l -1.40625,0.1171875 v 0.3046875 c 0.703125,0 0.785156,0.070312 0.785156,0.5625 v 2.66015627 c 0,0.45703125 -0.117187,0.45703125 -0.785156,0.45703125 v 0.304687505 l 1.125,-0.035156255 1.113281,0.035156255 V -0.30492188 c -0.65625,0 -0.773437,0 -0.773437,-0.45703125 V -2.5900781 c 0,-1.03125 0.714843,-1.59375 1.347656,-1.59375 0.621094,0 0.738281,0.5390625 0.738281,1.1015625 v 2.32031247 c 0,0.45703125 -0.117187,0.45703125 -0.773437,0.45703125 v 0.304687505 l 1.125,-0.035156255 z M 21.574836,-1.1838281 c 0,-0.1054688 -0.08203,-0.1171875 -0.128906,-0.1171875 -0.09375,0 -0.117188,0.058594 -0.128907,0.140625 -0.351562,1.01953122 -1.253906,1.01953122 -1.347656,1.01953122 -0.503906,0 -0.902344,-0.29296875 -1.125,-0.66796875 C 18.53968,-1.2892969 18.53968,-1.9455469 18.53968,-2.2971094 h 2.789062 c 0.210938,0 0.246094,0 0.246094,-0.2109375 0,-0.984375 -0.539063,-1.9570312 -1.78125,-1.9570312 -1.160156,0 -2.074219,1.03125 -2.074219,2.2734375 0,1.33593747 1.042969,2.29687497 2.191406,2.29687497 1.21875,0 1.664063,-1.1015625 1.664063,-1.28906247 z m -0.65625,-1.3242188 h -2.367188 c 0.05859,-1.4882812 0.902344,-1.734375 1.242188,-1.734375 1.019531,0 1.125,1.3476563 1.125,1.734375 z m 6.199219,2.507812525 V -0.30492188 c -0.703125,0 -0.773438,-0.0703125 -0.773438,-0.5625 V -6.9142969 l -1.441406,0.1054688 v 0.3164062 c 0.703125,0 0.785156,0.070312 0.785156,0.5507813 v 2.15625 c -0.292969,-0.3632813 -0.726562,-0.6210938 -1.265625,-0.6210938 -1.171875,0 -2.214844,0.984375 -2.214844,2.2617188 0,1.26562497 0.972657,2.24999997 2.109375,2.24999997 0.644532,0 1.089844,-0.33984375 1.335938,-0.65625 v 0.65625 z M 25.652961,-1.1721094 c 0,0.17578127 0,0.19921877 -0.105469,0.36328127 -0.304687,0.48046875 -0.75,0.703125 -1.183594,0.703125 -0.445312,0 -0.796875,-0.2578125 -1.042968,-0.64453125 -0.257813,-0.41015622 -0.292969,-0.97265622 -0.292969,-1.38281252 0,-0.3632812 0.02344,-0.9609375 0.316406,-1.4179687 0.210938,-0.3046875 0.585938,-0.6328125 1.125,-0.6328125 0.351563,0 0.761719,0.1523437 1.078125,0.5976562 0.105469,0.1640625 0.105469,0.1875 0.105469,0.3632813 z m 8.370117,-0.058594 v -0.5742188 h -0.246094 v 0.5507813 c 0,0.73828122 -0.304687,1.11328122 -0.667968,1.11328122 -0.667969,0 -0.667969,-0.90234372 -0.667969,-1.07812502 v -2.765625 h 1.429687 v -0.3046875 h -1.429687 v -1.8398437 h -0.246094 c -0.01172,0.8203125 -0.316406,1.8867187 -1.289062,1.921875 v 0.2226562 h 0.84375 v 2.7539063 c 0,1.21874997 0.925781,1.33593747 1.289062,1.33593747 0.703125,0 0.984375,-0.703125 0.984375,-1.33593747 z m 5.258789,-0.9023438 c 0,-1.2773437 -0.996094,-2.3320312 -2.191406,-2.3320312 -1.253906,0 -2.214844,1.0898437 -2.214844,2.3320312 0,1.28906252 1.03125,2.23828127 2.203125,2.23828127 1.207031,0 2.203125,-0.97265625 2.203125,-2.23828127 z m -0.820312,-0.082031 c 0,0.3632812 0,0.9023437 -0.222657,1.33593747 -0.222656,0.4453125 -0.65625,0.73828125 -1.148437,0.73828125 -0.433594,0 -0.867188,-0.2109375 -1.136719,-0.66796875 C 35.69593,-1.2424219 35.69593,-1.8517969 35.69593,-2.2150781 c 0,-0.3867188 0,-0.9257813 0.246093,-1.359375 0.269532,-0.4570313 0.738282,-0.6679688 1.136719,-0.6679688 0.433594,0 0.867188,0.2226563 1.125,0.6445313 0.257813,0.4335937 0.257813,1.0078125 0.257813,1.3828124 z m 0,0"
           style="fill:#000000;fill-opacity:1;fill-rule:nonzero;stroke:none" /><path
           id="path161"
           d="m 48.683234,-2.3791406 c 0.105469,-0.4335938 0.222657,-0.9257813 0.222657,-1.3242188 0,-0.2578125 -0.04687,-0.4804687 -0.199219,-0.609375 -0.05859,-0.058594 -0.128906,-0.09375 -0.222656,-0.09375 -0.117188,0 -0.246094,0.058594 -0.351563,0.1640625 -0.09375,0.09375 -0.140625,0.2109375 -0.140625,0.3164063 0,0.1054687 0.04687,0.1757812 0.117188,0.2460937 0.246093,0.2226563 0.375,0.5273438 0.375,0.8789063 0,0.1171875 -0.01172,0.2460937 -0.04687,0.375 -0.222657,0.9023437 -0.796875,1.81640622 -1.59375,1.81640622 -0.550782,0 -0.878907,-0.375 -0.972657,-0.89062502 0.128907,-0.28125 0.234375,-0.5859375 0.304688,-0.8789062 0.01172,-0.09375 0.03516,-0.1757813 0.03516,-0.2578125 0,-0.1523438 -0.04687,-0.2578125 -0.1875,-0.2578125 -0.1875,0 -0.292969,0.2460937 -0.339844,0.46875 -0.08203,0.3046875 -0.117187,0.5976562 -0.128906,0.890625 -0.328125,0.53906247 -0.808594,0.92578122 -1.359375,0.92578122 -0.597656,0 -0.867187,-0.49218752 -0.867187,-1.12500002 0,-0.1992187 0.03516,-0.421875 0.08203,-0.6445312 0.152344,-0.5976563 0.515625,-1.1601563 0.890625,-1.6875 0.02344,-0.035156 0.04687,-0.082031 0.04687,-0.1289063 0,-0.058594 -0.03516,-0.1054687 -0.09375,-0.140625 -0.02344,-0.011719 -0.05859,-0.011719 -0.08203,-0.011719 -0.05859,0 -0.128907,0.023437 -0.175782,0.082031 -0.410156,0.5742188 -0.667968,1.2070313 -0.820312,1.8398438 -0.105469,0.375 -0.152344,0.7617187 -0.152344,1.1132812 0,0.80859377 0.292969,1.41796877 1.042969,1.41796877 0.632812,0 1.148437,-0.43359375 1.523437,-1.0546875 0.117188,0.62109375 0.457032,1.0546875 1.125,1.0546875 1.042969,0 1.664063,-1.27734377 1.96875,-2.48437497 z m 0,0"
           style="fill:#000000;fill-opacity:1;fill-rule:nonzero;stroke:none" /></g><path
         id="path162"
         d="M -42.5202,28.3468 H 283.4681"
         style="fill:none;stroke:#000000;stroke-width:0.3985;stroke-linecap:butt;stroke-linejoin:miter;stroke-miterlimit:10;stroke-dasharray:none;stroke-opacity:1"
         transform="matrix(1.3333333,0,0,-1.3333333,200.70933,642.47867)" /><path
         id="path163"
         d="M 70.867,96.37897 V 93.94305"
         style="fill:none;stroke:#000000;stroke-width:0.3985;stroke-linecap:butt;stroke-linejoin:miter;stroke-miterlimit:10;stroke-dasharray:none;stroke-opacity:1"
         transform="matrix(1.3333333,0,0,-1.3333333,200.70933,642.47867)" /><path
         id="path164"
         d="M -2.07224,2.39104 C -1.69365,0.95639 -0.84999,0.27895 0,0 -0.84999,-0.27895 -1.69365,-0.95639 -2.07224,-2.39104"
         style="fill:none;stroke:#000000;stroke-width:0.3985;stroke-linecap:round;stroke-linejoin:round;stroke-miterlimit:10;stroke-dasharray:none;stroke-opacity:1"
         transform="matrix(0,1.3333333,1.3333333,0,295.19867,517.48693)" /><g
         id="g164"
         aria-label="i&#10;s&#10;(ωt)"
         transform="matrix(1.3333333,0,0,1.3333333,304.59067,521.076)"><path
           id="path165"
           d="m 2.8236016,-6.2239922 c 0,-0.1992187 -0.1289063,-0.3632812 -0.3632813,-0.3632812 -0.2695312,0 -0.5390625,0.2578125 -0.5390625,0.5273437 0,0.1875 0.140625,0.3632813 0.375,0.3632813 0.234375,0 0.5273438,-0.234375 0.5273438,-0.5273438 z m 0.09375,4.7929688 c 0,-0.09375 -0.09375,-0.09375 -0.1171875,-0.09375 -0.1054688,0 -0.1054688,0.023437 -0.1523438,0.1757812 -0.1757812,0.63281251 -0.5039062,1.24218751 -1.0195312,1.24218751 -0.1640625,0 -0.234375,-0.10546875 -0.234375,-0.328125 0,-0.2578125 0.058594,-0.3984375 0.2929687,-0.99609371 l 0.3867188,-1.0546875 c 0.1171875,-0.28125 0.1171875,-0.3046875 0.2226562,-0.5742188 0.070312,-0.1992187 0.1289063,-0.3398437 0.1289063,-0.5273437 0,-0.4453125 -0.328125,-0.8203125 -0.8203125,-0.8203125 -0.93750004,0 -1.31250004,1.453125 -1.31250004,1.5351562 0,0.1054688 0.1171875,0.1054688 0.1171875,0.1054688 0.09375,0 0.10546875,-0.023437 0.15234375,-0.1875 0.26953125,-0.9375 0.66796879,-1.2304688 1.00781249,-1.2304688 0.082031,0 0.2578125,0 0.2578125,0.3164063 0,0.2109375 -0.070312,0.421875 -0.1171875,0.515625 -0.082031,0.2578125 -0.5273437,1.4179687 -0.6796875,1.8515625 -0.10546874,0.2578125 -0.23437499,0.58593746 -0.23437499,0.79687496 0,0.46875 0.33984379,0.80859375 0.82031249,0.80859375 0.9375,0 1.3007813,-1.44140621 1.3007813,-1.53515621 z m 0,0"
           style="fill:#000000;fill-opacity:1;fill-rule:nonzero;stroke:none" /><path
           id="path166"
           d="m 6.5736016,0.41467969 c 0,-0.64453125 -0.703125,-0.7734375 -0.9609375,-0.8203125 -0.070312,-0.0117188 -0.2460938,-0.0351563 -0.28125,-0.0585938 -0.2578125,-0.046875 -0.3867188,-0.1875 -0.3867188,-0.33984375 0,-0.1640625 0.1289063,-0.35156244 0.28125,-0.44531244 0.1875,-0.1289063 0.4335938,-0.140625 0.5507813,-0.140625 0.140625,0 0.5039062,0.023437 0.65625,0.2578125 -0.1757813,0.046875 -0.2929688,0.18749994 -0.2929688,0.32812494 0,0.1640625 0.140625,0.22265625 0.234375,0.22265625 0.070312,0 0.3398438,-0.0351563 0.3398438,-0.3984375 0,-0.44531249 -0.5039063,-0.59765619 -0.9257813,-0.59765619 -1.0898437,0 -1.2890625,0.79687494 -1.2890625,1.00781244 0,0.2578125 0.1523438,0.43359375 0.2460938,0.515625 0.1757812,0.140625 0.3046875,0.1640625 0.7851562,0.24609375 0.1523438,0.0351563 0.5976563,0.1171875 0.5976563,0.46875 0,0.1171875 -0.082031,0.37500001 -0.375,0.55078121 -0.2695313,0.1523438 -0.609375,0.1523438 -0.6914063,0.1523438 -0.28125,0 -0.6796875,-0.058594 -0.84375,-0.2929688 0.234375,-0.023437 0.3867188,-0.19921871 0.3867188,-0.39843746 0,-0.1640625 -0.1289063,-0.2578125 -0.2695313,-0.2578125 -0.1992187,0 -0.4101562,0.1640625 -0.4101562,0.46875 0,0.42187496 0.4453125,0.67968746 1.125,0.67968746 1.2890625,0 1.5234375,-0.87890621 1.5234375,-1.14843741 z m 0,0"
           style="fill:#000000;fill-opacity:1;fill-rule:nonzero;stroke:none" /><path
           id="path167"
           d="m 10.982781,2.3892891 c 0,-0.035156 0,-0.046875 -0.164062,-0.2226563 -1.2421877,-1.25390624 -1.5703127,-3.12890624 -1.5703127,-4.6640625 0,-1.7226562 0.3867187,-3.4570312 1.6054687,-4.7109375 0.128906,-0.1171875 0.128906,-0.1289062 0.128906,-0.1640625 0,-0.070312 -0.03516,-0.1054687 -0.09375,-0.1054687 -0.105468,0 -0.9960935,0.6796875 -1.582031,1.9453125 -0.515625,1.1015625 -0.6328125,2.203125 -0.6328125,3.0351562 0,0.7851563 0.1171875,1.99218751 0.65625,3.11718751 0.5976563,1.21874999 1.4531255,1.87499999 1.5585935,1.87499999 0.05859,0 0.09375,-0.035156 0.09375,-0.1054687 z m 0,0"
           style="fill:#000000;fill-opacity:1;fill-rule:nonzero;stroke:none" /><path
           id="path168"
           d="m 17.354852,-2.3802422 c 0.105468,-0.4335937 0.222656,-0.9257812 0.222656,-1.3242187 0,-0.2578125 -0.04687,-0.4804688 -0.199219,-0.609375 -0.05859,-0.058594 -0.128906,-0.09375 -0.222656,-0.09375 -0.117188,0 -0.246094,0.058594 -0.351563,0.1640625 -0.09375,0.09375 -0.140625,0.2109375 -0.140625,0.3164062 0,0.1054688 0.04687,0.1757813 0.117188,0.2460938 0.246094,0.2226562 0.375,0.5273437 0.375,0.8789062 0,0.1171875 -0.01172,0.2460938 -0.04687,0.375 -0.222656,0.9023438 -0.796875,1.81640626 -1.59375,1.81640626 -0.550781,0 -0.878906,-0.375 -0.972656,-0.89062496 0.128906,-0.28125 0.234375,-0.5859375 0.304687,-0.8789063 0.01172,-0.09375 0.03516,-0.1757812 0.03516,-0.2578125 0,-0.1523437 -0.04687,-0.2578125 -0.1875,-0.2578125 -0.1875,0 -0.292968,0.2460938 -0.339843,0.46875 -0.08203,0.3046875 -0.117188,0.5976563 -0.128907,0.890625 -0.328125,0.53906251 -0.808593,0.92578126 -1.359375,0.92578126 -0.597656,0 -0.867187,-0.49218746 -0.867187,-1.12499996 0,-0.1992188 0.03516,-0.421875 0.08203,-0.6445313 0.152344,-0.5976562 0.515625,-1.1601562 0.890625,-1.6875 0.02344,-0.035156 0.04687,-0.082031 0.04687,-0.1289062 0,-0.058594 -0.03516,-0.1054688 -0.09375,-0.140625 -0.02344,-0.011719 -0.05859,-0.011719 -0.08203,-0.011719 -0.05859,0 -0.128906,0.023437 -0.175781,0.082031 -0.410157,0.5742187 -0.667969,1.2070312 -0.820313,1.8398437 -0.105469,0.375 -0.152344,0.7617188 -0.152344,1.1132813 0,0.80859371 0.292969,1.41796871 1.042969,1.41796871 0.632813,0 1.148438,-0.43359375 1.523438,-1.0546875 0.117187,0.62109375 0.457031,1.0546875 1.125,1.0546875 1.042968,0 1.664062,-1.27734371 1.96875,-2.48437501 z m 3.899414,0.9492188 c 0,-0.09375 -0.08203,-0.09375 -0.117188,-0.09375 -0.09375,0 -0.105469,0.023437 -0.152344,0.140625 -0.433593,1.03124996 -0.960937,1.27734371 -1.300781,1.27734371 -0.199219,0 -0.304687,-0.12890625 -0.304687,-0.45703125 0,-0.24609375 0.02344,-0.31640625 0.05859,-0.48046876 l 0.738282,-2.9414062 h 0.9375 c 0.199218,0 0.304687,0 0.304687,-0.1992188 0,-0.1054687 -0.105469,-0.1054687 -0.28125,-0.1054687 h -0.878906 c 0.363281,-1.4179688 0.410156,-1.6171875 0.410156,-1.6757813 0,-0.1757812 -0.117187,-0.2695312 -0.292969,-0.2695312 -0.02344,0 -0.304687,0.011719 -0.398437,0.3515625 l -0.386719,1.59375 h -0.9375 c -0.199219,0 -0.292969,0 -0.292969,0.1875 0,0.1171875 0.07031,0.1171875 0.269532,0.1171875 h 0.878906 c -0.714844,2.8242187 -0.75,2.99999996 -0.75,3.17578121 0,0.5390625 0.375,0.9140625 0.914062,0.9140625 1.007813,0 1.582032,-1.45312501 1.582032,-1.53515621 z m 0,0"
           style="fill:#000000;fill-opacity:1;fill-rule:nonzero;stroke:none" /><path
           id="path169"
           d="m 24.602898,-2.4974297 c 0,-0.7734375 -0.117187,-1.9804687 -0.65625,-3.1054687 -0.597656,-1.21875 -1.464843,-1.875 -1.558593,-1.875 -0.05859,0 -0.105469,0.046875 -0.105469,0.1054687 0,0.035156 0,0.046875 0.199219,0.234375 0.972656,0.984375 1.535156,2.5664063 1.535156,4.640625 0,1.71093751 -0.363281,3.45703126 -1.59375,4.7226563 -0.140625,0.1171875 -0.140625,0.1289062 -0.140625,0.1640625 0,0.058594 0.04687,0.1054687 0.105469,0.1054687 0.09375,0 0.996093,-0.6796875 1.582031,-1.94531249 0.503906,-1.1015625 0.632812,-2.20312501 0.632812,-3.04687501 z m 0,0"
           style="fill:#000000;fill-opacity:1;fill-rule:nonzero;stroke:none" /></g><g
         id="g169"
         aria-label="F=1MHz"
         transform="matrix(1.3333333,0,0,1.3333333,420.332,552.56667)"><path
           id="path170"
           d="M 7.2539297,-4.7814453 7.4531484,-6.5041016 C 7.4765859,-6.7736328 7.4297109,-6.7736328 7.1836172,-6.7736328 H 2.2968984 c -0.1992187,0 -0.2929687,0 -0.2929687,0.1992187 0,0.1054688 0.09375,0.1054688 0.28125,0.1054688 0.3632812,0 0.6445312,0 0.6445312,0.1875 0,0.035156 0,0.058594 -0.046875,0.234375 l -1.3242187,5.27343749 c -0.09375,0.38671875 -0.1171875,0.46875 -0.90234376,0.46875 -0.1640625,0 -0.28125,0 -0.28125,0.1875 0,0.1171874975 0.12890625,0.1171874975 0.15234375,0.1171874975 L 1.8398672,-0.03535156 3.3281484,-1.953125e-4 c 0.09375,0 0.2109375,0 0.2109375,-0.1874999975 0,-0.0820313 -0.058594,-0.1171875 -0.058594,-0.1171875 -0.035156,0 -0.058594,0 -0.28125,0 -0.2226563,0 -0.2695313,0 -0.515625,-0.0234375 -0.2929688,-0.0351563 -0.328125,-0.0703125 -0.328125,-0.19921875 0,0 0,-0.0820313 0.046875,-0.234375 l 0.621094,-2.47265624 h 0.9609375 c 0.75,0 0.8320313,0.1523437 0.8320313,0.4453125 0,0.070312 0,0.1875 -0.070312,0.4921875 -0.023437,0.046875 -0.035156,0.1054687 -0.035156,0.1054687 0,0.082031 0.058594,0.1171875 0.1171875,0.1171875 0.1054688,0 0.1054688,-0.023437 0.1523438,-0.2109375 l 0.5507812,-2.15625 c 0.023437,-0.1054687 0.023437,-0.1289062 0.023437,-0.1640625 0,0 -0.011719,-0.1054687 -0.1171875,-0.1054687 -0.09375,0 -0.1054687,0.046875 -0.1523437,0.2109375 -0.1992188,0.7734375 -0.4335938,0.9492187 -1.2773438,0.9492187 H 3.0937734 l 0.6445313,-2.53125 c 0.082031,-0.3398437 0.09375,-0.3867187 0.5390625,-0.3867187 h 1.3125 c 1.21875,0 1.453125,0.328125 1.453125,1.1015625 0,0.2226562 0,0.2695312 -0.035156,0.5390625 -0.011719,0.1289062 -0.011719,0.140625 -0.011719,0.1757812 0,0.046875 0.023437,0.1171875 0.1171875,0.1171875 0.1054687,0 0.1171875,-0.058594 0.140625,-0.2460937 z m 0,0"
           style="fill:#000000;fill-opacity:1;fill-rule:nonzero;stroke:none" /><path
           id="path171"
           d="m 17.739281,-3.4572266 c 0,-0.1992187 -0.1875,-0.1992187 -0.328125,-0.1992187 h -5.964844 c -0.140625,0 -0.328125,0 -0.328125,0.1992187 0,0.1992188 0.1875,0.1992188 0.339844,0.1992188 h 5.941406 c 0.152344,0 0.339844,0 0.339844,-0.1992188 z m 0,1.9335938 c 0,-0.1992188 -0.1875,-0.1992188 -0.339844,-0.1992188 h -5.941406 c -0.152344,0 -0.339844,0 -0.339844,0.1992188 0,0.1992187 0.1875,0.1992187 0.328125,0.1992187 h 5.964844 c 0.140625,0 0.328125,0 0.328125,-0.1992187 z M 25.24807,-1.953125e-4 V -0.30488281 h -0.316406 c -0.902344,0 -0.925781,-0.1171875 -0.925781,-0.48046875 V -6.3751953 c 0,-0.234375 0,-0.2578125 -0.234375,-0.2578125 -0.609375,0.6328125 -1.488281,0.6328125 -1.804688,0.6328125 v 0.3164062 c 0.199219,0 0.785157,0 1.300782,-0.2578125 v 5.15625004 c 0,0.3515625 -0.03516,0.48046875 -0.925782,0.48046875 H 22.025414 V -1.953125e-4 C 22.376977,-0.03535156 23.232445,-0.03535156 23.630883,-0.03535156 c 0.398437,0 1.265625,0 1.617187,0.0351562475 z m 0,0"
           style="fill:#000000;fill-opacity:1;fill-rule:nonzero;stroke:none" /><path
           id="path172"
           d="M 38.129906,-1.953125e-4 V -0.30488281 h -0.234375 c -0.773437,0 -0.785156,-0.1171875 -0.785156,-0.46875 V -6.0236328 c 0,-0.3632813 0.01172,-0.46875 0.785156,-0.46875 h 0.234375 v -0.3164063 h -1.675781 c -0.269531,0 -0.269531,0.011719 -0.339844,0.1992188 l -2.179687,5.6015625 -2.15625,-5.578125 c -0.09375,-0.2226563 -0.117188,-0.2226563 -0.351563,-0.2226563 h -1.6875 v 0.3164063 h 0.246094 c 0.761719,0 0.785156,0.1054687 0.785156,0.46875 v 4.9804687 c 0,0.26953129 0,0.73828129 -1.03125,0.73828129 V -1.953125e-4 L 30.911156,-0.03535156 32.071312,-1.953125e-4 V -0.30488281 c -1.019531,0 -1.019531,-0.46875 -1.019531,-0.73828129 v -5.3671875 h 0.01172 l 2.402344,6.18750004 c 0.04687,0.12890625 0.09375,0.2226562475 0.199218,0.2226562475 0.105469,0 0.128907,-0.0820312475 0.175782,-0.1874999975 l 2.449218,-6.30468749 h 0.01172 v 5.71874999 c 0,0.3515625 -0.02344,0.46875 -0.785156,0.46875 h -0.246094 v 0.3046874975 c 0.375,-0.0351562475 1.042969,-0.0351562475 1.441406,-0.0351562475 0.386719,0 1.054688,0 1.417969,0.0351562475 z m 7.514649,0 V -0.30488281 h -0.246094 c -0.761719,0 -0.785156,-0.1171875 -0.785156,-0.46875 V -6.0236328 c 0,-0.3632813 0.02344,-0.46875 0.785156,-0.46875 h 0.246094 v -0.3164063 c -0.351563,0.035156 -1.089844,0.035156 -1.464844,0.035156 -0.386719,0 -1.125,0 -1.476563,-0.035156 v 0.3164063 h 0.234375 c 0.773438,0 0.785157,0.1054687 0.785157,0.46875 v 2.3320312 h -2.976563 v -2.3320312 c 0,-0.3632813 0.02344,-0.46875 0.785156,-0.46875 h 0.246094 v -0.3164063 c -0.351562,0.035156 -1.089844,0.035156 -1.464844,0.035156 -0.375,0 -1.125,0 -1.476562,-0.035156 v 0.3164063 h 0.234375 c 0.773437,0 0.796875,0.1054687 0.796875,0.46875 v 5.24999999 c 0,0.3515625 -0.02344,0.46875 -0.796875,0.46875 H 38.835961 V -1.953125e-4 C 39.187523,-0.03535156 39.925805,-0.03535156 40.300805,-0.03535156 c 0.375,0 1.125,0 1.476562,0.0351562475 V -0.30488281 h -0.246094 c -0.761718,0 -0.785156,-0.1171875 -0.785156,-0.46875 V -3.3869141 h 2.976563 v 2.61328129 c 0,0.3515625 -0.01172,0.46875 -0.785157,0.46875 H 42.703148 V -1.953125e-4 C 43.054711,-0.03535156 43.792992,-0.03535156 44.167992,-0.03535156 c 0.375,0 1.125,0 1.476563,0.0351562475 z M 49.977562,-1.8634766 h -0.246093 c -0.09375,1.17187504 -0.304688,1.61718754 -1.453125,1.61718754 H 47.09475 l 2.777344,-3.75000004 c 0.08203,-0.1054687 0.08203,-0.1289062 0.08203,-0.1640625 0,-0.1289062 -0.08203,-0.1289062 -0.257813,-0.1289062 h -3.1875 l -0.105468,1.59375 h 0.246093 c 0.05859,-1.0078125 0.246094,-1.3828125 1.347657,-1.3828125 h 1.136718 l -2.789062,3.76171874 c -0.08203,0.10546875 -0.08203,0.12890625 -0.08203,0.17578125 0,0.1406249975 0.07031,0.1406249975 0.257812,0.1406249975 h 3.28125 z m 0,0"
           style="fill:#000000;fill-opacity:1;fill-rule:nonzero;stroke:none" /></g><g
         id="g172"
         aria-label="R&#10;p&#10;=10Ω"
         transform="matrix(1.3333333,0,0,1.3333333,423.316,569.564)"><path
           id="path173"
           d="m 6.4338984,-5.5089375 c 0,0.3398437 -0.1523437,1.0195312 -0.5507812,1.4179687 C 5.6253047,-3.8331563 5.0979609,-3.51675 4.2073359,-3.51675 H 3.0940547 l 0.6445312,-2.6015625 c 0.058594,-0.234375 0.082031,-0.3398438 0.28125,-0.3632813 0.082031,-0.011719 0.3984375,-0.011719 0.5976563,-0.011719 0.7148437,0 1.8164062,0 1.8164062,0.9843753 z m 1.0898438,4.58203125 c 0,-0.11718755 -0.1171875,-0.11718755 -0.1171875,-0.11718755 -0.09375,0 -0.1171875,0.0703125 -0.1289063,0.14062505 C 7.0198359,-0.1651875 6.5979609,-0.001125 6.3635859,-0.001125 c -0.328125,0 -0.3984375,-0.22265625 -0.3984375,-0.609375 0,-0.3046875 0.058594,-0.8203125 0.1054688,-1.1367188 0.011719,-0.140625 0.035156,-0.328125 0.035156,-0.46875 0,-0.7617187 -0.6679687,-1.078125 -0.9375,-1.171875 1.0078125,-0.2226562 2.1914063,-0.9140625 2.1914063,-1.921875 0,-0.8554687 -0.890625,-1.5 -2.203125,-1.5 H 2.3206172 c -0.1992188,0 -0.2929688,0 -0.2929688,0.1992188 0,0.1171875 0.09375,0.1171875 0.28125,0.1171875 0,0 0.2109375,0 0.3867188,0.011719 0.1757812,0.023437 0.2578125,0.035156 0.2578125,0.1640625 0,0.035156 0,0.070312 -0.035156,0.1875 l -1.3359375,5.3554688 c -0.09375,0.38671875 -0.1171875,0.46875 -0.90234371,0.46875 -0.17578125,0 -0.26953125,0 -0.26953125,0.19921875 0,0.10546875 0.140625,0.10546875 0.140625,0.10546875 L 1.8049922,-0.03628125 3.0706172,-0.001125 c 0.082031,0 0.1992187,0 0.1992187,-0.19921875 0,-0.10546875 -0.09375,-0.10546875 -0.28125,-0.10546875 -0.3632812,0 -0.6445312,0 -0.6445312,-0.1875 0,-0.0585938 0.011719,-0.10546875 0.023437,-0.1640625 l 0.65625,-2.6367188 h 1.1953125 c 0.9023437,0 1.078125,0.5507813 1.078125,0.9023438 0,0.1523437 -0.082031,0.4570312 -0.140625,0.6914062 -0.070312,0.2695313 -0.1523438,0.6445313 -0.1523438,0.84375005 0,1.078125 1.1953125,1.078125 1.3242188,1.078125 0.84375,0 1.1953125,-1.0078125 1.195313,-1.1484375 z m 0,0"
           style="fill:#000000;fill-opacity:1;fill-rule:nonzero;stroke:none" /><path
           id="path174"
           d="m 11.443664,-0.41714063 c 0,-0.82031247 -0.5625,-1.16015627 -1.042969,-1.16015627 -0.4335934,0 -0.7968747,0.2929688 -0.9843747,0.4804688 -0.1171875,-0.3984375 -0.515625,-0.4804688 -0.7265625,-0.4804688 -0.2695312,0 -0.4335937,0.1757813 -0.5507812,0.3632813 -0.140625,0.23437497 -0.2460938,0.65624997 -0.2460938,0.70312497 0,0.0820313 0.09375,0.0820313 0.1171875,0.0820313 0.09375,0 0.1054688,-0.0117188 0.1523438,-0.19921875 0.1054687,-0.41015632 0.234375,-0.76171882 0.515625,-0.76171882 0.1757812,0 0.2226562,0.1523438 0.2226562,0.3398438 0,0.0820313 -0.011719,0.17578127 -0.023437,0.21093752 L 8.0921016,2.3484844 c -0.058594,0.1875 -0.070312,0.2460937 -0.3515625,0.2460937 -0.082031,0 -0.1875,0 -0.1875,0.1523438 0,0.070312 0.070312,0.09375 0.1054687,0.09375 0.1757813,0 0.4101563,-0.023437 0.5976563,-0.023437 0.234375,0 0.5039062,0.023437 0.7265625,0.023437 0.070312,0 0.140625,-0.011719 0.140625,-0.1523438 0,-0.09375 -0.09375,-0.09375 -0.1757813,-0.09375 -0.1523437,0 -0.3398437,0 -0.3398437,-0.082031 0,-0.035156 0.046875,-0.2226563 0.070312,-0.3164063 l 0.257813,-1.0429689 c 0.082031,0.140625 0.3046875,0.4101562 0.7265625,0.4101562 0.8437499,0 1.7812499,-0.93749998 1.7812499,-1.98046873 z m -0.550781,-0.29296875 c 0,0.28125 -0.152344,0.99609375 -0.363281,1.40625 C 10.35382,1.0359844 10.013977,1.3641094 9.6624141,1.3641094 c -0.5039063,0 -0.6210938,-0.53906253 -0.6210938,-0.59765628 0,-0.0351563 0.011719,-0.0820313 0.011719,-0.10546875 l 0.3515625,-1.40625 c 0.410156,-0.53906247 0.7500002,-0.64453127 0.9726562,-0.64453127 0.28125,0 0.515625,0.2109375 0.515625,0.67968752 z m 0,0"
           style="fill:#000000;fill-opacity:1;fill-rule:nonzero;stroke:none" /><path
           id="path175"
           d="m 22.119445,-3.4581563 c 0,-0.1992187 -0.1875,-0.1992187 -0.328125,-0.1992187 h -5.964843 c -0.140625,0 -0.328125,0 -0.328125,0.1992187 0,0.1992188 0.1875,0.1992188 0.339843,0.1992188 h 5.941407 c 0.152343,0 0.339843,0 0.339843,-0.1992188 z m 0,1.9335938 c 0,-0.1992188 -0.1875,-0.1992188 -0.339843,-0.1992188 h -5.941407 c -0.152343,0 -0.339843,0 -0.339843,0.1992188 0,0.1992187 0.1875,0.1992187 0.328125,0.1992187 h 5.964843 c 0.140625,0 0.328125,0 0.328125,-0.1992187 z m 7.508789,1.5234375 v -0.3046875 h -0.316406 c -0.902344,0 -0.925781,-0.1171875 -0.925781,-0.48046875 V -6.376125 c 0,-0.234375 0,-0.2578125 -0.234375,-0.2578125 -0.609375,0.6328125 -1.488281,0.6328125 -1.804688,0.6328125 v 0.3164062 c 0.199219,0 0.785157,0 1.300782,-0.2578125 v 5.15625005 c 0,0.3515625 -0.03516,0.48046875 -0.925782,0.48046875 h -0.316406 v 0.3046875 c 0.351563,-0.03515625 1.207031,-0.03515625 1.605469,-0.03515625 0.398437,0 1.265625,0 1.617187,0.03515625 z m 5.390625,-3.1875 c 0,-0.796875 -0.04687,-1.59375 -0.398437,-2.3320313 -0.457031,-0.9609375 -1.277344,-1.1132812 -1.6875,-1.1132812 -0.597656,0 -1.335938,0.2578125 -1.734375,1.1835937 -0.328125,0.6914063 -0.375,1.4648438 -0.375,2.2617188 0,0.75 0.04687,1.640625 0.445312,2.40234375 0.433594,0.80859375 1.160157,1.0078125 1.652344,1.0078125 0.539063,0 1.289063,-0.2109375 1.734375,-1.16015625 0.316406,-0.6914063 0.363281,-1.4648438 0.363281,-2.25 z m -0.832031,-0.1171875 c 0,0.75 0,1.4179687 -0.105469,2.0625 -0.152343,0.9375 -0.714843,1.2421875 -1.160156,1.2421875 -0.386719,0 -0.984375,-0.24609375 -1.160156,-1.2070313 -0.105469,-0.5976562 -0.105469,-1.5117187 -0.105469,-2.0976562 0,-0.6445313 0,-1.3007813 0.08203,-1.8398438 0.1875,-1.1835937 0.925782,-1.265625 1.183594,-1.265625 0.328125,0 0.984375,0.1757813 1.171875,1.1601563 0.09375,0.5625 0.09375,1.3125 0.09375,1.9453125 z m 11.288086,1.6875 H 45.22882 C 45.18195,-1.3605 45.14679,-1.126125 45.053039,-0.89175 c -0.04687,0.1640625 -0.08203,0.24609375 -0.65625,0.24609375 H 43.599914 C 43.72882,-1.2081563 44.033508,-1.688625 44.47882,-2.344875 c 0.46875,-0.703125 0.878907,-1.3945313 0.878907,-2.1796875 0,-1.3828125 -1.335938,-2.4960938 -3.023438,-2.4960938 -1.710937,0 -3.035156,1.1367188 -3.035156,2.4960938 0,0.7851562 0.398437,1.4765625 0.867187,2.1796875 0.445313,0.65625 0.761719,1.1367187 0.890625,1.69921875 H 40.26007 c -0.574218,0 -0.609375,-0.0820313 -0.65625,-0.234375 C 39.521789,-1.1026875 39.474914,-1.3605 39.428039,-1.6183125 h -0.257812 l 0.328125,1.6171875 h 1.59375 c 0.222656,0 0.257812,0 0.257812,-0.2109375 0,-0.69140625 -0.316406,-1.5703125 -0.539062,-2.2148438 -0.210938,-0.5742187 -0.492188,-1.359375 -0.492188,-2.109375 0,-1.59375 1.101563,-2.2734375 2.003906,-2.2734375 0.960938,0 2.015625,0.7265625 2.015625,2.2734375 0,0.75 -0.269531,1.5117188 -0.5625,2.3203125 -0.152343,0.421875 -0.46875,1.31250005 -0.46875,2.0039063 0,0.2109375 0.03516,0.2109375 0.257813,0.2109375 h 1.582031 z m 0,0"
           style="fill:#000000;fill-opacity:1;fill-rule:nonzero;stroke:none" /></g><g
         id="g175"
         aria-label="L&#10;p&#10;=650nH"
         transform="matrix(1.3333333,0,0,1.3333333,416.644,588.46133)"><path
           id="path176"
           d="m 6.4105547,-2.4612344 c 0,-0.035156 -0.035156,-0.1054687 -0.1289063,-0.1054687 -0.082031,0 -0.09375,0.046875 -0.1640625,0.2109375 -0.3398437,0.9140625 -0.7734375,2.05078122 -2.4960937,2.05078122 h -0.9375 c -0.140625,0 -0.1640625,0 -0.2226563,-0.0117188 -0.1054687,-0.0117188 -0.1289062,-0.0234375 -0.1289062,-0.10546875 0,-0.0234375 0,-0.046875 0.046875,-0.22265625 L 3.7269609,-6.0237344 c 0.09375,-0.3632812 0.1171875,-0.46875 1.0546875,-0.46875 0.3046875,0 0.375,0 0.375,-0.1875 0,-0.1289062 -0.1054687,-0.1289062 -0.1523437,-0.1289062 l -1.4765625,0.035156 -1.3242188,-0.035156 c -0.070312,0 -0.1875,0 -0.1875,0.1992187 0,0.1171875 0.082031,0.1171875 0.28125,0.1171875 0,0 0.1992188,0 0.375,0.011719 0.1757813,0.023437 0.2695313,0.035156 0.2695313,0.1640625 0,0.035156 -0.011719,0.070312 -0.046875,0.1875 l -1.3359375,5.35546872 c -0.09375,0.38671875 -0.1171875,0.46875 -0.90234376,0.46875 -0.1640625,0 -0.26953125,0 -0.26953125,0.19921875 0,0.105468755 0.09375,0.105468755 0.26953125,0.105468755 H 5.2738359 c 0.234375,0 0.2460938,0 0.3046875,-0.164062505 L 6.3636797,-2.3206094 c 0.046875,-0.1054687 0.046875,-0.140625 0.046875,-0.140625 z m 0,0"
           style="fill:#000000;fill-opacity:1;fill-rule:nonzero;stroke:none" /><path
           id="path177"
           d="m 10.658602,-0.4163125 c 0,-0.8203125 -0.5625,-1.1601563 -1.0429692,-1.1601563 -0.4335937,0 -0.796875,0.2929688 -0.984375,0.4804688 -0.1171875,-0.3984375 -0.515625,-0.4804688 -0.7265625,-0.4804688 -0.2695312,0 -0.4335937,0.1757813 -0.5507812,0.3632813 -0.140625,0.234375 -0.2460938,0.65625 -0.2460938,0.703125 0,0.0820313 0.09375,0.0820313 0.1171875,0.0820313 0.09375,0 0.1054688,-0.0117188 0.1523438,-0.19921875 0.1054687,-0.41015625 0.234375,-0.76171875 0.515625,-0.76171875 0.1757812,0 0.2226562,0.1523438 0.2226562,0.3398438 0,0.0820313 -0.011719,0.1757812 -0.023437,0.21093745 L 7.3070396,2.3493126 c -0.058594,0.1875 -0.070312,0.2460937 -0.3515625,0.2460937 -0.082031,0 -0.1875,0 -0.1875,0.1523438 0,0.070312 0.070312,0.09375 0.1054687,0.09375 0.1757813,0 0.4101563,-0.023437 0.5976563,-0.023437 0.234375,0 0.5039062,0.023437 0.7265625,0.023437 0.070312,0 0.140625,-0.011719 0.140625,-0.1523438 0,-0.09375 -0.09375,-0.09375 -0.1757813,-0.09375 -0.1523437,0 -0.3398437,0 -0.3398437,-0.082031 0,-0.035156 0.046875,-0.2226563 0.070312,-0.3164063 L 8.1507891,1.154 c 0.082031,0.140625 0.3046875,0.4101562 0.7265625,0.4101562 0.84375,0 1.7812504,-0.93749995 1.7812504,-1.9804687 z M 10.10782,-0.70928125 c 0,0.28125 -0.1523434,0.99609375 -0.3632809,1.40625 C 9.5687578,1.0368125 9.2289141,1.3649375 8.8773516,1.3649375 c -0.5039063,0 -0.6210938,-0.5390625 -0.6210938,-0.59765625 0,-0.0351563 0.011719,-0.0820313 0.011719,-0.10546875 l 0.3515625,-1.40625 c 0.4101562,-0.5390625 0.75,-0.6445313 0.9726562,-0.6445313 0.28125,0 0.5156245,0.2109375 0.5156245,0.67968755 z m 0,0"
           style="fill:#000000;fill-opacity:1;fill-rule:nonzero;stroke:none" /><path
           id="path178"
           d="m 21.334383,-3.4573281 c 0,-0.1992188 -0.1875,-0.1992188 -0.328125,-0.1992188 h -5.964844 c -0.140625,0 -0.328125,0 -0.328125,0.1992188 0,0.1992187 0.1875,0.1992187 0.339844,0.1992187 h 5.941406 c 0.152344,0 0.339844,0 0.339844,-0.1992187 z m 0,1.9335937 c 0,-0.1992187 -0.1875,-0.1992187 -0.339844,-0.1992187 h -5.941406 c -0.152344,0 -0.339844,0 -0.339844,0.1992187 0,0.1992188 0.1875,0.1992188 0.328125,0.1992188 h 5.964844 c 0.140625,0 0.328125,0 0.328125,-0.1992188 z m 7.883789,-0.5039062 c 0,-1.265625 -0.878906,-2.2265625 -1.992188,-2.2265625 -0.667968,0 -1.042968,0.5039062 -1.242187,0.984375 v -0.234375 c 0,-2.5195313 1.242187,-2.8828125 1.746094,-2.8828125 0.234375,0 0.65625,0.058594 0.878906,0.3984375 -0.152344,0 -0.550781,0 -0.550781,0.4453125 0,0.3164062 0.234375,0.4570312 0.457031,0.4570312 0.164062,0 0.457031,-0.082031 0.457031,-0.46875 0,-0.5976562 -0.433594,-1.078125 -1.265625,-1.078125 -1.277344,0 -2.613281,1.2890625 -2.613281,3.4804688 0,2.66015622 1.148437,3.37499997 2.074219,3.37499997 1.113281,0 2.050781,-0.9375 2.050781,-2.24999997 z m -0.890625,-0.011719 c 0,0.4804688 0,0.9726563 -0.164063,1.33593752 -0.304687,0.59765625 -0.761718,0.64453125 -0.996093,0.64453125 -0.621094,0 -0.925782,-0.59765625 -0.984375,-0.75 -0.175782,-0.46874997 -0.175782,-1.26562497 -0.175782,-1.44140627 0,-0.7734375 0.316407,-1.7695312 1.21875,-1.7695312 0.152344,0 0.609375,0 0.925782,0.609375 0.175781,0.375 0.175781,0.8789062 0.175781,1.3710937 z m 5.800781,0.035156 c 0,-1.1835938 -0.820312,-2.1796875 -1.898437,-2.1796875 -0.480469,0 -0.902344,0.1640625 -1.265625,0.5039062 v -1.9335937 c 0.199218,0.058594 0.527343,0.1289062 0.84375,0.1289062 1.230468,0 1.933593,-0.9140625 1.933593,-1.0429687 0,-0.058594 -0.03516,-0.1054688 -0.105468,-0.1054688 0,0 -0.03516,0 -0.08203,0.023437 -0.199218,0.09375 -0.679687,0.2929688 -1.347656,0.2929688 -0.398437,0 -0.855469,-0.070312 -1.324219,-0.28125 -0.08203,-0.023437 -0.128906,-0.023437 -0.128906,-0.023437 -0.09375,0 -0.09375,0.082031 -0.09375,0.234375 v 2.953125 c 0,0.1757812 0,0.2578125 0.140625,0.2578125 0.07031,0 0.08203,-0.035156 0.128906,-0.09375 0.105469,-0.1523438 0.480469,-0.6914063 1.277344,-0.6914063 0.527344,0 0.773438,0.4570313 0.855469,0.6328125 0.152344,0.375 0.175781,0.7617188 0.175781,1.2539063 0,0.3515625 0,0.9492187 -0.234375,1.37109372 -0.246094,0.38671875 -0.609375,0.64453125 -1.066406,0.64453125 -0.726563,0 -1.300781,-0.52734375 -1.464844,-1.11328127 0.02344,0.011719 0.05859,0.011719 0.164063,0.011719 0.328125,0 0.503906,-0.2460938 0.503906,-0.4804688 0,-0.2460937 -0.175781,-0.4921875 -0.503906,-0.4921875 -0.140625,0 -0.480469,0.070312 -0.480469,0.5273438 0,0.85546872 0.679687,1.82812497 1.792969,1.82812497 1.160156,0 2.179687,-0.9609375 2.179687,-2.22656247 z m 5.085938,-1.1835938 c 0,-0.796875 -0.04687,-1.59375 -0.398438,-2.3320312 -0.457031,-0.9609375 -1.277344,-1.1132813 -1.6875,-1.1132813 -0.597656,0 -1.335937,0.2578125 -1.734375,1.1835938 -0.328125,0.6914062 -0.375,1.4648437 -0.375,2.2617187 0,0.75 0.04687,1.640625 0.445313,2.40234377 0.433593,0.80859375 1.160156,1.0078125 1.652343,1.0078125 0.539063,0 1.289063,-0.2109375 1.734375,-1.16015625 0.316407,-0.69140622 0.363282,-1.46484372 0.363282,-2.25000002 z m -0.832032,-0.1171875 c 0,0.75 0,1.4179688 -0.105468,2.0625 -0.152344,0.93750002 -0.714844,1.242187525 -1.160157,1.242187525 -0.386718,0 -0.984375,-0.246093755 -1.160156,-1.207031225 -0.105469,-0.5976563 -0.105469,-1.5117188 -0.105469,-2.0976563 0,-0.6445312 0,-1.3007812 0.08203,-1.8398437 0.1875,-1.1835938 0.925781,-1.265625 1.183593,-1.265625 0.328125,0 0.984375,0.1757812 1.171875,1.1601562 0.09375,0.5625 0.09375,1.3125 0.09375,1.9453125 z m 0,0"
           style="fill:#000000;fill-opacity:1;fill-rule:nonzero;stroke:none" /><path
           id="path179"
           d="M 48.267,-2.96875e-4 V -0.30498438 c -0.515625,0 -0.773438,0 -0.785156,-0.3046875 V -2.5081094 c 0,-0.8554687 0,-1.171875 -0.304688,-1.5234375 -0.140625,-0.1757812 -0.46875,-0.375 -1.042969,-0.375 -0.726562,0 -1.195312,0.4335938 -1.476562,1.0546875 v -1.0546875 l -1.40625,0.1171875 v 0.3046875 c 0.703125,0 0.785156,0.070312 0.785156,0.5625 v 2.66015627 c 0,0.45703125 -0.117187,0.45703125 -0.785156,0.45703125 v 0.304687505 l 1.125,-0.035156255 1.113281,0.035156255 V -0.30498438 c -0.65625,0 -0.773437,0 -0.773437,-0.45703125 V -2.5901406 c 0,-1.03125 0.714843,-1.59375 1.347656,-1.59375 0.621094,0 0.738281,0.5390625 0.738281,1.1015625 v 2.32031247 c 0,0.45703125 -0.117187,0.45703125 -0.773437,0.45703125 v 0.304687505 l 1.125,-0.035156255 z m 7.338867,0 V -0.30498438 h -0.246094 c -0.761718,0 -0.785156,-0.1171875 -0.785156,-0.46875 V -6.0237344 c 0,-0.3632812 0.02344,-0.46875 0.785156,-0.46875 h 0.246094 v -0.3164062 c -0.351562,0.035156 -1.089844,0.035156 -1.464844,0.035156 -0.386718,0 -1.125,0 -1.476562,-0.035156 v 0.3164062 h 0.234375 c 0.773437,0 0.785156,0.1054688 0.785156,0.46875 v 2.3320313 H 50.70743 v -2.3320313 c 0,-0.3632812 0.02344,-0.46875 0.785156,-0.46875 h 0.246094 v -0.3164062 c -0.351563,0.035156 -1.089844,0.035156 -1.464844,0.035156 -0.375,0 -1.125,0 -1.476563,-0.035156 v 0.3164062 h 0.234375 c 0.773438,0 0.796875,0.1054688 0.796875,0.46875 v 5.25000002 c 0,0.3515625 -0.02344,0.46875 -0.796875,0.46875 h -0.234375 v 0.304687505 c 0.351563,-0.035156255 1.089844,-0.035156255 1.464844,-0.035156255 0.375,0 1.125,0 1.476563,0.035156255 V -0.30498438 h -0.246094 c -0.761719,0 -0.785156,-0.1171875 -0.785156,-0.46875 V -3.3870156 h 2.976562 v 2.61328122 c 0,0.3515625 -0.01172,0.46875 -0.785156,0.46875 h -0.234375 v 0.304687505 c 0.351562,-0.035156255 1.089844,-0.035156255 1.464844,-0.035156255 0.375,0 1.125,0 1.476562,0.035156255 z m 0,0"
           style="fill:#000000;fill-opacity:1;fill-rule:nonzero;stroke:none" /></g></g></g></svg>
