<?xml version="1.0" encoding="UTF-8" standalone="no"?>
<!-- Created with Inkscape (http://www.inkscape.org/) -->

<svg
   width="141.4229mm"
   height="46.299126mm"
   viewBox="0 0 141.4229 46.299125"
   version="1.1"
   id="svg1"
   xml:space="preserve"
   xmlns="http://www.w3.org/2000/svg"
   xmlns:svg="http://www.w3.org/2000/svg"><defs
     id="defs1" /><g
     id="g1"
     transform="matrix(0.26458333,0,0,0.26458333,-21.621415,-65.956698)"><g
       id="g6"><path
         id="path57"
         d="m -42.5202,28.3468 v 30.61449 m 0,23.81143 v 30.61452"
         style="fill:none;stroke:#000000;stroke-width:0.3985;stroke-linecap:butt;stroke-linejoin:miter;stroke-miterlimit:10;stroke-dasharray:none;stroke-opacity:1"
         transform="matrix(1.3333333,0,0,-1.3333333,200.70933,461.804)" /><path
         id="path58"
         d="m -54.42592,70.867 c 0,-6.5754 5.33031,-11.90571 11.90572,-11.90571 6.57542,0 11.90571,5.33031 11.90571,11.90571 0,6.57543 -5.33029,11.90572 -11.90571,11.90572 -6.57541,0 -11.90572,-5.33029 -11.90572,-11.90572 z"
         style="fill:none;stroke:#000000;stroke-width:0.797;stroke-linecap:butt;stroke-linejoin:miter;stroke-miterlimit:10;stroke-dasharray:none;stroke-opacity:1"
         transform="matrix(1.3333333,0,0,-1.3333333,200.70933,461.804)" /><path
         id="path59"
         d="M -42.5202,58.96129 V 82.77272"
         style="fill:none;stroke:#000000;stroke-width:0.797;stroke-linecap:butt;stroke-linejoin:miter;stroke-miterlimit:10;stroke-dasharray:none;stroke-opacity:1"
         transform="matrix(1.3333333,0,0,-1.3333333,200.70933,461.804)" /><path
         id="path60"
         d="m -42.5202,113.38724 h 32.88244 m 47.62232,0 H 70.867"
         style="fill:none;stroke:#000000;stroke-width:0.3985;stroke-linecap:butt;stroke-linejoin:miter;stroke-miterlimit:10;stroke-dasharray:none;stroke-opacity:1"
         transform="matrix(1.3333333,0,0,-1.3333333,200.70933,461.804)" /><path
         id="path61"
         d="m -9.63776,119.34009 h 47.62231 v -11.9057 H -9.63776 Z"
         style="fill:none;stroke:#000000;stroke-width:0.797;stroke-linecap:butt;stroke-linejoin:miter;stroke-miterlimit:10;stroke-dasharray:none;stroke-opacity:1"
         transform="matrix(1.3333333,0,0,-1.3333333,200.70933,461.804)" /><g
         id="g61"
         aria-label="λ/4|Z&#10;0"
         transform="matrix(1.3333333,0,0,1.3333333,195.304,297.60267)"><path
           id="path62"
           d="m 5.4614531,0.01089062 c 0,-0.03515625 -0.023437,-0.046875 -0.046875,-0.09375 -0.1054687,-0.10546875 -0.1640625,-0.2578125 -0.234375,-0.45703125 L 3.1528594,-6.2117656 c -0.2109375,-0.5742188 -0.75,-0.703125 -1.21875,-0.703125 -0.046875,0 -0.1757813,0 -0.1757813,0.1054687 0,0.082031 0.082031,0.1054688 0.082031,0.1054688 0.328125,0.058594 0.3984375,0.1171875 0.65625,0.796875 l 0.9609375,2.7070312 -2.75390627,2.73046877 c -0.1171875,0.1171875 -0.17578125,0.17578125 -0.17578125,0.3046875 0,0.17578125 0.140625,0.29296875 0.3046875,0.29296875 0.15234375,0 0.24609372,-0.10546875 0.32812502,-0.2109375 l 2.390625,-2.82421872 c 0.4101562,1.0429687 0.890625,2.56640622 1.0546875,2.80078122 0.1523437,0.2109375 0.2578125,0.2109375 0.5273437,0.2109375 h 0.2109375 c 0.1054688,0 0.1171875,-0.0703125 0.1171878,-0.09375 z M 10.228055,-7.2781719 c 0,-0.1054687 -0.08203,-0.1992187 -0.199219,-0.1992187 -0.070313,0 -0.1289063,0.035156 -0.1640626,0.09375 L 6.4077422,2.1085469 c -0.046875,0.1289062 -0.046875,0.1875 -0.046875,0.1875 0,0.1054687 0.082031,0.1992187 0.1992187,0.1992187 0.1289063,0 0.1523438,-0.070312 0.2109375,-0.2460937 L 10.18118,-7.0906719 c 0.04687,-0.1289062 0.04687,-0.1875 0.04687,-0.1875 z m 0,0"
           style="fill:#000000;fill-opacity:1;fill-rule:nonzero;stroke:none" /><path
           id="path63"
           d="m 15.480984,-1.6414531 v -0.3164063 h -0.996093 v -4.5234375 c 0,-0.1992187 0,-0.2578125 -0.152344,-0.2578125 -0.09375,0 -0.117188,0 -0.199219,0.1171875 l -3.058594,4.6640625 v 0.3164063 h 2.648438 v 0.86718747 c 0,0.3515625 -0.02344,0.46875 -0.761719,0.46875 h -0.210937 v 0.304687505 c 0.410156,-0.035156255 0.9375,-0.035156255 1.347656,-0.035156255 0.421875,0 0.949219,0 1.359375,0.035156255 V -0.30551563 h -0.210938 c -0.738281,0 -0.761718,-0.1171875 -0.761718,-0.46875 V -1.6414531 Z m -1.699218,-0.3164063 h -2.425782 l 2.425782,-3.7148437 z m 0,0"
           style="fill:#000000;fill-opacity:1;fill-rule:nonzero;stroke:none" /><path
           id="path64"
           d="m 20.67825,2.1554219 v -9.2929688 c 0,-0.140625 0,-0.3398437 -0.199219,-0.3398437 -0.199218,0 -0.199218,0.1992187 -0.199218,0.3398437 v 9.2929688 c 0,0.140625 0,0.3398437 0.199218,0.3398437 0.199219,0 0.199219,-0.1992187 0.199219,-0.3398437 z m 0,0"
           style="fill:#000000;fill-opacity:1;fill-rule:nonzero;stroke:none" /><path
           id="path65"
           d="m 31.395047,-2.5555156 c 0,-0.046875 -0.03516,-0.1054688 -0.128906,-0.1054688 -0.08203,0 -0.09375,0.035156 -0.164063,0.2460938 -0.433594,1.359375 -0.914062,2.07421872 -2.613281,2.07421872 h -1.699219 l 5.566406,-6.22265622 c 0.01172,-0.046875 0.03516,-0.09375 0.03516,-0.1523438 0,-0.09375 -0.05859,-0.09375 -0.257813,-0.09375 h -4.195312 c -0.246094,0 -0.257813,0.011719 -0.316407,0.1992188 l -0.539062,1.7929687 c -0.02344,0.058594 -0.03516,0.140625 -0.03516,0.140625 0,0 0,0.1171875 0.117187,0.1171875 0.09375,0 0.117188,-0.070312 0.128906,-0.1054687 0.386719,-1.171875 0.902344,-1.828125 2.449219,-1.828125 h 1.628906 l -5.566406,6.22265622 c 0,0 -0.04687,0.15234375 -0.04687,0.17578125 0,0.093750005 0.07031,0.093750005 0.257813,0.093750005 h 4.324218 c 0.246094,0 0.257813,-0.011718755 0.316407,-0.199218755 l 0.703125,-2.20312502 c 0.01172,-0.035156 0.03516,-0.1054687 0.03516,-0.1523437 z m 0,0"
           style="fill:#000000;fill-opacity:1;fill-rule:nonzero;stroke:none" /><path
           id="path66"
           d="m 35.58157,-0.73325 c 0,-0.7617188 -0.09375,-1.3125 -0.410156,-1.8046875 -0.222656,-0.3164063 -0.644531,-0.5976563 -1.207031,-0.5976563 -1.617188,0 -1.617188,1.8984375 -1.617188,2.4023438 0,0.50390625 0,2.3671875 1.617188,2.3671875 1.617187,0 1.617187,-1.86328125 1.617187,-2.3671875 z M 34.948758,-0.827 c 0,0.515625 0,1.04296875 -0.09375,1.4765625 -0.140625,0.6328125 -0.609375,0.7851562 -0.890625,0.7851562 -0.316406,0 -0.75,-0.1875 -0.890625,-0.7617187 -0.09375,-0.41015625 -0.09375,-0.984375 -0.09375,-1.5 0,-0.5039063 0,-1.03125 0.105469,-1.4179688 0.152343,-0.5507812 0.597656,-0.6914062 0.878906,-0.6914062 0.375,0 0.738281,0.2226562 0.867187,0.6328125 0.105469,0.375 0.117188,0.8789062 0.117188,1.4765625 z m 0,0"
           style="fill:#000000;fill-opacity:1;fill-rule:nonzero;stroke:none" /></g><path
         id="path67"
         d="m 70.867,28.3468 -1e-5,35.57515 m 0,13.89011 1e-5,35.57518"
         style="fill:none;stroke:#000000;stroke-width:0.3985;stroke-linecap:butt;stroke-linejoin:miter;stroke-miterlimit:10;stroke-dasharray:none;stroke-opacity:1"
         transform="matrix(1.3333333,0,0,-1.3333333,200.70933,461.804)" /><path
         id="path68"
         d="M 70.86699,63.92195 64.91414,77.11752"
         style="fill:none;stroke:#000000;stroke-width:0.797;stroke-linecap:butt;stroke-linejoin:miter;stroke-miterlimit:10;stroke-dasharray:none;stroke-opacity:1"
         transform="matrix(1.3333333,0,0,-1.3333333,200.70933,461.804)" /><path
         id="path69"
         d="m 113.38724,28.3468 v 38.55173 m 0,7.93695 v 38.55176"
         style="fill:none;stroke:#000000;stroke-width:0.3985;stroke-linecap:butt;stroke-linejoin:miter;stroke-miterlimit:10;stroke-dasharray:none;stroke-opacity:1"
         transform="matrix(1.3333333,0,0,-1.3333333,200.70933,461.804)" /><path
         id="path70"
         d="m 101.4815,66.89853 h 23.81145 m -23.81145,7.93695 h 23.81145"
         style="fill:none;stroke:#000000;stroke-width:0.797;stroke-linecap:butt;stroke-linejoin:miter;stroke-miterlimit:10;stroke-dasharray:none;stroke-opacity:1"
         transform="matrix(1.3333333,0,0,-1.3333333,200.70933,461.804)" /><g
         id="g70"
         aria-label="8.1pF"
         transform="matrix(1.3333333,0,0,1.3333333,371.496,370.17467)"><path
           id="path71"
           d="m 4.5469453,-1.6749453 c 0,-0.3515625 -0.1054687,-0.8085938 -0.4804687,-1.21875 -0.1875,-0.2109375 -0.3515625,-0.3164063 -0.984375,-0.7148438 0.7148437,-0.3632812 1.2070312,-0.8789062 1.2070312,-1.5351562 0,-0.9257813 -0.890625,-1.4882813 -1.7929687,-1.4882813 -0.9960938,0 -1.80468754,0.7382813 -1.80468754,1.6640625 0,0.1757813 0.0117188,0.6210938 0.43359374,1.0898438 0.1054688,0.1289062 0.4804688,0.375 0.7265625,0.5390625 -0.5742187,0.2929687 -1.42968749,0.84375 -1.42968749,1.8398437 0,1.05468754 1.00781249,1.72265629 2.06249999,1.72265629 1.125,0 2.0625,-0.83203125 2.0625,-1.89843749 z m -0.703125,-3.46875 c 0,0.5625 -0.3867187,1.0429687 -0.984375,1.3945312 l -1.2304687,-0.796875 c -0.46875,-0.3046875 -0.5039063,-0.6445312 -0.5039063,-0.8085937 0,-0.609375 0.6445313,-1.03125 1.359375,-1.03125 0.7265625,0 1.359375,0.515625 1.359375,1.2421875 z m 0.2109375,3.8320312 c 0,0.73828129 -0.75,1.25390629 -1.5585937,1.25390629 -0.8671875,0 -1.58203129,-0.62109375 -1.58203129,-1.44140629 0,-0.5859375 0.31640629,-1.21875 1.17187499,-1.6875 l 1.21875,0.7734375 c 0.28125,0.1875 0.75,0.4921875 0.75,1.1015625 z m 0,0"
           style="fill:#000000;fill-opacity:1;fill-rule:nonzero;stroke:none" /><path
           id="path72"
           d="m 6.8906953,-0.52650781 c 0,-0.29296875 -0.234375,-0.52734379 -0.5273437,-0.52734379 -0.28125,0 -0.5273438,0.23437504 -0.5273438,0.52734379 0,0.29296875 0.2460938,0.5273437475 0.5273438,0.5273437475 0.2929687,0 0.5273437,-0.2343749975 0.5273437,-0.5273437475 z m 0,0"
           style="fill:#000000;fill-opacity:1;fill-rule:nonzero;stroke:none" /><path
           id="path73"
           d="M 11.920969,8.359375e-4 V -0.30385156 h -0.316406 c -0.902344,0 -0.925782,-0.1171875 -0.925782,-0.48046875 V -6.3741641 c 0,-0.234375 0,-0.2578125 -0.234375,-0.2578125 -0.6093747,0.6328125 -1.488281,0.6328125 -1.8046872,0.6328125 v 0.3164063 c 0.1992187,0 0.7851562,0 1.3007812,-0.2578125 v 5.15624999 c 0,0.3515625 -0.035156,0.48046875 -0.9257812,0.48046875 H 8.6983125 V 8.359375e-4 C 9.049875,-0.03432031 9.9053438,-0.03432031 10.303781,-0.03432031 c 0.398438,0 1.265625,0 1.617188,0.0351562475 z m 0,0"
           style="fill:#000000;fill-opacity:1;fill-rule:nonzero;stroke:none" /><path
           id="path74"
           d="m 21.243234,-2.1554141 c 0,-1.265625 -0.972656,-2.25 -2.085937,-2.25 -0.773438,0 -1.195313,0.4453125 -1.394531,0.65625 v -0.65625 l -1.429688,0.1171875 v 0.3046875 c 0.703125,0 0.773438,0.058594 0.773438,0.4921875 v 4.6640625 c 0,0.4570313 -0.105469,0.4570313 -0.773438,0.4570313 v 0.3046875 l 1.113281,-0.035156 1.125,0.035156 V 1.6297422 c -0.667968,0 -0.773437,0 -0.773437,-0.4570313 v -1.75781246 c 0.04687,0.15234375 0.46875,0.69140625 1.21875,0.69140625 1.183594,0 2.226562,-0.97265625 2.226562,-2.26171879 z m -0.832031,0 c 0,1.20703129 -0.691406,2.05078129 -1.429687,2.05078129 -0.398438,0 -0.773438,-0.19921875 -1.042969,-0.609375 -0.140625,-0.2109375 -0.140625,-0.22265625 -0.140625,-0.42187499 v -2.2148438 c 0.28125,-0.515625 0.773437,-0.796875 1.277344,-0.796875 0.726562,0 1.335937,0.8671875 1.335937,1.9921875 z m 7.256836,-2.3789062 -0.28125,-2.2382813 h -5.472656 v 0.3046875 h 0.234375 c 0.773437,0 0.796875,0.1171875 0.796875,0.46875 v 5.22656254 c 0,0.3515625 -0.02344,0.46875 -0.796875,0.46875 H 21.914133 V 8.359375e-4 c 0.351562,-0.0351562475 1.125,-0.0351562475 1.511719,-0.0351562475 0.410156,0 1.3125,0 1.675781,0.0351562475 V -0.30385156 h -0.328125 c -0.949219,0 -0.949219,-0.12890625 -0.949219,-0.48046875 V -3.2335391 h 0.855469 c 0.960937,0 1.054687,0.3164063 1.054687,1.1601563 h 0.257813 v -2.6367188 h -0.257813 c 0,0.8320313 -0.09375,1.1601563 -1.054687,1.1601563 h -0.855469 v -2.5195313 c 0,-0.328125 0.02344,-0.3984375 0.492188,-0.3984375 h 1.195312 c 1.488281,0 1.746094,0.5625 1.898438,1.9335938 z m 0,0"
           style="fill:#000000;fill-opacity:1;fill-rule:nonzero;stroke:none" /></g><path
         id="path75"
         d="m 70.867,113.38724 h 70.86704 16.44109 m 23.81143,0 h 16.4411 3.11822 m 7.93695,0 h 3.11823 23.5278 m 23.81143,0 h 23.52781"
         style="fill:none;stroke:#000000;stroke-width:0.3985;stroke-linecap:butt;stroke-linejoin:miter;stroke-miterlimit:10;stroke-dasharray:none;stroke-opacity:1"
         transform="matrix(1.3333333,0,0,-1.3333333,200.70933,461.804)" /><path
         id="path76"
         d="m 157.77661,113.22784 c 0,3.28769 1.63475,5.95286 3.65135,5.95286 2.0166,0 3.65136,-2.66517 3.65136,-5.95286 0,-1.64376 -0.66626,-2.97627 -1.48815,-2.97627 -0.82188,0 -1.48813,1.33251 -1.48813,2.97627 0,3.28769 1.63474,5.95286 3.65134,5.95286 2.0166,0 3.65135,-2.66517 3.65135,-5.95286 0,-1.64376 -0.66626,-2.97627 -1.48814,-2.97627 -0.82187,0 -1.48813,1.33251 -1.48813,2.97627 0,3.28769 1.63475,5.95286 3.65135,5.95286 2.0166,0 3.65134,-2.66517 3.65134,-5.95286 0,-1.64376 -0.66625,-2.97627 -1.48813,-2.97627 -0.82189,0 -1.48815,1.33251 -1.48815,2.97627 0,3.28769 1.63476,5.95286 3.65136,5.95286 2.0166,0 3.65135,-2.66517 3.65135,-5.95286 0,-1.64376 -0.66626,-2.97627 -1.48815,-2.97627 -0.82186,0 -1.48813,1.33251 -1.48813,2.97627 0,3.28769 1.63474,5.95286 3.65136,5.95286 2.0166,0 3.65134,-2.66517 3.65134,-5.95286"
         style="fill:none;stroke:#000000;stroke-width:0.797;stroke-linecap:butt;stroke-linejoin:bevel;stroke-miterlimit:10;stroke-dasharray:none;stroke-opacity:1"
         transform="matrix(1.3333333,0,0,-1.3333333,200.70933,461.804)" /><g
         id="g76"
         aria-label="L&#10;1"
         transform="matrix(1.3333333,0,0,1.3333333,419.98133,297.60267)"><path
           id="path77"
           d="m 6.4095078,-2.4617656 c 0,-0.035156 -0.035156,-0.1054688 -0.1289062,-0.1054688 -0.082031,0 -0.09375,0.046875 -0.1640625,0.2109375 -0.3398438,0.9140625 -0.7734375,2.05078127 -2.4960938,2.05078127 h -0.9375 c -0.140625,0 -0.1640625,0 -0.2226562,-0.0117188 -0.1054688,-0.0117188 -0.1289063,-0.0234375 -0.1289063,-0.10546875 0,-0.0234375 0,-0.046875 0.046875,-0.22265625 L 3.7259141,-6.0242656 c 0.09375,-0.3632813 0.1171875,-0.46875 1.0546875,-0.46875 0.3046875,0 0.375,0 0.375,-0.1875 0,-0.1289063 -0.1054688,-0.1289063 -0.1523438,-0.1289063 l -1.4765625,0.035156 -1.3242187,-0.035156 c -0.070312,0 -0.1875,0 -0.1875,0.1992188 0,0.1171875 0.082031,0.1171875 0.28125,0.1171875 0,0 0.1992187,0 0.375,0.011719 0.1757812,0.023437 0.2695312,0.035156 0.2695312,0.1640625 0,0.035156 -0.011719,0.070312 -0.046875,0.1875 l -1.3359375,5.35546877 c -0.09375,0.38671875 -0.1171875,0.46875 -0.90234374,0.46875 -0.1640625,0 -0.26953125,0 -0.26953125,0.19921875 0,0.105468755 0.09375,0.105468755 0.26953125,0.105468755 H 5.2727891 c 0.234375,0 0.2460937,0 0.3046875,-0.164062505 L 6.3626328,-2.3211406 c 0.046875,-0.1054688 0.046875,-0.140625 0.046875,-0.140625 z m 0,0"
           style="fill:#000000;fill-opacity:1;fill-rule:nonzero;stroke:none" /><path
           id="path78"
           d="M 10.071617,1.4933125 V 1.2472187 H 9.8138047 c -0.703125,0 -0.703125,-0.09375 -0.703125,-0.32812495 V -2.936375 c 0,-0.1875 -0.011719,-0.1992188 -0.2109375,-0.1992188 -0.4453125,0.4335938 -1.078125,0.4453125 -1.359375,0.4453125 v 0.2460938 c 0.1640625,0 0.6210937,0 1.0078125,-0.1875 v 3.55078125 c 0,0.23437495 0,0.32812495 -0.6914063,0.32812495 H 7.5872422 V 1.4933125 L 8.8294297,1.469875 Z m 0,0"
           style="fill:#000000;fill-opacity:1;fill-rule:nonzero;stroke:none" /></g><path
         id="path79"
         d="M 201.54588,125.29295 V 101.4815 m 7.93695,23.81145 V 101.4815"
         style="fill:none;stroke:#000000;stroke-width:0.797;stroke-linecap:butt;stroke-linejoin:miter;stroke-miterlimit:10;stroke-dasharray:none;stroke-opacity:1"
         transform="matrix(1.3333333,0,0,-1.3333333,200.70933,461.804)" /><g
         id="g79"
         aria-label="C&#10;1"
         transform="matrix(1.3333333,0,0,1.3333333,466.99867,288.872)"><path
           id="path80"
           d="m 6.4463125,-2.3913047 c 0,-0.1054687 -0.1171875,-0.1054687 -0.1171875,-0.1054687 -0.058594,0 -0.1171875,0.023437 -0.1289062,0.1054687 -0.09375,0.2929688 -0.3164063,0.9960938 -1.0078125,1.57031251 -0.6914063,0.5625 -1.3125,0.7265625 -1.8398438,0.7265625 -0.890625,0 -1.9453125,-0.515625 -1.9453125,-2.06250001 0,-0.5742187 0.2109375,-2.1914062 1.2070313,-3.3515625 0.609375,-0.703125 1.5351562,-1.2070312 2.4257812,-1.2070312 1.0195313,0 1.6054688,0.7734375 1.6054688,1.921875 0,0.3984375 -0.035156,0.4101562 -0.035156,0.5039062 0,0.1054688 0.1171875,0.1054688 0.1523438,0.1054688 0.1289062,0 0.1289062,-0.023437 0.1757812,-0.1992188 l 0.6328125,-2.5429687 c 0,-0.023437 -0.023437,-0.09375 -0.1054687,-0.09375 -0.035156,0 -0.046875,0.011719 -0.1523438,0.1171875 l -0.703125,0.7617187 c -0.082031,-0.140625 -0.5390625,-0.8789062 -1.6523437,-0.8789062 -2.2148438,0 -4.45312505,2.203125 -4.45312505,4.5117187 0,1.64062501 1.17187505,2.73046876 2.69531255,2.73046876 0.8671875,0 1.6171875,-0.3984375 2.1445312,-0.85546875 0.9375,-0.82031251 1.1015625,-1.72265621 1.1015622,-1.75781251 z m 0,0"
           style="fill:#000000;fill-opacity:1;fill-rule:nonzero;stroke:none" /><path
           id="path81"
           d="M 10.413109,1.4934609 V 1.2473672 h -0.257812 c -0.7031251,0 -0.7031251,-0.09375 -0.7031251,-0.32812501 V -2.9362266 c 0,-0.1875 -0.011719,-0.1992187 -0.2109375,-0.1992187 -0.4453125,0.4335937 -1.078125,0.4453125 -1.359375,0.4453125 v 0.2460937 c 0.1640625,0 0.6210937,0 1.0078125,-0.1875 v 3.55078129 c 0,0.23437501 0,0.32812501 -0.6914063,0.32812501 H 7.9287344 v 0.2460937 l 1.2421875,-0.023437 z m 0,0"
           style="fill:#000000;fill-opacity:1;fill-rule:nonzero;stroke:none" /></g><path
         id="path82"
         d="m 235.73035,113.22784 c 0,3.28769 1.63475,5.95286 3.65135,5.95286 2.0166,0 3.65135,-2.66517 3.65135,-5.95286 0,-1.64376 -0.66626,-2.97627 -1.48815,-2.97627 -0.82186,0 -1.48812,1.33251 -1.48812,2.97627 0,3.28769 1.63473,5.95286 3.65133,5.95286 2.01662,0 3.65136,-2.66517 3.65136,-5.95286 0,-1.64376 -0.66627,-2.97627 -1.48813,-2.97627 -0.82189,0 -1.48814,1.33251 -1.48814,2.97627 0,3.28769 1.63474,5.95286 3.65135,5.95286 2.0166,0 3.65135,-2.66517 3.65135,-5.95286 0,-1.64376 -0.66626,-2.97627 -1.48815,-2.97627 -0.82188,0 -1.48812,1.33251 -1.48812,2.97627 0,3.28769 1.63473,5.95286 3.65133,5.95286 2.0166,0 3.65135,-2.66517 3.65135,-5.95286 0,-1.64376 -0.66626,-2.97627 -1.48812,-2.97627 -0.82189,0 -1.48815,1.33251 -1.48815,2.97627 0,3.28769 1.63475,5.95286 3.65136,5.95286 2.0166,0 3.65133,-2.66517 3.65133,-5.95286"
         style="fill:none;stroke:#000000;stroke-width:0.797;stroke-linecap:butt;stroke-linejoin:bevel;stroke-miterlimit:10;stroke-dasharray:none;stroke-opacity:1"
         transform="matrix(1.3333333,0,0,-1.3333333,200.70933,461.804)" /><g
         id="g82"
         aria-label="4.3nH"
         transform="matrix(1.3333333,0,0,1.3333333,512.04667,297.60267)"><path
           id="path83"
           d="M 4.6876563,-1.6414531 V -1.9578594 H 3.6915625 v -4.5234375 c 0,-0.1992187 0,-0.2578125 -0.1523437,-0.2578125 -0.09375,0 -0.1171875,0 -0.1992188,0.1171875 l -3.05859375,4.6640625 v 0.3164063 H 2.9298438 v 0.86718747 c 0,0.3515625 -0.023437,0.46875 -0.7617188,0.46875 H 1.9571875 v 0.304687505 c 0.4101563,-0.035156255 0.9375,-0.035156255 1.3476563,-0.035156255 0.421875,0 0.9492187,0 1.359375,0.035156255 V -0.30551563 H 4.4532813 c -0.7382813,0 -0.7617188,-0.1171875 -0.7617188,-0.46875 V -1.6414531 Z M 2.9884375,-1.9578594 H 0.56265625 L 2.9884375,-5.6727031 Z m 0,0"
           style="fill:#000000;fill-opacity:1;fill-rule:nonzero;stroke:none" /><path
           id="path84"
           d="m 6.8907813,-0.52817188 c 0,-0.29296875 -0.234375,-0.52734372 -0.5273438,-0.52734372 -0.28125,0 -0.5273437,0.23437497 -0.5273437,0.52734372 0,0.29296875 0.2460937,0.527343755 0.5273437,0.527343755 0.2929688,0 0.5273438,-0.234375005 0.5273438,-0.527343755 z m 0,0"
           style="fill:#000000;fill-opacity:1;fill-rule:nonzero;stroke:none" /><path
           id="path85"
           d="m 12.296055,-1.7000469 c 0,-0.8203125 -0.621094,-1.59375 -1.652344,-1.8046875 0.808594,-0.2695312 1.394531,-0.9726562 1.394531,-1.7578125 0,-0.8203125 -0.878906,-1.3710937 -1.839844,-1.3710937 -1.0078121,0 -1.7578121,0.5976562 -1.7578121,1.3476562 0,0.3398438 0.2109375,0.5273438 0.5039063,0.5273438 0.3046875,0 0.5039062,-0.2226563 0.5039062,-0.515625 0,-0.4921875 -0.46875,-0.4921875 -0.609375,-0.4921875 0.3046875,-0.4921875 0.9609375,-0.6210938 1.3242186,-0.6210938 0.410156,0 0.949219,0.2226563 0.949219,1.1132813 0,0.1289062 -0.01172,0.703125 -0.269531,1.1367187 -0.304688,0.4804688 -0.644532,0.515625 -0.8906253,0.515625 -0.082031,0.011719 -0.3164063,0.035156 -0.3867188,0.035156 -0.082031,0.011719 -0.1523437,0.023437 -0.1523437,0.1171875 0,0.1171875 0.070312,0.1171875 0.234375,0.1171875 H 10.09293 c 0.808593,0 1.183593,0.6679687 1.183593,1.6523437 0,1.34765627 -0.691406,1.64062502 -1.125,1.64062502 -0.4335933,0 -1.1718746,-0.17578125 -1.5234371,-0.76171875 0.3515625,0.0585938 0.65625,-0.1640625 0.65625,-0.53906247 0,-0.3632813 -0.2695312,-0.5625 -0.5625,-0.5625 -0.234375,0 -0.5507812,0.140625 -0.5507812,0.5742187 0,0.91406252 0.9257812,1.57031252 2.0039063,1.57031252 1.21875,0 2.121094,-0.9140625 2.121094,-1.92187472 z m 0,0"
           style="fill:#000000;fill-opacity:1;fill-rule:nonzero;stroke:none" /><path
           id="path86"
           d="M 21.383945,-8.28125e-4 V -0.30551563 c -0.515625,0 -0.773437,0 -0.785156,-0.3046875 V -2.5086406 c 0,-0.8554688 0,-1.171875 -0.304687,-1.5234375 -0.140625,-0.1757813 -0.46875,-0.375 -1.042969,-0.375 -0.726563,0 -1.195313,0.4335937 -1.476563,1.0546875 v -1.0546875 l -1.40625,0.1171875 v 0.3046875 c 0.703125,0 0.785157,0.070312 0.785157,0.5625 v 2.66015622 c 0,0.45703125 -0.117188,0.45703125 -0.785157,0.45703125 v 0.304687505 l 1.125,-0.035156255 1.113282,0.035156255 V -0.30551563 c -0.65625,0 -0.773438,0 -0.773438,-0.45703125 V -2.5906719 c 0,-1.03125 0.714844,-1.59375 1.347656,-1.59375 0.621094,0 0.738282,0.5390625 0.738282,1.1015625 v 2.32031252 c 0,0.45703125 -0.117188,0.45703125 -0.773438,0.45703125 v 0.304687505 l 1.125,-0.035156255 z m 7.338868,0 V -0.30551563 h -0.246094 c -0.761719,0 -0.785156,-0.1171875 -0.785156,-0.46875 V -6.0242656 c 0,-0.3632813 0.02344,-0.46875 0.785156,-0.46875 h 0.246094 v -0.3164063 c -0.351563,0.035156 -1.089844,0.035156 -1.464844,0.035156 -0.386719,0 -1.125,0 -1.476563,-0.035156 v 0.3164063 h 0.234375 c 0.773438,0 0.785157,0.1054687 0.785157,0.46875 v 2.3320312 h -2.976563 v -2.3320312 c 0,-0.3632813 0.02344,-0.46875 0.785156,-0.46875 h 0.246094 v -0.3164063 c -0.351562,0.035156 -1.089844,0.035156 -1.464844,0.035156 -0.375,0 -1.125,0 -1.476562,-0.035156 v 0.3164063 h 0.234375 c 0.773437,0 0.796875,0.1054687 0.796875,0.46875 v 5.24999997 c 0,0.3515625 -0.02344,0.46875 -0.796875,0.46875 h -0.234375 v 0.304687505 c 0.351562,-0.035156255 1.089844,-0.035156255 1.464844,-0.035156255 0.375,0 1.125,0 1.476562,0.035156255 V -0.30551563 h -0.246094 c -0.761718,0 -0.785156,-0.1171875 -0.785156,-0.46875 V -3.3875469 h 2.976563 v 2.61328127 c 0,0.3515625 -0.01172,0.46875 -0.785157,0.46875 h -0.234375 v 0.304687505 c 0.351563,-0.035156255 1.089844,-0.035156255 1.464844,-0.035156255 0.375,0 1.125,0 1.476563,0.035156255 z m 0,0"
           style="fill:#000000;fill-opacity:1;fill-rule:nonzero;stroke:none" /></g><path
         id="path87"
         d="m 283.4681,28.3468 v 26.64601 m 0,31.7484 v 26.64603"
         style="fill:none;stroke:#000000;stroke-width:0.3985;stroke-linecap:butt;stroke-linejoin:miter;stroke-miterlimit:10;stroke-dasharray:none;stroke-opacity:1"
         transform="matrix(1.3333333,0,0,-1.3333333,200.70933,461.804)" /><path
         id="path88"
         d="m 283.4681,54.59431 -5.95286,3.07741 11.9057,5.35782 -11.9057,5.35782 11.9057,5.3578 -11.9057,5.35782 11.9057,5.35782 -5.95284,2.67891"
         style="fill:none;stroke:#000000;stroke-width:0.797;stroke-linecap:butt;stroke-linejoin:bevel;stroke-miterlimit:10;stroke-dasharray:none;stroke-opacity:1"
         transform="matrix(1.3333333,0,0,-1.3333333,200.70933,461.804)" /><path
         id="path89"
         d="M 4.1731719,-1.640625e-4 V -0.30485156 H 3.8567656 c -0.9023437,0 -0.9257812,-0.1171875 -0.9257812,-0.48046875 V -6.3751641 c 0,-0.234375 0,-0.2578125 -0.234375,-0.2578125 -0.609375,0.6328125 -1.4882813,0.6328125 -1.80468753,0.6328125 v 0.3164063 c 0.19921873,0 0.78515623,0 1.30078123,-0.2578125 v 5.15624999 c 0,0.3515625 -0.035156,0.48046875 -0.9257812,0.48046875 H 0.95051562 V -1.640625e-4 C 1.3020781,-0.03532031 2.1575469,-0.03532031 2.5559844,-0.03532031 c 0.3984375,0 1.265625,0 1.6171875,0.0351562475 z M 9.5286406,-1.6993828 c 0,-0.8203125 -0.6210937,-1.59375 -1.6523437,-1.8046875 0.8085937,-0.2695313 1.3945312,-0.9726563 1.3945312,-1.7578125 0,-0.8203125 -0.8789062,-1.3710938 -1.8398437,-1.3710938 -1.0078125,0 -1.7578125,0.5976563 -1.7578125,1.3476563 0,0.3398437 0.2109375,0.5273437 0.5039062,0.5273437 0.3046875,0 0.5039063,-0.2226562 0.5039063,-0.515625 0,-0.4921875 -0.46875,-0.4921875 -0.609375,-0.4921875 0.3046875,-0.4921875 0.9609375,-0.6210937 1.3242187,-0.6210937 0.4101563,0 0.9492188,0.2226562 0.9492188,1.1132812 0,0.1289063 -0.011719,0.703125 -0.2695313,1.1367188 -0.3046875,0.4804687 -0.6445312,0.515625 -0.890625,0.515625 -0.082031,0.011719 -0.3164062,0.035156 -0.3867187,0.035156 -0.082031,0.011719 -0.1523438,0.023437 -0.1523438,0.1171875 0,0.1171875 0.070312,0.1171875 0.234375,0.1171875 h 0.4453125 c 0.8085938,0 1.1835938,0.6679688 1.1835938,1.6523438 0,1.34765624 -0.6914063,1.64062499 -1.125,1.64062499 -0.4335938,0 -1.171875,-0.17578125 -1.5234375,-0.76171875 0.3515625,0.0585938 0.65625,-0.1640625 0.65625,-0.53906254 0,-0.3632812 -0.2695313,-0.5625 -0.5625,-0.5625 -0.234375,0 -0.5507813,0.140625 -0.5507813,0.5742188 0,0.91406249 0.9257813,1.57031249 2.0039063,1.57031249 1.21875,0 2.1210937,-0.9140625 2.1210937,-1.92187479 z m 10.4912114,0.082031 h -0.246094 c -0.04687,0.2578125 -0.08203,0.4921875 -0.175781,0.72656254 -0.04687,0.1640625 -0.08203,0.24609375 -0.65625,0.24609375 h -0.796875 c 0.128906,-0.56249999 0.433593,-1.04296879 0.878906,-1.69921879 0.46875,-0.703125 0.878906,-1.3945312 0.878906,-2.1796875 0,-1.3828125 -1.335937,-2.4960937 -3.023437,-2.4960937 -1.710938,0 -3.035157,1.1367187 -3.035157,2.4960937 0,0.7851563 0.398438,1.4765625 0.867188,2.1796875 0.445312,0.65625 0.761719,1.1367188 0.890625,1.69921879 h -0.796875 c -0.574219,0 -0.609375,-0.0820313 -0.65625,-0.234375 -0.08203,-0.22265629 -0.128906,-0.48046879 -0.175781,-0.73828129 h -0.257813 l 0.328125,1.6171875375 h 1.59375 c 0.222656,0 0.257813,0 0.257813,-0.2109374975 0,-0.69140625 -0.316407,-1.57031254 -0.539063,-2.21484374 -0.210937,-0.5742188 -0.492187,-1.359375 -0.492187,-2.109375 0,-1.59375 1.101562,-2.2734375 2.003906,-2.2734375 0.960937,0 2.015625,0.7265625 2.015625,2.2734375 0,0.75 -0.269531,1.5117187 -0.5625,2.3203125 -0.152344,0.421875 -0.46875,1.31249999 -0.46875,2.00390624 0,0.2109374975 0.03516,0.2109374975 0.257812,0.2109374975 h 1.582032 z m 0,0"
         style="fill:#000000;fill-opacity:1;fill-rule:nonzero;stroke:none"
         aria-label="13Ω"
         transform="matrix(1.3333333,0,0,1.3333333,589.53733,370.176)" /><path
         id="path90"
         d="M -62.36288,42.5202 V 98.8153"
         style="fill:none;stroke:#000000;stroke-width:0.3985;stroke-linecap:butt;stroke-linejoin:miter;stroke-miterlimit:10;stroke-dasharray:none;stroke-opacity:1"
         transform="matrix(1.3333333,0,0,-1.3333333,200.70933,461.804)" /><path
         id="path91"
         d="M -2.07224,2.39104 C -1.69365,0.95639 -0.84999,0.27895 0,0 -0.84999,-0.27895 -1.69365,-0.95639 -2.07224,-2.39104"
         style="fill:none;stroke:#000000;stroke-width:0.3985;stroke-linecap:round;stroke-linejoin:round;stroke-miterlimit:10;stroke-dasharray:none;stroke-opacity:1"
         transform="matrix(0,-1.3333333,-1.3333333,0,117.55883,329.78457)" /><g
         id="g91"
         aria-label="28V"
         transform="matrix(1.3333333,0,0,1.3333333,81.045333,371.89067)"><path
           id="path92"
           d="M 4.4777188,-1.7344063 H 4.2199063 C 4.1730313,-1.4297188 4.1027188,-0.996125 4.0089688,-0.84378125 3.9386563,-0.76175 3.2824063,-0.76175 3.05975,-0.76175 H 1.2667813 L 2.3214688,-1.793 c 1.5585937,-1.3710938 2.15625,-1.9101563 2.15625,-2.90625 0,-1.1367188 -0.9023438,-1.9335938 -2.1210938,-1.9335938 -1.125,0 -1.8515625,0.9140625 -1.8515625,1.8046875 0,0.5507813 0.4921875,0.5507813 0.5273438,0.5507813 0.1640625,0 0.515625,-0.1171875 0.515625,-0.5273438 0,-0.2578125 -0.1875,-0.515625 -0.5273438,-0.515625 -0.0820313,0 -0.10546875,0 -0.12890625,0.011719 C 1.1144375,-5.9531563 1.6535,-6.3281563 2.2277188,-6.3281563 c 0.9140625,0 1.3359375,0.8085938 1.3359375,1.6289063 0,0.796875 -0.4921875,1.5820312 -1.0429688,2.203125 L 0.61053125,-0.3633125 C 0.5050625,-0.25784375 0.5050625,-0.23440625 0.5050625,-3.125e-5 H 4.1964688 Z M 9.5285,-1.6758125 c 0,-0.3515625 -0.1054687,-0.8085938 -0.4804687,-1.21875 C 8.8605313,-3.1055 8.6964688,-3.2109688 8.0636563,-3.6094063 8.7785,-3.9726875 9.2706875,-4.4883125 9.2706875,-5.1445625 c 0,-0.9257813 -0.890625,-1.4882813 -1.7929687,-1.4882813 -0.9960938,0 -1.8046875,0.7382813 -1.8046875,1.6640625 0,0.1757813 0.011719,0.6210938 0.4335937,1.0898438 0.1054688,0.1289062 0.4804688,0.375 0.7265625,0.5390625 C 6.2589688,-3.0469063 5.4035,-2.496125 5.4035,-1.5000313 c 0,1.05468755 1.0078125,1.7226563 2.0625,1.7226563 1.125,0 2.0625,-0.83203125 2.0625,-1.8984375 z m -0.703125,-3.46875 c 0,0.5625 -0.3867187,1.0429687 -0.984375,1.3945312 L 6.6105313,-4.5469063 C 6.1417813,-4.8515938 6.106625,-5.1914375 6.106625,-5.3555 c 0,-0.609375 0.6445313,-1.03125 1.359375,-1.03125 0.7265625,0 1.359375,0.515625 1.359375,1.2421875 z m 0.2109375,3.8320312 c 0,0.7382813 -0.75,1.2539063 -1.5585937,1.2539063 -0.8671875,0 -1.5820313,-0.62109375 -1.5820313,-1.4414063 0,-0.5859375 0.3164063,-1.21875 1.171875,-1.6875 l 1.21875,0.7734375 c 0.28125,0.1875 0.75,0.4921875 0.75,1.1015625 z m 0,0"
           style="fill:#000000;fill-opacity:1;fill-rule:nonzero;stroke:none" /><path
           id="path93"
           d="M 20.561703,-6.4922188 V -6.808625 c -0.316406,0.023437 -0.714844,0.035156 -0.972656,0.035156 l -1.136719,-0.035156 v 0.3164062 c 0.515625,0.011719 0.726563,0.2695313 0.726563,0.4921875 0,0.082031 -0.02344,0.140625 -0.04687,0.1992188 l -1.828125,4.8046875 -1.898438,-5.0273438 c -0.05859,-0.140625 -0.05859,-0.1875 -0.05859,-0.1875 0,-0.28125 0.5625,-0.28125 0.820313,-0.28125 V -6.808625 c -0.363281,0.035156 -1.054688,0.035156 -1.429688,0.035156 l -1.265625,-0.035156 v 0.3164062 c 0.644532,0 0.84375,0 0.972657,0.375 l 2.320312,6.11718755 c 0.07031,0.1875 0.117188,0.22265625 0.246094,0.22265625 0.164062,0 0.1875,-0.0585938 0.234375,-0.1875 l 2.226562,-5.859375 c 0.140625,-0.375 0.410157,-0.65625 1.089844,-0.6679688 z m 0,0"
           style="fill:#000000;fill-opacity:1;fill-rule:nonzero;stroke:none" /></g><path
         id="path94"
         d="M 53.85875,42.5202 V 98.8153"
         style="fill:none;stroke:#000000;stroke-width:0.3985;stroke-linecap:butt;stroke-linejoin:miter;stroke-miterlimit:10;stroke-dasharray:none;stroke-opacity:1"
         transform="matrix(1.3333333,0,0,-1.3333333,200.70933,461.804)" /><path
         id="path95"
         d="M -2.07224,2.39104 C -1.69365,0.95639 -0.84999,0.27895 0,0 -0.84999,-0.27895 -1.69365,-0.95639 -2.07224,-2.39104"
         style="fill:none;stroke:#000000;stroke-width:0.3985;stroke-linecap:round;stroke-linejoin:round;stroke-miterlimit:10;stroke-dasharray:none;stroke-opacity:1"
         transform="matrix(0,-1.3333333,-1.3333333,0,272.521,329.78457)" /><g
         id="g95"
         aria-label="v&#10;s&#10;(ωt)"
         transform="matrix(1.3333333,0,0,1.3333333,231.848,370.636)"><path
           id="path96"
           d="m 4.6638047,-3.7025859 c 0,-0.5390625 -0.2578125,-0.703125 -0.4453125,-0.703125 -0.2460938,0 -0.4804688,0.2578125 -0.4804688,0.4804687 0,0.1289063 0.046875,0.1875 0.1523438,0.3046875 0.2109375,0.1992188 0.3398437,0.4570313 0.3398437,0.8085938 0,0.421875 -0.609375,2.70703121 -1.7695312,2.70703121 -0.5039063,0 -0.7382813,-0.3515625 -0.7382813,-0.8671875 0,-0.56250001 0.2695313,-1.28906251 0.5742188,-2.12109371 0.070312,-0.1640625 0.1289062,-0.3046875 0.1289062,-0.4921875 0,-0.4453125 -0.328125,-0.8203125 -0.8203125,-0.8203125 -0.93749996,0 -1.31249996,1.453125 -1.31249996,1.5351562 0,0.1054688 0.1171875,0.1054688 0.1171875,0.1054688 0.09375,0 0.10546875,-0.023437 0.15234375,-0.1875 0.29296875,-0.9960938 0.72656251,-1.2304688 1.00781251,-1.2304688 0.082031,0 0.2578125,0 0.2578125,0.3164063 0,0.2460937 -0.1054688,0.515625 -0.1757813,0.703125 -0.4335937,1.1484375 -0.5625,1.6054687 -0.5625,2.0390625 0,1.07812496 0.8671875,1.23046871 1.3359375,1.23046871 1.6640625,0 2.2382813,-3.29296871 2.2382813,-3.80859371 z m 0,0"
           style="fill:#000000;fill-opacity:1;fill-rule:nonzero;stroke:none" /><path
           id="path97"
           d="m 7.9684922,0.41655469 c 0,-0.64453125 -0.703125,-0.7734375 -0.9609375,-0.8203125 -0.070312,-0.0117188 -0.2460938,-0.0351563 -0.28125,-0.0585938 -0.2578125,-0.046875 -0.3867188,-0.1875 -0.3867188,-0.33984375 0,-0.1640625 0.1289063,-0.35156254 0.28125,-0.44531254 0.1875,-0.1289062 0.4335938,-0.140625 0.5507813,-0.140625 0.140625,0 0.5039062,0.023437 0.65625,0.2578125 -0.1757813,0.046875 -0.2929688,0.18750004 -0.2929688,0.32812504 0,0.1640625 0.140625,0.22265625 0.234375,0.22265625 0.070312,0 0.3398438,-0.0351563 0.3398438,-0.3984375 0,-0.44531249 -0.5039063,-0.59765619 -0.9257813,-0.59765619 -1.0898437,0 -1.2890625,0.79687494 -1.2890625,1.00781244 0,0.2578125 0.1523438,0.43359375 0.2460938,0.515625 0.1757812,0.140625 0.3046875,0.1640625 0.7851562,0.24609375 0.1523438,0.0351563 0.5976563,0.1171875 0.5976563,0.46875 0,0.1171875 -0.082031,0.37500001 -0.375,0.55078131 -0.2695313,0.1523437 -0.609375,0.1523437 -0.6914063,0.1523437 -0.28125,0 -0.6796875,-0.058594 -0.84375,-0.2929687 0.234375,-0.023437 0.3867188,-0.19921881 0.3867188,-0.39843756 0,-0.1640625 -0.1289063,-0.2578125 -0.2695313,-0.2578125 -0.1992187,0 -0.4101562,0.1640625 -0.4101562,0.46875 0,0.42187506 0.4453125,0.67968756 1.125,0.67968756 1.2890625,0 1.5234375,-0.87890631 1.5234375,-1.14843751 z m 0,0"
           style="fill:#000000;fill-opacity:1;fill-rule:nonzero;stroke:none" /><path
           id="path98"
           d="m 12.380602,2.3911641 c 0,-0.035156 0,-0.046875 -0.164063,-0.2226563 -1.242187,-1.25390624 -1.570312,-3.12890624 -1.570312,-4.6640625 0,-1.7226562 0.386718,-3.4570312 1.605468,-4.7109375 0.128907,-0.1171875 0.128907,-0.1289062 0.128907,-0.1640625 0,-0.070312 -0.03516,-0.1054687 -0.09375,-0.1054687 -0.105469,0 -0.996094,0.6796875 -1.582032,1.9453125 -0.515625,1.1015625 -0.632812,2.203125 -0.632812,3.0351562 0,0.7851563 0.117187,1.99218751 0.65625,3.11718751 0.597656,1.21874999 1.453125,1.87499999 1.558594,1.87499999 0.05859,0 0.09375,-0.035156 0.09375,-0.1054687 z m 0,0"
           style="fill:#000000;fill-opacity:1;fill-rule:nonzero;stroke:none" /><path
           id="path99"
           d="m 18.749742,-2.3783672 c 0.105469,-0.4335937 0.222656,-0.9257812 0.222656,-1.3242187 0,-0.2578125 -0.04687,-0.4804688 -0.199218,-0.609375 -0.05859,-0.058594 -0.128907,-0.09375 -0.222657,-0.09375 -0.117187,0 -0.246093,0.058594 -0.351562,0.1640625 -0.09375,0.09375 -0.140625,0.2109375 -0.140625,0.3164062 0,0.1054688 0.04687,0.1757813 0.117187,0.2460938 0.246094,0.2226562 0.375,0.5273437 0.375,0.8789062 0,0.1171875 -0.01172,0.2460938 -0.04687,0.375 -0.222656,0.9023438 -0.796875,1.81640626 -1.59375,1.81640626 -0.550781,0 -0.878906,-0.375 -0.972656,-0.89062496 0.128906,-0.28125 0.234375,-0.5859375 0.304688,-0.8789063 0.01172,-0.09375 0.03516,-0.1757812 0.03516,-0.2578125 0,-0.1523437 -0.04687,-0.2578125 -0.1875,-0.2578125 -0.1875,0 -0.292969,0.2460938 -0.339844,0.46875 -0.08203,0.3046875 -0.117187,0.5976563 -0.128906,0.890625 -0.328125,0.53906251 -0.808594,0.92578126 -1.359375,0.92578126 -0.597656,0 -0.867188,-0.49218746 -0.867188,-1.12499996 0,-0.1992188 0.03516,-0.421875 0.08203,-0.6445313 0.152343,-0.5976562 0.515625,-1.1601562 0.890625,-1.6875 0.02344,-0.035156 0.04687,-0.082031 0.04687,-0.1289062 0,-0.058594 -0.03516,-0.1054688 -0.09375,-0.140625 -0.02344,-0.011719 -0.05859,-0.011719 -0.08203,-0.011719 -0.05859,0 -0.128906,0.023437 -0.175781,0.082031 -0.410156,0.5742187 -0.667969,1.2070312 -0.820312,1.8398437 -0.105469,0.375 -0.152344,0.7617188 -0.152344,1.1132813 0,0.80859371 0.292969,1.41796871 1.042969,1.41796871 0.632812,0 1.148437,-0.43359375 1.523437,-1.0546875 0.117188,0.62109375 0.457031,1.0546875 1.125,1.0546875 1.042969,0 1.664063,-1.27734371 1.96875,-2.48437501 z m 3.902344,0.9492188 c 0,-0.09375 -0.08203,-0.09375 -0.117188,-0.09375 -0.09375,0 -0.105468,0.023437 -0.152343,0.140625 -0.433594,1.03124996 -0.960938,1.27734371 -1.300782,1.27734371 -0.199218,0 -0.304687,-0.12890625 -0.304687,-0.45703125 0,-0.24609375 0.02344,-0.31640625 0.05859,-0.48046876 l 0.738281,-2.9414062 h 0.9375 c 0.199219,0 0.304687,0 0.304687,-0.1992188 0,-0.1054687 -0.105468,-0.1054687 -0.28125,-0.1054687 h -0.878906 c 0.363281,-1.4179688 0.410156,-1.6171875 0.410156,-1.6757813 0,-0.1757812 -0.117187,-0.2695312 -0.292968,-0.2695312 -0.02344,0 -0.304688,0.011719 -0.398438,0.3515625 l -0.386719,1.59375 h -0.9375 c -0.199218,0 -0.292968,0 -0.292968,0.1875 0,0.1171875 0.07031,0.1171875 0.269531,0.1171875 h 0.878906 c -0.714844,2.8242187 -0.75,2.99999996 -0.75,3.17578121 0,0.5390625 0.375,0.9140625 0.914063,0.9140625 1.007812,0 1.582031,-1.45312501 1.582031,-1.53515621 z m 0,0"
           style="fill:#000000;fill-opacity:1;fill-rule:nonzero;stroke:none" /><path
           id="path100"
           d="m 26.000719,-2.4955547 c 0,-0.7734375 -0.117188,-1.9804687 -0.65625,-3.1054687 -0.597656,-1.21875 -1.464844,-1.875 -1.558594,-1.875 -0.05859,0 -0.105469,0.046875 -0.105469,0.1054687 0,0.035156 0,0.046875 0.199219,0.234375 0.972656,0.984375 1.535156,2.5664063 1.535156,4.640625 0,1.71093751 -0.363281,3.45703126 -1.59375,4.7226563 -0.140625,0.1171875 -0.140625,0.1289062 -0.140625,0.1640625 0,0.058594 0.04687,0.1054687 0.105469,0.1054687 0.09375,0 0.996094,-0.6796875 1.582031,-1.94531249 0.503907,-1.1015625 0.632813,-2.20312501 0.632813,-3.04687501 z m 0,0"
           style="fill:#000000;fill-opacity:1;fill-rule:nonzero;stroke:none" /></g><path
         id="path101"
         d="m 155.90744,141.73404 c 0.4483,0.89666 1.49442,1.49441 2.98883,1.49441 h 22.36914 c 1.49442,0 2.54053,0.59777 2.98883,1.49442 0.44832,-0.89665 1.49442,-1.49442 2.98883,-1.49442 h 22.36916 c 1.49441,0 2.54053,-0.59775 2.98883,-1.49441"
         style="fill:none;stroke:#000000;stroke-width:0.3985;stroke-linecap:butt;stroke-linejoin:miter;stroke-miterlimit:10;stroke-dasharray:none;stroke-opacity:1"
         transform="matrix(1.3333333,0,0,-1.3333333,200.70933,461.804)" /><g
         id="g101"
         aria-label="Tunedtoω"
         transform="matrix(1.3333333,0,0,1.3333333,413.40933,258.50533)"><path
           id="path102"
           d="m 6.8209297,-4.5010703 -0.1875,-2.2382813 H 0.55139844 l -0.1875,2.2382813 h 0.24609375 c 0.140625,-1.6054688 0.29296875,-1.9335938 1.79296871,-1.9335938 0.1757813,0 0.4335938,0 0.5390625,0.023437 0.2109375,0.035156 0.2109375,0.140625 0.2109375,0.375 v 5.25000004 c 0,0.33984375 0,0.48046875 -1.0546875,0.48046875 H 1.6998359 v 0.3046875 c 0.4101563,-0.03515625 1.4296875,-0.03515625 1.8867188,-0.03515625 0.4570312,0 1.4882812,0 1.8984375,0.03515625 v -0.3046875 H 5.0865547 c -1.0546875,0 -1.0546875,-0.140625 -1.0546875,-0.48046875 V -6.0362266 c 0,-0.1992187 0,-0.3398437 0.1875,-0.375 0.1054687,-0.023437 0.375,-0.023437 0.5625,-0.023437 1.5,0 1.6523437,0.328125 1.7929687,1.9335938 z m 4.8779293,4.49999999 v -0.3046875 c -0.703125,0 -0.785156,-0.0703125 -0.785156,-0.5625 V -4.4073203 l -1.4531249,0.1171875 v 0.3046875 c 0.6914059,0 0.7734379,0.070312 0.7734379,0.5625 v 1.7695312 c 0,0.86718754 -0.4804691,1.54687504 -1.2070316,1.54687504 -0.8320313,0 -0.8789063,-0.46875 -0.8789063,-0.99609374 v -3.3046875 l -1.4648437,0.1171875 v 0.3046875 c 0.7851562,0 0.7851562,0.035156 0.7851562,0.9140625 v 1.5 c 0,0.77343749 0,1.67578124 1.5117188,1.67578124 0.5507812,0 0.9960937,-0.26953125 1.2773436,-0.890625 v 0.890625 z m 5.53711,0 v -0.3046875 c -0.515625,0 -0.773438,0 -0.785156,-0.3046875 V -2.5088828 c 0,-0.8554688 0,-1.171875 -0.304688,-1.5234375 -0.140625,-0.1757813 -0.46875,-0.375 -1.042969,-0.375 -0.726562,0 -1.195312,0.4335937 -1.476562,1.0546875 v -1.0546875 l -1.40625,0.1171875 v 0.3046875 c 0.703125,0 0.785156,0.070312 0.785156,0.5625 v 2.66015624 c 0,0.45703125 -0.117187,0.45703125 -0.785156,0.45703125 v 0.3046875 l 1.125,-0.03515625 1.113281,0.03515625 v -0.3046875 c -0.65625,0 -0.773437,0 -0.773437,-0.45703125 V -2.5909141 c 0,-1.03125 0.714843,-1.59375 1.347656,-1.59375 0.621094,0 0.738281,0.5390625 0.738281,1.1015625 v 2.32031254 c 0,0.45703125 -0.117187,0.45703125 -0.773437,0.45703125 v 0.3046875 l 1.125,-0.03515625 z m 4.338867,-1.18359379 c 0,-0.1054687 -0.08203,-0.1171875 -0.128906,-0.1171875 -0.09375,0 -0.117188,0.058594 -0.128907,0.140625 -0.351562,1.01953129 -1.253906,1.01953129 -1.347656,1.01953129 -0.503906,0 -0.902344,-0.29296875 -1.125,-0.66796875 C 18.53968,-1.2901328 18.53968,-1.9463828 18.53968,-2.2979453 h 2.789062 c 0.210938,0 0.246094,0 0.246094,-0.2109375 0,-0.984375 -0.539063,-1.9570313 -1.78125,-1.9570313 -1.160156,0 -2.074219,1.03125 -2.074219,2.2734375 0,1.33593754 1.042969,2.29687504 2.191406,2.29687504 1.21875,0 1.664063,-1.1015625 1.664063,-1.28906254 z m -0.65625,-1.3242187 h -2.367188 c 0.05859,-1.4882813 0.902344,-1.734375 1.242188,-1.734375 1.019531,0 1.125,1.3476562 1.125,1.734375 z m 6.199219,2.50781249 v -0.3046875 c -0.703125,0 -0.773438,-0.0703125 -0.773438,-0.5625 V -6.9151328 l -1.441406,0.1054687 v 0.3164063 c 0.703125,0 0.785156,0.070312 0.785156,0.5507812 v 2.15625 c -0.292969,-0.3632812 -0.726562,-0.6210937 -1.265625,-0.6210937 -1.171875,0 -2.214844,0.984375 -2.214844,2.2617187 0,1.26562504 0.972657,2.25000004 2.109375,2.25000004 0.644532,0 1.089844,-0.33984375 1.335938,-0.65625 v 0.65625 z M 25.652961,-1.1729453 c 0,0.17578124 0,0.19921874 -0.105469,0.36328124 -0.304687,0.48046875 -0.75,0.703125 -1.183594,0.703125 -0.445312,0 -0.796875,-0.2578125 -1.042968,-0.64453125 -0.257813,-0.41015629 -0.292969,-0.97265629 -0.292969,-1.38281249 0,-0.3632813 0.02344,-0.9609375 0.316406,-1.4179688 0.210938,-0.3046875 0.585938,-0.6328125 1.125,-0.6328125 0.351563,0 0.761719,0.1523438 1.078125,0.5976563 0.105469,0.1640625 0.105469,0.1875 0.105469,0.3632812 z m 8.370117,-0.058594 V -1.805758 h -0.246094 v 0.5507812 c 0,0.73828129 -0.304687,1.11328129 -0.667968,1.11328129 -0.667969,0 -0.667969,-0.90234379 -0.667969,-1.07812499 v -2.765625 h 1.429687 V -4.290133 h -1.429687 v -1.8398438 h -0.246094 c -0.01172,0.8203125 -0.316406,1.8867188 -1.289062,1.921875 v 0.2226563 h 0.84375 v 2.7539062 c 0,1.21875004 0.925781,1.33593754 1.289062,1.33593754 0.703125,0 0.984375,-0.703125 0.984375,-1.33593754 z m 5.258789,-0.9023437 c 0,-1.2773438 -0.996094,-2.3320313 -2.191406,-2.3320313 -1.253906,0 -2.214844,1.0898438 -2.214844,2.3320313 0,1.28906249 1.03125,2.23828124 2.203125,2.23828124 1.207031,0 2.203125,-0.97265625 2.203125,-2.23828124 z m -0.820312,-0.082031 c 0,0.3632813 0,0.9023438 -0.222657,1.33593754 -0.222656,0.4453125 -0.65625,0.73828125 -1.148437,0.73828125 -0.433594,0 -0.867188,-0.2109375 -1.136719,-0.66796875 C 35.69593,-1.2432578 35.69593,-1.8526328 35.69593,-2.2159141 c 0,-0.3867187 0,-0.9257812 0.246093,-1.359375 0.269532,-0.4570312 0.738282,-0.6679687 1.136719,-0.6679687 0.433594,0 0.867188,0.2226562 1.125,0.6445312 0.257813,0.4335938 0.257813,1.0078125 0.257813,1.3828126 z m 0,0"
           style="fill:#000000;fill-opacity:1;fill-rule:nonzero;stroke:none" /><path
           id="path103"
           d="m 48.683234,-2.3799766 c 0.105469,-0.4335937 0.222657,-0.9257812 0.222657,-1.3242187 0,-0.2578125 -0.04687,-0.4804688 -0.199219,-0.609375 -0.05859,-0.058594 -0.128906,-0.09375 -0.222656,-0.09375 -0.117188,0 -0.246094,0.058594 -0.351563,0.1640625 -0.09375,0.09375 -0.140625,0.2109375 -0.140625,0.3164062 0,0.1054688 0.04687,0.1757813 0.117188,0.2460938 0.246093,0.2226562 0.375,0.5273437 0.375,0.8789062 0,0.1171875 -0.01172,0.2460938 -0.04687,0.375 -0.222657,0.9023438 -0.796875,1.81640629 -1.59375,1.81640629 -0.550782,0 -0.878907,-0.375 -0.972657,-0.89062499 0.128907,-0.28125 0.234375,-0.5859375 0.304688,-0.8789063 0.01172,-0.09375 0.03516,-0.1757812 0.03516,-0.2578125 0,-0.1523437 -0.04687,-0.2578125 -0.1875,-0.2578125 -0.1875,0 -0.292969,0.2460938 -0.339844,0.46875 -0.08203,0.3046875 -0.117187,0.5976563 -0.128906,0.890625 -0.328125,0.53906254 -0.808594,0.92578129 -1.359375,0.92578129 -0.597656,0 -0.867187,-0.49218749 -0.867187,-1.12499999 0,-0.1992188 0.03516,-0.421875 0.08203,-0.6445313 0.152344,-0.5976562 0.515625,-1.1601562 0.890625,-1.6875 0.02344,-0.035156 0.04687,-0.082031 0.04687,-0.1289062 0,-0.058594 -0.03516,-0.1054688 -0.09375,-0.140625 -0.02344,-0.011719 -0.05859,-0.011719 -0.08203,-0.011719 -0.05859,0 -0.128907,0.023437 -0.175782,0.082031 -0.410156,0.5742187 -0.667968,1.2070312 -0.820312,1.8398437 -0.105469,0.375 -0.152344,0.7617188 -0.152344,1.1132813 0,0.80859374 0.292969,1.41796874 1.042969,1.41796874 0.632812,0 1.148437,-0.43359375 1.523437,-1.0546875 0.117188,0.62109375 0.457032,1.0546875 1.125,1.0546875 1.042969,0 1.664063,-1.27734374 1.96875,-2.48437504 z m 0,0"
           style="fill:#000000;fill-opacity:1;fill-rule:nonzero;stroke:none" /></g><path
         id="path104"
         d="M -42.5202,28.3468 H 283.4681"
         style="fill:none;stroke:#000000;stroke-width:0.3985;stroke-linecap:butt;stroke-linejoin:miter;stroke-miterlimit:10;stroke-dasharray:none;stroke-opacity:1"
         transform="matrix(1.3333333,0,0,-1.3333333,200.70933,461.804)" /><path
         id="path105"
         d="M 70.867,96.37897 V 93.94305"
         style="fill:none;stroke:#000000;stroke-width:0.3985;stroke-linecap:butt;stroke-linejoin:miter;stroke-miterlimit:10;stroke-dasharray:none;stroke-opacity:1"
         transform="matrix(1.3333333,0,0,-1.3333333,200.70933,461.804)" /><path
         id="path106"
         d="M -2.07224,2.39104 C -1.69365,0.95639 -0.84999,0.27895 0,0 -0.84999,-0.27895 -1.69365,-0.95639 -2.07224,-2.39104"
         style="fill:none;stroke:#000000;stroke-width:0.3985;stroke-linecap:round;stroke-linejoin:round;stroke-miterlimit:10;stroke-dasharray:none;stroke-opacity:1"
         transform="matrix(0,1.3333333,1.3333333,0,295.19867,336.81227)" /><g
         id="g106"
         aria-label="i&#10;s&#10;(ωt)"
         transform="matrix(1.3333333,0,0,1.3333333,304.59067,340.4)"><path
           id="path107"
           d="m 2.8236016,-6.2238281 c 0,-0.1992188 -0.1289063,-0.3632813 -0.3632813,-0.3632813 -0.2695312,0 -0.5390625,0.2578125 -0.5390625,0.5273438 0,0.1875 0.140625,0.3632812 0.375,0.3632812 0.234375,0 0.5273438,-0.234375 0.5273438,-0.5273437 z m 0.09375,4.7929687 c 0,-0.09375 -0.09375,-0.09375 -0.1171875,-0.09375 -0.1054688,0 -0.1054688,0.023437 -0.1523438,0.1757813 -0.1757812,0.63281248 -0.5039062,1.24218748 -1.0195312,1.24218748 -0.1640625,0 -0.234375,-0.10546875 -0.234375,-0.328125 0,-0.2578125 0.058594,-0.3984375 0.2929687,-0.99609378 l 0.3867188,-1.0546875 c 0.1171875,-0.28125 0.1171875,-0.3046875 0.2226562,-0.5742187 0.070312,-0.1992188 0.1289063,-0.3398438 0.1289063,-0.5273438 0,-0.4453125 -0.328125,-0.8203125 -0.8203125,-0.8203125 -0.93750004,0 -1.31250004,1.453125 -1.31250004,1.5351563 0,0.1054687 0.1171875,0.1054687 0.1171875,0.1054687 0.09375,0 0.10546875,-0.023437 0.15234375,-0.1875 0.26953125,-0.9375 0.66796879,-1.2304687 1.00781249,-1.2304687 0.082031,0 0.2578125,0 0.2578125,0.3164062 0,0.2109375 -0.070312,0.421875 -0.1171875,0.515625 -0.082031,0.2578125 -0.5273437,1.4179688 -0.6796875,1.8515625 -0.10546874,0.2578125 -0.23437499,0.58593753 -0.23437499,0.79687503 0,0.46875 0.33984379,0.80859375 0.82031249,0.80859375 0.9375,0 1.3007813,-1.44140628 1.3007813,-1.53515628 z m 0,0"
           style="fill:#000000;fill-opacity:1;fill-rule:nonzero;stroke:none" /><path
           id="path108"
           d="m 6.5736016,0.41777344 c 0,-0.64453125 -0.703125,-0.7734375 -0.9609375,-0.8203125 -0.070312,-0.0117188 -0.2460938,-0.0351563 -0.28125,-0.0585938 -0.2578125,-0.046875 -0.3867188,-0.1875 -0.3867188,-0.33984375 0,-0.1640625 0.1289063,-0.35156249 0.28125,-0.44531249 0.1875,-0.1289062 0.4335938,-0.140625 0.5507813,-0.140625 0.140625,0 0.5039062,0.023437 0.65625,0.2578125 -0.1757813,0.046875 -0.2929688,0.18749999 -0.2929688,0.32812499 0,0.1640625 0.140625,0.22265625 0.234375,0.22265625 0.070312,0 0.3398438,-0.0351563 0.3398438,-0.3984375 0,-0.44531244 -0.5039063,-0.59765624 -0.9257813,-0.59765624 -1.0898437,0 -1.2890625,0.79687499 -1.2890625,1.00781249 0,0.2578125 0.1523438,0.43359375 0.2460938,0.515625 0.1757812,0.140625 0.3046875,0.1640625 0.7851562,0.24609375 0.1523438,0.0351563 0.5976563,0.1171875 0.5976563,0.46875 0,0.1171875 -0.082031,0.37499996 -0.375,0.55078116 -0.2695313,0.1523438 -0.609375,0.1523438 -0.6914063,0.1523438 -0.28125,0 -0.6796875,-0.058594 -0.84375,-0.2929688 0.234375,-0.023437 0.3867188,-0.19921866 0.3867188,-0.39843741 0,-0.1640625 -0.1289063,-0.2578125 -0.2695313,-0.2578125 -0.1992187,0 -0.4101562,0.1640625 -0.4101562,0.46875 0,0.42187491 0.4453125,0.67968741 1.125,0.67968741 1.2890625,0 1.5234375,-0.87890616 1.5234375,-1.14843736 z m 0,0"
           style="fill:#000000;fill-opacity:1;fill-rule:nonzero;stroke:none" /><path
           id="path109"
           d="m 10.982781,2.3894531 c 0,-0.035156 0,-0.046875 -0.164062,-0.2226562 -1.2421877,-1.25390627 -1.5703127,-3.12890627 -1.5703127,-4.6640625 0,-1.7226563 0.3867187,-3.4570313 1.6054687,-4.7109375 0.128906,-0.1171875 0.128906,-0.1289063 0.128906,-0.1640625 0,-0.070312 -0.03516,-0.1054688 -0.09375,-0.1054688 -0.105468,0 -0.9960935,0.6796875 -1.582031,1.9453125 -0.515625,1.1015625 -0.6328125,2.203125 -0.6328125,3.0351563 0,0.7851562 0.1171875,1.99218748 0.65625,3.11718748 0.5976563,1.21875002 1.4531255,1.87500002 1.5585935,1.87500002 0.05859,0 0.09375,-0.035156 0.09375,-0.1054688 z m 0,0"
           style="fill:#000000;fill-opacity:1;fill-rule:nonzero;stroke:none" /><path
           id="path110"
           d="m 17.354852,-2.3800781 c 0.105468,-0.4335938 0.222656,-0.9257813 0.222656,-1.3242188 0,-0.2578125 -0.04687,-0.4804687 -0.199219,-0.609375 -0.05859,-0.058594 -0.128906,-0.09375 -0.222656,-0.09375 -0.117188,0 -0.246094,0.058594 -0.351563,0.1640625 -0.09375,0.09375 -0.140625,0.2109375 -0.140625,0.3164063 0,0.1054687 0.04687,0.1757812 0.117188,0.2460937 0.246094,0.2226563 0.375,0.5273438 0.375,0.8789063 0,0.1171875 -0.01172,0.2460937 -0.04687,0.375 -0.222656,0.9023437 -0.796875,1.81640623 -1.59375,1.81640623 -0.550781,0 -0.878906,-0.375 -0.972656,-0.89062503 0.128906,-0.28125 0.234375,-0.5859375 0.304687,-0.8789062 0.01172,-0.09375 0.03516,-0.1757813 0.03516,-0.2578125 0,-0.1523438 -0.04687,-0.2578125 -0.1875,-0.2578125 -0.1875,0 -0.292968,0.2460937 -0.339843,0.46875 -0.08203,0.3046875 -0.117188,0.5976562 -0.128907,0.890625 -0.328125,0.53906248 -0.808593,0.92578123 -1.359375,0.92578123 -0.597656,0 -0.867187,-0.49218753 -0.867187,-1.12500003 0,-0.1992187 0.03516,-0.421875 0.08203,-0.6445312 0.152344,-0.5976563 0.515625,-1.1601563 0.890625,-1.6875 0.02344,-0.035156 0.04687,-0.082031 0.04687,-0.1289063 0,-0.058594 -0.03516,-0.1054687 -0.09375,-0.140625 -0.02344,-0.011719 -0.05859,-0.011719 -0.08203,-0.011719 -0.05859,0 -0.128906,0.023437 -0.175781,0.082031 -0.410157,0.5742188 -0.667969,1.2070313 -0.820313,1.8398438 -0.105469,0.375 -0.152344,0.7617187 -0.152344,1.1132812 0,0.80859378 0.292969,1.41796878 1.042969,1.41796878 0.632813,0 1.148438,-0.43359375 1.523438,-1.0546875 0.117187,0.62109375 0.457031,1.0546875 1.125,1.0546875 1.042968,0 1.664062,-1.27734378 1.96875,-2.48437498 z m 3.899414,0.9492187 c 0,-0.09375 -0.08203,-0.09375 -0.117188,-0.09375 -0.09375,0 -0.105469,0.023437 -0.152344,0.140625 -0.433593,1.03125003 -0.960937,1.27734378 -1.300781,1.27734378 -0.199219,0 -0.304687,-0.12890625 -0.304687,-0.45703125 0,-0.24609375 0.02344,-0.31640625 0.05859,-0.48046873 l 0.738282,-2.9414063 h 0.9375 c 0.199218,0 0.304687,0 0.304687,-0.1992187 0,-0.1054688 -0.105469,-0.1054688 -0.28125,-0.1054688 h -0.878906 c 0.363281,-1.4179687 0.410156,-1.6171875 0.410156,-1.6757812 0,-0.1757813 -0.117187,-0.2695313 -0.292969,-0.2695313 -0.02344,0 -0.304687,0.011719 -0.398437,0.3515625 l -0.386719,1.59375 h -0.9375 c -0.199219,0 -0.292969,0 -0.292969,0.1875 0,0.1171875 0.07031,0.1171875 0.269532,0.1171875 h 0.878906 c -0.714844,2.8242188 -0.75,3.00000003 -0.75,3.17578128 0,0.5390625 0.375,0.9140625 0.914062,0.9140625 1.007813,0 1.582032,-1.45312498 1.582032,-1.53515628 z m 0,0"
           style="fill:#000000;fill-opacity:1;fill-rule:nonzero;stroke:none" /><path
           id="path111"
           d="m 24.602898,-2.4972656 c 0,-0.7734375 -0.117187,-1.9804688 -0.65625,-3.1054688 -0.597656,-1.21875 -1.464843,-1.875 -1.558593,-1.875 -0.05859,0 -0.105469,0.046875 -0.105469,0.1054688 0,0.035156 0,0.046875 0.199219,0.234375 0.972656,0.984375 1.535156,2.5664062 1.535156,4.640625 0,1.71093748 -0.363281,3.45703123 -1.59375,4.7226562 -0.140625,0.1171875 -0.140625,0.1289063 -0.140625,0.1640625 0,0.058594 0.04687,0.1054688 0.105469,0.1054688 0.09375,0 0.996093,-0.6796875 1.582031,-1.94531252 0.503906,-1.1015625 0.632812,-2.20312498 0.632812,-3.04687498 z m 0,0"
           style="fill:#000000;fill-opacity:1;fill-rule:nonzero;stroke:none" /></g><g
         id="g111"
         aria-label="F=0.8GHz"
         transform="matrix(1.3333333,0,0,1.3333333,465.176,409.68667)"><path
           id="path112"
           d="M 7.2537422,-4.780625 7.4529609,-6.5032813 C 7.4763984,-6.7728125 7.4295234,-6.7728125 7.1834297,-6.7728125 H 2.2967109 c -0.1992187,0 -0.2929687,0 -0.2929687,0.1992187 0,0.1054688 0.09375,0.1054688 0.28125,0.1054688 0.3632812,0 0.6445312,0 0.6445312,0.1875 0,0.035156 0,0.058594 -0.046875,0.234375 l -1.3242187,5.2734375 c -0.09375,0.38671875 -0.1171875,0.46875 -0.90234376,0.46875 -0.1640625,0 -0.28125,0 -0.28125,0.1875 0,0.1171875 0.12890625,0.1171875 0.15234375,0.1171875 L 1.8396797,-0.03453125 3.3279609,6.25e-4 c 0.09375,0 0.2109375,0 0.2109375,-0.1875 0,-0.0820313 -0.058594,-0.1171875 -0.058594,-0.1171875 -0.035156,0 -0.058594,0 -0.28125,0 -0.2226563,0 -0.2695313,0 -0.515625,-0.0234375 -0.2929688,-0.0351563 -0.328125,-0.0703125 -0.328125,-0.19921875 0,0 0,-0.0820313 0.046875,-0.234375 L 3.0232734,-3.23375 h 0.9609375 c 0.75,0 0.8320313,0.1523437 0.8320313,0.4453125 0,0.070312 0,0.1875 -0.070312,0.4921875 -0.023437,0.046875 -0.035156,0.1054687 -0.035156,0.1054687 0,0.082031 0.058594,0.1171875 0.1171875,0.1171875 0.1054688,0 0.1054688,-0.023437 0.1523438,-0.2109375 l 0.5507812,-2.15625 c 0.023437,-0.1054687 0.023437,-0.1289062 0.023437,-0.1640625 0,0 -0.011719,-0.1054687 -0.1171875,-0.1054687 -0.09375,0 -0.1054687,0.046875 -0.1523437,0.2109375 -0.1992188,0.7734375 -0.4335938,0.9492187 -1.2773438,0.9492187 H 3.0935859 l 0.6445313,-2.53125 C 3.8201484,-6.42125 3.8318672,-6.468125 4.2771797,-6.468125 h 1.3125 c 1.21875,0 1.453125,0.328125 1.453125,1.1015625 0,0.2226562 0,0.2695312 -0.035156,0.5390625 -0.011719,0.1289062 -0.011719,0.140625 -0.011719,0.1757812 0,0.046875 0.023437,0.1171875 0.1171875,0.1171875 0.1054687,0 0.1171875,-0.058594 0.140625,-0.2460937 z m 0,0"
           style="fill:#000000;fill-opacity:1;fill-rule:nonzero;stroke:none" /><path
           id="path113"
           d="m 17.742023,-3.4564063 c 0,-0.1992187 -0.1875,-0.1992187 -0.328125,-0.1992187 h -5.964843 c -0.140625,0 -0.328125,0 -0.328125,0.1992187 0,0.1992188 0.1875,0.1992188 0.339843,0.1992188 h 5.941407 c 0.152343,0 0.339843,0 0.339843,-0.1992188 z m 0,1.9335938 c 0,-0.1992188 -0.1875,-0.1992188 -0.339843,-0.1992188 h -5.941407 c -0.152343,0 -0.339843,0 -0.339843,0.1992188 0,0.1992187 0.1875,0.1992187 0.328125,0.1992187 h 5.964843 c 0.140625,0 0.328125,0 0.328125,-0.1992187 z m 7.916016,-1.6640625 c 0,-0.796875 -0.04687,-1.59375 -0.398437,-2.3320313 -0.457032,-0.9609375 -1.277344,-1.1132812 -1.6875,-1.1132812 -0.597657,0 -1.335938,0.2578125 -1.734375,1.1835937 -0.328125,0.6914063 -0.375,1.4648438 -0.375,2.2617188 0,0.75 0.04687,1.640625 0.445312,2.40234375 0.433594,0.80859375 1.160156,1.0078125 1.652344,1.0078125 0.539062,0 1.289062,-0.2109375 1.734375,-1.16015625 0.316406,-0.6914063 0.363281,-1.4648438 0.363281,-2.25 z m -0.832031,-0.1171875 c 0,0.75 0,1.4179687 -0.105469,2.0625 -0.152344,0.9375 -0.714844,1.2421875 -1.160156,1.2421875 -0.386719,0 -0.984375,-0.24609375 -1.160156,-1.2070313 -0.105469,-0.5976562 -0.105469,-1.5117187 -0.105469,-2.0976562 0,-0.6445313 0,-1.3007813 0.08203,-1.8398438 0.1875,-1.1835937 0.925781,-1.265625 1.183594,-1.265625 0.328125,0 0.984375,0.1757813 1.171875,1.1601563 0.09375,0.5625 0.09375,1.3125 0.09375,1.9453125 z m 0,0"
           style="fill:#000000;fill-opacity:1;fill-rule:nonzero;stroke:none" /><path
           id="path114"
           d="m 27.966633,-0.52671875 c 0,-0.29296875 -0.234375,-0.52734375 -0.527344,-0.52734375 -0.28125,0 -0.527344,0.234375 -0.527344,0.52734375 0,0.29296875 0.246094,0.52734375 0.527344,0.52734375 0.292969,0 0.527344,-0.234375 0.527344,-0.52734375 z m 0,0"
           style="fill:#000000;fill-opacity:1;fill-rule:nonzero;stroke:none" /><path
           id="path115"
           d="m 33.368977,-1.6751563 c 0,-0.3515625 -0.105469,-0.8085937 -0.480469,-1.21875 -0.1875,-0.2109375 -0.351563,-0.3164062 -0.984375,-0.7148437 0.714844,-0.3632813 1.207031,-0.8789063 1.207031,-1.5351563 0,-0.9257812 -0.890625,-1.4882812 -1.792969,-1.4882812 -0.996093,0 -1.804687,0.7382812 -1.804687,1.6640625 0,0.1757812 0.01172,0.6210937 0.433594,1.0898437 0.105468,0.1289063 0.480468,0.375 0.726562,0.5390625 -0.574219,0.2929688 -1.429687,0.84375 -1.429687,1.8398438 0,1.0546875 1.007812,1.72265625 2.0625,1.72265625 1.125,0 2.0625,-0.83203125 2.0625,-1.89843755 z m -0.703125,-3.46875 c 0,0.5625 -0.386719,1.0429688 -0.984375,1.3945313 L 30.451008,-4.54625 c -0.46875,-0.3046875 -0.503906,-0.6445313 -0.503906,-0.8085938 0,-0.609375 0.644531,-1.03125 1.359375,-1.03125 0.726562,0 1.359375,0.515625 1.359375,1.2421875 z m 0.210937,3.8320313 c 0,0.73828125 -0.75,1.25390625 -1.558594,1.25390625 -0.867187,0 -1.582031,-0.62109375 -1.582031,-1.44140625 0,-0.5859375 0.316406,-1.21875 1.171875,-1.6875 l 1.21875,0.7734375 c 0.28125,0.1875 0.75,0.4921875 0.75,1.1015625 z m 0,0"
           style="fill:#000000;fill-opacity:1;fill-rule:nonzero;stroke:none" /><path
           id="path116"
           d="M 44.449055,-2.4134375 V -2.718125 l -1.21875,0.023437 c -0.398438,0 -1.242188,0 -1.605469,-0.023437 v 0.3046875 h 0.316406 c 0.902344,0 0.925781,0.1171875 0.925781,0.4804687 v 0.6328125 c 0,1.12500005 -1.253906,1.2070313 -1.535156,1.2070313 -0.65625,0 -2.625,-0.33984375 -2.625,-3.3164063 0,-2.9765625 1.96875,-3.3046875 2.566406,-3.3046875 1.066407,0 1.96875,0.9023438 2.167969,2.3671875 0.02344,0.1289063 0.02344,0.1640625 0.164063,0.1640625 0.152343,0 0.152343,-0.035156 0.152343,-0.234375 v -2.3671875 c 0,-0.1640625 0,-0.234375 -0.105468,-0.234375 -0.04687,0 -0.08203,0 -0.164063,0.1171875 l -0.492187,0.7382813 c -0.328125,-0.3164063 -0.855469,-0.8554688 -1.851563,-0.8554688 -1.851562,0 -3.457031,1.5703125 -3.457031,3.609375 0,2.0507813 1.59375,3.63281255 3.480469,3.63281255 0.726562,0 1.523437,-0.2578125 1.863281,-0.85546875 0.128906,0.22265625 0.527344,0.62109375 0.632812,0.62109375 0.09375,0 0.09375,-0.08203125 0.09375,-0.22265625 v -1.734375 c 0,-0.3867188 0.04687,-0.4453125 0.691407,-0.4453125 z M 52.077961,6.25e-4 v -0.3046875 h -0.246094 c -0.761719,0 -0.785156,-0.1171875 -0.785156,-0.46875 v -5.25 c 0,-0.3632813 0.02344,-0.46875 0.785156,-0.46875 h 0.246094 v -0.3164063 c -0.351563,0.035156 -1.089844,0.035156 -1.464844,0.035156 -0.386719,0 -1.125,0 -1.476562,-0.035156 v 0.3164063 h 0.234375 c 0.773437,0 0.785156,0.1054687 0.785156,0.46875 v 2.3320312 h -2.976563 v -2.3320312 c 0,-0.3632813 0.02344,-0.46875 0.785157,-0.46875 h 0.246093 v -0.3164063 c -0.351562,0.035156 -1.089843,0.035156 -1.464843,0.035156 -0.375,0 -1.125,0 -1.476563,-0.035156 v 0.3164063 h 0.234375 c 0.773438,0 0.796875,0.1054687 0.796875,0.46875 v 5.25 c 0,0.3515625 -0.02344,0.46875 -0.796875,0.46875 H 45.269367 V 6.25e-4 c 0.351563,-0.03515625 1.089844,-0.03515625 1.464844,-0.03515625 0.375,0 1.125,0 1.476562,0.03515625 V -0.3040625 H 47.96468 c -0.761719,0 -0.785157,-0.1171875 -0.785157,-0.46875 v -2.6132813 h 2.976563 v 2.6132813 c 0,0.3515625 -0.01172,0.46875 -0.785156,0.46875 H 49.136555 V 6.25e-4 c 0.351562,-0.03515625 1.089843,-0.03515625 1.464843,-0.03515625 0.375,0 1.125,0 1.476563,0.03515625 z m 4.333008,-1.8632813 h -0.246094 c -0.09375,1.17187505 -0.304688,1.61718755 -1.453125,1.61718755 H 53.528156 L 56.3055,-3.9954688 c 0.08203,-0.1054687 0.08203,-0.1289062 0.08203,-0.1640625 0,-0.1289062 -0.08203,-0.1289062 -0.257812,-0.1289062 h -3.1875 l -0.105469,1.59375 h 0.246094 C 53.141437,-3.7025 53.328937,-4.0775 54.4305,-4.0775 h 1.136719 l -2.789063,3.76171875 C 52.696125,-0.2103125 52.696125,-0.186875 52.696125,-0.14 c 0,0.140625 0.07031,0.140625 0.257812,0.140625 h 3.28125 z m 0,0"
           style="fill:#000000;fill-opacity:1;fill-rule:nonzero;stroke:none" /></g></g></g></svg>
