<?xml version="1.0" encoding="UTF-8" standalone="no"?>
<!-- Created with Inkscape (http://www.inkscape.org/) -->

<svg
   width="145.91357mm"
   height="46.298889mm"
   viewBox="0 0 145.91357 46.298888"
   version="1.1"
   id="svg1"
   xml:space="preserve"
   xmlns="http://www.w3.org/2000/svg"
   xmlns:svg="http://www.w3.org/2000/svg"><defs
     id="defs1" /><g
     id="g1"
     transform="matrix(0.26458333,0,0,0.26458333,-21.621415,-161.56431)"><g
       id="g17"><path
         id="path181"
         d="m -42.5202,28.3468 v 30.61449 m 0,23.81143 v 30.61452"
         style="fill:none;stroke:#000000;stroke-width:0.3985;stroke-linecap:butt;stroke-linejoin:miter;stroke-miterlimit:10;stroke-dasharray:none;stroke-opacity:1"
         transform="matrix(1.3333333,0,0,-1.3333333,200.70933,823.15467)" /><path
         id="path182"
         d="m -54.42592,70.867 c 0,-6.5754 5.33031,-11.90571 11.90572,-11.90571 6.57542,0 11.90571,5.33031 11.90571,11.90571 0,6.57543 -5.33029,11.90572 -11.90571,11.90572 -6.57541,0 -11.90572,-5.33029 -11.90572,-11.90572 z"
         style="fill:none;stroke:#000000;stroke-width:0.797;stroke-linecap:butt;stroke-linejoin:miter;stroke-miterlimit:10;stroke-dasharray:none;stroke-opacity:1"
         transform="matrix(1.3333333,0,0,-1.3333333,200.70933,823.15467)" /><path
         id="path183"
         d="M -42.5202,58.96129 V 82.77272"
         style="fill:none;stroke:#000000;stroke-width:0.797;stroke-linecap:butt;stroke-linejoin:miter;stroke-miterlimit:10;stroke-dasharray:none;stroke-opacity:1"
         transform="matrix(1.3333333,0,0,-1.3333333,200.70933,823.15467)" /><path
         id="path184"
         d="m -42.5202,113.38724 h 32.88244 m 47.62232,0 H 70.867"
         style="fill:none;stroke:#000000;stroke-width:0.3985;stroke-linecap:butt;stroke-linejoin:miter;stroke-miterlimit:10;stroke-dasharray:none;stroke-opacity:1"
         transform="matrix(1.3333333,0,0,-1.3333333,200.70933,823.15467)" /><path
         id="path185"
         d="m -9.63776,119.34009 h 47.62231 v -11.9057 H -9.63776 Z"
         style="fill:none;stroke:#000000;stroke-width:0.797;stroke-linecap:butt;stroke-linejoin:miter;stroke-miterlimit:10;stroke-dasharray:none;stroke-opacity:1"
         transform="matrix(1.3333333,0,0,-1.3333333,200.70933,823.15467)" /><g
         id="g185"
         aria-label="λ/4|Z&#10;0"
         transform="matrix(1.3333333,0,0,1.3333333,195.304,658.95333)"><path
           id="path186"
           d="m 5.4614531,0.0115625 c 0,-0.03515625 -0.023437,-0.046875 -0.046875,-0.09375 C 5.3091094,-0.18765625 5.2505156,-0.34 5.1802031,-0.53921875 L 3.1528594,-6.2110938 c -0.2109375,-0.5742187 -0.75,-0.703125 -1.21875,-0.703125 -0.046875,0 -0.1757813,0 -0.1757813,0.1054688 0,0.082031 0.082031,0.1054687 0.082031,0.1054687 0.328125,0.058594 0.3984375,0.1171875 0.65625,0.796875 l 0.9609375,2.7070313 -2.75390627,2.73046875 c -0.1171875,0.1171875 -0.17578125,0.17578125 -0.17578125,0.3046875 0,0.17578125 0.140625,0.29296875 0.3046875,0.29296875 0.15234375,0 0.24609372,-0.10546875 0.32812502,-0.2109375 l 2.390625,-2.8242188 C 3.9614531,-1.8634375 4.4419219,-0.34 4.6059844,-0.105625 4.7583281,0.1053125 4.8637969,0.1053125 5.1333281,0.1053125 h 0.2109375 c 0.1054688,0 0.1171875,-0.0703125 0.1171875,-0.09375 z M 10.228055,-7.2775 c 0,-0.1054688 -0.08203,-0.1992188 -0.199219,-0.1992188 -0.070313,0 -0.1289063,0.035156 -0.1640626,0.09375 L 6.4077422,2.1092187 c -0.046875,0.1289063 -0.046875,0.1875 -0.046875,0.1875 0,0.1054688 0.082031,0.1992188 0.1992187,0.1992188 0.1289063,0 0.1523438,-0.070312 0.2109375,-0.2460938 L 10.18118,-7.09 c 0.04687,-0.1289063 0.04687,-0.1875 0.04687,-0.1875 z m 0,0"
           style="fill:#000000;fill-opacity:1;fill-rule:nonzero;stroke:none" /><path
           id="path187"
           d="M 15.480984,-1.6407813 V -1.9571875 H 14.484891 V -6.480625 c 0,-0.1992188 0,-0.2578125 -0.152344,-0.2578125 -0.09375,0 -0.117188,0 -0.199219,0.1171875 l -3.058594,4.6640625 v 0.3164062 h 2.648438 v 0.86718755 c 0,0.3515625 -0.02344,0.46875 -0.761719,0.46875 h -0.210937 v 0.3046875 c 0.410156,-0.03515625 0.9375,-0.03515625 1.347656,-0.03515625 0.421875,0 0.949219,0 1.359375,0.03515625 v -0.3046875 h -0.210938 c -0.738281,0 -0.761718,-0.1171875 -0.761718,-0.46875 V -1.6407813 Z m -1.699218,-0.3164062 h -2.425782 l 2.425782,-3.7148438 z m 0,0"
           style="fill:#000000;fill-opacity:1;fill-rule:nonzero;stroke:none" /><path
           id="path188"
           d="M 20.67825,2.1560937 V -7.136875 c 0,-0.140625 0,-0.3398438 -0.199219,-0.3398438 -0.199218,0 -0.199218,0.1992188 -0.199218,0.3398438 v 9.2929687 c 0,0.140625 0,0.3398438 0.199218,0.3398438 0.199219,0 0.199219,-0.1992188 0.199219,-0.3398438 z m 0,0"
           style="fill:#000000;fill-opacity:1;fill-rule:nonzero;stroke:none" /><path
           id="path189"
           d="m 31.395047,-2.5548438 c 0,-0.046875 -0.03516,-0.1054687 -0.128906,-0.1054687 -0.08203,0 -0.09375,0.035156 -0.164063,0.2460937 C 30.668484,-1.0548438 30.188016,-0.34 28.488797,-0.34 h -1.699219 l 5.566406,-6.2226563 c 0.01172,-0.046875 0.03516,-0.09375 0.03516,-0.1523437 0,-0.09375 -0.05859,-0.09375 -0.257813,-0.09375 h -4.195312 c -0.246094,0 -0.257813,0.011719 -0.316407,0.1992187 l -0.539062,1.7929688 c -0.02344,0.058594 -0.03516,0.140625 -0.03516,0.140625 0,0 0,0.1171875 0.117187,0.1171875 0.09375,0 0.117188,-0.070312 0.128906,-0.1054688 0.386719,-1.171875 0.902344,-1.828125 2.449219,-1.828125 h 1.628906 l -5.566406,6.2226563 c 0,0 -0.04687,0.15234375 -0.04687,0.17578125 0,0.09375 0.07031,0.09375 0.257813,0.09375 h 4.324218 c 0.246094,0 0.257813,-0.01171875 0.316407,-0.19921875 L 31.359891,-2.4025 c 0.01172,-0.035156 0.03516,-0.1054688 0.03516,-0.1523438 z m 0,0"
           style="fill:#000000;fill-opacity:1;fill-rule:nonzero;stroke:none" /><path
           id="path190"
           d="m 35.58157,-0.73257813 c 0,-0.76171877 -0.09375,-1.31249997 -0.410156,-1.80468747 -0.222656,-0.3164063 -0.644531,-0.5976563 -1.207031,-0.5976563 -1.617188,0 -1.617188,1.8984375 -1.617188,2.40234377 0,0.50390625 0,2.36718753 1.617188,2.36718753 1.617187,0 1.617187,-1.86328128 1.617187,-2.36718753 z m -0.632812,-0.09375 c 0,0.515625 0,1.04296875 -0.09375,1.4765625 -0.140625,0.63281253 -0.609375,0.78515623 -0.890625,0.78515623 -0.316406,0 -0.75,-0.1875 -0.890625,-0.76171873 -0.09375,-0.41015625 -0.09375,-0.984375 -0.09375,-1.5 0,-0.50390627 0,-1.03124997 0.105469,-1.41796877 0.152343,-0.5507812 0.597656,-0.6914062 0.878906,-0.6914062 0.375,0 0.738281,0.2226562 0.867187,0.6328125 0.105469,0.375 0.117188,0.8789062 0.117188,1.47656247 z m 0,0"
           style="fill:#000000;fill-opacity:1;fill-rule:nonzero;stroke:none" /></g><path
         id="path191"
         d="m 70.867,28.3468 -1e-5,35.57515 m 0,13.89011 1e-5,35.57518"
         style="fill:none;stroke:#000000;stroke-width:0.3985;stroke-linecap:butt;stroke-linejoin:miter;stroke-miterlimit:10;stroke-dasharray:none;stroke-opacity:1"
         transform="matrix(1.3333333,0,0,-1.3333333,200.70933,823.15467)" /><path
         id="path192"
         d="M 70.86699,63.92195 64.91414,77.11752"
         style="fill:none;stroke:#000000;stroke-width:0.797;stroke-linecap:butt;stroke-linejoin:miter;stroke-miterlimit:10;stroke-dasharray:none;stroke-opacity:1"
         transform="matrix(1.3333333,0,0,-1.3333333,200.70933,823.15467)" /><path
         id="path193"
         d="m 113.38724,28.3468 v 38.55173 m 0,7.93695 v 38.55176"
         style="fill:none;stroke:#000000;stroke-width:0.3985;stroke-linecap:butt;stroke-linejoin:miter;stroke-miterlimit:10;stroke-dasharray:none;stroke-opacity:1"
         transform="matrix(1.3333333,0,0,-1.3333333,200.70933,823.15467)" /><path
         id="path194"
         d="m 101.4815,66.89853 h 23.81145 m -23.81145,7.93695 h 23.81145"
         style="fill:none;stroke:#000000;stroke-width:0.797;stroke-linecap:butt;stroke-linejoin:miter;stroke-miterlimit:10;stroke-dasharray:none;stroke-opacity:1"
         transform="matrix(1.3333333,0,0,-1.3333333,200.70933,823.15467)" /><g
         id="g194"
         aria-label="2nF"
         transform="matrix(1.3333333,0,0,1.3333333,371.496,731.52667)"><path
           id="path195"
           d="M 4.4766328,-1.7338672 H 4.2188203 c -0.046875,0.3046875 -0.1171875,0.73828126 -0.2109375,0.89062501 -0.070312,0.0820313 -0.7265625,0.0820313 -0.9492187,0.0820313 H 1.2656953 L 2.3203828,-1.7924609 c 1.5585938,-1.3710938 2.15625,-1.9101563 2.15625,-2.90625 0,-1.1367188 -0.9023437,-1.9335938 -2.1210937,-1.9335938 -1.125,0 -1.85156254,0.9140625 -1.85156254,1.8046875 0,0.5507813 0.4921875,0.5507813 0.52734374,0.5507813 0.1640625,0 0.515625,-0.1171875 0.515625,-0.5273438 0,-0.2578125 -0.1875,-0.515625 -0.5273437,-0.515625 -0.0820313,0 -0.10546879,0 -0.12890629,0.011719 C 1.1133516,-5.952617 1.6524141,-6.327617 2.2266328,-6.327617 c 0.9140625,0 1.3359375,0.8085938 1.3359375,1.6289063 0,0.796875 -0.4921875,1.5820312 -1.0429687,2.203125 L 0.60944531,-0.36277344 C 0.50397656,-0.25730469 0.50397656,-0.23386719 0.50397656,5.078125e-4 H 4.1953828 Z m 0,0"
           style="fill:#000000;fill-opacity:1;fill-rule:nonzero;stroke:none" /><path
           id="path196"
           d="M 13.634836,5.078125e-4 V -0.30417969 c -0.515625,0 -0.773438,0 -0.785156,-0.3046875 V -2.5073047 c 0,-0.8554687 0,-1.171875 -0.304688,-1.5234375 -0.140625,-0.1757812 -0.46875,-0.375 -1.042969,-0.375 -0.726562,0 -1.195312,0.4335938 -1.476562,1.0546875 v -1.0546875 l -1.4062501,0.1171875 v 0.3046875 c 0.703125,0 0.7851563,0.070312 0.7851563,0.5625 v 2.66015626 c 0,0.45703125 -0.1171875,0.45703125 -0.7851563,0.45703125 V 5.078125e-4 l 1.125,-0.0351562525 1.1132811,0.0351562525 V -0.30417969 c -0.65625,0 -0.773437,0 -0.773437,-0.45703125 V -2.5893359 c 0,-1.03125 0.714843,-1.59375 1.347656,-1.59375 0.621094,0 0.738281,0.5390625 0.738281,1.1015625 v 2.32031246 c 0,0.45703125 -0.117187,0.45703125 -0.773437,0.45703125 V 5.078125e-4 l 1.125,-0.0351562525 z m 6.28418,-4.5351562125 -0.28125,-2.2382813 h -5.472657 v 0.3046875 h 0.234375 c 0.773438,0 0.796875,0.1171875 0.796875,0.46875 v 5.22656251 c 0,0.3515625 -0.02344,0.46875 -0.796875,0.46875 H 14.165109 V 5.078125e-4 c 0.351563,-0.0351562525 1.125,-0.0351562525 1.511719,-0.0351562525 0.410156,0 1.3125,0 1.675781,0.0351562525 V -0.30417969 h -0.328125 c -0.949218,0 -0.949218,-0.12890625 -0.949218,-0.48046875 V -3.2338672 h 0.855468 c 0.960938,0 1.054688,0.3164063 1.054688,1.1601563 h 0.257812 v -2.6367188 h -0.257812 c 0,0.8320313 -0.09375,1.1601563 -1.054688,1.1601563 h -0.855468 v -2.5195313 c 0,-0.328125 0.02344,-0.3984375 0.492187,-0.3984375 h 1.195313 c 1.488281,0 1.746093,0.5625 1.898437,1.9335938 z m 0,0"
           style="fill:#000000;fill-opacity:1;fill-rule:nonzero;stroke:none" /></g><path
         id="path197"
         d="m 70.867,113.38724 h 70.86704 16.44109 m 23.81143,0 h 16.4411 3.11822 m 7.93695,0 h 3.11823 23.5278 m 23.81143,0 h 23.52781"
         style="fill:none;stroke:#000000;stroke-width:0.3985;stroke-linecap:butt;stroke-linejoin:miter;stroke-miterlimit:10;stroke-dasharray:none;stroke-opacity:1"
         transform="matrix(1.3333333,0,0,-1.3333333,200.70933,823.15467)" /><path
         id="path198"
         d="m 157.77661,113.22784 c 0,3.28769 1.63475,5.95286 3.65135,5.95286 2.0166,0 3.65136,-2.66517 3.65136,-5.95286 0,-1.64376 -0.66626,-2.97627 -1.48815,-2.97627 -0.82188,0 -1.48813,1.33251 -1.48813,2.97627 0,3.28769 1.63474,5.95286 3.65134,5.95286 2.0166,0 3.65135,-2.66517 3.65135,-5.95286 0,-1.64376 -0.66626,-2.97627 -1.48814,-2.97627 -0.82187,0 -1.48813,1.33251 -1.48813,2.97627 0,3.28769 1.63475,5.95286 3.65135,5.95286 2.0166,0 3.65134,-2.66517 3.65134,-5.95286 0,-1.64376 -0.66625,-2.97627 -1.48813,-2.97627 -0.82189,0 -1.48815,1.33251 -1.48815,2.97627 0,3.28769 1.63476,5.95286 3.65136,5.95286 2.0166,0 3.65135,-2.66517 3.65135,-5.95286 0,-1.64376 -0.66626,-2.97627 -1.48815,-2.97627 -0.82186,0 -1.48813,1.33251 -1.48813,2.97627 0,3.28769 1.63474,5.95286 3.65136,5.95286 2.0166,0 3.65134,-2.66517 3.65134,-5.95286"
         style="fill:none;stroke:#000000;stroke-width:0.797;stroke-linecap:butt;stroke-linejoin:bevel;stroke-miterlimit:10;stroke-dasharray:none;stroke-opacity:1"
         transform="matrix(1.3333333,0,0,-1.3333333,200.70933,823.15467)" /><g
         id="g198"
         aria-label="L&#10;1"
         transform="matrix(1.3333333,0,0,1.3333333,419.98133,658.95333)"><path
           id="path199"
           d="m 6.4095078,-2.4610938 c 0,-0.035156 -0.035156,-0.1054687 -0.1289062,-0.1054687 -0.082031,0 -0.09375,0.046875 -0.1640625,0.2109375 -0.3398438,0.9140625 -0.7734375,2.05078125 -2.4960938,2.05078125 h -0.9375 c -0.140625,0 -0.1640625,0 -0.2226562,-0.0117188 C 2.3548203,-0.32828125 2.3313828,-0.34 2.3313828,-0.42203125 c 0,-0.0234375 0,-0.046875 0.046875,-0.22265625 l 1.3476563,-5.3789063 c 0.09375,-0.3632812 0.1171875,-0.46875 1.0546875,-0.46875 0.3046875,0 0.375,0 0.375,-0.1875 0,-0.1289062 -0.1054688,-0.1289062 -0.1523438,-0.1289062 L 3.5266953,-6.7735938 2.2024766,-6.80875 c -0.070312,0 -0.1875,0 -0.1875,0.1992187 0,0.1171875 0.082031,0.1171875 0.28125,0.1171875 0,0 0.1992187,0 0.375,0.011719 0.1757812,0.023437 0.2695312,0.035156 0.2695312,0.1640625 0,0.035156 -0.011719,0.070312 -0.046875,0.1875 l -1.3359375,5.35546875 c -0.09375,0.38671875 -0.1171875,0.46875 -0.90234374,0.46875 -0.1640625,0 -0.26953125,0 -0.26953125,0.19921875 0,0.10546875 0.09375,0.10546875 0.26953125,0.10546875 H 5.2727891 c 0.234375,0 0.2460937,0 0.3046875,-0.1640625 L 6.3626328,-2.3204688 c 0.046875,-0.1054687 0.046875,-0.140625 0.046875,-0.140625 z m 0,0"
           style="fill:#000000;fill-opacity:1;fill-rule:nonzero;stroke:none" /><path
           id="path200"
           d="M 10.071617,1.4939844 V 1.2478906 H 9.8138047 c -0.703125,0 -0.703125,-0.09375 -0.703125,-0.32812498 V -2.9357031 c 0,-0.1875 -0.011719,-0.1992188 -0.2109375,-0.1992188 -0.4453125,0.4335938 -1.078125,0.4453125 -1.359375,0.4453125 v 0.2460938 c 0.1640625,0 0.6210937,0 1.0078125,-0.1875 v 3.55078122 c 0,0.23437498 0,0.32812498 -0.6914063,0.32812498 H 7.5872422 v 0.2460938 l 1.2421875,-0.023437 z m 0,0"
           style="fill:#000000;fill-opacity:1;fill-rule:nonzero;stroke:none" /></g><path
         id="path201"
         d="M 201.54588,125.29295 V 101.4815 m 7.93695,23.81145 V 101.4815"
         style="fill:none;stroke:#000000;stroke-width:0.797;stroke-linecap:butt;stroke-linejoin:miter;stroke-miterlimit:10;stroke-dasharray:none;stroke-opacity:1"
         transform="matrix(1.3333333,0,0,-1.3333333,200.70933,823.15467)" /><g
         id="g201"
         aria-label="C&#10;1"
         transform="matrix(1.3333333,0,0,1.3333333,466.99867,650.22267)"><path
           id="path202"
           d="m 6.4463125,-2.3906328 c 0,-0.1054688 -0.1171875,-0.1054688 -0.1171875,-0.1054688 -0.058594,0 -0.1171875,0.023437 -0.1289062,0.1054688 -0.09375,0.2929687 -0.3164063,0.9960937 -1.0078125,1.57031249 -0.6914063,0.5625 -1.3125,0.7265625 -1.8398438,0.7265625 -0.890625,0 -1.9453125,-0.515625 -1.9453125,-2.06249999 0,-0.5742188 0.2109375,-2.1914063 1.2070313,-3.3515625 0.609375,-0.703125 1.5351562,-1.2070313 2.4257812,-1.2070313 1.0195313,0 1.6054688,0.7734375 1.6054688,1.921875 0,0.3984375 -0.035156,0.4101563 -0.035156,0.5039063 0,0.1054687 0.1171875,0.1054687 0.1523438,0.1054687 0.1289062,0 0.1289062,-0.023437 0.1757812,-0.1992187 l 0.6328125,-2.5429688 c 0,-0.023437 -0.023437,-0.09375 -0.1054687,-0.09375 -0.035156,0 -0.046875,0.011719 -0.1523438,0.1171875 l -0.703125,0.7617188 c -0.082031,-0.140625 -0.5390625,-0.8789063 -1.6523437,-0.8789063 -2.2148438,0 -4.45312505,2.203125 -4.45312505,4.5117188 0,1.64062499 1.17187505,2.73046874 2.69531255,2.73046874 0.8671875,0 1.6171875,-0.3984375 2.1445312,-0.85546875 0.9375,-0.82031249 1.1015625,-1.72265629 1.1015622,-1.75781249 z m 0,0"
           style="fill:#000000;fill-opacity:1;fill-rule:nonzero;stroke:none" /><path
           id="path203"
           d="M 10.413109,1.4941328 V 1.2480391 h -0.257812 c -0.7031251,0 -0.7031251,-0.09375 -0.7031251,-0.32812504 V -2.9355547 c 0,-0.1875 -0.011719,-0.1992187 -0.2109375,-0.1992187 -0.4453125,0.4335937 -1.078125,0.4453125 -1.359375,0.4453125 v 0.2460937 c 0.1640625,0 0.6210937,0 1.0078125,-0.1875 v 3.55078126 c 0,0.23437504 0,0.32812504 -0.6914063,0.32812504 H 7.9287344 v 0.2460937 l 1.2421875,-0.023437 z m 0,0"
           style="fill:#000000;fill-opacity:1;fill-rule:nonzero;stroke:none" /></g><path
         id="path204"
         d="m 235.73035,113.22784 c 0,3.28769 1.63475,5.95286 3.65135,5.95286 2.0166,0 3.65135,-2.66517 3.65135,-5.95286 0,-1.64376 -0.66626,-2.97627 -1.48815,-2.97627 -0.82186,0 -1.48812,1.33251 -1.48812,2.97627 0,3.28769 1.63473,5.95286 3.65133,5.95286 2.01662,0 3.65136,-2.66517 3.65136,-5.95286 0,-1.64376 -0.66627,-2.97627 -1.48813,-2.97627 -0.82189,0 -1.48814,1.33251 -1.48814,2.97627 0,3.28769 1.63474,5.95286 3.65135,5.95286 2.0166,0 3.65135,-2.66517 3.65135,-5.95286 0,-1.64376 -0.66626,-2.97627 -1.48815,-2.97627 -0.82188,0 -1.48812,1.33251 -1.48812,2.97627 0,3.28769 1.63473,5.95286 3.65133,5.95286 2.0166,0 3.65135,-2.66517 3.65135,-5.95286 0,-1.64376 -0.66626,-2.97627 -1.48812,-2.97627 -0.82189,0 -1.48815,1.33251 -1.48815,2.97627 0,3.28769 1.63475,5.95286 3.65136,5.95286 2.0166,0 3.65133,-2.66517 3.65133,-5.95286"
         style="fill:none;stroke:#000000;stroke-width:0.797;stroke-linecap:butt;stroke-linejoin:bevel;stroke-miterlimit:10;stroke-dasharray:none;stroke-opacity:1"
         transform="matrix(1.3333333,0,0,-1.3333333,200.70933,823.15467)" /><g
         id="g204"
         aria-label="6.03µH"
         transform="matrix(1.3333333,0,0,1.3333333,508.41333,658.95333)"><path
           id="path205"
           d="m 4.5474219,-2.0275 c 0,-1.265625 -0.8789063,-2.2265625 -1.9921875,-2.2265625 -0.6679688,0 -1.0429688,0.5039062 -1.2421875,0.984375 v -0.234375 c 0,-2.5195313 1.2421875,-2.8828125 1.7460937,-2.8828125 0.234375,0 0.65625,0.058594 0.8789063,0.3984375 -0.1523438,0 -0.5507813,0 -0.5507813,0.4453125 0,0.3164062 0.234375,0.4570312 0.4570313,0.4570312 0.1640625,0 0.4570312,-0.082031 0.4570312,-0.46875 0,-0.5976562 -0.4335937,-1.078125 -1.265625,-1.078125 -1.2773437,0 -2.61328122,1.2890625 -2.61328122,3.4804688 0,2.66015625 1.14843752,3.375 2.07421872,3.375 1.1132813,0 2.0507813,-0.9375 2.0507813,-2.25 z m -0.890625,-0.011719 c 0,0.4804688 0,0.9726563 -0.1640625,1.33593755 C 3.1880469,-0.105625 2.7310156,-0.05875 2.4966406,-0.05875 c -0.6210937,0 -0.9257812,-0.59765625 -0.984375,-0.75 -0.1757812,-0.46875 -0.1757812,-1.265625 -0.1757812,-1.4414063 0,-0.7734375 0.3164062,-1.7695312 1.21875,-1.7695312 0.1523437,0 0.609375,0 0.9257812,0.609375 0.1757813,0.375 0.1757813,0.8789062 0.1757813,1.3710935 z m 0,0"
           style="fill:#000000;fill-opacity:1;fill-rule:nonzero;stroke:none" /><path
           id="path206"
           d="m 6.8911719,-0.5275 c 0,-0.29296875 -0.234375,-0.5273438 -0.5273438,-0.5273438 -0.28125,0 -0.5273437,0.23437505 -0.5273437,0.5273438 0,0.29296875 0.2460937,0.52734375 0.5273437,0.52734375 0.2929688,0 0.5273438,-0.234375 0.5273438,-0.52734375 z m 0,0"
           style="fill:#000000;fill-opacity:1;fill-rule:nonzero;stroke:none" /><path
           id="path207"
           d="m 12.331602,-3.1876563 c 0,-0.796875 -0.04687,-1.59375 -0.398438,-2.3320312 -0.457031,-0.9609375 -1.277344,-1.1132813 -1.6875,-1.1132813 -0.5976562,0 -1.3359374,0.2578125 -1.7343749,1.1835938 -0.328125,0.6914062 -0.375,1.4648437 -0.375,2.2617187 0,0.75 0.046875,1.640625 0.4453125,2.4023438 C 9.0151953,0.02328125 9.7417578,0.2225 10.233945,0.2225 c 0.539063,0 1.289063,-0.2109375 1.734375,-1.16015625 C 12.284727,-1.6290625 12.331602,-2.4025 12.331602,-3.1876563 Z M 11.49957,-3.3048438 c 0,0.75 0,1.4179688 -0.105468,2.0625 -0.152344,0.93750005 -0.714844,1.24218755 -1.160157,1.24218755 -0.3867184,0 -0.9843747,-0.24609375 -1.1601559,-1.20703125 -0.1054688,-0.5976563 -0.1054688,-1.5117188 -0.1054688,-2.0976563 0,-0.6445312 0,-1.3007812 0.082031,-1.8398437 0.1875,-1.1835938 0.9257812,-1.265625 1.1835937,-1.265625 0.328125,0 0.984375,0.1757812 1.171875,1.1601562 0.09375,0.5625 0.09375,1.3125 0.09375,1.9453125 z m 5.777344,1.6054688 c 0,-0.8203125 -0.621094,-1.59375 -1.652344,-1.8046875 0.808594,-0.2695313 1.394532,-0.9726563 1.394532,-1.7578125 0,-0.8203125 -0.878907,-1.3710938 -1.839844,-1.3710938 -1.007813,0 -1.757813,0.5976563 -1.757813,1.3476563 0,0.3398437 0.210938,0.5273437 0.503907,0.5273437 0.304687,0 0.503906,-0.2226562 0.503906,-0.515625 0,-0.4921875 -0.46875,-0.4921875 -0.609375,-0.4921875 0.304687,-0.4921875 0.960937,-0.6210937 1.324219,-0.6210937 0.410156,0 0.949218,0.2226562 0.949218,1.1132812 0,0.1289063 -0.01172,0.703125 -0.269531,1.1367188 -0.304687,0.4804687 -0.644531,0.515625 -0.890625,0.515625 -0.08203,0.011719 -0.316406,0.035156 -0.386719,0.035156 -0.08203,0.011719 -0.152343,0.023437 -0.152343,0.1171875 0,0.1171875 0.07031,0.1171875 0.234375,0.1171875 h 0.445312 c 0.808594,0 1.183594,0.6679688 1.183594,1.6523438 0,1.34765625 -0.691406,1.640625 -1.125,1.640625 -0.433594,0 -1.171875,-0.17578125 -1.523438,-0.76171875 0.351563,0.0585938 0.65625,-0.1640625 0.65625,-0.53906255 0,-0.3632812 -0.269531,-0.5625 -0.5625,-0.5625 -0.234375,0 -0.550781,0.140625 -0.550781,0.5742188 0,0.9140625 0.925781,1.5703125 2.003906,1.5703125 1.21875,0 2.121094,-0.9140625 2.121094,-1.9218748 z m 0,0"
           style="fill:#000000;fill-opacity:1;fill-rule:nonzero;stroke:none" /><path
           id="path208"
           d="m 26.728086,-1.4298438 c 0,-0.09375 -0.08203,-0.09375 -0.117188,-0.09375 -0.09375,0 -0.105468,0.035156 -0.140625,0.1757813 -0.164062,0.64453125 -0.351562,1.2421875 -0.75,1.2421875 -0.269531,0 -0.304687,-0.2578125 -0.304687,-0.45703125 0,-0.22265625 0.117187,-0.69140625 0.199219,-1.04296875 l 0.28125,-1.078125 c 0.02344,-0.140625 0.128906,-0.5273438 0.164062,-0.6679688 0.05859,-0.234375 0.152344,-0.609375 0.152344,-0.6679687 0,-0.1875 -0.140625,-0.2695313 -0.292969,-0.2695313 -0.04687,0 -0.304687,0 -0.386719,0.3398438 l -0.46875,1.8632812 -0.257812,1.0195313 c -0.01172,0.046875 -0.480469,0.9609375 -1.289063,0.9609375 -0.503906,0 -0.738281,-0.328125 -0.738281,-0.8671875 0,-0.2929688 0.07031,-0.5742188 0.140625,-0.8554688 l 0.410156,-1.6640625 c 0.05859,-0.2109375 0.152344,-0.5976562 0.152344,-0.6445312 0,-0.1640625 -0.117187,-0.2695313 -0.292969,-0.2695313 -0.02344,0 -0.304687,0.011719 -0.398437,0.3632813 L 21.360898,1.7225 c -0.02344,0.1171875 -0.02344,0.1640625 -0.02344,0.1640625 0,0.140625 0.105469,0.2695312 0.269531,0.2695312 0.210938,0 0.328125,-0.1875 0.351563,-0.2109375 0.03516,-0.09375 0.175781,-0.609375 0.550781,-2.1445312 0.316406,0.26953125 0.761719,0.3046875 0.960937,0.3046875 0.703125,0 1.089844,-0.4453125 1.324219,-0.7265625 0.09375,0.45703125 0.457031,0.7265625 0.902344,0.7265625 0.351562,0 0.574219,-0.22265625 0.738281,-0.5390625 0.164063,-0.36328125 0.292969,-0.9960938 0.292969,-0.9960938 z m 0,0"
           style="fill:#000000;fill-opacity:1;fill-rule:nonzero;stroke:none" /><path
           id="path209"
           d="m 34.172422,-1.5625e-4 v -0.3046875 h -0.246094 c -0.761719,0 -0.785156,-0.1171875 -0.785156,-0.46875 V -6.0235938 c 0,-0.3632812 0.02344,-0.46875 0.785156,-0.46875 h 0.246094 V -6.80875 c -0.351563,0.035156 -1.089844,0.035156 -1.464844,0.035156 -0.386719,0 -1.125,0 -1.476562,-0.035156 v 0.3164062 h 0.234375 c 0.773437,0 0.785156,0.1054688 0.785156,0.46875 v 2.3320313 h -2.976563 v -2.3320313 c 0,-0.3632812 0.02344,-0.46875 0.785157,-0.46875 h 0.246093 V -6.80875 c -0.351562,0.035156 -1.089843,0.035156 -1.464843,0.035156 -0.375,0 -1.125,0 -1.476563,-0.035156 v 0.3164062 h 0.234375 c 0.773438,0 0.796875,0.1054688 0.796875,0.46875 v 5.25000005 c 0,0.3515625 -0.02344,0.46875 -0.796875,0.46875 h -0.234375 v 0.3046875 c 0.351563,-0.03515625 1.089844,-0.03515625 1.464844,-0.03515625 0.375,0 1.125,0 1.476562,0.03515625 v -0.3046875 h -0.246093 c -0.761719,0 -0.785157,-0.1171875 -0.785157,-0.46875 V -3.386875 h 2.976563 v 2.61328125 c 0,0.3515625 -0.01172,0.46875 -0.785156,0.46875 h -0.234375 v 0.3046875 c 0.351562,-0.03515625 1.089843,-0.03515625 1.464843,-0.03515625 0.375,0 1.125,0 1.476563,0.03515625 z m 0,0"
           style="fill:#000000;fill-opacity:1;fill-rule:nonzero;stroke:none" /></g><path
         id="path210"
         d="m 283.4681,28.3468 v 26.64601 m 0,31.7484 v 26.64603"
         style="fill:none;stroke:#000000;stroke-width:0.3985;stroke-linecap:butt;stroke-linejoin:miter;stroke-miterlimit:10;stroke-dasharray:none;stroke-opacity:1"
         transform="matrix(1.3333333,0,0,-1.3333333,200.70933,823.15467)" /><path
         id="path211"
         d="m 283.4681,54.59431 -5.95286,3.07741 11.9057,5.35782 -11.9057,5.35782 11.9057,5.3578 -11.9057,5.35782 11.9057,5.35782 -5.95284,2.67891"
         style="fill:none;stroke:#000000;stroke-width:0.797;stroke-linecap:butt;stroke-linejoin:bevel;stroke-miterlimit:10;stroke-dasharray:none;stroke-opacity:1"
         transform="matrix(1.3333333,0,0,-1.3333333,200.70933,823.15467)" /><g
         id="g211"
         aria-label="15.16Ω"
         transform="matrix(1.3333333,0,0,1.3333333,589.53733,731.52667)"><path
           id="path212"
           d="M 4.1731719,5.078125e-4 V -0.30417969 H 3.8567656 c -0.9023437,0 -0.9257812,-0.1171875 -0.9257812,-0.48046875 V -6.3744922 c 0,-0.234375 0,-0.2578125 -0.234375,-0.2578125 -0.609375,0.6328125 -1.4882813,0.6328125 -1.80468753,0.6328125 v 0.3164063 c 0.19921873,0 0.78515623,0 1.30078123,-0.2578125 v 5.15624996 c 0,0.3515625 -0.035156,0.48046875 -0.9257812,0.48046875 H 0.95051562 V 5.078125e-4 C 1.3020781,-0.03464844 2.1575469,-0.03464844 2.5559844,-0.03464844 c 0.3984375,0 1.265625,0 1.6171875,0.0351562525 z M 9.4583281,-2.0033984 c 0,-1.1835938 -0.8203125,-2.1796875 -1.8984375,-2.1796875 -0.4804687,0 -0.9023437,0.1640625 -1.265625,0.5039062 v -1.9335937 c 0.1992188,0.058594 0.5273438,0.1289062 0.84375,0.1289062 1.2304688,0 1.9335938,-0.9140625 1.9335938,-1.0429687 0,-0.058594 -0.035156,-0.1054688 -0.1054688,-0.1054688 0,0 -0.035156,0 -0.082031,0.023437 -0.1992188,0.09375 -0.6796875,0.2929688 -1.3476563,0.2929688 -0.3984375,0 -0.8554687,-0.070312 -1.3242187,-0.28125 -0.082031,-0.023437 -0.1289063,-0.023437 -0.1289063,-0.023437 -0.09375,0 -0.09375,0.082031 -0.09375,0.234375 v 2.953125 c 0,0.1757812 0,0.2578125 0.140625,0.2578125 0.070312,0 0.082031,-0.035156 0.1289063,-0.09375 0.1054687,-0.1523438 0.4804687,-0.6914063 1.2773437,-0.6914063 0.5273438,0 0.7734375,0.4570313 0.8554688,0.6328125 0.1523437,0.375 0.1757812,0.7617188 0.1757812,1.2539063 0,0.3515625 0,0.9492187 -0.234375,1.37109371 -0.2460937,0.38671875 -0.609375,0.64453125 -1.0664062,0.64453125 -0.7265625,0 -1.3007813,-0.52734375 -1.4648438,-1.11328126 0.023437,0.011719 0.058594,0.011719 0.1640625,0.011719 0.328125,0 0.5039063,-0.2460938 0.5039063,-0.4804688 0,-0.2460937 -0.1757813,-0.4921875 -0.5039063,-0.4921875 -0.140625,0 -0.4804687,0.070312 -0.4804687,0.5273438 0,0.85546871 0.6796875,1.82812496 1.7929687,1.82812496 1.1601563,0 2.1796875,-0.9609375 2.1796873,-2.22656266 z m 0,0"
           style="fill:#000000;fill-opacity:1;fill-rule:nonzero;stroke:none" /><path
           id="path213"
           d="m 11.872391,-0.52683594 c 0,-0.29296875 -0.234375,-0.52734376 -0.527344,-0.52734376 -0.28125,0 -0.527344,0.23437501 -0.527344,0.52734376 0,0.29296875 0.246094,0.5273437525 0.527344,0.5273437525 0.292969,0 0.527344,-0.2343750025 0.527344,-0.5273437525 z m 0,0"
           style="fill:#000000;fill-opacity:1;fill-rule:nonzero;stroke:none" /><path
           id="path214"
           d="M 16.902664,5.078125e-4 V -0.30417969 h -0.316406 c -0.902344,0 -0.925781,-0.1171875 -0.925781,-0.48046875 V -6.3744922 c 0,-0.234375 0,-0.2578125 -0.234375,-0.2578125 -0.609375,0.6328125 -1.488282,0.6328125 -1.804688,0.6328125 v 0.3164063 c 0.199219,0 0.785156,0 1.300781,-0.2578125 v 5.15624996 c 0,0.3515625 -0.03516,0.48046875 -0.925781,0.48046875 H 13.680008 V 5.078125e-4 C 14.03157,-0.03464844 14.887039,-0.03464844 15.285477,-0.03464844 c 0.398437,0 1.265625,0 1.617187,0.0351562525 z M 22.258133,-2.0268359 c 0,-1.265625 -0.878906,-2.2265625 -1.992188,-2.2265625 -0.667968,0 -1.042968,0.5039062 -1.242187,0.984375 v -0.234375 c 0,-2.5195313 1.242187,-2.8828125 1.746094,-2.8828125 0.234375,0 0.65625,0.058594 0.878906,0.3984375 -0.152344,0 -0.550781,0 -0.550781,0.4453125 0,0.3164062 0.234375,0.4570312 0.457031,0.4570312 0.164062,0 0.457031,-0.082031 0.457031,-0.46875 0,-0.5976562 -0.433594,-1.078125 -1.265625,-1.078125 -1.277344,0 -2.613281,1.2890625 -2.613281,3.4804688 0,2.66015621 1.148437,3.37499996 2.074219,3.37499996 1.113281,0 2.050781,-0.9375 2.050781,-2.24999996 z m -0.890625,-0.011719 c 0,0.4804688 0,0.9726563 -0.164063,1.33593751 -0.304687,0.59765625 -0.761718,0.64453125 -0.996093,0.64453125 -0.621094,0 -0.925782,-0.59765625 -0.984375,-0.75 -0.175782,-0.46874996 -0.175782,-1.26562496 -0.175782,-1.44140626 0,-0.7734375 0.316407,-1.7695312 1.21875,-1.7695312 0.152344,0 0.609375,0 0.925782,0.609375 0.175781,0.375 0.175781,0.8789062 0.175781,1.3710937 z m 11.381836,0.421875 H 32.50325 c -0.04687,0.2578125 -0.08203,0.4921875 -0.175781,0.72656251 -0.04687,0.1640625 -0.08203,0.24609375 -0.65625,0.24609375 h -0.796875 c 0.128906,-0.56249996 0.433593,-1.04296876 0.878906,-1.69921876 0.46875,-0.703125 0.878906,-1.3945312 0.878906,-2.1796875 0,-1.3828125 -1.335937,-2.4960937 -3.023437,-2.4960937 -1.710938,0 -3.035157,1.1367187 -3.035157,2.4960937 0,0.7851563 0.398438,1.4765625 0.867188,2.1796875 0.445312,0.65625 0.761719,1.1367188 0.890625,1.69921876 H 27.5345 c -0.574219,0 -0.609375,-0.0820313 -0.65625,-0.234375 C 26.79622,-1.1010549 26.749344,-1.3588674 26.702469,-1.6166799 h -0.257813 l 0.328125,1.6171875125 h 1.59375 c 0.222656,0 0.257813,0 0.257813,-0.2109375025 0,-0.69140625 -0.316407,-1.57031251 -0.539063,-2.21484371 -0.210937,-0.5742188 -0.492187,-1.359375 -0.492187,-2.109375 0,-1.59375 1.101562,-2.2734375 2.003906,-2.2734375 0.960937,0 2.015625,0.7265625 2.015625,2.2734375 0,0.75 -0.269531,1.5117187 -0.5625,2.3203125 -0.152344,0.421875 -0.46875,1.31249996 -0.46875,2.00390621 0,0.2109375025 0.03516,0.2109375025 0.257812,0.2109375025 h 1.582032 z m 0,0"
           style="fill:#000000;fill-opacity:1;fill-rule:nonzero;stroke:none" /></g><path
         id="path215"
         d="M -62.36288,42.5202 V 98.8153"
         style="fill:none;stroke:#000000;stroke-width:0.3985;stroke-linecap:butt;stroke-linejoin:miter;stroke-miterlimit:10;stroke-dasharray:none;stroke-opacity:1"
         transform="matrix(1.3333333,0,0,-1.3333333,200.70933,823.15467)" /><path
         id="path216"
         d="M -2.07224,2.39104 C -1.69365,0.95639 -0.84999,0.27895 0,0 -0.84999,-0.27895 -1.69365,-0.95639 -2.07224,-2.39104"
         style="fill:none;stroke:#000000;stroke-width:0.3985;stroke-linecap:round;stroke-linejoin:round;stroke-miterlimit:10;stroke-dasharray:none;stroke-opacity:1"
         transform="matrix(0,-1.3333333,-1.3333333,0,117.55883,691.13524)" /><g
         id="g216"
         aria-label="50V"
         transform="matrix(1.3333333,0,0,1.3333333,81.045333,733.24133)"><path
           id="path217"
           d="m 4.4777188,-2.0032656 c 0,-1.1835938 -0.8203125,-2.1796875 -1.8984375,-2.1796875 -0.4804688,0 -0.9023438,0.1640625 -1.265625,0.5039062 v -1.9335937 c 0.1992187,0.058594 0.5273437,0.1289062 0.84375,0.1289062 1.2304687,0 1.9335937,-0.9140625 1.9335937,-1.0429687 0,-0.058594 -0.035156,-0.1054688 -0.1054687,-0.1054688 0,0 -0.035156,0 -0.082031,0.023437 -0.1992187,0.09375 -0.6796875,0.2929688 -1.3476562,0.2929688 -0.3984375,0 -0.8554688,-0.070312 -1.3242188,-0.28125 -0.082031,-0.023437 -0.1289062,-0.023437 -0.1289062,-0.023437 -0.09375,0 -0.09375,0.082031 -0.09375,0.234375 v 2.953125 c 0,0.1757812 0,0.2578125 0.140625,0.2578125 0.070312,0 0.082031,-0.035156 0.1289062,-0.09375 0.1054688,-0.1523438 0.4804688,-0.6914063 1.2773438,-0.6914063 0.5273437,0 0.7734375,0.4570313 0.8554687,0.6328125 0.1523438,0.375 0.1757813,0.7617188 0.1757813,1.2539063 0,0.3515625 0,0.9492187 -0.234375,1.37109372 -0.2460938,0.38671875 -0.609375,0.64453125 -1.0664063,0.64453125 -0.7265625,0 -1.30078125,-0.52734375 -1.46484375,-1.11328127 0.0234375,0.011719 0.0585938,0.011719 0.1640625,0.011719 0.32812505,0 0.50390625,-0.2460938 0.50390625,-0.4804688 0,-0.2460937 -0.1757812,-0.4921875 -0.50390625,-0.4921875 -0.140625,0 -0.48046875,0.070312 -0.48046875,0.5273438 0,0.85546872 0.6796875,1.82812497 1.7929688,1.82812497 1.1601562,0 2.1796875,-0.9609375 2.1796872,-2.22656267 z m 5.0859375,-1.1835938 c 0,-0.796875 -0.046875,-1.59375 -0.3984375,-2.3320312 -0.4570313,-0.9609375 -1.2773438,-1.1132813 -1.6875,-1.1132813 -0.5976563,0 -1.3359375,0.2578125 -1.734375,1.1835938 -0.328125,0.6914062 -0.375,1.4648437 -0.375,2.2617187 0,0.75 0.046875,1.640625 0.4453125,2.40234377 0.4335937,0.80859375 1.1601562,1.0078125 1.6523437,1.0078125 0.5390625,0 1.2890625,-0.2109375 1.734375,-1.16015625 C 9.5167813,-1.6282656 9.5636563,-2.4017031 9.5636563,-3.1868594 Z M 8.731625,-3.3040469 c 0,0.75 0,1.4179688 -0.1054687,2.0625 C 8.4738125,-0.30404688 7.9113125,6.40625e-4 7.466,6.40625e-4 7.0792813,6.40625e-4 6.481625,-0.24545313 6.3058438,-1.2063906 6.200375,-1.8040469 6.200375,-2.7181094 6.200375,-3.3040469 c 0,-0.6445312 0,-1.3007812 0.082031,-1.8398437 0.1875,-1.1835938 0.9257812,-1.265625 1.1835937,-1.265625 0.328125,0 0.984375,0.1757812 1.171875,1.1601562 0.09375,0.5625 0.09375,1.3125 0.09375,1.9453125 z m 0,0"
           style="fill:#000000;fill-opacity:1;fill-rule:nonzero;stroke:none" /><path
           id="path218"
           d="m 20.561703,-6.4915469 v -0.3164062 c -0.316406,0.023437 -0.714844,0.035156 -0.972656,0.035156 l -1.136719,-0.035156 v 0.3164062 c 0.515625,0.011719 0.726563,0.2695313 0.726563,0.4921875 0,0.082031 -0.02344,0.140625 -0.04687,0.1992188 l -1.828125,4.80468747 -1.898438,-5.02734377 c -0.05859,-0.140625 -0.05859,-0.1875 -0.05859,-0.1875 0,-0.28125 0.5625,-0.28125 0.820313,-0.28125 v -0.3164062 c -0.363281,0.035156 -1.054688,0.035156 -1.429688,0.035156 l -1.265625,-0.035156 v 0.3164062 c 0.644532,0 0.84375,0 0.972657,0.375 l 2.320312,6.117187525 c 0.07031,0.187499995 0.117188,0.222656245 0.246094,0.222656245 0.164062,0 0.1875,-0.0585938 0.234375,-0.1875 l 2.226562,-5.85937497 c 0.140625,-0.375 0.410157,-0.65625 1.089844,-0.6679688 z m 0,0"
           style="fill:#000000;fill-opacity:1;fill-rule:nonzero;stroke:none" /></g><path
         id="path219"
         d="M 53.85875,42.5202 V 98.8153"
         style="fill:none;stroke:#000000;stroke-width:0.3985;stroke-linecap:butt;stroke-linejoin:miter;stroke-miterlimit:10;stroke-dasharray:none;stroke-opacity:1"
         transform="matrix(1.3333333,0,0,-1.3333333,200.70933,823.15467)" /><path
         id="path220"
         d="M -2.07224,2.39104 C -1.69365,0.95639 -0.84999,0.27895 0,0 -0.84999,-0.27895 -1.69365,-0.95639 -2.07224,-2.39104"
         style="fill:none;stroke:#000000;stroke-width:0.3985;stroke-linecap:round;stroke-linejoin:round;stroke-miterlimit:10;stroke-dasharray:none;stroke-opacity:1"
         transform="matrix(0,-1.3333333,-1.3333333,0,272.521,691.13524)" /><g
         id="g220"
         aria-label="v&#10;s&#10;(ωt)"
         transform="matrix(1.3333333,0,0,1.3333333,231.848,731.988)"><path
           id="path221"
           d="m 4.6638047,-3.7029141 c 0,-0.5390625 -0.2578125,-0.703125 -0.4453125,-0.703125 -0.2460938,0 -0.4804688,0.2578125 -0.4804688,0.4804688 0,0.1289062 0.046875,0.1875 0.1523438,0.3046875 0.2109375,0.1992187 0.3398437,0.4570312 0.3398437,0.8085937 0,0.421875 -0.609375,2.70703129 -1.7695312,2.70703129 -0.5039063,0 -0.7382813,-0.3515625 -0.7382813,-0.8671875 0,-0.56249999 0.2695313,-1.28906249 0.5742188,-2.12109379 0.070312,-0.1640625 0.1289062,-0.3046875 0.1289062,-0.4921875 0,-0.4453125 -0.328125,-0.8203125 -0.8203125,-0.8203125 -0.93749996,0 -1.31249996,1.453125 -1.31249996,1.5351563 0,0.1054687 0.1171875,0.1054687 0.1171875,0.1054687 0.09375,0 0.10546875,-0.023437 0.15234375,-0.1875 0.29296875,-0.9960937 0.72656251,-1.2304687 1.00781251,-1.2304687 0.082031,0 0.2578125,0 0.2578125,0.3164062 0,0.2460938 -0.1054688,0.515625 -0.1757813,0.703125 -0.4335937,1.1484375 -0.5625,1.6054688 -0.5625,2.0390625 0,1.07812504 0.8671875,1.23046879 1.3359375,1.23046879 1.6640625,0 2.2382813,-3.29296879 2.2382813,-3.80859379 z m 0,0"
           style="fill:#000000;fill-opacity:1;fill-rule:nonzero;stroke:none" /><path
           id="path222"
           d="m 7.9684922,0.41622656 c 0,-0.64453125 -0.703125,-0.7734375 -0.9609375,-0.8203125 -0.070312,-0.0117188 -0.2460938,-0.0351563 -0.28125,-0.0585938 -0.2578125,-0.046875 -0.3867188,-0.1875 -0.3867188,-0.33984375 0,-0.1640625 0.1289063,-0.35156241 0.28125,-0.44531241 0.1875,-0.1289063 0.4335938,-0.140625 0.5507813,-0.140625 0.140625,0 0.5039062,0.023437 0.65625,0.2578125 -0.1757813,0.046875 -0.2929688,0.18749991 -0.2929688,0.32812491 0,0.1640625 0.140625,0.22265625 0.234375,0.22265625 0.070312,0 0.3398438,-0.0351563 0.3398438,-0.3984375 0,-0.44531246 -0.5039063,-0.59765616 -0.9257813,-0.59765616 -1.0898437,0 -1.2890625,0.79687491 -1.2890625,1.00781241 0,0.2578125 0.1523438,0.43359375 0.2460938,0.515625 0.1757812,0.140625 0.3046875,0.1640625 0.7851562,0.24609375 0.1523438,0.0351563 0.5976563,0.1171875 0.5976563,0.46875 0,0.1171875 -0.082031,0.37499994 -0.375,0.55078124 -0.2695313,0.1523437 -0.609375,0.1523437 -0.6914063,0.1523437 -0.28125,0 -0.6796875,-0.058594 -0.84375,-0.2929687 0.234375,-0.023437 0.3867188,-0.19921874 0.3867188,-0.39843749 0,-0.1640625 -0.1289063,-0.2578125 -0.2695313,-0.2578125 -0.1992187,0 -0.4101562,0.1640625 -0.4101562,0.46875 0,0.42187499 0.4453125,0.67968749 1.125,0.67968749 1.2890625,0 1.5234375,-0.87890624 1.5234375,-1.14843744 z m 0,0"
           style="fill:#000000;fill-opacity:1;fill-rule:nonzero;stroke:none" /><path
           id="path223"
           d="m 12.380602,2.3908359 c 0,-0.035156 0,-0.046875 -0.164063,-0.2226562 -1.242187,-1.25390626 -1.570312,-3.12890626 -1.570312,-4.6640625 0,-1.7226563 0.386718,-3.4570313 1.605468,-4.7109375 0.128907,-0.1171875 0.128907,-0.1289063 0.128907,-0.1640625 0,-0.070312 -0.03516,-0.1054688 -0.09375,-0.1054688 -0.105469,0 -0.996094,0.6796875 -1.582032,1.9453125 -0.515625,1.1015625 -0.632812,2.203125 -0.632812,3.0351563 0,0.7851562 0.117187,1.99218749 0.65625,3.11718749 0.597656,1.21875001 1.453125,1.87500001 1.558594,1.87500001 0.05859,0 0.09375,-0.035156 0.09375,-0.1054688 z m 0,0"
           style="fill:#000000;fill-opacity:1;fill-rule:nonzero;stroke:none" /><path
           id="path224"
           d="m 18.749742,-2.3786953 c 0.105469,-0.4335938 0.222656,-0.9257813 0.222656,-1.3242188 0,-0.2578125 -0.04687,-0.4804687 -0.199218,-0.609375 -0.05859,-0.058594 -0.128907,-0.09375 -0.222657,-0.09375 -0.117187,0 -0.246093,0.058594 -0.351562,0.1640625 -0.09375,0.09375 -0.140625,0.2109375 -0.140625,0.3164063 0,0.1054687 0.04687,0.1757812 0.117187,0.2460937 0.246094,0.2226563 0.375,0.5273438 0.375,0.8789063 0,0.1171875 -0.01172,0.2460937 -0.04687,0.375 -0.222656,0.9023437 -0.796875,1.81640624 -1.59375,1.81640624 -0.550781,0 -0.878906,-0.375 -0.972656,-0.89062504 0.128906,-0.28125 0.234375,-0.5859375 0.304688,-0.8789062 0.01172,-0.09375 0.03516,-0.1757813 0.03516,-0.2578125 0,-0.1523438 -0.04687,-0.2578125 -0.1875,-0.2578125 -0.1875,0 -0.292969,0.2460937 -0.339844,0.46875 -0.08203,0.3046875 -0.117187,0.5976562 -0.128906,0.890625 -0.328125,0.53906249 -0.808594,0.92578124 -1.359375,0.92578124 -0.597656,0 -0.867188,-0.49218754 -0.867188,-1.12500004 0,-0.1992187 0.03516,-0.421875 0.08203,-0.6445312 0.152343,-0.5976563 0.515625,-1.1601563 0.890625,-1.6875 0.02344,-0.035156 0.04687,-0.082031 0.04687,-0.1289063 0,-0.058594 -0.03516,-0.1054687 -0.09375,-0.140625 -0.02344,-0.011719 -0.05859,-0.011719 -0.08203,-0.011719 -0.05859,0 -0.128906,0.023437 -0.175781,0.082031 -0.410156,0.5742188 -0.667969,1.2070313 -0.820312,1.8398438 -0.105469,0.375 -0.152344,0.7617187 -0.152344,1.1132812 0,0.80859379 0.292969,1.41796879 1.042969,1.41796879 0.632812,0 1.148437,-0.43359375 1.523437,-1.0546875 0.117188,0.62109375 0.457031,1.0546875 1.125,1.0546875 1.042969,0 1.664063,-1.27734379 1.96875,-2.48437499 z m 3.902344,0.9492187 c 0,-0.09375 -0.08203,-0.09375 -0.117188,-0.09375 -0.09375,0 -0.105468,0.023437 -0.152343,0.140625 -0.433594,1.03125004 -0.960938,1.27734379 -1.300782,1.27734379 -0.199218,0 -0.304687,-0.12890625 -0.304687,-0.45703125 0,-0.24609375 0.02344,-0.31640625 0.05859,-0.48046874 l 0.738281,-2.9414063 h 0.9375 c 0.199219,0 0.304687,0 0.304687,-0.1992187 0,-0.1054688 -0.105468,-0.1054688 -0.28125,-0.1054688 h -0.878906 c 0.363281,-1.4179687 0.410156,-1.6171875 0.410156,-1.6757812 0,-0.1757813 -0.117187,-0.2695313 -0.292968,-0.2695313 -0.02344,0 -0.304688,0.011719 -0.398438,0.3515625 l -0.386719,1.59375 h -0.9375 c -0.199218,0 -0.292968,0 -0.292968,0.1875 0,0.1171875 0.07031,0.1171875 0.269531,0.1171875 h 0.878906 c -0.714844,2.8242188 -0.75,3.00000004 -0.75,3.17578129 0,0.5390625 0.375,0.9140625 0.914063,0.9140625 1.007812,0 1.582031,-1.45312499 1.582031,-1.53515629 z m 0,0"
           style="fill:#000000;fill-opacity:1;fill-rule:nonzero;stroke:none" /><path
           id="path225"
           d="m 26.000719,-2.4958828 c 0,-0.7734375 -0.117188,-1.9804688 -0.65625,-3.1054688 -0.597656,-1.21875 -1.464844,-1.875 -1.558594,-1.875 -0.05859,0 -0.105469,0.046875 -0.105469,0.1054688 0,0.035156 0,0.046875 0.199219,0.234375 0.972656,0.984375 1.535156,2.5664062 1.535156,4.640625 0,1.71093749 -0.363281,3.45703124 -1.59375,4.7226562 -0.140625,0.1171875 -0.140625,0.1289063 -0.140625,0.1640625 0,0.058594 0.04687,0.1054688 0.105469,0.1054688 0.09375,0 0.996094,-0.6796875 1.582031,-1.94531251 0.503907,-1.1015625 0.632813,-2.20312499 0.632813,-3.04687499 z m 0,0"
           style="fill:#000000;fill-opacity:1;fill-rule:nonzero;stroke:none" /></g><path
         id="path226"
         d="m 155.90744,141.73404 c 0.4483,0.89666 1.49442,1.49441 2.98883,1.49441 h 22.36914 c 1.49442,0 2.54053,0.59777 2.98883,1.49442 0.44832,-0.89665 1.49442,-1.49442 2.98883,-1.49442 h 22.36916 c 1.49441,0 2.54053,-0.59775 2.98883,-1.49441"
         style="fill:none;stroke:#000000;stroke-width:0.3985;stroke-linecap:butt;stroke-linejoin:miter;stroke-miterlimit:10;stroke-dasharray:none;stroke-opacity:1"
         transform="matrix(1.3333333,0,0,-1.3333333,200.70933,823.15467)" /><g
         id="g226"
         aria-label="Tunedtoω"
         transform="matrix(1.3333333,0,0,1.3333333,413.40933,619.856)"><path
           id="path227"
           d="m 6.8209297,-4.5003984 -0.1875,-2.2382813 H 0.55139844 l -0.1875,2.2382813 h 0.24609375 c 0.140625,-1.6054688 0.29296875,-1.9335938 1.79296871,-1.9335938 0.1757813,0 0.4335938,0 0.5390625,0.023437 0.2109375,0.035156 0.2109375,0.140625 0.2109375,0.375 v 5.25000001 c 0,0.33984375 0,0.48046875 -1.0546875,0.48046875 H 1.6998359 V -3.984375e-4 C 2.1099922,-0.03555469 3.1295234,-0.03555469 3.5865547,-0.03555469 c 0.4570312,0 1.4882812,0 1.8984375,0.0351562525 V -0.30508594 H 5.0865547 c -1.0546875,0 -1.0546875,-0.140625 -1.0546875,-0.48046875 V -6.0355547 c 0,-0.1992187 0,-0.3398437 0.1875,-0.375 0.1054687,-0.023437 0.375,-0.023437 0.5625,-0.023437 1.5,0 1.6523437,0.328125 1.7929687,1.9335938 z M 11.698859,-3.984375e-4 V -0.30508594 c -0.703125,0 -0.785156,-0.0703125 -0.785156,-0.5625 V -4.4066484 l -1.4531249,0.1171875 v 0.3046875 c 0.6914059,0 0.7734379,0.070312 0.7734379,0.5625 v 1.7695312 c 0,0.86718751 -0.4804691,1.54687501 -1.2070316,1.54687501 -0.8320313,0 -0.8789063,-0.46875 -0.8789063,-0.99609371 v -3.3046875 l -1.4648437,0.1171875 v 0.3046875 c 0.7851562,0 0.7851562,0.035156 0.7851562,0.9140625 v 1.5 c 0,0.77343746 0,1.67578121 1.5117188,1.67578121 0.5507812,0 0.9960937,-0.26953125 1.2773436,-0.890625 v 0.890625 z m 5.53711,0 V -0.30508594 c -0.515625,0 -0.773438,0 -0.785156,-0.3046875 V -2.5082109 c 0,-0.8554688 0,-1.171875 -0.304688,-1.5234375 -0.140625,-0.1757813 -0.46875,-0.375 -1.042969,-0.375 -0.726562,0 -1.195312,0.4335937 -1.476562,1.0546875 v -1.0546875 l -1.40625,0.1171875 v 0.3046875 c 0.703125,0 0.785156,0.070312 0.785156,0.5625 v 2.66015621 c 0,0.45703125 -0.117187,0.45703125 -0.785156,0.45703125 v 0.3046875025 l 1.125,-0.0351562525 1.113281,0.0351562525 V -0.30508594 c -0.65625,0 -0.773437,0 -0.773437,-0.45703125 V -2.5902422 c 0,-1.03125 0.714843,-1.59375 1.347656,-1.59375 0.621094,0 0.738281,0.5390625 0.738281,1.1015625 v 2.32031251 c 0,0.45703125 -0.117187,0.45703125 -0.773437,0.45703125 v 0.3046875025 l 1.125,-0.0351562525 z M 21.574836,-1.1839922 c 0,-0.1054687 -0.08203,-0.1171875 -0.128906,-0.1171875 -0.09375,0 -0.117188,0.058594 -0.128907,0.140625 -0.351562,1.01953126 -1.253906,1.01953126 -1.347656,1.01953126 -0.503906,0 -0.902344,-0.29296875 -1.125,-0.66796875 C 18.53968,-1.2894609 18.53968,-1.9457109 18.53968,-2.2972734 h 2.789062 c 0.210938,0 0.246094,0 0.246094,-0.2109375 0,-0.984375 -0.539063,-1.9570313 -1.78125,-1.9570313 -1.160156,0 -2.074219,1.03125 -2.074219,2.2734375 0,1.33593751 1.042969,2.29687501 2.191406,2.29687501 1.21875,0 1.664063,-1.1015625 1.664063,-1.28906251 z m -0.65625,-1.3242187 h -2.367188 c 0.05859,-1.4882813 0.902344,-1.734375 1.242188,-1.734375 1.019531,0 1.125,1.3476562 1.125,1.734375 z m 6.199219,2.5078124625 V -0.30508594 c -0.703125,0 -0.773438,-0.0703125 -0.773438,-0.5625 V -6.9144609 l -1.441406,0.1054687 v 0.3164063 c 0.703125,0 0.785156,0.070312 0.785156,0.5507812 v 2.15625 c -0.292969,-0.3632812 -0.726562,-0.6210937 -1.265625,-0.6210937 -1.171875,0 -2.214844,0.984375 -2.214844,2.2617187 0,1.26562501 0.972657,2.25000001 2.109375,2.25000001 0.644532,0 1.089844,-0.33984375 1.335938,-0.65625 v 0.65625 z M 25.652961,-1.1722734 c 0,0.17578121 0,0.19921871 -0.105469,0.36328121 -0.304687,0.48046875 -0.75,0.703125 -1.183594,0.703125 -0.445312,0 -0.796875,-0.2578125 -1.042968,-0.64453125 -0.257813,-0.41015626 -0.292969,-0.97265626 -0.292969,-1.38281246 0,-0.3632813 0.02344,-0.9609375 0.316406,-1.4179688 0.210938,-0.3046875 0.585938,-0.6328125 1.125,-0.6328125 0.351563,0 0.761719,0.1523438 1.078125,0.5976563 0.105469,0.1640625 0.105469,0.1875 0.105469,0.3632812 z m 8.370117,-0.058594 v -0.5742187 h -0.246094 v 0.5507812 c 0,0.73828126 -0.304687,1.11328126 -0.667968,1.11328126 -0.667969,0 -0.667969,-0.90234376 -0.667969,-1.07812496 v -2.765625 h 1.429687 v -0.3046875 h -1.429687 v -1.8398438 h -0.246094 c -0.01172,0.8203125 -0.316406,1.8867188 -1.289062,1.921875 v 0.2226563 h 0.84375 v 2.7539062 c 0,1.21875001 0.925781,1.33593751 1.289062,1.33593751 0.703125,0 0.984375,-0.703125 0.984375,-1.33593751 z m 5.258789,-0.9023437 c 0,-1.2773438 -0.996094,-2.3320313 -2.191406,-2.3320313 -1.253906,0 -2.214844,1.0898438 -2.214844,2.3320313 0,1.28906246 1.03125,2.23828121 2.203125,2.23828121 1.207031,0 2.203125,-0.97265625 2.203125,-2.23828121 z m -0.820312,-0.082031 c 0,0.3632813 0,0.9023438 -0.222657,1.33593751 -0.222656,0.4453125 -0.65625,0.73828125 -1.148437,0.73828125 -0.433594,0 -0.867188,-0.2109375 -1.136719,-0.66796875 C 35.69593,-1.2425859 35.69593,-1.8519609 35.69593,-2.2152422 c 0,-0.3867187 0,-0.9257812 0.246093,-1.359375 0.269532,-0.4570312 0.738282,-0.6679687 1.136719,-0.6679687 0.433594,0 0.867188,0.2226562 1.125,0.6445312 0.257813,0.4335938 0.257813,1.0078125 0.257813,1.3828126 z m 0,0"
           style="fill:#000000;fill-opacity:1;fill-rule:nonzero;stroke:none" /><path
           id="path228"
           d="m 48.683234,-2.3793047 c 0.105469,-0.4335937 0.222657,-0.9257812 0.222657,-1.3242187 0,-0.2578125 -0.04687,-0.4804688 -0.199219,-0.609375 -0.05859,-0.058594 -0.128906,-0.09375 -0.222656,-0.09375 -0.117188,0 -0.246094,0.058594 -0.351563,0.1640625 -0.09375,0.09375 -0.140625,0.2109375 -0.140625,0.3164062 0,0.1054688 0.04687,0.1757813 0.117188,0.2460938 0.246093,0.2226562 0.375,0.5273437 0.375,0.8789062 0,0.1171875 -0.01172,0.2460938 -0.04687,0.375 -0.222657,0.9023438 -0.796875,1.81640626 -1.59375,1.81640626 -0.550782,0 -0.878907,-0.375 -0.972657,-0.89062496 0.128907,-0.28125 0.234375,-0.5859375 0.304688,-0.8789063 0.01172,-0.09375 0.03516,-0.1757812 0.03516,-0.2578125 0,-0.1523437 -0.04687,-0.2578125 -0.1875,-0.2578125 -0.1875,0 -0.292969,0.2460938 -0.339844,0.46875 -0.08203,0.3046875 -0.117187,0.5976563 -0.128906,0.890625 -0.328125,0.53906251 -0.808594,0.92578126 -1.359375,0.92578126 -0.597656,0 -0.867187,-0.49218746 -0.867187,-1.12499996 0,-0.1992188 0.03516,-0.421875 0.08203,-0.6445313 0.152344,-0.5976562 0.515625,-1.1601562 0.890625,-1.6875 0.02344,-0.035156 0.04687,-0.082031 0.04687,-0.1289062 0,-0.058594 -0.03516,-0.1054688 -0.09375,-0.140625 -0.02344,-0.011719 -0.05859,-0.011719 -0.08203,-0.011719 -0.05859,0 -0.128907,0.023437 -0.175782,0.082031 -0.410156,0.5742187 -0.667968,1.2070312 -0.820312,1.8398437 -0.105469,0.375 -0.152344,0.7617188 -0.152344,1.1132813 0,0.80859371 0.292969,1.41796871 1.042969,1.41796871 0.632812,0 1.148437,-0.43359375 1.523437,-1.0546875 0.117188,0.62109375 0.457032,1.0546875 1.125,1.0546875 1.042969,0 1.664063,-1.27734371 1.96875,-2.48437501 z m 0,0"
           style="fill:#000000;fill-opacity:1;fill-rule:nonzero;stroke:none" /></g><path
         id="path229"
         d="M -42.5202,28.3468 H 283.4681"
         style="fill:none;stroke:#000000;stroke-width:0.3985;stroke-linecap:butt;stroke-linejoin:miter;stroke-miterlimit:10;stroke-dasharray:none;stroke-opacity:1"
         transform="matrix(1.3333333,0,0,-1.3333333,200.70933,823.15467)" /><path
         id="path230"
         d="M 70.867,96.37897 V 93.94305"
         style="fill:none;stroke:#000000;stroke-width:0.3985;stroke-linecap:butt;stroke-linejoin:miter;stroke-miterlimit:10;stroke-dasharray:none;stroke-opacity:1"
         transform="matrix(1.3333333,0,0,-1.3333333,200.70933,823.15467)" /><path
         id="path231"
         d="M -2.07224,2.39104 C -1.69365,0.95639 -0.84999,0.27895 0,0 -0.84999,-0.27895 -1.69365,-0.95639 -2.07224,-2.39104"
         style="fill:none;stroke:#000000;stroke-width:0.3985;stroke-linecap:round;stroke-linejoin:round;stroke-miterlimit:10;stroke-dasharray:none;stroke-opacity:1"
         transform="matrix(0,1.3333333,1.3333333,0,295.19867,698.16293)" /><g
         id="g231"
         aria-label="i&#10;s&#10;(ωt)"
         transform="matrix(1.3333333,0,0,1.3333333,304.59067,701.75067)"><path
           id="path232"
           d="m 2.8236016,-6.2231562 c 0,-0.1992188 -0.1289063,-0.3632813 -0.3632813,-0.3632813 -0.2695312,0 -0.5390625,0.2578125 -0.5390625,0.5273438 0,0.1875 0.140625,0.3632812 0.375,0.3632812 0.234375,0 0.5273438,-0.234375 0.5273438,-0.5273437 z m 0.09375,4.7929687 c 0,-0.09375 -0.09375,-0.09375 -0.1171875,-0.09375 -0.1054688,0 -0.1054688,0.023437 -0.1523438,0.1757813 -0.1757812,0.63281245 -0.5039062,1.24218745 -1.0195312,1.24218745 -0.1640625,0 -0.234375,-0.10546875 -0.234375,-0.328125 0,-0.2578125 0.058594,-0.3984375 0.2929687,-0.99609375 L 2.0736016,-2.484875 c 0.1171875,-0.28125 0.1171875,-0.3046875 0.2226562,-0.5742187 0.070312,-0.1992188 0.1289063,-0.3398438 0.1289063,-0.5273438 0,-0.4453125 -0.328125,-0.8203125 -0.8203125,-0.8203125 -0.93750004,0 -1.31250004,1.453125 -1.31250004,1.5351563 0,0.1054687 0.1171875,0.1054687 0.1171875,0.1054687 0.09375,0 0.10546875,-0.023437 0.15234375,-0.1875 0.26953125,-0.9375 0.66796879,-1.2304687 1.00781249,-1.2304687 0.082031,0 0.2578125,0 0.2578125,0.3164062 0,0.2109375 -0.070312,0.421875 -0.1171875,0.515625 -0.082031,0.2578125 -0.5273437,1.4179688 -0.6796875,1.8515625 -0.10546874,0.2578125 -0.23437499,0.5859375 -0.23437499,0.796875 0,0.46875 0.33984379,0.80859375 0.82031249,0.80859375 0.9375,0 1.3007813,-1.44140625 1.3007813,-1.53515625 z m 0,0"
           style="fill:#000000;fill-opacity:1;fill-rule:nonzero;stroke:none" /><path
           id="path233"
           d="m 6.5736016,0.41551563 c 0,-0.64453125 -0.703125,-0.7734375 -0.9609375,-0.8203125 -0.070312,-0.0117188 -0.2460938,-0.0351563 -0.28125,-0.0585938 -0.2578125,-0.046875 -0.3867188,-0.1875 -0.3867188,-0.33984375 0,-0.1640625 0.1289063,-0.35156248 0.28125,-0.44531248 0.1875,-0.1289062 0.4335938,-0.140625 0.5507813,-0.140625 0.140625,0 0.5039062,0.023437 0.65625,0.2578125 -0.1757813,0.046875 -0.2929688,0.18749998 -0.2929688,0.32812498 0,0.1640625 0.140625,0.22265625 0.234375,0.22265625 0.070312,0 0.3398438,-0.0351563 0.3398438,-0.3984375 0,-0.44531243 -0.5039063,-0.59765623 -0.9257813,-0.59765623 -1.0898437,0 -1.2890625,0.79687498 -1.2890625,1.00781248 0,0.2578125 0.1523438,0.43359375 0.2460938,0.515625 0.1757812,0.140625 0.3046875,0.1640625 0.7851562,0.24609375 0.1523438,0.0351563 0.5976563,0.1171875 0.5976563,0.46875 0,0.1171875 -0.082031,0.37499997 -0.375,0.55078117 -0.2695313,0.1523438 -0.609375,0.1523438 -0.6914063,0.1523438 -0.28125,0 -0.6796875,-0.058594 -0.84375,-0.2929688 0.234375,-0.023437 0.3867188,-0.19921867 0.3867188,-0.39843742 0,-0.1640625 -0.1289063,-0.2578125 -0.2695313,-0.2578125 -0.1992187,0 -0.4101562,0.1640625 -0.4101562,0.46875 0,0.42187492 0.4453125,0.67968742 1.125,0.67968742 1.2890625,0 1.5234375,-0.87890617 1.5234375,-1.14843737 z m 0,0"
           style="fill:#000000;fill-opacity:1;fill-rule:nonzero;stroke:none" /><path
           id="path234"
           d="m 10.982781,2.390125 c 0,-0.035156 0,-0.046875 -0.164062,-0.2226562 -1.2421877,-1.2539063 -1.5703127,-3.1289063 -1.5703127,-4.6640625 0,-1.7226563 0.3867187,-3.4570313 1.6054687,-4.7109375 0.128906,-0.1171875 0.128906,-0.1289063 0.128906,-0.1640625 0,-0.070312 -0.03516,-0.1054688 -0.09375,-0.1054688 -0.105468,0 -0.9960935,0.6796875 -1.582031,1.9453125 -0.515625,1.1015625 -0.6328125,2.203125 -0.6328125,3.0351563 0,0.7851562 0.1171875,1.99218745 0.65625,3.11718745 0.5976563,1.21875005 1.4531255,1.87500005 1.5585935,1.87500005 0.05859,0 0.09375,-0.035156 0.09375,-0.1054688 z m 0,0"
           style="fill:#000000;fill-opacity:1;fill-rule:nonzero;stroke:none" /><path
           id="path235"
           d="M 17.354852,-2.3794062 C 17.46032,-2.813 17.577508,-3.3051875 17.577508,-3.703625 c 0,-0.2578125 -0.04687,-0.4804687 -0.199219,-0.609375 -0.05859,-0.058594 -0.128906,-0.09375 -0.222656,-0.09375 -0.117188,0 -0.246094,0.058594 -0.351563,0.1640625 -0.09375,0.09375 -0.140625,0.2109375 -0.140625,0.3164063 0,0.1054687 0.04687,0.1757812 0.117188,0.2460937 0.246094,0.2226563 0.375,0.5273438 0.375,0.8789063 0,0.1171875 -0.01172,0.2460937 -0.04687,0.375 -0.222656,0.9023437 -0.796875,1.8164062 -1.59375,1.8164062 -0.550781,0 -0.878906,-0.375 -0.972656,-0.890625 0.128906,-0.28125 0.234375,-0.5859375 0.304687,-0.8789062 0.01172,-0.09375 0.03516,-0.1757813 0.03516,-0.2578125 0,-0.1523438 -0.04687,-0.2578125 -0.1875,-0.2578125 -0.1875,0 -0.292968,0.2460937 -0.339843,0.46875 -0.08203,0.3046875 -0.117188,0.5976562 -0.128907,0.890625 -0.328125,0.53906245 -0.808593,0.9257812 -1.359375,0.9257812 -0.597656,0 -0.867187,-0.4921875 -0.867187,-1.125 0,-0.1992187 0.03516,-0.421875 0.08203,-0.6445312 0.152344,-0.5976563 0.515625,-1.1601563 0.890625,-1.6875 0.02344,-0.035156 0.04687,-0.082031 0.04687,-0.1289063 0,-0.058594 -0.03516,-0.1054687 -0.09375,-0.140625 -0.02344,-0.011719 -0.05859,-0.011719 -0.08203,-0.011719 -0.05859,0 -0.128906,0.023437 -0.175781,0.082031 -0.410157,0.5742188 -0.667969,1.2070313 -0.820313,1.8398438 -0.105469,0.375 -0.152344,0.7617187 -0.152344,1.1132812 0,0.80859375 0.292969,1.41796875 1.042969,1.41796875 0.632813,0 1.148438,-0.43359375 1.523438,-1.0546875 0.117187,0.62109375 0.457031,1.0546875 1.125,1.0546875 1.042968,0 1.664062,-1.27734375 1.96875,-2.48437495 z m 3.899414,0.9492187 c 0,-0.09375 -0.08203,-0.09375 -0.117188,-0.09375 -0.09375,0 -0.105469,0.023437 -0.152344,0.140625 -0.433593,1.03125 -0.960937,1.27734375 -1.300781,1.27734375 -0.199219,0 -0.304687,-0.12890625 -0.304687,-0.45703125 0,-0.24609375 0.02344,-0.31640625 0.05859,-0.4804687 l 0.738282,-2.9414063 h 0.9375 c 0.199218,0 0.304687,0 0.304687,-0.1992187 0,-0.1054688 -0.105469,-0.1054688 -0.28125,-0.1054688 h -0.878906 c 0.363281,-1.4179687 0.410156,-1.6171875 0.410156,-1.6757812 0,-0.1757813 -0.117187,-0.2695313 -0.292969,-0.2695313 -0.02344,0 -0.304687,0.011719 -0.398437,0.3515625 l -0.386719,1.59375 h -0.9375 c -0.199219,0 -0.292969,0 -0.292969,0.1875 0,0.1171875 0.07031,0.1171875 0.269532,0.1171875 h 0.878906 c -0.714844,2.8242188 -0.75,3 -0.75,3.17578125 0,0.5390625 0.375,0.9140625 0.914062,0.9140625 1.007813,0 1.582032,-1.45312495 1.582032,-1.53515625 z m 0,0"
           style="fill:#000000;fill-opacity:1;fill-rule:nonzero;stroke:none" /><path
           id="path236"
           d="m 24.602898,-2.4965937 c 0,-0.7734375 -0.117187,-1.9804688 -0.65625,-3.1054688 -0.597656,-1.21875 -1.464843,-1.875 -1.558593,-1.875 -0.05859,0 -0.105469,0.046875 -0.105469,0.1054688 0,0.035156 0,0.046875 0.199219,0.234375 0.972656,0.984375 1.535156,2.5664062 1.535156,4.640625 0,1.71093745 -0.363281,3.4570312 -1.59375,4.7226562 -0.140625,0.1171875 -0.140625,0.1289063 -0.140625,0.1640625 0,0.058594 0.04687,0.1054688 0.105469,0.1054688 0.09375,0 0.996093,-0.6796875 1.582031,-1.94531255 0.503906,-1.1015625 0.632812,-2.20312495 0.632812,-3.04687495 z m 0,0"
           style="fill:#000000;fill-opacity:1;fill-rule:nonzero;stroke:none" /></g><g
         id="g236"
         aria-label="F=1MHz"
         transform="matrix(1.3333333,0,0,1.3333333,469.46533,771.03733)"><path
           id="path237"
           d="M 7.2535391,-4.7799531 7.4527578,-6.5026094 C 7.4761953,-6.7721406 7.4293203,-6.7721406 7.1832266,-6.7721406 H 2.2965078 c -0.1992187,0 -0.2929687,0 -0.2929687,0.1992187 0,0.1054688 0.09375,0.1054688 0.28125,0.1054688 0.3632812,0 0.6445312,0 0.6445312,0.1875 0,0.035156 0,0.058594 -0.046875,0.234375 l -1.3242187,5.27343747 c -0.09375,0.38671875 -0.1171875,0.46875 -0.90234379,0.46875 -0.1640625,0 -0.28125,0 -0.28125,0.1875 0,0.1171875 0.12890625,0.1171875 0.15234375,0.1171875 L 1.8394766,-0.03385938 3.3277578,0.00129687 c 0.09375,0 0.2109375,0 0.2109375,-0.1875 0,-0.0820313 -0.058594,-0.1171875 -0.058594,-0.1171875 -0.035156,0 -0.058594,0 -0.28125,0 -0.2226563,0 -0.2695313,0 -0.515625,-0.0234375 -0.2929688,-0.0351563 -0.328125,-0.0703125 -0.328125,-0.19921875 0,0 0,-0.0820313 0.046875,-0.234375 l 0.621094,-2.47265622 h 0.9609375 c 0.75,0 0.8320313,0.1523437 0.8320313,0.4453125 0,0.070312 0,0.1875 -0.070312,0.4921875 -0.023437,0.046875 -0.035156,0.1054687 -0.035156,0.1054687 0,0.082031 0.058594,0.1171875 0.1171875,0.1171875 0.1054688,0 0.1054688,-0.023437 0.1523438,-0.2109375 l 0.5507812,-2.15625 c 0.023437,-0.1054687 0.023437,-0.1289062 0.023437,-0.1640625 0,0 -0.011719,-0.1054687 -0.1171875,-0.1054687 -0.09375,0 -0.1054687,0.046875 -0.1523437,0.2109375 -0.1992188,0.7734375 -0.4335938,0.9492187 -1.2773438,0.9492187 H 3.0933828 l 0.6445313,-2.53125 c 0.082031,-0.3398437 0.09375,-0.3867187 0.5390625,-0.3867187 h 1.3125 c 1.21875,0 1.453125,0.328125 1.453125,1.1015625 0,0.2226562 0,0.2695312 -0.035156,0.5390625 -0.011719,0.1289062 -0.011719,0.140625 -0.011719,0.1757812 0,0.046875 0.023437,0.1171875 0.1171875,0.1171875 0.1054687,0 0.1171875,-0.058594 0.140625,-0.2460937 z m 0,0"
           style="fill:#000000;fill-opacity:1;fill-rule:nonzero;stroke:none" /><path
           id="path238"
           d="m 17.74182,-3.4557344 c 0,-0.1992187 -0.1875,-0.1992187 -0.328125,-0.1992187 h -5.964843 c -0.140625,0 -0.328125,0 -0.328125,0.1992187 0,0.1992188 0.1875,0.1992188 0.339843,0.1992188 h 5.941407 c 0.152343,0 0.339843,0 0.339843,-0.1992188 z m 0,1.9335938 c 0,-0.1992188 -0.1875,-0.1992188 -0.339843,-0.1992188 H 11.46057 c -0.152343,0 -0.339843,0 -0.339843,0.1992188 0,0.1992187 0.1875,0.1992187 0.328125,0.1992187 h 5.964843 c 0.140625,0 0.328125,0 0.328125,-0.1992187 z m 7.50586,1.52343747 v -0.3046875 h -0.316407 c -0.902343,0 -0.925781,-0.1171875 -0.925781,-0.48046875 V -6.3737031 c 0,-0.234375 0,-0.2578125 -0.234375,-0.2578125 -0.609375,0.6328125 -1.488281,0.6328125 -1.804687,0.6328125 v 0.3164062 c 0.199218,0 0.785156,0 1.300781,-0.2578125 v 5.15625002 c 0,0.3515625 -0.03516,0.48046875 -0.925781,0.48046875 h -0.316407 v 0.3046875 c 0.351563,-0.03515625 1.207032,-0.03515625 1.605469,-0.03515625 0.398438,0 1.265625,0 1.617188,0.03515625 z m 0,0"
           style="fill:#000000;fill-opacity:1;fill-rule:nonzero;stroke:none" /><path
           id="path239"
           d="m 38.129516,0.00129687 v -0.3046875 h -0.234375 c -0.773438,0 -0.785157,-0.1171875 -0.785157,-0.46875 V -6.0221406 c 0,-0.3632813 0.01172,-0.46875 0.785157,-0.46875 h 0.234375 v -0.3164063 h -1.675782 c -0.269531,0 -0.269531,0.011719 -0.339843,0.1992188 l -2.179688,5.6015625 -2.15625,-5.578125 c -0.09375,-0.2226563 -0.117187,-0.2226563 -0.351562,-0.2226563 h -1.6875 v 0.3164063 h 0.246093 c 0.761719,0 0.785157,0.1054687 0.785157,0.46875 v 4.9804687 c 0,0.26953127 0,0.73828127 -1.03125,0.73828127 v 0.3046875 l 1.171875,-0.03515625 1.160156,0.03515625 v -0.3046875 c -1.019531,0 -1.019531,-0.46875 -1.019531,-0.73828127 v -5.3671875 h 0.01172 l 2.402344,6.18750002 c 0.04687,0.12890625 0.09375,0.22265625 0.199219,0.22265625 0.105469,0 0.128906,-0.08203125 0.175781,-0.1875 l 2.449219,-6.30468747 h 0.01172 v 5.71874997 c 0,0.3515625 -0.02344,0.46875 -0.785157,0.46875 h -0.246093 v 0.3046875 c 0.375,-0.03515625 1.042968,-0.03515625 1.441406,-0.03515625 0.386719,0 1.054687,0 1.417969,0.03515625 z m 7.514648,0 v -0.3046875 H 45.39807 c -0.761718,0 -0.785156,-0.1171875 -0.785156,-0.46875 V -6.0221406 c 0,-0.3632813 0.02344,-0.46875 0.785156,-0.46875 h 0.246094 v -0.3164063 c -0.351562,0.035156 -1.089844,0.035156 -1.464844,0.035156 -0.386718,0 -1.125,0 -1.476562,-0.035156 v 0.3164063 h 0.234375 c 0.773437,0 0.785156,0.1054687 0.785156,0.46875 v 2.3320312 h -2.976562 v -2.3320312 c 0,-0.3632813 0.02344,-0.46875 0.785156,-0.46875 h 0.246094 v -0.3164063 c -0.351563,0.035156 -1.089844,0.035156 -1.464844,0.035156 -0.375,0 -1.125,0 -1.476563,-0.035156 v 0.3164063 h 0.234375 c 0.773438,0 0.796875,0.1054687 0.796875,0.46875 v 5.24999997 c 0,0.3515625 -0.02344,0.46875 -0.796875,0.46875 H 38.83557 v 0.3046875 c 0.351563,-0.03515625 1.089844,-0.03515625 1.464844,-0.03515625 0.375,0 1.125,0 1.476563,0.03515625 v -0.3046875 h -0.246094 c -0.761719,0 -0.785156,-0.1171875 -0.785156,-0.46875 V -3.3854219 h 2.976562 v 2.61328127 c 0,0.3515625 -0.01172,0.46875 -0.785156,0.46875 h -0.234375 v 0.3046875 c 0.351562,-0.03515625 1.089844,-0.03515625 1.464844,-0.03515625 0.375,0 1.125,0 1.476562,0.03515625 z m 4.333008,-1.86328127 h -0.246094 c -0.09375,1.17187502 -0.304687,1.61718752 -1.453125,1.61718752 h -1.183594 l 2.777344,-3.75000002 c 0.08203,-0.1054687 0.08203,-0.1289062 0.08203,-0.1640625 0,-0.1289062 -0.08203,-0.1289062 -0.257812,-0.1289062 h -3.1875 l -0.105469,1.59375 h 0.246094 c 0.05859,-1.0078125 0.246094,-1.3828125 1.347656,-1.3828125 h 1.136719 l -2.789063,3.76171872 c -0.08203,0.10546875 -0.08203,0.12890625 -0.08203,0.17578125 0,0.140625 0.07031,0.140625 0.257813,0.140625 h 3.28125 z m 0,0"
           style="fill:#000000;fill-opacity:1;fill-rule:nonzero;stroke:none" /></g></g></g></svg>
