<?xml version="1.0" encoding="UTF-8" standalone="no"?>
<!-- Created with Inkscape (http://www.inkscape.org/) -->

<svg
   width="136.72755mm"
   height="46.298794mm"
   viewBox="0 0 136.72755 46.298794"
   version="1.1"
   id="svg1"
   xmlns="http://www.w3.org/2000/svg"
   xmlns:svg="http://www.w3.org/2000/svg">
  <defs
     id="defs1" />
  <g
     id="g2"
     transform="translate(-52.030638,-64.476942)">
    <path
       id="path79"
       d="M 68.226203,110.70544 V 99.905328 m 0,-8.400143 V 80.705063"
       style="fill:none;stroke:#000000;stroke-width:0.140582;stroke-linecap:butt;stroke-linejoin:miter;stroke-miterlimit:10;stroke-dasharray:none;stroke-opacity:1" />
    <path
       id="path80"
       d="m 64.02613,95.705258 c 0,2.319655 1.880415,4.20007 4.200073,4.20007 2.319662,0 4.20007,-1.880415 4.20007,-4.20007 0,-2.319665 -1.880408,-4.200073 -4.20007,-4.200073 -2.319658,0 -4.200073,1.880408 -4.200073,4.200073 z"
       style="fill:none;stroke:#000000;stroke-width:0.281164;stroke-linecap:butt;stroke-linejoin:miter;stroke-miterlimit:10;stroke-dasharray:none;stroke-opacity:1" />
    <path
       id="path81"
       d="M 68.226203,99.905328 V 91.505185"
       style="fill:none;stroke:#000000;stroke-width:0.281164;stroke-linecap:butt;stroke-linejoin:miter;stroke-miterlimit:10;stroke-dasharray:none;stroke-opacity:1" />
    <path
       id="path82"
       d="m 68.226203,80.705063 h 11.600194 m 16.800095,0 h 11.600198"
       style="fill:none;stroke:#000000;stroke-width:0.140582;stroke-linecap:butt;stroke-linejoin:miter;stroke-miterlimit:10;stroke-dasharray:none;stroke-opacity:1" />
    <path
       id="path83"
       d="m 79.826397,78.60503 h 16.800091 v 4.200067 H 79.826397 Z"
       style="fill:none;stroke:#000000;stroke-width:0.281164;stroke-linecap:butt;stroke-linejoin:miter;stroke-miterlimit:10;stroke-dasharray:none;stroke-opacity:1" />
    <g
       id="g83"
       aria-label="λ/4|Z&#10;0"
       transform="matrix(0.35277776,0,0,0.35277776,81.796224,77.260626)">
      <path
         id="path84"
         d="m 5.4610427,0.01179779 c 0,-0.03515625 -0.023437,-0.046875 -0.046875,-0.09375 C 5.308699,-0.18742096 5.2501052,-0.33976471 5.1797927,-0.53898346 L 3.152449,-6.2108585 c -0.2109375,-0.5742187 -0.75,-0.703125 -1.21875,-0.703125 -0.046875,0 -0.1757813,0 -0.1757813,0.1054688 0,0.082031 0.082031,0.1054687 0.082031,0.1054687 0.328125,0.058594 0.3984375,0.1171875 0.65625,0.796875 l 0.9609375,2.7070313 -2.75390626,2.73046874 c -0.1171875,0.1171875 -0.17578125,0.17578125 -0.17578125,0.3046875 0,0.17578125 0.140625,0.29296875 0.3046875,0.29296875 0.15234375,0 0.24609371,-0.10546875 0.32812501,-0.2109375 L 3.5508865,-2.906171 c 0.4101562,1.0429688 0.890625,2.56640629 1.0546875,2.80078129 0.1523437,0.2109375 0.2578125,0.2109375 0.5273437,0.2109375 h 0.2109375 c 0.1054688,0 0.1171875,-0.0703125 0.1171875,-0.09375 z M 10.230574,-7.2772647 c 0,-0.1054688 -0.08203,-0.1992188 -0.199219,-0.1992188 -0.070312,0 -0.128906,0.035156 -0.1640623,0.09375 L 6.4102615,2.109454 c -0.046875,0.1289063 -0.046875,0.1875 -0.046875,0.1875 0,0.1054688 0.082031,0.1992188 0.1992187,0.1992188 0.1289063,0 0.1523438,-0.070312 0.2109375,-0.2460938 l 3.4101563,-9.3398437 c 0.04687,-0.1289063 0.04687,-0.1875 0.04687,-0.1875 z m 0,0"
         style="fill:#000000;fill-opacity:1;fill-rule:nonzero;stroke:none" />
      <path
         id="path85"
         d="M 15.480574,-1.640546 V -1.9569522 H 14.48448 v -4.5234375 c 0,-0.1992188 0,-0.2578125 -0.152344,-0.2578125 -0.09375,0 -0.117187,0 -0.199218,0.1171875 l -3.058594,4.6640625 v 0.3164062 h 2.648437 v 0.86718754 c 0,0.3515625 -0.02344,0.46875 -0.761718,0.46875 H 12.750105 V 7.9044118e-5 C 13.160261,-0.03507721 13.687605,-0.03507721 14.097761,-0.03507721 c 0.421875,0 0.949219,0 1.359375,0.03515625412 V -0.30460846 h -0.210937 c -0.738281,0 -0.761719,-0.1171875 -0.761719,-0.46875 V -1.640546 Z m -1.699219,-0.3164062 h -2.425781 l 2.425781,-3.7148438 z m 0,0"
         style="fill:#000000;fill-opacity:1;fill-rule:nonzero;stroke:none" />
      <path
         id="path86"
         d="m 20.67784,2.156329 v -9.2929687 c 0,-0.140625 0,-0.3398438 -0.199219,-0.3398438 -0.199219,0 -0.199219,0.1992188 -0.199219,0.3398438 V 2.156329 c 0,0.140625 0,0.3398438 0.199219,0.3398438 0.199219,0 0.199219,-0.1992188 0.199219,-0.3398438 z m 0,0"
         style="fill:#000000;fill-opacity:1;fill-rule:nonzero;stroke:none" />
      <path
         id="path87"
         d="m 31.394636,-2.5546085 c 0,-0.046875 -0.03516,-0.1054687 -0.128906,-0.1054687 -0.08203,0 -0.09375,0.035156 -0.164062,0.2460937 -0.433594,1.359375 -0.914063,2.07421879 -2.613282,2.07421879 H 26.789168 L 32.355574,-6.562421 c 0.01172,-0.046875 0.03516,-0.09375 0.03516,-0.1523437 0,-0.09375 -0.05859,-0.09375 -0.257812,-0.09375 h -4.195313 c -0.246094,0 -0.257812,0.011719 -0.316406,0.1992187 l -0.539063,1.7929688 c -0.02344,0.058594 -0.03516,0.140625 -0.03516,0.140625 0,0 0,0.1171875 0.117188,0.1171875 0.09375,0 0.117187,-0.070312 0.128906,-0.1054688 0.386719,-1.171875 0.902344,-1.828125 2.449219,-1.828125 h 1.628906 l -5.566406,6.22265629 c 0,0 -0.04687,0.15234375 -0.04687,0.17578125 0,0.09375000412 0.07031,0.09375000412 0.257812,0.09375000412 h 4.324219 c 0.246094,0 0.257812,-0.01171875412 0.316406,-0.19921875412 l 0.70312,-2.20312499 c 0.01172,-0.035156 0.03516,-0.1054688 0.03516,-0.1523438 z m 0,0"
         style="fill:#000000;fill-opacity:1;fill-rule:nonzero;stroke:none" />
      <path
         id="path88"
         d="m 35.58116,-0.73234283 c 0,-0.76171877 -0.09375,-1.31249997 -0.410156,-1.80468747 -0.222657,-0.3164063 -0.644532,-0.5976563 -1.207032,-0.5976563 -1.617187,0 -1.617187,1.8984375 -1.617187,2.40234377 0,0.50390625 0,2.36718753 1.617187,2.36718753 1.617188,0 1.617188,-1.86328128 1.617188,-2.36718753 z m -0.632813,-0.09375 c 0,0.515625 0,1.04296875 -0.09375,1.4765625 -0.140625,0.63281253 -0.609375,0.78515623 -0.890625,0.78515623 -0.316406,0 -0.75,-0.1875 -0.890625,-0.76171873 -0.09375,-0.41015625 -0.09375,-0.984375 -0.09375,-1.5 0,-0.50390627 0,-1.03124997 0.105469,-1.41796877 0.152344,-0.5507812 0.597656,-0.6914062 0.878906,-0.6914062 0.375,0 0.738282,0.2226562 0.867188,0.6328125 0.105469,0.375 0.117187,0.8789062 0.117187,1.47656247 z m 0,0"
         style="fill:#000000;fill-opacity:1;fill-rule:nonzero;stroke:none" />
    </g>
    <path
       id="path89"
       d="m 104.2267,80.705063 h 0.85934"
       style="fill:none;stroke:#000000;stroke-width:0.140582;stroke-linecap:butt;stroke-linejoin:miter;stroke-miterlimit:10;stroke-dasharray:none;stroke-opacity:1" />
    <path
       id="path90"
       d="m 104.4253,79.861557 c 0.13356,0.506113 0.43118,0.745099 0.73104,0.843506 -0.29986,0.09841 -0.59748,0.337393 -0.73104,0.843506"
       style="fill:none;stroke:#000000;stroke-width:0.140582;stroke-linecap:round;stroke-linejoin:round;stroke-miterlimit:10;stroke-dasharray:none;stroke-opacity:1" />
    <g
       id="g90"
       aria-label="i&#10;e&#10;(ωt)"
       transform="matrix(0.35277776,0,0,0.35277776,100.70793,77.584123)">
      <path
         id="path91"
         d="m 2.8237459,-6.222585 c 0,-0.1992188 -0.1289063,-0.3632813 -0.3632813,-0.3632813 -0.2695312,0 -0.5390625,0.2578125 -0.5390625,0.5273438 0,0.1875 0.140625,0.3632812 0.375,0.3632812 0.234375,0 0.5273438,-0.234375 0.5273438,-0.5273437 z m 0.09375,4.7929687 c 0,-0.09375 -0.09375,-0.09375 -0.1171875,-0.09375 -0.1054688,0 -0.1054688,0.023437 -0.1523438,0.1757813 -0.1757812,0.63281248 -0.5039062,1.24218748 -1.0195312,1.24218748 -0.1640625,0 -0.234375,-0.10546875 -0.234375,-0.328125 0,-0.2578125 0.058594,-0.3984375 0.2929687,-0.99609378 l 0.3867188,-1.0546875 c 0.1171875,-0.28125 0.1171875,-0.3046875 0.2226562,-0.5742187 0.070312,-0.1992188 0.1289063,-0.3398438 0.1289063,-0.5273438 0,-0.4453125 -0.328125,-0.8203125 -0.8203125,-0.8203125 -0.93750004,0 -1.31250004,1.453125 -1.31250004,1.5351563 0,0.1054687 0.1171875,0.1054687 0.1171875,0.1054687 0.09375,0 0.10546875,-0.023437 0.15234375,-0.1875 0.26953125,-0.9375 0.66796879,-1.2304687 1.00781249,-1.2304687 0.082031,0 0.2578125,0 0.2578125,0.3164062 0,0.2109375 -0.070312,0.421875 -0.1171875,0.515625 -0.082031,0.2578125 -0.5273437,1.4179688 -0.6796875,1.8515625 -0.10546874,0.2578125 -0.23437499,0.58593753 -0.23437499,0.79687503 0,0.46875 0.33984379,0.80859375 0.82031249,0.80859375 0.9375,0 1.3007813,-1.44140628 1.3007813,-1.53515628 z m 0,0"
         style="fill:#000000;fill-opacity:1;fill-rule:nonzero;stroke:none" />
      <path
         id="path92"
         d="m 6.8901521,0.77936811 c 0,-0.046875 -0.070312,-0.1171875 -0.1289062,-0.1171875 -0.035156,0 -0.046875,0.0117188 -0.1054688,0.0703125 C 6.1049959,1.3653056 5.2964021,1.3653056 5.1674959,1.3653056 c -0.421875,0 -0.6914063,-0.28125 -0.6914063,-0.84374999 0,-0.09375 0,-0.234375 0.082031,-0.62109375 h 0.4335937 c 0.1992188,0 0.75,-0.01171875 1.125,-0.140625 0.515625,-0.1875 0.609375,-0.515625 0.609375,-0.7265625 0,-0.38671876 -0.375,-0.60937496 -0.8554687,-0.60937496 -0.84375,0 -1.96875,0.63281246 -1.96875,1.82812496 0,0.703125 0.4335937,1.31250004 1.2539062,1.31250004 1.1835938,0 1.734375,-0.69140629 1.7343753,-0.78515629 z M 6.4331209,-0.96672564 c 0,0.6796875 -1.1835938,0.6796875 -1.4765625,0.6796875 H 4.6167146 c 0.28125,-1.01953126 1.0546875,-1.10156246 1.2539063,-1.10156246 0.3046875,0 0.5625,0.1523437 0.5625,0.42187496 z m 0,0"
         style="fill:#000000;fill-opacity:1;fill-rule:nonzero;stroke:none" />
      <path
         id="path93"
         d="m 11.003433,2.3906962 c 0,-0.035156 0,-0.046875 -0.164062,-0.2226562 -1.2421876,-1.25390627 -1.5703126,-3.12890627 -1.5703126,-4.6640625 0,-1.7226563 0.3867187,-3.4570313 1.6054686,-4.7109375 0.128906,-0.1171875 0.128906,-0.1289063 0.128906,-0.1640625 0,-0.070312 -0.03516,-0.1054688 -0.09375,-0.1054688 -0.105468,0 -0.9960934,0.6796875 -1.5820309,1.9453125 -0.515625,1.1015625 -0.6328125,2.203125 -0.6328125,3.0351563 0,0.7851562 0.1171875,1.99218748 0.65625,3.11718748 C 9.9487459,1.839915 10.804215,2.496165 10.909683,2.496165 c 0.05859,0 0.09375,-0.035156 0.09375,-0.1054688 z m 0,0"
         style="fill:#000000;fill-opacity:1;fill-rule:nonzero;stroke:none" />
      <path
         id="path94"
         d="m 17.375504,-2.378835 c 0.105468,-0.4335938 0.222656,-0.9257813 0.222656,-1.3242188 0,-0.2578125 -0.04687,-0.4804687 -0.199219,-0.609375 -0.05859,-0.058594 -0.128906,-0.09375 -0.222656,-0.09375 -0.117188,0 -0.246094,0.058594 -0.351563,0.1640625 -0.09375,0.09375 -0.140625,0.2109375 -0.140625,0.3164063 0,0.1054687 0.04687,0.1757812 0.117188,0.2460937 0.246094,0.2226563 0.375,0.5273438 0.375,0.8789063 0,0.1171875 -0.01172,0.2460937 -0.04687,0.375 -0.222656,0.9023437 -0.796875,1.81640623 -1.59375,1.81640623 -0.550781,0 -0.878906,-0.375 -0.972656,-0.89062503 0.128906,-0.28125 0.234375,-0.5859375 0.304687,-0.8789062 0.01172,-0.09375 0.03516,-0.1757813 0.03516,-0.2578125 0,-0.1523438 -0.04687,-0.2578125 -0.1875,-0.2578125 -0.1875,0 -0.292968,0.2460937 -0.339843,0.46875 -0.08203,0.3046875 -0.117188,0.5976562 -0.128907,0.890625 -0.328125,0.53906248 -0.808593,0.92578123 -1.359375,0.92578123 -0.597656,0 -0.867187,-0.49218753 -0.867187,-1.12500003 0,-0.1992187 0.03516,-0.421875 0.08203,-0.6445312 0.152344,-0.5976563 0.515625,-1.1601563 0.890625,-1.6875 0.02344,-0.035156 0.04687,-0.082031 0.04687,-0.1289063 0,-0.058594 -0.03516,-0.1054687 -0.09375,-0.140625 -0.02344,-0.011719 -0.05859,-0.011719 -0.08203,-0.011719 -0.05859,0 -0.128906,0.023437 -0.175781,0.082031 -0.410157,0.5742188 -0.667969,1.2070313 -0.820313,1.8398438 -0.105469,0.375 -0.152344,0.7617187 -0.152344,1.1132812 0,0.80859378 0.292969,1.41796878 1.042969,1.41796878 0.632813,0 1.148438,-0.43359375 1.523438,-1.0546875 0.117187,0.62109375 0.457031,1.0546875 1.125,1.0546875 1.042968,0 1.664062,-1.27734378 1.96875,-2.48437498 z m 3.899414,0.9492187 c 0,-0.09375 -0.08203,-0.09375 -0.117188,-0.09375 -0.09375,0 -0.105469,0.023437 -0.152344,0.140625 -0.433593,1.03125003 -0.960937,1.27734378 -1.300781,1.27734378 -0.199219,0 -0.304687,-0.12890625 -0.304687,-0.45703125 0,-0.24609375 0.02344,-0.31640625 0.05859,-0.48046873 l 0.738282,-2.9414063 h 0.9375 c 0.199218,0 0.304687,0 0.304687,-0.1992187 0,-0.1054688 -0.105469,-0.1054688 -0.28125,-0.1054688 h -0.878906 c 0.363281,-1.4179687 0.410156,-1.6171875 0.410156,-1.6757812 0,-0.1757813 -0.117187,-0.2695313 -0.292969,-0.2695313 -0.02344,0 -0.304687,0.011719 -0.398437,0.3515625 l -0.386719,1.59375 h -0.9375 c -0.199219,0 -0.292969,0 -0.292969,0.1875 0,0.1171875 0.07031,0.1171875 0.269532,0.1171875 h 0.878906 c -0.714844,2.8242188 -0.75,3.00000003 -0.75,3.17578128 0,0.5390625 0.375,0.9140625 0.914062,0.9140625 1.007813,0 1.582032,-1.45312498 1.582032,-1.53515628 z m 0,0"
         style="fill:#000000;fill-opacity:1;fill-rule:nonzero;stroke:none" />
      <path
         id="path95"
         d="m 24.623551,-2.4960225 c 0,-0.7734375 -0.117188,-1.9804688 -0.65625,-3.1054688 -0.597657,-1.21875 -1.464844,-1.875 -1.558594,-1.875 -0.05859,0 -0.105469,0.046875 -0.105469,0.1054688 0,0.035156 0,0.046875 0.199219,0.234375 0.972656,0.984375 1.535156,2.5664062 1.535156,4.640625 0,1.71093748 -0.363281,3.45703123 -1.59375,4.7226562 -0.140625,0.1171875 -0.140625,0.1289063 -0.140625,0.1640625 0,0.058594 0.04687,0.1054688 0.105469,0.1054688 0.09375,0 0.996094,-0.6796875 1.582031,-1.94531252 0.503906,-1.1015625 0.632813,-2.20312498 0.632813,-3.04687498 z m 0,0"
         style="fill:#000000;fill-opacity:1;fill-rule:nonzero;stroke:none" />
    </g>
    <path
       id="path96"
       d="m 108.22669,110.70544 -1e-5,-12.550122 m 0,-4.900122 1e-5,-12.550133"
       style="fill:none;stroke:#000000;stroke-width:0.140582;stroke-linecap:butt;stroke-linejoin:miter;stroke-miterlimit:10;stroke-dasharray:none;stroke-opacity:1" />
    <path
       id="path97"
       d="m 108.22668,98.155318 -2.10003,-4.655104"
       style="fill:none;stroke:#000000;stroke-width:0.281164;stroke-linecap:butt;stroke-linejoin:miter;stroke-miterlimit:10;stroke-dasharray:none;stroke-opacity:1" />
    <path
       id="path98"
       d="M 123.22688,110.70544 V 97.105246 m 0,-2.799979 V 80.705063"
       style="fill:none;stroke:#000000;stroke-width:0.140582;stroke-linecap:butt;stroke-linejoin:miter;stroke-miterlimit:10;stroke-dasharray:none;stroke-opacity:1" />
    <path
       id="path99"
       d="m 119.0268,97.105246 h 8.40015 m -8.40015,-2.799979 h 8.40015"
       style="fill:none;stroke:#000000;stroke-width:0.281164;stroke-linecap:butt;stroke-linejoin:miter;stroke-miterlimit:10;stroke-dasharray:none;stroke-opacity:1" />
    <g
       id="g99"
       aria-label="C&#10;s"
       transform="matrix(0.35277776,0,0,0.35277776,128.41369,96.462319)">
      <path
         id="path100"
         d="m 6.4449724,-2.3898819 c 0,-0.1054687 -0.1171875,-0.1054687 -0.1171875,-0.1054687 -0.058594,0 -0.1171875,0.023437 -0.1289062,0.1054687 -0.09375,0.2929688 -0.3164063,0.9960938 -1.0078125,1.57031251 -0.6914063,0.5625 -1.3125,0.7265625 -1.8398438,0.7265625 -0.890625,0 -1.9453125,-0.515625 -1.9453125,-2.06250001 0,-0.5742187 0.2109375,-2.1914062 1.2070313,-3.3515625 0.609375,-0.703125 1.5351562,-1.2070312 2.4257812,-1.2070312 1.0195313,0 1.6054688,0.7734375 1.6054688,1.921875 0,0.3984375 -0.035156,0.4101562 -0.035156,0.5039062 0,0.1054688 0.1171875,0.1054688 0.1523438,0.1054688 0.1289062,0 0.1289062,-0.023437 0.1757812,-0.1992188 l 0.6328125,-2.5429687 c 0,-0.023437 -0.023437,-0.09375 -0.1054687,-0.09375 -0.035156,0 -0.046875,0.011719 -0.1523438,0.1171875 l -0.703125,0.7617187 c -0.082031,-0.140625 -0.5390625,-0.8789062 -1.6523437,-0.8789062 -2.2148438,0 -4.45312502,2.203125 -4.45312502,4.5117187 0,1.64062501 1.17187502,2.73046876 2.69531252,2.73046876 0.8671875,0 1.6171875,-0.3984375 2.1445312,-0.85546875 0.9375,-0.82031251 1.1015625,-1.72265621 1.1015622,-1.75781251 z m 0,0"
         style="fill:#000000;fill-opacity:1;fill-rule:nonzero;stroke:none" />
      <path
         id="path101"
         d="m 10.262355,0.41675873 c 0,-0.64453125 -0.7031248,-0.7734375 -0.9609373,-0.8203125 -0.070312,-0.0117188 -0.2460937,-0.0351563 -0.28125,-0.0585938 -0.2578125,-0.046875 -0.3867187,-0.1875 -0.3867187,-0.33984375 0,-0.1640625 0.1289062,-0.35156248 0.28125,-0.44531248 0.1875,-0.1289062 0.4335937,-0.140625 0.5507812,-0.140625 0.140625,0 0.5039063,0.023437 0.6562498,0.2578125 -0.175781,0.046875 -0.2929685,0.18749998 -0.2929685,0.32812498 0,0.1640625 0.140625,0.22265625 0.2343745,0.22265625 0.07031,0 0.339844,-0.0351563 0.339844,-0.3984375 0,-0.44531243 -0.503906,-0.59765623 -0.925781,-0.59765623 -1.0898438,0 -1.2890625,0.79687498 -1.2890625,1.00781248 0,0.2578125 0.1523437,0.43359375 0.2460937,0.515625 0.1757813,0.140625 0.3046875,0.1640625 0.7851563,0.24609375 0.1523437,0.0351563 0.5976562,0.1171875 0.5976562,0.46875 0,0.1171875 -0.082031,0.37499997 -0.375,0.55078117 -0.2695312,0.1523438 -0.609375,0.1523438 -0.6914062,0.1523438 -0.28125,0 -0.6796875,-0.058594 -0.84375,-0.2929688 0.234375,-0.023437 0.3867187,-0.19921867 0.3867187,-0.39843742 0,-0.1640625 -0.1289062,-0.2578125 -0.2695312,-0.2578125 -0.1992188,0 -0.4101563,0.1640625 -0.4101563,0.46875 0,0.42187492 0.4453125,0.67968742 1.125,0.67968742 1.2890623,0 1.5234373,-0.87890617 1.5234373,-1.14843737 z m 0,0"
         style="fill:#000000;fill-opacity:1;fill-rule:nonzero;stroke:none" />
    </g>
    <path
       id="path102"
       d="m 108.22669,80.705063 h 25.00031 5.80005 m 8.40014,0 h 5.80006 1.10004 m 2.79998,0 h 1.10004 8.30008 m 8.40015,0 h 8.30009"
       style="fill:none;stroke:#000000;stroke-width:0.140582;stroke-linecap:butt;stroke-linejoin:miter;stroke-miterlimit:10;stroke-dasharray:none;stroke-opacity:1" />
    <path
       id="path103"
       d="m 138.88646,80.761296 c 0,-1.159824 0.57671,-2.100036 1.28812,-2.100036 0.71141,0 1.28812,0.940212 1.28812,2.100036 0,0.579882 -0.23504,1.049962 -0.52499,1.049962 -0.28994,0 -0.52498,-0.47008 -0.52498,-1.049962 0,-1.159824 0.5767,-2.100036 1.28811,-2.100036 0.71141,0 1.28812,0.940212 1.28812,2.100036 0,0.579882 -0.23504,1.049962 -0.52498,1.049962 -0.28994,0 -0.52498,-0.47008 -0.52498,-1.049962 0,-1.159824 0.5767,-2.100036 1.28811,-2.100036 0.71141,0 1.28811,0.940212 1.28811,2.100036 0,0.579882 -0.23504,1.049962 -0.52498,1.049962 -0.28994,0 -0.52498,-0.47008 -0.52498,-1.049962 0,-1.159824 0.5767,-2.100036 1.28812,-2.100036 0.71141,0 1.28811,0.940212 1.28811,2.100036 0,0.579882 -0.23504,1.049962 -0.52499,1.049962 -0.28993,0 -0.52497,-0.47008 -0.52497,-1.049962 0,-1.159824 0.5767,-2.100036 1.28811,-2.100036 0.71142,0 1.28812,0.940212 1.28812,2.100036"
       style="fill:none;stroke:#000000;stroke-width:0.281164;stroke-linecap:butt;stroke-linejoin:bevel;stroke-miterlimit:10;stroke-dasharray:none;stroke-opacity:1" />
    <g
       id="g103"
       aria-label="L&#10;1"
       transform="matrix(0.35277776,0,0,0.35277776,141.2421,77.260626)">
      <path
         id="path104"
         d="m 6.4090974,-2.4608585 c 0,-0.035156 -0.035156,-0.1054687 -0.1289062,-0.1054687 -0.082031,0 -0.09375,0.046875 -0.1640625,0.2109375 -0.3398438,0.9140625 -0.7734375,2.05078124 -2.4960938,2.05078124 h -0.9375 c -0.140625,0 -0.1640625,0 -0.2226562,-0.0117188 -0.1054688,-0.0117188 -0.1289063,-0.0234375 -0.1289063,-0.10546875 0,-0.0234375 0,-0.046875 0.046875,-0.22265625 L 3.7255037,-6.0233585 c 0.09375,-0.3632812 0.1171875,-0.46875 1.0546875,-0.46875 0.3046875,0 0.375,0 0.375,-0.1875 0,-0.1289062 -0.1054688,-0.1289062 -0.1523438,-0.1289062 l -1.4765625,0.035156 -1.3242187,-0.035156 c -0.070312,0 -0.1875,0 -0.1875,0.1992187 0,0.1171875 0.082031,0.1171875 0.28125,0.1171875 0,0 0.1992187,0 0.375,0.011719 0.1757812,0.023437 0.2695312,0.035156 0.2695312,0.1640625 0,0.035156 -0.011719,0.070312 -0.046875,0.1875 l -1.3359375,5.35546874 c -0.09375,0.38671875 -0.1171875,0.46875 -0.90234372,0.46875 -0.1640625,0 -0.26953125,0 -0.26953125,0.19921875 0,0.105468754118 0.09375,0.105468754118 0.26953125,0.105468754118 H 5.2723787 c 0.234375,0 0.2460937,0 0.3046875,-0.164062504118 L 6.3622224,-2.3202335 c 0.046875,-0.1054687 0.046875,-0.140625 0.046875,-0.140625 z m 0,0"
         style="fill:#000000;fill-opacity:1;fill-rule:nonzero;stroke:none" />
      <path
         id="path105"
         d="M 10.074136,1.4942197 V 1.2481259 H 9.816324 c -0.703125,0 -0.703125,-0.09375 -0.703125,-0.32812498 V -2.9354678 c 0,-0.1875 -0.011719,-0.1992188 -0.2109375,-0.1992188 -0.4453125,0.4335938 -1.078125,0.4453125 -1.359375,0.4453125 v 0.2460938 c 0.1640625,0 0.6210937,0 1.0078125,-0.1875 v 3.55078122 c 0,0.23437498 0,0.32812498 -0.6914063,0.32812498 H 7.5897615 V 1.4942197 L 8.831949,1.4707822 Z m 0,0"
         style="fill:#000000;fill-opacity:1;fill-rule:nonzero;stroke:none" />
    </g>
    <path
       id="path106"
       d="m 154.32729,76.504994 v 8.40015 m 2.79998,-8.40015 v 8.40015"
       style="fill:none;stroke:#000000;stroke-width:0.281164;stroke-linecap:butt;stroke-linejoin:miter;stroke-miterlimit:10;stroke-dasharray:none;stroke-opacity:1" />
    <g
       id="g106"
       aria-label="C&#10;1"
       transform="matrix(0.35277776,0,0,0.35277776,153.6821,74.950637)">
      <path
         id="path107"
         d="m 6.4459021,-2.3903975 c 0,-0.1054688 -0.1171875,-0.1054688 -0.1171875,-0.1054688 -0.058594,0 -0.1171875,0.023437 -0.1289062,0.1054688 -0.09375,0.2929687 -0.3164063,0.9960937 -1.0078125,1.57031248 -0.6914063,0.5625 -1.3125,0.7265625 -1.8398438,0.7265625 -0.890625,0 -1.9453125,-0.515625 -1.9453125,-2.06249998 0,-0.5742188 0.2109375,-2.1914063 1.2070313,-3.3515625 0.609375,-0.703125 1.5351562,-1.2070313 2.4257812,-1.2070313 1.0195313,0 1.6054688,0.7734375 1.6054688,1.921875 0,0.3984375 -0.035156,0.4101563 -0.035156,0.5039063 0,0.1054687 0.1171875,0.1054687 0.1523438,0.1054687 0.1289062,0 0.1289062,-0.023437 0.1757812,-0.1992187 l 0.6328125,-2.5429688 c 0,-0.023437 -0.023437,-0.09375 -0.1054687,-0.09375 -0.035156,0 -0.046875,0.011719 -0.1523438,0.1171875 l -0.703125,0.7617188 c -0.082031,-0.140625 -0.5390625,-0.8789063 -1.6523437,-0.8789063 -2.2148438,0 -4.45312504,2.203125 -4.45312504,4.5117188 0,1.64062498 1.17187504,2.73046873 2.69531254,2.73046873 0.8671875,0 1.6171875,-0.3984375 2.1445312,-0.85546875 0.9375,-0.82031248 1.1015625,-1.72265628 1.1015622,-1.75781248 z m 0,0"
         style="fill:#000000;fill-opacity:1;fill-rule:nonzero;stroke:none" />
      <path
         id="path108"
         d="M 10.412699,1.4943681 V 1.2482744 h -0.257813 c -0.7031245,0 -0.7031245,-0.09375 -0.7031245,-0.32812504 V -2.9353194 c 0,-0.1875 -0.011719,-0.1992187 -0.2109375,-0.1992187 -0.4453125,0.4335937 -1.078125,0.4453125 -1.359375,0.4453125 v 0.2460937 c 0.1640625,0 0.6210937,0 1.0078125,-0.1875 v 3.55078126 c 0,0.23437504 0,0.32812504 -0.6914063,0.32812504 H 7.928324 v 0.2460937 l 1.2421875,-0.023437 z m 0,0"
         style="fill:#000000;fill-opacity:1;fill-rule:nonzero;stroke:none" />
    </g>
    <path
       id="path109"
       d="m 166.38681,80.761296 c 0,-1.159824 0.5767,-2.100036 1.28811,-2.100036 0.71142,0 1.28812,0.940212 1.28812,2.100036 0,0.579882 -0.23504,1.049962 -0.52499,1.049962 -0.28993,0 -0.52497,-0.47008 -0.52497,-1.049962 0,-1.159824 0.57669,-2.100036 1.28811,-2.100036 0.71141,0 1.28811,0.940212 1.28811,2.100036 0,0.579882 -0.23504,1.049962 -0.52498,1.049962 -0.28994,0 -0.52498,-0.47008 -0.52498,-1.049962 0,-1.159824 0.5767,-2.100036 1.28812,-2.100036 0.71141,0 1.28811,0.940212 1.28811,2.100036 0,0.579882 -0.23504,1.049962 -0.52498,1.049962 -0.28995,0 -0.52498,-0.47008 -0.52498,-1.049962 0,-1.159824 0.5767,-2.100036 1.28811,-2.100036 0.71141,0 1.28811,0.940212 1.28811,2.100036 0,0.579882 -0.23504,1.049962 -0.52497,1.049962 -0.28995,0 -0.52499,-0.47008 -0.52499,-1.049962 0,-1.159824 0.5767,-2.100036 1.28812,-2.100036 0.71141,0 1.28811,0.940212 1.28811,2.100036"
       style="fill:none;stroke:#000000;stroke-width:0.281164;stroke-linecap:butt;stroke-linejoin:bevel;stroke-miterlimit:10;stroke-dasharray:none;stroke-opacity:1" />
    <path
       id="path110"
       d="m 171.7918,76.39249 c 0,-0.0124 -0.0124,-0.03721 -0.0455,-0.03721 -0.0289,0 -0.0331,0.01654 -0.0579,0.07441 -0.11989,0.322461 -0.27286,0.72347 -0.88057,0.72347 h -0.33073 c -0.0496,0 -0.0579,0 -0.0786,-0.0041 -0.0372,-0.0041 -0.0455,-0.0083 -0.0455,-0.03721 0,-0.0083 0,-0.01654 0.0165,-0.07855 l 0.47543,-1.897559 c 0.0331,-0.128157 0.0413,-0.165364 0.37207,-0.165364 0.10748,0 0.13229,0 0.13229,-0.06615 0,-0.04548 -0.0372,-0.04548 -0.0537,-0.04548 l -0.52089,0.0124 -0.46716,-0.0124 c -0.0248,0 -0.0661,0 -0.0661,0.07028 0,0.04134 0.0289,0.04134 0.0992,0.04134 0,0 0.0703,0 0.1323,0.0041 0.062,0.0083 0.0951,0.0124 0.0951,0.05788 0,0.0124 -0.004,0.02481 -0.0165,0.06615 l -0.47129,1.88929 c -0.0331,0.136426 -0.0413,0.165365 -0.31832,0.165365 -0.0579,0 -0.0951,0 -0.0951,0.07028 0,0.03721 0.0331,0.03721 0.0951,0.03721 h 1.62884 c 0.0827,0 0.0868,0 0.10749,-0.05788 l 0.27698,-0.760677 c 0.0165,-0.03721 0.0165,-0.04961 0.0165,-0.04961 z m 0,0"
       style="fill:#000000;fill-opacity:1;fill-rule:nonzero;stroke:none;stroke-width:0.352778"
       aria-label="L" />
    <path
       id="path111"
       d="m 183.22763,110.70544 v -9.40012 m 0,-11.20013 v -9.400127"
       style="fill:none;stroke:#000000;stroke-width:0.140582;stroke-linecap:butt;stroke-linejoin:miter;stroke-miterlimit:10;stroke-dasharray:none;stroke-opacity:1" />
    <path
       id="path112"
       d="m 183.22763,101.4459 -2.10004,-1.08564 4.20006,-1.89012 -4.20006,-1.89012 4.20006,-1.890112 -4.20006,-1.89012 4.20006,-1.89012 -2.10002,-0.94506"
       style="fill:none;stroke:#000000;stroke-width:0.281164;stroke-linecap:butt;stroke-linejoin:bevel;stroke-miterlimit:10;stroke-dasharray:none;stroke-opacity:1" />
    <path
       id="path113"
       d="m 188.37373,94.519547 c 0,0.11989 -0.0537,0.359668 -0.1943,0.500228 -0.0909,0.09095 -0.27699,0.202572 -0.59118,0.202572 h -0.39274 l 0.22738,-0.917774 c 0.0207,-0.08268 0.0289,-0.119889 0.0992,-0.128157 0.0289,-0.0041 0.14056,-0.0041 0.21084,-0.0041 0.25218,0 0.64079,0 0.64079,0.347265 z m 0.38447,1.616439 c 0,-0.04134 -0.0413,-0.04134 -0.0413,-0.04134 -0.0331,0 -0.0413,0.02481 -0.0455,0.04961 -0.0909,0.26045 -0.23978,0.318327 -0.32246,0.318327 -0.11576,0 -0.14056,-0.07855 -0.14056,-0.214974 0,-0.107487 0.0207,-0.289388 0.0372,-0.401009 0.004,-0.04961 0.0124,-0.115755 0.0124,-0.165364 0,-0.268718 -0.23565,-0.380339 -0.33073,-0.413412 0.35553,-0.07855 0.77308,-0.322461 0.77308,-0.677995 0,-0.30179 -0.3142,-0.529166 -0.77722,-0.529166 h -1.00045 c -0.0703,0 -0.10336,0 -0.10336,0.07028 0,0.04134 0.0331,0.04134 0.0992,0.04134 0,0 0.0744,0 0.13643,0.0041 0.062,0.0083 0.091,0.0124 0.091,0.05788 0,0.0124 0,0.0248 -0.0124,0.06614 l -0.47129,1.889291 c -0.0331,0.136425 -0.0413,0.165364 -0.31833,0.165364 -0.062,0 -0.0951,0 -0.0951,0.07028 0,0.03721 0.0496,0.03721 0.0496,0.03721 l 0.44235,-0.0124 0.44648,0.0124 c 0.0289,0 0.0703,0 0.0703,-0.07028 0,-0.03721 -0.0331,-0.03721 -0.0992,-0.03721 -0.12816,0 -0.22737,0 -0.22737,-0.06615 0,-0.02067 0.004,-0.03721 0.008,-0.05788 l 0.23151,-0.930176 h 0.42168 c 0.31833,0 0.38034,0.194303 0.38034,0.318327 0,0.05374 -0.0289,0.16123 -0.0496,0.243913 -0.0248,0.09508 -0.0537,0.227376 -0.0537,0.297656 0,0.380338 0.42168,0.380338 0.46715,0.380338 0.29766,0 0.42168,-0.355534 0.42168,-0.405143 z m 0,0"
       style="fill:#000000;fill-opacity:1;fill-rule:nonzero;stroke:none;stroke-width:0.352778"
       aria-label="R" />
    <path
       id="path114"
       d="m 131.22701,80.705063 h -0.8595"
       style="fill:none;stroke:#000000;stroke-width:0.140582;stroke-linecap:butt;stroke-linejoin:miter;stroke-miterlimit:10;stroke-dasharray:none;stroke-opacity:1" />
    <path
       id="path115"
       d="m 131.02826,81.548569 c -0.13356,-0.506113 -0.43118,-0.745099 -0.73104,-0.843506 0.29986,-0.09841 0.59748,-0.337393 0.73104,-0.843506"
       style="fill:none;stroke:#000000;stroke-width:0.140582;stroke-linecap:round;stroke-linejoin:round;stroke-miterlimit:10;stroke-dasharray:none;stroke-opacity:1" />
    <g
       id="g115"
       aria-label="i(ωt)"
       transform="matrix(0.35277776,0,0,0.35277776,126.46248,77.584123)">
      <path
         id="path116"
         d="m 2.8236287,-6.222585 c 0,-0.1992188 -0.1289063,-0.3632813 -0.3632813,-0.3632813 -0.2695312,0 -0.5390625,0.2578125 -0.5390625,0.5273438 0,0.1875 0.140625,0.3632812 0.375,0.3632812 0.234375,0 0.5273438,-0.234375 0.5273438,-0.5273437 z m 0.09375,4.7929687 c 0,-0.09375 -0.09375,-0.09375 -0.1171875,-0.09375 -0.1054688,0 -0.1054688,0.023437 -0.1523438,0.1757813 -0.1757812,0.63281248 -0.5039062,1.24218748 -1.0195312,1.24218748 -0.1640625,0 -0.234375,-0.10546875 -0.234375,-0.328125 0,-0.2578125 0.058594,-0.3984375 0.2929687,-0.99609378 l 0.3867188,-1.0546875 c 0.1171875,-0.28125 0.1171875,-0.3046875 0.2226562,-0.5742187 0.070312,-0.1992188 0.1289063,-0.3398438 0.1289063,-0.5273438 0,-0.4453125 -0.328125,-0.8203125 -0.8203125,-0.8203125 -0.93750002,0 -1.31250002,1.453125 -1.31250002,1.5351563 0,0.1054687 0.1171875,0.1054687 0.1171875,0.1054687 0.09375,0 0.10546875,-0.023437 0.15234375,-0.1875 0.26953125,-0.9375 0.66796877,-1.2304687 1.00781247,-1.2304687 0.082031,0 0.2578125,0 0.2578125,0.3164062 0,0.2109375 -0.070312,0.421875 -0.1171875,0.515625 -0.082031,0.2578125 -0.5273437,1.4179688 -0.6796875,1.8515625 -0.10546872,0.2578125 -0.23437497,0.58593753 -0.23437497,0.79687503 0,0.46875 0.33984377,0.80859375 0.82031247,0.80859375 0.9375,0 1.3007813,-1.44140628 1.3007813,-1.53515628 z m 0,0"
         style="fill:#000000;fill-opacity:1;fill-rule:nonzero;stroke:none" />
      <path
         id="path117"
         d="m 6.7259724,2.3906962 c 0,-0.035156 0,-0.046875 -0.1640625,-0.2226562 -1.2421875,-1.25390627 -1.5703125,-3.12890627 -1.5703125,-4.6640625 0,-1.7226563 0.3867188,-3.4570313 1.6054688,-4.7109375 0.1289062,-0.1171875 0.1289062,-0.1289063 0.1289062,-0.1640625 0,-0.070312 -0.035156,-0.1054688 -0.09375,-0.1054688 -0.1054687,0 -0.9960937,0.6796875 -1.5820312,1.9453125 -0.515625,1.1015625 -0.6328125,2.203125 -0.6328125,3.0351563 0,0.7851562 0.1171875,1.99218748 0.65625,3.11718748 C 5.6712849,1.839915 6.5267537,2.496165 6.6322224,2.496165 c 0.058594,0 0.09375,-0.035156 0.09375,-0.1054688 z m 0,0"
         style="fill:#000000;fill-opacity:1;fill-rule:nonzero;stroke:none" />
      <path
         id="path118"
         d="m 13.095113,-2.378835 c 0.105469,-0.4335938 0.222656,-0.9257813 0.222656,-1.3242188 0,-0.2578125 -0.04687,-0.4804687 -0.199218,-0.609375 -0.05859,-0.058594 -0.128907,-0.09375 -0.222657,-0.09375 -0.117187,0 -0.246093,0.058594 -0.351562,0.1640625 -0.09375,0.09375 -0.140625,0.2109375 -0.140625,0.3164063 0,0.1054687 0.04687,0.1757812 0.117187,0.2460937 0.246094,0.2226563 0.375,0.5273438 0.375,0.8789063 0,0.1171875 -0.01172,0.2460937 -0.04687,0.375 -0.222656,0.9023437 -0.796875,1.81640623 -1.59375,1.81640623 -0.550781,0 -0.878906,-0.375 -0.972656,-0.89062503 0.128906,-0.28125 0.234375,-0.5859375 0.304688,-0.8789062 0.01172,-0.09375 0.03516,-0.1757813 0.03516,-0.2578125 0,-0.1523438 -0.04687,-0.2578125 -0.1875,-0.2578125 -0.1875,0 -0.292969,0.2460937 -0.339844,0.46875 -0.08203,0.3046875 -0.1171874,0.5976562 -0.1289062,0.890625 -0.328125,0.53906248 -0.8085937,0.92578123 -1.359375,0.92578123 -0.5976562,0 -0.8671875,-0.49218753 -0.8671875,-1.12500003 0,-0.1992187 0.035156,-0.421875 0.082031,-0.6445312 0.1523437,-0.5976563 0.515625,-1.1601563 0.890625,-1.6875 0.023437,-0.035156 0.046875,-0.082031 0.046875,-0.1289063 0,-0.058594 -0.035156,-0.1054687 -0.09375,-0.140625 -0.023437,-0.011719 -0.058594,-0.011719 -0.082031,-0.011719 -0.058594,0 -0.1289062,0.023437 -0.1757812,0.082031 -0.4101563,0.5742188 -0.6679688,1.2070313 -0.8203125,1.8398438 -0.1054688,0.375 -0.1523438,0.7617187 -0.1523438,1.1132812 0,0.80859378 0.2929688,1.41796878 1.0429688,1.41796878 0.6328125,0 1.1484375,-0.43359375 1.5234374,-1.0546875 0.117188,0.62109375 0.457031,1.0546875 1.125,1.0546875 1.042969,0 1.664063,-1.27734378 1.96875,-2.48437498 z m 3.902344,0.9492187 c 0,-0.09375 -0.08203,-0.09375 -0.117188,-0.09375 -0.09375,0 -0.105468,0.023437 -0.152343,0.140625 -0.433594,1.03125003 -0.960938,1.27734378 -1.300782,1.27734378 -0.199218,0 -0.304687,-0.12890625 -0.304687,-0.45703125 0,-0.24609375 0.02344,-0.31640625 0.05859,-0.48046873 l 0.738281,-2.9414063 h 0.9375 c 0.199219,0 0.304687,0 0.304687,-0.1992187 0,-0.1054688 -0.105468,-0.1054688 -0.28125,-0.1054688 h -0.878906 c 0.363281,-1.4179687 0.410156,-1.6171875 0.410156,-1.6757812 0,-0.1757813 -0.117187,-0.2695313 -0.292968,-0.2695313 -0.02344,0 -0.304688,0.011719 -0.398438,0.3515625 l -0.386719,1.59375 h -0.9375 c -0.199218,0 -0.292968,0 -0.292968,0.1875 0,0.1171875 0.07031,0.1171875 0.269531,0.1171875 h 0.878906 c -0.714844,2.8242188 -0.75,3.00000003 -0.75,3.17578128 0,0.5390625 0.375,0.9140625 0.914063,0.9140625 1.007812,0 1.582031,-1.45312498 1.582031,-1.53515628 z m 0,0"
         style="fill:#000000;fill-opacity:1;fill-rule:nonzero;stroke:none" />
      <path
         id="path119"
         d="m 20.34609,-2.4960225 c 0,-0.7734375 -0.117188,-1.9804688 -0.65625,-3.1054688 -0.597657,-1.21875 -1.464844,-1.875 -1.558594,-1.875 -0.05859,0 -0.105469,0.046875 -0.105469,0.1054688 0,0.035156 0,0.046875 0.199219,0.234375 0.972656,0.984375 1.535156,2.5664062 1.535156,4.640625 0,1.71093748 -0.363281,3.45703123 -1.59375,4.7226562 -0.140625,0.1171875 -0.140625,0.1289063 -0.140625,0.1640625 0,0.058594 0.04687,0.1054688 0.105469,0.1054688 0.09375,0 0.996094,-0.6796875 1.582031,-1.94531252 0.503906,-1.1015625 0.632813,-2.20312498 0.632813,-3.04687498 z m 0,0"
         style="fill:#000000;fill-opacity:1;fill-rule:nonzero;stroke:none" />
    </g>
    <path
       id="path120"
       d="M 61.226147,107.70537 V 83.84572"
       style="fill:none;stroke:#000000;stroke-width:0.140582;stroke-linecap:butt;stroke-linejoin:miter;stroke-miterlimit:10;stroke-dasharray:none;stroke-opacity:1" />
    <path
       id="path121"
       d="m 60.382641,84.506469 c 0.506113,-0.133558 0.745099,-0.431182 0.843506,-0.73104 0.09841,0.299858 0.337393,0.597482 0.843506,0.73104"
       style="fill:none;stroke:#000000;stroke-width:0.140582;stroke-linecap:round;stroke-linejoin:round;stroke-miterlimit:10;stroke-dasharray:none;stroke-opacity:1" />
    <g
       id="g121"
       aria-label="V&#10;DC"
       transform="matrix(0.35277776,0,0,0.35277776,51.832338,96.642942)">
      <path
         id="path122"
         d="m 7.6636677,-6.6782491 c 0,-0.082031 -0.058594,-0.1289062 -0.1289062,-0.1289062 -0.2578125,0 -0.5507813,0.035156 -0.8203125,0.035156 -0.328125,0 -0.6679688,-0.035156 -0.984375,-0.035156 -0.058594,0 -0.1875,0 -0.1875,0.1992187 0,0.1054688 0.082031,0.1171875 0.1523437,0.1171875 0.2695313,0.011719 0.4570313,0.1171875 0.4570313,0.328125 0,0.1523438 -0.140625,0.375 -0.140625,0.375 L 2.9527302,-0.92434283 2.2730427,-6.1977803 c 0,-0.1640625 0.2226563,-0.2929688 0.6796875,-0.2929688 0.140625,0 0.2578125,0 0.2578125,-0.1992187 0,-0.09375 -0.082031,-0.1171875 -0.140625,-0.1171875 -0.3984375,0 -0.8320312,0.035156 -1.2421875,0.035156 -0.1757812,0 -0.3632812,-0.011719 -0.5390625,-0.011719 -0.1875,0 -0.37499996,-0.023437 -0.53906246,-0.023437 -0.0703125,0 -0.1875,0 -0.1875,0.1992187 0,0.1171875 0.0820313,0.1171875 0.24609375,0.1171875 0.55078121,0 0.56250001,0.082031 0.59765621,0.3398438 l 0.7851563,6.14062497 c 0.035156,0.19921875 0.070312,0.234375 0.1992187,0.234375 0.1640625,0 0.1992188,-0.0585938 0.28125,-0.1875 L 6.2574177,-5.6704366 c 0.4804688,-0.7734375 0.9023438,-0.8085937 1.2773438,-0.8203125 0.1171875,-0.011719 0.1289062,-0.1875 0.1289062,-0.1875 z m 0,0"
         style="fill:#000000;fill-opacity:1;fill-rule:nonzero;stroke:none" />
      <path
         id="path123"
         d="m 12.034761,-1.4487569 c 0,-1.0195312 -0.703125,-1.8164062 -1.839843,-1.8164062 H 7.6636677 c -0.140625,0 -0.2226562,0 -0.2226562,0.1523437 0,0.09375 0.070312,0.09375 0.2226562,0.09375 0.1171875,0 0.140625,0 0.2695313,0.011719 0.140625,0.011719 0.1523437,0.035156 0.1523437,0.1054687 0,0 0,0.046875 -0.023437,0.1523438 l -0.9375,3.70312496 C 7.0777302,1.1879619 7.0660115,1.2465556 6.5152302,1.2465556 c -0.1289062,0 -0.2109375,0 -0.2109375,0.1523438 0,0.09375 0.082031,0.09375 0.2109375,0.09375 H 9.011324 c 1.546875,0 3.023437,-1.41796879 3.023437,-2.9414063 z m -0.65625,-0.234375 c 0,0.1640625 -0.07031,1.37109376 -0.773437,2.16796876 C 10.335543,0.78952436 9.7378865,1.2465556 8.8824177,1.2465556 H 7.933199 c -0.2226563,0 -0.2226563,-0.011719 -0.2226563,-0.070312 0,0 0,-0.046875 0.023437,-0.1523437 l 0.9609375,-3.8085938 c 0.046875,-0.2109375 0.058594,-0.234375 0.3515625,-0.234375 h 0.890625 c 0.7851563,0 1.4414063,0.3867188 1.4414063,1.335937 z m 6.612305,0.1171875 0.433594,-1.7578125 c 0,-0.035156 -0.02344,-0.082031 -0.09375,-0.082031 -0.04687,0 -0.07031,0.011719 -0.128906,0.082031 l -0.503907,0.5390625 c -0.07031,-0.082031 -0.457031,-0.6210937 -1.3125,-0.6210937 -1.699218,0 -3.351562,1.5 -3.351562,3.07031246 0,1.13671875 0.890625,1.96875004 2.132812,1.96875004 0.375,0 1.054688,-0.082031 1.769532,-0.67968754 0.550781,-0.46875 0.703125,-1.078125 0.703125,-1.13671875 0,-0.09375 -0.08203,-0.09375 -0.117188,-0.09375 -0.09375,0 -0.105469,0.0351563 -0.128906,0.1171875 -0.28125,0.94921875 -1.265625,1.53515629 -2.109375,1.53515629 -0.738281,0 -1.558594,-0.38671879 -1.558594,-1.48828129 0,-0.2109375 0.04687,-1.31250001 0.855469,-2.19140621 0.480469,-0.5273438 1.207031,-0.8554688 1.875,-0.8554688 0.808594,0 1.277344,0.5859375 1.277344,1.3710938 0,0.1875 -0.02344,0.2460937 -0.02344,0.28125 0,0.09375 0.09375,0.09375 0.128906,0.09375 0.117188,0 0.117188,-0.023437 0.152344,-0.1523438 z m 0,0"
         style="fill:#000000;fill-opacity:1;fill-rule:nonzero;stroke:none" />
    </g>
    <path
       id="path124"
       d="M 102.22655,107.70537 V 83.84572"
       style="fill:none;stroke:#000000;stroke-width:0.140582;stroke-linecap:butt;stroke-linejoin:miter;stroke-miterlimit:10;stroke-dasharray:none;stroke-opacity:1" />
    <path
       id="path125"
       d="m 101.38305,84.506469 c 0.50612,-0.133558 0.7451,-0.431182 0.84351,-0.73104 0.0984,0.299858 0.33739,0.597482 0.84351,0.73104"
       style="fill:none;stroke:#000000;stroke-width:0.140582;stroke-linecap:round;stroke-linejoin:round;stroke-miterlimit:10;stroke-dasharray:none;stroke-opacity:1" />
    <g
       id="g125"
       aria-label="v&#10;s&#10;(ωt)"
       transform="matrix(0.35277776,0,0,0.35277776,91.465157,96.584382)">
      <path
         id="path126"
         d="m 4.6633943,-3.7026788 c 0,-0.5390625 -0.2578125,-0.703125 -0.4453125,-0.703125 -0.2460937,0 -0.4804687,0.2578125 -0.4804687,0.4804688 0,0.1289062 0.046875,0.1875 0.1523437,0.3046875 0.2109375,0.1992187 0.3398438,0.4570312 0.3398438,0.8085937 0,0.421875 -0.609375,2.70703128 -1.7695313,2.70703128 -0.5039062,0 -0.7382812,-0.3515625 -0.7382812,-0.8671875 0,-0.56249998 0.2695312,-1.28906248 0.5742187,-2.12109378 0.070312,-0.1640625 0.1289063,-0.3046875 0.1289063,-0.4921875 0,-0.4453125 -0.328125,-0.8203125 -0.8203125,-0.8203125 -0.93750005,0 -1.31250005,1.453125 -1.31250005,1.5351563 0,0.1054687 0.1171875,0.1054687 0.1171875,0.1054687 0.09375,0 0.10546875,-0.023437 0.15234375,-0.1875 0.29296875,-0.9960937 0.7265625,-1.2304687 1.0078125,-1.2304687 0.082031,0 0.2578125,0 0.2578125,0.3164062 0,0.2460938 -0.1054687,0.515625 -0.1757812,0.703125 -0.4335938,1.1484375 -0.5625,1.6054688 -0.5625,2.0390625 0,1.07812503 0.8671875,1.23046878 1.3359375,1.23046878 1.6640625,0 2.2382812,-3.29296878 2.2382812,-3.80859378 z m 0,0"
         style="fill:#000000;fill-opacity:1;fill-rule:nonzero;stroke:none" />
      <path
         id="path127"
         d="m 7.9710115,0.41646186 c 0,-0.64453125 -0.703125,-0.7734375 -0.9609375,-0.8203125 -0.070312,-0.0117188 -0.2460938,-0.0351563 -0.28125,-0.0585938 -0.2578125,-0.046875 -0.3867188,-0.1875 -0.3867188,-0.33984375 0,-0.1640625 0.1289063,-0.35156241 0.28125,-0.44531241 0.1875,-0.1289063 0.4335938,-0.140625 0.5507813,-0.140625 0.140625,0 0.5039062,0.023437 0.65625,0.2578125 -0.1757813,0.046875 -0.2929688,0.18749991 -0.2929688,0.32812491 0,0.1640625 0.140625,0.22265625 0.234375,0.22265625 0.070312,0 0.3398438,-0.0351563 0.3398438,-0.3984375 0,-0.44531246 -0.5039063,-0.59765616 -0.9257813,-0.59765616 -1.0898437,0 -1.2890625,0.79687491 -1.2890625,1.00781241 0,0.2578125 0.1523438,0.43359375 0.2460938,0.515625 0.1757812,0.140625 0.3046875,0.1640625 0.7851562,0.24609375 0.1523438,0.0351563 0.5976563,0.1171875 0.5976563,0.46875 0,0.1171875 -0.082031,0.37500004 -0.375,0.55078134 -0.2695313,0.1523437 -0.609375,0.1523437 -0.6914063,0.1523437 -0.28125,0 -0.6796875,-0.058594 -0.84375,-0.2929687 0.234375,-0.023437 0.3867188,-0.19921884 0.3867188,-0.39843759 0,-0.1640625 -0.1289063,-0.2578125 -0.2695313,-0.2578125 -0.1992187,0 -0.4101562,0.1640625 -0.4101562,0.46875 0,0.42187509 0.4453125,0.67968759 1.125,0.67968759 1.2890625,0 1.5234375,-0.87890634 1.5234375,-1.14843754 z m 0,0"
         style="fill:#000000;fill-opacity:1;fill-rule:nonzero;stroke:none" />
      <path
         id="path128"
         d="m 12.380191,2.3910712 c 0,-0.035156 0,-0.046875 -0.164062,-0.2226562 -1.242188,-1.25390627 -1.570313,-3.12890627 -1.570313,-4.6640625 0,-1.7226563 0.386719,-3.4570313 1.605469,-4.7109375 0.128906,-0.1171875 0.128906,-0.1289063 0.128906,-0.1640625 0,-0.070312 -0.03516,-0.1054688 -0.09375,-0.1054688 -0.105469,0 -0.996094,0.6796875 -1.582031,1.9453125 -0.515625,1.1015625 -0.632813,2.203125 -0.632813,3.0351563 0,0.7851562 0.117188,1.99218748 0.65625,3.11718748 C 11.325504,1.84029 12.180972,2.49654 12.286441,2.49654 c 0.05859,0 0.09375,-0.035156 0.09375,-0.1054688 z m 0,0"
         style="fill:#000000;fill-opacity:1;fill-rule:nonzero;stroke:none" />
      <path
         id="path129"
         d="m 18.752261,-2.37846 c 0.105469,-0.4335938 0.222657,-0.9257813 0.222657,-1.3242188 0,-0.2578125 -0.04687,-0.4804687 -0.199219,-0.609375 -0.05859,-0.058594 -0.128906,-0.09375 -0.222656,-0.09375 -0.117188,0 -0.246094,0.058594 -0.351563,0.1640625 -0.09375,0.09375 -0.140625,0.2109375 -0.140625,0.3164063 0,0.1054687 0.04687,0.1757812 0.117188,0.2460937 0.246093,0.2226563 0.375,0.5273438 0.375,0.8789063 0,0.1171875 -0.01172,0.2460937 -0.04687,0.375 -0.222657,0.9023437 -0.796875,1.81640623 -1.59375,1.81640623 -0.550782,0 -0.878907,-0.375 -0.972657,-0.89062503 0.128907,-0.28125 0.234375,-0.5859375 0.304688,-0.8789062 0.01172,-0.09375 0.03516,-0.1757813 0.03516,-0.2578125 0,-0.1523438 -0.04687,-0.2578125 -0.1875,-0.2578125 -0.1875,0 -0.292969,0.2460937 -0.339844,0.46875 -0.08203,0.3046875 -0.117187,0.5976562 -0.128906,0.890625 -0.328125,0.53906248 -0.808594,0.92578123 -1.359375,0.92578123 -0.597656,0 -0.867187,-0.49218753 -0.867187,-1.12500003 0,-0.1992187 0.03516,-0.421875 0.08203,-0.6445312 0.152344,-0.5976563 0.515625,-1.1601563 0.890625,-1.6875 0.02344,-0.035156 0.04687,-0.082031 0.04687,-0.1289063 0,-0.058594 -0.03516,-0.1054687 -0.09375,-0.140625 -0.02344,-0.011719 -0.05859,-0.011719 -0.08203,-0.011719 -0.05859,0 -0.128907,0.023437 -0.175782,0.082031 -0.410156,0.5742188 -0.667968,1.2070313 -0.820312,1.8398438 -0.105469,0.375 -0.152344,0.7617187 -0.152344,1.1132812 0,0.80859378 0.292969,1.41796878 1.042969,1.41796878 0.632812,0 1.148437,-0.43359375 1.523437,-1.0546875 0.117188,0.62109375 0.457032,1.0546875 1.125,1.0546875 1.042969,0 1.664063,-1.27734378 1.96875,-2.48437498 z m 3.899415,0.9492187 c 0,-0.09375 -0.08203,-0.09375 -0.117188,-0.09375 -0.09375,0 -0.105469,0.023437 -0.152344,0.140625 -0.433593,1.03125003 -0.960937,1.27734378 -1.300781,1.27734378 -0.199219,0 -0.304687,-0.12890625 -0.304687,-0.45703125 0,-0.24609375 0.02344,-0.31640625 0.05859,-0.48046873 l 0.738282,-2.9414063 h 0.9375 c 0.199218,0 0.304687,0 0.304687,-0.1992187 0,-0.1054688 -0.105469,-0.1054688 -0.28125,-0.1054688 h -0.878906 c 0.363281,-1.4179687 0.410156,-1.6171875 0.410156,-1.6757812 0,-0.1757813 -0.117187,-0.2695313 -0.292969,-0.2695313 -0.02344,0 -0.304687,0.011719 -0.398437,0.3515625 l -0.386719,1.59375 h -0.9375 c -0.199219,0 -0.292969,0 -0.292969,0.1875 0,0.1171875 0.07031,0.1171875 0.269532,0.1171875 h 0.878906 c -0.714844,2.8242188 -0.75,3.00000003 -0.75,3.17578128 0,0.5390625 0.375,0.9140625 0.914062,0.9140625 1.007813,0 1.582032,-1.45312498 1.582032,-1.53515628 z m 0,0"
         style="fill:#000000;fill-opacity:1;fill-rule:nonzero;stroke:none" />
      <path
         id="path130"
         d="m 26.000308,-2.4956475 c 0,-0.7734375 -0.117187,-1.9804688 -0.65625,-3.1054688 -0.597656,-1.21875 -1.464843,-1.875 -1.558593,-1.875 -0.05859,0 -0.105469,0.046875 -0.105469,0.1054688 0,0.035156 0,0.046875 0.199219,0.234375 0.972656,0.984375 1.535156,2.5664062 1.535156,4.640625 0,1.71093748 -0.363281,3.45703123 -1.59375,4.7226562 -0.140625,0.1171875 -0.140625,0.1289063 -0.140625,0.1640625 0,0.058594 0.04687,0.1054688 0.105469,0.1054688 0.09375,0 0.996093,-0.6796875 1.582031,-1.94531252 0.503906,-1.1015625 0.632812,-2.20312498 0.632812,-3.04687498 z m 0,0"
         style="fill:#000000;fill-opacity:1;fill-rule:nonzero;stroke:none" />
    </g>
    <path
       id="path131"
       d="m 138.22706,70.704943 c 0.15815,-0.316322 0.5272,-0.527195 1.05439,-0.527195 h 7.89134 c 0.5272,0 0.89624,-0.21088 1.05439,-0.527198 0.15816,0.316318 0.5272,0.527198 1.05439,0.527198 h 7.89135 c 0.52719,0 0.89624,0.210873 1.05439,0.527195"
       style="fill:none;stroke:#000000;stroke-width:0.140582;stroke-linecap:butt;stroke-linejoin:miter;stroke-miterlimit:10;stroke-dasharray:none;stroke-opacity:1" />
    <g
       id="g131"
       aria-label="Tunedtoω"
       transform="matrix(0.35277776,0,0,0.35277776,139.50326,66.916123)">
      <path
         id="path132"
         d="m 6.8205193,-4.5001631 -0.1875,-2.2382813 H 0.55098805 l -0.1875,2.2382813 H 0.6095818 c 0.140625,-1.6054688 0.29296875,-1.9335938 1.7929688,-1.9335938 0.1757812,0 0.4335937,0 0.5390625,0.023437 0.2109375,0.035156 0.2109375,0.140625 0.2109375,0.375 v 5.25000001 c 0,0.33984375 0,0.48046875 -1.0546875,0.48046875 H 1.6994256 V -1.6314338e-4 C 2.1095818,-0.03531939 3.1291131,-0.03531939 3.5861443,-0.03531939 c 0.4570313,0 1.4882813,0 1.8984375,0.0351562466 V -0.30485064 H 5.0861443 c -1.0546875,0 -1.0546875,-0.140625 -1.0546875,-0.48046875 V -6.0353194 c 0,-0.1992187 0,-0.3398437 0.1875,-0.375 0.1054688,-0.023437 0.375,-0.023437 0.5625,-0.023437 1.5,0 1.6523438,0.328125 1.7929688,1.9335938 z M 11.701379,-1.6314338e-4 V -0.30485064 c -0.703125,0 -0.785157,-0.0703125 -0.785157,-0.5625 V -4.4064131 l -1.4531246,0.1171875 v 0.3046875 c 0.6914066,0 0.7734376,0.070312 0.7734376,0.5625 v 1.7695312 c 0,0.86718751 -0.4804688,1.54687501 -1.2070313,1.54687501 -0.8320313,0 -0.8789063,-0.46875 -0.8789063,-0.99609371 v -3.3046875 l -1.4648437,0.1171875 v 0.3046875 c 0.7851562,0 0.7851562,0.035156 0.7851562,0.9140625 v 1.5 c 0,0.77343746 0,1.67578121 1.5117188,1.67578121 0.5507812,0 0.9960937,-0.26953125 1.2773433,-0.890625 v 0.890625 z m 5.534179,0 V -0.30485064 c -0.515625,0 -0.773437,0 -0.785156,-0.3046875 V -2.5079756 c 0,-0.8554688 0,-1.171875 -0.304687,-1.5234375 -0.140625,-0.1757813 -0.46875,-0.375 -1.042969,-0.375 -0.726563,0 -1.195313,0.4335937 -1.476563,1.0546875 v -1.0546875 l -1.40625,0.1171875 v 0.3046875 c 0.703125,0 0.785157,0.070312 0.785157,0.5625 v 2.66015621 c 0,0.45703125 -0.117188,0.45703125 -0.785157,0.45703125 v 0.30468749662 l 1.125,-0.0351562466 1.113282,0.0351562466 V -0.30485064 c -0.65625,0 -0.773438,0 -0.773438,-0.45703125 V -2.5900069 c 0,-1.03125 0.714844,-1.59375 1.347656,-1.59375 0.621094,0 0.738282,0.5390625 0.738282,1.1015625 v 2.32031251 c 0,0.45703125 -0.117188,0.45703125 -0.773438,0.45703125 v 0.30468749662 l 1.125,-0.0351562466 z M 21.574426,-1.1837569 c 0,-0.1054687 -0.08203,-0.1171875 -0.128907,-0.1171875 -0.09375,0 -0.117187,0.058594 -0.128906,0.140625 -0.351562,1.01953126 -1.253906,1.01953126 -1.347656,1.01953126 -0.503906,0 -0.902344,-0.29296875 -1.125,-0.66796875 C 18.539269,-1.2892256 18.539269,-1.9454756 18.539269,-2.2970381 h 2.789063 c 0.210937,0 0.246094,0 0.246094,-0.2109375 0,-0.984375 -0.539063,-1.9570313 -1.78125,-1.9570313 -1.160157,0 -2.074219,1.03125 -2.074219,2.2734375 0,1.33593751 1.042969,2.29687501 2.191406,2.29687501 1.21875,0 1.664063,-1.1015625 1.664063,-1.28906251 z m -0.65625,-1.3242187 h -2.367188 c 0.05859,-1.4882813 0.902344,-1.734375 1.242188,-1.734375 1.019531,0 1.125,1.3476562 1.125,1.734375 z m 6.199218,2.50781245662 V -0.30485064 c -0.703125,0 -0.773437,-0.0703125 -0.773437,-0.5625 V -6.9142256 l -1.441406,0.1054687 v 0.3164063 c 0.703125,0 0.785156,0.070312 0.785156,0.5507812 v 2.15625 c -0.292969,-0.3632812 -0.726563,-0.6210937 -1.265625,-0.6210937 -1.171875,0 -2.214844,0.984375 -2.214844,2.2617187 0,1.26562501 0.972656,2.25000001 2.109375,2.25000001 0.644531,0 1.089844,-0.33984375 1.335938,-0.65625 v 0.65625 z M 25.652551,-1.1720381 c 0,0.17578121 0,0.19921871 -0.105469,0.36328121 -0.304688,0.48046875 -0.75,0.703125 -1.183594,0.703125 -0.445312,0 -0.796875,-0.2578125 -1.042969,-0.64453125 -0.257812,-0.41015626 -0.292968,-0.97265626 -0.292968,-1.38281246 0,-0.3632813 0.02344,-0.9609375 0.316406,-1.4179688 0.210937,-0.3046875 0.585937,-0.6328125 1.125,-0.6328125 0.351562,0 0.761719,0.1523438 1.078125,0.5976563 0.105469,0.1640625 0.105469,0.1875 0.105469,0.3632812 z m 8.373046,-0.058594 v -0.5742187 h -0.246093 v 0.5507812 c 0,0.73828126 -0.304688,1.11328126 -0.667969,1.11328126 -0.667969,0 -0.667969,-0.90234376 -0.667969,-1.07812496 v -2.765625 h 1.429688 v -0.3046875 h -1.429688 v -1.8398438 h -0.246094 c -0.01172,0.8203125 -0.316406,1.8867188 -1.289062,1.921875 v 0.2226563 h 0.84375 v 2.7539062 c 0,1.21875001 0.925781,1.33593751 1.289062,1.33593751 0.703125,0 0.984375,-0.703125 0.984375,-1.33593751 z m 5.25586,-0.9023437 c 0,-1.2773438 -0.996094,-2.3320313 -2.191406,-2.3320313 -1.253907,0 -2.214844,1.0898438 -2.214844,2.3320313 0,1.28906246 1.03125,2.23828121 2.203125,2.23828121 1.207031,0 2.203125,-0.97265625 2.203125,-2.23828121 z m -0.820313,-0.082031 c 0,0.3632813 0,0.9023438 -0.222656,1.33593751 -0.222656,0.4453125 -0.65625,0.73828125 -1.148437,0.73828125 -0.433594,0 -0.867188,-0.2109375 -1.136719,-0.66796875 -0.257813,-0.43359371 -0.257813,-1.04296871 -0.257813,-1.40625001 0,-0.3867187 0,-0.9257812 0.246094,-1.359375 0.269531,-0.4570312 0.738281,-0.6679687 1.136719,-0.6679687 0.433594,0 0.867187,0.2226562 1.125,0.6445312 0.257812,0.4335938 0.257812,1.0078125 0.257812,1.3828125 z m 0,0"
         style="fill:#000000;fill-opacity:1;fill-rule:nonzero;stroke:none" />
      <path
         id="path133"
         d="m 48.682824,-2.3790694 c 0.105469,-0.4335937 0.222656,-0.9257812 0.222656,-1.3242187 0,-0.2578125 -0.04687,-0.4804688 -0.199219,-0.609375 -0.05859,-0.058594 -0.128906,-0.09375 -0.222656,-0.09375 -0.117187,0 -0.246094,0.058594 -0.351562,0.1640625 -0.09375,0.09375 -0.140625,0.2109375 -0.140625,0.3164062 0,0.1054688 0.04687,0.1757813 0.117187,0.2460938 0.246094,0.2226562 0.375,0.5273437 0.375,0.8789062 0,0.1171875 -0.01172,0.2460938 -0.04687,0.375 -0.222656,0.9023438 -0.796875,1.81640626 -1.59375,1.81640626 -0.550781,0 -0.878906,-0.375 -0.972656,-0.89062496 0.128906,-0.28125 0.234375,-0.5859375 0.304687,-0.8789063 0.01172,-0.09375 0.03516,-0.1757812 0.03516,-0.2578125 0,-0.1523437 -0.04687,-0.2578125 -0.1875,-0.2578125 -0.1875,0 -0.292969,0.2460938 -0.339844,0.46875 -0.08203,0.3046875 -0.117188,0.5976563 -0.128906,0.890625 -0.328125,0.53906251 -0.808594,0.92578126 -1.359375,0.92578126 -0.597657,0 -0.867188,-0.49218746 -0.867188,-1.12499996 0,-0.1992188 0.03516,-0.421875 0.08203,-0.6445313 0.152344,-0.5976562 0.515625,-1.1601562 0.890625,-1.6875 0.02344,-0.035156 0.04687,-0.082031 0.04687,-0.1289062 0,-0.058594 -0.03516,-0.1054688 -0.09375,-0.140625 -0.02344,-0.011719 -0.05859,-0.011719 -0.08203,-0.011719 -0.05859,0 -0.128906,0.023437 -0.175781,0.082031 -0.410156,0.5742187 -0.667969,1.2070312 -0.820313,1.8398437 -0.105468,0.375 -0.152343,0.7617188 -0.152343,1.1132813 0,0.80859371 0.292968,1.41796871 1.042968,1.41796871 0.632813,0 1.148438,-0.43359375 1.523438,-1.0546875 0.117187,0.62109375 0.457031,1.0546875 1.125,1.0546875 1.042969,0 1.664062,-1.27734371 1.96875,-2.48437501 z m 0,0"
         style="fill:#000000;fill-opacity:1;fill-rule:nonzero;stroke:none" />
    </g>
    <path
       id="path134"
       d="M 68.226203,110.70544 H 183.22763"
       style="fill:none;stroke:#000000;stroke-width:0.140582;stroke-linecap:butt;stroke-linejoin:miter;stroke-miterlimit:10;stroke-dasharray:none;stroke-opacity:1" />
    <path
       id="path135"
       d="m 108.22669,86.705203 v 0.859338"
       style="fill:none;stroke:#000000;stroke-width:0.140582;stroke-linecap:butt;stroke-linejoin:miter;stroke-miterlimit:10;stroke-dasharray:none;stroke-opacity:1" />
    <path
       id="path136"
       d="m 109.0702,86.903792 c -0.50612,0.133558 -0.7451,0.431182 -0.84351,0.73104 -0.0984,-0.299858 -0.33739,-0.597482 -0.84351,-0.73104"
       style="fill:none;stroke:#000000;stroke-width:0.140582;stroke-linecap:round;stroke-linejoin:round;stroke-miterlimit:10;stroke-dasharray:none;stroke-opacity:1" />
    <g
       id="g136"
       aria-label="i&#10;s&#10;(ωt)"
       transform="matrix(0.35277776,0,0,0.35277776,110.7113,88.584087)">
      <path
         id="path137"
         d="m 2.8241912,-6.222921 c 0,-0.1992187 -0.1289063,-0.3632812 -0.3632813,-0.3632812 -0.2695312,0 -0.5390625,0.2578125 -0.5390625,0.5273437 0,0.1875 0.140625,0.3632813 0.375,0.3632813 0.234375,0 0.5273438,-0.234375 0.5273438,-0.5273438 z m 0.09375,4.7929688 c 0,-0.09375 -0.09375,-0.09375 -0.1171875,-0.09375 -0.1054688,0 -0.1054688,0.023437 -0.1523438,0.1757812 -0.1757812,0.63281254 -0.5039062,1.24218754 -1.0195312,1.24218754 -0.1640625,0 -0.234375,-0.10546875 -0.234375,-0.328125 0,-0.2578125 0.058594,-0.3984375 0.2929687,-0.99609374 l 0.3867188,-1.0546875 c 0.1171875,-0.28125 0.1171875,-0.3046875 0.2226562,-0.5742188 0.070312,-0.1992187 0.1289063,-0.3398437 0.1289063,-0.5273437 0,-0.4453125 -0.328125,-0.8203125 -0.8203125,-0.8203125 -0.93750002,0 -1.31250002,1.453125 -1.31250002,1.5351562 0,0.1054688 0.1171875,0.1054688 0.1171875,0.1054688 0.09375,0 0.10546875,-0.023437 0.15234375,-0.1875 0.26953125,-0.9375 0.66796877,-1.2304688 1.00781247,-1.2304688 0.082031,0 0.2578125,0 0.2578125,0.3164063 0,0.2109375 -0.070312,0.421875 -0.1171875,0.515625 -0.082031,0.2578125 -0.5273437,1.4179687 -0.6796875,1.8515625 -0.10546872,0.2578125 -0.23437497,0.58593749 -0.23437497,0.79687499 0,0.46875 0.33984377,0.80859375 0.82031247,0.80859375 0.9375,0 1.3007813,-1.44140624 1.3007813,-1.53515624 z m 0,0"
         style="fill:#000000;fill-opacity:1;fill-rule:nonzero;stroke:none" />
      <path
         id="path138"
         d="m 6.5741912,0.41575092 c 0,-0.64453125 -0.703125,-0.7734375 -0.9609375,-0.8203125 -0.070312,-0.0117188 -0.2460938,-0.0351563 -0.28125,-0.0585938 -0.2578125,-0.046875 -0.3867188,-0.1875 -0.3867188,-0.33984375 0,-0.1640625 0.1289063,-0.35156247 0.28125,-0.44531247 0.1875,-0.1289062 0.4335938,-0.140625 0.5507813,-0.140625 0.140625,0 0.5039062,0.023437 0.65625,0.2578125 -0.1757813,0.046875 -0.2929688,0.18749997 -0.2929688,0.32812497 0,0.1640625 0.140625,0.22265625 0.234375,0.22265625 0.070312,0 0.3398438,-0.0351563 0.3398438,-0.3984375 0,-0.44531242 -0.5039063,-0.59765622 -0.9257813,-0.59765622 -1.0898437,0 -1.2890625,0.79687497 -1.2890625,1.00781247 0,0.2578125 0.1523438,0.43359375 0.2460938,0.515625 0.1757812,0.140625 0.3046875,0.1640625 0.7851562,0.24609375 0.1523438,0.0351563 0.5976563,0.1171875 0.5976563,0.46875 0,0.1171875 -0.082031,0.37500008 -0.375,0.55078128 -0.2695313,0.1523438 -0.609375,0.1523438 -0.6914063,0.1523438 -0.28125,0 -0.6796875,-0.058594 -0.84375,-0.2929688 0.234375,-0.023437 0.3867188,-0.19921878 0.3867188,-0.39843753 0,-0.1640625 -0.1289063,-0.2578125 -0.2695313,-0.2578125 -0.1992187,0 -0.4101562,0.1640625 -0.4101562,0.46875 0,0.42187503 0.4453125,0.67968753 1.125,0.67968753 1.2890625,0 1.5234375,-0.87890628 1.5234375,-1.14843748 z m 0,0"
         style="fill:#000000;fill-opacity:1;fill-rule:nonzero;stroke:none" />
      <path
         id="path139"
         d="m 10.983371,2.3903603 c 0,-0.035156 0,-0.046875 -0.164063,-0.2226563 -1.2421871,-1.25390621 -1.5703121,-3.12890621 -1.5703121,-4.6640625 0,-1.7226562 0.3867187,-3.4570312 1.6054691,-4.7109375 0.128906,-0.1171875 0.128906,-0.1289062 0.128906,-0.1640625 0,-0.070312 -0.03516,-0.1054687 -0.09375,-0.1054687 -0.105469,0 -0.9960939,0.6796875 -1.5820314,1.9453125 -0.515625,1.1015625 -0.6328125,2.203125 -0.6328125,3.0351562 0,0.7851563 0.1171875,1.99218754 0.65625,3.11718754 C 9.9286834,1.839579 10.784152,2.495829 10.889621,2.495829 c 0.05859,0 0.09375,-0.035156 0.09375,-0.1054687 z m 0,0"
         style="fill:#000000;fill-opacity:1;fill-rule:nonzero;stroke:none" />
      <path
         id="path140"
         d="m 17.355441,-2.379171 c 0.105469,-0.4335937 0.222656,-0.9257812 0.222656,-1.3242187 0,-0.2578125 -0.04687,-0.4804688 -0.199218,-0.609375 -0.05859,-0.058594 -0.128907,-0.09375 -0.222657,-0.09375 -0.117187,0 -0.246093,0.058594 -0.351562,0.1640625 -0.09375,0.09375 -0.140625,0.2109375 -0.140625,0.3164062 0,0.1054688 0.04687,0.1757813 0.117187,0.2460938 0.246094,0.2226562 0.375,0.5273437 0.375,0.8789062 0,0.1171875 -0.01172,0.2460938 -0.04687,0.375 -0.222656,0.9023438 -0.796875,1.81640629 -1.59375,1.81640629 -0.550781,0 -0.878906,-0.375 -0.972656,-0.89062499 0.128906,-0.28125 0.234375,-0.5859375 0.304688,-0.8789063 0.01172,-0.09375 0.03516,-0.1757812 0.03516,-0.2578125 0,-0.1523437 -0.04687,-0.2578125 -0.1875,-0.2578125 -0.1875,0 -0.292969,0.2460938 -0.339844,0.46875 -0.08203,0.3046875 -0.117187,0.5976563 -0.128906,0.890625 -0.328125,0.53906254 -0.808594,0.92578129 -1.359375,0.92578129 -0.597656,0 -0.867188,-0.49218749 -0.867188,-1.12499999 0,-0.1992188 0.03516,-0.421875 0.08203,-0.6445313 0.152343,-0.5976562 0.515625,-1.1601562 0.890625,-1.6875 0.02344,-0.035156 0.04687,-0.082031 0.04687,-0.1289062 0,-0.058594 -0.03516,-0.1054688 -0.09375,-0.140625 -0.02344,-0.011719 -0.05859,-0.011719 -0.08203,-0.011719 -0.05859,0 -0.128906,0.023437 -0.175781,0.082031 -0.410156,0.5742187 -0.667969,1.2070312 -0.820312,1.8398437 -0.105469,0.375 -0.152344,0.7617188 -0.152344,1.1132813 0,0.80859374 0.292969,1.41796874 1.042969,1.41796874 0.632812,0 1.148437,-0.43359375 1.523437,-1.0546875 0.117188,0.62109375 0.457031,1.0546875 1.125,1.0546875 1.042969,0 1.664063,-1.27734374 1.96875,-2.48437504 z m 3.899414,0.9492188 c 0,-0.09375 -0.08203,-0.09375 -0.117187,-0.09375 -0.09375,0 -0.105469,0.023437 -0.152344,0.140625 -0.433594,1.03124999 -0.960938,1.27734374 -1.300781,1.27734374 -0.199219,0 -0.304688,-0.12890625 -0.304688,-0.45703125 0,-0.24609375 0.02344,-0.31640625 0.05859,-0.48046879 l 0.738281,-2.9414062 h 0.9375 c 0.199219,0 0.304688,0 0.304688,-0.1992188 0,-0.1054687 -0.105469,-0.1054687 -0.28125,-0.1054687 h -0.878907 c 0.363282,-1.4179688 0.410157,-1.6171875 0.410157,-1.6757813 0,-0.1757812 -0.117188,-0.2695312 -0.292969,-0.2695312 -0.02344,0 -0.304688,0.011719 -0.398438,0.3515625 l -0.386718,1.59375 h -0.9375 c -0.199219,0 -0.292969,0 -0.292969,0.1875 0,0.1171875 0.07031,0.1171875 0.269531,0.1171875 h 0.878906 c -0.714843,2.8242187 -0.75,2.99999999 -0.75,3.17578124 0,0.5390625 0.375,0.9140625 0.914063,0.9140625 1.007812,0 1.582031,-1.45312504 1.582031,-1.53515624 z m 0,0"
         style="fill:#000000;fill-opacity:1;fill-rule:nonzero;stroke:none" />
      <path
         id="path141"
         d="m 24.603488,-2.4963585 c 0,-0.7734375 -0.117187,-1.9804687 -0.65625,-3.1054687 -0.597656,-1.21875 -1.464844,-1.875 -1.558594,-1.875 -0.05859,0 -0.105468,0.046875 -0.105468,0.1054687 0,0.035156 0,0.046875 0.199218,0.234375 0.972657,0.984375 1.535157,2.5664063 1.535157,4.640625 0,1.71093754 -0.363282,3.45703129 -1.59375,4.7226563 -0.140625,0.1171875 -0.140625,0.1289062 -0.140625,0.1640625 0,0.058594 0.04687,0.1054687 0.105468,0.1054687 0.09375,0 0.996094,-0.6796875 1.582032,-1.94531246 0.503906,-1.1015625 0.632812,-2.20312504 0.632812,-3.04687504 z m 0,0"
         style="fill:#000000;fill-opacity:1;fill-rule:nonzero;stroke:none" />
    </g>
    <path
       id="path142"
       d="m 123.22688,86.705203 v 0.859338"
       style="fill:none;stroke:#000000;stroke-width:0.140582;stroke-linecap:butt;stroke-linejoin:miter;stroke-miterlimit:10;stroke-dasharray:none;stroke-opacity:1" />
    <path
       id="path143"
       d="m 124.07039,86.903792 c -0.50612,0.133558 -0.7451,0.431182 -0.84351,0.73104 -0.0984,-0.299858 -0.33739,-0.597482 -0.84351,-0.73104"
       style="fill:none;stroke:#000000;stroke-width:0.140582;stroke-linecap:round;stroke-linejoin:round;stroke-miterlimit:10;stroke-dasharray:none;stroke-opacity:1" />
    <g
       id="g143"
       aria-label="i&#10;C&#10;(ωt)"
       transform="matrix(0.35277776,0,0,0.35277776,125.28067,88.584087)">
      <path
         id="path144"
         d="m 2.8249959,-6.222921 c 0,-0.1992187 -0.1289063,-0.3632812 -0.3632813,-0.3632812 -0.2695312,0 -0.5390625,0.2578125 -0.5390625,0.5273437 0,0.1875 0.140625,0.3632813 0.375,0.3632813 0.234375,0 0.5273438,-0.234375 0.5273438,-0.5273438 z m 0.09375,4.7929688 c 0,-0.09375 -0.09375,-0.09375 -0.1171875,-0.09375 -0.1054688,0 -0.1054688,0.023437 -0.1523438,0.1757812 -0.1757812,0.63281254 -0.5039062,1.24218754 -1.0195312,1.24218754 -0.1640625,0 -0.234375,-0.10546875 -0.234375,-0.328125 0,-0.2578125 0.058594,-0.3984375 0.2929687,-0.99609374 l 0.3867188,-1.0546875 c 0.1171875,-0.28125 0.1171875,-0.3046875 0.2226562,-0.5742188 0.070312,-0.1992187 0.1289063,-0.3398437 0.1289063,-0.5273437 0,-0.4453125 -0.328125,-0.8203125 -0.8203125,-0.8203125 -0.93750004,0 -1.31250004,1.453125 -1.31250004,1.5351562 0,0.1054688 0.1171875,0.1054688 0.1171875,0.1054688 0.09375,0 0.10546875,-0.023437 0.15234375,-0.1875 0.26953125,-0.9375 0.66796879,-1.2304688 1.00781249,-1.2304688 0.082031,0 0.2578125,0 0.2578125,0.3164063 0,0.2109375 -0.070312,0.421875 -0.1171875,0.515625 -0.082031,0.2578125 -0.5273437,1.4179687 -0.6796875,1.8515625 -0.10546874,0.2578125 -0.23437499,0.58593749 -0.23437499,0.79687499 0,0.46875 0.33984379,0.80859375 0.82031249,0.80859375 0.9375,0 1.3007813,-1.44140624 1.3007813,-1.53515624 z m 0,0"
         style="fill:#000000;fill-opacity:1;fill-rule:nonzero;stroke:none" />
      <path
         id="path145"
         d="m 8.8806599,-1.5647178 0.4335938,-1.7578125 c 0,-0.035156 -0.023437,-0.082031 -0.09375,-0.082031 -0.046875,0 -0.070312,0.011719 -0.1289063,0.082031 l -0.5039062,0.5390625 c -0.070312,-0.082031 -0.4570313,-0.6210938 -1.3125,-0.6210938 -1.6992188,0 -3.3515625,1.5 -3.3515625,3.07031252 0,1.13671875 0.890625,1.96874998 2.1328125,1.96874998 0.375,0 1.0546875,-0.082031 1.7695312,-0.67968748 0.5507813,-0.46875 0.703125,-1.078125 0.703125,-1.13671875 0,-0.09375 -0.082031,-0.09375 -0.1171875,-0.09375 -0.09375,0 -0.1054687,0.0351562 -0.1289062,0.1171875 -0.28125,0.94921875 -1.265625,1.53515623 -2.109375,1.53515623 -0.7382813,0 -1.5585938,-0.38671873 -1.5585938,-1.48828123 0,-0.2109375 0.046875,-1.31249997 0.8554688,-2.19140627 0.4804687,-0.5273437 1.2070312,-0.8554687 1.875,-0.8554687 0.8085937,0 1.2773437,0.5859375 1.2773437,1.3710937 0,0.1875 -0.023437,0.2460938 -0.023437,0.28125 0,0.09375 0.09375,0.09375 0.1289063,0.09375 0.1171875,0 0.1171875,-0.023437 0.1523432,-0.1523437 z m 0,0"
         style="fill:#000000;fill-opacity:1;fill-rule:nonzero;stroke:none" />
      <path
         id="path146"
         d="m 13.424605,2.3903603 c 0,-0.035156 0,-0.046875 -0.164062,-0.2226563 -1.242188,-1.25390621 -1.570313,-3.12890621 -1.570313,-4.6640625 0,-1.7226562 0.386719,-3.4570312 1.605469,-4.7109375 0.128906,-0.1171875 0.128906,-0.1289062 0.128906,-0.1640625 0,-0.070312 -0.03516,-0.1054687 -0.09375,-0.1054687 -0.105469,0 -0.996094,0.6796875 -1.582031,1.9453125 -0.515625,1.1015625 -0.632813,2.203125 -0.632813,3.0351562 0,0.7851563 0.117188,1.99218754 0.65625,3.11718754 0.597657,1.21874996 1.453125,1.87499996 1.558594,1.87499996 0.05859,0 0.09375,-0.035156 0.09375,-0.1054687 z m 0,0"
         style="fill:#000000;fill-opacity:1;fill-rule:nonzero;stroke:none" />
      <path
         id="path147"
         d="m 19.796676,-2.379171 c 0.105468,-0.4335937 0.222656,-0.9257812 0.222656,-1.3242187 0,-0.2578125 -0.04687,-0.4804688 -0.199219,-0.609375 -0.05859,-0.058594 -0.128906,-0.09375 -0.222656,-0.09375 -0.117188,0 -0.246094,0.058594 -0.351563,0.1640625 -0.09375,0.09375 -0.140625,0.2109375 -0.140625,0.3164062 0,0.1054688 0.04687,0.1757813 0.117188,0.2460938 0.246094,0.2226562 0.375,0.5273437 0.375,0.8789062 0,0.1171875 -0.01172,0.2460938 -0.04687,0.375 -0.222656,0.9023438 -0.796875,1.81640629 -1.59375,1.81640629 -0.550781,0 -0.878906,-0.375 -0.972656,-0.89062499 0.128906,-0.28125 0.234375,-0.5859375 0.304687,-0.8789063 0.01172,-0.09375 0.03516,-0.1757812 0.03516,-0.2578125 0,-0.1523437 -0.04687,-0.2578125 -0.1875,-0.2578125 -0.1875,0 -0.292968,0.2460938 -0.339843,0.46875 -0.08203,0.3046875 -0.117188,0.5976563 -0.128907,0.890625 -0.328125,0.53906254 -0.808593,0.92578129 -1.359375,0.92578129 -0.597656,0 -0.867187,-0.49218749 -0.867187,-1.12499999 0,-0.1992188 0.03516,-0.421875 0.08203,-0.6445313 0.152344,-0.5976562 0.515625,-1.1601562 0.890625,-1.6875 0.02344,-0.035156 0.04687,-0.082031 0.04687,-0.1289062 0,-0.058594 -0.03516,-0.1054688 -0.09375,-0.140625 -0.02344,-0.011719 -0.05859,-0.011719 -0.08203,-0.011719 -0.05859,0 -0.128906,0.023437 -0.175781,0.082031 -0.410157,0.5742187 -0.667969,1.2070312 -0.820313,1.8398437 -0.105469,0.375 -0.152344,0.7617188 -0.152344,1.1132813 0,0.80859374 0.292969,1.41796874 1.042969,1.41796874 0.632813,0 1.148438,-0.43359375 1.523438,-1.0546875 0.117187,0.62109375 0.457031,1.0546875 1.125,1.0546875 1.042968,0 1.664062,-1.27734374 1.96875,-2.48437504 z m 3.899414,0.9492188 c 0,-0.09375 -0.08203,-0.09375 -0.117188,-0.09375 -0.09375,0 -0.105469,0.023437 -0.152344,0.140625 -0.433593,1.03124999 -0.960937,1.27734374 -1.300781,1.27734374 -0.199219,0 -0.304687,-0.12890625 -0.304687,-0.45703125 0,-0.24609375 0.02344,-0.31640625 0.05859,-0.48046879 l 0.738282,-2.9414062 h 0.9375 c 0.199218,0 0.304687,0 0.304687,-0.1992188 0,-0.1054687 -0.105469,-0.1054687 -0.28125,-0.1054687 h -0.878906 c 0.363281,-1.4179688 0.410156,-1.6171875 0.410156,-1.6757813 0,-0.1757812 -0.117187,-0.2695312 -0.292969,-0.2695312 -0.02344,0 -0.304687,0.011719 -0.398437,0.3515625 l -0.386719,1.59375 h -0.9375 c -0.199219,0 -0.292969,0 -0.292969,0.1875 0,0.1171875 0.07031,0.1171875 0.269532,0.1171875 h 0.878906 c -0.714844,2.8242187 -0.75,2.99999999 -0.75,3.17578124 0,0.5390625 0.375,0.9140625 0.914062,0.9140625 1.007813,0 1.582032,-1.45312504 1.582032,-1.53515624 z m 0,0"
         style="fill:#000000;fill-opacity:1;fill-rule:nonzero;stroke:none" />
      <path
         id="path148"
         d="m 27.047652,-2.4963585 c 0,-0.7734375 -0.117187,-1.9804687 -0.65625,-3.1054687 -0.597656,-1.21875 -1.464844,-1.875 -1.558594,-1.875 -0.05859,0 -0.105468,0.046875 -0.105468,0.1054687 0,0.035156 0,0.046875 0.199218,0.234375 0.972657,0.984375 1.535157,2.5664063 1.535157,4.640625 0,1.71093754 -0.363282,3.45703129 -1.59375,4.7226563 -0.140625,0.1171875 -0.140625,0.1289062 -0.140625,0.1640625 0,0.058594 0.04687,0.1054687 0.105468,0.1054687 0.09375,0 0.996094,-0.6796875 1.582032,-1.94531246 0.503906,-1.1015625 0.632812,-2.20312504 0.632812,-3.04687504 z m 0,0"
         style="fill:#000000;fill-opacity:1;fill-rule:nonzero;stroke:none" />
    </g>
  </g>
</svg>
