<?xml version="1.0" encoding="UTF-8" standalone="no"?>
<!-- Created with Inkscape (http://www.inkscape.org/) -->

<svg
   width="116.72673mm"
   height="38.301571mm"
   viewBox="0 0 116.72673 38.301571"
   version="1.1"
   id="svg1"
   xmlns:inkscape="http://www.inkscape.org/namespaces/inkscape"
   xmlns:sodipodi="http://sodipodi.sourceforge.net/DTD/sodipodi-0.dtd"
   xmlns="http://www.w3.org/2000/svg"
   xmlns:svg="http://www.w3.org/2000/svg">
  <sodipodi:namedview
     id="namedview1"
     pagecolor="#ffffff"
     bordercolor="#000000"
     borderopacity="0.25"
     inkscape:showpageshadow="2"
     inkscape:pageopacity="0.0"
     inkscape:pagecheckerboard="0"
     inkscape:deskcolor="#d1d1d1"
     inkscape:document-units="mm">
    <inkscape:page
       x="-3.6582625e-14"
       y="0"
       width="116.72672"
       height="38.301571"
       id="page2"
       margin="0"
       bleed="0" />
  </sodipodi:namedview>
  <defs
     id="defs1" />
  <g
     id="g2"
     transform="matrix(0.26458333,0,0,0.26458333,-21.642084,-176.82848)">
    <path
       id="path241"
       d="m -14.17339,28.3468 2e-5,30.61449 m 0,23.81143 -2e-5,30.61452"
       style="fill:none;stroke:#000000;stroke-width:0.3985;stroke-linecap:butt;stroke-linejoin:miter;stroke-miterlimit:10;stroke-dasharray:none;stroke-opacity:1"
       transform="matrix(1.3333333,0,0,-1.3333333,161.904,850.62)" />
    <path
       id="path242"
       d="m -26.07909,70.867 c 0,-6.5754 5.33029,-11.90571 11.90572,-11.90571 6.57541,0 11.90572,5.33031 11.90572,11.90571 0,6.57543 -5.33031,11.90572 -11.90572,11.90572 -6.57543,0 -11.90572,-5.33029 -11.90572,-11.90572 z"
       style="fill:none;stroke:#000000;stroke-width:0.797;stroke-linecap:butt;stroke-linejoin:miter;stroke-miterlimit:10;stroke-dasharray:none;stroke-opacity:1"
       transform="matrix(1.3333333,0,0,-1.3333333,161.904,850.62)" />
    <path
       id="path243"
       d="M -14.17337,58.96129 V 82.77272"
       style="fill:none;stroke:#000000;stroke-width:0.797;stroke-linecap:butt;stroke-linejoin:miter;stroke-miterlimit:10;stroke-dasharray:none;stroke-opacity:1"
       transform="matrix(1.3333333,0,0,-1.3333333,161.904,850.62)" />
    <path
       id="path244"
       d="M -14.17339,113.38724 H 4.53564 m 47.62232,0 H 70.867"
       style="fill:none;stroke:#000000;stroke-width:0.3985;stroke-linecap:butt;stroke-linejoin:miter;stroke-miterlimit:10;stroke-dasharray:none;stroke-opacity:1"
       transform="matrix(1.3333333,0,0,-1.3333333,161.904,850.62)" />
    <path
       id="path245"
       d="m 4.53564,119.34009 h 47.62231 v -11.9057 H 4.53564 Z"
       style="fill:none;stroke:#000000;stroke-width:0.797;stroke-linecap:butt;stroke-linejoin:miter;stroke-miterlimit:10;stroke-dasharray:none;stroke-opacity:1"
       transform="matrix(1.3333333,0,0,-1.3333333,161.904,850.62)" />
    <g
       id="g245"
       aria-label="λ/4|Z&#10;0"
       transform="matrix(1.3333333,0,0,1.3333333,175.39733,686.41867)">
      <path
         id="path246"
         d="m 5.4617656,0.01119531 c 0,-0.03515625 -0.023437,-0.046875 -0.046875,-0.09375 -0.1054687,-0.10546875 -0.1640625,-0.2578125 -0.234375,-0.45703125 L 3.1531719,-6.2114609 c -0.2109375,-0.5742188 -0.75,-0.703125 -1.21875,-0.703125 -0.046875,0 -0.1757813,0 -0.1757813,0.1054687 0,0.082031 0.082031,0.1054688 0.082031,0.1054688 0.328125,0.058594 0.3984375,0.1171875 0.65625,0.796875 l 0.9609375,2.7070312 -2.75390628,2.73046876 c -0.1171875,0.1171875 -0.17578125,0.17578125 -0.17578125,0.3046875 0,0.17578125 0.140625,0.29296875 0.3046875,0.29296875 0.15234375,0 0.24609373,-0.10546875 0.32812503,-0.2109375 l 2.390625,-2.82421871 c 0.4101562,1.0429687 0.890625,2.56640621 1.0546875,2.80078121 0.1523437,0.2109375 0.2578125,0.2109375 0.5273437,0.2109375 h 0.2109375 c 0.1054688,0 0.1171875,-0.0703125 0.1171878,-0.09375 z M 10.228367,-7.2778672 c 0,-0.1054687 -0.08203,-0.1992187 -0.199219,-0.1992187 -0.070312,0 -0.1289058,0.035156 -0.1640621,0.09375 L 6.4080547,2.1088516 c -0.046875,0.1289062 -0.046875,0.1875 -0.046875,0.1875 0,0.1054687 0.082031,0.1992187 0.1992187,0.1992187 0.1289063,0 0.1523438,-0.070312 0.2109375,-0.2460937 l 3.4101561,-9.3398438 c 0.04687,-0.1289062 0.04687,-0.1875 0.04687,-0.1875 z m 0,0"
         style="fill:#000000;fill-opacity:1;fill-rule:nonzero;stroke:none" />
      <path
         id="path247"
         d="m 15.481297,-1.6411484 v -0.3164063 h -0.996094 v -4.5234375 c 0,-0.1992187 0,-0.2578125 -0.152344,-0.2578125 -0.09375,0 -0.117187,0 -0.199218,0.1171875 l -3.058594,4.6640625 v 0.3164063 h 2.648437 v 0.86718746 c 0,0.3515625 -0.02344,0.46875 -0.761718,0.46875 h -0.210938 v 0.3046875025 c 0.410156,-0.0351562525 0.9375,-0.0351562525 1.347656,-0.0351562525 0.421875,0 0.949219,0 1.359375,0.0351562525 V -0.30521094 h -0.210937 c -0.738281,0 -0.761719,-0.1171875 -0.761719,-0.46875 V -1.6411484 Z m -1.699219,-0.3164063 h -2.425781 l 2.425781,-3.7148437 z m 0,0"
         style="fill:#000000;fill-opacity:1;fill-rule:nonzero;stroke:none" />
      <path
         id="path248"
         d="m 20.675633,2.1557266 v -9.2929688 c 0,-0.140625 0,-0.3398437 -0.199219,-0.3398437 -0.199219,0 -0.199219,0.1992187 -0.199219,0.3398437 v 9.2929688 c 0,0.140625 0,0.3398437 0.199219,0.3398437 0.199219,0 0.199219,-0.1992187 0.199219,-0.3398437 z m 0,0"
         style="fill:#000000;fill-opacity:1;fill-rule:nonzero;stroke:none" />
      <path
         id="path249"
         d="m 31.395359,-2.5552109 c 0,-0.046875 -0.03516,-0.1054688 -0.128906,-0.1054688 -0.08203,0 -0.09375,0.035156 -0.164062,0.2460938 -0.433594,1.359375 -0.914063,2.07421871 -2.613282,2.07421871 h -1.699218 l 5.566406,-6.22265621 c 0.01172,-0.046875 0.03516,-0.09375 0.03516,-0.1523438 0,-0.09375 -0.05859,-0.09375 -0.257812,-0.09375 h -4.195313 c -0.246094,0 -0.257812,0.011719 -0.316406,0.1992188 l -0.539063,1.7929687 c -0.02344,0.058594 -0.03516,0.140625 -0.03516,0.140625 0,0 0,0.1171875 0.117188,0.1171875 0.09375,0 0.117187,-0.070312 0.128906,-0.1054687 0.386719,-1.171875 0.902344,-1.828125 2.449219,-1.828125 h 1.628906 l -5.566406,6.22265621 c 0,0 -0.04687,0.15234375 -0.04687,0.17578125 0,0.0937500025 0.07031,0.0937500025 0.257812,0.0937500025 h 4.324219 c 0.246094,0 0.257812,-0.0117187525 0.316406,-0.1992187525 l 0.703125,-2.20312501 c 0.01172,-0.035156 0.03516,-0.1054687 0.03516,-0.1523437 z m 0,0"
         style="fill:#000000;fill-opacity:1;fill-rule:nonzero;stroke:none" />
      <path
         id="path250"
         d="m 35.581883,-0.73294531 c 0,-0.76171879 -0.09375,-1.31249999 -0.410156,-1.80468749 -0.222657,-0.3164063 -0.644532,-0.5976563 -1.207032,-0.5976563 -1.617187,0 -1.617187,1.8984375 -1.617187,2.40234379 0,0.50390625 0,2.36718751 1.617187,2.36718751 1.617188,0 1.617188,-1.86328126 1.617188,-2.36718751 z m -0.632813,-0.09375 c 0,0.515625 0,1.04296875 -0.09375,1.4765625 -0.140625,0.63281251 -0.609375,0.78515621 -0.890625,0.78515621 -0.316406,0 -0.75,-0.1875 -0.890625,-0.76171871 -0.09375,-0.41015625 -0.09375,-0.984375 -0.09375,-1.5 0,-0.50390629 0,-1.03124999 0.105469,-1.41796879 0.152344,-0.5507812 0.597656,-0.6914062 0.878906,-0.6914062 0.375,0 0.738282,0.2226562 0.867188,0.6328125 0.105469,0.375 0.117187,0.8789062 0.117187,1.47656249 z m 0,0"
         style="fill:#000000;fill-opacity:1;fill-rule:nonzero;stroke:none" />
    </g>
    <path
       id="path251"
       d="m 70.867,28.3468 -1e-5,35.57515 m 0,13.89011 1e-5,35.57518"
       style="fill:none;stroke:#000000;stroke-width:0.3985;stroke-linecap:butt;stroke-linejoin:miter;stroke-miterlimit:10;stroke-dasharray:none;stroke-opacity:1"
       transform="matrix(1.3333333,0,0,-1.3333333,161.904,850.62)" />
    <path
       id="path252"
       d="M 70.86699,63.92195 64.91414,77.11752"
       style="fill:none;stroke:#000000;stroke-width:0.797;stroke-linecap:butt;stroke-linejoin:miter;stroke-miterlimit:10;stroke-dasharray:none;stroke-opacity:1"
       transform="matrix(1.3333333,0,0,-1.3333333,161.904,850.62)" />
    <path
       id="path253"
       d="m 107.71794,28.3468 -1e-5,38.55173 m 0,7.93695 1e-5,38.55176"
       style="fill:none;stroke:#000000;stroke-width:0.3985;stroke-linecap:butt;stroke-linejoin:miter;stroke-miterlimit:10;stroke-dasharray:none;stroke-opacity:1"
       transform="matrix(1.3333333,0,0,-1.3333333,161.904,850.62)" />
    <path
       id="path254"
       d="m 95.81221,66.89853 h 23.81143 m -23.81143,7.93695 h 23.81143"
       style="fill:none;stroke:#000000;stroke-width:0.797;stroke-linecap:butt;stroke-linejoin:miter;stroke-miterlimit:10;stroke-dasharray:none;stroke-opacity:1"
       transform="matrix(1.3333333,0,0,-1.3333333,161.904,850.62)" />
    <g
       id="g254"
       aria-label="C&#10;s"
       transform="matrix(1.3333333,0,0,1.3333333,270.748,758.992)">
      <path
         id="path255"
         d="m 6.4438828,-2.3904844 c 0,-0.1054687 -0.1171875,-0.1054687 -0.1171875,-0.1054687 -0.058594,0 -0.1171875,0.023437 -0.1289062,0.1054687 -0.09375,0.2929688 -0.3164063,0.9960938 -1.0078125,1.57031253 -0.6914063,0.5625 -1.3125,0.7265625 -1.8398438,0.7265625 -0.890625,0 -1.9453125,-0.515625 -1.9453125,-2.06250003 0,-0.5742187 0.2109375,-2.1914062 1.2070313,-3.3515625 0.609375,-0.703125 1.5351562,-1.2070312 2.4257812,-1.2070312 1.0195313,0 1.6054688,0.7734375 1.6054688,1.921875 0,0.3984375 -0.035156,0.4101562 -0.035156,0.5039062 0,0.1054688 0.1171875,0.1054688 0.1523438,0.1054688 0.1289062,0 0.1289062,-0.023437 0.1757812,-0.1992188 l 0.6328125,-2.5429687 c 0,-0.023437 -0.023437,-0.09375 -0.1054687,-0.09375 -0.035156,0 -0.046875,0.011719 -0.1523438,0.1171875 l -0.703125,0.7617187 c -0.082031,-0.140625 -0.5390625,-0.8789062 -1.6523437,-0.8789062 -2.2148438,0 -4.45312504,2.203125 -4.45312504,4.5117187 0,1.64062503 1.17187504,2.73046878 2.69531254,2.73046878 0.8671875,0 1.6171875,-0.3984375 2.1445312,-0.85546875 0.9375,-0.82031253 1.1015625,-1.72265623 1.1015622,-1.75781253 z m 0,0"
         style="fill:#000000;fill-opacity:1;fill-rule:nonzero;stroke:none" />
      <path
         id="path256"
         d="m 10.261266,0.41615625 c 0,-0.64453125 -0.7031254,-0.7734375 -0.9609379,-0.8203125 C 9.2300156,-0.415875 9.0542344,-0.4393125 9.0190781,-0.46275 8.7612656,-0.509625 8.6323594,-0.65025 8.6323594,-0.80259375 c 0,-0.1640625 0.1289062,-0.35156245 0.28125,-0.44531245 0.1875,-0.1289063 0.4335937,-0.140625 0.5507812,-0.140625 0.140625,0 0.5039063,0.023437 0.6562504,0.2578125 -0.1757816,0.046875 -0.2929691,0.18749995 -0.2929691,0.32812495 0,0.1640625 0.140625,0.22265625 0.2343751,0.22265625 0.07031,0 0.339844,-0.0351563 0.339844,-0.3984375 0,-0.4453125 -0.5039066,-0.5976562 -0.9257816,-0.5976562 -1.0898438,0 -1.2890625,0.79687495 -1.2890625,1.00781245 0,0.2578125 0.1523437,0.43359375 0.2460937,0.515625 0.1757813,0.140625 0.3046875,0.1640625 0.7851563,0.24609375 0.1523437,0.0351563 0.5976562,0.1171875 0.5976562,0.46875 0,0.1171875 -0.082031,0.375 -0.375,0.5507813 C 9.1714219,1.365375 8.8315781,1.365375 8.7495469,1.365375 c -0.28125,0 -0.6796875,-0.058594 -0.84375,-0.2929687 0.234375,-0.023437 0.3867187,-0.1992188 0.3867187,-0.39843755 0,-0.1640625 -0.1289062,-0.2578125 -0.2695312,-0.2578125 -0.1992188,0 -0.4101563,0.1640625 -0.4101563,0.46875 0,0.42187505 0.4453125,0.67968755 1.125,0.67968755 1.2890629,0 1.5234379,-0.8789063 1.5234379,-1.14843755 z m 0,0"
         style="fill:#000000;fill-opacity:1;fill-rule:nonzero;stroke:none" />
    </g>
    <path
       id="path257"
       d="m 70.867,113.38724 h 56.69362 9.35439 m 23.81145,0 h 9.3544 7.37028 m 7.93695,0 h 7.37029 16.44108 m 23.81144,0 h 16.4411 5.66928"
       style="fill:none;stroke:#000000;stroke-width:0.3985;stroke-linecap:butt;stroke-linejoin:miter;stroke-miterlimit:10;stroke-dasharray:none;stroke-opacity:1"
       transform="matrix(1.3333333,0,0,-1.3333333,161.904,850.62)" />
    <path
       id="path258"
       d="m 136.51651,113.22784 c 0,3.28769 1.63475,5.95286 3.65135,5.95286 2.0166,0 3.65134,-2.66517 3.65134,-5.95286 0,-1.64376 -0.66625,-2.97627 -1.48813,-2.97627 -0.82188,0 -1.48814,1.33251 -1.48814,2.97627 0,3.28769 1.63475,5.95286 3.65135,5.95286 2.0166,0 3.65135,-2.66517 3.65135,-5.95286 0,-1.64376 -0.66626,-2.97627 -1.48814,-2.97627 -0.82187,0 -1.48813,1.33251 -1.48813,2.97627 0,3.28769 1.63474,5.95286 3.65135,5.95286 2.0166,0 3.65134,-2.66517 3.65134,-5.95286 0,-1.64376 -0.66626,-2.97627 -1.48813,-2.97627 -0.82189,0 -1.48815,1.33251 -1.48815,2.97627 0,3.28769 1.63475,5.95286 3.65136,5.95286 2.0166,0 3.65135,-2.66517 3.65135,-5.95286 0,-1.64376 -0.66626,-2.97627 -1.48815,-2.97627 -0.82188,0 -1.48813,1.33251 -1.48813,2.97627 0,3.28769 1.63474,5.95286 3.65134,5.95286 2.0166,0 3.65136,-2.66517 3.65136,-5.95286"
       style="fill:none;stroke:#000000;stroke-width:0.797;stroke-linecap:butt;stroke-linejoin:bevel;stroke-miterlimit:10;stroke-dasharray:none;stroke-opacity:1"
       transform="matrix(1.3333333,0,0,-1.3333333,161.904,850.62)" />
    <g
       id="g258"
       aria-label="L&#10;1"
       transform="matrix(1.3333333,0,0,1.3333333,352.82933,686.41867)">
      <path
         id="path259"
         d="m 6.40925,-2.4614609 c 0,-0.035156 -0.035156,-0.1054688 -0.1289062,-0.1054688 -0.082031,0 -0.09375,0.046875 -0.1640625,0.2109375 -0.3398438,0.9140625 -0.7734375,2.05078126 -2.4960938,2.05078126 h -0.9375 c -0.140625,0 -0.1640625,0 -0.2226562,-0.0117188 -0.1054688,-0.0117188 -0.1289063,-0.0234375 -0.1289063,-0.10546875 0,-0.0234375 0,-0.046875 0.046875,-0.22265625 L 3.7256563,-6.0239609 c 0.09375,-0.3632813 0.1171875,-0.46875 1.0546875,-0.46875 0.3046875,0 0.375,0 0.375,-0.1875 0,-0.1289063 -0.1054688,-0.1289063 -0.1523438,-0.1289063 l -1.4765625,0.035156 -1.3242187,-0.035156 c -0.070312,0 -0.1875,0 -0.1875,0.1992188 0,0.1171875 0.082031,0.1171875 0.28125,0.1171875 0,0 0.1992187,0 0.375,0.011719 0.1757812,0.023437 0.2695312,0.035156 0.2695312,0.1640625 0,0.035156 -0.011719,0.070312 -0.046875,0.1875 l -1.3359375,5.35546876 c -0.09375,0.38671875 -0.1171875,0.46875 -0.90234375,0.46875 -0.1640625,0 -0.26953125,0 -0.26953125,0.19921875 0,0.1054687525 0.09375,0.1054687525 0.26953125,0.1054687525 H 5.2725313 c 0.234375,0 0.2460937,0 0.3046875,-0.1640625025 L 6.362375,-2.3208359 C 6.40925,-2.4263047 6.40925,-2.4614609 6.40925,-2.4614609 Z m 0,0"
         style="fill:#000000;fill-opacity:1;fill-rule:nonzero;stroke:none" />
      <path
         id="path260"
         d="M 10.074289,1.4936172 V 1.2475234 H 9.8164766 c -0.703125,0 -0.703125,-0.09375 -0.703125,-0.32812496 V -2.9360703 c 0,-0.1875 -0.011719,-0.1992188 -0.2109375,-0.1992188 -0.4453125,0.4335938 -1.078125,0.4453125 -1.359375,0.4453125 v 0.2460938 c 0.1640625,0 0.6210937,0 1.0078125,-0.1875 v 3.55078124 c 0,0.23437496 0,0.32812496 -0.6914063,0.32812496 H 7.5899141 v 0.2460938 l 1.2421875,-0.023437 z m 0,0"
         style="fill:#000000;fill-opacity:1;fill-rule:nonzero;stroke:none" />
    </g>
    <path
       id="path261"
       d="M 177.45114,125.29295 V 101.4815 m 7.93695,23.81145 V 101.4815"
       style="fill:none;stroke:#000000;stroke-width:0.797;stroke-linecap:butt;stroke-linejoin:miter;stroke-miterlimit:10;stroke-dasharray:none;stroke-opacity:1"
       transform="matrix(1.3333333,0,0,-1.3333333,161.904,850.62)" />
    <g
       id="g261"
       aria-label="C&#10;1"
       transform="matrix(1.3333333,0,0,1.3333333,396.068,677.688)">
      <path
         id="path262"
         d="m 6.4441172,-2.391 c 0,-0.1054687 -0.1171875,-0.1054687 -0.1171875,-0.1054687 -0.058594,0 -0.1171875,0.023437 -0.1289063,0.1054687 -0.09375,0.2929688 -0.3164062,0.9960938 -1.0078125,1.5703125 -0.6914062,0.5625 -1.3125,0.7265625 -1.8398437,0.7265625 -0.890625,0 -1.9453125,-0.515625 -1.9453125,-2.0625 0,-0.5742187 0.2109375,-2.1914062 1.2070312,-3.3515625 0.609375,-0.703125 1.5351563,-1.2070312 2.4257813,-1.2070312 1.0195312,0 1.6054687,0.7734375 1.6054687,1.921875 0,0.3984375 -0.035156,0.4101562 -0.035156,0.5039062 0,0.1054688 0.1171875,0.1054688 0.1523437,0.1054688 0.1289063,0 0.1289063,-0.023437 0.1757813,-0.1992188 l 0.6328125,-2.5429687 c 0,-0.023437 -0.023437,-0.09375 -0.1054688,-0.09375 -0.035156,0 -0.046875,0.011719 -0.1523437,0.1171875 L 6.6081797,-6.141 c -0.082031,-0.140625 -0.5390625,-0.8789062 -1.6523438,-0.8789062 -2.2148437,0 -4.45312496,2.203125 -4.45312496,4.5117187 0,1.640625 1.17187496,2.73046875 2.69531246,2.73046875 0.8671875,0 1.6171875,-0.3984375 2.1445313,-0.85546875 C 6.2800547,-1.4535 6.4441172,-2.3558437 6.4441172,-2.391 Z m 0,0"
         style="fill:#000000;fill-opacity:1;fill-rule:nonzero;stroke:none" />
      <path
         id="path263"
         d="M 10.413844,1.4937656 V 1.2476719 h -0.257813 c -0.7031247,0 -0.7031247,-0.09375 -0.7031247,-0.32812502 V -2.9359219 c 0,-0.1875 -0.011719,-0.1992187 -0.2109375,-0.1992187 -0.4453125,0.4335937 -1.078125,0.4453125 -1.359375,0.4453125 v 0.2460937 c 0.1640625,0 0.6210937,0 1.0078125,-0.1875 v 3.55078128 c 0,0.23437502 0,0.32812502 -0.6914063,0.32812502 H 7.9294688 v 0.2460937 l 1.2421875,-0.023437 z m 0,0"
         style="fill:#000000;fill-opacity:1;fill-rule:nonzero;stroke:none" />
    </g>
    <path
       id="path264"
       d="m 208.80096,113.22784 c 0,3.28769 1.63474,5.95286 3.65134,5.95286 2.01662,0 3.65135,-2.66517 3.65135,-5.95286 0,-1.64376 -0.66625,-2.97627 -1.48813,-2.97627 -0.82188,0 -1.48814,1.33251 -1.48814,2.97627 0,3.28769 1.63475,5.95286 3.65135,5.95286 2.0166,0 3.65135,-2.66517 3.65135,-5.95286 0,-1.64376 -0.66626,-2.97627 -1.48814,-2.97627 -0.82188,0 -1.48814,1.33251 -1.48814,2.97627 0,3.28769 1.63475,5.95286 3.65135,5.95286 2.0166,0 3.65135,-2.66517 3.65135,-5.95286 0,-1.64376 -0.66626,-2.97627 -1.48814,-2.97627 -0.82187,0 -1.48813,1.33251 -1.48813,2.97627 0,3.28769 1.63475,5.95286 3.65135,5.95286 2.0166,0 3.65134,-2.66517 3.65134,-5.95286 0,-1.64376 -0.66625,-2.97627 -1.48813,-2.97627 -0.82189,0 -1.48815,1.33251 -1.48815,2.97627 0,3.28769 1.63476,5.95286 3.65136,5.95286 2.0166,0 3.65135,-2.66517 3.65135,-5.95286"
       style="fill:none;stroke:#000000;stroke-width:0.797;stroke-linecap:butt;stroke-linejoin:bevel;stroke-miterlimit:10;stroke-dasharray:none;stroke-opacity:1"
       transform="matrix(1.3333333,0,0,-1.3333333,161.904,850.62)" />
    <path
       id="path265"
       d="m 6.4107813,-2.4614609 c 0,-0.035156 -0.035156,-0.1054688 -0.1289063,-0.1054688 -0.082031,0 -0.09375,0.046875 -0.1640625,0.2109375 -0.3398437,0.9140625 -0.7734375,2.05078126 -2.4960937,2.05078126 h -0.9375 c -0.140625,0 -0.1640625,0 -0.2226563,-0.0117188 -0.1054687,-0.0117188 -0.1289062,-0.0234375 -0.1289062,-0.10546875 0,-0.0234375 0,-0.046875 0.046875,-0.22265625 L 3.7271875,-6.0239609 c 0.09375,-0.3632813 0.1171875,-0.46875 1.0546875,-0.46875 0.3046875,0 0.375,0 0.375,-0.1875 0,-0.1289063 -0.1054687,-0.1289063 -0.1523437,-0.1289063 L 3.5279688,-6.7739609 2.20375,-6.8091172 c -0.070312,0 -0.1875,0 -0.1875,0.1992188 0,0.1171875 0.082031,0.1171875 0.28125,0.1171875 0,0 0.1992188,0 0.375,0.011719 0.1757813,0.023437 0.2695313,0.035156 0.2695313,0.1640625 0,0.035156 -0.011719,0.070312 -0.046875,0.1875 l -1.3359375,5.35546876 c -0.09375,0.38671875 -0.1171875,0.46875 -0.9023438,0.46875 -0.1640625,0 -0.26953125,0 -0.26953125,0.19921875 0,0.1054687525 0.09375,0.1054687525 0.26953125,0.1054687525 h 4.6171875 c 0.234375,0 0.2460938,0 0.3046875,-0.1640625025 L 6.3639063,-2.3208359 c 0.046875,-0.1054688 0.046875,-0.140625 0.046875,-0.140625 z m 0,0"
       style="fill:#000000;fill-opacity:1;fill-rule:nonzero;stroke:none"
       aria-label="L"
       transform="matrix(1.3333333,0,0,1.3333333,452.18667,686.41867)" />
    <path
       id="path266"
       d="M -34.01608,42.5202 V 98.8153"
       style="fill:none;stroke:#000000;stroke-width:0.3985;stroke-linecap:butt;stroke-linejoin:miter;stroke-miterlimit:10;stroke-dasharray:none;stroke-opacity:1"
       transform="matrix(1.3333333,0,0,-1.3333333,161.904,850.62)" />
    <path
       id="path267"
       d="M -2.07224,2.39104 C -1.69365,0.95639 -0.84999,0.27895 0,0 -0.84999,-0.27895 -1.69365,-0.95639 -2.07224,-2.39104"
       style="fill:none;stroke:#000000;stroke-width:0.3985;stroke-linecap:round;stroke-linejoin:round;stroke-miterlimit:10;stroke-dasharray:none;stroke-opacity:1"
       transform="matrix(0,-1.3333333,-1.3333333,0,116.54923,718.60057)" />
    <g
       id="g267"
       aria-label="V&#10;DC"
       transform="matrix(1.3333333,0,0,1.3333333,81.045333,759.67467)">
      <path
         id="path268"
         d="m 7.6652188,-6.6788516 c 0,-0.082031 -0.058594,-0.1289062 -0.1289063,-0.1289062 -0.2578125,0 -0.5507812,0.035156 -0.8203125,0.035156 -0.328125,0 -0.6679687,-0.035156 -0.984375,-0.035156 -0.058594,0 -0.1875,0 -0.1875,0.1992187 0,0.1054688 0.082031,0.1171875 0.1523438,0.1171875 C 5.966,-6.4796328 6.1535,-6.3741641 6.1535,-6.1632266 c 0,0.1523438 -0.140625,0.375 -0.140625,0.375 L 2.9542813,-0.92494531 2.2745938,-6.1983828 c 0,-0.1640625 0.2226562,-0.2929688 0.6796875,-0.2929688 0.140625,0 0.2578125,0 0.2578125,-0.1992187 0,-0.09375 -0.082031,-0.1171875 -0.140625,-0.1171875 -0.3984375,0 -0.8320313,0.035156 -1.2421875,0.035156 -0.1757813,0 -0.3632813,-0.011719 -0.5390625,-0.011719 -0.1875,0 -0.37500005,-0.023437 -0.53906255,-0.023437 -0.0703125,0 -0.1875,0 -0.1875,0.1992187 0,0.1171875 0.0820313,0.1171875 0.24609375,0.1171875 0.5507813,0 0.5625,0.082031 0.5976563,0.3398438 l 0.7851562,6.14062499 c 0.035156,0.19921875 0.070312,0.234375 0.1992188,0.234375 0.1640625,0 0.1992187,-0.0585938 0.28125,-0.1875 L 6.2589688,-5.6710391 c 0.4804687,-0.7734375 0.9023437,-0.8085937 1.2773437,-0.8203125 0.1171875,-0.011719 0.1289063,-0.1875 0.1289063,-0.1875 z m 0,0"
         style="fill:#000000;fill-opacity:1;fill-rule:nonzero;stroke:none" />
      <path
         id="path269"
         d="m 12.033383,-1.4464297 c 0,-1.0195312 -0.703125,-1.8164062 -1.839844,-1.8164062 H 7.6622891 c -0.140625,0 -0.2226563,0 -0.2226563,0.1523437 0,0.09375 0.070312,0.09375 0.2226563,0.09375 0.1171875,0 0.140625,0 0.2695312,0.011719 0.140625,0.011719 0.1523438,0.035156 0.1523438,0.1054687 0,0 0,0.046875 -0.023437,0.1523438 l -0.9375,3.70312496 C 7.0763516,1.1902891 7.0646328,1.2488828 6.5138516,1.2488828 c -0.1289063,0 -0.2109375,0 -0.2109375,0.1523438 0,0.09375 0.082031,0.09375 0.2109375,0.09375 h 2.4960937 c 1.5468747,0 3.0234377,-1.41796879 3.0234377,-2.9414063 z m -0.65625,-0.234375 c 0,0.1640625 -0.07031,1.37109376 -0.773438,2.16796876 C 10.334164,0.79185156 9.7365078,1.2488828 8.8810391,1.2488828 H 7.9318203 c -0.2226562,0 -0.2226562,-0.011719 -0.2226562,-0.070312 0,0 0,-0.046875 0.023437,-0.1523437 l 0.9609375,-3.8085938 c 0.046875,-0.2109375 0.058594,-0.234375 0.3515625,-0.234375 h 0.890625 c 0.7851569,0 1.4414069,0.3867188 1.4414069,1.335937 z m 6.615234,0.1171875 0.433594,-1.7578125 c 0,-0.035156 -0.02344,-0.082031 -0.09375,-0.082031 -0.04687,0 -0.07031,0.011719 -0.128906,0.082031 l -0.503907,0.5390625 c -0.07031,-0.082031 -0.457031,-0.6210937 -1.3125,-0.6210937 -1.699218,0 -3.351562,1.5 -3.351562,3.07031246 0,1.13671875 0.890625,1.96875004 2.132812,1.96875004 0.375,0 1.054688,-0.082031 1.769532,-0.67968754 0.550781,-0.46875 0.703125,-1.078125 0.703125,-1.13671875 0,-0.09375 -0.08203,-0.09375 -0.117188,-0.09375 -0.09375,0 -0.105469,0.0351563 -0.128906,0.1171875 -0.28125,0.94921875 -1.265625,1.53515629 -2.109375,1.53515629 -0.738281,0 -1.558594,-0.38671879 -1.558594,-1.48828129 0,-0.2109375 0.04687,-1.31250001 0.855469,-2.19140621 0.480469,-0.5273438 1.207031,-0.8554688 1.875,-0.8554688 0.808594,0 1.277344,0.5859375 1.277344,1.3710938 0,0.1875 -0.02344,0.2460937 -0.02344,0.28125 0,0.09375 0.09375,0.09375 0.128906,0.09375 0.117188,0 0.117188,-0.023437 0.152344,-0.1523438 z m 0,0"
         style="fill:#000000;fill-opacity:1;fill-rule:nonzero;stroke:none" />
    </g>
    <path
       id="path270"
       d="M 127.56062,42.5202 V 98.8153"
       style="fill:none;stroke:#000000;stroke-width:0.3985;stroke-linecap:butt;stroke-linejoin:miter;stroke-miterlimit:10;stroke-dasharray:none;stroke-opacity:1"
       transform="matrix(1.3333333,0,0,-1.3333333,161.904,850.62)" />
    <path
       id="path271"
       d="M -2.07224,2.39104 C -1.69365,0.95639 -0.84999,0.27895 0,0 -0.84999,-0.27895 -1.69365,-0.95639 -2.07224,-2.39104"
       style="fill:none;stroke:#000000;stroke-width:0.3985;stroke-linecap:round;stroke-linejoin:round;stroke-miterlimit:10;stroke-dasharray:none;stroke-opacity:1"
       transform="matrix(0,-1.3333333,-1.3333333,0,331.98483,718.60057)" />
    <g
       id="g271"
       aria-label="v&#10;s&#10;(ωt)"
       transform="matrix(1.3333333,0,0,1.3333333,340.444,759.45333)">
      <path
         id="path272"
         d="m 4.6650469,-3.7032813 c 0,-0.5390625 -0.2578125,-0.703125 -0.4453125,-0.703125 -0.2460938,0 -0.4804688,0.2578125 -0.4804688,0.4804688 0,0.1289062 0.046875,0.1875 0.1523438,0.3046875 0.2109375,0.1992187 0.3398437,0.4570312 0.3398437,0.8085937 0,0.421875 -0.609375,2.7070313 -1.7695312,2.7070313 -0.5039063,0 -0.7382813,-0.3515625 -0.7382813,-0.8671875 0,-0.5625 0.2695313,-1.2890625 0.5742188,-2.1210938 0.070312,-0.1640625 0.1289062,-0.3046875 0.1289062,-0.4921875 0,-0.4453125 -0.328125,-0.8203125 -0.8203125,-0.8203125 -0.93749997,0 -1.31249997,1.453125 -1.31249997,1.5351563 0,0.1054687 0.1171875,0.1054687 0.1171875,0.1054687 0.09375,0 0.10546875,-0.023437 0.15234375,-0.1875 C 0.85645313,-3.949375 1.2900469,-4.18375 1.5712969,-4.18375 c 0.082031,0 0.2578125,0 0.2578125,0.3164062 0,0.2460938 -0.1054688,0.515625 -0.1757813,0.703125 -0.4335937,1.1484375 -0.5625,1.6054688 -0.5625,2.0390625 0,1.07812505 0.8671875,1.2304688 1.3359375,1.2304688 1.6640625,0 2.2382813,-3.2929688 2.2382813,-3.8085938 z m 0,0"
         style="fill:#000000;fill-opacity:1;fill-rule:nonzero;stroke:none" />
      <path
         id="path273"
         d="m 7.9697344,0.41585937 c 0,-0.64453125 -0.703125,-0.7734375 -0.9609375,-0.8203125 -0.070312,-0.0117188 -0.2460938,-0.0351563 -0.28125,-0.0585938 -0.2578125,-0.046875 -0.3867188,-0.1875 -0.3867188,-0.33984375 0,-0.1640625 0.1289063,-0.35156242 0.28125,-0.44531242 0.1875,-0.1289063 0.4335938,-0.140625 0.5507813,-0.140625 0.140625,0 0.5039062,0.023437 0.65625,0.2578125 -0.1757813,0.046875 -0.2929688,0.18749992 -0.2929688,0.32812492 0,0.1640625 0.140625,0.22265625 0.234375,0.22265625 0.070312,0 0.3398438,-0.0351563 0.3398438,-0.3984375 0,-0.44531247 -0.5039063,-0.59765617 -0.9257813,-0.59765617 -1.0898437,0 -1.2890625,0.79687492 -1.2890625,1.00781242 0,0.2578125 0.1523438,0.43359375 0.2460938,0.515625 0.1757812,0.140625 0.3046875,0.1640625 0.7851562,0.24609375 0.1523438,0.0351563 0.5976563,0.1171875 0.5976563,0.46875 0,0.1171875 -0.082031,0.37500003 -0.375,0.55078123 -0.2695313,0.1523438 -0.609375,0.1523438 -0.6914063,0.1523438 -0.28125,0 -0.6796875,-0.058594 -0.84375,-0.2929688 0.234375,-0.023437 0.3867188,-0.19921873 0.3867188,-0.39843748 0,-0.1640625 -0.1289063,-0.2578125 -0.2695313,-0.2578125 -0.1992187,0 -0.4101562,0.1640625 -0.4101562,0.46875 0,0.42187498 0.4453125,0.67968748 1.125,0.67968748 1.2890625,0 1.5234375,-0.87890623 1.5234375,-1.14843743 z m 0,0"
         style="fill:#000000;fill-opacity:1;fill-rule:nonzero;stroke:none" />
      <path
         id="path274"
         d="m 12.381844,2.3904687 c 0,-0.035156 0,-0.046875 -0.164063,-0.2226562 -1.242187,-1.25390625 -1.570312,-3.12890625 -1.570312,-4.6640625 0,-1.7226563 0.386719,-3.4570313 1.605469,-4.7109375 0.128906,-0.1171875 0.128906,-0.1289063 0.128906,-0.1640625 0,-0.070312 -0.03516,-0.1054688 -0.09375,-0.1054688 -0.105469,0 -0.996094,0.6796875 -1.582031,1.9453125 -0.515625,1.1015625 -0.632813,2.203125 -0.632813,3.0351563 0,0.7851562 0.117188,1.9921875 0.65625,3.1171875 0.597656,1.21875 1.453125,1.875 1.558594,1.875 0.05859,0 0.09375,-0.035156 0.09375,-0.1054688 z m 0,0"
         style="fill:#000000;fill-opacity:1;fill-rule:nonzero;stroke:none" />
      <path
         id="path275"
         d="m 18.750984,-2.3790625 c 0.105469,-0.4335938 0.222657,-0.9257813 0.222657,-1.3242188 0,-0.2578125 -0.04687,-0.4804687 -0.199219,-0.609375 -0.05859,-0.058594 -0.128906,-0.09375 -0.222656,-0.09375 -0.117188,0 -0.246094,0.058594 -0.351563,0.1640625 -0.09375,0.09375 -0.140625,0.2109375 -0.140625,0.3164063 0,0.1054687 0.04687,0.1757812 0.117188,0.2460937 0.246093,0.2226563 0.375,0.5273438 0.375,0.8789063 0,0.1171875 -0.01172,0.2460937 -0.04687,0.375 -0.222657,0.9023437 -0.796875,1.81640625 -1.59375,1.81640625 -0.550782,0 -0.878907,-0.375 -0.972657,-0.89062505 0.128907,-0.28125 0.234375,-0.5859375 0.304688,-0.8789062 0.01172,-0.09375 0.03516,-0.1757813 0.03516,-0.2578125 0,-0.1523438 -0.04687,-0.2578125 -0.1875,-0.2578125 -0.1875,0 -0.292969,0.2460937 -0.339844,0.46875 -0.08203,0.3046875 -0.117187,0.5976562 -0.128906,0.890625 -0.328125,0.5390625 -0.808594,0.92578125 -1.359375,0.92578125 -0.597656,0 -0.867187,-0.49218755 -0.867187,-1.12500005 0,-0.1992187 0.03516,-0.421875 0.08203,-0.6445312 0.152344,-0.5976563 0.515625,-1.1601563 0.890625,-1.6875 0.02344,-0.035156 0.04687,-0.082031 0.04687,-0.1289063 0,-0.058594 -0.03516,-0.1054687 -0.09375,-0.140625 -0.02344,-0.011719 -0.05859,-0.011719 -0.08203,-0.011719 -0.05859,0 -0.128907,0.023437 -0.175782,0.082031 -0.410156,0.5742188 -0.667968,1.2070313 -0.820312,1.8398438 -0.105469,0.375 -0.152344,0.7617187 -0.152344,1.1132812 0,0.8085938 0.292969,1.4179688 1.042969,1.4179688 0.632812,0 1.148437,-0.43359375 1.523437,-1.0546875 0.117188,0.62109375 0.457032,1.0546875 1.125,1.0546875 1.042969,0 1.664063,-1.2773438 1.96875,-2.484375 z m 3.899414,0.9492187 c 0,-0.09375 -0.08203,-0.09375 -0.117187,-0.09375 -0.09375,0 -0.105469,0.023437 -0.152344,0.140625 -0.433594,1.03125005 -0.960937,1.2773438 -1.300781,1.2773438 -0.199219,0 -0.304688,-0.12890625 -0.304688,-0.45703125 0,-0.24609375 0.02344,-0.31640625 0.05859,-0.48046875 l 0.738281,-2.9414063 h 0.9375 c 0.199219,0 0.304688,0 0.304688,-0.1992187 0,-0.1054688 -0.105469,-0.1054688 -0.28125,-0.1054688 h -0.878906 c 0.363281,-1.4179687 0.410156,-1.6171875 0.410156,-1.6757812 0,-0.1757813 -0.117188,-0.2695313 -0.292969,-0.2695313 -0.02344,0 -0.304687,0.011719 -0.398437,0.3515625 l -0.386719,1.59375 h -0.9375 c -0.199219,0 -0.292969,0 -0.292969,0.1875 0,0.1171875 0.07031,0.1171875 0.269531,0.1171875 h 0.878907 c -0.714844,2.8242188 -0.75,3.00000005 -0.75,3.1757813 0,0.5390625 0.375,0.9140625 0.914062,0.9140625 1.007813,0 1.582031,-1.453125 1.582031,-1.5351563 z m 0,0"
         style="fill:#000000;fill-opacity:1;fill-rule:nonzero;stroke:none" />
      <path
         id="path276"
         d="m 26.001961,-2.49625 c 0,-0.7734375 -0.117188,-1.9804688 -0.65625,-3.1054688 -0.597656,-1.21875 -1.464844,-1.875 -1.558594,-1.875 -0.05859,0 -0.105469,0.046875 -0.105469,0.1054688 0,0.035156 0,0.046875 0.199219,0.234375 0.972656,0.984375 1.535156,2.5664062 1.535156,4.640625 0,1.7109375 -0.363281,3.45703125 -1.59375,4.7226562 -0.140625,0.1171875 -0.140625,0.1289063 -0.140625,0.1640625 0,0.058594 0.04687,0.1054688 0.105469,0.1054688 0.09375,0 0.996094,-0.6796875 1.582031,-1.9453125 0.503907,-1.1015625 0.632813,-2.203125 0.632813,-3.046875 z m 0,0"
         style="fill:#000000;fill-opacity:1;fill-rule:nonzero;stroke:none" />
    </g>
    <path
       id="path277"
       d="M -14.17339,28.3468 H 255.12128"
       style="fill:none;stroke:#000000;stroke-width:0.3985;stroke-linecap:butt;stroke-linejoin:miter;stroke-miterlimit:10;stroke-dasharray:none;stroke-opacity:1"
       transform="matrix(1.3333333,0,0,-1.3333333,161.904,850.62)" />
    <path
       id="path278"
       d="m 255.12128,113.38724 -2e-5,-26.64603 m 0,-31.7484 2e-5,-26.64601"
       style="fill:none;stroke:#000000;stroke-width:0.3985;stroke-linecap:butt;stroke-linejoin:miter;stroke-miterlimit:10;stroke-dasharray:none;stroke-opacity:1"
       transform="matrix(1.3333333,0,0,-1.3333333,161.904,850.62)" />
    <path
       id="path279"
       d="m 255.12126,87.13971 5.95285,-3.07741 -11.9057,-5.35782 11.9057,-5.35782 -11.9057,-5.35781 11.9057,-5.35782 -11.9057,-5.35781 5.95285,-2.67891"
       style="fill:none;stroke:#000000;stroke-width:0.797;stroke-linecap:butt;stroke-linejoin:bevel;stroke-miterlimit:10;stroke-dasharray:none;stroke-opacity:1"
       transform="matrix(1.3333333,0,0,-1.3333333,161.904,850.62)" />
    <path
       id="path280"
       d="m 6.4337188,-5.5076719 c 0,0.3398438 -0.1523438,1.0195313 -0.5507813,1.4179688 -0.2578125,0.2578125 -0.7851562,0.5742187 -1.6757812,0.5742187 H 3.093875 l 0.6445313,-2.6015625 c 0.058594,-0.234375 0.082031,-0.3398437 0.28125,-0.3632812 0.082031,-0.011719 0.3984375,-0.011719 0.5976562,-0.011719 0.7148438,0 1.8164063,0 1.8164063,0.9843752 z m 1.0898437,4.58203128 c 0,-0.11718748 -0.1171875,-0.11718748 -0.1171875,-0.11718748 -0.09375,0 -0.1171875,0.0703125 -0.1289062,0.14062498 -0.2578125,0.73828125 -0.6796875,0.902343745 -0.9140625,0.902343745 -0.328125,0 -0.3984375,-0.222656245 -0.3984375,-0.609374995 0,-0.3046875 0.058594,-0.82031253 0.1054687,-1.13671873 0.011719,-0.140625 0.035156,-0.328125 0.035156,-0.46875 0,-0.7617188 -0.6679688,-1.078125 -0.9375,-1.171875 C 6.1759063,-3.6092344 7.3595,-4.3006406 7.3595,-5.3084531 c 0,-0.8554688 -0.890625,-1.5 -2.203125,-1.5 H 2.3204375 c -0.1992187,0 -0.2929687,0 -0.2929687,0.1992187 0,0.1171875 0.09375,0.1171875 0.28125,0.1171875 0,0 0.2109375,0 0.3867187,0.011719 0.1757813,0.023437 0.2578125,0.035156 0.2578125,0.1640625 0,0.035156 0,0.070312 -0.035156,0.1875 l -1.3359375,5.35546873 c -0.09375,0.38671875 -0.1171875,0.46875 -0.9023438,0.46875 -0.17578125,0 -0.26953125,0 -0.26953125,0.19921875 0,0.105468745 0.140625,0.105468745 0.140625,0.105468745 L 1.8048125,-0.03501562 3.0704375,1.40625e-4 c 0.082031,0 0.1992188,0 0.1992188,-0.199218745 0,-0.10546875 -0.09375,-0.10546875 -0.28125,-0.10546875 -0.3632813,0 -0.6445313,0 -0.6445313,-0.1875 0,-0.0585938 0.011719,-0.10546875 0.023437,-0.1640625 l 0.65625,-2.63671873 h 1.195313 c 0.9023438,0 1.078125,0.5507812 1.078125,0.9023437 0,0.1523438 -0.082031,0.4570313 -0.140625,0.6914063 -0.070312,0.2695312 -0.1523437,0.6445312 -0.1523437,0.84374998 0,1.078125 1.1953125,1.078125 1.3242187,1.078125 0.84375,0 1.1953125,-1.0078125 1.1953125,-1.1484375 z m 0,0"
       style="fill:#000000;fill-opacity:1;fill-rule:nonzero;stroke:none"
       aria-label="R"
       transform="matrix(1.3333333,0,0,1.3333333,512.93733,758.992)" />
    <path
       id="path281"
       d="m 206.93178,99.21382 28.06503,28.06502"
       style="fill:none;stroke:#000000;stroke-width:0.3985;stroke-linecap:butt;stroke-linejoin:miter;stroke-miterlimit:10;stroke-dasharray:none;stroke-opacity:1"
       transform="matrix(1.3333333,0,0,-1.3333333,161.904,850.62)" />
    <path
       id="path282"
       d="M -2.07224,2.39104 C -1.69365,0.95639 -0.84999,0.27895 0,0 -0.84999,-0.27895 -1.69365,-0.95639 -2.07224,-2.39104"
       style="fill:none;stroke:#000000;stroke-width:0.3985;stroke-linecap:round;stroke-linejoin:round;stroke-miterlimit:10;stroke-dasharray:none;stroke-opacity:1"
       transform="matrix(0.9428,-0.9428,-0.9428,-0.9428,475.42093,680.72701)" />
  </g>
</svg>
